<svg width="18" height="27" viewBox="0 0 18 27" fill="none" xmlns="http://www.w3.org/2000/svg">
<path d="M11.2576 18.5289C11.8751 19.3548 12.5763 20.2399 13.1706 21.086C13.2443 21.1908 13.1848 21.2236 13.1994 21.2574C13.2388 21.3493 13.3374 21.3478 13.3759 21.4078C13.4955 21.5932 13.6114 21.7624 13.731 21.9376L13.7533 21.9678C13.8198 22.0743 13.8845 22.179 13.949 22.2868C14.13 22.5893 13.8632 22.5731 13.8921 22.7026C13.9469 22.9536 14.0533 22.6316 14.1575 22.6735C14.3016 22.907 14.4345 23.1478 14.5672 23.3885C14.5076 23.3479 14.4499 23.3091 14.3914 23.2667C14.456 23.3684 14.518 23.5297 14.3462 23.409C14.3554 23.4562 14.3599 23.5025 14.3706 23.551C14.4588 23.504 14.5863 23.6713 14.6452 23.6527C14.7039 23.6341 14.6257 23.5465 14.6301 23.5438C14.6937 23.5073 14.8915 23.9607 14.9048 23.9929C14.9403 24.08 14.7934 24.0858 14.8452 24.1448C14.9346 24.2464 15.0854 24.0278 14.9212 24.3688C15.0514 24.3646 15.0089 24.4017 15.0567 24.4802C15.063 24.4903 15.1081 24.446 15.1125 24.4493C15.2309 24.5328 15.0748 24.5162 15.07 24.5203C14.9912 24.5939 15.1171 24.685 15.1272 24.7157C15.2532 25.0931 15.3577 25.3674 15.5865 25.6901C15.5905 25.696 15.5979 25.7058 15.6055 25.7156C15.6598 25.787 15.8761 25.9575 15.9228 26.0323C15.9686 26.1066 15.8812 26.1266 15.8854 26.1847C16.0695 26.1087 16.1303 26.1427 16.1564 26.3438C16.2951 26.2919 16.2117 26.3629 16.3122 26.426C16.3958 26.4786 16.6291 26.4825 16.6066 26.6555C16.5293 26.5604 16.4912 26.6164 16.3661 26.5477C16.3237 26.5252 15.9899 26.1892 15.9155 26.3099C15.8765 26.3734 16.0343 26.4405 16.0291 26.454C15.9988 26.5336 15.8688 26.5372 15.8379 26.4574C15.8627 26.4606 15.8905 26.4664 15.9164 26.4705C15.8632 26.277 15.6799 26.6221 15.821 26.3002C15.8383 26.2607 15.8727 26.2365 15.8846 26.1876C15.868 26.1957 15.8596 26.2497 15.8342 26.2344C15.8083 26.2187 15.83 26.1218 15.7739 26.1636C15.6919 26.2241 15.8045 26.2847 15.8066 26.2953C15.8071 26.2949 15.8076 26.2946 15.8081 26.2942C15.8254 26.3897 15.704 26.272 15.6916 26.2725C15.6099 26.2777 15.5993 26.3372 15.507 26.3151C15.4543 26.3024 15.3885 26.2056 15.3527 26.1805C15.3168 26.1557 15.3261 26.2368 15.2992 26.2226C15.2723 26.2083 15.2751 26.1575 15.2438 26.1405C15.2302 26.1333 15.1911 26.1695 15.185 26.1655C15.1195 26.1232 15.235 26.086 15.1848 26.0398C15.1848 26.0398 15.1847 26.0398 15.1847 26.0397C15.147 26.0027 14.9735 25.955 15.015 26.0532C14.9752 26.0222 14.9387 25.9902 14.9012 25.9575C14.9085 25.9915 14.9204 26.023 14.9253 26.0582C14.8862 25.9709 14.7891 25.9959 14.7472 25.9548C14.7052 25.9135 14.7586 25.8048 14.6773 25.7879C14.5034 25.7511 14.7544 25.984 14.7659 26.029C14.7701 26.0468 14.6637 26.0518 14.6556 26.0456C14.6199 26.0186 14.6359 25.9402 14.6131 25.9159C14.5311 25.8291 14.4223 25.821 14.3402 25.7409C14.0602 25.4676 13.7487 25.1109 13.5295 24.8324C13.4475 24.7281 13.4762 24.6109 13.4403 24.5645C13.3556 24.455 13.2805 24.486 13.2087 24.3912C13.1004 24.2487 13.013 24.0037 12.9395 23.873C12.8891 23.7835 12.7724 23.7509 12.7557 23.7304C12.5815 23.5177 12.3943 23.2595 12.2368 23.0387L12.2601 23.0703C12.2002 22.9932 12.1446 22.921 12.095 22.8569C12.0059 22.7415 12.0332 22.6352 12.0124 22.6123C11.9248 22.5155 11.8874 22.588 11.8296 22.5C11.7983 22.4526 11.8482 22.4013 11.8458 22.3936C11.824 22.3265 11.7425 22.3721 11.7087 22.3328C11.5123 22.1041 11.3864 21.8381 11.215 21.5966C11.2027 21.5792 11.2365 21.556 11.2265 21.5462C11.1827 21.5049 11.1479 21.5658 11.1063 21.5184C11.0194 21.42 10.9476 21.307 10.872 21.1928C10.8644 21.1813 10.9027 21.1447 10.8838 21.1196C10.8649 21.0944 10.8107 21.1053 10.7834 21.0643C10.7116 20.9566 10.6852 20.822 10.6053 20.7097C10.5922 20.6913 10.5246 20.7069 10.505 20.6795C10.443 20.5931 10.3968 20.4349 10.3435 20.3599C10.1701 20.1163 9.97681 19.9166 9.80878 19.6905C9.76926 19.6371 9.78169 19.5551 9.76243 19.5267C9.71895 19.4628 9.7089 19.5426 9.66232 19.48C9.27994 18.9651 8.91772 18.4292 8.53212 17.9105C8.37941 17.7049 8.15062 17.4896 8.01842 17.2823C7.96313 17.1954 8.01421 17.1352 7.97232 17.0769C7.89821 16.9742 7.80304 17.0108 7.71536 16.9078C7.64612 16.8264 7.65027 16.6661 7.57925 16.5797C7.50883 16.4941 7.3995 16.5065 7.31411 16.4098C7.24483 16.3314 7.18931 16.1832 7.11608 16.0959C6.58007 15.4577 6.06082 14.8165 5.57501 14.1845C5.43463 14.0035 5.29781 13.8193 5.16484 13.6309C4.94503 13.3196 4.66836 12.9997 4.49512 12.6343C4.47895 12.6 4.58618 12.5864 4.49701 12.5062C4.44889 12.463 4.33122 12.4432 4.23658 12.3311C3.67186 11.6619 3.22868 10.8221 2.66294 10.1342C1.82001 9.11085 0.445541 8.33667 0.610948 6.81306C0.620102 6.73975 0.831552 6.64193 0.904885 6.63488C0.882213 6.68648 0.851104 6.74113 0.824681 6.79788C1.08999 6.6768 1.02265 6.71161 1.08477 6.85411C1.12357 6.94262 1.18496 6.81125 1.24212 6.83446C1.3151 6.86383 1.60341 7.03814 1.41216 7.09583C1.4502 7.09302 1.48628 7.08977 1.5235 7.08694C1.67102 7.25364 1.83268 7.40371 2.0009 7.54826C2.03015 7.57329 2.0802 7.54025 2.11025 7.56636C2.19117 7.63597 2.20568 7.72463 2.27294 7.80859C2.30888 7.85337 2.36982 7.81952 2.41029 7.88361C2.45081 7.94774 2.37431 8.0016 2.51666 8.0252C2.57237 7.90203 2.67895 8.19473 2.74783 8.27633C2.7579 8.28856 2.9177 8.32835 2.94776 8.38956C2.9783 8.45113 2.98524 8.57393 3.07817 8.63496C3.12185 8.66365 3.20572 8.63885 3.24108 8.67848C3.26573 8.70609 3.23385 8.78539 3.25966 8.82498C3.28538 8.86445 3.39506 8.91081 3.40672 8.92466C3.45019 8.97589 3.3647 8.94755 3.39023 8.98581C3.51511 9.17128 3.64938 9.39358 3.81052 9.54729C3.83034 9.5663 3.85552 9.49974 3.85932 9.50139C4.02984 9.60207 3.90761 9.57197 3.89479 9.64422C3.88219 9.71405 4.1195 9.975 4.20428 9.91262C4.10677 10.0017 4.23436 10.0022 4.24979 10.0158C4.30969 10.0687 4.21031 10.1263 4.28505 10.1651C4.31241 10.1794 4.3396 10.089 4.35634 10.1142C4.39764 10.1764 4.3418 10.3059 4.39287 10.3914C4.40523 10.4122 4.4534 10.3844 4.47822 10.4191C4.50308 10.4541 4.56056 10.6365 4.60107 10.5C4.59455 10.6425 4.64821 10.6281 4.72456 10.7292C4.74396 10.7551 4.69941 10.842 4.7632 10.8784C4.78478 10.8907 4.85149 10.8371 4.87353 10.8639C4.92413 10.9249 4.90125 11.0387 4.96082 11.1195C5.07274 11.2714 5.24607 11.3891 5.35135 11.5562C5.37987 11.6015 5.30438 11.6449 5.35166 11.7065C5.3587 11.7154 5.47569 11.7424 5.50351 11.7882C5.52028 11.8158 5.58438 11.9789 5.60244 12.008C5.6324 12.0559 5.70321 12.0112 5.70971 12.0451C5.72857 12.1432 5.58884 12.165 5.78594 12.1425C5.73567 12.228 5.78207 12.2706 5.70578 12.3581C5.82607 12.3076 5.76176 12.4195 5.83858 12.4476C5.9154 12.4757 6.14011 12.3675 5.94817 12.5453C5.99372 12.5511 6.12341 12.6248 6.14144 12.6406C6.19393 12.6874 6.11449 12.7042 6.15518 12.7387C6.16229 12.7449 6.19444 12.7062 6.22816 12.7552C6.25018 12.7875 6.42768 13.0096 6.43346 13.0273C6.49645 13.2263 6.32849 12.9764 6.26056 12.9776C6.26674 12.963 6.27302 12.9484 6.27876 12.9335C6.24266 12.8524 6.18706 12.9607 6.19159 13.0072C6.19612 13.0537 6.28064 13.0786 6.27281 13.1269C6.26881 13.151 6.15893 13.2279 6.14052 13.1799C6.14171 13.2464 6.06285 13.2187 6.04596 13.2592C6.02761 13.3039 6.16589 13.4934 6.22375 13.4477C6.19796 13.4122 6.16148 13.3717 6.13584 13.3355C6.19846 13.2098 6.64765 13.0681 6.615 13.3037C6.61332 13.316 6.61073 13.3269 6.60747 13.3367C6.5653 13.4639 6.4085 13.3968 6.64974 13.5377C6.62609 13.5002 6.61228 13.4642 6.59186 13.4307C6.66365 13.3667 6.62178 13.4826 6.66651 13.4893C6.6882 13.4924 6.67901 13.3729 6.75051 13.4253C6.69082 13.57 6.83034 13.5229 6.90952 13.6201C6.86879 13.6081 6.82838 13.5965 6.78815 13.5854C6.83846 13.8083 6.51577 13.456 6.7205 13.8028C6.68795 13.7688 6.65795 13.7291 6.62305 13.6963C6.59812 13.7459 6.4595 13.8094 6.44795 13.845C6.4175 13.9383 6.5068 13.9713 6.54111 14.0265C6.55651 14.051 6.51409 14.0617 6.5154 14.0637C6.53631 14.0975 6.57697 14.0544 6.60153 14.0797C6.63361 14.113 6.66397 14.2447 6.68213 14.2576C6.72781 14.2895 6.76487 14.1487 6.77484 14.1475C6.8397 14.1397 6.84591 14.2236 6.90161 14.176C6.76058 14.0747 6.51298 13.6567 6.87825 13.9252C6.89555 13.7556 7.04758 13.6847 7.16353 13.8127C7.26027 13.9198 7.15164 13.8864 7.14104 13.9901C7.1408 14.0044 7.22853 14.1748 7.27555 14.1528C7.17794 14.2178 7.13394 14.3308 7.01238 14.3705C6.99447 14.3763 6.95224 14.3097 6.89189 14.3905C6.86151 14.431 6.8012 14.5268 6.74806 14.5594C6.79215 14.546 6.84104 14.53 6.88688 14.5159C6.9668 14.5998 6.93999 14.6415 6.91471 14.7413C6.93973 14.7187 7.01609 14.5858 7.03669 14.684C7.03731 14.6891 7.00005 14.7238 7.00698 14.7746C7.0215 14.8773 7.02058 14.9022 6.8597 14.936C7.04184 15.0365 6.93342 15.1683 7.0896 15.2961C7.21905 15.1499 7.14066 15.1239 7.00364 15.003C7.03527 14.9694 7.06904 14.9394 7.1009 14.9053C7.16225 15.1585 7.09873 15.0565 7.25396 15.1097C7.29244 15.1233 7.37787 15.2783 7.44613 15.1544C7.46256 15.1257 7.39375 15.0394 7.43951 15.0209C7.44869 15.0179 7.54649 15.1102 7.5435 15.1269C7.50911 15.3359 7.2672 15.1883 7.55354 15.4807C7.56147 15.4886 7.60852 15.4586 7.62774 15.4715C7.66383 15.4959 7.61231 15.5348 7.64625 15.5556C7.68027 15.5764 7.78081 15.5664 7.74851 15.6577C7.69075 15.8253 7.48219 15.6843 7.48107 15.5529C7.30291 15.6324 7.74757 16.2417 7.78941 16.2716C7.96821 16.3947 7.73243 16.1433 7.76481 16.0981C7.77857 16.079 8.00913 15.9133 7.81015 15.9538C7.75121 15.9658 7.75595 16.0935 7.69433 16.0606C7.63277 16.0278 7.71487 15.9983 7.71685 15.9912C7.72385 15.967 7.6579 15.9298 7.6623 15.9158C7.72659 15.7 7.95223 15.5479 7.73649 15.9319C7.8565 15.9417 7.8652 15.7097 7.97308 15.7523C8.1032 15.8026 8.04961 15.9482 8.05388 15.9638C8.10415 16.1487 8.1351 15.8718 8.21462 16.0819C8.25869 16.1986 8.00675 16.0114 8.17937 16.2254C8.32538 16.4065 8.30425 16.2666 8.43473 16.1916C8.46539 16.1743 8.57558 16.2519 8.46009 16.1206C8.42578 16.1397 8.37891 16.1626 8.34343 16.175C8.34114 16.1238 8.45659 15.9516 8.44889 15.9296C8.41076 15.823 8.33179 15.8864 8.38919 15.7633C8.3118 15.8782 8.33007 15.7704 8.29117 15.764C8.1473 15.7397 8.19839 15.8726 8.16419 15.6064C8.13368 15.6681 8.10136 15.7253 8.06983 15.7852C8.05149 15.7638 8.03355 15.7431 8.01464 15.721C8.09755 15.6066 7.99434 15.4958 8.18443 15.5251C8.1177 15.3698 8.05638 15.3364 7.95 15.3687C7.92983 15.375 7.90863 15.3598 7.88983 15.3377C7.86943 15.3596 7.80049 15.4194 7.78881 15.4223C7.6856 15.4479 7.78446 15.2966 7.84917 15.2752C7.83968 15.2572 7.83316 15.2423 7.83109 15.2369C7.81803 15.2024 7.90646 15.2234 7.90543 15.1884C7.90505 15.1769 7.83523 15.1042 7.85276 15.0879C7.96816 14.9876 7.97876 15.186 7.85044 14.8653C7.73423 14.9416 7.85116 15.0475 7.70914 15.1037C7.55647 15.1638 7.67527 14.9677 7.50837 15.069C7.52982 15.0443 7.54933 15.0259 7.5749 14.9994C7.42552 14.9408 7.5543 14.8429 7.5582 14.7885C7.56812 14.6852 7.33478 14.393 7.42345 14.7438C7.38275 14.7129 7.34774 14.6772 7.30906 14.6465C7.53354 14.4624 7.46123 14.5578 7.35478 14.3441C7.33163 14.2974 7.42307 14.2069 7.27255 14.2595C7.39582 14.1758 7.23045 14.1075 7.23658 14.0859C7.27409 13.9419 7.61007 14.1119 7.42637 14.3051C7.54233 14.2886 7.43514 14.3712 7.48741 14.4105C7.56256 14.467 7.59122 14.4612 7.57747 14.609C7.75396 14.6093 7.37512 14.238 7.71533 14.3789C8.0613 14.5218 9.24259 15.9514 9.51938 16.2838C10.0198 16.8813 10.2902 17.1949 10.697 17.762C10.7366 17.8171 11.0569 18.2288 10.8617 18.238C10.8336 18.2392 10.6519 18.097 10.6624 18.3263C10.6999 18.2502 10.8061 18.3117 10.8182 18.3147C11.0922 18.3826 11.0537 18.2564 11.2576 18.5289ZM10.7001 20.2098C10.4608 19.8266 10.5712 20.1567 10.3185 20.2283C10.3524 20.2749 10.3862 20.3215 10.4204 20.3684C10.4236 20.347 10.4269 20.3258 10.4302 20.3044C10.4301 20.3043 10.4301 20.3043 10.43 20.3042C10.52 20.2727 10.6101 20.2413 10.7001 20.2098ZM14.9462 26.2147C14.9098 26.2216 14.8734 26.2285 14.8364 26.2336C14.8044 26.1796 14.7728 26.1258 14.7415 26.0714C14.7631 26.0633 14.7848 26.0548 14.8064 26.0466C14.8518 26.1037 14.8974 26.1602 14.9462 26.2147ZM7.4156 15.5242C7.43898 15.4051 7.31342 15.5048 7.30584 15.3723C7.2191 15.4538 7.13531 15.535 7.04993 15.6164C7.11477 15.6743 7.1622 15.6627 7.19305 15.7528C7.21727 15.7217 7.24153 15.6902 7.26609 15.6591C7.25052 15.6518 7.23351 15.6445 7.21903 15.6371C7.29051 15.5549 7.38975 15.662 7.41596 15.5243C7.41584 15.5243 7.41572 15.5242 7.4156 15.5242ZM6.86563 14.869C6.85049 14.8233 6.78886 14.6466 6.73594 14.6582C6.55394 14.6931 6.94012 15.027 6.59979 14.8233C6.58226 14.8387 6.56309 14.8512 6.54474 14.8652C6.57825 14.9227 6.61385 14.9812 6.64946 15.0391C6.72061 14.9808 6.79441 14.9279 6.86563 14.869ZM9.72606 18.9132C9.69485 18.8494 9.43606 18.6296 9.41516 18.7787C9.40899 18.8222 9.61776 18.8519 9.64616 18.9015C9.66438 18.9333 9.57416 18.95 9.64069 18.9891C9.6681 18.965 9.6994 18.9395 9.72575 18.9132C9.72586 18.9132 9.72596 18.9132 9.72606 18.9132ZM10.1891 18.7321C10.1347 18.6832 10.0778 18.6373 10.0217 18.5875C9.97782 18.6865 10.087 18.7328 9.98422 18.8163C9.96451 18.8065 9.94499 18.7968 9.92531 18.787C9.93969 18.7578 9.95433 18.7289 9.96878 18.6997C9.87392 18.6921 9.86746 18.7436 9.81555 18.6381C9.69577 18.8126 9.61833 18.8885 9.89718 18.9257C9.78786 18.9603 9.52402 19.1981 9.79237 19.1363C9.84227 19.1249 9.81664 19.0374 9.8221 19.0323C9.88899 18.9666 9.96479 18.9695 10.027 18.9061C10.0551 18.8775 10.0237 18.836 10.0634 18.797C10.0829 18.7782 10.1739 18.7725 10.1891 18.7321ZM9.89525 19.1266C9.83672 19.142 9.77486 19.2828 9.83586 19.3199C9.93023 19.3769 9.93658 19.172 9.89525 19.1266ZM14.9466 26.215C14.9465 26.2149 14.9464 26.2148 14.9462 26.2147C14.9464 26.2147 14.9465 26.2147 14.9466 26.2146C14.9466 26.2147 14.9466 26.2148 14.9466 26.215ZM6.95262 15.0924C6.88212 15.0781 6.84076 15.0117 6.78358 15.0621C6.78012 15.0327 6.77637 15.0034 6.77304 14.9742C6.75496 14.9882 6.73699 15.0024 6.71909 15.0162C6.75345 15.0852 6.7888 15.1559 6.82394 15.2268C6.86718 15.1826 6.91071 15.1384 6.95262 15.0924ZM6.48542 14.3917C6.43242 14.311 6.40028 14.4381 6.34792 14.4521C6.29552 14.466 6.27599 14.375 6.22526 14.4264C6.25773 14.4725 6.29083 14.5196 6.32433 14.5671C6.37661 14.5073 6.43283 14.4503 6.4853 14.3916C6.48534 14.3916 6.48538 14.3917 6.48542 14.3917ZM11.7355 21.7218C11.7136 21.6558 11.7924 21.6292 11.6394 21.5803C11.6394 21.5803 11.6395 21.5804 11.6395 21.5805C11.6641 21.72 11.7143 21.8813 11.8477 21.9534C11.8629 21.8359 11.7704 21.8257 11.7355 21.7218ZM7.3663 15.8487C7.43333 15.8342 7.3971 15.6975 7.33353 15.7093C7.2304 15.728 7.26416 15.8703 7.3663 15.8487ZM13.7597 23.542C13.9755 23.5145 14.0421 23.2334 13.8513 23.124C13.8348 23.1148 13.8586 23.2552 13.806 23.2456C13.8009 23.2447 13.7639 23.1842 13.7317 23.1849C13.6996 23.1858 13.6594 23.2369 13.6212 23.228C13.5557 23.2142 13.5585 23.071 13.488 23.0751C13.4784 23.0753 13.4512 23.1815 13.4512 23.187C13.4522 23.276 13.5802 23.2688 13.5878 23.2784C13.6244 23.324 13.5494 23.3657 13.5414 23.3892C13.5263 23.4335 13.5846 23.4508 13.5842 23.4551C13.5734 23.5699 13.4766 23.3949 13.4354 23.3897C13.3249 23.377 13.3018 23.4784 13.1625 23.3617C13.149 23.3501 13.0398 23.1861 13.1051 23.4452C12.6603 23.1588 13.1541 23.7119 13.2359 23.7522C13.2739 23.771 13.3081 23.6781 13.351 23.6755C13.4494 23.6699 13.5104 23.7311 13.603 23.6575C13.7965 23.5012 13.5977 23.5011 13.5866 23.4127C13.6354 23.3884 13.6803 23.3607 13.7321 23.3428C13.6603 23.364 13.7441 23.545 13.7593 23.5423C13.7594 23.5422 13.7595 23.5421 13.7597 23.542ZM12.8133 22.6897C12.8128 22.6671 12.8088 22.6509 12.8026 22.6391L12.8089 22.6477C12.7764 22.5914 12.6952 22.6427 12.7028 22.5305C12.5367 22.5453 12.6518 22.6794 12.6582 22.7007C12.6646 22.7217 12.6638 22.7425 12.6596 22.7627L12.6487 22.7479C12.6308 22.8196 12.5698 22.8815 12.6427 22.921C12.6979 22.8422 12.7572 22.7675 12.8133 22.6897ZM13.3121 23.5105C13.2045 23.4953 13.282 23.6033 13.2724 23.616C13.1745 23.7565 12.9726 23.4148 13.3121 23.5105ZM9.725 18.3802C9.7069 18.3465 9.65994 18.4109 9.62212 18.3973C9.58406 18.3837 9.56925 18.2539 9.53289 18.2842C9.49636 18.3145 9.52069 18.5549 9.3756 18.4024C9.35836 18.4239 9.34097 18.4337 9.32363 18.4507C9.35698 18.4972 9.39045 18.5447 9.42416 18.5917C9.46698 18.5208 9.51261 18.447 9.55422 18.3787C9.62241 18.3687 9.57029 18.4297 9.5713 18.431C9.57137 18.431 9.57143 18.4309 9.5715 18.4309C9.61247 18.4763 9.76504 18.4548 9.725 18.3802ZM11.2946 20.8927C11.4535 20.7876 11.2302 20.8439 11.1894 20.8289C11.1487 20.8138 11.175 20.7315 11.1208 20.7957C11.1109 20.8765 11.2772 20.9048 11.2948 20.8925C11.2947 20.8926 11.2947 20.8926 11.2946 20.8927ZM12.4554 22.2214C12.3623 22.1756 12.3319 22.2173 12.3079 22.093C12.2741 22.1244 12.2394 22.1564 12.2061 22.1874C12.2601 22.2595 12.3622 22.1734 12.3831 22.289C12.3865 22.3081 12.2795 22.3436 12.3539 22.3844C12.3853 22.3319 12.4215 22.2753 12.4554 22.2214ZM12.0415 21.9601C12.112 22.0411 12.4585 21.8821 12.2063 21.828C12.1687 21.82 11.9885 21.8994 12.0415 21.9601ZM10.3134 19.1621C10.215 19.011 10.2882 19.2109 10.2704 19.2829C9.98421 18.9729 10.3107 19.3112 10.1837 19.4589C10.2581 19.4684 10.415 19.4723 10.3777 19.3663C10.362 19.322 10.3263 19.3689 10.3249 19.3666C10.287 19.2919 10.3673 19.2448 10.3134 19.1621ZM12.9311 22.8407C12.9248 22.8367 12.8785 22.8825 12.8554 22.872C12.8321 22.861 12.8414 22.7962 12.8063 22.8148C12.7711 22.8337 12.8022 22.9312 12.8436 22.9398C12.8849 22.9477 12.9871 22.8773 12.9311 22.8407ZM12.6483 22.1974C12.557 22.1542 12.4585 22.4146 12.4714 22.4295C12.5859 22.5585 12.5856 22.2387 12.6483 22.1974ZM10.8857 19.2596C10.6602 19.1573 10.5865 19.4085 10.5676 19.5928C10.5988 19.5921 10.6303 19.5919 10.6611 19.5912C10.4883 19.6175 10.2795 19.5925 10.5791 19.7699C10.5033 19.607 10.6244 19.7005 10.6321 19.6962C10.8711 19.5422 10.6108 19.4127 10.8858 19.2598C10.8858 19.2597 10.8857 19.2597 10.8857 19.2596ZM13.0447 23.1195C13.0997 23.196 13.2811 23.3688 13.3163 23.204C13.2267 23.1771 13.1341 23.1461 13.0447 23.1195ZM8.76327 16.4014C8.7739 16.2963 8.73045 16.2391 8.67058 16.1654C8.63822 16.2952 8.59541 16.2568 8.55807 16.2485C8.50166 16.2358 8.56675 16.3192 8.5614 16.3237C8.48149 16.38 8.42892 16.3339 8.52242 16.4575C8.47224 16.4467 8.42226 16.4365 8.37249 16.4258C8.43835 16.5232 8.40382 16.5839 8.38539 16.6906C8.49598 16.5194 8.45625 16.6668 8.58344 16.6802C8.64713 16.6869 8.75702 16.454 8.7631 16.4012C8.76316 16.4013 8.76322 16.4013 8.76327 16.4014ZM10.7829 19.0569C10.742 19.0592 10.6924 19.0702 10.648 19.0761C10.6309 19.0593 10.6141 19.0422 10.5971 19.0254C10.6197 19.005 10.6437 18.9842 10.6651 18.9641C10.6537 18.9338 10.627 18.9687 10.6183 18.9636C10.6185 18.9635 10.6186 18.9634 10.6187 18.9633C10.4949 18.8901 10.4686 18.8439 10.4816 18.7037C10.4069 18.7589 10.3321 18.8141 10.2574 18.8693C10.2785 18.8829 10.2995 18.8969 10.3205 18.9107C10.368 18.891 10.4158 18.8717 10.4632 18.8518C10.4569 18.8896 10.4508 18.9273 10.4446 18.9652C10.4718 18.9718 10.5024 18.9814 10.5276 18.9861C10.3828 19.2269 10.3793 18.9256 10.2916 18.9882C10.2348 19.028 10.3835 19.224 10.4435 19.2245C10.4521 19.2245 10.5756 19.0663 10.5487 19.1992C10.5442 19.2198 10.2118 19.4739 10.5414 19.3497C10.5881 19.332 10.7687 19.1394 10.7829 19.0569ZM10.3593 18.2564C10.2259 18.5265 10.151 17.9476 10.1041 18.2553C9.96798 18.2777 9.97612 18.2861 9.92569 18.4017C9.92111 18.4119 9.86802 18.3968 9.86676 18.4023C9.85327 18.4855 9.92146 18.5243 9.83365 18.5896C9.84788 18.5991 9.86105 18.6082 9.87531 18.6177C9.9185 18.5026 10.0376 18.5474 10.1323 18.5292C10.1752 18.521 10.1592 18.4788 10.1964 18.4712C10.21 18.4684 10.2259 18.5323 10.2562 18.5125C10.325 18.4683 10.3913 18.3723 10.4015 18.2847C10.4016 18.2847 10.4017 18.2846 10.4017 18.2846C10.3879 18.2748 10.3733 18.266 10.3593 18.2564ZM11.9499 20.7648C11.846 20.8728 11.8694 20.9741 11.7019 20.872C11.684 20.8968 11.6665 20.9216 11.6487 20.9463C11.6693 20.9693 11.6892 20.9916 11.71 21.0152C12.115 20.8285 11.824 21.2591 12.0053 20.9864C12.0249 20.9566 11.9515 20.9217 12.0672 20.9236C12.0673 20.9234 12.0673 20.9233 12.0673 20.9232C11.9851 20.8608 11.9349 20.8813 11.9499 20.7648ZM11.4647 20.291C11.0775 20.2934 11.5169 20.6501 11.5281 20.5274C11.5289 20.516 11.3333 20.3667 11.4647 20.291ZM12.7984 21.6059C12.7402 21.5208 12.6026 21.6173 12.5608 21.6621C12.5188 21.7072 12.6108 21.7267 12.6088 21.7399C12.602 21.7828 12.5468 21.7448 12.5362 21.802C12.5328 21.8207 12.5948 22.0004 12.6056 22.0027C12.6655 22.0149 12.7347 21.8773 12.7553 21.8781C12.8226 21.8806 12.8009 21.9707 12.867 21.9359C13.0081 21.8617 12.8109 21.8755 12.7977 21.8626C12.7582 21.8232 12.8314 21.7733 12.8204 21.7297C12.8094 21.6862 12.769 21.6832 12.7519 21.6505C12.7463 21.6396 12.8011 21.6104 12.7984 21.6059ZM12.3086 21.5482C12.4753 21.5574 12.426 21.2641 12.3837 21.2576C12.258 21.2382 12.2287 21.5434 12.3086 21.5482ZM10.2403 18.7753C10.3732 18.8003 10.2961 18.5703 10.2278 18.54C10.204 18.5724 10.1944 18.7666 10.2403 18.7753ZM10.9213 19.3084C10.844 19.2524 10.7491 19.4729 10.7974 19.5324C10.9336 19.487 10.8867 19.4692 10.8615 19.4259C10.8364 19.3826 10.9816 19.3521 10.9213 19.3084ZM13.3584 22.6051C13.3481 22.5868 13.0744 22.3945 13.1407 22.5697C13.1451 22.5819 13.2902 22.7534 13.3162 22.7538C13.37 22.7565 13.3827 22.6503 13.3584 22.6051ZM11.3432 19.538C11.2198 19.5699 11.1928 19.531 11.1081 19.6492C11.1081 19.6493 11.1082 19.6493 11.1082 19.6494C11.0015 19.5771 11.2259 19.4038 11.2054 19.3864C11.134 19.326 11.0237 19.5158 10.9362 19.5093C11.0657 19.579 10.9337 19.6294 10.9875 19.7162C10.9996 19.7356 11.1196 19.7606 11.1682 19.7412C11.2168 19.7217 11.3105 19.5933 11.3432 19.538ZM13.6397 22.9538C13.6158 22.8411 13.4019 22.8695 13.4631 23.0093C13.4924 23.0769 13.6541 23.0221 13.6397 22.9538ZM7.30833 14.3385C7.27831 14.3818 7.24876 14.4255 7.21987 14.4696C7.18619 14.4453 7.15249 14.4215 7.11905 14.398C7.15033 14.4128 7.18159 14.4281 7.21311 14.4437C7.18219 14.3742 7.23441 14.2922 7.30822 14.3383C7.30826 14.3384 7.3083 14.3384 7.30833 14.3385ZM5.68662 12.2525C5.7034 12.1964 5.54619 12.2397 5.5423 12.2535C5.51369 12.3564 5.66342 12.3303 5.68662 12.2525ZM10.5192 18.3883C10.4637 18.2778 10.3176 18.4894 10.3487 18.5597C10.3589 18.4952 10.5508 18.4512 10.5192 18.3883ZM6.26056 12.9776C6.25135 12.9994 6.24219 13.0212 6.23381 13.044C6.23171 12.9955 6.2426 12.978 6.26056 12.9776ZM13.5046 22.44C13.5081 22.4125 13.4421 22.2922 13.4119 22.2894C13.3496 22.2853 13.303 22.4522 13.3727 22.4793C13.3802 22.4823 13.5003 22.4663 13.5045 22.4397C13.5045 22.4398 13.5046 22.4399 13.5046 22.44ZM7.28096 14.149C7.27925 14.1506 7.27741 14.1519 7.27555 14.1528C7.27736 14.1516 7.27911 14.1502 7.28096 14.149ZM4.21241 9.90498C4.20989 9.90788 4.20717 9.91049 4.20428 9.91262C4.20689 9.91023 4.20947 9.90749 4.21241 9.90498ZM13.0694 21.5169C13.2255 21.3396 13.0634 21.3304 13.0231 21.4663C13.0211 21.4737 13.0629 21.5077 13.0694 21.5169Z" fill="#111111"/>
<path d="M12.0974 9.39322C12.6123 8.43872 13.152 7.38833 13.7133 6.45194C13.7822 6.33692 13.8365 6.37766 13.8623 6.3492C13.933 6.27148 13.8921 6.18164 13.9337 6.11816C14.1351 5.81095 14.3093 5.5192 14.5023 5.22338C14.705 4.9115 14.8022 5.16681 14.9085 5.08008C15.1147 4.91384 14.7755 4.96402 14.7687 4.85024C14.924 4.60443 15.0885 4.36954 15.2539 4.13485C15.2425 4.20732 15.2303 4.28022 15.2162 4.35382C15.2824 4.2467 15.4048 4.11383 15.366 4.32914C15.4055 4.29852 15.4464 4.27246 15.4858 4.24112C15.4043 4.18371 15.5073 3.98322 15.4656 3.93743C15.4243 3.89091 15.3749 4.00678 15.3707 4.00379C15.312 3.95854 15.6467 3.56636 15.673 3.5365C15.7395 3.46277 15.805 3.59685 15.8383 3.52164C15.8954 3.39283 15.6303 3.35368 16.0161 3.34647C15.96 3.22627 16.0122 3.24783 16.0658 3.16839C16.0728 3.15795 16.0136 3.1356 16.0149 3.13C16.0451 2.98254 16.092 3.13555 16.0979 3.13799C16.196 3.18187 16.2352 3.01629 16.2601 2.99341C16.5772 2.69446 16.8007 2.47787 17.0489 2.11138C17.1041 2.02899 17.2142 1.75731 17.2751 1.69154C17.3382 1.62126 17.379 1.70317 17.4356 1.68083C17.3157 1.5208 17.3383 1.44308 17.5301 1.36629C17.4507 1.23825 17.54 1.30047 17.5816 1.18573C17.6041 1.13056 17.5988 1.05395 17.6254 0.970643C17.6339 0.935749 17.6568 0.890556 17.685 0.861762C17.6961 0.850817 17.7229 0.826204 17.7491 0.812048C17.7836 0.808339 17.7711 0.753434 18 0.735397C17.7577 0.778113 17.8079 0.827364 17.7793 0.8347C17.7643 0.85084 17.7542 0.865169 17.7456 0.879232C17.7329 0.902395 17.7311 0.918548 17.7275 0.939763C17.7181 0.98551 17.7253 1.02053 17.6954 1.09985C17.6766 1.1449 17.4123 1.5754 17.5507 1.61639C17.6214 1.63863 17.6542 1.45923 17.6671 1.464C17.751 1.47591 17.7874 1.59701 17.7145 1.6523C17.7122 1.6261 17.7117 1.59659 17.7098 1.56997C17.5288 1.67973 17.9139 1.76288 17.565 1.71124C17.522 1.70533 17.4899 1.67798 17.4388 1.6808C17.4507 1.6949 17.5061 1.68717 17.4971 1.71718C17.488 1.74738 17.3852 1.75843 17.4416 1.79955C17.5203 1.8647 17.5542 1.73092 17.5637 1.72682C17.5632 1.72642 17.5628 1.72601 17.5623 1.72561C17.6517 1.68148 17.566 1.83513 17.5687 1.84943C17.5958 1.9267 17.6561 1.92029 17.66 2.01518C17.6627 2.06854 17.5844 2.16657 17.5727 2.20533C17.5597 2.24672 17.6342 2.21436 17.6286 2.24403C17.6231 2.27367 17.5736 2.28623 17.5663 2.32212C17.5634 2.33756 17.6097 2.36388 17.6077 2.37104C17.5864 2.44808 17.5152 2.35016 17.4868 2.41205C17.4694 2.45074 17.4836 2.63206 17.5619 2.55871C17.5465 2.6065 17.5287 2.65274 17.5104 2.70106C17.5403 2.68118 17.566 2.65825 17.5975 2.64126C17.5284 2.70965 17.5853 2.79354 17.5634 2.84502C17.5408 2.89765 17.42 2.88809 17.4337 2.9714C17.4628 3.14858 17.5888 2.82435 17.6248 2.80299C17.6396 2.79336 17.6836 2.8886 17.6809 2.89808C17.6693 2.93959 17.591 2.95265 17.5767 2.98295C17.5248 3.09368 17.5607 3.19386 17.5188 3.29994C17.3767 3.66016 17.1781 4.10304 17.0162 4.4274C16.953 4.55323 16.8369 4.5742 16.8087 4.62985C16.7444 4.75696 16.803 4.81465 16.7468 4.92391C16.6642 5.0849 16.4728 5.2861 16.3864 5.41063C16.3255 5.49902 16.3445 5.62271 16.3324 5.64848C16.1699 5.99752 15.9381 6.4126 15.7836 6.69448C15.7116 6.82585 15.6009 6.84794 15.5879 6.87664C15.5321 7.00016 15.6131 7.00589 15.5546 7.09659C15.5232 7.14543 15.4559 7.12088 15.4497 7.12635C15.3961 7.17525 15.4704 7.23193 15.4471 7.28066C15.3103 7.56519 15.1162 7.79273 14.9579 8.06267C14.9467 8.08165 14.9117 8.06024 14.9067 8.07378C14.8859 8.1325 14.9562 8.13843 14.9293 8.19718C14.8735 8.31964 14.7972 8.43662 14.7201 8.5603C14.7125 8.57263 14.6633 8.55282 14.6479 8.58087C14.6325 8.60901 14.6645 8.65434 14.6378 8.69739C14.5679 8.80994 14.4522 8.8969 14.3807 9.02076C14.369 9.04113 14.4101 9.09802 14.393 9.12793C14.3391 9.22198 14.2108 9.33664 14.1635 9.41873C14.0059 9.69349 13.9044 9.95457 13.7618 10.2169C13.7287 10.2776 13.6486 10.3017 13.6302 10.3325C13.5892 10.4015 13.6669 10.3748 13.6281 10.4465C13.3075 11.0372 12.9672 11.6097 12.6469 12.2083C12.5663 12.3587 12.4941 12.5427 12.4154 12.7145L12.4044 12.7341C12.358 12.8286 12.3111 12.9169 12.2611 12.992C12.202 13.0804 12.1244 13.0611 12.0858 13.1262C12.0169 13.2427 12.0903 13.3122 12.0254 13.4425C11.9746 13.5446 11.8232 13.6084 11.7679 13.714C11.7138 13.8174 11.766 13.9164 11.7063 14.0391C11.6581 14.1384 11.5378 14.2551 11.481 14.3628C10.9538 15.3616 10.3769 16.3437 9.62036 17.2325C9.35561 17.5448 9.09067 17.9073 8.76295 18.1719C8.73198 18.1969 8.69599 18.0937 8.63507 18.2023C8.62225 18.2252 8.61515 18.2578 8.60559 18.2966L8.61944 18.2785C8.60833 18.3367 8.58962 18.413 8.53802 18.4871C8.02475 19.2223 7.33142 19.9091 6.84386 20.6849C6.10921 21.8526 5.90704 23.3837 4.47122 23.9021C4.40044 23.9279 4.21946 23.7811 4.18175 23.7167C4.23887 23.713 4.30219 23.716 4.3652 23.7143C4.14122 23.5274 4.2012 23.5731 4.30687 23.45C4.37216 23.3743 4.22576 23.377 4.22343 23.3138C4.22013 23.2323 4.2679 22.8841 4.39782 23.0374C4.38011 23.0031 4.36278 22.9708 4.34541 22.9373C4.44354 22.7245 4.52266 22.5084 4.59824 22.2868C4.6112 22.2485 4.56155 22.2148 4.57521 22.1754C4.6112 22.0701 4.69181 22.017 4.74695 21.9197C4.77686 21.867 4.72353 21.8218 4.77057 21.7569C4.81772 21.6919 4.89497 21.7447 4.86898 21.5977C4.7319 21.5934 4.97553 21.374 5.03169 21.2752C5.03985 21.261 5.02499 21.0912 5.07469 21.0377C5.12403 20.9843 5.23998 20.9308 5.26945 20.8172C5.28324 20.7639 5.23174 20.693 5.25935 20.6431C5.27863 20.6083 5.36569 20.6092 5.39584 20.5696C5.42568 20.5303 5.43655 20.4065 5.44671 20.3896C5.48324 20.3281 5.48192 20.422 5.51127 20.383C5.65268 20.1934 5.82847 19.9833 5.93186 19.7715C5.94446 19.7457 5.87239 19.7439 5.87286 19.7397C5.92165 19.5375 5.92801 19.6675 6.0023 19.6549C6.07375 19.643 6.26147 19.3218 6.17738 19.259C6.29197 19.3247 6.25655 19.1997 6.26551 19.1801C6.30133 19.1028 6.38539 19.1813 6.40284 19.095C6.40931 19.0634 6.31323 19.0664 6.33334 19.0416C6.38244 18.9814 6.52585 18.9923 6.59558 18.9149C6.61247 18.8963 6.57261 18.8572 6.60024 18.8214C6.62788 18.7855 6.79222 18.6705 6.64681 18.6746C6.78998 18.6338 6.7603 18.5874 6.84089 18.4791C6.86136 18.4519 6.95793 18.4694 6.97822 18.3941C6.98488 18.3688 6.91504 18.3194 6.9358 18.2893C6.98243 18.2214 7.10147 18.2078 7.16639 18.1243C7.28833 17.9677 7.36306 17.7602 7.50446 17.6064C7.54325 17.5642 7.60421 17.6263 7.65356 17.5626C7.65377 17.5624 7.65397 17.562 7.65417 17.5615L7.66143 17.552C7.66854 17.5362 7.67202 17.4191 7.71048 17.3812C7.7351 17.3568 7.8835 17.2526 7.90875 17.2271C7.94994 17.1854 7.89056 17.1263 7.92301 17.1112C8.01669 17.0674 8.06801 17.2007 8.00361 17.0108C8.0991 17.0393 8.13159 16.9823 8.23458 17.0359C8.15844 16.9296 8.28359 16.9646 8.29477 16.8812C8.30586 16.7978 8.14901 16.6033 8.36729 16.7476C8.36277 16.7013 8.40666 16.5536 8.41803 16.5317C8.45206 16.4678 8.48685 16.5417 8.51147 16.4925C8.51587 16.4839 8.47035 16.4624 8.51078 16.4163C8.53759 16.3864 8.71348 16.1516 8.72897 16.1411C8.90847 16.0245 8.70486 16.2583 8.72201 16.3246C8.70618 16.3225 8.69037 16.3202 8.67438 16.3186C8.60297 16.3763 8.72272 16.4018 8.76758 16.3845C8.81218 16.3675 8.81641 16.2774 8.86584 16.2715C8.89061 16.2687 8.99278 16.3557 8.94973 16.3874C9.01513 16.3676 9.00647 16.4534 9.05047 16.4588C9.09921 16.4644 9.25326 16.2725 9.19352 16.2289C9.16516 16.2643 9.13373 16.3126 9.10426 16.3483C8.96553 16.3216 8.71642 15.9199 8.9541 15.8855C9.12655 15.8597 9.09532 16.0805 9.17176 15.7848C9.14255 15.818 9.11174 15.8413 9.08417 15.8714C9.00294 15.82 9.12701 15.8267 9.12063 15.7823C9.11738 15.7608 9.00574 15.8023 9.03556 15.7196C9.19033 15.7374 9.10911 15.6119 9.17705 15.5091C9.1779 15.5514 9.17868 15.5935 9.17965 15.6355C9.37973 15.5192 9.13252 15.9394 9.40876 15.6335C9.38445 15.6773 9.35588 15.7171 9.33378 15.7613C9.38881 15.7701 9.48928 15.8852 9.52716 15.8853C9.62637 15.8857 9.6343 15.7861 9.67823 15.7338C9.69763 15.7104 9.72029 15.7483 9.7219 15.7463C9.74878 15.7143 9.69505 15.6893 9.71238 15.6567C9.73495 15.6148 9.85444 15.5378 9.86142 15.5153C9.87858 15.4593 9.7306 15.4737 9.72647 15.4642C9.69945 15.4037 9.77809 15.3686 9.71464 15.3318C9.66152 15.5059 9.32937 15.8816 9.48025 15.4406C9.31196 15.4792 9.19851 15.3562 9.2846 15.2036C9.35653 15.0754 9.3594 15.1895 9.46097 15.166C9.47335 15.1638 9.61099 15.0157 9.57298 14.9807C9.66684 15.051 9.78865 15.0534 9.8666 15.1552C9.878 15.1702 9.82838 15.2338 9.92502 15.2632C9.9735 15.2781 10.0847 15.3016 10.1332 15.3409C10.1061 15.3033 10.0749 15.2622 10.0464 15.2234C10.1031 15.1122 10.1506 15.1239 10.2548 15.1104C10.2248 15.0949 10.0724 15.0713 10.1593 15.0149C10.1641 15.0121 10.209 15.036 10.2563 15.0084C10.3505 14.9539 10.3743 14.9455 10.4607 15.0873C10.4961 14.8724 10.6592 14.9243 10.7279 14.7217C10.544 14.6553 10.5454 14.7433 10.4767 14.9222C10.4337 14.905 10.3935 14.8843 10.3501 14.867C10.571 14.7089 10.4956 14.8093 10.493 14.6388C10.4927 14.5966 10.6093 14.4537 10.4676 14.4382C10.434 14.435 10.3774 14.5332 10.3436 14.4968C10.3371 14.4903 10.3901 14.3604 10.4072 14.356C10.6184 14.303 10.5644 14.5951 10.7392 14.2023C10.744 14.1913 10.6988 14.1584 10.7038 14.1354C10.7134 14.0917 10.7688 14.1246 10.7759 14.0842C10.783 14.0437 10.7363 13.9531 10.8355 13.944C11.0158 13.9277 10.9566 14.1889 10.834 14.2413C10.9732 14.3816 11.3878 13.6996 11.3988 13.6469C11.4471 13.4256 11.2993 13.7559 11.2444 13.7442C11.2213 13.7393 10.9792 13.5911 11.0918 13.7618C11.1252 13.8125 11.2434 13.7546 11.2356 13.8266C11.2274 13.8989 11.1688 13.834 11.1615 13.835C11.1355 13.8394 11.1252 13.917 11.1103 13.9188C10.8834 13.9474 10.6564 13.7976 11.098 13.8418C11.0626 13.7241 10.841 13.8128 10.8408 13.6931C10.8408 13.5473 10.9963 13.5388 11.0098 13.5277C11.1646 13.4019 10.8933 13.4892 11.0599 13.3262C11.1527 13.2351 11.0724 13.5523 11.2081 13.2983C11.3234 13.0816 11.1989 13.1634 11.0794 13.0717C11.051 13.0508 11.0807 12.9157 11.0032 13.0779C11.0341 13.1022 11.0734 13.1366 11.0985 13.1648C11.0512 13.1892 10.8459 13.1535 10.8283 13.1699C10.743 13.2504 10.8325 13.2978 10.6952 13.2957C10.8322 13.3203 10.7241 13.3485 10.7328 13.3877C10.7641 13.5334 10.8704 13.4291 10.6325 13.5732C10.7014 13.5771 10.7686 13.5815 10.8361 13.5871C10.8235 13.6125 10.8093 13.6404 10.796 13.6668C10.6574 13.6363 10.5923 13.7782 10.5486 13.5876C10.4291 13.712 10.4177 13.7875 10.4882 13.8733C10.5016 13.8897 10.4952 13.9158 10.4814 13.9422C10.5095 13.9527 10.5911 13.9936 10.5982 14.0034C10.6604 14.0902 10.4816 14.058 10.4379 14.0053C10.4241 14.022 10.4122 14.0345 10.4078 14.0387C10.3796 14.0657 10.368 13.9722 10.335 13.9878C10.3241 13.9932 10.2803 14.0895 10.2591 14.0786C10.1222 14.0099 10.3064 13.9205 10.05 14.1685C10.1637 14.2488 10.2227 14.0943 10.3266 14.207C10.4381 14.3281 10.2091 14.2947 10.3643 14.4133C10.3333 14.4027 10.3089 14.3915 10.2747 14.3777C10.2741 14.5396 10.1337 14.4585 10.0812 14.4753C9.97972 14.5069 9.783 14.8385 10.0857 14.6208C10.0704 14.6716 10.0484 14.7187 10.0324 14.7672C9.78077 14.6219 9.89578 14.6572 9.72905 14.8361C9.69282 14.8745 9.57602 14.8202 9.67527 14.9461C9.55373 14.8603 9.54607 15.0375 9.52225 15.0408C9.37353 15.0545 9.4238 14.6768 9.66791 14.7822C9.61292 14.6781 9.72682 14.7512 9.74713 14.6858C9.77563 14.5924 9.75944 14.5688 9.90443 14.5257C9.84344 14.359 9.62307 14.8553 9.63892 14.481C9.66182 14.111 10.5487 12.4221 10.7445 12.0173C10.7763 11.9534 10.8071 11.8912 10.8372 11.8306L10.8257 11.8512C11.1175 11.2236 11.2899 10.8505 11.6174 10.265C11.6526 10.2018 11.901 9.71762 11.9899 9.89435C12.0026 9.91978 11.9432 10.158 12.1527 10.0402C12.0668 10.0404 12.081 9.9121 12.0788 9.8996C12.03 9.61282 11.9286 9.70651 12.0974 9.39322ZM13.8801 9.15417C13.6225 9.54812 13.8832 9.29765 14.0518 9.50099C14.0814 9.44822 14.1108 9.39586 14.1402 9.34354C14.1192 9.34999 14.0982 9.3563 14.0771 9.36277C14.0771 9.36283 14.0771 9.36289 14.077 9.36295C14.0114 9.29338 13.9458 9.22365 13.8801 9.15417ZM17.7363 2.56994C17.7554 2.60132 17.7746 2.63265 17.7923 2.66519C17.7533 2.7121 17.7139 2.76047 17.6733 2.8105C17.6582 2.79294 17.6426 2.7755 17.6274 2.75797C17.6657 2.69368 17.7029 2.63177 17.7363 2.56994ZM10.8296 14.3167C10.7068 14.3456 10.8481 14.4219 10.725 14.4828C10.8336 14.5321 10.9403 14.5794 11.048 14.6278C11.0792 14.5432 11.0514 14.5026 11.1273 14.4334C11.0888 14.4235 11.0501 14.4136 11.0116 14.4033C11.0101 14.4215 11.009 14.4411 11.0069 14.4583C10.9031 14.4244 10.9708 14.2826 10.8296 14.3163C10.8296 14.3165 10.8296 14.3166 10.8296 14.3167ZM10.3937 15.1086C10.3545 15.1418 10.2056 15.2669 10.2321 15.316C10.3251 15.4791 10.5228 14.9747 10.4361 15.384C10.4567 15.3951 10.4749 15.409 10.4944 15.4215C10.5403 15.3651 10.5839 15.3099 10.6289 15.2512C10.5492 15.2052 10.474 15.1544 10.3937 15.1086ZM13.0778 10.6454C13.0327 10.7014 12.937 11.0406 13.0829 10.9925C13.1258 10.9782 13.0669 10.7718 13.1002 10.7242C13.1219 10.6933 13.1741 10.7698 13.183 10.6902C13.1495 10.6757 13.113 10.6583 13.078 10.6457C13.0779 10.6456 13.0779 10.6455 13.0778 10.6454ZM12.7218 10.2954C12.6986 10.3687 12.6782 10.445 12.6565 10.5175C12.7649 10.5151 12.7639 10.3908 12.8832 10.4482C12.882 10.4713 12.8809 10.4942 12.8798 10.5173C12.8466 10.5176 12.814 10.5169 12.7813 10.5166C12.8138 10.6071 12.8637 10.5901 12.7884 10.685C12.9989 10.7165 13.0978 10.7593 13.0202 10.479C13.0966 10.5655 13.4248 10.702 13.2579 10.4804C13.227 10.4391 13.1566 10.5028 13.1495 10.5001C13.0614 10.4678 13.0332 10.3957 12.9491 10.3668C12.9111 10.3536 12.8854 10.4021 12.8331 10.3829C12.8077 10.3734 12.7654 10.2909 12.7218 10.2954ZM13.2068 10.3892C13.2451 10.4364 13.4002 10.4307 13.4092 10.3577C13.4234 10.2439 13.2315 10.3307 13.2068 10.3892ZM17.7364 2.56954C17.7364 2.56967 17.7363 2.56981 17.7363 2.56994C17.7362 2.56982 17.7362 2.5697 17.7361 2.56959C17.7362 2.56957 17.7363 2.56956 17.7364 2.56954ZM10.5797 14.9358C10.5898 15.0097 10.5397 15.0759 10.6073 15.1113C10.5801 15.1263 10.5531 15.1415 10.5262 15.1561C10.5456 15.1681 10.5652 15.18 10.5844 15.1919C10.6395 15.1316 10.6962 15.0684 10.752 15.0065C10.6948 14.9827 10.638 14.9577 10.5797 14.9358ZM10.0511 15.6593C9.98759 15.7413 10.1217 15.7262 10.1507 15.7727C10.1796 15.8195 10.0953 15.8728 10.1606 15.904C10.1967 15.855 10.234 15.8038 10.2708 15.7527C10.1966 15.7236 10.1241 15.6894 10.051 15.6595C10.0511 15.6594 10.0511 15.6594 10.0511 15.6593ZM14.8685 7.52059C14.8157 7.57012 14.7602 7.50721 14.7753 7.6716C14.7754 7.67152 14.7754 7.67143 14.7755 7.67134C14.8954 7.58725 15.0238 7.47315 15.0394 7.31523C14.923 7.3541 14.9514 7.44242 14.8685 7.52059ZM11.1549 14.2293C11.1166 14.1718 11.0009 14.2623 11.0353 14.3175C11.0906 14.4076 11.2126 14.3175 11.1549 14.2293ZM15.7346 4.81046C15.618 4.62435 15.333 4.69189 15.3129 4.91992C15.3113 4.93962 15.4304 4.85144 15.4438 4.90463C15.4451 4.9099 15.4051 4.97246 15.4195 5.00166C15.4339 5.03083 15.4978 5.04414 15.5059 5.08331C15.52 5.15198 15.3871 5.21684 15.4213 5.27881C15.4259 5.28713 15.5339 5.26419 15.5388 5.26182C15.6204 5.21864 15.5611 5.10129 15.5662 5.09066C15.5924 5.03581 15.6625 5.0854 15.6875 5.08177C15.7345 5.07494 15.726 5.01261 15.7302 5.0109C15.8398 4.96792 15.72 5.13896 15.7329 5.17924C15.7683 5.28649 15.8699 5.26247 15.8218 5.44577C15.8175 5.46254 15.7138 5.63885 15.9224 5.46016C15.8499 6.00102 16.1475 5.28812 16.1497 5.19433C16.1505 5.15118 16.0514 5.16197 16.0306 5.12397C15.9832 5.03701 16.0134 4.95239 15.9069 4.9011C15.6811 4.79647 15.7666 4.97704 15.69 5.02885C15.6471 4.99512 15.6028 4.96667 15.5644 4.92711C15.6147 4.98254 15.7434 4.82451 15.7351 4.8107C15.7349 4.81062 15.7348 4.81054 15.7346 4.81046ZM15.3537 6.08106C15.2321 6.14619 15.373 6.21507 15.2428 6.2654C15.3213 6.41418 15.4018 6.24907 15.4195 6.23341C15.4982 6.16432 15.631 6.24032 15.6381 6.13033C15.5423 6.11642 15.4488 6.09662 15.3537 6.08106ZM15.8959 5.23654C15.9276 5.34273 15.9937 5.22107 16.0096 5.22375C16.1802 5.248 15.9507 5.59638 15.8959 5.23654ZM12.5873 10.887C12.5638 10.9189 12.6425 10.9333 12.6456 10.9745C12.6489 11.0158 12.5347 11.0896 12.5776 11.1096C12.6207 11.1294 12.8331 10.9962 12.7515 11.2017C12.7785 11.2078 12.7947 11.2195 12.8175 11.2278C12.847 11.1751 12.877 11.1223 12.9064 11.07C12.8234 11.0623 12.7365 11.0535 12.6564 11.0461C12.6191 10.9872 12.6968 11.0079 12.6976 11.0064C12.6975 11.0063 12.6975 11.0063 12.6974 11.0062C12.7221 10.9481 12.64 10.8152 12.5873 10.887ZM14.2729 8.29811C14.1116 8.19674 14.2537 8.37944 14.2565 8.42338C14.2591 8.46749 14.1725 8.47899 14.2536 8.50128C14.3324 8.47494 14.2903 8.31046 14.2727 8.29799C14.2728 8.29803 14.2728 8.29807 14.2729 8.29811ZM15.0512 6.62952C15.0447 6.73684 15.0942 6.7495 14.989 6.8235C15.0314 6.84173 15.0747 6.86044 15.1165 6.87834C15.1616 6.79856 15.0427 6.73788 15.1424 6.6681C15.1588 6.65668 15.2336 6.74171 15.2427 6.65439C15.1815 6.64749 15.1147 6.63789 15.0512 6.62952ZM14.9698 7.13025C15.0173 7.02951 14.7339 6.77307 14.7822 7.03314C14.7895 7.0719 14.9341 7.2063 14.9698 7.13025ZM13.0681 9.98509C12.9691 10.1443 13.1237 9.98619 13.197 9.97114C13.0289 10.3748 13.2062 9.92161 13.395 9.97243C13.3735 9.89885 13.3133 9.75076 13.2303 9.83361C13.1957 9.86828 13.2536 9.88034 13.2521 9.88271C13.1982 9.9523 13.1222 9.89828 13.0681 9.98509ZM15.4422 5.90221C15.4412 5.90972 15.5027 5.93118 15.5031 5.95697C15.5034 5.98273 15.4394 6.00556 15.4714 6.02908C15.5037 6.05262 15.5801 5.97816 15.5698 5.93708C15.5593 5.89581 15.4513 5.83468 15.4422 5.90221ZM14.954 6.45839C14.9488 6.56355 15.2306 6.54234 15.2394 6.5241C15.3152 6.3613 15.0172 6.49884 14.954 6.45839ZM12.9259 9.40713C12.9221 9.66489 13.1855 9.61802 13.3633 9.5534C13.35 9.52477 13.3368 9.49571 13.3236 9.46745C13.4183 9.61625 13.4811 9.81978 13.5215 9.46487C13.4029 9.60613 13.4391 9.45331 13.432 9.44813C13.1928 9.29436 13.1794 9.59369 12.926 9.40695C12.926 9.40701 12.9259 9.40707 12.9259 9.40713ZM15.6502 5.66639C15.6979 5.57831 15.7777 5.33378 15.6123 5.37686C15.6252 5.47275 15.638 5.56911 15.6502 5.66639ZM11.1485 12.6747C11.0479 12.7068 11.0099 12.7742 10.9639 12.862C11.098 12.8366 11.0784 12.8935 11.0849 12.9323C11.0945 12.9909 11.1479 12.8936 11.1541 12.8967C11.2375 12.9476 11.2142 13.0177 11.2948 12.8751C11.3037 12.9274 11.3132 12.9791 11.3222 13.0308C11.3887 12.9258 11.4586 12.9325 11.5647 12.9053C11.3624 12.8742 11.5149 12.8494 11.4789 12.7228C11.4607 12.6597 11.2 12.6581 11.1483 12.6749C11.1483 12.6748 11.1484 12.6747 11.1485 12.6747ZM12.7792 9.59618C12.798 9.63335 12.8283 9.6746 12.8517 9.71349C12.8429 9.73744 12.8342 9.76026 12.8258 9.78348C12.7977 9.77161 12.7687 9.75863 12.7414 9.74776C12.7182 9.77176 12.7613 9.78098 12.7602 9.79127C12.7601 9.7912 12.7599 9.79112 12.7598 9.79104C12.7431 9.93838 12.7105 9.98512 12.5761 10.0357C12.6577 10.0802 12.7393 10.1246 12.8208 10.1691C12.8248 10.1434 12.829 10.1176 12.8331 10.0921C12.7955 10.0568 12.7578 10.0215 12.7202 9.98621C12.7579 9.97466 12.7952 9.96329 12.8328 9.95183C12.8278 9.92349 12.8242 9.89076 12.8181 9.86534C13.0995 9.8916 12.8231 10.0301 12.9165 10.084C12.9768 10.118 13.0962 9.89279 13.0723 9.83679C13.0687 9.8287 12.872 9.78559 13.0062 9.75003C13.0272 9.74457 13.397 9.9402 13.1487 9.68806C13.1135 9.65225 12.8611 9.57239 12.7792 9.59618ZM12.2126 10.3535C12.5168 10.3545 12.0129 10.688 12.3166 10.5908C12.3931 10.7075 12.3975 10.6959 12.5251 10.6899C12.5365 10.6894 12.5442 10.7458 12.5499 10.7445C12.6324 10.7187 12.64 10.6381 12.7363 10.69C12.7392 10.6726 12.7421 10.6563 12.745 10.6389C12.6212 10.6506 12.6132 10.5204 12.5571 10.4415C12.5318 10.4056 12.4998 10.4389 12.4773 10.4081C12.4691 10.3967 12.521 10.3542 12.4905 10.3347C12.4213 10.291 12.3058 10.2724 12.2212 10.3018C12.2211 10.3018 12.221 10.3018 12.221 10.3017C12.2177 10.3189 12.2157 10.3362 12.2126 10.3535ZM13.8945 7.73964C14.036 7.78925 14.1206 7.72294 14.0927 7.92416C14.1228 7.92992 14.1528 7.93532 14.1829 7.94109C14.196 7.91176 14.2087 7.88339 14.2222 7.85389C13.887 7.55886 14.4025 7.64187 14.0775 7.59168C14.0421 7.58627 14.0389 7.67018 13.9946 7.56129C13.9945 7.56134 13.9943 7.56139 13.9942 7.56144C13.9689 7.66568 14.0085 7.70244 13.8945 7.73964ZM13.6478 8.40433C13.8046 8.76602 13.9603 8.1952 13.8415 8.24022C13.831 8.24381 13.7709 8.49287 13.6478 8.40433ZM14.3438 6.57403C14.2871 6.66582 14.4306 6.75339 14.4889 6.77293C14.5473 6.79256 14.5297 6.69751 14.5427 6.69373C14.5854 6.68148 14.5715 6.74974 14.629 6.73493C14.6481 6.72929 14.7895 6.59674 14.7884 6.58374C14.7768 6.52163 14.621 6.51718 14.6139 6.49731C14.5903 6.43229 14.6831 6.4133 14.6249 6.36626C14.501 6.26557 14.5901 6.44556 14.583 6.464C14.5611 6.51929 14.4865 6.47133 14.4503 6.50026C14.4142 6.52903 14.4273 6.56814 14.4035 6.59826C14.3956 6.60828 14.347 6.56952 14.3438 6.57403ZM14.4809 7.06034C14.4244 6.8994 14.1704 7.0743 14.1812 7.11643C14.2129 7.24229 14.5075 7.13785 14.4809 7.06034ZM12.741 10.2277C12.71 10.0922 12.5283 10.2695 12.5275 10.3486C12.5672 10.3558 12.7519 10.2741 12.741 10.2277ZM12.9565 9.35207C12.9362 9.4492 13.1788 9.43799 13.2137 9.36737C13.1161 9.26148 13.119 9.31249 13.0894 9.35511C13.0597 9.39767 12.9724 9.27644 12.9565 9.35207ZM15.0445 5.61926C15.0332 5.63506 14.972 5.97868 15.1049 5.83528C15.1155 5.82331 15.2074 5.61625 15.1991 5.58802C15.1795 5.53576 15.0744 5.5777 15.0445 5.61926ZM12.9984 8.85513C13.0776 8.95621 13.0522 8.99938 13.1962 9.02484C13.1962 9.02478 13.1963 9.02472 13.1963 9.02466C13.1719 9.1578 12.92 9.0276 12.9125 9.05401C12.8856 9.14753 13.1059 9.1653 13.1354 9.24937C13.147 9.09833 13.2479 9.19728 13.3069 9.10734C13.3202 9.08701 13.295 8.96358 13.2573 8.92703C13.2196 8.89044 13.0629 8.86063 12.9984 8.85513ZM15.2457 5.19566C15.1527 5.27012 15.2703 5.45237 15.3716 5.3323C15.421 5.27411 15.3024 5.15037 15.2457 5.19566ZM9.73942 14.8822C9.79063 14.8952 9.842 14.9076 9.89363 14.9191C9.88188 14.96 9.87059 15.0005 9.85827 15.0425C9.86277 15.0062 9.86719 14.9704 9.87134 14.9349C9.81594 14.9889 9.71934 14.9704 9.73931 14.8823C9.73935 14.8823 9.73939 14.8822 9.73942 14.8822ZM8.13385 17.0817C8.07478 17.0791 8.15111 17.2244 8.16556 17.2248C8.274 17.2271 8.21609 17.085 8.13385 17.0817ZM12.2684 10.1458C12.1881 10.2494 12.444 10.288 12.4969 10.2258C12.4327 10.2463 12.3142 10.0867 12.2684 10.1458ZM8.72201 16.3246C8.74559 16.3278 8.76923 16.3309 8.79368 16.3329C8.74649 16.3482 8.72666 16.3422 8.72201 16.3246ZM14.8315 5.56065C14.8059 5.5684 14.7223 5.68753 14.7329 5.71611C14.7556 5.77534 14.9281 5.7408 14.9239 5.66309C14.9236 5.65451 14.8572 5.55278 14.8313 5.56091C14.8314 5.56082 14.8314 5.56073 14.8315 5.56065ZM9.56761 14.9768C9.56968 14.9779 9.57148 14.9792 9.57298 14.9807C9.57124 14.9794 9.56933 14.9782 9.56761 14.9768ZM6.16762 19.2536C6.17117 19.2551 6.17449 19.2569 6.17738 19.259C6.17431 19.2572 6.17091 19.2556 6.16762 19.2536ZM14.1549 6.35867C13.929 6.28857 13.9835 6.44511 14.126 6.42379C14.1336 6.42239 14.1489 6.36856 14.1549 6.35867Z" fill="#111111"/>
</svg>
