<svg width="32" height="30" viewBox="0 0 32 30" fill="none" xmlns="http://www.w3.org/2000/svg">
<path d="M10.1935 15.4805C10.2876 15.4732 10.3814 15.4659 10.4736 15.4582C11.4476 15.391 12.3225 15.4152 13.2151 15.4114C13.6701 15.4088 14.2261 15.4241 14.6396 15.4588C15.3654 15.5159 15.9243 15.5759 16.5651 15.623C17.306 15.676 18.0597 15.8055 18.6728 15.8664C19.2719 15.9185 19.9099 15.9499 20.5388 15.9792C21.3503 16.0227 22.1182 16.0613 22.9027 16.0872C23.1752 16.0963 23.4457 16.1027 23.7019 16.1008C23.9395 16.1023 24.2628 16.0768 24.2803 16.0674C24.1778 16.1182 24.3536 16.021 24.4385 15.8656C24.7029 15.4643 24.839 14.992 25.0233 14.3805C25.05 14.2959 25.0736 14.1686 25.1014 14.0004C25.2219 13.2833 25.292 13.3318 25.3393 13.1328C25.4129 12.8428 25.4512 12.6132 25.4858 12.4001C25.5394 12.118 25.6295 11.8761 25.7437 11.6681C25.9087 11.3715 26.0657 11.1489 26.2079 10.9326C26.7304 10.1452 27.2506 9.38053 27.7871 8.62339C28.0541 8.25929 28.1929 7.91635 28.4198 7.37636C28.4765 7.24389 28.5314 7.11652 28.5884 6.98469C29.367 5.20158 29.2047 6.12991 29.5183 5.53074C29.6251 5.32992 29.687 5.20296 29.7144 5.12438C29.8026 4.80523 29.486 5.18996 29.5123 4.91004C29.5942 4.59215 29.6328 4.14181 29.5974 3.86525C29.6176 3.99588 29.7156 4.06589 29.6808 4.03384C29.6555 4.01114 29.5643 3.96056 29.4583 3.91718C29.2411 3.82706 28.9625 3.74351 28.6803 3.66095C28.4573 3.59054 27.9486 3.5681 27.5258 3.54448C27.8837 3.53123 28.2642 3.51719 28.5542 3.53361C28.0202 3.46279 27.0406 3.40701 28.1276 3.37647C27.896 3.34389 27.6724 3.31348 27.4261 3.28712C27.3569 3.38244 26.2004 3.36644 26.0914 3.42418C25.9854 3.48098 26.6383 3.47945 26.6316 3.4847C26.616 3.5139 26.1699 3.50638 25.6293 3.4882C24.8377 3.46109 23.8368 3.41401 23.7219 3.40803C23.2102 3.38153 23.6611 3.26274 23.2254 3.26679C22.4779 3.27425 22.9748 3.52791 21.9645 3.18849C21.5616 3.29396 21.5264 3.23761 21.0168 3.22746C20.9497 3.22619 21.0015 3.28899 20.972 3.29047C20.2 3.33321 20.7939 3.21973 20.7898 3.21341C20.7203 3.10595 19.8914 3.1501 19.7175 3.1394C18.5076 3.06493 17.4727 3.00573 16.4041 2.96677C15.5391 2.93943 14.6417 2.90554 13.6275 2.94807C13.5821 2.9508 13.5297 2.95534 13.4654 2.96131C12.9254 3.00693 11.8561 3.1454 11.3211 3.20865C11.2535 3.21631 11.1948 3.222 11.1463 3.22571C10.6644 3.25943 10.9144 3.15519 10.661 3.14188C10.2778 3.36182 9.88046 3.40388 8.98361 3.31277C8.95883 3.32408 8.93615 3.33393 8.91525 3.34249C8.66025 3.44752 8.64762 3.35559 8.05921 3.41547C7.76361 3.44564 7.34894 3.5287 6.93442 3.57783C6.86274 3.59029 6.72922 3.61982 6.60373 3.62685C6.36911 3.64044 6.17364 3.62175 6.00155 3.58235C6.29138 3.5878 6.44684 3.57775 6.59867 3.55259C6.70995 3.5351 6.82175 3.49849 6.9335 3.47252C7.03863 3.45417 7.17759 3.43331 7.36948 3.41082C7.49723 3.39656 8.24263 3.3416 8.9129 3.28988C9.55706 3.24636 10.1424 3.1844 10.0419 3.12034C9.93631 3.0571 9.06888 3.15406 9.03457 3.14257C8.83471 3.07246 9.31969 2.96008 9.74939 2.97601C9.64308 2.99632 9.51486 3.01706 9.39998 3.03684C10.3708 3.09288 9.68526 2.75526 10.4369 3.03321C10.5305 3.06594 10.4984 3.11048 10.6521 3.13995C10.6811 3.11993 10.4949 3.09218 10.6515 3.07102C10.811 3.05005 11.1253 3.09899 11.1627 3.02415C11.2189 2.91828 10.5609 3.02573 10.5101 3.02057C10.5096 3.02122 10.5091 3.02187 10.5087 3.02252C10.0634 3.00382 10.9833 2.92398 11.0252 2.90416C11.2085 2.84167 11.182 2.80856 11.266 2.76388C11.3095 2.74099 11.3808 2.71487 11.5235 2.68022C11.7654 2.62062 12.3927 2.56985 12.6233 2.53832C12.852 2.50594 12.49 2.49359 12.6434 2.46813C12.7972 2.44261 12.9936 2.46055 13.1736 2.43251C13.2508 2.42034 13.2418 2.36764 13.2798 2.3624C13.3354 2.35463 13.3785 2.35056 13.4117 2.3492C13.622 2.34115 13.4787 2.43125 13.8014 2.40672C14.0444 2.38772 14.8424 2.26886 14.2886 2.25048C14.5552 2.23286 14.8117 2.22086 15.0764 2.20905C14.9111 2.19529 14.7379 2.18717 14.5754 2.17171C15.0713 2.18794 15.2948 2.09531 15.6052 2.08568C15.8733 2.07764 16.1185 2.15762 16.4009 2.14367C16.4433 2.14152 16.4873 2.13714 16.533 2.12984C16.8451 2.08028 16.6916 2.06241 16.4005 2.05699C16.0051 2.04949 15.3653 2.06694 15.2352 2.05713C15.1483 2.05006 15.4814 1.96076 15.5333 1.95798C15.7629 1.94523 16.0329 2.00495 16.211 2.00137C16.275 2.00001 16.3381 1.99792 16.4003 1.99526C16.9225 1.97233 17.292 1.90532 17.8301 1.89067C19.879 1.83548 22.4165 1.80317 24.3578 1.80712C24.9541 1.80844 25.351 1.87474 25.6552 1.9C25.7226 1.9055 25.7839 1.90903 25.8408 1.90953C26.5989 1.91672 26.6943 1.83838 27.3623 1.85094C27.8552 1.87625 28.3152 1.8394 29.1211 2.03294C29.4193 2.12435 29.7222 2.21719 30.0397 2.34729C30.3472 2.48982 30.7374 2.61559 31.0744 3.13644C31.1581 3.27664 31.2201 3.44709 31.2451 3.6099C31.3415 4.29192 31.3113 4.75605 31.294 4.92707C31.2606 5.15028 31.2292 5.35951 31.1219 5.66002C30.7647 6.52555 30.4473 7.26207 30.1155 8.07777C29.9345 8.53566 29.6616 9.20562 29.3125 9.68083C29.0062 10.1234 28.7235 10.5419 28.4744 10.9169C28.1028 11.4768 27.8485 11.7576 27.7268 11.9138C27.7048 11.9423 27.6874 11.9663 27.6743 11.9873C27.4861 12.2869 27.4519 12.3869 27.4225 12.4758C27.3975 12.5603 27.3671 12.641 27.3147 12.7767C27.3047 12.8039 27.2957 12.8248 27.2866 12.8425C27.2258 13.0076 27.1711 13.0376 27.1612 13.0694C27.0598 13.4069 27.1369 13.4931 27.0889 13.7562C27.0201 14.1022 27.0124 14.3939 26.869 14.9217C26.6928 15.5012 26.4799 16.2396 26.055 16.8746C25.7905 17.2568 25.4906 17.6707 24.7824 17.8916C24.2518 18.0079 23.9937 17.977 23.6554 17.9858C23.5293 17.9854 23.541 17.9443 23.4603 17.9459C23.1169 17.9516 23.2745 18.019 22.9196 18.0143C22.8931 18.0138 22.8668 18.0133 22.8402 18.0128C22.1426 17.9986 21.4256 17.9556 20.6943 17.9075C20.6248 17.9031 20.5894 17.8541 20.4532 17.842C20.444 17.8412 20.4343 17.8406 20.4241 17.8401C20.2509 17.832 20.1171 17.8757 19.8444 17.8586C19.4022 17.8303 18.9669 17.7807 18.5031 17.7202C18.1994 17.6802 17.9215 17.6303 17.6415 17.5915C17.5197 17.5745 17.3627 17.6172 17.1854 17.5946C16.9569 17.5653 16.6886 17.5255 16.4187 17.4925C16.0011 17.4429 15.5798 17.3845 15.286 17.3558C15.0313 17.3315 14.7374 17.301 14.5488 17.289C14.0456 17.2502 13.6717 17.2468 13.2158 17.2513C12.3511 17.2603 11.5006 17.2552 10.7178 17.3011C10.6862 17.3032 10.6542 17.3049 10.6249 17.3063C10.297 17.3233 10.0187 17.295 9.85195 17.3074C9.43896 17.3394 9.75054 17.3663 9.34405 17.4066C9.11952 17.4307 8.89841 17.4609 8.72702 17.5009C8.64438 17.5193 8.56877 17.5471 8.56863 17.5485C8.5695 17.5461 8.59643 17.5421 8.67156 17.4635C8.74637 17.397 8.85799 17.1573 8.83323 16.9804C8.84253 17.2047 9.01294 17.5945 9.11525 17.6783C9.5115 18.066 9.98641 18.4405 10.4781 18.8229C10.7381 19.0265 11.0315 19.2248 11.3518 19.4676C11.5862 19.6485 12.0079 19.8781 12.3991 20.2354C12.6735 20.4856 13.2228 20.7958 13.7198 21.22C14.0473 21.5023 14.4096 21.7488 14.8198 22.0319C14.9596 22.1288 15.0927 22.2248 15.2226 22.3186C15.4533 22.4853 15.6856 22.6517 15.9165 22.7998C16.3457 23.0763 16.7696 23.3869 17.1695 23.7165C17.7349 24.1771 18.2977 24.6952 18.7423 25.2297C18.7631 25.2546 18.7836 25.2793 18.8038 25.3037C19.1581 25.7298 19.1585 25.8458 19.4128 26.1134C19.4561 26.1581 19.4969 26.1981 19.5357 26.2342C19.9453 26.6168 20.1422 26.7249 20.5766 27.127C20.7609 27.2959 20.873 27.3716 20.8653 27.3833C21.1047 27.4411 21.4118 27.4713 21.6752 27.4494C21.8988 27.4327 22.0899 27.3693 22.1107 27.3335C22.3608 27.2042 22.6213 27.0868 22.8723 26.9616C22.9307 26.9319 22.9829 26.9021 23.0124 26.8825C23.3458 26.671 23.4982 26.6109 23.6212 26.5202C23.6765 26.4822 23.7016 26.4519 23.6912 26.4704C23.6811 26.4847 23.6476 26.5772 23.6543 26.6459C23.652 26.5866 23.648 26.5299 23.6425 26.4765C23.609 26.1723 23.5569 25.9727 23.435 25.7575C23.2704 25.4605 23.0369 25.1394 22.815 24.919C22.4702 24.5778 22.1095 24.1896 21.9067 24.0758C21.5496 23.8413 21.2811 23.6562 21.2399 23.6598C21.1074 23.6146 20.7244 23.5797 20.336 23.4867C19.9255 23.3841 19.6308 23.3109 19.4008 23.3037C18.8094 23.2817 18.2144 23.2349 17.6511 23.1908C17.2402 23.1588 16.8556 23.1003 16.5526 23.0755C15.9218 23.0112 15.5185 22.9633 14.9975 22.9611C14.2895 22.9532 13.6315 22.9701 12.8694 22.994C12.5007 22.9979 12.1824 23.019 11.7434 23.0451C11.3068 23.0598 10.9066 23.1116 10.3722 23.1498C9.93826 23.1762 9.48977 23.2163 9.04159 23.2602C9.01739 23.2625 8.99315 23.2649 8.96887 23.2674C8.35918 23.3192 7.9543 23.3325 7.49082 23.442C7.12096 23.5266 6.75011 23.6172 6.38138 23.7142C6.1967 23.7629 6.01346 23.8129 5.8343 23.8648C5.7447 23.8908 5.65722 23.9169 5.57325 23.9434C5.50575 23.9625 5.36076 24.0197 5.4271 23.9881C5.12546 24.1367 4.85907 24.2694 4.73883 24.361C4.69247 24.381 4.58127 24.5308 4.45813 24.7825C4.39774 24.8958 4.34621 25.0391 4.31108 25.1885C4.28684 25.3318 4.19841 25.0902 4.19893 25.5769C4.20577 25.7008 4.23808 25.8477 4.29832 26.0085C4.39987 26.3338 4.4504 26.5647 4.57217 26.7895C4.58574 26.8154 4.60037 26.8417 4.6162 26.8684C4.70227 27.0184 4.89176 27.1999 5.04768 27.2805C5.19452 27.3795 5.84751 27.4318 5.81977 27.3954C5.91692 27.3562 6.07151 27.2181 6.22355 26.9943C6.41194 26.7247 6.48949 26.6018 6.52398 26.4664C6.56289 26.3269 6.56783 26.1044 6.53971 25.8531C6.49289 25.2275 6.37162 24.7791 6.17317 24.1918C6.0277 23.7668 5.88847 23.383 5.70455 23.0006C5.45807 22.4706 5.26888 21.9728 5.07727 21.4596C4.90075 20.9656 4.76667 20.5362 4.60494 20.0938C4.36329 19.4554 4.0282 18.6558 3.8578 17.8896C3.8053 17.6721 3.75689 17.4561 3.70983 17.2459C3.6491 16.976 3.59025 16.7113 3.52206 16.485C3.31541 15.2315 3.35464 14.3981 3.38915 13.3626C3.44266 12.5595 3.29318 11.7815 3.51052 10.643C3.57545 10.3623 3.61956 10.0821 3.64583 9.79495C3.68365 9.36398 3.6975 8.83575 3.79338 8.27513C3.86251 7.87123 3.93397 7.49607 3.98929 7.13102C4.06057 6.67581 4.17481 6.27052 4.18416 6.05335C4.2171 5.63972 4.28726 5.23636 4.4112 4.82569C4.54145 4.40523 4.58068 4.16139 4.58233 3.76913C4.58229 3.43052 4.58075 3.0938 4.56966 2.78196C4.56209 2.46962 4.52054 2.17379 4.51347 2.19035C4.52424 2.18128 4.425 2.05195 4.26662 1.92446C4.43388 2.01089 4.28803 1.91812 4.16623 1.90884C4.03275 1.88653 3.86774 1.87658 3.70378 1.87648C3.30387 1.88004 2.98683 1.88367 2.75397 1.93708C2.22117 2.08673 1.74229 2.19212 1.29714 2.33937C0.983655 2.44757 0.676401 2.54627 0.350787 2.63618C-0.00969662 2.73093 0.118495 2.43501 0.255823 2.30277C0.435679 2.27487 0.605447 2.25733 0.793749 2.22689C0.846833 2.00083 0.863722 1.9513 1.06199 1.8585C1.1774 1.8046 1.3557 1.73871 1.64864 1.63307C2.13708 1.46225 1.70695 1.49468 1.95446 1.36429C2.04507 1.31684 2.23368 1.2275 2.44854 1.12705C2.88563 0.921032 3.47402 0.87831 3.62857 0.907C3.68332 0.918258 3.69114 0.941353 3.635 0.979968C3.73765 0.93887 3.83458 0.902713 3.93977 0.869421C4.25659 0.870333 4.57786 0.847418 4.91721 1.05446C5.13282 1.20793 5.35553 1.37911 5.51345 1.64057C5.85165 2.33779 5.77716 2.97249 5.84108 3.62195C5.8444 3.67976 5.85153 3.72346 5.86034 3.76072C5.88192 3.8562 5.91554 3.90772 5.91444 4.07275C5.91256 4.49669 5.80612 4.87431 5.6881 5.22061C5.63897 5.3672 5.5972 5.5241 5.56652 5.69677C5.53001 5.91165 5.55725 5.99858 5.55872 6.17556C5.55823 6.26022 5.54967 6.36118 5.5255 6.48569C5.43911 6.90463 5.33752 6.88961 5.32933 7.36472C5.32887 7.39103 5.32856 7.41866 5.3284 7.44774C5.45517 7.20225 5.3097 7.91487 5.16559 8.54226C5.10606 8.81233 5.06906 9.09519 5.05247 9.27756C5.04611 9.33247 5.06565 9.63169 5.05406 9.97006C5.0467 10.1584 5.02623 10.349 4.99426 10.4906C4.96136 10.6378 4.91069 10.8113 4.84871 10.9992C4.76937 11.2177 4.72461 11.5613 4.73687 11.9128C4.74595 12.1781 4.82654 12.3432 4.82461 12.6409C4.82305 12.8508 4.74351 13.1043 4.72245 13.3788C4.72053 13.4038 4.71886 13.4314 4.71732 13.4611C4.70188 13.7365 4.73297 14.1992 4.73267 14.2903C4.7288 14.6531 4.6855 14.2512 4.67845 14.4999C4.66393 15.0255 4.67996 15.729 4.736 16.1378C4.87837 16.6672 4.95949 17.1461 5.07648 17.6C5.12598 17.7968 5.18083 17.9857 5.24155 18.166C5.28687 18.2995 5.28745 18.0952 5.2952 18.113C5.66147 18.9925 5.43268 18.5344 5.46875 18.7995C5.48366 18.9041 5.62029 19.2475 5.78032 19.6602C6.005 20.249 6.25844 20.8939 6.32068 20.8715C6.29231 20.898 6.289 20.9436 6.29965 20.9944C6.33255 21.1428 6.47391 21.3541 6.50637 21.427C6.68093 21.8172 6.54343 21.7859 6.73977 22.1476C6.81224 22.2782 6.76445 21.9823 6.82743 22.1292C6.86701 22.2211 6.89934 22.3127 6.92899 22.403C7.03449 22.7019 7.10578 23.0443 7.24291 23.439C7.28289 23.554 7.34015 23.5837 7.40859 23.7501C7.41726 23.7713 7.426 23.7944 7.43468 23.8197C7.52759 24.0416 7.73613 25.0887 7.72252 24.5826C7.77969 25.0898 7.81505 25.3177 7.86752 25.6875C7.88453 25.806 7.90118 25.946 7.90456 26.1242C7.90089 26.3332 7.83412 26.6169 7.67712 27.082C7.62012 27.2325 7.69746 27.2754 7.5793 27.4757C7.51008 27.5889 7.43918 27.6816 7.37163 27.7671C7.14907 28.0441 6.87389 28.3497 6.38174 28.5862C6.35773 28.5973 6.33338 28.6076 6.309 28.6172C5.57503 28.8387 5.07212 28.7324 4.41701 28.4675C4.00778 28.2522 3.68522 27.9557 3.44201 27.554C3.31228 27.3365 3.20854 27.0827 3.14932 26.8416C3.08067 26.5526 3.16233 26.5655 3.11572 26.2964C3.1076 26.2543 3.0982 26.2066 3.0879 26.1518C3.06365 26.0841 2.92511 25.4901 2.98815 25.1443C3.00284 25.0204 3.09055 24.5888 3.27483 24.2385C3.37678 24.0386 3.49372 23.8459 3.54612 23.7704C3.70701 23.5332 3.77416 23.4137 3.87366 23.3076C3.90373 23.2764 3.93739 23.2479 3.9807 23.2214C4.4849 22.9509 4.16791 23.2834 4.63474 22.8411C4.69153 22.8392 4.75355 22.8269 4.81514 22.8111C5.09133 22.7304 5.2545 22.7111 5.36997 22.7602C5.52916 22.5794 5.81623 22.62 6.18349 22.4778C6.55089 22.3358 6.80726 22.0239 6.96125 22.2551C7.00528 22.2359 7.08858 22.2057 7.19055 22.1713C7.49179 22.0659 7.9634 21.9726 8.06276 21.9618C8.4597 21.9122 8.25565 22.0047 8.5445 21.9709C8.59086 21.9649 8.54833 21.9256 8.81458 21.8992C8.82612 21.8979 8.83822 21.8967 8.85089 21.8954C8.99583 21.881 9.75406 21.7999 10.2753 21.7679C10.5082 21.7524 10.7002 21.7314 10.7309 21.7311C11.5705 21.7069 10.7634 21.7882 10.281 21.8492C10.1212 21.8664 9.98745 21.8858 9.93371 21.903C9.89115 21.8925 9.84925 21.882 9.80389 21.8722C9.32463 21.8936 9.6072 21.9786 9.82487 21.9849C9.94586 21.9885 10.1224 21.9646 10.288 21.9486C10.4142 21.9361 10.5351 21.923 10.6154 21.9313C10.7054 21.9402 10.6638 22.0809 10.3966 22.0885C10.685 22.1042 10.2994 22.1821 10.4155 22.2108C10.5203 22.2389 11.3637 22.1591 11.6988 22.1175C11.7832 22.1048 11.8346 22.0894 11.8348 22.0748C11.791 22.0773 11.7444 22.0803 11.6971 22.0824C11.4853 22.0915 11.2486 22.1104 11.0498 22.1269C10.8335 22.0655 11.1521 21.8064 11.6782 21.6897C11.9229 21.6272 12.2597 21.5879 12.5741 21.638C12.9983 21.7064 12.7092 21.7847 12.8485 21.7942C12.9207 21.8012 13.1329 21.7785 13.6893 21.7241C13.453 21.7252 13.2516 21.7208 13.0391 21.7233C13.0125 21.6283 13.3627 21.7205 13.5422 21.6848C13.6282 21.667 13.0929 21.6162 13.5551 21.5788C13.9571 21.7052 14.2607 21.5587 14.9308 21.5601C14.7448 21.5834 14.5588 21.6079 14.3729 21.634C15.4884 21.7274 12.9398 21.772 15.0073 21.8205C15.0293 21.8213 15.0516 21.8221 15.074 21.823C15.052 21.8231 15.0298 21.8232 15.0073 21.8233C14.7662 21.8245 14.5265 21.8242 14.2845 21.8331C14.4134 21.8821 14.2097 22.0322 14.3248 22.0623C14.5131 22.1121 14.7579 22.1109 15.0048 22.1074C15.149 22.1053 15.2932 22.104 15.4261 22.1126C15.584 22.1232 15.4839 22.1585 15.4972 22.1593C15.7119 22.1759 15.6683 22.1146 15.8582 22.1261C16.015 22.1342 16.3559 22.2018 16.6192 22.2391C16.7503 22.2576 16.8583 22.2762 16.8971 22.2782C17.1885 22.2953 16.7196 22.1247 16.7478 22.1204C16.9394 22.0832 17.313 22.1766 17.3014 22.1008C17.1267 22.0909 16.8904 22.0638 16.6347 22.0438C15.5742 21.9176 14.183 21.8167 16.1528 21.8402C15.4855 21.6613 15.7291 21.5089 16.6494 21.5973C16.6565 21.5978 16.6634 21.5982 16.6701 21.5987C17.4566 21.671 16.9362 21.6826 17.3328 21.7993C17.3537 21.8052 17.5452 21.8374 17.757 21.8591C18.0709 21.8909 18.4376 21.9196 18.4708 21.892C18.4199 22.0057 18.7521 22.1339 18.5152 22.2376C18.4805 22.2532 18.0513 22.2123 18.1935 22.3209C18.2646 22.3756 18.4724 22.4979 18.433 22.5571C18.5252 22.5207 18.6216 22.479 18.7149 22.4403C19.0877 22.4581 19.2759 22.4786 19.4356 22.513C19.5436 22.5382 19.6356 22.5764 19.768 22.6333C19.7617 22.5992 19.4697 22.4041 19.9362 22.531C19.9601 22.5393 19.9703 22.5897 20.2033 22.6732C20.329 22.7185 20.43 22.7567 20.5052 22.7867C20.6888 22.8578 20.6952 22.8923 20.472 22.9244C20.4409 22.9286 20.4059 22.9326 20.3673 22.9367C20.3999 22.9424 20.4323 22.9481 20.4649 22.9537C20.9237 23.0311 21.2079 23.0605 21.3996 23.145C21.5746 23.2209 21.7508 23.3982 22.1672 23.6655C22.2192 23.6969 22.2723 23.7314 22.3307 23.773C22.325 23.6963 22.2948 23.6281 22.2323 23.5631C22.0659 23.4181 21.7806 23.1756 21.4239 23.0667C21.3505 23.0479 21.2675 23.0328 21.17 23.0187C21.1391 22.9667 21.1277 22.919 21.0927 22.8663C21.2488 22.9055 21.3635 22.9422 21.451 22.9794C21.7236 23.1168 21.789 23.2081 21.8499 23.2336C21.9134 23.2672 21.9655 23.2782 22.2717 23.4342C22.2806 23.4386 22.2912 23.4443 22.3035 23.4509C22.5051 23.5261 23.087 24.1557 22.96 23.8515C22.9322 23.7689 22.4857 23.3761 22.5612 23.3884C22.5883 23.3746 23.1362 23.8693 23.1685 23.928C23.501 24.4252 23.0231 24.0596 23.3371 24.4067C23.4469 24.5327 23.6772 24.7632 23.999 25.2716C24.027 25.3169 24.078 25.3136 24.1331 25.3853C24.139 25.393 24.1452 25.402 24.1511 25.4116C24.261 25.6 24.2003 25.6259 24.2738 25.7991C24.3442 25.9709 24.4812 26.2321 24.418 26.5349C24.4113 26.5673 24.4042 26.5926 24.397 26.613C24.3659 26.6702 24.3379 26.6544 24.3142 26.6167C24.2448 26.419 24.1473 25.8069 23.9807 25.4666C23.97 25.4401 23.9594 25.4139 23.9499 25.3894C23.9169 25.3774 23.9163 25.4157 23.9362 25.4903C23.993 25.6771 24.1173 26.0643 24.1157 26.6255C24.1144 26.6657 24.07 26.7559 23.9026 26.88C23.7379 27.0048 23.5456 27.0902 23.2748 27.2629C22.9096 27.4885 22.368 27.6432 22.2556 27.7039C22.2519 27.7057 22.2486 27.7073 22.246 27.7086C22.0711 27.7847 21.9593 27.8006 21.9966 27.8044C22.0219 27.8073 22.1712 27.7876 22.2739 27.7506C22.6097 27.6285 22.9959 27.4858 23.0385 27.4884C23.0705 27.4915 23.189 27.7284 23.4127 27.4629C23.4385 27.4343 23.4655 27.4039 23.492 27.3714C23.5367 27.3168 23.4505 27.332 23.3484 27.3697C23.2681 27.385 23.1984 27.3937 23.3045 27.3059C23.306 27.3047 23.3076 27.3035 23.3092 27.3022C23.6492 27.0562 23.5374 27.2275 23.5699 27.2131C23.6633 27.1861 23.9297 26.9818 23.9588 26.9661C24.2472 26.859 24.3669 26.7849 24.3956 26.8337C24.422 26.8822 24.2619 27.1032 23.7606 27.1603C23.4527 27.4553 24.3414 27.0697 23.934 27.4023C23.8021 27.5066 23.6656 27.5833 23.5485 27.6597C23.2001 27.8761 22.9028 27.8807 22.8478 27.9037C22.1896 28.0994 22.5395 28.0515 22.4219 28.129C22.3736 28.161 22.2301 28.2227 21.8698 28.2423C21.2137 28.2607 22.8263 28.048 21.3477 28.1534C21.057 28.1541 20.8725 28.1378 20.7583 28.1308C20.4145 28.0781 20.7332 28.2272 20.6506 28.3235C20.6233 28.3656 19.9397 28.1561 20.7196 28.4018C20.7681 28.4083 20.8231 28.4143 20.8843 28.4193C20.9157 28.3832 20.9721 28.3368 21.035 28.3049C21.2635 28.3522 21.6691 28.5357 21.8042 28.5284C22.2256 28.5108 22.3572 28.4322 22.5202 28.3801C22.5877 28.3571 22.6637 28.3442 22.7934 28.3397C22.51 28.306 22.9236 28.2373 23.0649 28.1515C23.4965 27.8686 23.0463 28.0617 23.6432 27.797C23.7311 27.7513 23.8792 27.6935 24.0792 27.5951C23.8958 27.638 23.7329 27.6529 23.5689 27.6893C23.5685 27.6894 23.5682 27.6895 23.5678 27.6896C23.5681 27.6894 23.5684 27.6892 23.5686 27.689C23.6923 27.6037 23.832 27.5296 23.9636 27.4452C24.2419 27.4918 24.9151 26.733 24.3796 27.4649C24.6717 27.2656 24.8976 26.906 24.8662 26.5922C24.8414 26.1974 24.7573 25.9841 24.6604 25.8671C24.6315 25.8327 24.5906 25.6943 24.5267 25.536C24.5113 25.5775 24.4388 25.6451 24.4196 25.6249C24.3387 25.5391 24.2956 25.413 24.2787 25.3078C24.2612 25.1948 24.2802 25.1063 24.3413 25.1448C24.2871 25.0431 24.2417 24.9642 24.2259 24.9362C24.1248 24.758 24.3886 25.067 24.3173 24.9152C24.3 24.8601 23.9506 24.3936 23.9553 24.3736C24.0118 24.2443 24.4452 24.8433 23.7585 23.9932C23.6525 23.8771 23.5217 23.7298 23.3518 23.5407C23.25 23.5935 23.62 23.9769 23.6456 24.104C23.6526 24.1335 23.6413 24.1492 23.6036 24.1452C23.5975 24.1447 23.5907 24.1436 23.5831 24.142C23.3063 24.0859 23.121 23.5912 22.9071 23.6573C22.9012 23.6071 22.907 23.5759 22.9073 23.5261C22.7046 23.3727 22.565 23.272 22.4663 23.1946C22.2834 23.0453 22.2874 22.9452 22.1723 22.8387C22.0802 22.7576 21.8901 22.5959 21.6012 22.4953C20.8932 22.3151 20.2133 22.2425 21.5123 22.593C21.2327 22.5308 20.965 22.5141 20.7098 22.47C20.7116 22.3234 20.7433 22.286 20.6357 22.2468C20.5206 22.2159 20.2735 22.1187 19.5663 22.012C19.5277 22.0076 19.4919 22.0024 19.4583 21.9968C19.2516 21.9587 19.1587 21.8721 18.9124 21.9901C18.959 21.8462 18.1339 21.8753 18.0565 21.8495C17.637 21.7121 18.9755 21.6885 19.4651 21.8433C19.5555 21.8681 19.6188 21.9018 19.6497 21.9391C20.0135 21.8836 19.9913 22.0217 20.347 22.0877C20.4794 22.114 20.5789 22.1335 20.6596 22.1483C20.8916 22.1931 21.0049 22.1992 21.4754 22.3726C21.67 22.3845 21.5525 22.3223 21.3363 22.2642C21.1198 22.2077 20.8531 22.1606 20.671 22.1009C20.4071 22.0164 20.2758 21.9574 20.6943 22.0045C20.7645 22.0107 20.8503 22.0176 20.9612 22.0247C21.1097 22.0392 21.3289 22.034 21.7147 22.1294C22.1736 22.2601 22.5008 22.5311 22.7856 22.6917C23.3045 23.0121 23.6239 23.3906 24.0081 23.7483C24.3705 24.1077 24.6597 24.4939 24.9267 24.9623C25.212 25.451 25.33 26.06 25.3578 26.5704C25.393 27.2197 24.9626 27.668 24.6987 27.8772C24.4249 28.0997 24.1067 28.2617 24.0122 28.3321C23.4845 28.6819 23.0792 28.779 22.735 28.9292C21.8326 29.2126 21.3229 29.1624 20.6194 29.1016C19.741 28.94 19.4192 28.4632 19.1164 28.2074C18.8219 27.9194 18.5772 27.6696 18.3412 27.4429C17.919 27.0333 17.6063 26.6612 17.372 26.3936C17.2956 26.3059 17.2243 26.2281 17.1606 26.1606C16.7859 25.7633 16.3975 25.4222 15.9994 25.0939C15.6356 24.7928 15.2771 24.5304 14.9232 24.3027C14.4902 24.0217 14.1257 23.7461 13.7886 23.5181C13.3943 23.2513 12.949 22.9555 12.5378 22.6068C12.1991 22.3133 11.769 22.1052 11.1634 21.5918C10.9713 21.4127 10.6877 21.2595 10.2396 20.9348C9.99178 20.747 9.68132 20.5386 9.34934 20.2814C9.22349 20.1837 9.09187 20.0815 8.95785 19.9755C8.82642 19.8688 8.3181 19.4841 7.82865 18.995C6.87966 17.952 7.05518 16.7989 7.15532 17.2803C7.13593 17.4489 7.79755 18.8958 7.43508 17.5804C7.43837 17.8084 7.25711 17.3765 7.22609 17.1061C7.2052 16.9148 7.25418 16.7554 7.26797 16.7124C7.38859 16.3662 7.57829 16.2395 7.68685 16.1501C7.80423 16.0632 7.88997 16.0172 7.9643 15.9773C8.11022 15.901 8.20906 15.8594 8.29041 15.8235C8.45317 15.7538 8.54775 15.7152 8.66842 15.6781C8.90409 15.6062 9.25206 15.549 10.1935 15.4805ZM15.829 17.0278C15.0126 16.9429 14.6541 16.9083 14.5669 16.9248C14.4739 16.9325 14.4991 16.9542 14.5639 16.9849C14.6402 17.0433 14.8701 17.1476 14.6411 17.2372C14.9397 17.2639 15.2644 17.2972 15.5813 17.3261C15.4987 17.3032 15.4176 17.2804 15.3356 17.2573C15.3352 17.2573 15.3349 17.2572 15.3345 17.2572C15.4993 17.1811 15.6645 17.1047 15.829 17.0278ZM13.848 2.10912C13.9473 2.07229 14.0447 2.03642 14.1506 2.00158C14.484 2.0017 14.8123 2.00646 15.1409 2.01244C15.1031 2.03482 15.0647 2.05749 15.0254 2.07994C14.636 2.08454 14.2511 2.08936 13.848 2.10912ZM23.7512 25.1315C23.5949 24.7613 23.4927 24.8226 23.2388 24.5031C23.2076 24.4668 23.175 24.4267 23.1396 24.3807C23.1186 24.4709 23.1007 24.5625 23.0839 24.6552C23.0714 24.6992 23.0583 24.7428 23.0441 24.786C23.3106 25.0606 23.4139 25.1242 23.6185 25.5157C23.6259 25.4526 23.631 25.387 23.6358 25.3227C23.5886 25.2628 23.5362 25.2005 23.4883 25.1445C23.5122 24.9796 23.9284 25.603 23.7522 25.1326C23.7519 25.1322 23.7516 25.1319 23.7512 25.1315ZM20.1093 22.8247C19.9901 22.7874 19.6885 22.6939 19.4285 22.6737C19.1471 22.6524 18.8878 22.635 18.8217 22.6541C18.6128 22.714 19.0506 22.7652 19.4232 22.7935C19.7612 22.8366 20.0263 22.8837 19.4198 22.8707C19.3265 22.8739 19.2166 22.8768 19.0879 22.8788C19.0962 22.9026 19.0854 22.9249 19.0841 22.9479C19.1947 22.9564 19.3047 22.9641 19.4154 22.9712C19.6071 22.9849 19.8301 23.0337 20.0708 23.0984C20.0745 23.0047 20.1086 22.9196 20.1093 22.8247ZM8.62916 17.6377C8.66033 17.7096 8.74578 17.8564 8.8523 17.9474C9.29524 18.3507 10.0051 18.8149 9.7207 18.4923C9.63026 18.3884 9.1621 18.1212 8.89496 17.9038C8.85456 17.876 8.81786 17.8381 8.79526 17.8045C8.7236 17.6852 8.86979 17.7853 8.71264 17.5487C8.68513 17.5758 8.65207 17.6004 8.62975 17.6383C8.62955 17.6381 8.62936 17.6379 8.62916 17.6377ZM7.9827 17.1702C8.06021 17.5563 8.23146 17.9363 8.49938 18.2141C8.36782 17.9615 8.12724 17.4705 8.25381 17.4012C8.29131 17.4937 8.33437 17.5823 8.38315 17.6672C8.38709 17.7471 8.39517 17.8266 8.40873 17.9061C8.56891 18.0631 8.57985 18.0164 8.68508 18.1185C8.74024 18.1678 8.81875 18.2454 8.95149 18.3725C8.89553 18.2193 8.8676 18.107 8.80584 17.995C8.76319 17.8549 8.59621 17.7282 8.34251 17.1972C8.45365 17.311 8.63793 17.1774 8.61492 16.9975C8.62847 17.0869 8.5678 17.2454 8.50501 17.288C8.44457 17.3355 8.42145 17.3102 8.43241 17.2718C8.44699 17.2382 8.38382 17.249 8.38708 17.2306C8.40578 17.2284 8.4637 17.0051 8.44122 17.0198C8.4369 17.0163 8.43263 17.0138 8.42846 17.0121C8.4141 17.0183 8.40014 17.0188 8.38641 17.0154C8.32843 17.0651 8.24861 17.0955 8.19902 17.0419C8.18611 17.0361 8.17798 17.0254 8.16918 17.0324C8.16057 17.1175 8.16947 17.231 8.14143 17.263C8.11625 17.2903 7.99968 17.0393 7.9827 17.1702ZM8.58122 17.1278C8.50321 17.2058 8.84489 17.2509 9.18575 17.1883C9.71998 17.0901 8.83622 17.0423 8.58122 17.1278ZM13.8458 2.10934C13.8465 2.10927 13.8473 2.10919 13.848 2.10912C13.8476 2.10926 13.8473 2.1094 13.8469 2.10954C13.8465 2.10947 13.8461 2.10941 13.8458 2.10934ZM21.3365 23.1522C21.1167 23.1434 20.6417 23.0685 20.6622 23.1439C20.5877 23.1218 20.5119 23.0979 20.4363 23.072C20.3606 23.046 20.2919 23.0203 20.2249 22.9954C20.2205 23.0178 20.2174 23.0407 20.213 23.0629C20.2799 23.0824 20.3484 23.1028 20.4238 23.1234C20.7815 23.2235 21.1462 23.266 21.3389 23.3408C21.35 23.3453 21.3625 23.3508 21.3763 23.3574C21.375 23.3193 21.3733 23.2815 21.3691 23.2436C21.3607 23.2135 21.3504 23.1831 21.3365 23.1522ZM16.7921 22.5056C16.698 22.4939 16.6372 22.4908 16.599 22.4928C16.4645 22.496 16.5481 22.5421 16.5919 22.5819C16.6094 22.6019 16.6175 22.6206 16.5879 22.632C16.5878 22.632 16.5877 22.6321 16.5877 22.6321C16.4401 22.6718 15.9786 22.576 16.0276 22.6547C16.1971 22.6736 16.3745 22.6989 16.5811 22.7174C16.7041 22.7285 16.8427 22.7461 16.981 22.7636C16.9069 22.6764 16.859 22.5908 16.7911 22.5055C16.7914 22.5055 16.7918 22.5055 16.7921 22.5056ZM25.9571 16.3067C25.8357 16.5123 25.7833 16.5328 25.7013 16.6539C25.6264 16.7527 25.5596 16.9139 25.2746 17.2235C25.2751 17.223 25.2757 17.2225 25.2763 17.222C25.4692 17.0775 25.634 16.9018 25.7761 16.7006C26.1697 16.1752 26.4037 15.4622 26.513 14.9204C26.2958 15.341 26.2808 15.7254 25.9571 16.3067ZM23.9597 26.2099C24.0511 26.3255 23.9773 25.7252 23.8482 25.6505C23.6861 25.5234 23.8569 26.0197 23.9597 26.2099ZM29.3871 3.05651C29.1205 3.06774 29.1751 3.1776 29.3963 3.31593C29.5939 3.4378 30.0857 3.69506 30.0645 3.79286C30.081 3.8762 30.0945 3.96854 30.1062 4.06367C30.1123 4.11433 30.1319 3.91262 30.1357 3.78183C30.1471 3.73647 30.1433 3.69157 30.1767 3.72757C30.1787 3.73024 30.1858 3.74682 30.1906 3.77332C30.2115 3.88346 30.2225 4.09106 30.2404 4.15735C30.2662 4.24994 30.331 4.15207 30.3525 4.30814C30.3889 4.55617 30.2551 5.07261 30.1902 5.30542C30.1829 5.33419 30.1777 5.36002 30.1754 5.38223C30.1745 5.39129 30.1975 5.3635 30.2281 5.31987C30.2931 5.23151 30.3728 5.05755 30.3778 5.04165C30.5145 4.65057 30.4127 4.24914 30.4117 4.19109C30.4054 3.8753 30.4833 3.91705 30.4976 3.83206C30.5018 3.8001 30.5018 3.7635 30.4984 3.72562C30.4852 3.534 30.3067 3.39647 30.2996 3.38879C30.188 3.26095 30.1928 3.25679 30.2746 3.30535C30.3503 3.35306 30.5154 3.49896 30.55 3.71762C30.586 3.91874 30.5891 4.11503 30.6005 4.17321C30.6531 4.59946 30.8268 4.19823 30.6734 5.25241C30.6679 5.2762 30.6475 5.35986 30.6093 5.46493C30.5146 5.71334 30.39 6.02994 30.6687 5.48752C30.7235 5.36599 30.7705 5.22853 30.8151 5.05816C30.7936 5.22074 30.7674 5.36394 30.7228 5.50811C30.4382 6.36462 30.5641 6.13715 30.8131 5.54247C31.0196 4.93492 31.0614 4.27072 30.9642 3.65343C30.9129 3.34083 30.7198 3.12699 30.5966 3.02464C30.4676 2.91716 30.3743 2.87133 30.323 2.8453C30.0765 2.73286 30.3922 3.00049 30.2328 2.95308C29.882 2.84974 29.4142 2.741 29.4208 2.86333C29.4224 3.14471 30.1485 3.0928 30.4078 3.57079C30.3358 3.55241 30.2831 3.5652 30.196 3.5474C30.2641 3.56819 30.138 3.37963 29.9032 3.26159C29.6768 3.13865 29.4079 3.05616 29.3872 3.05604C29.3872 3.0562 29.3871 3.05635 29.3871 3.05651ZM28.8901 9.10212C28.8322 9.17345 28.7843 9.23359 28.7442 9.28689C28.513 9.59325 28.5784 9.68172 28.2475 10.0328C28.0902 10.5171 28.6226 9.71212 28.6939 9.62496C28.7752 9.52258 28.8433 9.4532 28.9046 9.39806C29.0911 9.21939 29.2254 9.17162 29.3942 8.75858C29.2237 8.90127 29.063 8.99849 28.8901 9.10212ZM30.7679 4.00561C30.8377 4.37402 30.8546 3.89938 30.8235 3.67524C30.8142 3.60115 30.799 3.54965 30.7986 3.53914C30.7806 3.4033 30.8516 3.46379 30.9055 3.66254C31.0564 4.12376 30.8884 5.31368 30.7679 4.00561ZM10.01 19.3383C10.0269 19.3521 10.0414 19.3629 10.0538 19.3711C10.1591 19.4403 10.1284 19.3383 10.2682 19.4179C10.422 19.5054 10.8958 19.9223 10.9114 19.8783C10.9247 19.8263 10.0618 19.0554 11.0187 19.7129C11.0019 19.6675 11.0247 19.6597 11.0231 19.6287C10.7622 19.4368 10.5098 19.2615 10.2783 19.0811C10.2752 19.0787 10.2722 19.0763 10.2691 19.0739C10.2711 19.0776 10.2731 19.0814 10.2751 19.0851C10.3554 19.2421 10.4457 19.4052 10.5348 19.5582C10.3562 19.5048 10.3244 19.3837 10.3171 19.3784C10.3171 19.3784 10.317 19.3785 10.317 19.3786C10.2592 19.3374 10.1954 19.2989 10.135 19.2662C9.91466 19.1459 9.7303 19.1097 10.01 19.3383ZM20.8001 17.3943C20.8467 17.2767 20.6609 17.3066 20.4759 17.3496C20.3644 17.3749 20.2494 17.4038 20.175 17.4088C19.9729 17.4225 19.7003 17.3371 19.7997 17.4245C19.9742 17.4645 20.2525 17.4585 20.4717 17.4403C20.6503 17.4252 20.7969 17.4038 20.8001 17.394C20.8001 17.3941 20.8001 17.3942 20.8001 17.3943ZM27.0588 11.8544C26.8483 12.2934 26.8878 12.2507 26.6884 12.6955C26.6852 12.7051 26.6819 12.7147 26.6785 12.7245L26.6858 12.6949C26.729 12.7114 26.7792 12.7036 26.8277 12.6978C26.9485 12.3462 26.8335 12.3043 27.1702 11.863C27.2255 11.7929 27.2099 11.9957 27.3825 11.6914C27.3908 11.6766 27.4 11.6599 27.4097 11.6419C27.3922 11.6531 27.3744 11.6644 27.3569 11.6749C27.2578 11.737 27.1562 11.7958 27.0588 11.8544ZM26.5211 14.1644C26.6068 13.6011 26.3239 13.0784 26.3081 14.159C26.3078 14.3208 26.4539 14.6104 26.5211 14.1644ZM9.98895 16.6349C8.99945 16.7043 10.1256 16.6723 10.3911 16.7111C8.50734 16.8994 9.88027 16.7511 10.5827 16.7904C10.7255 16.7989 10.8416 16.82 10.8828 16.8521C11.1528 16.7849 11.6788 16.6519 11.0943 16.6327C10.8508 16.6275 10.9427 16.6814 10.9278 16.6815C10.7541 16.6835 10.658 16.6728 10.572 16.6601C10.4319 16.6409 10.3198 16.6134 9.98895 16.6349ZM29.3705 8.1078C29.3587 8.14396 29.4408 8.11305 29.4067 8.22998C29.3739 8.34706 29.2171 8.59004 29.2385 8.63275C29.2684 8.67544 29.5223 8.15996 29.5526 8.0013C29.5879 7.83821 29.4755 7.78371 29.3705 8.1078ZM27.2099 11.3113C26.9784 11.7538 27.6183 11.2007 27.6769 11.1107C28.187 10.3127 27.2562 11.374 27.2099 11.3113ZM12.2881 16.1474C11.0832 16.2727 11.9676 16.4736 12.7171 16.6024C12.8165 16.5774 12.9185 16.5523 13.0167 16.5274C12.5946 16.67 11.8767 16.8108 13.2156 16.7233C13.3105 16.7167 13.4147 16.7094 13.5307 16.7018C13.391 16.6948 13.2889 16.6893 13.2156 16.6838C12.9499 16.6639 13.0799 16.6445 13.2156 16.6308C13.2976 16.6225 13.3805 16.6167 13.3826 16.614C13.4103 16.5412 13.3366 16.4951 13.2155 16.4625C12.8656 16.3679 12.1213 16.3784 12.2891 16.1474C12.2888 16.1474 12.2884 16.1474 12.2881 16.1474ZM30.0539 6.64387C30.182 6.33354 30.4351 5.72672 30.5032 5.42455C30.5374 5.25045 30.5159 5.21025 30.412 5.38986C30.4048 5.40109 30.397 5.41338 30.3889 5.4264C30.2775 5.8455 30.1618 6.23799 30.0539 6.64387ZM18.9749 27.143C19.2288 27.4923 19.4763 27.7801 19.911 28.1512C19.6002 27.7377 19.8554 27.9543 19.9982 28.0418C20.2148 28.175 19.7507 27.7817 19.7619 27.7711C19.8404 27.7067 20.1107 27.9639 19.5084 27.361C19.6802 27.4873 19.8506 27.6125 20.026 27.7277C19.5647 27.2814 19.5123 27.1152 19.2733 26.7686C19.3768 27.062 19.2684 26.9249 19.052 26.7236C18.9607 26.6391 18.8524 26.5406 18.7345 26.4552C18.5908 26.3499 18.7079 26.6782 18.848 26.9301C18.8963 27.0186 18.9425 27.097 18.976 27.1442C18.9756 27.1438 18.9753 27.1434 18.9749 27.143ZM11.0371 16.1246C10.9127 16.1632 10.7995 16.2146 10.6808 16.2612C10.6336 16.2655 10.5867 16.2701 10.5405 16.2751C10.4572 16.2843 10.3732 16.293 10.2894 16.3019C10.2711 16.2729 10.2553 16.2423 10.2344 16.2146C10.0627 16.2188 10.1325 16.2558 10.0819 16.2636C10.0819 16.2635 10.0819 16.2633 10.0819 16.2631C9.3514 16.3792 9.06422 16.3796 8.44516 16.4166C8.46718 16.5068 8.48919 16.5971 8.51121 16.6873C8.63352 16.6485 8.76051 16.6173 8.88665 16.5897C8.94659 16.5303 9.00898 16.4716 9.07253 16.4136C9.22625 16.4226 9.37679 16.4351 9.52827 16.4492C9.64606 16.4206 9.78795 16.3903 9.88998 16.3649C10.5037 16.5773 9.14008 16.5072 9.14123 16.626C9.14029 16.6787 10.1699 16.5999 10.5621 16.539C10.6164 16.53 10.659 16.5219 10.6832 16.5143C10.7112 16.5064 10.4037 16.3285 10.909 16.4026C10.9891 16.4162 11.0254 16.8285 11.5529 16.4815C11.6286 16.4328 11.3591 16.1744 11.0371 16.1246ZM8.44434 18.8095C8.02428 18.1099 10.0524 20.1645 9.23298 19.2105C9.58423 19.3332 9.52972 19.293 9.32525 18.9888C9.30735 18.962 9.51694 19.087 9.50369 19.0706C9.28461 18.8213 8.96689 18.5907 9.03742 18.506C8.96783 18.4532 8.90316 18.4027 8.83505 18.3484C8.99591 18.6027 8.72297 18.4458 8.49446 18.3136C8.43575 18.2795 8.38202 18.2424 8.33838 18.2152C8.23816 18.1523 8.39049 18.3604 8.304 18.3093C8.26151 18.2933 8.08756 17.9748 8.05576 17.9758C7.98064 17.9828 7.93896 18.233 8.20997 18.6047C8.21665 18.614 8.22351 18.6234 8.23055 18.6328C8.23049 18.6328 8.23043 18.6329 8.23038 18.6329C8.3016 18.6944 8.37216 18.7514 8.44434 18.8095ZM22.4423 16.8698C22.5659 17.022 23.0875 17.0851 22.0814 17.1182C22.1305 17.1494 22.1795 17.1804 22.2285 17.2115C22.3977 17.2157 22.5619 17.2192 22.7342 17.2228C22.777 17.1893 22.8215 17.1618 22.8686 17.1394C23.3997 16.8873 24.1464 17.2656 23.593 16.9875C23.5279 16.9547 23.1298 16.9875 23.5231 16.9001C23.5226 16.9 23.522 16.9 23.5215 16.8999C23.2015 16.9141 23.043 16.9329 22.8754 16.9291C22.7562 16.9261 22.6322 16.911 22.4423 16.8698ZM18.7454 16.7766C18.6827 16.7866 18.63 16.796 18.5869 16.8052C18.3447 16.8543 18.3896 16.9011 18.5746 16.9399C19.0349 17.0381 20.3329 17.0208 19.9906 16.947C19.9457 16.941 18.6331 16.9241 18.7454 16.7766ZM25.8986 13.0528C25.7711 13.6248 25.9385 13.6939 26.0065 13.6468C26.0753 13.5994 26.0935 13.1976 26.1151 13.149C26.1814 12.9916 26.1265 13.3438 26.2147 13.1399C26.2285 13.1078 26.3001 12.865 26.3768 12.619C26.4562 12.3575 26.6075 12.1273 26.6141 12.1047C26.7031 11.8628 26.3997 12.1229 26.4211 12.0528C26.4922 11.8056 26.733 11.5733 26.7073 11.4758C26.6565 11.2641 26.4654 11.8639 26.4203 11.9637C26.2767 12.2533 26.208 12.1928 26.1051 12.4393C26.0916 12.4751 26.0805 12.51 26.0713 12.5439C26.0234 12.7188 26.0133 12.8562 25.9699 13.0266C25.9532 13.0925 25.9055 13.0242 25.8986 13.0528ZM25.8577 14.9767C25.9058 14.3718 25.3653 15.7166 25.2971 15.8424C25.1729 16.3324 25.8615 15.2915 25.8577 14.9767ZM8.06096 16.8293C8.16725 16.7232 8.18706 16.7028 8.12083 16.7111C8.0759 16.7259 7.85176 16.7667 7.83746 17.0583C7.83457 17.3782 7.97127 17.7721 8.07605 17.9295C8.06877 17.8684 7.94249 17.372 7.9519 17.0494C7.95061 16.9294 8.03134 16.8648 8.06096 16.8293ZM12.6218 16.1486C12.1187 16.1758 12.7853 16.3859 13.2039 16.3832C13.2079 16.381 13.2117 16.3788 13.2155 16.3766C13.3541 16.2979 13.3235 16.277 13.2154 16.2713C13.1481 16.2678 13.0496 16.2702 12.9449 16.2678C12.6709 16.2612 13.0142 16.1276 12.6218 16.1486ZM29.0327 7.65202C29.0152 7.77773 28.3567 9.33882 28.8463 8.49178C28.8723 8.45451 29.0406 8.04356 29.1732 7.688C29.2655 7.44735 29.3455 7.23395 29.3512 7.19816C29.3836 7.01292 29.1569 7.37597 29.041 7.6333C29.0381 7.63964 29.0353 7.64588 29.0327 7.65202ZM15.0693 16.037C14.7952 16.1287 14.5201 16.1064 14.7619 16.2648C14.7623 16.2648 14.7627 16.2648 14.763 16.2649C14.7052 16.2635 14.6531 16.2603 14.6 16.2569C14.0903 16.212 14.0483 15.9783 13.9141 15.9783C13.3947 15.987 13.8802 16.1994 13.5577 16.2599C14.2784 16.2148 14.1053 16.3396 14.5935 16.388C14.6106 16.3894 14.63 16.3911 14.6485 16.3928C14.7765 16.4033 15.2861 16.3716 15.3643 16.3276C15.4423 16.2841 15.2002 16.1089 15.0693 16.037ZM29.9713 5.3686C29.6984 5.88306 29.6551 6.46096 30.0106 5.72136C30.1054 5.52655 30.1339 5.34527 30.1095 5.27472C30.0977 5.24374 30.077 5.23494 30.0514 5.25263C30.0297 5.26977 30.0038 5.3059 29.9713 5.3686ZM19.3742 22.0349C19.4009 22.0514 19.4271 22.0679 19.4545 22.0844C19.5235 22.1222 19.5903 22.1628 19.6561 22.2054C19.5877 22.2009 19.5187 22.1986 19.4494 22.1992C19.2976 22.2011 19.1458 22.2019 18.994 22.2015C19.1458 22.1966 19.2976 22.1906 19.4501 22.1835C19.4717 22.1826 19.4934 22.182 19.515 22.1817C19.493 22.1793 19.4714 22.1769 19.4505 22.1748C19.0885 22.1344 18.95 22.0423 19.3731 22.0348C19.3735 22.0348 19.3738 22.0349 19.3742 22.0349ZM4.81524 22.9129C4.63361 22.9494 4.36981 23.2633 4.4196 23.2509C4.6439 23.1859 4.84588 23.0501 4.89668 22.9679C4.94041 22.922 4.94179 22.8933 4.86464 22.9063C4.85152 22.9064 4.83506 22.9086 4.81524 22.9129ZM7.65193 17.7627C7.974 18.5201 7.90764 17.8953 7.80981 17.4683C7.84646 17.7563 7.52455 17.3251 7.65193 17.7627ZM9.93371 21.903C9.99695 21.9186 10.0605 21.9343 10.1311 21.9498C9.91228 21.938 9.87311 21.9225 9.93371 21.903ZM28.7284 7.82914C28.674 7.93437 28.3715 8.55839 28.3298 8.63982C28.2689 8.83361 28.6738 8.43744 28.7597 8.09565C28.7706 8.06011 28.7843 7.74153 28.7278 7.83062C28.728 7.83013 28.7282 7.82963 28.7284 7.82914ZM18.4729 21.8856C18.4739 21.888 18.4731 21.8901 18.4708 21.892C18.4717 21.8899 18.4717 21.8877 18.4729 21.8856ZM6.3292 20.8624C6.32701 20.8674 6.32421 20.8707 6.32068 20.8715C6.32347 20.8689 6.3259 20.8647 6.3292 20.8624ZM25.7569 12.4734C25.4674 12.6725 25.4573 13.3007 25.6731 12.8546C25.6846 12.8288 25.7406 12.5357 25.7569 12.4734Z" fill="#E8E8E8"/>
</svg>
