<svg width="31" height="29" viewBox="0 0 31 29" fill="none" xmlns="http://www.w3.org/2000/svg">
<path d="M2.34748 21.6066C2.35399 21.636 2.36054 21.6655 2.36712 21.6949C2.45481 22.0736 2.70998 22.6318 2.96483 23.1541C3.03975 23.3076 3.11968 23.4317 3.19162 23.5116C3.27705 23.6055 3.2797 23.5916 3.61646 23.8527C4.04352 24.2066 4.54421 24.5794 5.00537 24.8944C5.33443 25.1167 5.66313 25.2809 6.07701 25.4526C6.48534 25.6312 6.776 25.7696 7.10905 25.9026C7.15121 25.9196 7.18543 25.935 7.21395 25.9494C7.36412 26.0245 7.3457 26.0687 7.40746 26.0988C7.60988 26.1965 7.76363 26.164 7.9166 26.2199C8.26293 26.3457 8.60448 26.4561 8.93669 26.549C9.32562 26.6571 9.71118 26.7474 10.0961 26.8124C10.5339 26.8818 10.5849 26.9529 10.615 27.0313C10.6325 27.0819 10.6363 27.1276 10.7556 27.1567C11.3275 27.3015 10.8578 26.9912 11.0887 26.9485C11.6113 27.0083 12.103 27.0497 12.6313 27.0765C12.7264 27.0825 12.813 27.0838 12.9045 27.0792C12.8159 27.1083 12.7289 27.1314 12.6308 27.149C12.5908 27.1547 12.553 27.1603 12.5134 27.1657C12.5515 27.1668 12.59 27.1686 12.6307 27.1709C12.8353 27.184 13.0398 27.2031 12.7102 27.2849C12.7975 27.3025 12.8781 27.3197 12.9724 27.3272C12.9695 27.2329 13.4534 27.1377 13.5092 27.0721C13.5494 27.0056 13.2473 27.0686 13.2524 27.0633C13.2542 27.0416 13.3562 27.0158 13.5168 26.9933C13.8002 26.9604 14.3738 26.8564 14.4302 26.8454C14.6423 26.8075 14.4951 26.9777 14.6697 26.9187C14.9725 26.8145 14.693 26.6378 15.209 26.8276C15.2827 26.7435 15.326 26.7195 15.3845 26.7059C15.4288 26.6959 15.4835 26.6933 15.5687 26.667C15.5933 26.6593 15.5535 26.6071 15.5635 26.6018C15.8113 26.4577 15.6518 26.6437 15.654 26.6496C15.7199 26.7434 15.9849 26.5723 16.0575 26.5417C16.0834 26.5325 16.1098 26.523 16.1367 26.5132C16.3994 26.4242 16.6687 26.2696 16.8819 26.1062C17.0732 25.9746 17.1608 25.7461 17.3053 25.3984C17.3938 25.2101 17.4805 25.0108 17.5651 24.793C17.6473 24.5929 17.7995 23.9597 17.8553 23.7674C17.9057 23.61 17.9493 23.6643 17.9961 23.6339C18.0059 23.6271 18.0158 23.6163 18.0257 23.5992C17.8765 23.3932 17.8945 23.2188 18.0887 22.869C18.0035 22.743 18.0492 22.7422 18.0726 22.622L18.0756 22.6004C18.0852 22.5667 18.0936 22.5239 18.0961 22.4666C18.1051 22.2944 18.0218 22.0096 18.056 21.7763C18.0665 21.692 18.1068 21.576 18.1562 21.5305C18.1189 21.6235 18.1107 21.722 18.1134 21.7721C18.1231 21.8993 18.1655 21.9506 18.1758 22.1866C18.1768 22.2273 18.1672 22.4108 18.1383 22.6125L18.1361 22.6277C18.1182 22.9529 18.0419 23.3869 18.1423 23.3497C18.2217 23.3207 18.2346 22.9368 18.2492 22.9245C18.3417 22.8538 18.3943 23.0844 18.3227 23.2603C18.3169 23.2115 18.3129 23.153 18.3078 23.1006C18.1272 23.4938 18.5499 23.2842 18.1679 23.5324C18.121 23.5638 18.0833 23.5398 18.029 23.5961C18.0436 23.6128 18.1017 23.5426 18.096 23.6117C18.095 23.6236 18.091 23.6371 18.0854 23.6514C18.0588 23.7194 17.9926 23.7995 18.0448 23.8286C18.1033 23.8622 18.1364 23.7531 18.1516 23.6644C18.1603 23.6148 18.1648 23.5725 18.1684 23.5654C18.1678 23.5651 18.1673 23.5647 18.1667 23.5644C18.2239 23.4517 18.2157 23.5676 18.2037 23.6746C18.1966 23.738 18.1862 23.7981 18.1881 23.8057C18.2205 23.9445 18.2891 23.8704 18.2913 24.0722C18.2928 24.188 18.196 24.4529 18.173 24.5533C18.1509 24.654 18.2453 24.5164 18.2339 24.5855C18.2225 24.6547 18.1611 24.725 18.1462 24.8053C18.14 24.8397 18.191 24.8554 18.1873 24.872C18.1474 25.0489 18.0819 24.9009 18.0337 25.0559C18.0033 25.1561 17.9748 25.5229 18.0896 25.3058C18.0585 25.4194 18.0248 25.5289 17.9898 25.6406C18.0315 25.578 18.0691 25.511 18.1122 25.4503C18.0637 25.5435 18.0488 25.6203 18.0418 25.6897C18.0438 25.742 18.0539 25.7972 18.036 25.8639C18 25.9944 17.8545 26.1028 17.8059 26.3122C17.7363 26.5443 17.8546 26.3994 17.9506 26.1818C18.0453 25.9582 18.0879 25.7656 18.1096 25.7466C18.1261 25.7236 18.172 25.8508 18.167 25.8761C18.1496 25.9648 18.0461 26.086 18.0074 26.1857C17.9137 26.4353 17.8113 26.6695 17.6486 26.8742C17.5954 26.946 17.5368 27.0155 17.4651 27.084C17.2505 27.2849 17.038 27.463 16.7235 27.6457C16.4904 27.7911 16.1027 27.9739 15.8022 28.0718C15.3953 28.2146 14.9775 28.3586 14.5891 28.4679C14.2627 28.5598 14.0314 28.5132 13.8705 28.5437C13.8267 28.5519 13.7867 28.56 13.7503 28.5678C13.5408 28.6178 13.5112 28.6937 13.2067 28.7426C13.0371 28.7689 12.821 28.7794 12.6199 28.7679C12.2731 28.7465 11.9048 28.7013 11.6506 28.6778C11.3911 28.6546 11.1518 28.7119 11.0865 28.7087C10.8905 28.6988 10.6991 28.6866 10.5094 28.678C9.79228 28.6539 9.04382 28.5003 8.48189 28.3592C8.3936 28.3371 8.30954 28.3151 8.22991 28.2937C7.87264 28.1966 7.73411 28.0616 7.66131 28.0424C7.35018 27.9567 7.41025 28.0528 7.16329 27.9637C7.02999 27.915 7.02813 27.8391 7.01102 27.8304C6.86128 27.7539 6.79906 27.8298 6.67434 27.7879C6.63123 27.7734 6.58801 27.7583 6.54532 27.7429C6.11771 27.5914 5.68184 27.3718 5.35144 27.2106C5.13332 27.1107 4.88779 26.9954 4.64755 26.8688C4.59546 26.8413 4.61923 26.8074 4.58451 26.7915C4.43614 26.7232 4.47138 26.8165 4.3188 26.7353C4.18619 26.6635 4.05603 26.5831 3.92863 26.4958C3.76189 26.3813 3.60494 26.263 3.446 26.1417C3.41885 26.121 3.43755 26.0695 3.37511 26.0237C3.31265 25.9776 3.23554 25.9828 3.13959 25.9072C2.89476 25.7137 2.68869 25.4824 2.43014 25.2574C2.4287 25.256 2.42688 25.2543 2.42465 25.2524C2.40941 25.2391 2.33479 25.2631 2.26084 25.2086C1.99758 25.0402 1.62717 24.5391 1.50647 24.3048C1.43381 24.1843 1.37093 24.0658 1.31441 23.9503C1.04821 23.3944 0.768752 22.8956 0.579097 22.197C0.570544 22.163 0.564059 22.1283 0.559411 22.094C0.545639 21.9675 0.561873 21.8508 0.548379 21.782C0.511743 21.5942 0.487031 21.7476 0.447287 21.5559C0.386332 21.2518 0.326926 20.9487 0.294309 20.5844C0.258199 20.1415 0.253167 19.7213 0.219648 19.3812C0.190964 18.5967 0.215393 18.1485 0.183323 17.5472C0.171804 17.3041 0.158987 17.0414 0.155726 16.7757C0.151435 16.4665 0.148498 16.1193 0.167009 15.7727C0.178643 15.5615 0.176656 15.3568 0.208281 15.0815C0.224556 14.9433 0.244172 14.8139 0.26628 14.6932C0.313132 14.4418 0.396873 14.411 0.427499 14.2365C0.482404 13.9271 0.395931 13.8541 0.4446 13.5299C0.469653 13.364 0.540465 13.1914 0.59841 13.0194C0.631478 12.9191 0.661366 12.8191 0.677986 12.7206C0.724977 12.4452 0.657351 12.2985 0.713834 11.9828C0.732853 11.8764 0.768125 11.7446 0.798078 11.6379C0.853159 11.423 0.921575 11.2308 0.954118 11.0861C0.974471 10.9971 0.992093 10.9138 1.00774 10.8304C1.09745 10.3639 1.19942 9.89522 1.3099 9.43867C1.46214 8.80222 1.63996 8.17591 1.80127 7.58132C1.94212 7.05715 2.08778 6.46355 2.37076 5.84176C2.47483 5.61514 2.59172 5.37772 2.68204 5.18442C2.94979 4.66373 3.12327 4.47895 3.2895 4.20234C3.45503 3.93802 3.60488 3.76654 3.76568 3.58739C3.97159 3.36352 4.18014 3.15214 4.4496 2.93138C4.78674 2.66465 5.02813 2.5337 5.26147 2.36838C5.55473 2.16632 5.86808 1.94246 6.21467 1.74103C6.30045 1.69248 6.2255 1.85312 6.47883 1.65914C6.53228 1.61938 6.59009 1.56553 6.66914 1.50087C6.78886 1.39994 6.94696 1.2863 7.08107 1.20483C7.14634 1.16485 7.1936 1.1313 7.23388 1.09774C7.63915 0.772973 8.02931 0.631145 8.43089 0.525684C8.80521 0.441093 9.12219 0.321188 9.7326 0.275182C10.0857 0.272335 10.5771 0.215797 11.0488 0.231224C11.629 0.245713 12.1716 0.260449 12.7906 0.2993C13.1889 0.335705 13.4801 0.408013 13.7309 0.426668C13.7659 0.429807 13.7992 0.433043 13.8315 0.436268C14.2773 0.482512 14.7077 0.530938 15.1625 0.602844C15.7902 0.721806 16.3605 0.846198 17.0277 1.2897C17.3467 1.51039 17.6831 1.7741 17.9832 2.13605C18.247 2.45999 18.4747 2.72711 18.7253 3.21136C18.8067 3.3628 19.0102 3.7517 19.102 4.05906C19.2045 4.37758 19.2641 4.67447 19.306 4.96418C19.3514 5.32494 19.408 5.65441 19.4424 6.14103C19.451 6.7887 19.3319 7.20843 19.1833 7.70407C19.1369 7.84787 18.9059 7.76783 18.8395 7.68784C18.8856 7.61074 18.9399 7.5395 18.9909 7.45802C18.6992 7.36485 18.7775 7.38186 18.7869 7.01063C18.7911 6.78215 18.6775 6.97025 18.6358 6.85178C18.6044 6.76523 18.5305 6.48574 18.4911 6.31003C18.4594 6.17622 18.4541 6.07364 18.5477 6.11377C18.5053 6.077 18.4647 6.04381 18.4228 6.00851C18.341 5.73735 18.2516 5.46891 18.171 5.19533C18.1024 4.96587 18.0244 4.74274 17.9308 4.53198C17.8955 4.45414 17.8376 4.4697 17.7999 4.39331C17.6974 4.18708 17.655 4.03278 17.5243 3.7777C17.5233 3.77579 17.5224 3.7739 17.5214 3.77204C17.4685 3.67533 17.4003 3.69033 17.3194 3.54804C17.2333 3.40315 17.3125 3.35172 17.0932 3.21414C17.0887 3.32469 16.9836 3.17254 16.858 2.99076C16.7773 2.87048 16.6678 2.73528 16.5943 2.66908C16.5704 2.6444 16.2986 2.54085 16.1865 2.43966C16.1756 2.42957 16.1644 2.41857 16.1529 2.40695C16.0812 2.32486 15.944 2.18141 15.7471 2.13104C15.645 2.10499 15.5562 2.15743 15.4507 2.12337C15.3765 2.09966 15.309 1.99986 15.2115 1.96792C15.1288 1.9399 14.9513 1.93961 14.879 1.93892C14.8653 1.9384 14.8548 1.93768 14.8486 1.93654C14.6975 1.90966 14.8739 1.89318 14.771 1.86978C14.4127 1.7902 13.9873 1.70804 13.6053 1.67126C13.4269 1.6549 13.2626 1.63245 13.1161 1.61845C13.0516 1.61222 13.1303 1.68623 13.1216 1.68686C12.6913 1.69403 12.9307 1.65268 12.8285 1.58329C12.8086 1.56956 12.7591 1.55577 12.6987 1.54745C12.4546 1.5167 11.9207 1.54424 11.9185 1.62695C11.8952 1.49488 11.7078 1.59326 11.66 1.59691C11.4729 1.61072 11.5094 1.497 11.3275 1.53222C11.2606 1.54514 11.3909 1.62191 11.3191 1.61976C11.2323 1.61715 11.1495 1.58639 11.0594 1.55463C10.9707 1.52164 10.8748 1.48853 10.7605 1.48786C10.7062 1.48769 10.6921 1.54333 10.5965 1.54828C10.5061 1.55165 10.0677 1.52698 10.2782 1.6234C10.0633 1.57011 9.98083 1.59344 9.79691 1.61186C9.77642 1.61523 9.74038 1.62061 9.69045 1.62798C9.63181 1.63652 9.52826 1.56545 9.38414 1.62842C9.33548 1.64988 9.35777 1.73236 9.2812 1.75259C9.13055 1.79279 8.96747 1.77148 8.76975 1.80265C8.74202 1.80636 8.71386 1.81191 8.68534 1.81995C8.45734 1.88324 8.23258 2.01241 8.09601 2.14178C7.92017 2.29745 7.72541 2.40911 7.56184 2.48729C7.4461 2.54291 7.43019 2.45169 7.28076 2.53445C7.27914 2.53538 7.27684 2.53721 7.27395 2.53981C7.24093 2.5688 7.12319 2.7183 7.02801 2.77796C6.96695 2.81292 6.62178 3.00355 6.5546 3.0505C6.44466 3.12555 6.47599 3.20644 6.40766 3.23808C6.20898 3.33043 6.27288 3.12849 6.16646 3.41885C6.1256 3.41156 6.08562 3.41721 6.04649 3.42581C5.96474 3.44452 5.8869 3.47472 5.81521 3.43136C5.81527 3.58544 5.64882 3.55425 5.53617 3.68291C5.41969 3.81402 5.48052 4.07427 5.2902 3.8929C5.28629 3.90075 5.28039 3.91063 5.27295 3.92218C5.21387 4.00971 5.06552 4.21203 5.03663 4.24831C4.93756 4.36659 4.94226 4.25735 4.86925 4.35005C4.8567 4.36656 4.90662 4.38335 4.81614 4.47856C4.77638 4.51876 4.56684 4.76491 4.48168 4.90807C4.42392 5.00251 4.37925 5.06996 4.37031 5.08037C4.12819 5.35298 4.3078 5.07953 4.41241 4.86706C4.43632 4.81479 4.46132 4.76425 4.46295 4.73888C4.48352 4.73391 4.50403 4.72934 4.52519 4.72374C4.65471 4.5894 4.50282 4.6047 4.43017 4.66038C4.38868 4.69211 4.35442 4.76032 4.32646 4.81618C4.30073 4.86572 4.27383 4.90943 4.24318 4.92982C4.20659 4.95378 4.10638 4.86288 4.18121 4.76998C4.0806 4.85704 4.13238 4.68692 4.07341 4.70977C4.0121 4.7356 3.69749 5.20109 3.75853 5.24393C3.81669 5.15634 3.88564 5.04504 3.94513 4.95693C4.13569 4.90205 4.24412 5.52029 3.94271 5.70647C3.92432 5.71771 3.90894 5.72452 3.89568 5.72787C3.73234 5.82063 3.80499 5.48961 3.63536 6.08023C3.683 5.99038 3.73073 5.91742 3.77536 5.83405C3.86669 5.86572 3.70634 5.95924 3.70133 6.04178C3.69898 6.08196 3.85805 5.90302 3.79398 6.09291C3.65716 6.1598 3.64949 6.2657 3.61859 6.41133C3.60728 6.4703 3.59285 6.53662 3.56318 6.61192C3.56766 6.53904 3.57365 6.46646 3.58134 6.39433C3.58203 6.38914 3.58271 6.38397 3.58338 6.37884C3.58028 6.38306 3.57726 6.38715 3.5743 6.39112C3.462 6.53982 3.47074 6.44376 3.48518 6.35044C3.50109 6.25792 3.51987 6.17054 3.42647 6.32364C3.39561 6.37396 3.35276 6.45222 3.29812 6.57099C3.32843 6.48262 3.36432 6.39707 3.39924 6.31121C3.40613 6.29439 3.41268 6.27797 3.41923 6.26113C3.35028 6.29063 3.25283 6.14811 3.20366 6.18039C3.1917 6.18828 3.18069 6.19683 3.17018 6.20665C3.06605 6.30407 3.03704 6.48413 2.98177 6.6193C2.9551 6.68486 2.93223 6.63023 2.93 6.63572C2.89353 6.72614 2.95599 6.72494 2.93257 6.80628C2.90222 6.90807 2.75923 7.18553 2.75242 7.2354C2.73291 7.36332 2.90296 7.19004 2.9079 7.20479C2.93857 7.29822 2.84918 7.44511 2.92214 7.4563C2.96773 7.05 3.41867 6.01072 3.19478 7.01224C3.39553 6.7838 3.51865 6.91297 3.41642 7.29189C3.33433 7.61131 3.33108 7.38858 3.21452 7.53622C3.20309 7.55045 3.11294 7.79991 3.08695 7.93944C3.07883 7.98311 3.07739 8.01516 3.08764 8.02394C2.97998 7.97476 2.83974 8.09016 2.75076 7.96109C2.7435 7.9507 2.75796 7.89105 2.75322 7.84648C2.74933 7.8108 2.73331 7.78387 2.68372 7.80069C2.67254 7.8044 2.6585 7.80981 2.64276 7.81571C2.57991 7.83976 2.48953 7.87385 2.44504 7.84882C2.47621 7.89738 2.51203 7.94909 2.54463 7.99905C2.47989 8.27209 2.42379 8.29767 2.30406 8.42314C2.33827 8.42573 2.51315 8.32822 2.41238 8.5236C2.40685 8.5336 2.3555 8.52869 2.30115 8.62736C2.19186 8.82691 2.16418 8.86792 2.06767 8.66272C2.02695 9.0965 1.86317 9.17222 1.78049 9.56116C1.77434 9.59053 1.76864 9.62185 1.76352 9.65537C1.81973 9.64389 1.86065 9.62243 1.89156 9.59007C1.97599 9.50039 1.98846 9.32335 2.04727 9.01067C2.09616 9.00464 2.1419 9.00821 2.19136 9.00194C1.93907 9.52996 2.02428 9.25915 2.02972 9.59838C2.02985 9.60532 2.02907 9.61451 2.02761 9.62549C2.01138 9.74466 1.91625 10.079 2.06258 9.98155C2.09991 9.95621 2.16217 9.70025 2.20095 9.74161C2.20797 9.74949 2.15133 10.0651 2.13296 10.0895C1.90177 10.398 1.94324 9.75413 1.7743 10.7221C1.76991 10.749 1.82221 10.7701 1.81823 10.8235C1.81112 10.9195 1.75252 10.9113 1.74406 10.9904C1.74374 10.9936 1.7435 10.9968 1.74335 11.0002C1.73983 11.0868 1.79585 11.2251 1.68473 11.3325C1.53147 11.4799 1.53483 11.1923 1.58862 10.9566C1.60768 10.8728 1.63485 10.7932 1.66765 10.735C1.62647 10.6987 1.56937 10.7857 1.50829 10.9392C1.43522 11.1242 1.32809 11.4043 1.24699 11.7322C1.15557 12.0866 1.08411 12.442 1.08243 12.4878C1.05383 12.9926 1.17734 12.168 1.24063 12.1381C1.26637 12.1254 1.54148 12.1945 1.40648 11.9515C1.36647 11.8795 1.24071 12.1158 1.24443 11.9591C1.24821 11.8025 1.31662 11.8803 1.32474 11.8706C1.33911 11.8537 1.3475 11.8003 1.35308 11.7546C1.3597 11.7051 1.36599 11.6596 1.37396 11.6503C1.62328 11.3735 1.8677 11.4524 1.43301 11.7714C1.42037 11.7797 1.40691 11.789 1.39277 11.7986C1.41971 11.9072 1.50129 11.8424 1.57089 11.8004C1.62382 11.7659 1.6701 11.7465 1.68228 11.8238C1.68376 11.8314 1.68453 11.8417 1.68514 11.8517C1.69717 12.1443 1.52702 12.3191 1.5141 12.3531C1.35996 12.7585 1.64284 12.3128 1.4818 12.8128C1.39401 13.0924 1.4402 12.36 1.32784 13.0169C1.31969 13.0664 1.31336 13.1092 1.30861 13.1464C1.26115 13.5169 1.37004 13.2882 1.49749 13.3484C1.53022 13.364 1.51839 13.6711 1.57682 13.2605C1.54055 13.242 1.49393 13.2112 1.46318 13.179C1.46391 13.1775 1.46469 13.176 1.46551 13.1745C1.51605 13.0793 1.73186 12.9534 1.7484 12.9034C1.82984 12.6541 1.72897 12.6459 1.87661 12.5194C1.72668 12.6005 1.83983 12.4411 1.82698 12.3699C1.78075 12.1032 1.67301 12.4191 1.92211 11.893C1.84652 11.9538 1.77351 12.005 1.69867 12.0617C1.71124 11.9949 1.72393 11.9285 1.73622 11.8616C1.74729 11.8568 1.75814 11.8493 1.7682 11.8418C1.89601 11.7438 1.95939 11.4763 2.01143 11.7882C2.13895 11.4361 2.15853 11.256 2.07416 11.1489C2.06344 11.1347 2.06271 11.102 2.06724 11.0606C2.06928 11.0416 2.07254 11.0209 2.07661 10.9995C2.04508 11.0058 1.95263 11.0027 1.94405 10.9897C1.86891 10.8734 2.0677 10.7627 2.11948 10.8273C2.13312 10.7808 2.14511 10.7445 2.14962 10.7318C2.17839 10.651 2.19829 10.8268 2.2332 10.7639C2.24438 10.7431 2.28623 10.507 2.31068 10.5079C2.46656 10.5157 2.26526 10.8707 2.53872 10.1258C2.40827 10.0734 2.35043 10.4376 2.2296 10.3113C2.09954 10.1745 2.3562 10.0241 2.17907 9.93265C2.21427 9.92389 2.24189 9.92339 2.28073 9.91832C2.28004 9.81539 2.295 9.74765 2.31738 9.70091C2.36763 9.5961 2.45578 9.59552 2.49704 9.53654C2.61181 9.37082 2.83942 8.52388 2.49227 9.24492C2.50934 9.13011 2.53486 9.01481 2.55419 8.90103C2.84083 8.95461 2.70935 8.99107 2.90489 8.47113C2.94799 8.35666 3.08178 8.35329 2.96907 8.19602C3.06543 8.23554 3.10129 8.06611 3.12252 7.94934C3.13188 7.89813 3.1384 7.85731 3.14636 7.84904C3.21131 7.78101 3.24398 7.85723 3.24231 7.98271C3.23983 8.1856 3.14806 8.50549 2.97423 8.52151C3.03524 8.67977 2.90528 8.64194 2.88107 8.7918C2.8464 9.00814 2.86348 9.04357 2.69847 9.26492C2.76494 9.54598 3.02724 8.3272 3.00139 9.10387C2.99699 9.24832 2.95573 9.5125 2.89734 9.85187C2.832 10.2267 2.74757 10.6881 2.66434 11.1904C2.61373 11.4898 2.53711 11.7784 2.50358 11.9965C2.41694 12.472 2.34312 12.8988 2.28222 13.3205C2.1588 14.1473 2.05224 14.8375 2.01799 15.1536C2.01163 15.2086 2.00584 15.262 2.00076 15.3135C1.98625 15.4711 1.9808 15.714 1.96643 15.9298C1.93507 16.4835 1.96489 16.9387 2.00138 17.4586C2.04201 18.0115 2.04484 18.7428 2.05234 19.1771C2.06396 19.2838 2.07176 19.3839 2.0784 19.4829C2.08875 19.602 2.11842 20.1506 2.10602 20.4268C2.09688 20.564 2.07835 20.6724 2.00682 20.597C1.99531 20.585 1.96783 20.5006 1.93771 20.4415C1.89962 20.3547 1.85111 20.2951 1.80355 20.4531C1.79662 20.4726 1.78996 20.4969 1.78386 20.5264C1.84961 20.4395 1.925 20.6621 1.93753 20.6827C2.1948 21.1248 2.18026 20.828 2.34748 21.6066ZM1.97457 24.3272C1.75643 24.0064 1.69671 23.8492 1.64761 23.7895C1.60396 23.7337 1.59047 23.7722 1.56997 23.827C1.54692 23.9028 1.51717 24.0104 1.38375 23.9595C1.45681 24.1091 1.54115 24.2616 1.64421 24.4137C1.62993 24.3655 1.61736 24.318 1.60566 24.27C1.60556 24.2699 1.60545 24.2697 1.60534 24.2695C1.72837 24.2952 1.85227 24.3156 1.97457 24.3272ZM18.3023 25.1809C18.3179 25.2328 18.3335 25.2843 18.3466 25.3397C18.2863 25.4737 18.2251 25.6057 18.1623 25.7374C18.162 25.7379 18.1618 25.7384 18.1615 25.739C18.1604 25.7379 18.1594 25.7368 18.1583 25.7358C18.1451 25.7132 18.1316 25.6908 18.1185 25.668C18.1826 25.5074 18.2449 25.3461 18.3023 25.1809ZM1.66661 10.5792C1.79987 10.4019 1.63926 10.383 1.77384 10.1376C1.65103 10.1419 1.52996 10.1503 1.40787 10.1571C1.37659 10.363 1.40962 10.4189 1.33163 10.6319C1.37448 10.6147 1.4177 10.597 1.46066 10.5807C1.46099 10.5425 1.46086 10.5016 1.462 10.4647C1.57832 10.4328 1.51418 10.7847 1.66669 10.5799C1.66667 10.5797 1.66664 10.5794 1.66661 10.5792ZM2.14478 8.55703C2.1894 8.45664 2.36349 8.06145 2.33201 7.99246C2.22723 7.75626 1.99524 8.94527 2.09896 8.04955C2.07544 8.04701 2.05461 8.03684 2.03243 8.03048C1.98009 8.1834 1.92832 8.33732 1.87679 8.49387C1.96759 8.51064 2.05322 8.54122 2.14478 8.55703ZM0.669273 20.4293C0.667407 20.2482 0.547321 19.4752 0.456479 19.7351C0.43059 19.8083 0.599432 20.1526 0.602296 20.2927C0.604179 20.3829 0.514406 20.2866 0.557832 20.4644C0.593481 20.4536 0.633308 20.4456 0.668993 20.4289C0.669087 20.429 0.66918 20.4292 0.669273 20.4293ZM1.179 20.7032C1.16499 20.6397 1.15141 20.5754 1.13947 20.5109C1.1198 20.4043 1.10162 20.2969 1.08533 20.1899C1.02468 20.2826 1.04514 20.4316 1.01905 20.5213C1.00798 20.56 0.9886 20.5882 0.949952 20.5969C0.942912 20.5744 0.936049 20.5517 0.929427 20.5291C0.921855 20.5039 0.914396 20.4786 0.907005 20.453C0.932945 20.4139 0.959172 20.3755 0.985543 20.3377C0.904044 20.1931 0.873555 20.2846 0.878445 20.0063C0.712003 20.1636 0.606942 20.2105 0.748868 20.5448C0.76899 20.594 0.794643 20.6471 0.826466 20.7048C0.707899 20.6182 0.364103 20.7646 0.658995 21.0064C0.713374 21.0503 0.710224 20.8302 0.717942 20.8261C0.805051 20.7803 0.880992 20.8901 0.962535 20.8418C0.99915 20.8208 0.98086 20.6926 1.03358 20.6668C1.05901 20.6556 1.15062 20.7643 1.179 20.7032ZM0.768897 21.1237C0.703718 21.0782 0.605618 21.2911 0.664656 21.4464C0.756322 21.6865 0.80026 21.2709 0.768897 21.1237ZM18.3025 25.1799C18.3024 25.1802 18.3024 25.1806 18.3023 25.1809C18.3022 25.1807 18.3022 25.1805 18.3021 25.1803C18.3022 25.1802 18.3024 25.1801 18.3025 25.1799ZM1.93014 9.07974C1.91813 8.94293 1.97646 8.76177 1.89955 8.75459C1.93086 8.69857 1.96227 8.64173 1.99371 8.58594C1.97157 8.58024 1.94923 8.5751 1.92732 8.56946C1.86215 8.74616 1.79755 8.92312 1.73367 9.10192C1.79888 9.09515 1.86383 9.09031 1.93014 9.07974ZM2.53405 7.13503C2.60956 6.90616 2.45317 7.07054 2.42034 7.0055C2.38711 6.94004 2.49179 6.74209 2.41611 6.74484C2.3686 6.88364 2.32292 7.02756 2.28097 7.16573C2.36631 7.15056 2.44992 7.14698 2.53418 7.13457C2.53414 7.13472 2.53409 7.13488 2.53405 7.13503ZM5.73356 26.9829C5.6218 26.9136 5.66124 26.8665 5.50511 26.8383C5.47089 26.8317 5.42752 26.8253 5.37146 26.8185C5.37168 26.8186 5.37191 26.8187 5.37213 26.8188C5.4079 26.8434 5.44498 26.8682 5.48263 26.8928C5.68803 27.0361 5.99246 27.2144 6.2857 27.2739C6.12364 27.1181 5.94983 27.1166 5.73356 26.9829ZM1.3191 11.062C1.34834 11.1104 1.40872 11.0168 1.43441 10.9231C1.4501 10.8651 1.4559 10.8082 1.44098 10.7789C1.39907 10.6971 1.33343 10.7865 1.30763 10.8956C1.29375 10.9539 1.29292 11.0188 1.3191 11.062ZM12.1758 27.8351C12.4199 27.6467 11.9715 27.4279 11.5012 27.4907C11.4596 27.4967 11.7599 27.5752 11.6681 27.6076C11.6583 27.611 11.4918 27.5967 11.4484 27.6203C11.4053 27.6443 11.4446 27.7094 11.3744 27.7307C11.2509 27.7682 10.9856 27.6609 10.8902 27.7135C10.8778 27.7205 11.0399 27.8173 11.0502 27.8213C11.2198 27.8861 11.3957 27.7895 11.4224 27.7905C11.5603 27.7958 11.5344 27.8794 11.5684 27.9016C11.6325 27.9432 11.7514 27.9113 11.7594 27.9144C11.9674 27.999 11.4853 27.9549 11.4178 27.9793C11.2367 28.0495 11.3914 28.1397 10.9679 28.1524C10.9276 28.1533 10.4582 28.1106 11.0442 28.2539C9.86786 28.3584 11.6223 28.4217 11.8432 28.3742C11.9346 28.3575 11.801 28.2708 11.8571 28.2364C11.9854 28.158 12.1987 28.1485 12.1815 28.0299C12.1467 27.7811 11.8679 27.9361 11.6791 27.8841C11.7016 27.8312 11.7125 27.7792 11.751 27.7282C11.6913 27.7976 12.1576 27.8506 12.1757 27.8356C12.1758 27.8355 12.1758 27.8353 12.1758 27.8351ZM9.15434 27.8248C8.90671 27.6944 8.89013 27.8508 8.67078 27.705C8.66069 27.7084 8.65168 27.7118 8.64369 27.7152C8.57779 27.7438 8.58407 27.7735 8.62218 27.8008C8.69152 27.8507 8.86485 27.8902 8.894 27.9017C9.11144 27.9872 9.07553 28.1362 9.32046 28.1367C9.25712 28.0323 9.209 27.9292 9.15434 27.8248ZM11.4741 28.1536C11.2881 28.2211 11.6123 28.2406 11.6249 28.2557C11.7592 28.4277 10.7883 28.3291 11.4741 28.1536ZM0.916935 19.3805C0.914371 19.3103 0.868377 19.3371 0.834857 19.3127C0.826395 19.3044 0.818504 19.2898 0.812854 19.272C0.782359 19.1741 0.846948 18.9057 0.799464 18.9119C0.751297 18.9156 0.636216 19.4336 0.60273 18.9185C0.576277 18.9355 0.556405 18.93 0.532451 18.9386C0.534191 19.0639 0.528567 19.1576 0.544021 19.3451C0.545841 19.3625 0.547603 19.3805 0.549285 19.3986C0.567778 19.3785 0.586431 19.3583 0.605065 19.3383C0.652642 19.239 0.710873 19.188 0.763367 19.129C0.825863 19.2074 0.751089 19.2618 0.75148 19.2672C0.751561 19.2672 0.751642 19.2672 0.751723 19.2672C0.753383 19.2839 0.756375 19.3014 0.761085 19.3209C0.799387 19.4404 0.921572 19.5604 0.916935 19.3805ZM3.77855 25.7428C3.91228 25.6051 3.61336 25.6501 3.5279 25.6156C3.44255 25.5815 3.38762 25.4518 3.37492 25.5447C3.45564 25.677 3.76389 25.7588 3.77869 25.7426C3.77864 25.7426 3.7786 25.7427 3.77855 25.7428ZM7.73974 27.4497C7.51151 27.4259 7.52939 27.4841 7.28564 27.3432C7.28104 27.3902 7.27621 27.4381 7.27201 27.4844C7.48121 27.555 7.50706 27.4235 7.73308 27.5508C7.77033 27.5716 7.65307 27.6472 7.84382 27.6698C7.80772 27.5994 7.77334 27.5227 7.73974 27.4497ZM6.62362 27.2456C6.65652 27.2572 6.69071 27.2622 6.72445 27.2624C6.92135 27.2622 7.08594 27.091 6.80264 27.0527C6.77005 27.048 6.7318 27.045 6.68714 27.0438C6.61268 27.0421 6.43667 27.1793 6.62362 27.2456ZM1.21112 21.7256C1.13083 21.2973 1.17474 21.794 1.14392 21.9167C0.939579 21.1376 1.08189 21.6614 1.07095 21.9811C1.07033 22.0756 1.06257 22.1532 1.03074 22.1866C1.12056 22.3078 1.31497 22.4938 1.26319 22.2285C1.24372 22.1166 1.20164 22.1716 1.19978 22.1651C1.17731 22.0608 1.19296 22.0078 1.20662 21.9511C1.22113 21.8988 1.23326 21.8414 1.21112 21.7256ZM9.61874 27.9043C9.60169 27.9042 9.61664 27.9719 9.5618 27.9755C9.50579 27.9789 9.39536 27.9127 9.376 27.949C9.35626 27.9861 9.59243 28.0606 9.67224 28.0434C9.75069 28.0261 9.77251 27.9047 9.61874 27.9043ZM8.01561 27.3587C7.79303 27.3399 8.06765 27.6698 8.11582 27.6817C8.52544 27.7851 7.97954 27.4281 8.01561 27.3587ZM1.88443 22.5601C1.59111 22.1304 1.51901 22.5462 1.53682 22.9064C1.57748 22.937 1.61865 22.968 1.659 22.9973C1.43978 22.8765 1.15481 22.6126 1.59488 23.276C1.45318 22.8719 1.63716 23.1814 1.6462 23.1798C1.92084 23.106 1.55565 22.5878 1.8846 22.5605C1.88455 22.5604 1.88449 22.5602 1.88443 22.5601ZM10.3348 28.0631C10.3905 28.0675 10.4727 28.0698 10.5485 28.0683C10.7948 28.0647 11.0902 28.0399 10.8893 27.9287C10.7758 27.9552 10.6638 27.9824 10.5522 28.011C10.4843 28.0291 10.4086 28.0468 10.3348 28.0631ZM1.48169 14.2298C1.58355 14.0599 1.61276 13.8918 1.64906 13.6657C1.51104 13.8501 1.52358 13.7147 1.5112 13.6418C1.49271 13.5313 1.45017 13.7832 1.44324 13.7826C1.34793 13.7607 1.36186 13.5976 1.2983 13.963C1.28101 13.8667 1.26338 13.7715 1.24647 13.6753C1.19168 13.9527 1.11718 14.0069 1.00909 14.1706C1.22709 14.0318 1.06908 14.2373 1.12733 14.459C1.1566 14.5691 1.42948 14.3159 1.48182 14.2291C1.48178 14.2294 1.48174 14.2296 1.48169 14.2298ZM1.74544 22.0623C1.6981 22.0245 1.641 21.9932 1.5908 21.9554C1.58153 21.9275 1.57288 21.8996 1.56484 21.8721C1.55775 21.8474 1.55063 21.8225 1.54347 21.7978C1.57159 21.7845 1.6013 21.7719 1.62805 21.7578C1.62078 21.6833 1.58575 21.7206 1.57717 21.6999C1.57732 21.6998 1.57748 21.6998 1.57764 21.6998C1.45614 21.4026 1.43576 21.2727 1.48393 21.0155C1.39251 21.032 1.30108 21.0484 1.20965 21.0649C1.22831 21.1186 1.24725 21.1727 1.26637 21.226C1.32103 21.2458 1.37578 21.2653 1.43051 21.2845C1.41608 21.3529 1.40215 21.4211 1.38845 21.49C1.41663 21.537 1.44807 21.5939 1.4746 21.634C1.27511 21.9416 1.32437 21.3298 1.2193 21.3458C1.16201 21.3542 1.23661 21.7505 1.30325 21.9298C1.31776 21.9699 1.33249 21.9993 1.34456 22.0124C1.35472 22.0216 1.50863 21.8521 1.46742 22.0848C1.46132 22.1175 1.06353 22.263 1.46309 22.3816C1.51974 22.3968 1.72393 22.1997 1.74544 22.0623ZM1.54362 20.0052C1.29684 20.3562 1.50363 19.099 1.31797 19.6501C1.18515 19.5049 1.18903 19.5351 1.08978 19.6938C1.0809 19.7078 1.0405 19.605 1.03674 19.6143C0.986109 19.7597 1.02702 19.9288 0.917937 19.9362C0.925902 19.9743 0.933094 20.0102 0.941095 20.0485C1.03508 19.8821 1.11828 20.1339 1.2115 20.2265C1.25364 20.2686 1.25934 20.1653 1.29611 20.2007C1.30939 20.2138 1.29386 20.358 1.33048 20.3611C1.41283 20.3669 1.51611 20.2714 1.56731 20.1172C1.5674 20.1172 1.56748 20.1172 1.56756 20.1172C1.55996 20.0797 1.55136 20.0431 1.54362 20.0052ZM4.69827 25.6478C4.66492 25.8002 4.83871 25.9631 4.42896 25.786C4.43095 25.8224 4.43386 25.8589 4.43658 25.8955C4.50122 25.9345 4.56455 25.9711 4.63143 26.0084C5.0414 25.7502 5.1688 26.3587 5.07984 25.9685C5.07001 25.926 4.90278 25.8792 5.09342 25.8772C5.09325 25.877 5.09309 25.8768 5.09293 25.8766C4.87517 25.7922 4.82096 25.82 4.69827 25.6478ZM3.34915 24.7949C2.71796 24.6942 3.85024 25.4042 3.72537 25.1991C3.71323 25.183 3.22061 24.8873 3.34915 24.7949ZM7.30532 26.6251C7.07778 26.5391 7.00492 26.6896 7.0073 26.7553C7.00981 26.821 7.19177 26.8212 7.20931 26.8372C7.26683 26.8908 7.11578 26.8597 7.18973 26.9315C7.21375 26.9561 7.60547 27.151 7.62726 27.1493C7.74445 27.1449 7.63389 26.9636 7.66885 26.9582C7.78159 26.9403 7.8919 27.0503 7.94198 26.9886C8.04895 26.8574 7.7551 26.9385 7.71251 26.9271C7.5853 26.8936 7.62389 26.813 7.53677 26.7653C7.44989 26.7175 7.37973 26.7255 7.30045 26.6912C7.27406 26.6797 7.31684 26.6298 7.30532 26.6251ZM6.42003 26.6673C6.70576 26.6487 6.18305 26.2804 6.10371 26.2751C5.86637 26.2671 6.27994 26.677 6.42003 26.6673ZM1.21683 20.8556C1.32248 21.0334 1.32681 20.6989 1.31162 20.4959C1.30768 20.4476 1.3014 20.4053 1.29233 20.3766C1.28003 20.3875 1.26061 20.4374 1.2428 20.5019C1.20762 20.624 1.18759 20.8059 1.21683 20.8556ZM1.93795 22.6908C1.82937 22.5041 1.74532 22.847 1.8241 23.0136C1.99223 23.0549 1.92602 22.9747 1.88403 22.8645C1.84256 22.7543 2.02393 22.8354 1.93795 22.6908ZM9.8227 27.446C9.77913 27.4432 9.02143 27.4087 9.43578 27.5383C9.46782 27.5515 9.99231 27.6171 10.0343 27.5972C10.1189 27.565 9.93813 27.4707 9.8227 27.446ZM2.54664 23.5218C2.39524 23.4909 2.34945 23.3893 2.26914 23.541C2.2692 23.5412 2.26927 23.5413 2.26933 23.5414C2.25986 23.5281 2.25177 23.5147 2.24497 23.5014C2.13395 23.2837 2.35546 23.1637 2.32554 23.1136C2.21533 22.9264 2.11832 23.1974 2.00092 23.1008C2.19021 23.3627 2.03197 23.3392 2.1258 23.5589C2.1264 23.5603 2.12701 23.5617 2.12763 23.5631C2.14826 23.6145 2.32261 23.7641 2.38201 23.7603C2.43999 23.7583 2.51758 23.5937 2.54664 23.5218ZM10.8765 27.5179C10.757 27.487 10.6369 27.5098 10.5818 27.5485C10.5447 27.5744 10.5369 27.6071 10.5763 27.6352C10.6033 27.6543 10.6512 27.6713 10.727 27.6833C10.8991 27.7112 11.0312 27.5581 10.8765 27.5179ZM2.89412 8.38709C2.83513 8.41078 2.77597 8.43578 2.7166 8.46247C2.73105 8.36833 2.74541 8.27365 2.75954 8.17932C2.75421 8.25565 2.74852 8.33198 2.74272 8.40873C2.8086 8.2429 2.91877 8.18959 2.89425 8.38665C2.8942 8.3868 2.89416 8.38694 2.89412 8.38709ZM6.03319 3.33581C6.12747 3.32585 6.16288 3.11104 6.13968 3.11401C5.96823 3.13551 5.90314 3.34909 6.03319 3.33581ZM1.62537 20.4692C1.62537 20.469 1.62537 20.4688 1.62537 20.4686C1.62395 20.2352 1.46531 20.3407 1.41195 20.4872C1.40131 20.5146 1.39524 20.5444 1.39561 20.5728C1.43127 20.4662 1.62793 20.6173 1.62537 20.4692ZM4.46295 4.73888C4.43243 4.74614 4.40173 4.75417 4.36993 4.76473C4.4398 4.71143 4.46527 4.71142 4.46295 4.73888ZM9.74187 27.2154C9.70232 27.1912 9.39137 27.1167 9.34411 27.1291C9.24532 27.158 9.46636 27.342 9.62055 27.3268C9.63851 27.3258 9.78131 27.2411 9.7412 27.2153C9.74142 27.2154 9.74164 27.2154 9.74187 27.2154ZM3.0938 8.02641C3.09141 8.02628 3.08935 8.02541 3.08764 8.02394C3.08964 8.02486 3.09182 8.02537 3.0938 8.02641ZM11.9209 1.63809C11.9192 1.6343 11.9183 1.63054 11.9185 1.62695C11.9192 1.63049 11.9205 1.63422 11.9209 1.63809ZM7.60095 26.4419C7.57376 26.1886 7.30263 26.2238 7.44827 26.3961C7.45655 26.4055 7.57649 26.4333 7.60095 26.4419Z" fill="#E8E8E8"/>
<path d="M20.5425 13.675C20.709 13.6697 20.8813 13.6636 21.056 13.6589C21.5292 13.6413 22.1003 13.6056 22.6128 13.6301C22.6974 13.6339 22.692 13.7012 22.7158 13.7098C22.7529 13.7233 22.7808 13.7033 22.8073 13.6845C22.8221 13.6705 22.8365 13.6571 22.8526 13.6592C23.0377 13.683 23.2467 13.6799 23.466 13.6918C23.6942 13.7037 23.6001 13.9188 23.682 13.9647C23.8426 14.0549 23.6949 13.791 23.7522 13.7263C23.9218 13.7318 24.0952 13.75 24.2672 13.771L24.2562 13.7715C24.2654 13.7726 24.2739 13.7738 24.2831 13.7749C24.2744 13.7811 24.2663 13.7873 24.2574 13.7934L24.2681 13.7929C24.2344 13.8138 24.2014 13.8344 24.1677 13.8542C24.204 13.8551 24.2473 13.8635 24.2718 13.8798C24.2814 13.8939 24.2877 13.9133 24.2657 13.939C24.2649 13.9483 24.2511 13.9588 24.2322 13.9702C24.2473 13.9795 24.2619 13.9897 24.2768 13.9998C24.2827 14.0098 24.2961 14.0194 24.3102 14.028C24.3114 13.9288 24.4386 13.912 24.4484 13.8523C24.4562 13.7928 24.3823 13.8116 24.3831 13.8064C24.3718 13.7332 24.7222 13.8106 24.7462 13.8199C24.8111 13.8393 24.7594 13.9641 24.8128 13.9544C24.9038 13.9382 24.8377 13.6896 24.9677 14.0193C24.9805 13.9884 24.9904 13.9708 24.9994 13.9615C25.0211 13.9381 25.0364 13.9682 25.0802 13.9729C25.0881 13.9737 25.0811 13.9113 25.0845 13.9096C25.1757 13.8619 25.1069 13.9792 25.1072 13.9855C25.1171 14.0923 25.2145 14.0436 25.2348 14.0537C25.4937 14.1791 25.6806 14.2651 25.9504 14.2942C26.0087 14.3003 26.1862 14.2567 26.2426 14.2749C26.2981 14.2928 26.2684 14.3699 26.2976 14.4069C26.3439 14.2214 26.3886 14.2009 26.4933 14.3231C26.5322 14.1878 26.5273 14.2969 26.6019 14.2698C26.664 14.2474 26.7723 14.0851 26.8407 14.2234C26.7623 14.2108 26.7704 14.2773 26.6822 14.3174C26.6528 14.3307 26.3462 14.3336 26.3692 14.4719C26.381 14.544 26.4826 14.4778 26.4866 14.491C26.5094 14.5685 26.4528 14.6637 26.4025 14.6304C26.415 14.6147 26.4302 14.5989 26.4436 14.5832C26.3307 14.4864 26.4086 14.8583 26.3226 14.5333C26.312 14.4935 26.3161 14.4519 26.2986 14.4096C26.295 14.4271 26.3164 14.4705 26.298 14.4783C26.2791 14.4862 26.2434 14.4037 26.2382 14.4732C26.2303 14.5743 26.3082 14.5344 26.314 14.5403C26.314 14.5397 26.3141 14.5391 26.3141 14.5385C26.3659 14.5921 26.2578 14.5983 26.2527 14.6079C26.2194 14.6708 26.2421 14.7193 26.192 14.7714C26.1635 14.801 26.0905 14.7836 26.0636 14.7932C26.037 14.8031 26.0785 14.8508 26.0606 14.8611C26.0428 14.8714 26.0201 14.8351 25.9991 14.8471C25.9902 14.8523 25.9907 14.9056 25.9864 14.9075C25.9395 14.9281 25.97 14.8171 25.9276 14.824C25.8999 14.8285 25.808 14.9321 25.8717 14.9628C25.8411 14.9736 25.8115 14.9815 25.7809 14.99C25.8004 15.0058 25.8199 15.0165 25.8387 15.0351C25.7816 15.0099 25.756 15.1012 25.7201 15.1081C25.6844 15.115 25.6517 15.0056 25.6126 15.0592C25.529 15.1732 25.7369 15.1198 25.7628 15.1401C25.7729 15.148 25.7348 15.2339 25.7286 15.2364C25.7021 15.2472 25.6708 15.186 25.6503 15.1888C25.5774 15.1994 25.5333 15.2805 25.4643 15.2973C25.327 15.3305 25.1705 15.3606 25.0255 15.3851C24.9216 15.4027 24.825 15.4176 24.7447 15.4289C24.6733 15.4389 24.6237 15.3513 24.5877 15.3563C24.5028 15.3685 24.4942 15.4488 24.4108 15.4583C24.3921 15.4605 24.3726 15.4609 24.3517 15.4602L24.3382 15.4608C24.2342 15.454 24.1072 15.4081 24.0272 15.3997C23.9624 15.3929 23.9081 15.4729 23.8917 15.4757C23.6603 15.5164 23.3728 15.5348 23.1598 15.5466C23.0598 15.5522 23.0057 15.4677 22.9846 15.471C22.8912 15.4846 22.9183 15.5577 22.8376 15.5515C22.8326 15.5511 22.8279 15.5498 22.8238 15.5478C22.7978 15.5325 22.7916 15.4769 22.7874 15.4745C22.7457 15.4516 22.7381 15.5441 22.7058 15.5476C22.5193 15.5673 22.338 15.5105 22.1514 15.5064C22.1377 15.5061 22.1379 15.4651 22.1291 15.4675C22.0918 15.4785 22.1112 15.5425 22.0718 15.5483C21.9903 15.5605 21.9057 15.5524 21.8182 15.547C21.8096 15.5464 21.8039 15.4939 21.784 15.4945C21.7642 15.4952 21.7507 15.5455 21.7193 15.5437C21.6375 15.5391 21.5542 15.4821 21.4662 15.4816C21.4519 15.4816 21.4352 15.5456 21.4135 15.5455C21.3443 15.5455 21.2391 15.4908 21.1767 15.4899C21.1434 15.4894 21.1086 15.4901 21.0747 15.4913C20.9227 15.4974 20.7792 15.5252 20.6315 15.529C20.59 15.5299 20.5515 15.4721 20.5297 15.4712C20.4805 15.4694 20.519 15.524 20.4692 15.5255C20.0629 15.5376 19.6405 15.525 19.2174 15.5345C19.1521 15.536 19.0829 15.5459 19.0111 15.5565C18.9007 15.573 18.7877 15.5914 18.6908 15.5822C18.6252 15.5758 18.6117 15.4991 18.5656 15.4987C18.4821 15.4981 18.4677 15.5966 18.3797 15.6067C18.3096 15.6147 18.2286 15.5167 18.1561 15.523C18.0828 15.5292 18.0498 15.6247 17.9661 15.6363C17.8969 15.6458 17.8007 15.6026 17.7257 15.6097C17.1375 15.665 16.5578 15.701 15.9655 15.6588C15.864 15.6516 15.7614 15.6419 15.6588 15.6293C15.4164 15.6003 15.0981 15.5997 14.893 15.4997C14.8728 15.4905 14.9061 15.3987 14.8392 15.4172C14.8369 15.4178 14.8344 15.4188 14.8319 15.42C14.7907 15.4372 14.7336 15.5063 14.6437 15.5088C14.0715 15.5246 13.4779 15.3318 12.9209 15.357C12.8947 15.3581 12.8689 15.3599 12.8427 15.3623C12.2009 15.4207 11.5338 15.7989 10.9318 15.5026C10.7686 15.4226 10.6103 15.2935 10.4577 15.0958C10.4215 15.0487 10.4411 14.8178 10.4628 14.7522C10.4831 14.799 10.5016 14.8547 10.5227 14.9077C10.5494 14.6192 10.5445 14.6943 10.6431 14.7202C10.7038 14.7363 10.6551 14.6129 10.6878 14.5778C10.7299 14.5326 10.9262 14.3901 10.8889 14.5811C10.9008 14.548 10.9119 14.5163 10.9241 14.4838C10.9266 14.4833 10.9292 14.4828 10.9318 14.4823C11.0712 14.4532 11.2079 14.4061 11.3448 14.3524C11.3691 14.3428 11.3699 14.2828 11.395 14.2733C11.4618 14.2472 11.5152 14.2867 11.5839 14.2807C11.6216 14.2775 11.6265 14.2082 11.6758 14.2127C11.7247 14.2173 11.7235 14.3108 11.7906 14.2093C11.7473 14.0918 11.9416 14.1774 12.0108 14.1704C12.0208 14.1695 12.1036 14.0644 12.1473 14.0767C12.1913 14.0887 12.2577 14.1564 12.3259 14.1185C12.3581 14.1007 12.3776 14.0187 12.4123 14.0142C12.4366 14.0111 12.4651 14.0843 12.4959 14.0875C12.5263 14.0908 12.5933 14.0314 12.6057 14.0305C12.6496 14.0269 12.6008 14.0778 12.6307 14.0806C12.703 14.087 12.781 14.0975 12.8591 14.1026C12.9383 14.1077 13.0172 14.1073 13.0898 14.0914C13.1076 14.0875 13.0843 14.0266 13.0867 14.0246C13.2083 13.9528 13.1426 14.0303 13.1739 14.0851C13.2043 14.1379 13.4335 14.1148 13.4378 14.0099C13.4416 14.1416 13.4948 14.0424 13.5081 14.0389C13.5597 14.0253 13.5467 14.1388 13.5972 14.1049C13.6157 14.0926 13.5824 14.0147 13.6019 14.0175C13.65 14.0244 13.6902 14.1491 13.754 14.1632C13.7694 14.1667 13.7759 14.1118 13.8033 14.1144C13.8309 14.117 13.9443 14.1874 13.8942 14.0699C13.9616 14.1648 13.9771 14.1141 14.058 14.1187C14.0786 14.12 14.1027 14.2094 14.1471 14.1829C14.1621 14.1739 14.1637 14.0884 14.1859 14.0882C14.2366 14.0876 14.2825 14.1772 14.3467 14.1821C14.4671 14.1913 14.5958 14.1313 14.7205 14.155C14.7543 14.1615 14.745 14.2475 14.7944 14.2497C14.7985 14.2497 14.8195 14.2262 14.8434 14.207C14.8633 14.1922 14.8848 14.1802 14.9009 14.1836C14.9238 14.1879 15.0373 14.2436 15.0588 14.2489C15.0954 14.257 15.1053 14.1742 15.1243 14.1913C15.1791 14.2405 15.129 14.361 15.2032 14.1963C15.2215 14.29 15.2613 14.2822 15.2696 14.3969C15.2973 14.2725 15.3222 14.3938 15.3682 14.3532C15.4143 14.3126 15.4562 14.071 15.4603 14.3322C15.4817 14.3011 15.5722 14.2489 15.5864 14.2452C15.6311 14.2349 15.6059 14.3066 15.6392 14.2975C15.645 14.296 15.6401 14.2465 15.6775 14.252C15.7027 14.2558 15.883 14.2613 15.8942 14.2681C16.0166 14.3467 15.8271 14.3164 15.7985 14.3693C15.7941 14.3552 15.7896 14.3411 15.7849 14.3271C15.73 14.3031 15.76 14.4151 15.7846 14.4413C15.8084 14.4675 15.8563 14.4184 15.8762 14.4553C15.8864 14.4738 15.8781 14.6074 15.8475 14.5909C15.88 14.6325 15.8345 14.6755 15.847 14.7143C15.8562 14.7429 15.9268 14.759 15.9739 14.7441C15.996 14.7368 16.0127 14.7221 16.0132 14.6978C16.001 14.6966 15.9877 14.6963 15.9744 14.6962C15.9559 14.6959 15.9376 14.6958 15.9216 14.6939C15.9019 14.6212 15.9295 14.4498 15.9776 14.3466C16.0126 14.2676 16.0604 14.2286 16.1042 14.3048C16.1792 14.4318 16.0537 14.5314 16.2323 14.4265C16.2058 14.4212 16.1816 14.4091 16.1572 14.4035C16.1551 14.3075 16.1948 14.4134 16.216 14.3829C16.2263 14.3681 16.1646 14.2996 16.2185 14.2774C16.2629 14.415 16.2993 14.2771 16.3765 14.2758C16.3547 14.3002 16.3332 14.3245 16.3119 14.3489C16.4409 14.4492 16.1393 14.4804 16.3918 14.5375C16.3614 14.5418 16.3305 14.5405 16.3004 14.547C16.3148 14.5975 16.2905 14.7453 16.3034 14.7767C16.3373 14.8589 16.39 14.8097 16.4322 14.8172C16.4509 14.8203 16.4391 14.8602 16.4407 14.8604C16.4662 14.865 16.4613 14.8064 16.4834 14.8027C16.5111 14.7982 16.5929 14.8555 16.6058 14.849C16.64 14.8326 16.5837 14.7168 16.587 14.7082C16.6088 14.6523 16.6533 14.6989 16.6512 14.6257C16.5439 14.6757 16.2366 14.6095 16.5154 14.4898C16.44 14.3711 16.4617 14.2082 16.5726 14.1958C16.6634 14.1854 16.6045 14.2505 16.6519 14.3226C16.6579 14.3316 16.7804 14.3664 16.7864 14.3156C16.7812 14.4325 16.8206 14.5363 16.7936 14.6569C16.7897 14.6746 16.7396 14.6675 16.7568 14.7646C16.7655 14.8134 16.7901 14.9195 16.7859 14.9816C16.7964 14.9385 16.8073 14.8899 16.8179 14.845C16.8938 14.8326 16.9037 14.8791 16.945 14.9596C16.9432 14.926 16.9053 14.7848 16.9632 14.8278C16.9662 14.8304 16.9686 14.8811 16.9978 14.9063C17.0571 14.9568 17.0696 14.9725 17.0236 15.1212C17.1468 15.0365 17.1731 15.2024 17.2994 15.154C17.2745 14.9627 17.2301 15.01 17.1145 15.0467C17.1095 15.0012 17.1073 14.9562 17.1022 14.9102C17.2559 15.0136 17.1797 15.003 17.267 14.9107C17.2882 14.8881 17.4019 14.9124 17.364 14.7835C17.3551 14.7532 17.2846 14.7567 17.2927 14.7089C17.2942 14.6998 17.38 14.6767 17.3876 14.6891C17.4823 14.8414 17.3128 14.9476 17.5742 14.8921C17.5814 14.8905 17.5839 14.8348 17.5979 14.827C17.6244 14.8125 17.6248 14.8771 17.6484 14.8621C17.672 14.8472 17.7047 14.7604 17.7404 14.8406C17.8055 14.9866 17.6522 15.0707 17.5838 14.9933C17.5561 15.1842 18.0445 15.1879 18.0749 15.1714C18.2067 15.0999 17.9869 15.1415 17.9756 15.0886C17.9708 15.0662 17.9728 14.7823 17.9174 14.9666C17.901 15.0212 17.97 15.093 17.9289 15.1232C17.8878 15.1534 17.904 15.0697 17.901 15.0639C17.8908 15.0439 17.8472 15.075 17.8415 15.0631C17.754 14.8834 17.7618 14.6116 17.8778 15.0129C17.9278 14.9221 17.8124 14.7776 17.8747 14.7159C17.9506 14.641 18.0059 14.7703 18.0157 14.7761C18.1304 14.8449 17.9979 14.6562 18.1378 14.7163C18.2158 14.7496 18.0217 14.8423 18.1993 14.8295C18.3483 14.8186 18.2674 14.753 18.2779 14.6034C18.2803 14.5684 18.3612 14.5253 18.2508 14.541C18.2478 14.58 18.2421 14.6313 18.2351 14.6673C18.2075 14.6389 18.1621 14.4441 18.1475 14.4373C18.0765 14.4051 18.0807 14.5062 18.0387 14.3871C18.0687 14.5175 18.0202 14.439 18.002 14.4666C17.935 14.5681 18.0233 14.6057 17.8719 14.4756C17.8916 14.5367 17.9095 14.5966 17.9288 14.6575C17.9106 14.6596 17.8924 14.6618 17.8743 14.6639C17.8472 14.5294 17.7506 14.5467 17.8378 14.411C17.7329 14.3727 17.6904 14.402 17.6676 14.5068C17.6632 14.5268 17.6475 14.5348 17.6289 14.5367C17.6325 14.5662 17.637 14.6571 17.6341 14.6683C17.608 14.7665 17.5674 14.5969 17.5812 14.5322C17.5682 14.5291 17.558 14.5255 17.5543 14.5239C17.5314 14.5139 17.5764 14.4554 17.5578 14.4353C17.5516 14.4288 17.487 14.4415 17.4857 14.4177C17.4779 14.2652 17.5843 14.3753 17.3707 14.2866C17.3655 14.4254 17.4647 14.3949 17.4392 14.5424C17.4118 14.7008 17.3561 14.4883 17.3437 14.6826C17.3392 14.6506 17.3372 14.624 17.3333 14.5876C17.2468 14.6722 17.2457 14.5104 17.2193 14.4746C17.1682 14.4048 16.9325 14.4149 17.1439 14.5554C17.1128 14.5694 17.0814 14.5758 17.0504 14.5881C17.0439 14.298 17.0624 14.4135 16.9141 14.3689C16.8814 14.359 16.8716 14.2314 16.8388 14.3828C16.8433 14.2342 16.7471 14.3237 16.7378 14.3057C16.6804 14.1881 16.8954 14.0254 16.9221 14.2883C16.9587 14.1861 16.9583 14.3214 16.9987 14.3035C17.0572 14.2777 17.0653 14.2514 17.1346 14.3513C17.203 14.2108 16.8673 14.289 17.0712 14.1027C17.2749 13.917 18.4581 13.8116 18.7324 13.7811C18.8283 13.7708 18.915 13.761 18.9953 13.7521C19.3327 13.7142 19.5678 13.6894 19.9276 13.6869C19.9709 13.6866 20.3057 13.6639 20.2406 13.8283C20.2311 13.8519 20.0886 13.9177 20.2158 14.0418C20.1885 13.9672 20.2601 13.9163 20.266 13.9082C20.4021 13.7244 20.3187 13.6823 20.5425 13.675ZM21.2304 15.113C21.1211 15.1019 21.08 15.1081 21.0711 15.1337C21.0678 15.1432 21.0686 15.1552 21.0714 15.1698C21.0819 15.2231 21.1235 15.3106 21.0928 15.4326C21.1331 15.4328 21.1725 15.4328 21.2112 15.4326C21.2006 15.4174 21.1905 15.4023 21.1797 15.3871C21.1797 15.3871 21.1796 15.3871 21.1796 15.3871C21.1971 15.2958 21.2138 15.2044 21.2304 15.113ZM25.9214 15.1191C25.9103 15.1514 25.8992 15.1838 25.8872 15.2154C25.8495 15.2055 25.8117 15.1957 25.7737 15.1858C25.7781 15.1639 25.7825 15.1417 25.7869 15.1198C25.8317 15.1206 25.8763 15.1215 25.9214 15.1191ZM17.5435 15.0288C17.4896 14.939 17.4944 15.0993 17.4228 15.0262C17.4316 15.1445 17.4413 15.2602 17.4505 15.3773C17.5051 15.3598 17.5175 15.3149 17.5768 15.3438C17.5699 15.3057 17.5628 15.2675 17.5561 15.2293C17.5462 15.2374 17.5357 15.2467 17.5262 15.2539C17.511 15.1476 17.6056 15.1317 17.5437 15.0286C17.5436 15.0287 17.5436 15.0287 17.5435 15.0288ZM16.9909 15.0759C16.9621 15.0605 16.8475 15.0023 16.8314 15.0513C16.7779 15.2173 17.1024 15.1126 16.8631 15.2597C16.8641 15.2831 16.863 15.3059 16.8629 15.329C16.9061 15.3372 16.9503 15.3444 16.9938 15.351C16.9917 15.2591 16.9934 15.1683 16.9909 15.0759ZM20.1918 15.1448C20.1472 15.1333 19.9363 15.2171 20.0085 15.3204C20.03 15.3506 20.1207 15.1976 20.157 15.2032C20.1804 15.2068 20.1565 15.29 20.2017 15.2584C20.1987 15.2221 20.1963 15.1818 20.1917 15.1451C20.1918 15.145 20.1918 15.1449 20.1918 15.1448ZM20.2621 14.6626C20.2165 14.6786 20.1705 14.6985 20.1246 14.7154C20.1609 14.8084 20.2258 14.7462 20.2332 14.8783C20.2209 14.8887 20.2087 14.899 20.1963 14.9094C20.1858 14.8807 20.1753 14.8521 20.1651 14.8234C20.1274 14.8963 20.1522 14.9314 20.0778 14.9126C20.1279 15.1113 20.1393 15.2183 20.2604 15.0127C20.2394 15.1218 20.2716 15.4745 20.3347 15.2201C20.3466 15.1729 20.2909 15.143 20.2902 15.1356C20.2792 15.043 20.308 14.983 20.2966 14.8956C20.2914 14.856 20.2581 14.8575 20.2515 14.8026C20.2485 14.7758 20.2782 14.6984 20.2621 14.6626ZM20.3663 15.1307C20.3536 15.1873 20.4056 15.3194 20.4468 15.2912C20.5111 15.2476 20.4047 15.1234 20.3663 15.1307ZM25.9217 15.1189C25.9216 15.119 25.9215 15.119 25.9214 15.1191C25.9215 15.1189 25.9215 15.1188 25.9216 15.1187C25.9216 15.1188 25.9216 15.1188 25.9217 15.1189ZM17.1404 15.1413C17.106 15.189 17.0557 15.182 17.0593 15.258C17.0426 15.243 17.0257 15.2283 17.0091 15.2133C17.0093 15.2362 17.0095 15.2591 17.0096 15.2817C17.0599 15.296 17.1094 15.3104 17.1597 15.3249C17.1534 15.2637 17.1477 15.2024 17.1404 15.1413ZM16.5955 15.0867C16.5332 15.0787 16.5851 15.1823 16.5712 15.2322C16.5572 15.2821 16.5009 15.2412 16.5073 15.3129C16.5444 15.3158 16.5831 15.3188 16.6206 15.3215C16.6109 15.2435 16.6043 15.1642 16.5954 15.0867C16.5955 15.0867 16.5955 15.0867 16.5955 15.0867ZM22.4044 15.1612C22.3616 15.1396 22.3775 15.0603 22.2962 15.1545C22.2963 15.1545 22.2964 15.1545 22.2964 15.1545C22.3769 15.2173 22.4791 15.2729 22.5649 15.2091C22.5105 15.1267 22.4708 15.1948 22.4044 15.1612ZM17.6927 15.2615C17.7106 15.199 17.6268 15.1469 17.6083 15.2049C17.5784 15.299 17.6654 15.3565 17.6927 15.2615ZM24.1102 14.5328C24.1659 14.3375 24.0314 14.1275 23.9065 14.2279C23.8959 14.2366 23.9826 14.2932 23.9599 14.3321C23.9577 14.3359 23.9116 14.3338 23.9018 14.3612C23.892 14.3886 23.9073 14.4501 23.8904 14.4772C23.8604 14.5246 23.7825 14.4444 23.7617 14.5057C23.759 14.5139 23.8092 14.5944 23.8122 14.5974C23.8617 14.6449 23.9003 14.5337 23.9074 14.5326C23.9442 14.5268 23.9435 14.6124 23.9538 14.6319C23.9733 14.6686 24.0025 14.6293 24.0048 14.632C24.0645 14.7038 23.9359 14.6891 23.9201 14.7209C23.8786 14.8065 23.9254 14.8811 23.8173 14.9343C23.8071 14.9393 23.6807 14.9418 23.8451 15.0278C23.5458 15.2452 24.0078 15.1315 24.0555 15.0858C24.0777 15.0642 24.0382 14.9848 24.0505 14.9475C24.0788 14.8622 24.1331 14.8447 24.1226 14.7271C24.0994 14.4797 24.0343 14.6458 23.9816 14.6068C23.984 14.5527 23.9833 14.5001 23.9904 14.4469C23.9791 14.5185 24.106 14.5475 24.1102 14.5333C24.1102 14.5332 24.1102 14.533 24.1102 14.5328ZM23.3298 14.8629C23.254 14.7924 23.2684 14.9485 23.1974 14.8628C23.1469 15.0065 23.2615 14.9907 23.2752 14.9977C23.338 15.0295 23.3462 15.1823 23.4052 15.1314C23.3784 15.0424 23.3553 14.9522 23.3298 14.8629ZM23.9472 14.89C23.9047 14.9718 23.9885 14.9658 23.9926 14.9808C24.0383 15.1393 23.7864 15.1221 23.9472 14.89ZM19.907 14.8371C19.8827 14.8324 19.9 14.9079 19.8792 14.9309C19.8585 14.954 19.7837 14.8908 19.7868 14.938C19.7895 14.9854 19.927 15.1049 19.7929 15.1347C19.7981 15.1612 19.797 15.1811 19.7998 15.205C19.837 15.2048 19.8741 15.2051 19.9113 15.2048C19.8891 15.1288 19.8661 15.0489 19.845 14.9755C19.8641 14.9141 19.8777 14.9919 19.8788 14.9918C19.8788 14.9917 19.8788 14.9917 19.8788 14.9916C19.9175 14.9845 19.9611 14.8477 19.907 14.8371ZM21.8109 15.0287C21.8123 14.8385 21.762 15.0525 21.7399 15.0768C21.7171 15.101 21.6832 15.0317 21.6978 15.1131C21.7371 15.1683 21.811 15.05 21.8109 15.0285C21.8109 15.0286 21.8109 15.0287 21.8109 15.0287ZM22.9368 14.8829C22.8789 14.9285 22.8857 14.9754 22.8183 14.9318C22.8152 14.9296 22.812 14.9272 22.8086 14.9246C22.8118 14.9705 22.815 15.0175 22.8182 15.0627C22.8186 15.0627 22.819 15.0627 22.8195 15.0627C22.882 15.0609 22.8748 14.93 22.9465 14.9811C22.9583 14.9896 22.9372 15.097 22.9884 15.0609C22.9711 15.0046 22.9535 14.9421 22.9368 14.8829ZM22.64 15.0578C22.7073 15.0499 22.7566 14.6773 22.6338 14.8467C22.6156 14.872 22.5895 15.0639 22.64 15.0578ZM20.5356 14.8111C20.4196 14.8032 20.5526 14.8599 20.5839 14.9164C20.3161 14.9687 20.6142 14.8999 20.645 15.0895C20.6763 15.0346 20.7353 14.9096 20.6663 14.8779C20.6375 14.8648 20.6492 14.9211 20.6474 14.9209C20.5946 14.9081 20.5989 14.8154 20.5356 14.8111ZM23.4528 14.846C23.4486 14.8491 23.4595 14.9128 23.4463 14.9264C23.433 14.94 23.3988 14.8972 23.398 14.9367C23.3974 14.9765 23.463 15.0032 23.4803 14.9731C23.4979 14.9428 23.4906 14.8189 23.4528 14.846ZM22.9955 14.713C22.9379 14.7614 23.0448 14.994 23.0582 14.9922C23.172 14.9745 22.9943 14.7882 22.9955 14.713ZM20.7967 14.4036C20.6583 14.5265 20.7658 14.7331 20.8548 14.8567C20.8658 14.8311 20.8774 14.8054 20.8883 14.7801C20.8382 14.9354 20.7498 15.0894 20.9507 14.9516C20.8389 14.9169 20.9313 14.8741 20.9321 14.8653C20.9402 14.5814 20.7764 14.7159 20.7969 14.4036C20.7968 14.4036 20.7968 14.4036 20.7967 14.4036ZM23.645 14.9017C23.7054 14.897 23.8595 14.8387 23.7788 14.7197C23.7342 14.7803 23.6894 14.841 23.645 14.9017ZM18.5105 14.4617C18.4607 14.3912 18.4142 14.3926 18.3536 14.3975C18.4089 14.5002 18.3729 14.5121 18.3544 14.5374C18.3263 14.5754 18.3946 14.572 18.3947 14.579C18.394 14.6767 18.3498 14.6921 18.4498 14.6894C18.4254 14.7235 18.4008 14.7579 18.3767 14.7918C18.4526 14.796 18.4703 14.8597 18.5191 14.9373C18.471 14.7472 18.5341 14.8661 18.5886 14.7711C18.6161 14.7236 18.5363 14.4977 18.5103 14.4617C18.5104 14.4617 18.5104 14.4617 18.5105 14.4617ZM20.6504 14.3684C20.6368 14.403 20.6245 14.4496 20.6114 14.4891C20.5963 14.4932 20.5812 14.4968 20.566 14.5009C20.5634 14.4707 20.5611 14.439 20.5582 14.4099C20.5379 14.4016 20.5467 14.4436 20.5408 14.4477C20.5408 14.4475 20.5408 14.4474 20.5408 14.4472C20.4567 14.5052 20.4217 14.4999 20.3523 14.4079C20.3547 14.5008 20.3572 14.5936 20.3597 14.6865C20.3745 14.6773 20.3894 14.6682 20.4042 14.6592C20.4108 14.6091 20.4175 14.559 20.4242 14.5088C20.4424 14.5359 20.4603 14.5628 20.4783 14.5899C20.4918 14.5716 20.5081 14.5523 20.5197 14.5345C20.5954 14.7924 20.4336 14.6199 20.4349 14.7278C20.4358 14.797 20.594 14.7901 20.6156 14.7418C20.6188 14.7347 20.58 14.5422 20.6404 14.6416C20.6499 14.6573 20.662 15.0753 20.7172 14.7354C20.7251 14.6872 20.6887 14.428 20.6504 14.3684ZM20.0695 14.2484C20.1657 14.5135 19.8299 14.2394 19.9772 14.4558C19.9402 14.5797 19.9475 14.5779 19.9911 14.686C19.9949 14.6957 19.9677 14.7302 19.9702 14.7344C20.01 14.7936 20.0551 14.7604 20.0584 14.8698C20.0686 14.8637 20.0782 14.8582 20.0884 14.8521C20.0426 14.7502 20.1089 14.6791 20.1331 14.5914C20.1441 14.5517 20.1161 14.5403 20.1253 14.5055C20.1287 14.4928 20.1679 14.5169 20.1686 14.4808C20.1695 14.3991 20.1425 14.2894 20.0996 14.2304C20.0996 14.2303 20.0996 14.2302 20.0996 14.2301C20.0894 14.2358 20.0797 14.2425 20.0695 14.2484ZM21.9808 14.423C22.0005 14.5705 22.0622 14.611 21.9476 14.6867C21.9543 14.7156 21.961 14.7443 21.9676 14.7733C21.987 14.7702 22.0063 14.7671 22.026 14.7642C22.0743 14.3269 22.197 14.8157 22.1186 14.5085C22.11 14.4751 22.0642 14.5139 22.108 14.4215C22.108 14.4214 22.1079 14.4213 22.1078 14.4213C22.0441 14.451 22.0374 14.5036 21.9808 14.423ZM21.5522 14.5396C21.4138 14.8554 21.7631 14.7065 21.7013 14.6259C21.696 14.6186 21.5456 14.6903 21.5522 14.5396ZM22.744 14.2398C22.6763 14.2352 22.6744 14.4032 22.6818 14.4635C22.6892 14.5241 22.7348 14.4623 22.741 14.4718C22.7607 14.503 22.7198 14.5243 22.7455 14.5672C22.7499 14.5744 22.7832 14.5937 22.8155 14.6096C22.8449 14.6243 22.8737 14.6357 22.8762 14.6322C22.9047 14.5914 22.8588 14.4538 22.8669 14.4378C22.8922 14.3853 22.9305 14.4562 22.936 14.3823C22.9473 14.2247 22.8858 14.3917 22.8744 14.3945C22.8403 14.4027 22.8418 14.3141 22.817 14.2967C22.8155 14.2956 22.8141 14.2948 22.8127 14.294C22.7882 14.2827 22.7716 14.3094 22.7494 14.3037C22.7416 14.3017 22.7474 14.2403 22.744 14.2398ZM22.5274 14.5974C22.5951 14.4691 22.4225 14.3338 22.4027 14.364C22.3454 14.4536 22.495 14.6585 22.5274 14.5974ZM20.3036 14.646C20.3649 14.5522 20.2144 14.4816 20.1731 14.5199C20.1821 14.5579 20.2826 14.6783 20.3036 14.646ZM20.8358 14.4034C20.7776 14.4332 20.8591 14.6393 20.9077 14.6353C20.9344 14.4985 20.9077 14.5259 20.8757 14.5208C20.8435 14.5157 20.8814 14.3803 20.8358 14.4034ZM23.4564 14.3599C23.4438 14.3585 23.248 14.4837 23.3673 14.5232C23.3766 14.5262 23.5172 14.4974 23.5269 14.4758C23.5459 14.432 23.4892 14.3639 23.4564 14.3599ZM21.1133 14.1981C21.0859 14.3166 21.0557 14.3153 21.0852 14.4535C21.0852 14.4535 21.0853 14.4535 21.0853 14.4535C21.0775 14.458 21.0704 14.459 21.0642 14.4572C21.006 14.4417 20.9992 14.214 20.9837 14.2197C20.9241 14.2417 20.9833 14.4427 20.947 14.5095C21.0282 14.4495 21.0117 14.5681 21.0655 14.588C21.0685 14.5891 21.0717 14.5899 21.0753 14.5904C21.0901 14.5921 21.1471 14.5099 21.1544 14.4591C21.1617 14.4083 21.1297 14.2571 21.1133 14.1981ZM23.7423 14.3127C23.6704 14.2717 23.6197 14.4665 23.7165 14.4909C23.7636 14.503 23.7862 14.3376 23.7423 14.3127ZM16.8933 14.4024C16.9036 14.4526 16.9143 14.5025 16.9254 14.5522C16.9 14.5643 16.8749 14.5766 16.8494 14.5889C16.8696 14.5731 16.8894 14.5575 16.9097 14.542C16.8622 14.5243 16.841 14.4331 16.8931 14.4024C16.8932 14.4024 16.8932 14.4024 16.8933 14.4024ZM15.2121 14.3432C15.1931 14.2941 15.1455 14.4418 15.1504 14.4537C15.1867 14.5422 15.2385 14.4112 15.2121 14.3432ZM20.1972 14.1945C20.1175 14.1758 20.1786 14.4173 20.2275 14.4327C20.1966 14.387 20.2423 14.2052 20.1972 14.1945ZM15.7985 14.3693C15.8052 14.3903 15.8121 14.4113 15.8198 14.4324C15.7951 14.403 15.7914 14.3834 15.7985 14.3693ZM23.4107 14.1476C23.3971 14.1298 23.3081 14.1199 23.2974 14.1437C23.2755 14.1936 23.3528 14.3234 23.3911 14.2796C23.3953 14.2749 23.4238 14.1655 23.4105 14.1476C23.4106 14.1476 23.4106 14.1476 23.4107 14.1476ZM16.7866 14.309C16.7868 14.3113 16.7867 14.3135 16.7864 14.3156C16.7865 14.3134 16.7865 14.3111 16.7866 14.309ZM13.4374 13.9987C13.4378 14.0025 13.438 14.0063 13.4378 14.0099C13.4377 14.0063 13.4374 14.0026 13.4374 13.9987ZM22.8027 13.9698C22.77 13.7384 22.7017 13.8624 22.7578 13.9763C22.7609 13.9823 22.7953 13.9694 22.8027 13.9698Z" fill="#E8E8E8"/>
<path d="M30.0047 16.1159C29.8576 16.2285 29.7111 16.3307 29.5738 16.4234C29.4489 16.5068 29.2688 16.6298 29.2951 16.6128C29.1411 16.7497 28.8971 16.9263 28.7158 17.0262C28.6565 17.0598 28.6238 17.0007 28.6031 17.0037C28.5473 17.0111 28.5648 17.0941 28.5307 17.1091C28.4849 17.1293 28.4423 17.1486 28.3991 17.1689C28.2941 17.2165 28.1932 17.2671 28.0849 17.3138C27.9316 17.3801 27.8854 17.1622 27.8098 17.1499C27.6614 17.1262 27.8881 17.3047 27.8837 17.3799C27.7662 17.4353 27.6411 17.4802 27.5164 17.5246C27.5292 17.4863 27.5423 17.4483 27.5564 17.4113C27.506 17.4369 27.4155 17.445 27.4565 17.3342C27.4284 17.329 27.3997 17.3202 27.3713 17.3156C27.4198 17.4023 27.3403 17.4628 27.3645 17.5171C27.3887 17.5715 27.4284 17.5299 27.4309 17.5344C27.4673 17.598 27.2204 17.6379 27.2023 17.64C27.1537 17.6456 27.1191 17.5216 27.0922 17.5484C27.0458 17.5946 27.2179 17.781 26.9642 17.5494C26.9945 17.6585 26.9609 17.6135 26.9207 17.6307C26.9154 17.6331 26.9533 17.683 26.9521 17.6858C26.9222 17.7607 26.901 17.6357 26.8973 17.6306C26.8338 17.5442 26.8005 17.6228 26.7827 17.6223C26.6977 17.6205 26.6218 17.62 26.5508 17.6246L26.5593 17.6187C26.4416 17.6304 26.3382 17.6551 26.2308 17.7138C26.1928 17.7345 26.1223 17.8461 26.0823 17.857C26.0417 17.8681 26.0072 17.7961 25.967 17.782C26.0643 17.944 26.062 17.9716 25.9308 17.9328C26.0169 18.0396 25.9365 17.9644 25.9355 18.0108C25.9356 18.0165 25.9383 18.0248 25.9423 18.0345C25.9554 18.0991 26.001 18.206 25.8802 18.1768C25.9229 18.1355 25.8642 18.1037 25.8671 18.0271C25.8673 18.0218 25.8726 18.0096 25.88 17.993C25.8924 17.9456 25.9669 17.8415 25.8852 17.7683C25.8289 17.7214 25.821 17.8227 25.8104 17.8156C25.7408 17.7768 25.7035 17.6763 25.7577 17.6707C25.761 17.6893 25.7635 17.709 25.767 17.7277C25.8967 17.7364 25.6008 17.505 25.8695 17.6995C25.9022 17.7238 25.9273 17.757 25.9647 17.7805C25.9551 17.7656 25.9147 17.7433 25.9197 17.7286C25.9253 17.7132 25.9985 17.759 25.9563 17.7037C25.8958 17.6224 25.8765 17.6916 25.8698 17.6899C25.8702 17.6904 25.8705 17.6909 25.8709 17.6914C25.8052 17.678 25.8636 17.6179 25.8609 17.6081C25.8396 17.5436 25.795 17.5177 25.7923 17.4522C25.7911 17.4146 25.8478 17.3913 25.858 17.3713C25.8687 17.3504 25.813 17.3334 25.8179 17.3164C25.8234 17.2991 25.8588 17.3175 25.8651 17.2975C25.8674 17.2891 25.8345 17.2472 25.8361 17.2436C25.8527 17.2049 25.9017 17.3071 25.9234 17.282C25.9378 17.2653 25.9331 17.1396 25.8747 17.1449C25.8877 17.1217 25.9012 17.1018 25.9158 17.0806C25.894 17.077 25.8752 17.0776 25.8524 17.0713C25.9033 17.065 25.8653 16.9797 25.8845 16.9572C25.9028 16.9353 25.9881 17.0087 25.9811 16.9478C25.9677 16.8173 25.8673 16.9548 25.8382 16.9514C25.827 16.9497 25.8007 16.8626 25.8033 16.8576C25.8142 16.8363 25.8698 16.8716 25.8816 16.8597C25.9119 16.8281 25.9083 16.7709 25.9207 16.725L25.942 16.7103C25.9459 16.6963 25.9514 16.6834 25.9601 16.673C26.081 16.526 26.2424 16.3675 26.3748 16.2609C26.4241 16.2213 26.5052 16.2774 26.5275 16.26C26.5796 16.2192 26.5436 16.1481 26.5897 16.1135C26.6582 16.0618 26.797 16.0553 26.8651 16.0296C26.9121 16.0118 26.9086 15.923 26.9185 15.9145C27.0543 15.7954 27.2391 15.6806 27.3645 15.6008C27.3788 15.5917 27.3935 15.588 27.4079 15.5876C27.4528 15.5871 27.496 15.6187 27.5038 15.6115C27.546 15.5719 27.4933 15.5181 27.5357 15.4996C27.5582 15.4898 27.6007 15.5466 27.605 15.5471C27.6418 15.5509 27.5961 15.4704 27.6127 15.4558C27.7085 15.3716 27.8364 15.3562 27.924 15.2989C27.9303 15.2948 27.9553 15.3273 27.9579 15.3226C27.9684 15.3014 27.9203 15.2573 27.9345 15.2398C27.9606 15.2072 27.9989 15.1843 28.052 15.149C28.0652 15.139 28.0779 15.1297 28.0903 15.1209C28.1017 15.1129 28.1392 15.1502 28.1598 15.1345C28.1808 15.1186 28.1656 15.0678 28.1962 15.0495C28.2736 15.0038 28.3621 15.018 28.4217 14.9834C28.4313 14.9778 28.4087 14.9169 28.4232 14.9084C28.4679 14.8823 28.5593 14.8923 28.5943 14.8721C28.7096 14.8054 28.7826 14.7125 28.8679 14.6489C28.8879 14.6342 28.9407 14.6678 28.9518 14.661C28.9764 14.6458 28.9254 14.6151 28.9475 14.5975C29.0883 14.4877 29.2044 14.3792 29.2271 14.3406C29.2094 14.3761 29.1768 14.4363 29.1607 14.5569C29.1421 14.6739 29.1722 14.8637 29.246 14.9864C29.2439 14.9829 29.242 14.9796 29.2402 14.9764C29.1919 14.8925 29.1022 14.8633 29.0634 14.7876C29.0482 14.7572 29.1036 14.7038 29.0878 14.6835C29.0589 14.6476 28.979 14.7057 28.9399 14.6768C28.9089 14.6538 28.949 14.553 28.9141 14.5262C28.879 14.4994 28.7984 14.5538 28.755 14.5281C28.734 14.5157 28.7212 14.4859 28.7055 14.458C28.6881 14.4328 28.6704 14.4088 28.6499 14.3935C28.2057 14.0594 27.8382 13.7314 27.5324 13.3079C27.5306 13.3053 27.5287 13.3027 27.5268 13.3001C27.4199 13.15 27.2705 13.0123 27.2099 12.8108C27.2042 12.7918 27.2899 12.7485 27.237 12.7204C27.2085 12.7054 27.1215 12.7287 27.0705 12.6799C26.7955 12.4169 26.624 12.0252 26.3668 11.7417C26.3399 11.7121 26.3126 11.6842 26.2837 11.6571C25.831 11.2376 24.8595 11.1278 25.2828 10.1885C25.3867 10.2052 25.437 9.95771 25.5016 9.92353C25.4775 9.96458 25.4466 10.012 25.4189 10.0589C25.6317 9.86359 25.5791 9.91641 25.6097 9.98528C25.6281 10.0277 25.693 9.91708 25.7351 9.91054C25.7895 9.90155 25.9942 9.91252 25.8345 10.0215C25.8649 10.0055 25.8939 9.99012 25.9238 9.97475C26.017 10.033 26.1216 10.0767 26.232 10.1167C26.2509 10.1232 26.2958 10.0835 26.3153 10.0907C26.3683 10.1102 26.3657 10.1659 26.404 10.1992C26.425 10.2175 26.4793 10.1742 26.5001 10.2037C26.521 10.2335 26.4516 10.2962 26.5598 10.2642C26.6251 10.1615 26.6587 10.3254 26.6981 10.3582C26.7037 10.363 26.8227 10.3373 26.8353 10.3693C26.8486 10.4017 26.8311 10.4827 26.8933 10.4944C26.9223 10.4996 26.9926 10.455 27.0132 10.4707C27.0277 10.4819 26.9878 10.5464 27.0007 10.5652C27.0135 10.5839 27.0908 10.5798 27.0974 10.5856C27.1219 10.6067 27.0601 10.615 27.073 10.633C27.1358 10.7195 27.1987 10.8295 27.2948 10.8836C27.3066 10.8903 27.3392 10.8363 27.3418 10.8363C27.3473 10.837 27.3523 10.8377 27.3569 10.8384C27.4473 10.853 27.365 10.8723 27.342 10.9236C27.3189 10.9759 27.4531 11.0808 27.5313 11.0106C27.4377 11.1032 27.5369 11.0627 27.5463 11.0673C27.5827 11.0851 27.4935 11.1562 27.5442 11.1595C27.5626 11.1606 27.602 11.0897 27.6099 11.1017C27.6296 11.1315 27.56 11.2386 27.5828 11.2817C27.5882 11.2922 27.6313 11.2577 27.6437 11.274C27.6558 11.29 27.6638 11.3982 27.7228 11.2908C27.6891 11.3918 27.7338 11.3648 27.7724 11.4105C27.7821 11.4222 27.7301 11.4968 27.7722 11.5018C27.7865 11.5035 27.8492 11.4453 27.8608 11.4568C27.8875 11.483 27.8465 11.5691 27.8766 11.6066C27.9322 11.6766 28.0424 11.7036 28.0897 11.7865C28.1024 11.809 28.0355 11.8634 28.0594 11.8913C28.0629 11.8951 28.1478 11.8769 28.1599 11.8999C28.1672 11.9139 28.1834 12.0074 28.1914 12.022C28.2048 12.046 28.2683 11.9921 28.2664 12.0139C28.261 12.0764 28.1492 12.1363 28.3054 12.0577C28.2492 12.1335 28.2763 12.1486 28.1999 12.2341C28.3025 12.1604 28.2303 12.2592 28.2839 12.2546C28.3372 12.2498 28.5318 12.1023 28.3482 12.2881C28.382 12.2777 28.4666 12.288 28.4774 12.2935C28.508 12.3094 28.4437 12.3466 28.4679 12.3578C28.4721 12.3599 28.5046 12.3224 28.5205 12.3462C28.5219 12.3482 28.5246 12.3516 28.5283 12.3561C28.553 12.3861 28.6221 12.4626 28.6227 12.4717C28.6306 12.5915 28.5527 12.4696 28.5004 12.4921C28.5081 12.4799 28.5158 12.4676 28.5233 12.4553C28.512 12.4099 28.4474 12.5037 28.4415 12.5349C28.4355 12.5662 28.4953 12.5567 28.4795 12.5931C28.4715 12.6113 28.3717 12.7005 28.3673 12.6726C28.3548 12.719 28.2999 12.7247 28.2788 12.7586C28.2556 12.7958 28.3236 12.8854 28.3771 12.8346C28.3645 12.8179 28.3447 12.8009 28.3322 12.7836C28.4057 12.6752 28.7786 12.4321 28.7056 12.608C28.6531 12.7357 28.5173 12.7399 28.6848 12.7604C28.6745 12.7424 28.6712 12.7218 28.6623 12.7049C28.73 12.6367 28.6748 12.7315 28.7074 12.7212C28.7232 12.7161 28.7406 12.6363 28.7842 12.6488C28.709 12.7686 28.8264 12.6912 28.867 12.7306C28.8385 12.7365 28.81 12.7421 28.7814 12.7478C28.7768 12.8861 28.5978 12.7489 28.688 12.9218C28.6692 12.9088 28.6543 12.8919 28.6338 12.8803C28.6052 12.9233 28.4868 13.0137 28.4712 13.0425C28.4304 13.1183 28.4925 13.1112 28.5094 13.1389C28.5168 13.1509 28.4822 13.1726 28.4829 13.1736C28.4929 13.1903 28.5319 13.1464 28.5462 13.1557C28.5641 13.1674 28.5656 13.2504 28.577 13.2528C28.6065 13.2592 28.6597 13.1484 28.6676 13.1441C28.7187 13.1164 28.7087 13.1724 28.7597 13.1199C28.6682 13.0986 28.5561 12.8906 28.7862 12.9534C28.8313 12.8302 28.9597 12.7283 29.0253 12.7771C29.0796 12.8173 29.0028 12.8322 28.9759 12.9075C28.9726 12.917 29.0109 13.005 29.0505 12.9727C28.9646 13.0522 28.9114 13.1459 28.8116 13.2166C28.797 13.227 28.7758 13.1955 28.7158 13.2729C28.6855 13.3116 28.6232 13.3995 28.5768 13.4409C28.613 13.4161 28.6532 13.3877 28.6907 13.3616C28.739 13.3927 28.7114 13.4308 28.6759 13.5094C28.6987 13.4847 28.7792 13.3653 28.7788 13.4259C28.7785 13.4293 28.7438 13.4662 28.7415 13.4996C28.7369 13.5663 28.7324 13.584 28.603 13.6649C28.728 13.6701 28.6251 13.8017 28.7268 13.8342C28.848 13.685 28.791 13.6954 28.7037 13.6603C28.7332 13.6254 28.7638 13.5924 28.7936 13.5572C28.8018 13.711 28.7694 13.6639 28.8806 13.6441C28.9076 13.6391 28.9512 13.7159 29.0212 13.6042C29.0379 13.5781 28.998 13.5436 29.036 13.5139C29.0431 13.5083 29.1045 13.5362 29.0999 13.549C29.0436 13.7069 28.8787 13.6949 29.0581 13.7915C29.0632 13.7941 29.1029 13.755 29.116 13.7569C29.1405 13.7603 29.0959 13.8068 29.1191 13.8084C29.1425 13.81 29.2198 13.7637 29.1843 13.8403C29.1215 13.9815 28.9768 13.9614 28.9932 13.8694C28.9163 13.9337 28.9509 14.0354 29.0131 14.1214C29.0581 14.1889 29.1154 14.2409 29.1278 14.2424C29.2397 14.2533 29.1081 14.1803 29.1383 14.1367C29.1515 14.1184 29.3486 13.9139 29.1935 14.0208C29.148 14.053 29.1326 14.1374 29.0918 14.1402C29.051 14.1431 29.116 14.0896 29.1186 14.084C29.1272 14.0646 29.0843 14.0671 29.0894 14.0557C29.095 14.0432 29.1011 14.0306 29.1076 14.018C29.1711 13.8862 29.2795 13.7684 29.2222 13.8925C29.2076 13.9238 29.1822 13.9705 29.1418 14.0359C29.2296 13.9935 29.2676 13.8315 29.3425 13.8169C29.4349 13.8006 29.3751 13.923 29.3757 13.9317C29.3866 14.0391 29.4508 13.8367 29.4811 13.9522C29.4966 14.0159 29.333 13.981 29.4311 14.0633C29.512 14.1328 29.5204 14.0466 29.6347 13.9497C29.6613 13.9268 29.7357 13.9435 29.6661 13.8918C29.6361 13.9169 29.5958 13.9489 29.5661 13.9699C29.5734 13.9362 29.6883 13.7748 29.6852 13.7619C29.6686 13.6991 29.6001 13.7739 29.6598 13.6655C29.5854 13.7751 29.6133 13.6924 29.584 13.7025C29.4755 13.7392 29.5004 13.8143 29.5046 13.6394C29.474 13.6945 29.4431 13.7476 29.4117 13.8017C29.4004 13.7939 29.3889 13.7861 29.3777 13.7786C29.4092 13.7327 29.4166 13.6992 29.4239 13.6718C29.4343 13.6376 29.445 13.6137 29.5041 13.5841C29.5115 13.5807 29.5198 13.5774 29.5289 13.574C29.5272 13.57 29.5255 13.5661 29.5238 13.5625C29.4965 13.4961 29.454 13.4987 29.3743 13.5606C29.3583 13.5731 29.3441 13.5706 29.3333 13.5629C29.3148 13.586 29.2543 13.6541 29.2451 13.6607C29.1635 13.7185 29.259 13.5751 29.3113 13.5356C29.3067 13.5269 29.3038 13.5191 29.303 13.5161C29.2978 13.4972 29.3621 13.4779 29.3663 13.454C29.3674 13.4461 29.3251 13.4229 29.3409 13.405C29.4434 13.2918 29.4212 13.4242 29.3729 13.253C29.273 13.3495 29.3459 13.3782 29.2297 13.4707C29.1045 13.5699 29.2239 13.3893 29.0814 13.5217C29.1014 13.4966 29.119 13.4766 29.1425 13.4486C29.0377 13.4642 29.1508 13.3482 29.1624 13.3095C29.1849 13.2337 29.0552 13.1185 29.0661 13.3278C29.0399 13.3214 29.0191 13.3098 28.9941 13.3022C29.1959 13.0936 29.124 13.1852 29.0787 13.0766C29.0688 13.0527 29.1542 12.9576 29.0297 13.0473C29.1378 12.9451 29.0241 12.9577 29.0324 12.9404C29.0865 12.8281 29.3126 12.8249 29.14 13.024C29.2314 12.9709 29.135 13.0658 29.1688 13.0744C29.2172 13.0863 29.24 13.0719 29.2053 13.1783C29.3397 13.114 29.1115 12.9967 29.3482 12.9697C29.4589 12.9547 29.6778 13.0765 29.8705 13.183C30.1463 13.3524 30.4173 13.6112 30.5148 13.7207C30.6386 13.8512 30.7516 14.0035 30.8187 14.0995C30.9426 14.3001 30.9897 14.5873 30.962 14.7852C30.9375 14.9878 30.8778 15.1187 30.8275 15.2179C30.7309 15.4107 30.6135 15.5667 30.4707 15.7127C30.4352 15.7563 30.1879 15.9966 30.1354 15.8244C30.1285 15.8001 30.1881 15.6639 30.0174 15.6451C30.0848 15.6863 30.0657 15.7678 30.0663 15.7775C30.0818 15.9986 30.1659 15.9896 30.0047 16.1159ZM28.7624 15.2106C28.9552 15.13 28.7694 15.1208 28.6707 14.8923C28.649 14.9056 28.6276 14.9187 28.6051 14.9324C28.6192 14.9416 28.6333 14.9508 28.6473 14.9601C28.6473 14.96 28.6474 14.96 28.6474 14.96C28.6861 15.0433 28.7242 15.127 28.7624 15.2106ZM25.749 17.044C25.7365 17.0128 25.7246 16.9812 25.7131 16.9503C25.7436 16.9398 25.7737 16.9297 25.8042 16.9196C25.8145 16.9392 25.8248 16.9592 25.8349 16.979C25.8056 16.9996 25.7769 17.0198 25.749 17.044ZM28.9465 13.8738C28.9798 13.781 28.8708 13.8986 28.8828 13.8083C28.8049 13.8976 28.7295 13.9856 28.6528 14.0744C28.6951 14.0911 28.7332 14.0654 28.7465 14.1184C28.769 14.0873 28.7916 14.0559 28.8144 14.0248C28.8032 14.0254 28.7907 14.0262 28.7806 14.0264C28.846 13.9418 28.9094 13.9809 28.9468 13.8737C28.9467 13.8737 28.9466 13.8738 28.9465 13.8738ZM28.6177 13.6157C28.6133 13.5894 28.5943 13.4879 28.5511 13.5139C28.4049 13.6024 28.6508 13.7009 28.4198 13.6775C28.4038 13.6945 28.387 13.7099 28.3706 13.7261C28.3877 13.7551 28.4058 13.7833 28.4245 13.8114C28.4884 13.7454 28.5536 13.6822 28.6177 13.6157ZM29.3154 14.7947C29.3468 14.7851 29.375 14.6459 29.2726 14.5997C29.2446 14.5846 29.3136 14.7276 29.2926 14.7379C29.2798 14.7439 29.2352 14.6729 29.2363 14.7129C29.2615 14.7391 29.289 14.7686 29.3153 14.7945C29.3154 14.7946 29.3154 14.7946 29.3154 14.7947ZM29.591 15.1918C29.6073 15.1584 29.6204 15.1216 29.6342 15.0873C29.5526 15.0351 29.5581 15.1111 29.4686 15.0135C29.4685 15.0003 29.4682 14.9872 29.4678 14.9741C29.4919 14.9912 29.5162 15.0083 29.5406 15.0252C29.5121 14.9537 29.4757 14.9392 29.5255 14.9204C29.3644 14.7975 29.2949 14.7171 29.368 14.9221C29.3076 14.8308 29.0673 14.5718 29.1995 14.7907C29.2234 14.8319 29.2694 14.8341 29.2746 14.8394C29.3391 14.9063 29.3625 14.9642 29.4238 15.0272C29.4516 15.0557 29.4687 15.0402 29.5075 15.0794C29.5265 15.0985 29.5591 15.1716 29.591 15.1918ZM29.2398 14.8722C29.2106 14.8234 29.1036 14.7389 29.1008 14.7755C29.0951 14.8336 29.2246 14.8932 29.2398 14.8722ZM25.7489 17.0442C25.7489 17.0441 25.7489 17.044 25.749 17.044C25.749 17.0441 25.7491 17.0442 25.7491 17.0443C25.749 17.0443 25.749 17.0442 25.7489 17.0442ZM28.6508 13.741C28.5987 13.7565 28.577 13.7249 28.5251 13.7805C28.5267 13.7609 28.5284 13.7418 28.5301 13.7224C28.514 13.7386 28.498 13.7549 28.482 13.7709C28.4983 13.8075 28.5149 13.8444 28.5315 13.8813C28.5713 13.8347 28.6116 13.7882 28.6508 13.741ZM28.4023 13.414C28.3751 13.3752 28.3286 13.4755 28.2857 13.5031C28.2427 13.5306 28.2426 13.4723 28.1948 13.5259C28.212 13.5475 28.2303 13.5703 28.2481 13.5921C28.2985 13.5322 28.3517 13.4731 28.4022 13.414C28.4022 13.414 28.4023 13.414 28.4023 13.414ZM27.9969 15.6673C28.0326 15.6694 28.0703 15.7396 28.06 15.6328C28.0599 15.6329 28.0599 15.6329 28.0599 15.6329C27.9802 15.6113 27.8929 15.6024 27.879 15.6872C27.9562 15.7354 27.9407 15.6642 27.9969 15.6673ZM28.869 14.1217C28.922 14.0857 28.9106 14.0031 28.8603 14.0352C28.7782 14.0868 28.7881 14.1759 28.869 14.1217ZM27.2477 16.8073C27.3111 16.9952 27.5036 17.1285 27.5333 16.999C27.5358 16.9877 27.4514 16.9689 27.4465 16.9275C27.446 16.9234 27.4767 16.9093 27.4695 16.8822C27.4621 16.8551 27.4212 16.8072 27.4187 16.7779C27.4143 16.7265 27.5056 16.7688 27.4884 16.7086C27.486 16.7006 27.4132 16.6483 27.4097 16.6467C27.3533 16.6229 27.3839 16.7324 27.3798 16.7359C27.3586 16.7539 27.3163 16.6796 27.2996 16.6665C27.2683 16.6416 27.2691 16.6859 27.2663 16.6844C27.1908 16.6437 27.2826 16.6106 27.277 16.5776C27.2617 16.4889 27.1929 16.4412 27.2382 16.3568C27.2423 16.349 27.3252 16.3022 27.1731 16.2857C27.2642 15.9917 27.0126 16.2534 27.0041 16.311C27.0002 16.3376 27.0664 16.3919 27.0771 16.4285C27.1016 16.5121 27.0745 16.547 27.1412 16.6445C27.2816 16.8493 27.2398 16.683 27.2941 16.6979C27.3197 16.7455 27.3467 16.7906 27.3689 16.839C27.3402 16.7732 27.2429 16.7932 27.2475 16.8069C27.2475 16.807 27.2476 16.8072 27.2477 16.8073ZM27.5952 16.2507C27.68 16.2858 27.5933 16.1553 27.6816 16.2055C27.6429 16.0637 27.5769 16.1164 27.5642 16.115C27.5077 16.1087 27.4268 15.9789 27.4132 16.0431C27.4749 16.1112 27.5345 16.1817 27.5952 16.2507ZM27.1743 16.4412C27.1615 16.3553 27.109 16.3903 27.0987 16.3789C26.9887 16.2582 27.1648 16.1831 27.1743 16.4412ZM29.661 14.8958C29.6759 14.8874 29.6128 14.8439 29.6051 14.8189C29.597 14.7944 29.676 14.8013 29.6387 14.7721C29.6 14.745 29.4601 14.7199 29.4859 14.648C29.4639 14.633 29.4491 14.6198 29.4298 14.6053C29.4179 14.6187 29.4046 14.6323 29.3913 14.6459C29.455 14.6896 29.5229 14.7344 29.5866 14.7737C29.6242 14.8233 29.5606 14.7772 29.5603 14.7776C29.5604 14.7776 29.5604 14.7777 29.5605 14.7777C29.5504 14.7984 29.6275 14.9144 29.661 14.8958ZM28.4061 15.5319C28.5203 15.6838 28.4325 15.4825 28.4385 15.4493C28.4426 15.4172 28.5074 15.4577 28.4513 15.3971C28.3903 15.3704 28.3936 15.514 28.4063 15.5321C28.4062 15.532 28.4062 15.532 28.4061 15.5319ZM27.8353 16.0991C27.847 16.0369 27.814 15.9994 27.8885 16.0184C27.8618 15.9809 27.8347 15.9426 27.8084 15.9056C27.7734 15.9271 27.8481 16.0377 27.7786 16.0184C27.7673 16.0151 27.7244 15.9161 27.7128 15.964C27.752 16.0065 27.7947 16.0542 27.8353 16.0991ZM27.9181 15.842C27.8827 15.8739 28.0545 16.2062 28.0373 16.0163C28.0348 15.9878 27.945 15.8175 27.9181 15.842ZM29.3414 15.1937C29.4133 15.1519 29.3023 15.1618 29.2515 15.1282C29.3716 14.9785 29.2435 15.1548 29.1162 15.0113C29.1308 15.0678 29.1677 15.1937 29.2262 15.1924C29.2506 15.1916 29.2112 15.1503 29.2123 15.1497C29.2502 15.1393 29.3018 15.2164 29.3414 15.1937ZM27.523 16.3072C27.5242 16.3031 27.4856 16.2515 27.4875 16.2351C27.4895 16.2188 27.533 16.2445 27.5141 16.2098C27.4946 16.1752 27.439 16.174 27.4419 16.2063C27.4455 16.2386 27.511 16.344 27.523 16.3072ZM27.8863 16.2653C27.8974 16.2037 27.713 16.0404 27.7059 16.0461C27.7034 16.0483 27.7013 16.0506 27.6996 16.053C27.6799 16.0805 27.7176 16.118 27.7645 16.1565C27.8118 16.1948 27.8681 16.2343 27.8863 16.2653ZM29.4148 15.6368C29.4341 15.4763 29.2474 15.3529 29.1262 15.2844C29.1338 15.31 29.141 15.3359 29.1483 15.3614C29.0929 15.2121 29.0592 15.0506 29.016 15.2426C29.1021 15.2283 29.0704 15.2999 29.0747 15.3075C29.2255 15.5482 29.2527 15.3699 29.4147 15.6368C29.4148 15.6368 29.4148 15.6368 29.4148 15.6368ZM27.3685 16.3249C27.3307 16.35 27.2581 16.4542 27.3705 16.5293C27.37 16.4611 27.3692 16.393 27.3685 16.3249ZM29.8601 13.9903C29.8882 13.9144 29.8626 13.8869 29.826 13.8536C29.7795 13.9555 29.7511 13.9416 29.7227 13.9479C29.6801 13.9575 29.7179 13.9944 29.7126 13.999C29.6391 14.0635 29.6065 14.0494 29.657 14.103C29.6194 14.1118 29.5819 14.1213 29.545 14.1308C29.578 14.1743 29.5387 14.2266 29.5005 14.3018C29.6246 14.154 29.5614 14.2631 29.6597 14.2337C29.7097 14.2198 29.8466 14.0301 29.86 13.9902C29.86 13.9903 29.86 13.9903 29.8601 13.9903ZM29.5288 15.6026C29.5178 15.5682 29.4987 15.5247 29.484 15.4868C29.4912 15.4769 29.4986 15.4673 29.5057 15.4573C29.525 15.4807 29.545 15.5053 29.5639 15.5276C29.5818 15.5251 29.5515 15.4951 29.5528 15.4892C29.5529 15.4893 29.553 15.4894 29.5531 15.4896C29.5721 15.4047 29.5955 15.394 29.6962 15.4329C29.6372 15.3611 29.5783 15.2893 29.5193 15.2175C29.5164 15.2314 29.5132 15.2451 29.5099 15.2588C29.5366 15.3014 29.5631 15.3442 29.5893 15.3871C29.5617 15.3739 29.5344 15.3606 29.5072 15.3469C29.5099 15.3675 29.5114 15.3902 29.5147 15.4097C29.3162 15.2347 29.5162 15.3035 29.45 15.2179C29.4075 15.1638 29.3202 15.2347 29.3348 15.2829C29.3369 15.29 29.4725 15.4303 29.3778 15.3749C29.3624 15.3664 29.1161 15.0286 29.2773 15.3297C29.2998 15.3727 29.4696 15.5708 29.5288 15.6026ZM29.981 15.4038C29.7415 15.2652 30.1373 15.2678 29.8958 15.1998C29.8304 15.0904 29.8256 15.0978 29.7265 15.0432C29.7178 15.0382 29.7078 15 29.7034 14.9983C29.6414 14.9761 29.641 15.0211 29.5644 14.943C29.5635 14.952 29.5624 14.9603 29.5613 14.9694C29.6544 15.0228 29.6682 15.106 29.712 15.1838C29.732 15.219 29.756 15.2133 29.7738 15.2439C29.7801 15.2552 29.7407 15.2573 29.764 15.2849C29.8168 15.3472 29.9056 15.4159 29.9733 15.4349C29.9733 15.435 29.9734 15.435 29.9734 15.4351C29.9763 15.425 29.9783 15.4141 29.981 15.4038ZM28.6808 16.0857C28.5769 15.9796 28.5166 15.9748 28.5359 15.8645C28.5139 15.8449 28.492 15.8256 28.4702 15.8059C28.461 15.8169 28.4521 15.8277 28.4426 15.8384C28.6832 16.2049 28.3109 15.8714 28.5437 16.0817C28.5692 16.1044 28.5741 16.0526 28.6028 16.1463C28.6029 16.1463 28.603 16.1464 28.6031 16.1464C28.6253 16.093 28.5963 16.0489 28.6808 16.0857ZM28.859 15.8189C28.7812 15.4969 28.6335 15.7611 28.7196 15.8037C28.7264 15.8072 28.7837 15.6879 28.859 15.8189ZM28.2981 16.5696C28.3443 16.5458 28.2539 16.4041 28.2164 16.3564C28.1791 16.3085 28.1837 16.3788 28.1746 16.3732C28.1454 16.3547 28.1594 16.3207 28.1203 16.2947C28.1077 16.2863 28.0024 16.2831 28.0035 16.2909C28.0068 16.3365 28.1084 16.4359 28.1118 16.4526C28.1225 16.5075 28.0598 16.462 28.0944 16.5273C28.1677 16.6669 28.1237 16.4994 28.1296 16.4924C28.1476 16.472 28.1941 16.5473 28.2206 16.5513C28.2469 16.5554 28.242 16.5224 28.2602 16.518C28.2662 16.5165 28.2957 16.5705 28.2981 16.5696ZM28.2399 16.1821C28.2681 16.3168 28.4525 16.3582 28.4489 16.3239C28.4342 16.226 28.2252 16.1191 28.2399 16.1821ZM29.5774 15.2238C29.5993 15.3258 29.7355 15.3087 29.7357 15.2577C29.7048 15.2343 29.569 15.1897 29.5774 15.2238ZM29.3899 15.6534C29.4104 15.6043 29.2438 15.4673 29.2162 15.4899C29.2749 15.6148 29.2763 15.5813 29.2995 15.5723C29.3227 15.5633 29.3737 15.6917 29.3899 15.6534ZM27.7607 16.7306C27.7698 16.7274 27.8367 16.5518 27.7386 16.5584C27.731 16.559 27.6529 16.6318 27.6571 16.6541C27.6662 16.6986 27.7374 16.7382 27.7607 16.7306ZM29.3213 15.9414C29.2773 15.8292 29.297 15.8182 29.2033 15.7139C29.2033 15.7139 29.2033 15.7139 29.2033 15.714C29.229 15.6464 29.388 15.8809 29.3956 15.8686C29.4221 15.8254 29.274 15.6817 29.2607 15.6109C29.241 15.6988 29.1813 15.5752 29.1359 15.5947C29.126 15.5989 29.133 15.6912 29.1552 15.7371C29.1773 15.7832 29.2786 15.8984 29.3213 15.9414ZM27.5973 16.8691C27.6644 16.8801 27.601 16.6937 27.5254 16.7058C27.4883 16.7117 27.5563 16.8625 27.5973 16.8691ZM29.0441 13.0894C29.0138 13.1301 28.9839 13.1709 28.9545 13.2118C28.9326 13.2069 28.9109 13.2026 28.8889 13.1979C28.9106 13.1973 28.932 13.1968 28.9536 13.1963C28.9415 13.1592 28.9951 13.0837 29.044 13.0893C29.0441 13.0894 29.0441 13.0894 29.0441 13.0894ZM28.2065 12.1662C28.2309 12.1217 28.101 12.202 28.0952 12.2128C28.0524 12.2941 28.1728 12.228 28.2065 12.1662ZM29.932 15.5176C29.9977 15.4867 29.7982 15.3395 29.759 15.3516C29.8081 15.3704 29.895 15.5343 29.932 15.5176ZM28.5004 12.4921C28.4889 12.5104 28.4774 12.5286 28.4664 12.5473C28.4746 12.5139 28.4865 12.4981 28.5004 12.4921ZM27.8957 16.8993C27.9133 16.9103 27.9772 16.8882 27.9722 16.864C27.9619 16.8132 27.8468 16.7271 27.8434 16.778C27.843 16.7836 27.8782 16.8883 27.8959 16.8992C27.8958 16.8993 27.8958 16.8993 27.8957 16.8993ZM29.0553 12.9682C29.0537 12.9699 29.0521 12.9714 29.0505 12.9727C29.0521 12.9712 29.0537 12.9696 29.0553 12.9682ZM27.5392 11.0027C27.5367 11.0055 27.534 11.0082 27.5313 11.0106C27.5339 11.0081 27.5364 11.0054 27.5392 11.0027ZM28.4056 16.8211C28.5514 17.0027 28.5298 16.8696 28.4315 16.797C28.4263 16.7932 28.4103 16.8186 28.4056 16.8211Z" fill="#E8E8E8"/>
</svg>
