<svg width="18" height="29" viewBox="0 0 18 29" fill="none" xmlns="http://www.w3.org/2000/svg">
<path d="M7.90155 5.44795C8.69975 5.62685 9.47858 5.58241 10.5122 5.47962C11.2235 5.41424 12.0616 5.24278 12.891 5.10472C13.398 5.01853 14.0044 4.78557 14.5776 4.53565C14.6972 4.48382 14.8089 4.42639 14.9125 4.36347C15.0999 4.24492 15.1236 4.30152 15.1796 4.26982C15.3294 4.17658 15.3419 4.04683 15.4312 3.95223C15.4598 3.92145 15.4887 3.88883 15.5205 3.85151C15.4044 4.06633 15.5204 3.86041 15.5143 3.71534C15.527 3.55347 15.5204 3.35618 15.5002 3.18681C15.5289 3.32639 15.5881 3.34732 15.5247 3.27865C15.4707 3.21595 15.3607 3.11377 15.2442 3.00401C15.1984 2.96077 15.1564 2.91942 15.1191 2.88062C14.8144 2.5802 15.0813 2.5601 14.919 2.39699C14.5146 2.05605 14.7696 2.5084 14.566 2.46817C14.4374 2.39728 14.302 2.32989 14.1725 2.27314C13.9153 2.1561 13.4698 2.07619 13.0225 2.00346C12.9785 1.99624 12.9355 1.98908 12.8915 1.98175C12.9365 1.98057 12.9806 1.97926 13.0255 1.97805C13.1496 1.97433 13.2699 1.97053 13.3884 1.96891C13.2697 1.95048 13.1244 1.92399 13.0352 1.89789C12.9416 1.87062 12.9131 1.84454 13.0432 1.83165C13.0791 1.82796 13.1273 1.82522 13.1888 1.82377C13.1418 1.80916 13.0959 1.79411 13.0495 1.77895C12.9919 1.76028 12.9343 1.74147 12.8733 1.72328C12.8307 1.81884 12.3008 1.75681 12.2438 1.80682C12.1869 1.85835 12.4876 1.88671 12.485 1.89118C12.4698 1.92912 12.1078 1.86903 11.7724 1.79614C11.606 1.75527 11.2742 1.72446 11.2466 1.71808C11.0193 1.68679 11.2244 1.57234 11.0294 1.57219C10.8029 1.57198 10.8252 1.68894 10.7294 1.65908C10.6866 1.64473 10.6168 1.59542 10.4729 1.48318C10.2941 1.58768 10.2795 1.5313 10.0531 1.522C10.0233 1.52088 10.046 1.58356 10.0329 1.58511C9.68971 1.63011 9.95342 1.51484 9.95209 1.50853C9.92153 1.40105 9.55082 1.44869 9.47266 1.43909C9.01294 1.38135 8.6078 1.33606 8.20197 1.30212C7.74657 1.26392 7.29293 1.25226 6.75047 1.30942C6.61753 1.32253 6.32219 1.3805 6.05773 1.42595L6.07373 1.42307C5.89971 1.4667 5.74682 1.50299 5.65879 1.515C5.44775 1.54321 5.54056 1.44376 5.42342 1.43174C5.28695 1.65197 5.12637 1.70829 4.70384 1.67773C4.58731 1.84262 4.5821 1.73171 4.30724 1.82184C4.13456 1.87799 3.89121 2.03309 3.64608 2.07807C3.58615 2.08903 3.52208 2.09321 3.44733 2.08166C3.54607 2.05293 3.59319 2.03476 3.6383 2.01306C3.73248 1.97229 3.78374 1.92054 3.99499 1.84461C4.10127 1.80475 5.25484 1.54352 5.13919 1.42811C5.0806 1.36721 4.70885 1.518 4.69309 1.50801C4.58942 1.45188 4.78225 1.31102 4.9792 1.30138C4.9357 1.32708 4.88187 1.35532 4.83461 1.3819C5.28349 1.38106 4.90729 1.08383 5.3021 1.32908C5.35155 1.35895 5.34501 1.40297 5.41909 1.42995C5.42864 1.4099 5.33972 1.3851 5.40658 1.36233C5.47665 1.33879 5.62742 1.38994 5.63351 1.31744C5.64136 1.2122 5.35539 1.31616 5.33395 1.3149C5.33383 1.31555 5.33372 1.3162 5.33361 1.31685C5.12364 1.3084 5.53568 1.21089 5.54981 1.19803C5.66368 1.10842 5.56595 1.08032 5.74471 0.987675C5.79377 0.962942 5.87314 0.941707 5.96338 0.920932L5.98605 0.916853C6.08938 0.901211 6.19672 0.888425 6.25149 0.875293C6.35281 0.850754 6.18628 0.826508 6.25385 0.806378C6.32111 0.786297 6.41245 0.809787 6.49257 0.786519C6.52698 0.776398 6.51782 0.723857 6.53457 0.719648C6.71518 0.674378 6.60944 0.800261 6.77527 0.772088C6.88138 0.752766 7.24144 0.612854 6.98282 0.608318C7.10464 0.584511 7.22465 0.565833 7.34711 0.548459C7.26852 0.538294 7.18707 0.534307 7.10926 0.522946C7.34358 0.526858 7.44232 0.43012 7.58847 0.415227C7.73372 0.400922 7.86803 0.505534 8.02355 0.448334C8.35986 0.326107 7.52177 0.400233 7.4121 0.393532C7.37 0.388216 7.52393 0.292412 7.54826 0.288904C7.6569 0.2721 7.78738 0.328228 7.86966 0.322859C7.98973 0.314799 8.08979 0.296906 8.18614 0.276991C8.32103 0.247963 8.44807 0.21354 8.60968 0.201699C9.275 0.154691 10.0393 0.108193 10.7935 0.111916C11.0752 0.114721 11.3392 0.117043 11.6035 0.125512C11.7401 0.13035 11.88 0.151841 12.0219 0.190471C12.156 0.236204 12.2529 0.283585 12.3377 0.2945C12.6668 0.336017 12.7168 0.262148 13.0051 0.294744C13.0743 0.302372 13.148 0.312359 13.2246 0.323935C13.6298 0.383598 14.1642 0.503481 14.5522 0.637841C14.6274 0.663202 14.7046 0.686901 14.7819 0.711557C14.9897 0.774934 15.1617 0.807711 15.2168 0.832437C15.5771 0.999428 15.9454 1.1876 16.3455 1.53793C16.4709 1.65093 16.6067 1.76082 16.7828 1.92954C16.941 2.08961 17.2501 2.38245 17.3355 2.90738C17.3811 3.21205 17.3947 3.47916 17.3881 3.74293C17.3765 4.21415 17.1911 4.50915 17.1294 4.65281C17.0773 4.77923 17.0136 4.89272 16.947 4.98595C16.8587 5.13266 16.9053 5.15531 16.7211 5.34679C16.5922 5.47578 16.516 5.44596 16.4974 5.46057C16.3266 5.58617 16.3526 5.68243 16.2213 5.78814C15.9533 5.99909 15.6627 6.16107 15.3694 6.28539C14.9106 6.47682 14.4404 6.64151 13.9272 6.79169C13.8689 6.80841 13.8628 6.76742 13.8257 6.78037C13.6661 6.83547 13.7597 6.87752 13.5848 6.92656C13.4662 6.95879 13.3421 6.9864 13.2118 7.00808C12.9992 7.04331 12.7766 7.07604 12.5473 7.11063C12.5136 7.11573 12.4898 7.06648 12.413 7.07987C12.3361 7.09327 12.2863 7.15263 12.1642 7.17074C11.8444 7.21788 11.5187 7.21161 11.1647 7.25541C11.1062 7.26264 11.0407 7.33496 10.9498 7.34456C10.8642 7.35359 10.7639 7.35828 10.655 7.35894C10.4506 7.35677 10.2074 7.35088 10.0445 7.36205C9.27506 7.42155 8.47826 7.45134 7.70276 7.30106C7.51987 7.26637 7.3738 7.17106 7.28202 7.1464C7.27278 7.14393 7.26422 7.14174 7.25628 7.13979C7.09835 7.10094 7.21147 7.1829 7.02435 7.13394C6.07609 6.89051 5.10029 6.53196 4.24134 6.21568C3.68104 6.0237 3.17057 5.75529 2.70227 5.5055C2.59552 5.44825 2.48876 5.39147 2.38219 5.33533C2.1108 5.19237 1.80305 5.04738 1.50188 4.91019C1.35149 4.84178 1.2022 4.77502 1.06496 4.71544C0.997112 4.68603 0.930902 4.65794 0.879528 4.63751C0.855142 4.62771 0.831101 4.61905 0.831169 4.61888C0.833655 4.61904 0.833687 4.62098 0.884603 4.63076C0.909895 4.63374 0.948505 4.64673 1.07541 4.64059C1.11947 4.63752 1.17466 4.63117 1.24661 4.61146C1.31587 4.58944 1.40891 4.56843 1.56465 4.44718C1.70941 4.3385 1.84 4.11353 1.86794 3.95655C1.90493 3.78779 1.88643 3.65305 1.86448 3.56109C1.86377 3.55912 1.86333 3.55851 1.86318 3.55895C1.87876 3.62865 1.84922 3.7477 1.91425 3.87883C2.00171 4.05225 2.08781 4.11953 2.18384 4.23563C2.22634 4.28233 2.27021 4.33609 2.32395 4.42404C2.45244 4.6335 2.53344 4.95986 2.68026 5.20275C2.75701 5.32918 2.83445 5.40911 2.91486 5.49527C2.98544 5.56878 3.05971 5.64815 3.14031 5.77431C3.27876 5.99149 3.43043 6.32553 3.58618 6.56487C3.70299 6.74455 3.82081 6.92424 3.9389 7.10346C4.11092 7.3691 4.36721 7.66987 4.60705 8.12411C4.95299 8.77056 5.49393 9.52503 5.95436 10.263C6.24402 10.7205 6.53031 11.1618 6.82563 11.6714C7.00271 11.9947 7.24202 12.2877 7.52916 12.785C7.61615 12.9435 7.70987 13.1083 7.80404 13.273C8.09941 13.7883 8.44687 14.3408 8.76953 14.8794C8.98774 15.2365 9.13403 15.567 9.268 15.8552C9.30074 15.9257 9.18129 15.8787 9.28096 16.0399C9.29163 16.057 9.30449 16.0764 9.31973 16.0982C9.41413 16.2335 9.60009 16.3898 9.7872 16.7139C9.94353 16.9852 10.0926 17.2599 10.2383 17.5435C10.5364 18.1296 10.7833 18.7156 11.0214 19.3153C11.2927 20.0478 11.4573 20.671 11.5443 21.4789C11.5894 22.1506 11.6234 22.8166 11.4839 23.5745C11.459 23.6986 11.4275 23.8267 11.3827 23.9606C11.2622 24.3289 11.0911 24.6998 10.8911 25.0318C10.593 25.5219 10.3949 26.1299 9.71175 26.7909C9.43905 27.0451 9.15964 27.3462 8.82621 27.6509C8.4843 27.9589 8.15577 28.2949 7.55957 28.6116C7.22316 28.765 7.07665 28.7725 6.88966 28.8083C6.71262 28.8361 6.54742 28.8499 6.38152 28.8556C6.04801 28.8637 5.73058 28.8503 5.33927 28.7535C4.73317 28.5746 4.32611 28.3405 3.87541 28.0155C3.64867 27.8392 3.4471 27.6442 3.28796 27.4716C3.21676 27.3869 3.34843 27.1919 3.45484 27.1707C3.50136 27.246 3.5381 27.3283 3.58541 27.413C3.81135 27.2047 3.75661 27.2656 4.08951 27.4612C4.10546 27.4704 4.11951 27.4776 4.13192 27.4832C4.28219 27.5495 4.18858 27.3876 4.30676 27.4058C4.47166 27.4417 5.22203 27.547 5.02874 27.6809C5.08341 27.6634 5.13396 27.6457 5.18611 27.6271C5.30588 27.6552 5.42608 27.6787 5.54223 27.6924C5.92717 27.7303 6.34137 27.6696 6.70914 27.5625C6.78972 27.5369 6.78242 27.4774 6.85438 27.4485C6.8994 27.4296 6.94105 27.4116 6.95732 27.4029C7.08606 27.3371 7.22802 27.2686 7.37818 27.1521C7.48595 27.0671 7.45821 27.0013 7.60244 26.8907C7.74699 26.7781 7.80224 26.8531 7.9351 26.6081C7.88798 26.6129 7.88498 26.5942 7.91013 26.561C7.99037 26.4557 8.38393 26.1706 8.54212 26.0247C8.56516 26.0035 8.68401 25.8101 8.81074 25.681C8.82766 25.6605 8.84616 25.641 8.86513 25.6265C8.95885 25.5574 9.15594 25.4283 9.26226 25.2057C9.31209 25.1018 9.28167 24.9987 9.34555 24.8903C9.39053 24.8138 9.5098 24.7604 9.57447 24.6617C9.63204 24.5736 9.71072 24.3551 9.7498 24.279C9.75274 24.2726 9.75525 24.2676 9.75729 24.2643C9.83353 24.1382 9.78925 24.303 9.84562 24.2188C9.98073 24.0143 10.1038 23.7871 10.196 23.5383C10.2726 23.3356 10.3077 23.0683 10.3057 22.8226C10.3052 22.7619 10.2398 22.8418 10.2382 22.8334C10.1831 22.4213 10.2505 22.6423 10.308 22.5304C10.3657 22.4321 10.3088 21.7182 10.2056 21.6091C10.1974 21.6016 10.189 21.5976 10.1806 21.5981C10.3107 21.5644 10.1876 21.4094 10.175 21.3666C10.1286 21.1974 10.2465 21.2074 10.1733 21.042C10.1461 20.9816 10.0997 21.122 10.0862 21.0538C10.0525 20.8864 10.1321 20.7013 10.0754 20.4714C10.0616 20.4163 10.0037 20.4147 9.97457 20.319C9.94788 20.2204 9.86526 19.8135 9.82378 20.0312C9.82373 19.9471 9.81586 19.8883 9.80249 19.8401C9.76745 19.7228 9.70977 19.6472 9.62572 19.4539C9.59448 19.3819 9.63414 19.253 9.53932 19.1122C9.50722 19.0647 9.43027 19.102 9.39399 19.0255C9.31051 18.8506 9.31246 18.6476 9.20646 18.4266C9.16325 18.3367 9.11568 18.2472 9.06577 18.1598C8.88302 17.8399 8.66802 17.5184 8.49701 17.1851C8.43723 17.0693 8.52825 17.054 8.43355 16.8897C8.4228 16.8714 8.31517 16.7747 8.23722 16.6813C8.21127 16.6494 8.18879 16.6179 8.17312 16.5886C8.13095 16.5139 7.96521 16.1165 7.92982 16.0449C7.86805 15.9227 7.78438 15.9447 7.7618 15.8743C7.69614 15.6759 7.88219 15.7455 7.61929 15.6333C7.61695 15.6323 7.61458 15.6312 7.61216 15.6301C7.64111 15.505 7.54884 15.3791 7.61795 15.2752C7.46367 15.2669 7.50108 15.1023 7.37192 14.9773C7.24217 14.8514 6.96022 14.859 7.15846 14.6839C7.08774 14.6315 6.85645 14.3635 6.82205 14.3151C6.72082 14.1729 6.8313 14.2143 6.75396 14.1074C6.74048 14.0885 6.711 14.1351 6.63745 14.0056C6.60678 13.9515 6.4455 13.6836 6.33087 13.4796C6.27548 13.3808 6.22296 13.2992 6.21731 13.2859C6.05843 12.9427 6.28492 13.2736 6.40474 13.4367C6.43707 13.4814 6.46632 13.5168 6.48558 13.5292C6.48324 13.5529 6.48028 13.5755 6.47856 13.5998C6.56973 13.7983 6.60181 13.6346 6.57425 13.5374C6.56185 13.493 6.52528 13.4392 6.49013 13.3872C6.45212 13.3316 6.41153 13.2771 6.40572 13.2318C6.40009 13.1898 6.52629 13.1361 6.57512 13.2458C6.54316 13.1159 6.67197 13.2414 6.67842 13.1782C6.68976 13.1033 6.36524 12.615 6.30373 12.655C6.36324 12.7461 6.44338 12.8555 6.50292 12.9481C6.47804 13.1338 5.87164 13.0419 5.78339 12.5833C5.73806 12.3094 5.97455 12.5292 5.78202 12.2794C5.74739 12.234 5.6967 12.1716 5.62468 12.0865C5.66744 12.1652 5.69931 12.2367 5.73366 12.3075C5.7399 12.3202 5.74626 12.3328 5.7528 12.3453C5.72566 12.3657 5.70902 12.3551 5.69578 12.3296C5.67421 12.2873 5.66426 12.1974 5.62082 12.1639C5.58888 12.1396 5.64963 12.373 5.52681 12.2125C5.55398 11.9924 5.36469 11.9492 5.2057 11.6993C5.27036 11.7561 5.33475 11.8129 5.39913 11.8698C5.2177 11.3918 5.86353 12.3625 5.39275 11.5054C5.45911 11.6025 5.52058 11.7025 5.58862 11.7991C5.60106 11.7237 5.77528 11.7236 5.77457 11.6633C5.77286 11.5053 5.62433 11.3621 5.5426 11.2193C5.50663 11.1567 5.56432 11.1732 5.56126 11.1679C5.51228 11.0821 5.47443 11.1319 5.42505 11.0608C5.37873 10.994 5.30047 10.8129 5.24992 10.7082C5.23216 10.6716 5.21817 10.6449 5.20984 10.6348C5.12588 10.5331 5.14486 10.7792 5.13132 10.774C5.0384 10.7317 4.98616 10.5625 4.92923 10.6094C4.97268 10.6625 5.02424 10.7342 5.07883 10.8163C5.3509 11.2244 5.66233 11.8331 5.09669 11.1274C5.15546 11.4415 4.97191 11.4564 4.73263 11.1021C4.72102 11.0849 4.71064 11.0692 4.70139 11.0548C4.55486 10.8266 4.70939 10.9552 4.67411 10.7731C4.66885 10.7478 4.445 10.3314 4.38898 10.3382C4.49838 10.2922 4.50197 10.1049 4.6598 10.128C4.68294 10.1314 4.78117 10.2988 4.82687 10.1898C4.84932 10.1343 4.88711 9.99603 4.94788 9.97592C4.88972 9.96493 4.82634 9.95578 4.76692 9.94628C4.59951 9.70689 4.6174 9.64846 4.59996 9.47065C4.57571 9.49512 4.53439 9.69375 4.45194 9.48328C4.44781 9.47188 4.48544 9.43681 4.44656 9.3277C4.36839 9.10783 4.35822 9.06044 4.57573 9.12908C4.29045 8.81189 4.33955 8.64936 4.17285 8.3416C4.14965 8.29748 4.12243 8.25185 4.09044 8.2049C4.05077 8.27146 4.0407 8.33131 4.05429 8.40099C4.07168 8.514 4.17121 8.64852 4.33405 8.87621C4.30446 8.91548 4.27054 8.94653 4.24099 8.98664C4.04259 8.44097 4.17354 8.68574 3.95061 8.45292C3.9477 8.4496 3.94473 8.44621 3.9417 8.44274C3.88653 8.36771 3.66371 7.9713 3.63616 8.16882C3.63142 8.2133 3.77439 8.45023 3.7154 8.4463C3.70721 8.44306 3.51503 8.17349 3.5072 8.14381C3.43418 7.76495 3.85329 8.21081 3.32092 7.49072C3.3086 7.47319 3.29505 7.45385 3.28163 7.43485C3.26548 7.41211 3.21322 7.43357 3.17776 7.39143C3.11151 7.31256 3.16559 7.27736 3.10487 7.20787C3.04406 7.13828 2.90368 7.07639 2.90029 6.91764C2.89391 6.62818 3.27371 7.0865 3.34779 7.34979C3.54699 7.34061 2.72454 5.97616 2.56172 5.69642C2.54694 5.67234 2.53657 5.65644 2.53111 5.64937C2.34916 5.41382 2.42332 5.5506 2.51491 5.72308C2.58047 5.84722 2.6581 5.99034 2.64797 6.0176C2.63773 6.04418 2.38833 6.18113 2.65578 6.27053C2.73475 6.29661 2.66241 6.03395 2.7683 6.15335C2.87431 6.27253 2.77089 6.26211 2.77167 6.27486C2.77448 6.31868 2.88731 6.44597 2.88847 6.47065C2.90858 6.84983 2.65943 6.96494 2.77357 6.37725C2.59617 6.25824 2.70119 6.71349 2.52423 6.53893C2.30867 6.32587 2.31277 6.07476 2.29957 6.04034C2.2663 5.95447 2.24406 5.90881 2.22766 5.8867C2.16327 5.79966 2.18486 6.056 2.01304 5.66061C1.89159 5.38331 2.34744 5.98756 1.9923 5.39869C1.69235 4.90712 1.79277 5.20915 1.6427 5.24864C1.60754 5.2579 1.41128 5.00848 1.64139 5.36982C1.68106 5.36046 1.73702 5.35438 1.78168 5.35955C1.81049 5.46485 1.72956 5.71373 1.75133 5.76516C1.83788 5.96742 1.90679 5.9669 1.91844 6.06283C1.92122 6.08609 1.92095 6.11562 1.91652 6.15468C1.97181 5.98893 1.99763 6.1922 2.05722 6.23945C2.27784 6.41448 2.13403 6.09964 2.32325 6.67112C2.33614 6.57396 2.35216 6.48386 2.36673 6.38921C2.40444 6.44854 2.4423 6.50767 2.48029 6.56677C2.41861 6.72593 2.62812 7.03706 2.3362 6.81757C2.51497 7.18649 2.6276 7.31081 2.76334 7.33142C2.78935 7.33544 2.82821 7.38296 2.86783 7.44298C2.88569 7.41594 2.95374 7.35307 2.96921 7.35681C3.10573 7.39057 3.04509 7.61327 2.96185 7.60222C2.98241 7.64009 2.99864 7.67171 3.00654 7.68772C3.00796 7.69058 3.00915 7.69298 3.01007 7.69487C3.03227 7.74042 2.99806 7.72445 2.96656 7.71277C2.94161 7.70421 2.91838 7.69855 2.92781 7.73051C2.92818 7.73175 2.92893 7.73349 2.93001 7.73568C2.95024 7.77809 3.08604 7.96512 3.07002 7.98079C2.95726 8.08647 2.82839 7.69674 3.20509 8.41726C3.33513 8.35977 3.0985 8.06291 3.27462 8.0606C3.46638 8.05995 3.40492 8.35311 3.59295 8.28959C3.57498 8.32127 3.55626 8.34172 3.53284 8.37321C3.62789 8.46572 3.6602 8.53888 3.66595 8.59551C3.67679 8.68676 3.62882 8.74181 3.63937 8.80834C3.66883 9.02979 4.16351 9.81427 3.85468 9.02994C3.92769 9.12829 3.99723 9.23069 4.07042 9.32575C3.83823 9.5007 3.89663 9.38157 4.16765 9.89185C4.22764 10.0045 4.1415 10.1068 4.33626 10.1304C4.20155 10.1957 4.47888 10.464 4.48159 10.5019C4.50244 10.7531 3.91952 10.1419 4.08347 9.90959C3.92175 9.8457 4.03574 9.77303 3.93666 9.6492C3.79351 9.46853 3.7527 9.4556 3.69728 9.16532C3.43311 9.00681 4.19889 10.1022 3.61571 9.51303C3.51221 9.40662 3.33601 9.18109 3.14262 8.85764C3.01768 8.65705 2.78653 8.39215 2.50993 7.99891C2.15786 7.49491 1.7738 6.92613 1.41777 6.34801C1.14069 5.89073 0.875087 5.50254 0.619565 5.04607C0.438732 4.70903 0.252496 4.44756 0.117685 3.9841C0.0787763 3.82245 0.0488802 3.51041 0.287258 3.1979C0.396271 3.05693 0.540825 2.96688 0.636666 2.92528C0.713912 2.89092 0.779933 2.87321 0.835415 2.86204C1.07071 2.82636 1.07964 2.8484 1.15271 2.85192C1.24286 2.864 1.28568 2.87657 1.32337 2.88623C1.3929 2.90527 1.43179 2.91899 1.47049 2.93239C2.43676 3.31849 2.95956 3.61201 3.55884 3.90868C4.01185 4.13757 4.40405 4.33296 4.83793 4.47652C5.14366 4.58027 5.43637 4.6905 5.75093 4.80295C5.90755 4.86872 7.09178 5.22507 6.80088 5.30283C6.759 5.31587 6.22508 5.21538 6.63029 5.47376C6.56156 5.37434 6.83761 5.40644 6.86083 5.40453C7.35301 5.37851 7.18304 5.27809 7.70095 5.40271C7.75815 5.41596 7.8241 5.43125 7.90155 5.44795ZM10.2457 6.9683C9.10776 7.0176 9.95051 7.06344 9.72734 7.3256C9.87943 7.31728 10.0281 7.30633 10.1735 7.29474C10.1342 7.28261 10.0947 7.27048 10.055 7.25822C10.0548 7.25824 10.0547 7.25825 10.0545 7.25826C10.1196 7.16177 10.1833 7.06501 10.2457 6.9683ZM6.76598 0.475926C6.8071 0.438296 6.8483 0.400799 6.89447 0.363799C7.05122 0.356278 7.20816 0.351822 7.36498 0.350873C7.34823 0.374032 7.33136 0.397504 7.31463 0.42075C7.13109 0.433548 6.94707 0.451185 6.76598 0.475926ZM3.45902 7.46013C3.49253 7.67734 3.61538 7.5705 3.71066 7.8415C3.78941 7.74678 3.8636 7.65011 3.94049 7.55488C3.82593 7.41314 3.76489 7.3883 3.69412 7.25685C3.68314 7.23651 3.6713 7.21297 3.65943 7.18715C3.64146 7.22858 3.62408 7.27135 3.60558 7.31233C3.60516 7.31319 3.60474 7.31405 3.60433 7.3149C3.62966 7.33996 3.65756 7.36631 3.6823 7.39106C3.6497 7.44833 3.57438 7.38995 3.52013 7.36588C3.48323 7.34833 3.45518 7.34672 3.4547 7.40688C3.45429 7.42086 3.45537 7.43817 3.45844 7.45968C3.45863 7.45983 3.45883 7.45998 3.45902 7.46013ZM4.6036 9.25871C4.649 9.36052 4.83773 9.76471 4.91167 9.78954C5.16138 9.87302 4.40391 8.87742 5.02104 9.57336C5.03847 9.55734 5.05996 9.54858 5.07943 9.53619C4.99638 9.39052 4.91286 9.24624 4.82948 9.10126C4.75639 9.15769 4.67638 9.20092 4.6036 9.25871ZM6.10702 6.46557C5.94201 6.40477 5.12633 6.2068 5.34934 6.39465C5.41523 6.45082 5.8194 6.42825 5.95232 6.47676C6.03941 6.50887 5.91501 6.55625 6.09872 6.58218C6.10202 6.54511 6.10909 6.50507 6.10647 6.46565C6.10665 6.46563 6.10683 6.4656 6.10702 6.46557ZM6.5588 6.10156C6.38395 6.06487 6.20691 6.0294 6.03102 5.98887C6.12684 6.11917 6.39207 6.13787 6.3677 6.26843C6.31785 6.26375 6.26759 6.25872 6.21769 6.2537C6.19062 6.21498 6.16281 6.17591 6.13661 6.13727C5.96718 6.15845 6.04515 6.22203 5.77723 6.11169C5.87999 6.35556 5.88088 6.47283 6.41664 6.42423C6.2955 6.50074 6.27939 6.86662 6.61803 6.70147C6.68082 6.67084 6.48118 6.58045 6.48134 6.57246C6.4759 6.47412 6.60701 6.45087 6.59755 6.35671C6.59345 6.31429 6.46791 6.27774 6.4654 6.21939C6.46438 6.19111 6.60496 6.15302 6.5588 6.10156ZM6.77181 6.65314C6.70202 6.69188 6.8525 6.87317 7.02129 6.89019C7.28319 6.91628 6.9197 6.68905 6.77181 6.65314ZM6.76499 0.476171C6.76532 0.476089 6.76565 0.476007 6.76598 0.475926C6.76583 0.476067 6.76568 0.476209 6.76552 0.476351C6.76535 0.476291 6.76517 0.476231 6.76499 0.476171ZM4.36683 8.74536C4.4704 8.82947 4.56339 8.9939 4.62109 8.9426C4.64054 9.0028 4.66221 9.0655 4.68253 9.12611C4.70158 9.11348 4.72036 9.10032 4.73921 9.08782C4.65084 8.91968 4.56651 8.75508 4.49106 8.59298C4.44898 8.64264 4.40614 8.69128 4.36683 8.74536ZM5.43019 10.5386C5.43927 10.554 5.44765 10.5672 5.45536 10.5783C5.55099 10.7164 5.53771 10.5227 5.60313 10.5396C5.67372 10.5579 5.75474 10.7619 5.80178 10.7023C5.75257 10.621 5.70195 10.5375 5.65154 10.4544C5.62547 10.4114 5.60004 10.3695 5.5754 10.329C5.52956 10.4023 5.47667 10.4671 5.43045 10.539C5.43037 10.5388 5.43028 10.5387 5.43019 10.5386ZM14.8449 6.09341C14.6776 6.13843 14.7157 6.04053 14.4323 6.24994C14.4325 6.24985 14.4327 6.24976 14.433 6.24967C14.685 6.20712 14.9837 6.13119 15.2416 6.00293C15.3274 5.96072 15.4089 5.91169 15.4826 5.85628C15.3787 5.8728 15.2959 5.90328 15.213 5.93983C15.1053 5.98707 14.9992 6.05061 14.8449 6.09341ZM3.35523 6.8536C3.26562 6.82769 3.39064 7.12873 3.4776 7.15804C3.6181 7.2057 3.49096 6.89299 3.35523 6.8536ZM13.8164 1.35112C13.5458 1.50137 13.9578 1.74922 14.3495 1.81977C14.3633 1.82269 14.3778 1.82564 14.3922 1.82827C14.4052 1.83068 14.3872 1.8144 14.3603 1.79189C14.3114 1.74686 14.2118 1.67869 14.2754 1.67199C14.2811 1.67141 14.3405 1.69133 14.3936 1.70671C14.4293 1.71712 14.4643 1.72535 14.483 1.7219C14.5321 1.7134 14.515 1.63845 14.59 1.64203C14.7235 1.64775 14.9366 1.84785 15.0446 1.84097C15.06 1.83957 14.9443 1.68373 14.9348 1.6762C14.7941 1.5479 14.5875 1.5787 14.5627 1.5693C14.5085 1.54834 14.4844 1.5248 14.4736 1.50164C14.4575 1.46793 14.4681 1.43476 14.4513 1.41597C14.3966 1.35518 14.265 1.35636 14.2578 1.35188C14.105 1.25293 14.3632 1.31305 14.5262 1.36684C14.5722 1.3812 14.6102 1.39226 14.6274 1.3918C14.8323 1.39195 14.7049 1.23957 15.1411 1.40371C15.1811 1.41837 15.6511 1.67991 15.1005 1.27637C16.0715 1.65107 15.2624 1.15818 14.6789 0.975524C14.472 0.907282 14.3162 0.885431 14.2611 0.881902C14.1552 0.877465 14.2888 0.993138 14.2193 1.01407C14.0628 1.06119 13.8388 1.03751 13.8388 1.15751C13.8382 1.40874 14.1494 1.2991 14.3333 1.4014C14.2976 1.44682 14.2747 1.49471 14.2248 1.53533C14.3038 1.47742 13.8385 1.33425 13.8165 1.35064C13.8165 1.3508 13.8165 1.35096 13.8164 1.35112ZM16.6253 2.83891C16.6386 2.90711 16.6455 2.96397 16.6509 3.01162C16.665 3.18228 16.7654 3.19722 16.7043 3.42628C16.8556 3.66118 16.8243 3.18425 16.8193 3.12713C16.8205 3.06931 16.8278 3.02283 16.838 2.98312C16.8544 2.76669 16.8831 2.60863 16.6785 2.40244C16.6845 2.554 16.6671 2.6977 16.6253 2.83891ZM14.6242 1.20663C14.7449 1.20719 14.6925 1.16468 14.6207 1.12481C14.5592 1.09171 14.4877 1.06482 14.4833 1.05655C14.4456 0.988875 14.5405 0.982042 14.6625 1.01753C14.8799 1.08029 15.1304 1.26194 14.6242 1.20663ZM5.18388 5.82107C5.09828 5.78463 5.12754 5.87586 5.04294 5.86923C4.95722 5.86235 4.71575 5.70583 4.70637 5.75284C4.69688 5.79957 5.13807 6.08973 4.64479 5.93981C4.65208 5.97067 4.63988 5.98736 4.63964 6.0128C4.77178 6.06111 4.90669 6.1115 5.04145 6.1606C4.99283 6.06185 4.9454 5.9591 4.89961 5.86388C4.99583 5.83395 5.01111 5.9225 5.01541 5.92405C5.01543 5.92397 5.01546 5.92389 5.01549 5.92382C5.15793 5.96877 5.37765 5.9029 5.18388 5.82107ZM12.4924 6.59416C12.487 6.40206 12.3072 6.64924 12.2217 6.68791C12.1364 6.72656 12.0014 6.67813 12.0614 6.7509C12.2162 6.7819 12.4932 6.61557 12.4924 6.59392C12.4924 6.594 12.4924 6.59408 12.4924 6.59416ZM16.5206 4.54774C16.5092 4.57236 16.4964 4.59641 16.484 4.61774C16.4003 4.78691 16.4377 4.81113 16.2025 4.98072C16.2434 5.00477 16.2856 5.02885 16.3267 5.0515C16.4844 4.88647 16.4093 4.80631 16.5439 4.66542C16.5702 4.63542 16.5973 4.60222 16.6249 4.56575C16.66 4.51105 16.7091 4.6872 16.7897 4.39629C16.7093 4.45521 16.6163 4.50881 16.5206 4.54774ZM15.7069 5.55025C15.9572 5.3713 15.9032 4.94886 15.5803 5.38062C15.5306 5.44204 15.5192 5.67446 15.7069 5.55025ZM7.52863 6.52758C7.48334 6.51562 7.44756 6.50625 7.42017 6.49957C7.30965 6.47246 7.33964 6.49319 7.41219 6.53072C7.49511 6.57358 7.63282 6.63345 7.68423 6.67164C7.555 6.64998 7.45974 6.63047 7.39039 6.6159C7.16354 6.56785 7.23595 6.58628 7.38461 6.63849C7.55973 6.70116 7.84387 6.79124 7.88059 6.88722C8.0255 6.85827 8.28689 6.76972 8.02014 6.69662C7.90986 6.66463 7.94131 6.72688 7.93461 6.72563C7.72843 6.67394 7.77088 6.5891 7.52863 6.52758ZM16.2618 2.37139C16.2771 2.3821 16.3 2.31503 16.352 2.34715C16.4045 2.37833 16.4715 2.51728 16.5113 2.50587C16.5526 2.48554 16.3663 2.24721 16.2899 2.22221C16.2117 2.1911 16.1268 2.2799 16.2618 2.37139ZM16.4856 4.20295C16.4553 4.46639 16.8081 4.11104 16.8043 4.04116C16.8442 3.54647 16.5752 4.2513 16.4856 4.20295ZM8.61088 6.29169C8.08093 6.3592 8.42756 6.61408 8.77535 6.75669C8.82267 6.73351 8.87038 6.70985 8.9161 6.68597C8.70475 6.82993 8.32063 6.97651 9.15345 6.86155C8.70356 6.82016 9.08172 6.78394 9.08356 6.77485C9.1322 6.49751 8.48651 6.60028 8.61135 6.29172C8.61119 6.29171 8.61103 6.2917 8.61088 6.29169ZM15.7304 1.81795C15.5205 1.64786 14.9272 1.39504 15.1326 1.64451C15.3303 1.6867 15.5283 1.7395 15.7304 1.81795ZM1.07864 4.52147C1.09086 4.61296 1.11443 4.69424 1.14545 4.77361C1.18726 4.87859 1.24622 4.98187 1.31524 5.09614C1.29608 4.85523 1.37786 4.97516 1.43578 5.02513C1.52363 5.10163 1.38778 4.87175 1.39402 4.86708C1.48154 4.82421 1.57153 4.96112 1.39879 4.64236C1.39629 4.6376 1.39373 4.63272 1.39109 4.62772C1.39541 4.63172 1.39971 4.6357 1.404 4.63966C1.47356 4.70422 1.54393 4.76531 1.61531 4.8265C1.55926 4.72418 1.53161 4.64806 1.5172 4.58101C1.49453 4.47906 1.49839 4.39807 1.48879 4.27921C1.40386 4.52587 1.39709 4.26289 1.21956 4.1151C1.12886 4.0379 1.06277 4.41665 1.07898 4.52212C1.07887 4.5219 1.07876 4.52168 1.07864 4.52147ZM8.08341 6.19048C8.02594 6.21587 7.96878 6.25293 7.91045 6.28186C7.85327 6.27491 7.79703 6.2669 7.73979 6.25837C7.73919 6.22722 7.74021 6.19499 7.73856 6.16479C7.66821 6.14013 7.68698 6.18746 7.66442 6.18641C7.66446 6.18625 7.6645 6.18609 7.66453 6.18594C7.60451 6.18266 7.55267 6.17834 7.50402 6.17201C7.28624 6.14318 7.16723 6.09238 6.98659 5.96258C6.96153 6.05204 6.93648 6.14149 6.91143 6.23095C6.96993 6.23813 7.02852 6.24534 7.08686 6.25229C7.12947 6.21215 7.17231 6.17199 7.21511 6.13179C7.27195 6.17554 7.33021 6.21919 7.38718 6.26243C7.41706 6.26033 7.45018 6.25875 7.48228 6.25693C7.51021 6.25524 7.53692 6.25313 7.55962 6.25024C7.65842 6.40846 7.57038 6.40909 7.45072 6.38022C7.33425 6.35201 7.19332 6.29761 7.17727 6.3485C7.16717 6.37852 7.28567 6.42752 7.4282 6.4682C7.59952 6.51786 7.80474 6.54592 7.85777 6.52906C7.87127 6.52419 7.77748 6.31096 7.97884 6.44971C8.00835 6.4701 7.95997 6.88976 8.25208 6.58708C8.29197 6.54352 8.20558 6.27182 8.08341 6.19048ZM6.02232 5.49325C6.25989 5.85762 5.16117 5.18081 5.60256 5.56677C5.41522 5.63141 5.44197 5.63925 5.55516 5.7943C5.56514 5.80816 5.45092 5.80409 5.45822 5.81116C5.57811 5.91715 5.75734 5.94399 5.72402 6.04816C5.76338 6.05526 5.8019 6.06266 5.84136 6.06959C5.71526 5.91895 5.98927 5.93742 6.11269 5.88529C6.1686 5.86187 6.07156 5.81786 6.11911 5.79694C6.13611 5.78933 6.27014 5.85835 6.28677 5.8256C6.32315 5.75136 6.26761 5.61869 6.13808 5.5132C6.13811 5.51312 6.13813 5.51304 6.13816 5.51297C6.09994 5.50615 6.06076 5.50011 6.02232 5.49325ZM13.1019 5.87842C13.1777 6.00485 13.4003 6.00868 13.0653 6.13883C13.0442 6.1466 13.0207 6.15489 12.9944 6.16377C13.0215 6.1887 13.0491 6.21333 13.0757 6.23839C13.0777 6.23797 13.0798 6.23755 13.0819 6.23712C13.1572 6.22188 13.2296 6.20498 13.3047 6.18587C13.4312 5.71464 13.9574 6.06008 13.614 5.84326C13.5764 5.81977 13.4176 5.90363 13.5595 5.76834C13.5592 5.76833 13.559 5.76831 13.5587 5.7683C13.3353 5.86054 13.3136 5.91915 13.1019 5.87842ZM11.4808 6.26075C10.9601 6.65827 12.294 6.30465 12.0527 6.25848C12.0316 6.25551 11.46 6.41751 11.4808 6.26075ZM15.5731 4.63145C15.3986 4.77187 15.4775 4.91262 15.5345 4.94784C15.5916 4.98271 15.6886 4.82718 15.71 4.81972C15.7852 4.79656 15.6817 4.91269 15.782 4.88368C15.8193 4.88107 16.1763 4.60099 16.1799 4.57423C16.2222 4.46123 16.0097 4.49891 16.0189 4.46319C16.0324 4.40611 16.0768 4.36164 16.1114 4.32146C16.131 4.30026 16.144 4.27189 16.1166 4.24715C16.0471 4.18718 16.0425 4.23219 16.0482 4.2712C16.0309 4.32964 16.0179 4.39586 16.0066 4.41109C15.9278 4.51472 15.8689 4.44666 15.7924 4.50217C15.7158 4.55602 15.693 4.61923 15.6275 4.66889C15.6055 4.68531 15.5823 4.62418 15.5731 4.63145ZM15.0996 5.36478C15.1966 5.23823 15.0555 5.23349 14.9017 5.25179C14.7639 5.27006 14.6117 5.31168 14.5847 5.33803C14.4494 5.47023 14.7826 5.48466 14.9809 5.42687C15.0365 5.41091 15.0805 5.38907 15.0996 5.36478ZM6.71881 6.1324C6.97899 6.11184 6.45286 5.88203 6.28769 5.86696C6.30398 5.913 6.62792 6.14 6.71881 6.1324ZM8.7552 6.30158C8.53454 6.31628 8.81271 6.54486 9.00414 6.54355C9.11616 6.40841 9.01226 6.43525 8.89148 6.42568C8.77142 6.41534 8.92612 6.28734 8.7552 6.30158ZM15.8355 2.63849C15.8526 2.65594 16.0233 2.76819 16.1271 2.84417C16.2263 2.919 16.3075 2.97162 16.2048 2.78571C16.201 2.74972 15.7816 2.39996 15.7342 2.38744C15.6423 2.36247 15.7479 2.55214 15.8355 2.63849ZM9.79405 6.08452C9.68664 6.21048 9.57062 6.21503 9.68671 6.34714C9.68687 6.34713 9.68703 6.34713 9.68718 6.34712C9.39062 6.40634 9.36957 6.11989 9.30807 6.12815C9.09107 6.15283 9.30083 6.35188 9.16194 6.41938C9.48777 6.35262 9.39738 6.48975 9.64976 6.48628C9.70687 6.48545 9.92641 6.38832 9.95517 6.33489C9.98378 6.28182 9.85756 6.13956 9.79405 6.08452ZM14.9763 2.02476C15.169 2.18484 15.4705 2.1586 15.182 1.9398C15.0354 1.83565 14.8537 1.92711 14.9763 2.02476ZM4.23938 9.94211C4.2596 9.88046 4.27989 9.81929 4.2981 9.75526C4.36063 9.83113 4.42438 9.90821 4.48709 9.98368C4.43186 9.92648 4.37782 9.8707 4.32212 9.81219C4.40604 9.97678 4.3745 10.097 4.23963 9.94251C4.23955 9.94238 4.23946 9.94224 4.23938 9.94211ZM7.70278 15.5012C7.70322 15.5217 7.71613 15.5431 7.73276 15.5589C7.78978 15.6124 7.91535 15.6408 7.9151 15.6232C7.91345 15.5624 7.886 15.513 7.85152 15.4811C7.78644 15.4198 7.69763 15.4136 7.70278 15.5012ZM6.50414 5.59429C6.22434 5.48517 6.3472 5.77904 6.5208 5.84914C6.42605 5.77171 6.66285 5.6552 6.50414 5.59429ZM6.48558 13.5292C6.48929 13.4943 6.49339 13.46 6.49551 13.422C6.51998 13.5216 6.51224 13.5465 6.48558 13.5292ZM15.7773 2.87626C15.8119 2.92691 15.9495 3.11115 15.9509 3.09208C16.0139 3.11162 16.0846 2.9351 15.9356 2.84819C15.9224 2.84001 15.7598 2.83403 15.7777 2.8767C15.7776 2.87656 15.7774 2.87641 15.7773 2.87626ZM4.38304 10.3411C4.38472 10.3394 4.38675 10.3385 4.38898 10.3382C4.38697 10.3391 4.38513 10.3404 4.38304 10.3411ZM10.1698 21.6013C10.1734 21.5994 10.177 21.5983 10.1806 21.5981C10.1772 21.599 10.1736 21.6005 10.1698 21.6013ZM15.5316 4.30122C15.3073 4.20154 15.2419 4.41866 15.4381 4.39925C15.4494 4.39789 15.5162 4.31701 15.5316 4.30122Z" fill="#E8E8E8"/>
<path d="M13.1943 19.9029C13.1784 19.9942 13.1631 20.0866 13.1483 20.18C13.0783 20.644 13.0872 21.3265 13.0354 21.9973C13.0072 22.3742 12.9862 22.7421 12.9834 23.0671C12.9829 23.18 12.9163 23.1749 12.9092 23.2071C12.8904 23.2942 12.9741 23.3358 12.9748 23.3924C12.9786 23.5865 12.9978 23.6878 13.0589 23.9986C13.0729 24.0925 13.0891 24.1801 13.1079 24.2647C13.1714 24.516 12.9385 24.4813 12.9305 24.5934C12.9293 24.8203 13.0982 24.5452 13.1868 24.5862C13.2558 24.7519 13.3543 24.9474 13.4637 25.1579C13.4836 25.1971 13.5029 25.2346 13.5218 25.2706C13.4846 25.2473 13.4469 25.2218 13.4088 25.194C13.39 25.1796 13.3717 25.1658 13.3533 25.1514C13.3642 25.1697 13.3747 25.1895 13.3845 25.21C13.4264 25.3002 13.4411 25.3905 13.3044 25.2931C13.3118 25.3397 13.3148 25.385 13.3235 25.4308C13.4116 25.386 13.5289 25.5298 13.5856 25.5042C13.6412 25.48 13.5692 25.4103 13.5738 25.4073C13.6282 25.3694 13.8251 25.7449 13.8541 25.7774C13.9003 25.8541 13.7594 25.8876 13.8191 25.935C13.9251 26.0182 14.0293 25.773 13.9365 26.1407C14.0636 26.1107 14.03 26.1561 14.095 26.2244C14.1036 26.2332 14.1381 26.1802 14.1432 26.1826C14.2799 26.2418 14.1215 26.2568 14.1179 26.262C14.0723 26.3273 14.1404 26.3804 14.1874 26.4158C14.2027 26.4273 14.2154 26.4364 14.2196 26.4436C14.4251 26.7818 14.6252 27.0176 14.9987 27.2136C15.0792 27.2578 15.3555 27.3113 15.4374 27.3553C15.5172 27.4002 15.4483 27.4588 15.4817 27.5086C15.6109 27.3578 15.6921 27.3521 15.8313 27.55C15.8386 27.5451 15.8455 27.5408 15.8519 27.5371L15.8398 27.5314C15.9252 27.4565 15.8788 27.5391 16.0088 27.5654C16.0267 27.5695 16.0485 27.5722 16.0733 27.5753C16.2025 27.5928 16.2796 27.5097 16.3449 27.6458C16.2408 27.6066 16.236 27.6784 16.1136 27.6697C16.1043 27.6684 16.0849 27.6609 16.0403 27.6417C15.9732 27.613 15.89 27.5909 15.8211 27.5748C15.6907 27.5324 15.5784 27.5398 15.5735 27.6074C15.569 27.6804 15.7458 27.6773 15.7463 27.6954C15.7414 27.7793 15.6324 27.8304 15.5719 27.7746C15.5951 27.7663 15.6223 27.7595 15.6475 27.7528C15.5127 27.5996 15.5095 27.9939 15.4817 27.6416C15.4776 27.5983 15.4968 27.5609 15.4824 27.5117C15.4713 27.5265 15.4915 27.5787 15.4602 27.5767C15.4287 27.5747 15.3986 27.4783 15.3685 27.5415C15.325 27.6337 15.4586 27.6352 15.4661 27.6438C15.4664 27.6433 15.4667 27.6427 15.467 27.6422C15.5305 27.7193 15.3605 27.6705 15.3495 27.6769C15.2767 27.7194 15.2987 27.7778 15.2015 27.8002C15.1458 27.8131 15.0326 27.7544 14.985 27.7462C14.938 27.7388 14.989 27.8094 14.9558 27.8077C14.9227 27.8062 14.8983 27.7577 14.8595 27.7547C14.8425 27.7535 14.823 27.8031 14.8149 27.8017C14.7292 27.7881 14.8228 27.7074 14.751 27.6836C14.7048 27.6691 14.5083 27.6896 14.6008 27.7677C14.5448 27.7533 14.4916 27.7358 14.4376 27.7173C14.462 27.7478 14.4905 27.7741 14.514 27.8063C14.4286 27.7362 14.3441 27.794 14.2796 27.7665C14.2157 27.7388 14.2188 27.614 14.1273 27.6205C13.9301 27.6331 14.2998 27.7967 14.3366 27.8338C14.3502 27.8501 14.2437 27.8906 14.2317 27.8865C14.1802 27.8706 14.1568 27.7864 14.1218 27.7688C13.9946 27.7046 13.876 27.7236 13.7532 27.6573C13.6164 27.5827 13.4742 27.493 13.3366 27.3936C13.088 27.2189 12.8314 27.0188 12.6186 26.8127C12.5002 26.6979 12.5012 26.5584 12.451 26.5022C12.3337 26.3681 12.2563 26.3957 12.1625 26.2725C12.1215 26.2178 12.0838 26.1536 12.051 26.0889C11.9808 25.9482 11.916 25.7791 11.8599 25.6652C11.8046 25.5544 11.6793 25.4851 11.6608 25.4542C11.4733 25.1564 11.3174 24.7276 11.248 24.3985C11.2324 24.3298 11.2009 24.2154 11.1748 24.1031C11.1318 23.9172 11.2036 23.8061 11.1949 23.7698C11.16 23.6039 11.0932 23.6577 11.086 23.5218C11.083 23.4501 11.1527 23.43 11.1547 23.4209C11.1715 23.3363 11.0785 23.3275 11.0717 23.2626C11.0353 22.8953 11.1047 22.5689 11.1299 22.239C11.1318 22.2153 11.1726 22.2195 11.1713 22.2039C11.165 22.1362 11.0988 22.1635 11.0982 22.0946C11.0975 22.0151 11.1033 21.9385 11.1122 21.8568C11.1192 21.7963 11.1276 21.7347 11.1353 21.6716C11.137 21.6579 11.1899 21.6549 11.1918 21.6234C11.1937 21.5919 11.1453 21.565 11.1509 21.5153C11.1653 21.3854 11.2313 21.2577 11.2415 21.1149C11.2431 21.0914 11.1812 21.0587 11.1837 21.0231C11.1913 20.911 11.2577 20.7446 11.2663 20.6443C11.2874 20.3946 11.2868 20.1489 11.3218 19.8748C11.3309 19.8006 11.3412 19.727 11.354 19.6534C11.3664 19.5827 11.4357 19.5299 11.4437 19.4936C11.4619 19.4111 11.3957 19.464 11.4111 19.3796C11.5033 18.8836 11.6146 18.4281 11.7028 17.9604C11.7416 17.7572 11.7839 17.5558 11.8272 17.3561C11.8868 17.0802 11.9141 16.7372 11.9953 16.4879C12.0292 16.3845 12.1084 16.3849 12.1281 16.3117C12.1628 16.1815 12.0738 16.1332 12.0979 15.9974C12.1096 15.9315 12.1607 15.8701 12.2024 15.808C12.2298 15.7649 12.2538 15.7208 12.2623 15.6745C12.2844 15.555 12.2046 15.4776 12.2284 15.3346C12.248 15.2166 12.3329 15.0635 12.3628 14.9333C12.4275 14.6492 12.5065 14.3649 12.5981 14.089C12.8269 13.3422 13.0825 12.5085 13.4004 11.7216C13.4034 11.714 13.4064 11.7065 13.4095 11.699C13.5606 11.3285 13.672 10.9111 13.9265 10.5035C13.9442 10.4758 13.9823 10.5202 14.0142 10.4911C14.0249 10.4827 14.0344 10.4659 14.041 10.4348C14.0542 10.3714 14.0119 10.2604 14.0604 10.1185C14.2526 9.55359 14.5402 8.94411 14.8455 8.34653C14.9786 8.09099 15.0926 7.81461 15.1978 7.51256C15.2926 7.24212 15.3784 6.94028 15.5072 6.62314C15.6293 6.13814 15.7408 5.3454 16.0376 4.77331C16.2391 4.3908 16.4664 4.05787 17.0264 3.73608C17.1273 3.6845 17.264 3.88233 17.2948 3.95093C17.2338 3.95478 17.1668 3.95582 17.0994 3.96556C17.3237 4.15576 17.2618 4.10366 17.1653 4.24593C17.1081 4.33273 17.2544 4.30875 17.2646 4.37183C17.2762 4.45241 17.2956 4.79886 17.139 4.67439C17.1629 4.70504 17.1863 4.73299 17.2099 4.76244C17.1796 4.89147 17.1579 5.02082 17.1408 5.15211C17.1277 5.25211 17.1168 5.35255 17.1068 5.45378C17.1029 5.49436 17.159 5.51569 17.1546 5.55756C17.1432 5.67014 17.0772 5.73981 17.0451 5.84901C17.0276 5.90844 17.0901 5.93964 17.0588 6.01452C17.0272 6.08967 16.94 6.05607 16.9979 6.19494C17.133 6.16684 16.9428 6.44129 16.9074 6.55283C16.9026 6.56857 16.9511 6.73651 16.9114 6.80256C16.8718 6.86915 16.7673 6.94815 16.7503 7.078C16.7416 7.13982 16.8007 7.20788 16.7687 7.2792C16.7641 7.28941 16.7565 7.29857 16.7469 7.30707C16.7182 7.3238 16.6609 7.33071 16.6426 7.36083C16.6195 7.3983 16.632 7.51052 16.6257 7.52682C16.6026 7.58626 16.5855 7.50079 16.5648 7.5396C16.4654 7.72758 16.3452 7.96497 16.2937 8.19612C16.2873 8.22444 16.358 8.20896 16.3585 8.21325C16.3574 8.42304 16.3214 8.29723 16.2518 8.32733C16.1858 8.3559 16.0685 8.72451 16.1621 8.76925C16.0362 8.7293 16.0944 8.84893 16.0885 8.87183C16.087 8.87811 16.085 8.88363 16.0827 8.88851C16.0558 8.94535 15.9713 8.89932 15.9726 8.97916C15.9732 9.01049 16.0658 8.98959 16.0517 9.0169C16.0168 9.0843 15.8763 9.09965 15.8261 9.18984C15.8139 9.21166 15.8619 9.23982 15.8438 9.27963C15.8255 9.31938 15.6952 9.46664 15.8345 9.42976C15.7071 9.49986 15.7464 9.53982 15.6975 9.66105C15.685 9.69169 15.5868 9.7005 15.5877 9.77678C15.5881 9.80247 15.6685 9.8318 15.6565 9.86587C15.6295 9.94395 15.5194 9.98676 15.4798 10.0852C15.4054 10.269 15.3913 10.4909 15.2961 10.6817C15.2701 10.7335 15.1948 10.6897 15.1634 10.7674C15.1593 10.7782 15.189 10.8885 15.1677 10.9441C15.1668 10.9466 15.1657 10.9491 15.1644 10.9513C15.1488 10.978 15.0422 11.1158 15.0271 11.1475C15.0019 11.1987 15.0771 11.2359 15.0517 11.2598C14.978 11.3304 14.8854 11.2222 15.009 11.3799C14.9094 11.3849 14.8978 11.4492 14.7827 11.4332C14.8896 11.5087 14.76 11.5175 14.7768 11.601C14.7937 11.6843 15.0055 11.8173 14.7517 11.7534C14.771 11.7965 14.7769 11.953 14.7727 11.9784C14.7607 12.0512 14.704 11.9923 14.6962 12.0475C14.6948 12.0572 14.7447 12.0634 14.7207 12.121C14.7184 12.1264 14.7145 12.1368 14.7095 12.1508C14.679 12.2348 14.6062 12.4469 14.5959 12.4595C14.4584 12.6307 14.5843 12.3378 14.5472 12.2794C14.563 12.2763 14.5788 12.2733 14.5946 12.2697C14.6451 12.1907 14.523 12.2048 14.4855 12.2361C14.4481 12.267 14.4714 12.3555 14.426 12.3765C14.4032 12.3868 14.2793 12.3353 14.3108 12.2914C14.2544 12.3309 14.2366 12.2458 14.193 12.2545C14.1452 12.2639 14.0556 12.4951 14.1253 12.5191C14.1421 12.4762 14.1577 12.4205 14.1751 12.3772C14.3158 12.3592 14.6737 12.6715 14.4544 12.7791C14.2956 12.8573 14.2639 12.6319 14.2733 12.943C14.2923 12.9015 14.3153 12.8699 14.3333 12.8322C14.4259 12.8581 14.3048 12.8885 14.3233 12.9301C14.3323 12.9503 14.4284 12.876 14.4226 12.966C14.2683 12.9954 14.3816 13.0931 14.3433 13.2143C14.3311 13.1733 14.3191 13.1318 14.3068 13.091C14.1453 13.2627 14.2695 12.7809 14.0864 13.1582C14.0977 13.1098 14.1146 13.0623 14.1239 13.0126C14.0683 13.02 13.9401 12.9366 13.9035 12.9476C13.8078 12.9758 13.8282 13.0719 13.7994 13.1361C13.787 13.1639 13.755 13.1335 13.754 13.1359C13.7367 13.174 13.7951 13.184 13.7871 13.2199C13.7772 13.2649 13.6809 13.3742 13.6805 13.3962C13.6785 13.4546 13.8175 13.4028 13.824 13.4106C13.866 13.4616 13.7987 13.5168 13.8695 13.536C13.8772 13.3538 14.0972 12.8938 14.0685 13.3663C14.2203 13.2841 14.3641 13.3688 14.3188 13.546C14.2817 13.6918 14.2501 13.5798 14.1573 13.6311C14.1456 13.638 14.0494 13.8177 14.094 13.8441C13.9856 13.7995 13.8668 13.8278 13.7662 13.7483C13.7513 13.7369 13.7843 13.6604 13.6831 13.6569C13.6322 13.6553 13.5185 13.6607 13.4618 13.6346C13.4974 13.6642 13.5378 13.6962 13.575 13.7271C13.5476 13.848 13.4979 13.8496 13.4001 13.8874C13.4329 13.8952 13.5866 13.8816 13.5155 13.9573C13.5116 13.9609 13.4622 13.9489 13.4229 13.9859C13.3438 14.0612 13.3227 14.074 13.2059 13.9564C13.2185 14.1306 13.1079 14.1562 13.0554 14.2605C13.0417 14.2887 13.0311 14.3216 13.0257 14.3632C13.127 14.3762 13.1702 14.3595 13.1936 14.3123C13.2135 14.2732 13.2155 14.2089 13.2284 14.1189C13.2741 14.1261 13.3178 14.1374 13.3639 14.1449C13.2111 14.3147 13.2249 14.2572 13.2566 14.336C13.2619 14.3507 13.2676 14.3698 13.2731 14.3951C13.2815 14.4363 13.1954 14.607 13.338 14.5901C13.3714 14.5858 13.4075 14.4755 13.4479 14.5045C13.4554 14.5098 13.4299 14.6501 13.4145 14.6577C13.2206 14.7567 13.2069 14.4542 13.1251 14.8877C13.1231 14.8997 13.175 14.9202 13.1755 14.9449C13.1766 14.9909 13.1146 14.9731 13.1176 15.0149C13.1206 15.0573 13.1888 15.1331 13.0957 15.1679C12.9255 15.2341 12.9144 14.9611 13.0237 14.873C12.8489 14.7684 12.6246 15.5757 12.6356 15.6257C12.6537 15.8559 12.6987 15.4906 12.7555 15.4844C12.7792 15.482 13.0534 15.5549 12.8976 15.4201C12.8515 15.3798 12.7533 15.4741 12.7411 15.3998C12.7291 15.3252 12.8033 15.3726 12.8102 15.3692C12.8338 15.3576 12.8224 15.2786 12.8364 15.2723C13.0483 15.1778 13.3065 15.2612 12.8693 15.3443C12.9361 15.4479 13.1244 15.2994 13.1578 15.4149C13.199 15.5539 13.0521 15.6107 13.0426 15.6248C12.9312 15.7916 13.1656 15.6251 13.0536 15.834C12.9915 15.9507 12.9752 15.6188 12.9202 15.9059C12.9151 15.9328 12.9117 15.9552 12.91 15.974C12.8963 16.1207 12.9846 16.0383 13.1101 16.0843C13.1432 16.0963 13.1532 16.2382 13.1813 16.0554C13.1549 16.0453 13.1228 16.0315 13.0948 16.0173C13.0839 16.0118 13.0735 16.0062 13.0644 16.0007C13.1023 15.9637 13.3091 15.936 13.3212 15.9148C13.3792 15.8104 13.2796 15.7922 13.4113 15.7546C13.2732 15.7707 13.368 15.713 13.3483 15.6779C13.2762 15.5478 13.2044 15.6762 13.3914 15.4717C13.3243 15.4869 13.259 15.5001 13.1922 15.5154C13.1975 15.4861 13.2028 15.4568 13.2083 15.4276C13.3496 15.4183 13.3733 15.2648 13.4678 15.4353C13.5484 15.283 13.5395 15.2116 13.4493 15.1463C13.4321 15.1339 13.4317 15.1071 13.4384 15.078C13.4086 15.0749 13.3194 15.0558 13.3101 15.048C13.2285 14.9783 13.4102 14.9648 13.4653 15.0056C13.4744 14.9867 13.4828 14.9719 13.4861 14.9668C13.5068 14.9346 13.5409 15.0212 13.569 14.9987C13.578 14.9913 13.5975 14.8892 13.6209 14.8947C13.7701 14.9312 13.6111 15.0543 13.8035 14.7644C13.6751 14.7102 13.6527 14.8703 13.5261 14.7846C13.3903 14.6912 13.6208 14.6756 13.4444 14.592C13.477 14.5958 13.5032 14.6017 13.5395 14.6079C13.5163 14.4913 13.5906 14.4873 13.6513 14.484C13.6745 14.4827 13.6959 14.481 13.7096 14.4725C13.8064 14.414 13.9241 14.0417 13.6762 14.3264C13.68 14.2738 13.6914 14.2216 13.6962 14.1699C13.9741 14.2534 13.8554 14.2453 13.9763 14.0274C14.0032 13.9787 14.1294 14.0036 14.0028 13.9049C14.1413 13.9596 14.1073 13.7786 14.1288 13.771C14.2705 13.7174 14.3124 14.1066 14.0485 14.0654C14.126 14.1554 13.9982 14.1111 13.9933 14.1808C13.9863 14.2809 14.0066 14.3031 13.874 14.3794C13.9693 14.5347 14.079 13.9768 14.144 14.3601C14.154 14.4229 14.1494 14.5227 14.1253 14.6617C14.0652 15.0398 13.956 15.6395 13.8723 16.1997C13.8078 16.5811 13.7445 16.8768 13.7176 17.0212C13.6144 17.5581 13.5628 17.9053 13.5051 18.2838C13.4743 18.4851 13.4364 18.6959 13.3865 18.9346C13.3709 19.0107 13.2773 19.5472 13.1402 19.4044C13.1202 19.3844 13.1054 19.1425 12.941 19.3147C13.0228 19.2895 13.048 19.4143 13.054 19.4253C13.1883 19.6798 13.2547 19.5606 13.1943 19.9029ZM11.6352 20.7673C11.7034 20.2841 11.5718 20.6338 11.3337 20.5146C11.3284 20.579 11.3236 20.6427 11.3191 20.7056C11.3355 20.6898 11.3518 20.6745 11.3682 20.6588C11.3682 20.6588 11.3682 20.6587 11.3682 20.6586C11.4571 20.6953 11.5461 20.7319 11.6352 20.7673ZM14.6203 27.9484C14.5877 27.9694 14.5544 27.9898 14.52 28.0088C14.4566 27.9685 14.3949 27.9272 14.334 27.8841C14.352 27.8688 14.3698 27.853 14.3875 27.8375C14.4636 27.8777 14.5407 27.9157 14.6203 27.9484ZM13.0102 14.7974C13.1235 14.7381 12.9683 14.6961 13.0765 14.6039C12.9597 14.5799 12.8447 14.5588 12.7285 14.5369C12.7149 14.6333 12.751 14.6676 12.6925 14.7576C12.7324 14.7574 12.7726 14.7571 12.8126 14.7575C12.8099 14.7386 12.8065 14.7187 12.8047 14.7007C12.9137 14.7086 12.8802 14.8674 13.0103 14.7978C13.0103 14.7976 13.0102 14.7975 13.0102 14.7974ZM13.2658 13.9209C13.2957 13.8816 13.4105 13.7228 13.3721 13.683C13.2427 13.5477 13.1735 14.0805 13.158 13.6659C13.1354 13.6602 13.1143 13.6512 13.0924 13.6438C13.0622 13.7078 13.0329 13.7723 13.0038 13.8371C13.092 13.8633 13.177 13.8951 13.2658 13.9209ZM11.8775 19.013C11.9046 18.9428 11.8955 18.5889 11.7704 18.6788C11.7338 18.7051 11.8511 18.8859 11.833 18.9429C11.8213 18.9797 11.7489 18.9213 11.7638 19.0017C11.8001 19.0055 11.84 19.0113 11.8773 19.0127C11.8774 19.0128 11.8774 19.0129 11.8775 19.013ZM12.3217 19.2412C12.3219 19.1643 12.3186 19.0856 12.3182 19.0081C12.2151 19.044 12.253 19.1628 12.122 19.1435C12.1162 19.121 12.1105 19.0989 12.1047 19.0765C12.1362 19.0665 12.1677 19.0568 12.1991 19.0471C12.1414 18.969 12.0987 19.0007 12.1428 18.8858C11.9325 18.9185 11.8244 18.9105 11.982 19.1552C11.8834 19.0953 11.5292 19.0633 11.7546 19.2271C11.7965 19.2575 11.8447 19.1739 11.8523 19.1743C11.946 19.1785 11.9944 19.2394 12.0834 19.2416C12.1236 19.2425 12.1336 19.1884 12.1893 19.1909C12.2163 19.1924 12.2814 19.2585 12.3217 19.2412ZM11.8307 19.2997C11.78 19.2657 11.6335 19.3204 11.647 19.3955C11.668 19.5115 11.8246 19.364 11.8307 19.2997ZM14.6208 27.9485C14.6206 27.9485 14.6205 27.9485 14.6203 27.9484C14.6204 27.9484 14.6205 27.9483 14.6207 27.9482C14.6207 27.9483 14.6207 27.9484 14.6208 27.9485ZM13.1255 14.1265C13.0986 14.0597 13.1317 13.9853 13.0579 13.9662C13.0809 13.9453 13.1032 13.9256 13.1263 13.9044C13.1046 13.8972 13.0828 13.8903 13.0613 13.8832C13.0218 13.9546 12.9819 14.0258 12.9423 14.0939C13.0031 14.1055 13.0639 14.1174 13.1255 14.1265ZM13.4597 13.3068C13.4994 13.2117 13.3741 13.261 13.3338 13.2239C13.2937 13.1863 13.3608 13.113 13.2895 13.1004C13.2677 13.1572 13.2453 13.2158 13.2236 13.2729C13.3027 13.282 13.3815 13.2964 13.4598 13.3067C13.4597 13.3067 13.4597 13.3068 13.4597 13.3068ZM11.4534 22.7111C11.4772 22.636 11.5549 22.6705 11.4667 22.5228C11.4666 22.5229 11.4666 22.523 11.4666 22.5231C11.3977 22.6583 11.3375 22.8381 11.403 22.995C11.4846 22.8993 11.4169 22.8262 11.4534 22.7111ZM12.7133 14.9743C12.7647 15.0212 12.8551 14.8981 12.8091 14.8508C12.7343 14.7734 12.635 14.902 12.7133 14.9743ZM12.7096 25.3997C12.9287 25.3832 12.9998 25.1012 12.8224 24.9814C12.8063 24.9705 12.8192 25.1124 12.7676 25.0989C12.7623 25.0976 12.7299 25.0336 12.698 25.0316C12.6659 25.0295 12.6212 25.0769 12.5838 25.0638C12.5174 25.0401 12.5376 24.8968 12.4675 24.8885C12.4577 24.8871 12.4165 24.9909 12.4163 24.9969C12.4075 25.0899 12.5399 25.102 12.546 25.1113C12.5795 25.1619 12.5014 25.197 12.492 25.2208C12.4746 25.2656 12.5339 25.2906 12.5334 25.295C12.5186 25.4145 12.4247 25.2195 12.384 25.2082C12.2725 25.1783 12.2409 25.2861 12.105 25.1277C12.0925 25.1135 11.9914 24.8968 12.0396 25.2081C11.5937 24.7497 12.0763 25.5435 12.1696 25.5737C12.2089 25.5983 12.2448 25.502 12.2892 25.504C12.3903 25.5084 12.4535 25.5796 12.5483 25.5087C12.7473 25.3594 12.5453 25.3453 12.5372 25.2504C12.5878 25.2301 12.6347 25.206 12.6879 25.1921C12.6137 25.2076 12.6925 25.4011 12.7091 25.4C12.7093 25.3999 12.7094 25.3998 12.7096 25.3997ZM11.9084 24.2721C11.9109 24.2647 11.9128 24.2578 11.9142 24.2514C11.9414 24.1525 11.8095 24.1873 11.867 24.0684C11.7069 24.0086 11.763 24.192 11.759 24.2097C11.7539 24.2491 11.7253 24.276 11.6977 24.2992C11.6595 24.3419 11.6238 24.3779 11.6674 24.4376C11.7457 24.3774 11.8275 24.3259 11.9084 24.2721ZM12.252 25.32C12.1411 25.2868 12.218 25.4169 12.2084 25.4295C12.1036 25.5727 11.9014 25.1532 12.252 25.32ZM12.2748 18.6311C12.2877 18.5932 12.2083 18.6035 12.1929 18.5652C12.1774 18.5266 12.2634 18.423 12.2165 18.4167C12.1693 18.4114 12.008 18.6003 12.0227 18.3822C11.9952 18.3845 11.9762 18.3784 11.9519 18.3774C11.9402 18.4352 11.9276 18.4946 11.9155 18.5526C11.9969 18.5353 12.0824 18.5172 12.1609 18.5006C12.2144 18.5448 12.134 18.549 12.1337 18.5506C12.1338 18.5506 12.1338 18.5507 12.1339 18.5507C12.128 18.6132 12.2462 18.7152 12.2748 18.6311ZM11.6516 21.7183C11.8407 21.7418 11.6344 21.6371 11.613 21.5983C11.5917 21.5596 11.6648 21.5117 11.582 21.5266C11.5224 21.5842 11.6306 21.7156 11.6518 21.7183C11.6518 21.7183 11.6517 21.7183 11.6516 21.7183ZM11.7705 23.6335C11.7108 23.536 11.663 23.5564 11.7066 23.4232C11.6613 23.4323 11.615 23.4417 11.5704 23.451C11.5801 23.5561 11.7112 23.5322 11.6745 23.6585C11.6688 23.6791 11.5566 23.6528 11.6047 23.7378C11.6566 23.7032 11.7148 23.6658 11.7705 23.6335ZM11.5568 23.1298C11.569 23.2517 11.9448 23.3201 11.7677 23.1164C11.7415 23.0861 11.5484 23.0392 11.5568 23.1298ZM12.0862 19.6481C12.1312 19.4615 12.0329 19.6649 11.968 19.7044C12.0032 19.2554 11.9738 19.7564 11.7797 19.768C11.8235 19.8321 11.9285 19.953 11.9802 19.847C12.0019 19.8024 11.9432 19.8099 11.9439 19.8071C11.9727 19.7237 12.062 19.7499 12.0862 19.6481ZM11.9703 24.4799C11.9655 24.4732 11.907 24.5024 11.8879 24.4817C11.8688 24.4607 11.8981 24.3946 11.8586 24.3989C11.8184 24.4028 11.8181 24.5228 11.8565 24.5493C11.8948 24.5754 12.0132 24.5398 11.9703 24.4799ZM11.9531 23.7149C11.8907 23.6229 11.6853 23.8271 11.6922 23.852C11.745 24.0455 11.8755 23.718 11.9531 23.7149ZM12.4091 20.1464C12.391 20.0989 12.3676 20.0661 12.3401 20.045C12.298 20.0108 12.2456 20.0064 12.1903 20.0199C12.1064 20.0394 12.0165 20.1034 11.9483 20.1673C11.9711 20.1902 11.994 20.2129 12.0169 20.2348C11.8745 20.1294 11.7403 19.9494 11.8346 20.3183C11.8908 20.1311 11.9151 20.2954 11.9237 20.2974C12.2025 20.3458 12.105 20.0595 12.4091 20.1465C12.4091 20.1465 12.4091 20.1464 12.4091 20.1464ZM12.0147 24.8236C12.0545 24.9308 12.2256 25.1617 12.278 24.9896C12.1892 24.9401 12.1012 24.885 12.0147 24.8236ZM13.1528 16.4923C13.2418 16.4306 13.2596 16.3567 13.2798 16.2564C13.1576 16.3208 13.1609 16.259 13.1439 16.2231C13.1183 16.1687 13.094 16.2792 13.0872 16.2776C12.9929 16.2517 12.9959 16.1785 12.9579 16.3372C12.935 16.2896 12.9115 16.2427 12.8884 16.1957C12.8539 16.3145 12.7846 16.3271 12.6896 16.3834C12.893 16.3572 12.7526 16.4245 12.8213 16.5368C12.8557 16.5929 13.1074 16.5238 13.1529 16.492C13.1529 16.4921 13.1529 16.4922 13.1528 16.4923ZM12.4839 19.926C12.4541 19.8968 12.4121 19.868 12.3773 19.839C12.378 19.8136 12.379 19.7893 12.3797 19.7639C12.4101 19.7662 12.4418 19.7693 12.4711 19.7709C12.4855 19.7404 12.4417 19.7455 12.4395 19.7353C12.4397 19.7354 12.4398 19.7354 12.44 19.7354C12.4096 19.5889 12.4265 19.5337 12.539 19.4448C12.4477 19.4272 12.3565 19.4097 12.2653 19.3922C12.2694 19.4179 12.2731 19.4442 12.277 19.4698C12.3237 19.4919 12.3703 19.5141 12.4169 19.5362C12.3847 19.5587 12.3526 19.5819 12.3204 19.6044C12.334 19.6301 12.3476 19.6604 12.3613 19.6828C12.0854 19.7486 12.3054 19.5255 12.2001 19.5038C12.132 19.4891 12.0879 19.7477 12.1289 19.7928C12.1349 19.7992 12.3349 19.7775 12.2194 19.8535C12.2013 19.8654 11.788 19.7999 12.1046 19.9586C12.1495 19.9811 12.4143 19.9736 12.4839 19.926ZM12.791 19.0317C12.5 19.1233 12.8832 18.6469 12.6216 18.8336C12.514 18.744 12.5131 18.7569 12.3931 18.8013C12.3823 18.8052 12.3582 18.7533 12.3532 18.7563C12.2821 18.8058 12.2985 18.8862 12.1912 18.8652C12.1936 18.8828 12.1955 18.8995 12.1979 18.9172C12.3129 18.8682 12.3588 18.9919 12.4356 19.0514C12.4704 19.0786 12.4912 19.0364 12.5218 19.0595C12.5329 19.068 12.4958 19.1251 12.5307 19.1348C12.6098 19.156 12.7257 19.1388 12.798 19.0844C12.7981 19.0845 12.7982 19.0845 12.7982 19.0845C12.7963 19.0668 12.7932 19.0494 12.791 19.0317ZM12.2296 22.0649C12.0805 22.0796 12.0315 22.1767 11.9721 21.9811C11.9424 21.9886 11.9129 21.9964 11.8832 22.0039C11.8835 22.0362 11.884 22.0675 11.8843 22.1014C12.3129 22.2249 11.8132 22.3769 12.1275 22.2791C12.1617 22.2685 12.1284 22.1899 12.2154 22.2702C12.2155 22.2701 12.2156 22.27 12.2157 22.27C12.1935 22.1625 12.1419 22.1483 12.2296 22.0649ZM12.17 21.3498C11.8714 21.091 11.9792 21.6768 12.0664 21.5849C12.0745 21.5765 12.0207 21.3233 12.17 21.3498ZM12.3822 23.2737C12.3808 23.1732 12.2136 23.1736 12.1535 23.1874C12.0933 23.2005 12.159 23.2723 12.1502 23.2813C12.1209 23.3143 12.0957 23.2505 12.0554 23.2934C12.0413 23.3083 11.9995 23.5031 12.0088 23.5114C12.0546 23.5549 12.1836 23.4681 12.2011 23.4801C12.2576 23.5171 12.1943 23.5839 12.2691 23.5854C12.4282 23.5879 12.25 23.5079 12.2455 23.4887C12.2316 23.4347 12.3202 23.4296 12.3339 23.3879C12.3477 23.3461 12.3153 23.3226 12.3189 23.2856C12.3201 23.2732 12.382 23.279 12.3822 23.2737ZM12.0144 22.9388C12.1426 23.0483 12.2783 22.7764 12.2501 22.7451C12.1627 22.6485 11.9522 22.8821 12.0144 22.9388ZM12.3237 19.3116C12.3942 19.4314 12.5138 19.208 12.4912 19.1326C12.4511 19.1377 12.2994 19.2701 12.3237 19.3116ZM12.4006 20.2059C12.3843 20.1111 12.1616 20.2049 12.1565 20.2866C12.2873 20.3472 12.2647 20.3009 12.2762 20.2507C12.2878 20.2011 12.4139 20.2794 12.4006 20.2059ZM12.4518 24.3986C12.446 24.3837 12.2599 24.0974 12.2586 24.2896C12.2569 24.3051 12.3399 24.5204 12.3671 24.5285C12.4182 24.5469 12.4598 24.4474 12.4518 24.3986ZM12.5605 20.663C12.446 20.6063 12.4513 20.557 12.3098 20.5927C12.3098 20.5928 12.3098 20.5929 12.3098 20.5929C12.2768 20.463 12.5603 20.4821 12.5565 20.4555C12.5437 20.362 12.3346 20.4307 12.2743 20.3655C12.3235 20.5093 12.1917 20.4576 12.1748 20.5638C12.1711 20.5878 12.2457 20.6889 12.2954 20.7059C12.3451 20.7228 12.4997 20.6843 12.5605 20.663ZM12.6365 24.7928C12.6338 24.6829 12.4193 24.6656 12.4529 24.817C12.4713 24.8922 12.64 24.8619 12.6365 24.7928ZM13.9557 13.9838C13.9025 13.9844 13.8495 13.9853 13.7966 13.9866C13.7984 13.9434 13.8 13.9002 13.8017 13.8562C13.806 13.8933 13.8106 13.9283 13.8146 13.9655C13.8563 13.8967 13.954 13.8925 13.9557 13.9836C13.9557 13.9836 13.9557 13.9837 13.9557 13.9838ZM14.8626 11.3562C14.9192 11.3391 14.7993 11.2269 14.7855 11.2313C14.6822 11.265 14.7839 11.3805 14.8626 11.3562ZM12.799 19.2489C12.8447 19.1265 12.5889 19.1659 12.5571 19.2404C12.6122 19.202 12.7731 19.3183 12.799 19.2489ZM14.5472 12.2794C14.5237 12.2839 14.5002 12.2885 14.4763 12.2944C14.5166 12.2646 14.5375 12.2638 14.5472 12.2794ZM12.6444 24.2924C12.657 24.271 12.6403 24.1431 12.6144 24.1305C12.5587 24.1046 12.4512 24.2379 12.5078 24.2878C12.5139 24.2938 12.6313 24.3145 12.6444 24.2921C12.6444 24.2922 12.6444 24.2923 12.6444 24.2924ZM14.1002 13.8465C14.0979 13.846 14.0958 13.8452 14.094 13.8441C14.096 13.845 14.0982 13.8456 14.1002 13.8465ZM16.1728 8.77245C16.169 8.77177 16.1654 8.77074 16.1621 8.76925C16.1655 8.77032 16.1692 8.77115 16.1728 8.77245ZM12.6579 23.3405C12.8846 23.2792 12.7553 23.1941 12.6466 23.2788C12.6408 23.2837 12.6573 23.3302 12.6579 23.3405Z" fill="#E8E8E8"/>
</svg>
