<svg width="24" height="26" viewBox="0 0 24 26" fill="none" xmlns="http://www.w3.org/2000/svg">
<path d="M13.6911 11.7556C14.4238 11.9236 15.2317 12.0779 15.9583 12.2796C16.0479 12.3044 16.0266 12.3685 16.0501 12.3827C16.1138 12.4218 16.1726 12.3536 16.222 12.3704C16.37 12.4204 16.5097 12.4619 16.6536 12.5049L16.6916 12.514C16.7827 12.5455 16.8723 12.5769 16.9622 12.6107C17.2038 12.7012 17.0337 12.8724 17.1069 12.9442C17.2493 13.0848 17.1756 12.7838 17.2576 12.7422C17.4467 12.809 17.632 12.8885 17.8172 12.9682C17.7631 12.9802 17.7112 12.9923 17.6568 13.0023C17.7396 13.0299 17.8486 13.1021 17.6902 13.1339C17.7155 13.1608 17.7396 13.1909 17.7664 13.2177C17.8001 13.1241 17.9497 13.1552 17.9788 13.102C18.0071 13.0486 17.9205 13.0399 17.9225 13.0351C17.9467 12.9659 18.2609 13.1512 18.2834 13.1651C18.342 13.2025 18.2554 13.3072 18.3124 13.3136C18.4096 13.3243 18.4084 13.0662 18.4549 13.4205C18.5313 13.3282 18.5229 13.384 18.5846 13.4067C18.5929 13.4097 18.6011 13.3473 18.6052 13.3467C18.7128 13.325 18.6113 13.42 18.6102 13.4263C18.5939 13.5325 18.7091 13.5111 18.7286 13.5261C18.9594 13.7032 19.1378 13.8263 19.401 13.906C19.4126 13.9098 19.4296 13.9141 19.4471 13.9183C19.5106 13.9339 19.712 13.9145 19.7726 13.9389C19.8325 13.9634 19.7912 14.0365 19.8199 14.0767C19.8915 13.8976 19.9415 13.8823 20.0477 14.0147C20.1037 13.884 20.0881 13.9922 20.1744 13.9726C20.2462 13.9564 20.3815 13.8047 20.4475 13.949C20.3599 13.9291 20.3636 13.9961 20.2607 14.0277C20.2261 14.0387 19.8821 14.0101 19.894 14.1496C19.9004 14.2228 20.0217 14.1678 20.0248 14.1813C20.0437 14.2608 19.9705 14.3498 19.9164 14.311C19.9321 14.2968 19.9508 14.2827 19.9675 14.2686C19.849 14.1599 19.9002 14.5385 19.8352 14.2054C19.8272 14.1646 19.8361 14.1237 19.8208 14.0795C19.8149 14.0965 19.8346 14.1422 19.813 14.1478C19.7909 14.1534 19.7595 14.0671 19.7461 14.1356C19.7261 14.2351 19.8187 14.2049 19.8247 14.2114C19.8248 14.2108 19.8249 14.2102 19.8251 14.2096C19.8784 14.269 19.7549 14.2624 19.7479 14.2712C19.703 14.3296 19.724 14.3808 19.6604 14.426C19.624 14.4518 19.5417 14.4244 19.5094 14.43C19.4771 14.4358 19.5195 14.4893 19.4973 14.4969C19.4751 14.5044 19.4536 14.4651 19.4275 14.4736C19.4163 14.4774 19.4098 14.5303 19.4045 14.5315C19.3467 14.5444 19.3977 14.4395 19.3473 14.4393C19.3406 14.4393 19.3302 14.443 19.3183 14.4491C19.2629 14.4704 19.1949 14.5298 19.2497 14.5642C19.2122 14.5687 19.1758 14.5701 19.1387 14.5719C19.1583 14.5916 19.1797 14.6064 19.1985 14.6287C19.1357 14.5917 19.0888 14.6758 19.045 14.6744C19.0011 14.673 18.9845 14.5582 18.9278 14.6013C18.8061 14.6929 19.0626 14.6905 19.0897 14.7155C19.1003 14.7255 19.0385 14.8013 19.0308 14.8023C18.9971 14.8069 18.9713 14.7394 18.9466 14.7374C18.8578 14.7303 18.7884 14.7985 18.7022 14.7967C18.4085 14.7905 18.0593 14.7492 17.8033 14.7014C17.7075 14.6834 17.6742 14.5806 17.6321 14.5723C17.5323 14.5524 17.5009 14.6262 17.4147 14.6078C17.2864 14.5808 17.1272 14.4672 17.0255 14.4249C16.9568 14.3961 16.8699 14.4526 16.8513 14.4496C16.6485 14.4176 16.4167 14.3609 16.2223 14.3113L16.2621 14.3208C16.1972 14.3072 16.1365 14.2941 16.0822 14.2826C15.9779 14.2604 15.9476 14.1655 15.9254 14.1633C15.8301 14.1534 15.8393 14.2309 15.7658 14.2072C15.7261 14.1944 15.7338 14.1236 15.729 14.1197C15.6864 14.0865 15.6571 14.1747 15.6195 14.1695C15.401 14.1392 15.2086 14.0342 14.9992 13.978C14.9841 13.9738 14.9944 13.9342 14.9841 13.934C14.9394 13.9342 14.9454 14.0017 14.8994 13.9961C14.8037 13.9848 14.7108 13.9528 14.6151 13.9226C14.6057 13.9196 14.613 13.8673 14.5905 13.8621C14.5681 13.857 14.54 13.9018 14.5054 13.891C14.4149 13.8629 14.34 13.7844 14.2429 13.7587C14.2269 13.7545 14.1927 13.8117 14.1688 13.8055C14.0934 13.7859 13.9968 13.7044 13.9316 13.6871C13.72 13.6312 13.5157 13.6203 13.3154 13.5735C13.2681 13.5623 13.2399 13.4953 13.2159 13.4882C13.1616 13.4722 13.1902 13.536 13.1347 13.5231C12.6786 13.4165 12.225 13.2815 11.7652 13.1749C11.5832 13.1326 11.3503 13.1353 11.1801 13.0779C11.1087 13.0536 11.1138 12.9759 11.063 12.9629C10.9735 12.9403 10.9314 13.0314 10.8334 13.0179C10.7559 13.0071 10.6891 12.89 10.6085 12.8768C10.5285 12.8639 10.4675 12.9474 10.3738 12.9367C10.2977 12.9281 10.1999 12.8603 10.1177 12.848C9.51602 12.7582 8.92341 12.6552 8.36673 12.5282C8.20365 12.492 8.04127 12.4512 7.87941 12.4049C7.61075 12.3282 7.30438 12.2842 7.03964 12.1374C7.01486 12.1236 7.07284 12.0409 6.98438 12.0435C6.93655 12.0449 6.85733 12.1104 6.75136 12.0937C6.1184 11.9933 5.48275 11.6893 4.83912 11.5812C3.88444 11.422 2.69224 11.8058 2.13296 10.6243C2.10715 10.5667 2.1987 10.3535 2.24175 10.2982C2.24951 10.3498 2.25335 10.4094 2.26111 10.4672C2.37594 10.2007 2.34829 10.271 2.44821 10.3283C2.5104 10.3638 2.49246 10.2296 2.53807 10.2067C2.59604 10.1771 2.84922 10.1019 2.7554 10.2736C2.7778 10.2456 2.79878 10.2186 2.82063 10.1911C2.98301 10.2072 3.14745 10.2025 3.31243 10.1894C3.34117 10.1871 3.35768 10.1295 3.38736 10.1274C3.46619 10.1211 3.51414 10.1742 3.59078 10.1876C3.63208 10.1948 3.65472 10.1291 3.7071 10.1469C3.75971 10.1648 3.73563 10.2552 3.83285 10.1747C3.81381 10.0491 4.00452 10.1841 4.08196 10.1953C4.09359 10.1972 4.20725 10.1162 4.25217 10.1393C4.29756 10.1624 4.35434 10.2451 4.43736 10.2253C4.4762 10.2159 4.5167 10.1411 4.55465 10.1451C4.58154 10.148 4.59666 10.2264 4.62948 10.2371C4.66237 10.2478 4.74823 10.206 4.76145 10.208C4.80999 10.215 4.74599 10.253 4.77806 10.263C4.93443 10.3105 5.11119 10.378 5.27561 10.3786C5.29584 10.3788 5.28199 10.3139 5.285 10.3124C5.43102 10.2684 5.34467 10.3302 5.36837 10.3907C5.39138 10.4494 5.64759 10.4751 5.67142 10.3727C5.65169 10.503 5.72868 10.4166 5.74361 10.4158C5.80267 10.4131 5.76818 10.5221 5.83001 10.4992C5.85269 10.4908 5.82951 10.4073 5.85057 10.4141C5.90267 10.4307 5.92532 10.5618 5.99349 10.5886C6.00998 10.5951 6.02673 10.5424 6.05682 10.5505C6.08713 10.5587 6.20105 10.651 6.16568 10.5251C6.22411 10.6322 6.25 10.5853 6.34003 10.6063C6.36271 10.6117 6.37421 10.7046 6.42833 10.6875C6.44663 10.6817 6.4631 10.5978 6.48802 10.6021C6.54516 10.6117 6.581 10.7093 6.65213 10.7271C6.78578 10.7607 6.94086 10.7279 7.07686 10.7771C7.11381 10.7905 7.08777 10.873 7.14309 10.8855C7.15121 10.8871 7.23273 10.8272 7.26946 10.8414C7.2916 10.85 7.40151 10.9244 7.42507 10.9332C7.46391 10.9475 7.48646 10.8671 7.50527 10.8873C7.55962 10.9454 7.48595 11.056 7.5935 10.906C7.60116 11.002 7.64756 11.0014 7.64058 11.1164C7.6899 10.9983 7.70089 11.1228 7.75902 11.0911C7.81714 11.0594 7.90331 10.8287 7.86729 11.0875C7.89695 11.0609 8.00652 11.0263 8.02423 11.0256C8.07606 11.0238 8.03619 11.0899 8.0756 11.0873C8.08253 11.0869 8.08462 11.0371 8.12629 11.0498C8.15353 11.0582 8.35694 11.0989 8.36815 11.1078C8.49322 11.2094 8.28335 11.142 8.24346 11.189C8.2407 11.1742 8.23801 11.1594 8.23486 11.1447C8.17767 11.1104 8.1923 11.2265 8.21549 11.2572C8.23867 11.2878 8.2999 11.2485 8.31653 11.2889C8.32479 11.3091 8.29337 11.4393 8.26123 11.4169C8.29128 11.4644 8.23215 11.4977 8.23997 11.5385C8.24878 11.5833 8.41457 11.6271 8.42881 11.5547C8.3978 11.5464 8.35824 11.5418 8.32707 11.533C8.30889 11.3994 8.51338 10.9923 8.59781 11.1853C8.60161 11.1939 8.60457 11.2023 8.60684 11.2104C8.64193 11.3338 8.51359 11.3934 8.72245 11.3314C8.69172 11.3203 8.66751 11.3036 8.6404 11.2931C8.65492 11.1981 8.68133 11.3105 8.71106 11.285C8.72541 11.2725 8.66689 11.1922 8.73296 11.1817C8.76127 11.327 8.82417 11.1983 8.9147 11.2148C8.88495 11.2338 8.85553 11.2528 8.82647 11.2721C8.95502 11.399 8.6063 11.3635 8.88175 11.475C8.84723 11.4726 8.81186 11.4643 8.7765 11.4643C8.78339 11.517 8.72844 11.657 8.73718 11.6905C8.75991 11.7786 8.82763 11.7417 8.87238 11.7582C8.89231 11.7654 8.87158 11.8019 8.87326 11.8025C8.90053 11.8126 8.90607 11.7539 8.93183 11.7554C8.96556 11.7576 9.04142 11.8317 9.05792 11.8286C9.09928 11.8204 9.06009 11.694 9.06554 11.6863C9.10114 11.6366 9.14155 11.6927 9.15425 11.6206C9.02523 11.644 8.69301 11.5107 9.03031 11.4561C8.96625 11.3221 9.02622 11.1677 9.15271 11.1811C9.25825 11.1925 9.17799 11.2423 9.21713 11.3241C9.22333 11.3345 9.35098 11.3973 9.36974 11.3495C9.33923 11.4625 9.36203 11.5736 9.30605 11.6849C9.29775 11.7012 9.24324 11.6822 9.24213 11.7813C9.24149 11.831 9.24685 11.9408 9.22907 12.0005C9.24978 11.9608 9.27227 11.916 9.29374 11.8747C9.3786 11.8805 9.3805 11.9286 9.40864 12.0173C9.41393 11.9841 9.40218 11.8368 9.45734 11.8931C9.45994 11.8963 9.45244 11.9465 9.47884 11.9782C9.53231 12.0419 9.54249 12.0603 9.46005 12.1942C9.61362 12.1419 9.60538 12.3102 9.75524 12.295C9.77018 12.1022 9.71142 12.1371 9.57606 12.144C9.58059 12.0984 9.58797 12.0539 9.59242 12.0078C9.73959 12.1471 9.65679 12.1175 9.77385 12.0496C9.80302 12.0331 9.92217 12.0856 9.90974 11.9505C9.90726 11.9188 9.82799 11.904 9.84767 11.8596C9.85193 11.8512 9.95145 11.8505 9.95686 11.8645C10.0268 12.0372 9.81593 12.0969 10.1166 12.1103C10.1248 12.1106 10.1404 12.0571 10.1576 12.0532C10.1902 12.046 10.1757 12.1088 10.2054 12.1005C10.2351 12.0922 10.2918 12.0165 10.3118 12.1036C10.3494 12.2627 10.1616 12.3044 10.1039 12.2113C10.0303 12.3897 10.5643 12.521 10.6028 12.5137C10.7648 12.4794 10.5126 12.4611 10.5127 12.4067C10.5128 12.3837 10.5811 12.1082 10.4777 12.2729C10.447 12.3217 10.5053 12.4095 10.4536 12.4281C10.4019 12.4467 10.4391 12.3697 10.4372 12.3632C10.431 12.3412 10.3747 12.3596 10.3713 12.3467C10.3168 12.1488 10.388 11.8863 10.4234 12.3075C10.5006 12.2326 10.4053 12.0612 10.4893 12.0179C10.5902 11.965 10.6209 12.1054 10.6302 12.1137C10.741 12.2112 10.6397 11.9926 10.7792 12.0881C10.8566 12.1413 10.6221 12.1797 10.82 12.2146C10.9874 12.244 10.9139 12.1587 10.9608 12.0162C10.972 11.9829 11.0725 11.9629 10.9454 11.9482C10.9328 11.9852 10.9142 12.0335 10.898 12.0666C10.8744 12.0317 10.87 11.8301 10.8557 11.8196C10.7862 11.7696 10.7658 11.8688 10.7472 11.7418C10.75 11.8765 10.7143 11.7872 10.6879 11.8091C10.5898 11.89 10.6786 11.95 10.5422 11.7834C10.5504 11.8482 10.5556 11.9111 10.5624 11.9753C10.542 11.9726 10.5221 11.9701 10.501 11.9672C10.5018 11.829 10.3909 11.8203 10.5192 11.7115C10.4112 11.6463 10.3593 11.6642 10.3087 11.7598C10.2992 11.7781 10.2798 11.7817 10.2587 11.7787C10.2558 11.8083 10.2399 11.8981 10.2341 11.9081C10.1825 11.9968 10.1768 11.8213 10.2069 11.7619C10.1933 11.7555 10.1828 11.7493 10.1792 11.7469C10.1563 11.7311 10.2192 11.6858 10.2033 11.6615C10.1981 11.6535 10.124 11.6492 10.1276 11.6257C10.1541 11.4753 10.2469 11.6098 10.0293 11.4681C9.992 11.6019 10.1091 11.5979 10.0473 11.7349C9.98076 11.882 9.96757 11.6608 9.91037 11.847C9.91265 11.8147 9.91648 11.7883 9.92044 11.7519C9.80437 11.8119 9.83988 11.654 9.81853 11.6125C9.7795 11.5318 9.5108 11.4816 9.71735 11.6723C9.67927 11.678 9.64252 11.6763 9.60573 11.6806C9.66132 11.3958 9.6592 11.5134 9.50139 11.4328C9.46701 11.4151 9.48266 11.2878 9.41466 11.4281C9.45259 11.2841 9.32261 11.3476 9.3169 11.328C9.27626 11.199 9.55438 11.0925 9.52768 11.3561C9.59067 11.2653 9.56178 11.3974 9.61074 11.3901C9.68093 11.3793 9.69581 11.3557 9.75193 11.4709C9.85912 11.3508 9.46724 11.343 9.73506 11.2121C10.0077 11.0797 11.3489 11.2938 11.6611 11.3414C12.2249 11.4256 12.5256 11.4645 13.0182 11.5911C13.0663 11.6034 13.439 11.6784 13.3245 11.8182C13.308 11.8383 13.1358 11.8608 13.2417 12.0172C13.2315 11.9373 13.3228 11.9088 13.3314 11.9027C13.5275 11.7641 13.4489 11.7002 13.6911 11.7556ZM14.0827 13.3366C13.7706 13.2259 13.9813 13.3865 13.8591 13.61C13.8999 13.6203 13.9408 13.6305 13.982 13.6408C13.9746 13.6233 13.9674 13.6058 13.9601 13.5883C13.96 13.5883 13.96 13.5883 13.9599 13.5883C14.0008 13.5044 14.0419 13.4205 14.0827 13.3366ZM19.2983 14.7304C19.2896 14.745 19.2809 14.7597 19.272 14.7743L19.2544 14.7715C19.2447 14.7866 19.2348 14.8016 19.2246 14.8163C19.181 14.7987 19.1375 14.781 19.0942 14.7628C19.1036 14.7423 19.1128 14.7214 19.122 14.7008C19.1686 14.7101 19.2149 14.7191 19.2621 14.7257L19.2786 14.7283C19.2851 14.729 19.2917 14.7297 19.2983 14.7304ZM10.0518 12.2355C10.0142 12.1345 9.98133 12.2914 9.91928 12.2019C9.90207 12.3193 9.8865 12.4345 9.87004 12.5509C9.93435 12.548 9.95812 12.5074 10.0159 12.5506C10.017 12.5119 10.0181 12.4728 10.0195 12.4339C10.0069 12.4393 9.99344 12.4456 9.98146 12.4503C9.98917 12.3428 10.0958 12.3516 10.052 12.2353C10.0519 12.2354 10.0518 12.2355 10.0518 12.2355ZM9.43452 12.1422C9.40548 12.1198 9.29163 12.0352 9.26473 12.0795C9.17037 12.2286 9.54776 12.2046 9.25445 12.2906C9.25059 12.3137 9.24448 12.3357 9.2395 12.3582C9.28459 12.3766 9.33128 12.3942 9.37792 12.4114C9.39555 12.3211 9.41713 12.233 9.43452 12.1422ZM12.9271 13.075C12.8808 13.0509 12.6275 13.0706 12.6796 13.1913C12.6948 13.2266 12.8348 13.1053 12.8736 13.1213C12.8986 13.1316 12.8506 13.2049 12.9082 13.1875C12.9144 13.1516 12.9223 13.112 12.9269 13.0752C12.927 13.0752 12.927 13.0751 12.9271 13.075ZM13.1301 12.6298C13.0757 12.632 13.0214 12.6382 12.9657 12.641C12.9821 12.7416 13.0682 12.7 13.0421 12.8297C13.0258 12.8362 13.0097 12.8426 12.9935 12.849C12.9896 12.8184 12.9858 12.7877 12.9821 12.7571C12.9214 12.8165 12.9396 12.8575 12.8622 12.8177C12.8652 13.024 12.8507 13.1309 13.0367 12.9672C12.9852 13.0665 12.928 13.4162 13.0645 13.189C13.0899 13.1469 13.0362 13.1019 13.0373 13.0945C13.0494 13.002 13.0969 12.9524 13.1071 12.8647C13.1118 12.825 13.0747 12.8168 13.0819 12.7619C13.0856 12.7352 13.1384 12.669 13.1301 12.6298ZM13.1228 13.1119C13.0939 13.1628 13.1178 13.3057 13.1705 13.2904C13.2526 13.2667 13.1678 13.1162 13.1228 13.1119ZM19.2986 14.7303C19.2985 14.7303 19.2984 14.7304 19.2983 14.7304C19.2984 14.7303 19.2985 14.7302 19.2985 14.73C19.2986 14.7301 19.2986 14.7302 19.2986 14.7303ZM9.58399 12.2428C9.53521 12.2806 9.48145 12.2613 9.46879 12.3364C9.45396 12.3177 9.43897 12.2993 9.42432 12.2807C9.41947 12.303 9.41478 12.3254 9.40998 12.3475C9.46065 12.3735 9.51252 12.3999 9.56452 12.4266C9.57151 12.3655 9.57857 12.3042 9.58399 12.2428ZM8.99832 12.0589C8.93144 12.0369 8.96749 12.1502 8.9422 12.1959C8.91689 12.2416 8.86562 12.1894 8.85768 12.2609C8.89711 12.272 8.93732 12.2833 8.97795 12.2946C8.98335 12.216 8.99227 12.1368 8.99818 12.0589C8.99823 12.0589 8.99828 12.0589 8.99832 12.0589ZM15.3688 13.7131C15.3267 13.6807 15.363 13.608 15.249 13.6771C15.249 13.6772 15.2491 13.6772 15.2492 13.6772C15.3251 13.7604 15.4254 13.8418 15.5378 13.8027C15.4956 13.7081 15.4352 13.7637 15.3688 13.7131ZM10.1625 12.5008C10.1969 12.4447 10.1156 12.3719 10.0822 12.4237C10.0278 12.5074 10.1098 12.5859 10.1625 12.5008ZM17.3875 13.6295C17.508 13.4622 17.4282 13.2177 17.2635 13.2707C17.2495 13.2755 17.3241 13.3585 17.2878 13.3878C17.2842 13.3906 17.2358 13.3731 17.2164 13.3957C17.1971 13.4183 17.1943 13.482 17.1671 13.5018C17.1194 13.5365 17.0618 13.4338 17.0189 13.4845C17.0133 13.4913 17.0426 13.5851 17.0448 13.589C17.083 13.6512 17.1598 13.5589 17.1682 13.5603C17.2101 13.5675 17.182 13.6484 17.1872 13.6705C17.1967 13.7121 17.2403 13.6846 17.2422 13.688C17.2851 13.7767 17.1495 13.7187 17.1225 13.7435C17.0494 13.8101 17.0777 13.8974 16.9427 13.9103C16.9292 13.9113 16.7911 13.8697 16.9433 14.0086C16.5466 14.1101 17.0882 14.164 17.156 14.1366C17.1872 14.1238 17.1685 14.0347 17.1937 14.0035C17.251 13.9321 17.3161 13.934 17.3409 13.8184C17.3916 13.5751 17.2709 13.7115 17.2249 13.6561C17.2443 13.6055 17.2601 13.5553 17.2845 13.5072C17.2504 13.5716 17.3777 13.6419 17.3874 13.63C17.3874 13.6298 17.3874 13.6296 17.3875 13.6295ZM16.4388 13.673C16.4236 13.6492 16.4099 13.6415 16.3972 13.6415L16.408 13.644C16.3714 13.6455 16.3459 13.7113 16.3061 13.6345C16.2124 13.7582 16.3405 13.7762 16.3537 13.7872C16.3612 13.7934 16.3673 13.8011 16.3723 13.8099L16.3543 13.8057C16.3864 13.8683 16.3646 13.978 16.4335 13.9535C16.4335 13.86 16.4378 13.7665 16.4388 13.673ZM17.0987 13.9133C17.0263 13.9762 17.1199 13.9995 17.1194 14.0151C17.1201 14.1817 16.8481 14.0775 17.0987 13.9133ZM12.6953 12.6956C12.6697 12.6839 12.669 12.7619 12.6401 12.778C12.611 12.7943 12.5456 12.7118 12.5366 12.7582C12.5275 12.8047 12.6468 12.9597 12.4922 12.9499C12.491 12.977 12.4847 12.9958 12.4815 13.0198C12.5221 13.0302 12.5631 13.0413 12.604 13.0518C12.5993 12.972 12.595 12.8882 12.5907 12.8111C12.6278 12.7574 12.6226 12.8364 12.6238 12.8367C12.6238 12.8367 12.6238 12.8366 12.6239 12.8365C12.6687 12.8409 12.7515 12.7213 12.6953 12.6956ZM14.7403 13.4196C14.7907 13.2361 14.6803 13.4287 14.6489 13.4457C14.6177 13.4627 14.5977 13.3859 14.5929 13.4687C14.6222 13.5333 14.7352 13.4402 14.7404 13.4194C14.7404 13.4195 14.7403 13.4195 14.7403 13.4196ZM16.0219 13.5811C15.9456 13.6116 15.9455 13.6622 15.8767 13.5894C15.87 13.635 15.8631 13.6815 15.8565 13.7264C15.9206 13.7414 15.9446 13.6101 16.0078 13.6788C16.0182 13.6902 15.9693 13.7886 16.0318 13.7672C16.0281 13.7081 16.025 13.6428 16.0219 13.5811ZM15.6579 13.6755C15.7355 13.6855 15.8754 13.3355 15.6998 13.4685C15.6736 13.4884 15.5993 13.6681 15.6579 13.6755ZM13.3923 12.8519C13.2668 12.8112 13.3982 12.904 13.4188 12.9675C13.11 12.9414 13.4555 12.9602 13.4426 13.1524C13.4922 13.1085 13.5884 13.004 13.5202 12.9538C13.4914 12.9329 13.4901 12.9907 13.4883 12.9901C13.4327 12.9626 13.4611 12.8741 13.3923 12.8519ZM16.5761 13.6995C16.5706 13.7009 16.5619 13.765 16.5432 13.7734C16.5242 13.7816 16.5014 13.7292 16.4881 13.7664C16.4743 13.8038 16.5363 13.8518 16.5651 13.8295C16.5937 13.8069 16.6261 13.6871 16.5761 13.6995ZM16.1276 13.4325C16.0538 13.4637 16.108 13.7176 16.1223 13.7196C16.2478 13.7342 16.1078 13.5048 16.1276 13.4325ZM13.7823 12.5311C13.6009 12.6118 13.6652 12.8415 13.7339 12.986C13.7526 12.9643 13.7716 12.9426 13.79 12.9211C13.6964 13.0578 13.5588 13.1823 13.8179 13.1048C13.7011 13.0401 13.8153 13.0242 13.8181 13.0159C13.8963 12.7429 13.6818 12.8279 13.7824 12.5311C13.7824 12.5311 13.7823 12.5311 13.7823 12.5311ZM16.7657 13.8192C16.8329 13.8359 17.019 13.8343 16.9691 13.6933C16.902 13.7354 16.833 13.7771 16.7657 13.8192ZM11.2517 11.9414C11.2127 11.8593 11.1614 11.8481 11.0929 11.8364C11.1296 11.9511 11.0868 11.9529 11.0605 11.9725C11.0206 12.0019 11.0965 12.017 11.0951 12.0238C11.0709 12.1185 11.0189 12.1216 11.1294 12.1459C11.0942 12.1724 11.0594 12.1993 11.0244 12.2256C11.1067 12.25 11.1121 12.317 11.147 12.4055C11.1403 12.2081 11.1798 12.3402 11.2631 12.2629C11.3048 12.2242 11.2707 11.9832 11.2515 11.9414C11.2516 11.9414 11.2517 11.9414 11.2517 11.9414ZM13.632 12.4564C13.6081 12.486 13.5828 12.5277 13.5583 12.5622C13.5406 12.5619 13.523 12.5611 13.5053 12.5608C13.5102 12.5308 13.5158 12.4995 13.5201 12.4705C13.5 12.4567 13.4989 12.4998 13.4914 12.5022C13.4915 12.502 13.4915 12.5018 13.4916 12.5017C13.3844 12.5338 13.3488 12.5189 13.2956 12.41C13.2742 12.5004 13.2527 12.5907 13.2312 12.6811C13.25 12.6765 13.2689 12.6721 13.2876 12.6676C13.3081 12.6212 13.3283 12.5747 13.3486 12.5282C13.3612 12.5595 13.3738 12.5905 13.3865 12.6218C13.406 12.608 13.4287 12.594 13.446 12.5801C13.4627 12.8509 13.3297 12.6381 13.3035 12.7427C13.2862 12.8098 13.4619 12.8483 13.4985 12.8077C13.5038 12.8018 13.5101 12.6046 13.5515 12.7179C13.5577 12.7357 13.4662 13.1439 13.6123 12.8303C13.633 12.7858 13.6589 12.5249 13.632 12.4564ZM13.0273 12.1743C13.0634 12.458 12.7666 12.0961 12.8716 12.3477C12.7985 12.4566 12.807 12.457 12.8266 12.5739C12.8282 12.5843 12.7893 12.6098 12.791 12.6146C12.8189 12.6831 12.8772 12.6643 12.8522 12.7708C12.865 12.7678 12.8769 12.7654 12.8897 12.7624C12.866 12.6507 12.9579 12.6015 13.0076 12.5239C13.0302 12.4887 13.0022 12.4696 13.0214 12.4387C13.0286 12.4275 13.0656 12.4621 13.0755 12.4274C13.0981 12.3488 13.0972 12.2352 13.0653 12.1657C13.0653 12.1656 13.0653 12.1655 13.0653 12.1654C13.0526 12.1679 13.04 12.1716 13.0273 12.1743ZM15.0814 12.8815C15.0656 13.0296 15.1239 13.0862 14.978 13.1273C14.978 13.1571 14.9782 13.1868 14.9782 13.2167C15.0007 13.2191 15.0225 13.2215 15.0453 13.2243C15.2089 12.8145 15.2204 13.3212 15.2113 13.0023C15.2102 12.9676 15.1505 12.9926 15.2214 12.9151C15.2213 12.915 15.2213 12.9149 15.2212 12.9148C15.1445 12.9262 15.1231 12.9751 15.0814 12.8815ZM14.5814 12.8732C14.3478 13.1389 14.7695 13.0945 14.7228 12.999C14.7184 12.9904 14.5348 13.0169 14.5814 12.8732ZM15.9601 12.9059C15.8879 12.8845 15.8469 13.0474 15.8412 13.1081C15.8355 13.1689 15.8996 13.1203 15.9041 13.1311C15.9188 13.1666 15.8689 13.1769 15.8874 13.2251C15.8935 13.2408 16.0094 13.3276 16.017 13.3218C16.0585 13.2898 16.0401 13.1439 16.0529 13.1305C16.0946 13.0864 16.1208 13.1659 16.1455 13.0959C16.1982 12.9465 16.0853 13.0908 16.0717 13.0905C16.0306 13.0892 16.053 13.0035 16.0274 12.9797C16.0018 12.9559 15.9761 12.9813 15.9515 12.9695C15.9434 12.9656 15.9637 12.9073 15.9601 12.9059ZM15.6394 13.1982C15.7441 13.0912 15.5864 12.9146 15.5581 12.9387C15.4737 13.0105 15.5891 13.2492 15.6394 13.1982ZM13.18 12.6258C13.2717 12.5529 13.1249 12.4413 13.0702 12.4664C13.0698 12.5057 13.1483 12.6509 13.18 12.6258ZM13.825 12.5416C13.7538 12.5544 13.792 12.7766 13.8472 12.7862C13.9102 12.6608 13.874 12.6801 13.8398 12.6663C13.8058 12.6525 13.8807 12.5317 13.825 12.5416ZM16.7369 13.2403C16.723 13.2344 16.4717 13.2852 16.5878 13.364C16.5955 13.3696 16.7587 13.3919 16.7751 13.3745C16.8098 13.3397 16.7709 13.2555 16.7369 13.2403ZM14.1807 12.4178C14.1197 12.5247 14.0864 12.5154 14.0864 12.6576C14.0864 12.6577 14.0865 12.6577 14.0865 12.6577C13.9903 12.6788 14.0512 12.4019 14.0312 12.4035C13.9617 12.409 13.977 12.6199 13.9213 12.6749C14.03 12.6363 13.972 12.7625 14.0424 12.7878C14.0582 12.7934 14.1418 12.7294 14.1629 12.6823C14.1839 12.6352 14.1849 12.4796 14.1807 12.4178ZM17.0598 13.2948C16.9969 13.2314 16.878 13.3979 16.9754 13.4549C17.0219 13.4826 17.0991 13.3336 17.0598 13.2948ZM9.47084 11.4604C9.47164 11.5119 9.47284 11.5633 9.47462 11.6146C9.44366 11.6202 9.4129 11.626 9.38245 11.632C9.40783 11.6213 9.43337 11.611 9.45925 11.6007C9.41022 11.5719 9.40592 11.4775 9.4707 11.4603C9.47075 11.4603 9.4708 11.4604 9.47084 11.4604ZM7.58269 11.053C7.56802 11.001 7.49337 11.139 7.49709 11.1516C7.52534 11.2455 7.6031 11.125 7.58269 11.053ZM13.1816 12.1592C13.0999 12.1183 13.1029 12.369 13.1523 12.3979C13.1305 12.3449 13.2281 12.1825 13.1816 12.1592ZM8.24346 11.189C8.24757 11.211 8.25175 11.233 8.25683 11.2552C8.2342 11.2215 8.23294 11.2014 8.24346 11.189ZM16.7556 13.0232C16.7463 13.0015 16.6531 12.9611 16.6336 12.9799C16.5938 13.0197 16.6364 13.1696 16.6915 13.1413C16.6978 13.1384 16.7642 13.0448 16.7554 13.0232C16.7555 13.0232 16.7556 13.0232 16.7556 13.0232ZM9.37136 11.3431C9.37102 11.3454 9.37046 11.3475 9.36974 11.3495C9.37031 11.3474 9.37076 11.3452 9.37136 11.3431ZM5.67297 10.3616C5.67272 10.3655 5.67223 10.3692 5.67142 10.3727C5.67195 10.3692 5.6723 10.3655 5.67297 10.3616ZM16.0847 12.6575C16.1016 12.424 15.9999 12.5278 16.0348 12.6527C16.0368 12.6593 16.0769 12.6553 16.0847 12.6575Z" fill="#E8E8E8"/>
<path d="M11.7431 10.1401C11.8415 9.15969 11.9267 8.07394 12.0752 7.09204C12.0936 6.97013 12.1594 6.98619 12.172 6.95302C12.2066 6.8627 12.1339 6.79857 12.1471 6.73238C12.2118 6.40311 12.2577 6.0955 12.3192 5.77825C12.3834 5.44469 12.5728 5.62759 12.6365 5.51745C12.7611 5.30488 12.4688 5.46418 12.4181 5.36947C12.4644 5.10948 12.5238 4.85331 12.584 4.59642C12.6019 4.6621 12.6192 4.72841 12.635 4.79596C12.654 4.682 12.7145 4.52684 12.7631 4.72361C12.7874 4.68397 12.8148 4.64779 12.8388 4.60758C12.7415 4.5859 12.7575 4.38227 12.7014 4.35688C12.6452 4.33138 12.6451 4.44701 12.64 4.44589C12.5684 4.42696 12.7226 3.98007 12.7352 3.94526C12.7675 3.85978 12.8801 3.95161 12.8813 3.87621C12.8835 3.74675 12.6244 3.80481 12.9763 3.66695C12.8777 3.58373 12.9341 3.5843 12.9523 3.49843C12.9547 3.48716 12.8915 3.48828 12.8905 3.48307C12.8607 3.34721 12.9636 3.46154 12.97 3.46162C13.0773 3.46544 13.0486 3.3117 13.0625 3.28367C13.2373 2.92161 13.3582 2.66126 13.4435 2.26512C13.462 2.17744 13.4574 1.90806 13.4879 1.83175C13.5189 1.74866 13.588 1.80647 13.6313 1.76851C13.4587 1.67327 13.4496 1.59747 13.5962 1.46766C13.474 1.38241 13.5792 1.41172 13.5741 1.29468C13.5728 1.24314 13.5398 1.17235 13.5316 1.09523C13.5255 1.06456 13.5312 1.01111 13.5456 0.979076C13.5807 0.924212 13.5406 0.923326 13.7377 0.780964C13.5597 0.953843 13.6333 0.929486 13.6095 0.970797C13.6035 1.00399 13.6099 1.01297 13.6143 1.03351C13.624 1.07296 13.6418 1.10919 13.6459 1.18285C13.6449 1.23101 13.5693 1.68389 13.712 1.67622C13.7863 1.66704 13.7458 1.50895 13.7598 1.50733C13.8418 1.4881 13.9219 1.58178 13.8767 1.65099C13.8644 1.6297 13.8524 1.60501 13.8403 1.5832C13.7171 1.73314 14.1024 1.6825 13.762 1.75175C13.7202 1.76085 13.6801 1.74825 13.6342 1.76744C13.6507 1.77543 13.6986 1.75072 13.702 1.77904C13.7054 1.80762 13.6154 1.85014 13.6829 1.86876C13.7809 1.89598 13.7598 1.77183 13.7669 1.76533C13.7663 1.76514 13.7657 1.76495 13.7652 1.76477C13.83 1.69822 13.8113 1.85603 13.8193 1.86717C13.8738 1.92752 13.9271 1.89954 13.9676 1.97905C13.991 2.02243 13.9569 2.13419 13.9614 2.17016C13.9656 2.20951 14.0215 2.15736 14.0279 2.18432C14.0344 2.21124 13.9938 2.23832 14.0012 2.27109C14.0045 2.28514 14.0573 2.29198 14.0583 2.2987C14.0687 2.37134 13.9653 2.3105 13.9631 2.37481C13.9622 2.41346 14.046 2.56229 14.0893 2.47399C14.0938 2.51961 14.0956 2.56471 14.0976 2.61173C14.1173 2.58491 14.132 2.55689 14.1543 2.53199C14.1176 2.61254 14.2024 2.66622 14.2024 2.71677C14.2023 2.76896 14.0875 2.80147 14.1326 2.86749C14.2287 3.00764 14.2176 2.6914 14.2425 2.65996C14.2524 2.64661 14.3298 2.7137 14.3311 2.72232C14.3367 2.76137 14.2698 2.79873 14.2686 2.8292C14.2642 2.94017 14.3362 3.01409 14.3392 3.11791C14.3492 3.47203 14.3401 3.91397 14.3181 4.24544C14.3094 4.37215 14.2108 4.43087 14.2066 4.48755C14.1973 4.61726 14.2735 4.64794 14.2648 4.75773C14.2518 4.92376 14.1549 5.15743 14.1241 5.29391C14.1027 5.39005 14.1686 5.48883 14.1675 5.51495C14.155 5.86461 14.1042 6.29939 14.0729 6.58849C14.0581 6.72522 13.965 6.78213 13.9644 6.81105C13.9612 6.93646 14.0384 6.91011 14.0201 7.00744C14.0103 7.0599 13.9388 7.06214 13.9353 7.06893C13.9052 7.12906 13.9957 7.15179 13.9933 7.20138C13.979 7.49021 13.8896 7.75143 13.8503 8.03088C13.8474 8.05094 13.8069 8.04473 13.8075 8.05802C13.8114 8.11526 13.8784 8.09607 13.8766 8.15546C13.8734 8.27818 13.8486 8.40836 13.8268 8.53449C13.8246 8.54717 13.7717 8.54725 13.7685 8.57651C13.7653 8.60583 13.8126 8.63342 13.8048 8.67939C13.7846 8.79899 13.7121 8.91543 13.6952 9.04239C13.6925 9.06332 13.7528 9.09611 13.7487 9.12764C13.736 9.22647 13.6629 9.36863 13.6516 9.45499C13.615 9.73662 13.6231 10.0024 13.5956 10.2677C13.589 10.3298 13.5247 10.3789 13.5199 10.4113C13.5092 10.4844 13.5702 10.4348 13.5626 10.5093C13.5 11.1164 13.411 11.7261 13.3518 12.3395C13.3427 12.4335 13.3411 12.5368 13.3402 12.6421L13.3372 12.6675C13.3304 12.8362 13.3259 13.0006 13.2962 13.1448C13.276 13.2412 13.1977 13.2465 13.1871 13.3171C13.1687 13.4418 13.2634 13.4744 13.2542 13.6077C13.2466 13.7144 13.1325 13.816 13.1221 13.9268C13.1121 14.0352 13.1989 14.0993 13.1911 14.226C13.1849 14.3276 13.1192 14.4677 13.1085 14.5784C13.0089 15.6102 12.8449 16.6544 12.4902 17.6595C12.3667 18.0127 12.2648 18.4085 12.0685 18.7407C12.0519 18.7687 11.9923 18.7096 11.9697 18.7774L11.9757 18.7561C11.9732 18.7641 11.9715 18.7739 11.9704 18.7861C11.9654 18.8461 12.021 18.9468 11.9902 19.0812C11.8075 19.8788 11.4393 20.6925 11.2935 21.5167C11.0733 22.7582 11.4831 24.1281 10.366 25.0461C10.3111 25.0917 10.0876 25.0268 10.0279 24.9845C10.0789 24.9623 10.1383 24.9438 10.1955 24.9214C9.91696 24.8366 9.98987 24.8555 10.0391 24.7153C10.0696 24.629 9.93611 24.68 9.90938 24.6268C9.87462 24.5583 9.78314 24.245 9.9621 24.3328C9.93249 24.3094 9.90403 24.2875 9.87505 24.2647C9.88245 24.0503 9.87118 23.8392 9.85448 23.6246C9.85149 23.5875 9.79281 23.5751 9.79008 23.5369C9.78224 23.4347 9.83561 23.3628 9.84849 23.2612C9.85552 23.2061 9.78895 23.1852 9.80695 23.114C9.82503 23.0428 9.91648 23.0624 9.8355 22.9452C9.70795 22.9866 9.84647 22.7184 9.8597 22.6152C9.86168 22.6002 9.78209 22.4597 9.80699 22.3975C9.8316 22.3353 9.91721 22.2517 9.90019 22.1443C9.89215 22.0941 9.81745 22.0498 9.82331 21.9984C9.82747 21.9621 9.90777 21.9343 9.92006 21.8904C9.93227 21.8466 9.89404 21.7374 9.89686 21.7193C9.90653 21.6544 9.94178 21.7357 9.95357 21.6925C10.0097 21.4837 10.0895 21.2454 10.1021 21.0298C10.1036 21.0034 10.0368 21.0255 10.0356 21.0217C10.0016 20.833 10.0581 20.9419 10.1213 20.9069C10.1824 20.8726 10.2297 20.536 10.1281 20.5097C10.2587 20.5288 10.1777 20.4325 10.1784 20.4126C10.181 20.3353 10.2886 20.3754 10.2711 20.2951C10.2648 20.2656 10.1778 20.2998 10.1867 20.2718C10.2086 20.2027 10.3437 20.1679 10.3779 20.0772C10.3862 20.0554 10.3344 20.0354 10.3456 19.9961C10.3572 19.9554 10.4629 19.8039 10.3314 19.854C10.4462 19.7747 10.4019 19.7405 10.4331 19.6235C10.4412 19.5933 10.537 19.5754 10.5258 19.5056C10.522 19.4821 10.4388 19.4622 10.4462 19.4291C10.463 19.3536 10.5661 19.3058 10.5933 19.212C10.6441 19.0373 10.6317 18.8345 10.701 18.6565C10.72 18.6078 10.7997 18.6427 10.8204 18.5706C10.8226 18.562 10.7924 18.4927 10.7895 18.4418L10.7933 18.4282C10.7931 18.4146 10.7946 18.4023 10.7991 18.3925C10.812 18.3637 10.9073 18.2259 10.9205 18.196C10.9419 18.147 10.8647 18.1148 10.8886 18.0912C10.9573 18.0235 11.0559 18.1225 10.9235 17.9788C11.0219 17.9729 11.0296 17.9133 11.1446 17.9271C11.0338 17.8593 11.1619 17.8497 11.14 17.774C11.118 17.6985 10.8995 17.5797 11.155 17.6355C11.133 17.5969 11.1166 17.4551 11.1186 17.4327C11.1253 17.3667 11.1856 17.4196 11.1893 17.3693C11.19 17.3604 11.1401 17.3562 11.1595 17.3036C11.1726 17.2691 11.2444 17.0111 11.2546 16.9971C11.3751 16.8398 11.2772 17.1059 11.3183 17.1578C11.3029 17.161 11.2876 17.164 11.2722 17.1677C11.2288 17.2398 11.3485 17.2243 11.383 17.1953C11.4176 17.1662 11.3869 17.0873 11.4301 17.0668C11.4517 17.0567 11.5788 17.0995 11.5514 17.1404C11.6039 17.1028 11.6287 17.1795 11.6712 17.1703C11.718 17.1601 11.7865 16.9457 11.7151 16.9265C11.7024 16.9664 11.6919 17.0177 11.6785 17.0578C11.5408 17.0784 11.1587 16.81 11.3641 16.7058C11.5129 16.6289 11.5681 16.8296 11.5259 16.5502C11.5118 16.5877 11.4921 16.6187 11.4783 16.6527C11.384 16.634 11.5006 16.6013 11.478 16.5641C11.4668 16.5464 11.3797 16.6187 11.3759 16.537C11.5248 16.5043 11.4027 16.4203 11.4258 16.3117C11.4427 16.3477 11.4596 16.3829 11.4763 16.4194C11.6163 16.2553 11.5485 16.6969 11.6863 16.3455C11.6806 16.3907 11.6698 16.4328 11.666 16.4792C11.7201 16.469 11.8562 16.537 11.8911 16.5247C11.9829 16.4921 11.9516 16.4068 11.9727 16.3456C11.9816 16.3194 12.0169 16.3447 12.0176 16.3425C12.0301 16.3065 11.9712 16.302 11.9747 16.2687C11.9793 16.2265 12.0604 16.1201 12.0581 16.0994C12.0524 16.046 11.9218 16.1051 11.9144 16.0984C11.8664 16.0554 11.9254 15.9998 11.8531 15.9882C11.8707 16.1539 11.7075 16.5848 11.6786 16.157C11.5387 16.2424 11.387 16.1746 11.4083 16.015C11.4254 15.8829 11.4715 15.9805 11.5563 15.9268C11.567 15.92 11.6367 15.7513 11.5887 15.7319C11.7019 15.7621 11.815 15.7254 11.9256 15.7875C11.942 15.7961 11.9201 15.8687 12.0205 15.8622C12.0709 15.859 12.1824 15.843 12.242 15.8612C12.2027 15.8377 12.1582 15.8125 12.1171 15.7884C12.1267 15.6759 12.1754 15.6683 12.2659 15.6239C12.2324 15.6203 12.0831 15.649 12.1415 15.5729C12.1448 15.569 12.1953 15.5749 12.2283 15.5362C12.2945 15.4573 12.313 15.4433 12.4468 15.537C12.3971 15.3413 12.5673 15.3322 12.5529 15.1354C12.3578 15.14 12.3933 15.2129 12.3983 15.3902C12.3522 15.3894 12.3072 15.3847 12.2606 15.384C12.4036 15.1756 12.3726 15.2868 12.3047 15.1417C12.2884 15.1047 12.3408 14.9448 12.2043 14.9777C12.1722 14.986 12.1578 15.0883 12.1128 15.0685C12.1042 15.0647 12.1031 14.9366 12.1172 14.9272C12.2912 14.8128 12.3539 15.0804 12.3637 14.6865C12.3639 14.6754 12.3096 14.6626 12.3053 14.6411C12.2973 14.6004 12.361 14.6104 12.352 14.5734C12.3429 14.5364 12.2651 14.4739 12.3528 14.4338C12.5123 14.361 12.5588 14.603 12.4659 14.6887C12.6483 14.763 12.7669 14.0413 12.7565 13.9926C12.7152 13.7887 12.7073 14.1179 12.6521 14.1274C12.6289 14.1308 12.3488 14.0846 12.5184 14.1936C12.5686 14.2259 12.6552 14.1366 12.6757 14.2011C12.6962 14.2655 12.6172 14.2289 12.6108 14.2324C12.5888 14.2441 12.6091 14.3146 12.5961 14.321C12.3982 14.4211 12.1315 14.3682 12.555 14.2591C12.4771 14.1699 12.3073 14.3198 12.2609 14.2172C12.2043 14.0946 12.3445 14.0337 12.3525 14.0199C12.4465 13.8602 12.2303 14.0266 12.3206 13.8318C12.3709 13.7222 12.4195 14.0219 12.4462 13.7579C12.468 13.5375 12.3855 13.6466 12.2399 13.6089C12.2058 13.6001 12.1806 13.4756 12.1723 13.6387C12.2102 13.6489 12.2598 13.6649 12.2938 13.6802C12.2597 13.717 12.0569 13.7554 12.047 13.7754C11.9995 13.8739 12.1006 13.8817 11.9733 13.9262C12.109 13.9016 12.0204 13.9618 12.0435 13.9925C12.1286 14.1066 12.1859 13.9834 12.0229 14.1838C12.0879 14.1637 12.1511 14.1474 12.2156 14.1291C12.2136 14.1557 12.2117 14.1819 12.2095 14.2096C12.0702 14.2296 12.065 14.3726 11.9512 14.224C11.8892 14.3705 11.908 14.4373 12.0059 14.4879C12.0246 14.4975 12.0287 14.5219 12.0262 14.549C12.0561 14.5487 12.147 14.5568 12.1573 14.5629C12.2479 14.6168 12.071 14.6478 12.0104 14.6171C12.0042 14.6359 11.9981 14.6505 11.9957 14.6556C11.9801 14.6878 11.9334 14.6118 11.9091 14.636C11.9011 14.6442 11.8979 14.7407 11.8741 14.7384C11.7217 14.7245 11.8568 14.588 11.7163 14.8835C11.8518 14.9151 11.8467 14.7637 11.9857 14.8261C12.1349 14.8935 11.9113 14.9394 12.0997 14.9902C12.0671 14.9913 12.0403 14.9896 12.0035 14.989C12.065 15.1286 11.9048 15.104 11.8629 15.1356C11.7816 15.1956 11.7277 15.5423 11.9228 15.2591C11.9282 15.3073 11.926 15.3546 11.9299 15.4012C11.6427 15.3576 11.7617 15.3528 11.677 15.558C11.6583 15.603 11.5299 15.5945 11.6695 15.6699C11.5249 15.6349 11.5854 15.7904 11.5648 15.8003C11.4333 15.8591 11.3348 15.5213 11.6001 15.5316C11.5096 15.4605 11.6424 15.4863 11.636 15.4242C11.6267 15.3336 11.6025 15.3199 11.7194 15.2364C11.5994 15.1133 11.5867 15.6098 11.458 15.2835C11.338 14.9613 11.501 13.2309 11.5227 12.8223C11.5328 12.6769 11.5403 12.5534 11.5486 12.4288L11.5453 12.4564C11.5638 11.9409 11.5807 11.5829 11.6436 11.0464C11.6513 10.9788 11.6897 10.4845 11.8406 10.6041C11.8623 10.6211 11.9015 10.8393 12.0475 10.671C11.9687 10.7 11.9312 10.5884 11.9243 10.5787C11.7671 10.351 11.7107 10.4659 11.7431 10.1401ZM13.2875 9.32724C13.205 9.75165 13.3465 9.44895 13.5811 9.56344C13.5876 9.50892 13.5942 9.45359 13.6008 9.39891C13.5839 9.41169 13.5671 9.42431 13.5503 9.43712C13.5503 9.43718 13.5503 9.43725 13.5503 9.43731C13.4627 9.40064 13.3751 9.36382 13.2875 9.32724ZM14.254 2.42525C14.2838 2.44543 14.3137 2.46554 14.3426 2.48718C14.3251 2.53986 14.3078 2.59397 14.2901 2.64986C14.2693 2.64008 14.2482 2.63051 14.2274 2.62076C14.2375 2.55354 14.2474 2.48872 14.254 2.42525ZM12.491 14.7547C12.389 14.8199 12.5484 14.8386 12.4585 14.9317C12.5774 14.9384 12.6939 14.9434 12.8116 14.9496C12.8079 14.8666 12.7666 14.8409 12.8099 14.7565C12.7707 14.7607 12.7312 14.7651 12.6918 14.7689C12.6974 14.785 12.7039 14.8022 12.7087 14.8176C12.6 14.8228 12.6079 14.6789 12.4908 14.7544C12.4909 14.7545 12.4909 14.7546 12.491 14.7547ZM12.3931 15.5776C12.3699 15.618 12.2802 15.7754 12.3235 15.8083C12.4713 15.9193 12.4612 15.4193 12.5374 15.8011C12.5606 15.804 12.5826 15.81 12.6053 15.8145C12.6264 15.7497 12.6453 15.6889 12.6643 15.6238C12.5733 15.6102 12.4846 15.5909 12.3931 15.5776ZM13.1351 10.8653C13.1155 10.9287 13.1603 11.2514 13.2757 11.1598C13.3095 11.1327 13.1745 10.977 13.1865 10.9248C13.1943 10.891 13.2723 10.938 13.2493 10.8673C13.2128 10.8665 13.1725 10.8641 13.1353 10.8655C13.1352 10.8655 13.1352 10.8654 13.1351 10.8653ZM12.6704 10.693C12.678 10.7617 12.6893 10.8321 12.6977 10.902C12.7964 10.8619 12.7466 10.7581 12.8788 10.7662C12.8868 10.7858 12.8948 10.8052 12.9028 10.8249C12.8725 10.8361 12.8423 10.8471 12.812 10.8581C12.8774 10.9241 12.9166 10.8922 12.8845 10.9993C13.0903 10.9542 13.1983 10.9526 13.0166 10.746C13.1209 10.792 13.4757 10.7975 13.2355 10.6663C13.191 10.6417 13.1511 10.7208 13.1437 10.7203C13.0501 10.723 12.9959 10.6721 12.9072 10.6763C12.8672 10.6782 12.8626 10.727 12.8071 10.7286C12.78 10.7292 12.7087 10.6747 12.6704 10.693ZM13.1529 10.6062C13.2065 10.6333 13.3469 10.5747 13.3266 10.5093C13.2951 10.4073 13.1527 10.5478 13.1529 10.6062ZM14.2539 2.42488C14.2539 2.425 14.2539 2.42512 14.254 2.42525C14.2538 2.42517 14.2537 2.4251 14.2536 2.42502C14.2537 2.42497 14.2538 2.42493 14.2539 2.42488ZM12.4983 15.3685C12.536 15.4284 12.5152 15.5015 12.591 15.5099C12.5717 15.5317 12.5527 15.5531 12.5333 15.5756C12.5558 15.5796 12.5784 15.5834 12.6006 15.5874C12.6287 15.5156 12.6562 15.4455 12.6842 15.3723C12.6224 15.3706 12.5604 15.3685 12.4983 15.3685ZM12.2876 16.1625C12.2604 16.2531 12.378 16.1975 12.4225 16.2281C12.4671 16.2585 12.4093 16.3336 12.4814 16.339C12.4963 16.2836 12.511 16.2285 12.5254 16.1728C12.4461 16.1714 12.3662 16.1652 12.2876 16.1627C12.2876 16.1626 12.2876 16.1626 12.2876 16.1625ZM13.5556 7.6025C13.5265 7.66293 13.4509 7.6284 13.5291 7.7634C13.5291 7.76331 13.5291 7.76322 13.5291 7.76312C13.6063 7.6509 13.6802 7.5057 13.6321 7.37097C13.5407 7.44024 13.6012 7.50765 13.5556 7.6025ZM12.7568 14.5722C12.6994 14.5355 12.6277 14.6516 12.6806 14.6876C12.7662 14.7467 12.8439 14.6288 12.7568 14.5722ZM13.2902 5.00645C13.1099 4.89071 12.8748 5.04145 12.9455 5.24384C12.9517 5.26118 13.0267 5.14518 13.0598 5.18593C13.063 5.18997 13.0507 5.25702 13.0753 5.27696C13.1 5.29686 13.1639 5.2863 13.1867 5.31689C13.2264 5.37155 13.1301 5.46871 13.1856 5.51078C13.1931 5.51631 13.2834 5.45968 13.287 5.45597C13.3447 5.39484 13.2446 5.3127 13.245 5.30247C13.2477 5.24675 13.3315 5.26496 13.3531 5.25331C13.3936 5.23138 13.3614 5.18118 13.3646 5.1783C13.4485 5.10412 13.4053 5.29087 13.4329 5.32079C13.5074 5.39945 13.5912 5.34662 13.619 5.51564C13.6216 5.53155 13.5954 5.71669 13.7171 5.49381C13.8623 5.97757 13.8565 5.27246 13.822 5.19078C13.8058 5.15376 13.7189 5.19691 13.6849 5.17166C13.6073 5.11387 13.6021 5.03122 13.484 5.02485C13.2357 5.01169 13.3848 5.13718 13.3346 5.20737C13.282 5.19333 13.2302 5.18429 13.1795 5.16371C13.2474 5.19386 13.3039 5.01444 13.2907 5.0065C13.2905 5.00649 13.2904 5.00647 13.2902 5.00645ZM13.4375 6.21578C13.3513 6.31257 13.5075 6.32517 13.408 6.40871C13.5385 6.50727 13.5473 6.3437 13.5576 6.32299C13.603 6.23704 13.7547 6.25619 13.7182 6.16001C13.6248 6.18106 13.531 6.19635 13.4375 6.21578ZM13.6051 5.31373C13.6758 5.39331 13.689 5.26702 13.7046 5.26386C13.8709 5.22605 13.7962 5.60144 13.6051 5.31373ZM12.7788 11.2413C12.7697 11.2767 12.8476 11.2618 12.8666 11.2959C12.8858 11.3293 12.8101 11.429 12.8574 11.4313C12.9047 11.4334 13.0473 11.2511 13.0533 11.4497C13.0804 11.4458 13.0999 11.4501 13.1241 11.4494C13.1305 11.3953 13.1372 11.3426 13.1437 11.287C13.0644 11.3094 12.9812 11.3313 12.9047 11.3519C12.8473 11.3154 12.9267 11.3066 12.9269 11.305C12.9268 11.305 12.9267 11.305 12.9266 11.305C12.9266 11.2468 12.7991 11.1619 12.7788 11.2413ZM13.313 8.46566C13.1251 8.43473 13.3273 8.54049 13.347 8.57731C13.3667 8.61403 13.2916 8.65374 13.3749 8.64476C13.437 8.59512 13.334 8.46902 13.3128 8.46563C13.3129 8.46564 13.3129 8.46565 13.313 8.46566ZM13.3743 6.78511C13.4102 6.87951 13.4611 6.86886 13.3933 6.96936C13.4394 6.97029 13.4865 6.97134 13.532 6.9722C13.5423 6.88742 13.4088 6.8813 13.4732 6.78661C13.4838 6.77122 13.5859 6.81796 13.56 6.74041C13.5011 6.75556 13.436 6.77037 13.3743 6.78511ZM13.4957 7.23752C13.4999 7.13528 13.1391 7.01421 13.2852 7.21936C13.3071 7.2499 13.4926 7.31469 13.4957 7.23752ZM12.8672 10.3093C12.8385 10.4795 12.9187 10.2911 12.9802 10.2528C12.9837 10.656 12.9694 10.2057 13.1626 10.187C13.1139 10.133 13.0003 10.0299 12.9567 10.1265C12.9386 10.1669 12.9965 10.1576 12.996 10.1601C12.9739 10.2358 12.8829 10.2167 12.8672 10.3093ZM13.4489 6.0329C13.451 6.03964 13.5159 6.03679 13.5263 6.05864C13.5367 6.08049 13.4868 6.12195 13.5254 6.13099C13.5643 6.13996 13.6054 6.05026 13.5799 6.01877C13.5541 5.9872 13.4309 5.9722 13.4489 6.0329ZM13.218 6.67265C13.2543 6.76412 13.5051 6.64902 13.5061 6.63045C13.512 6.46559 13.2919 6.68537 13.218 6.67265ZM12.5098 9.86928C12.6072 10.0906 12.831 9.95944 12.9691 9.84282C12.9456 9.82299 12.9222 9.80274 12.8989 9.78322C13.0443 9.87743 13.1816 10.0294 13.0799 9.71255C13.0262 9.8741 12.9996 9.73118 12.9911 9.72921C12.7109 9.68074 12.8159 9.94079 12.5098 9.86909C12.5098 9.86916 12.5098 9.86922 12.5098 9.86928ZM13.5476 5.76252C13.557 5.67108 13.5347 5.43533 13.3996 5.52879C13.4489 5.60607 13.4983 5.68382 13.5476 5.76252ZM12.1496 13.2469C12.0692 13.3103 12.0612 13.3751 12.0525 13.4676C12.1662 13.4005 12.1701 13.456 12.1911 13.4871C12.2226 13.5343 12.2341 13.4326 12.241 13.4331C12.3374 13.4494 12.3435 13.5144 12.3619 13.3691C12.3906 13.4092 12.4194 13.45 12.4476 13.4916C12.4683 13.3787 12.5346 13.3647 12.6219 13.3041C12.4237 13.346 12.5545 13.2728 12.4724 13.1761C12.4312 13.1279 12.1906 13.2152 12.1495 13.2472C12.1495 13.2471 12.1495 13.247 12.1496 13.2469ZM12.4491 10.0798C12.4809 10.1045 12.525 10.1286 12.5619 10.1531C12.5632 10.1758 12.5641 10.1984 12.5655 10.2212C12.535 10.2207 12.5032 10.2197 12.4739 10.2199C12.462 10.2484 12.5052 10.2413 12.5082 10.2505C12.5081 10.2505 12.5079 10.2505 12.5078 10.2504C12.5502 10.3819 12.5384 10.4331 12.4347 10.5228C12.5271 10.5325 12.6195 10.5422 12.7119 10.552C12.7054 10.5287 12.6992 10.5052 12.693 10.482C12.6446 10.4649 12.5962 10.4478 12.5478 10.4307C12.5779 10.4078 12.6078 10.3852 12.6378 10.3624C12.6222 10.3399 12.606 10.3133 12.5905 10.2937C12.8595 10.2187 12.6595 10.4326 12.7665 10.4462C12.8353 10.4546 12.857 10.2202 12.8129 10.182C12.8064 10.1764 12.6089 10.2063 12.718 10.1319C12.7352 10.1201 13.1516 10.1604 12.8246 10.0319C12.7782 10.0135 12.5148 10.0331 12.4491 10.0798ZM12.2254 10.9157C12.5054 10.8113 12.1728 11.2704 12.4139 11.0823C12.5299 11.1553 12.5295 11.144 12.6444 11.0946C12.6547 11.0903 12.6839 11.1358 12.6885 11.1327C12.7543 11.0821 12.7297 11.0107 12.8386 11.0217C12.8344 11.0058 12.8307 10.9909 12.8265 10.975C12.7173 11.0278 12.659 10.9195 12.5766 10.8715C12.5392 10.8497 12.5229 10.8892 12.4901 10.8707C12.4782 10.8638 12.5092 10.8096 12.4735 10.8035C12.3928 10.7902 12.2793 10.8142 12.2131 10.8687C12.213 10.8687 12.2129 10.8687 12.2128 10.8686C12.2166 10.8844 12.2215 10.8999 12.2254 10.9157ZM12.7463 8.12227C12.8958 8.11576 12.9477 8.02997 13.0008 8.21126C13.0307 8.20579 13.0604 8.20004 13.0903 8.19459C13.0909 8.16503 13.0914 8.13646 13.0923 8.10662C12.6687 7.97061 13.175 7.86355 12.8566 7.93289C12.822 7.94047 12.8519 8.01318 12.7685 7.93557C12.7684 7.93565 12.7684 7.93574 12.7683 7.93582C12.7858 8.03347 12.8366 8.05116 12.7463 8.12227ZM12.7801 8.77127C13.0658 9.0257 12.9855 8.4849 12.8939 8.56434C12.8857 8.57103 12.9279 8.8043 12.7801 8.77127ZM12.7026 6.97885C12.6864 7.07668 12.8526 7.10192 12.9138 7.09851C12.9752 7.09512 12.9218 7.02012 12.9323 7.01243C12.9667 6.98727 12.9807 7.05025 13.0277 7.01783C13.043 7.00679 13.1213 6.84349 13.115 6.83523C13.0798 6.7879 12.9351 6.83536 12.9207 6.82135C12.8734 6.77632 12.9514 6.72727 12.8795 6.70738C12.7261 6.66398 12.8784 6.7878 12.8793 6.80404C12.881 6.85654 12.7935 6.84231 12.7716 6.87925C12.7497 6.91621 12.777 6.94508 12.767 6.97895C12.7636 6.99022 12.7037 6.97392 12.7026 6.97885ZM13.0191 7.34463C12.9039 7.22929 12.7393 7.46134 12.7656 7.49477C12.844 7.59154 13.0741 7.39933 13.0191 7.34463ZM12.6615 10.6296C12.5798 10.5255 12.4826 10.7369 12.513 10.8025C12.5523 10.7947 12.6896 10.666 12.6615 10.6296ZM12.5164 9.8117C12.5357 9.90163 12.7544 9.80813 12.7587 9.73581C12.6276 9.6792 12.6502 9.72172 12.6397 9.76834C12.629 9.81494 12.5013 9.74168 12.5164 9.8117ZM12.9726 5.92838C12.9685 5.94572 13.0466 6.25974 13.1127 6.09179C13.1177 6.07852 13.1215 5.86786 13.1024 5.85035C13.0637 5.81413 12.984 5.88147 12.9726 5.92838ZM12.3599 9.37688C12.4723 9.43624 12.466 9.47986 12.6082 9.45314C12.6082 9.45308 12.6082 9.45302 12.6082 9.45296C12.6383 9.57178 12.3558 9.54716 12.3592 9.57255C12.3711 9.66165 12.5805 9.60065 12.6406 9.66217C12.5921 9.52891 12.7236 9.57961 12.7423 9.48476C12.7464 9.46421 12.6751 9.36664 12.6261 9.3487C12.5771 9.33051 12.4214 9.35926 12.3599 9.37688ZM12.9917 5.50018C12.9353 5.59561 13.1147 5.71055 13.1609 5.57342C13.1835 5.50688 13.0261 5.44212 12.9917 5.50018ZM11.7041 15.5944C11.7564 15.5884 11.8083 15.5831 11.8603 15.5762C11.8652 15.6143 11.8699 15.6548 11.8748 15.6939C11.865 15.6618 11.8555 15.6288 11.8458 15.5969C11.8151 15.6628 11.7193 15.677 11.7041 15.5946C11.7041 15.5945 11.7041 15.5945 11.7041 15.5944ZM11.0701 17.9987C11.015 18.0153 11.1411 18.1165 11.1545 18.1124C11.2546 18.0801 11.1467 17.9753 11.0701 17.9987ZM12.1953 10.7202C12.1623 10.8342 12.4125 10.7796 12.4365 10.7103C12.3857 10.7489 12.214 10.6557 12.1953 10.7202ZM11.3183 17.1578C11.3412 17.1531 11.3641 17.1483 11.3873 17.1424C11.3498 17.1704 11.3293 17.1716 11.3183 17.1578ZM12.7539 5.95163C12.7334 5.96705 12.7032 6.09736 12.7241 6.1181C12.7681 6.1608 12.9132 6.07202 12.879 6.00719C12.8753 5.99999 12.7745 5.93608 12.7539 5.9519C12.7539 5.95181 12.7539 5.95172 12.7539 5.95163ZM11.5822 15.7303C11.5846 15.7306 11.5867 15.7311 11.5887 15.7319C11.5866 15.7313 11.5843 15.7309 11.5822 15.7303ZM10.117 20.5082C10.1209 20.5083 10.1246 20.5088 10.1281 20.5097C10.1246 20.5092 10.1208 20.5089 10.117 20.5082ZM12.4447 6.86024C12.2096 6.87829 12.3209 6.99308 12.4436 6.92576C12.4501 6.92194 12.4431 6.87074 12.4447 6.86024Z" fill="#E8E8E8"/>
</svg>
