<svg width="83" height="4" viewBox="0 0 83 4" fill="none" xmlns="http://www.w3.org/2000/svg">
<path d="M31.1453 3.98305C29.1963 3.95889 27.1993 3.80048 25.1654 3.38728C23.7233 3.08767 22.1359 3.03747 20.6092 2.97985C20.1917 2.96548 20.221 2.89933 20.1038 2.88799C19.7824 2.85707 19.5866 2.93272 19.3509 2.92231C18.2053 2.87165 17.1205 2.83686 15.9727 2.7307C15.9559 2.72914 15.9395 2.72755 15.9235 2.72594L15.9589 2.7278C14.8616 2.66072 15.4007 2.47464 15.0028 2.41074C14.2205 2.28265 14.8795 2.57911 14.5677 2.6288C13.6664 2.5789 12.7579 2.51059 11.8558 2.43641C12.0771 2.42181 12.299 2.40745 12.5233 2.3942C12.1303 2.37056 11.5687 2.30093 12.2313 2.26166C12.0852 2.23511 11.9529 2.20577 11.8027 2.17921C11.7571 2.2765 11.0597 2.24883 10.9932 2.30388C10.9261 2.35925 11.3198 2.36638 11.3163 2.37126C11.2861 2.44439 9.68495 2.25574 9.56993 2.23937C9.26511 2.19949 9.54099 2.09282 9.28007 2.0851C8.83211 2.0714 9.11413 2.33944 8.52932 1.96987C8.28172 2.06246 8.26408 2.00517 7.95973 1.9781C7.91965 1.97458 7.94677 2.03899 7.929 2.03948C7.4645 2.05587 7.82679 1.96285 7.82471 1.9564C7.78984 1.84697 7.2917 1.86202 7.18802 1.8448C6.52061 1.73479 5.94593 1.64083 5.35655 1.55903C4.8096 1.50191 4.23916 1.4649 3.56633 1.4434C3.26896 1.4335 2.35755 1.47138 2.06939 1.45247C1.78379 1.43349 1.93782 1.35693 1.78836 1.31943C1.54866 1.50422 1.32048 1.52401 0.783481 1.40116C0.583266 1.53625 0.609176 1.42709 0.225974 1.45392C-0.0931935 1.47615 -0.648741 1.63842 -1 1.50009C-0.597525 1.5127 -0.639049 1.44621 -0.185929 1.40616C-0.0352831 1.39257 1.5376 1.39154 1.42097 1.25341C1.35949 1.18112 0.83878 1.24649 0.818304 1.23323C0.701253 1.15564 0.991998 1.06074 1.25021 1.09461C1.18617 1.11012 1.10819 1.12584 1.03924 1.14137C1.61833 1.23923 1.22092 0.866568 1.66053 1.1926C1.71488 1.23261 1.69308 1.27411 1.78321 1.31673C1.80179 1.29927 1.69169 1.25551 1.78664 1.24802C1.88321 1.24045 2.06609 1.32357 2.09356 1.2542C2.13489 1.15326 1.73494 1.1917 1.70478 1.18576C1.70445 1.18637 1.70413 1.18698 1.70381 1.18759C1.43851 1.13319 1.99312 1.12865 2.02015 1.11928C2.19219 1.05697 2.07504 1.00798 2.33329 0.957104C2.4808 0.928083 2.85589 0.947699 2.99371 0.939193C3.13214 0.930389 2.91721 0.881034 3.01041 0.87144C3.10365 0.861846 3.21808 0.899064 3.32697 0.888125C3.37336 0.88329 3.37113 0.829955 3.39389 0.828298C3.63658 0.810105 3.47557 0.919396 3.69552 0.914957C3.83759 0.91181 4.31504 0.815084 3.98718 0.779792C4.14482 0.771139 4.30008 0.765616 4.45705 0.759972C4.35881 0.742384 4.25601 0.72997 4.15918 0.709904C4.45557 0.739722 4.58989 0.651109 4.77719 0.648252C4.9642 0.645544 5.12843 0.7591 5.33575 0.712163C5.35998 0.706692 5.3794 0.701588 5.39461 0.696814L5.41497 0.69784C5.48091 0.679871 5.47151 0.665115 5.41803 0.652664L5.3961 0.651558C5.23032 0.618267 4.65113 0.627402 4.55624 0.611717C4.50404 0.602737 4.7066 0.520821 4.73804 0.519097C4.87584 0.511214 5.0384 0.576515 5.14468 0.576717C5.23651 0.576769 5.3212 0.572776 5.3989 0.566571L5.42379 0.567825C5.67091 0.55685 5.8718 0.520698 6.14457 0.526705C7.36786 0.554102 8.88037 0.608266 10.0334 0.656262C10.4626 0.674409 10.7159 0.779242 10.9085 0.787062C11.3592 0.805015 11.4189 0.728594 11.8117 0.744057C12.3978 0.766934 13.2173 0.872871 13.7067 0.907641C14.0432 0.931769 14.3527 0.86679 14.442 0.868305C14.9399 0.876057 15.4816 0.888687 16.0176 0.902216L16.0556 0.904206C16.8152 0.954034 17.5733 0.981053 18.1706 0.997108C18.644 1.00946 18.8689 1.09972 18.9672 1.09941C19.3908 1.09736 19.2786 1.02123 19.6227 1.03535C19.8086 1.04287 19.8424 1.11434 19.8672 1.11758C20.0861 1.14519 20.1324 1.05366 20.304 1.05419C21.294 1.05798 22.2548 1.14383 23.2573 1.22997C23.3298 1.23637 23.3198 1.27669 23.3675 1.27846C23.5716 1.28565 23.4818 1.21289 23.6955 1.22797C24.1399 1.26034 24.5966 1.32636 25.0727 1.41709C25.1201 1.42623 25.1324 1.48157 25.2398 1.50154C25.3371 1.51986 25.4236 1.49467 25.5646 1.51899C25.5771 1.52108 25.5901 1.52365 25.6038 1.52679C25.9923 1.61596 26.3779 1.74402 26.8052 1.8116C26.8761 1.82271 26.9731 1.77285 27.0793 1.78843C27.4129 1.83814 27.9035 1.95427 28.1932 1.98556C29.1473 2.08973 30.0363 2.10905 30.9326 2.12469C31.1433 2.12832 31.3292 2.18733 31.4384 2.18824C31.685 2.18943 31.4981 2.13603 31.7471 2.13204C31.9616 2.12787 32.1746 2.12059 32.3849 2.10908C34.2719 2.00557 36.1665 1.91831 38.0662 1.78438C38.9011 1.72573 39.9102 1.59291 40.7116 1.53778C40.7723 1.53367 40.8237 1.53262 40.8687 1.53356C41.0802 1.53715 41.1614 1.58212 41.3585 1.56651C41.7866 1.53293 41.8556 1.4295 42.303 1.38523C42.6583 1.35027 43.073 1.41638 43.4413 1.37919C43.8087 1.34186 43.9699 1.23201 44.3906 1.1808C44.738 1.13857 45.2243 1.1323 45.6023 1.0832C46.248 0.999656 46.8896 0.909482 47.5334 0.813611C49.6929 0.377671 52.3027 -0.0586778 54.7029 0.0341642C55.2069 0.0423945 55.6637 0.0523437 56.1689 0.064662C57.4157 0.0960563 58.8038 0.0879046 60.0958 0.188289C60.2166 0.197793 60.0333 0.288968 60.4178 0.271638C60.6153 0.262203 60.9304 0.184478 61.3993 0.183409C64.2869 0.21043 67.3026 0.263987 70.351 0.630618C70.6413 0.674288 70.9335 0.727172 71.2214 0.788212C75.0485 1.19019 79.4015 0.655898 82.8994 1.59902C83.0807 1.64623 82.9835 1.87714 82.8729 1.94261C82.7706 1.89559 82.6702 1.83962 82.5657 1.78622C82.4286 2.07397 82.4528 1.99968 81.9452 1.96957C81.637 1.95057 81.8828 2.07634 81.7164 2.10969C81.5013 2.15356 80.4846 2.28064 80.6837 2.09243C80.6209 2.12453 80.5625 2.15529 80.5006 2.18664C79.7655 2.20279 79.0554 2.2344 78.3363 2.26909C78.2123 2.27517 78.2045 2.33493 78.0765 2.34075C77.7322 2.35671 77.4606 2.30866 77.1062 2.30249C76.9134 2.29899 76.8856 2.3674 76.6327 2.35355C76.381 2.33949 76.3905 2.24643 76.0425 2.33392C76.2621 2.4608 75.2655 2.33348 74.9103 2.32157C74.8589 2.32007 74.4278 2.40313 74.2063 2.37789C73.977 2.35272 73.6417 2.26484 73.2877 2.2779C73.1229 2.28409 73.0164 2.3585 72.838 2.34895C72.7178 2.34259 72.5641 2.25644 72.412 2.23936C72.2498 2.22208 71.8988 2.24523 71.8375 2.23846C71.6034 2.21459 71.8681 2.1947 71.7078 2.17264C71.467 2.13809 71.2108 2.09966 70.9259 2.02923C70.4293 1.89953 69.9046 1.81339 69.4266 1.78727C69.3392 1.7823 69.4531 1.85504 69.4411 1.85585C68.85 1.87177 69.1641 1.82457 69.0134 1.75628C68.8662 1.68515 67.7119 1.6503 67.7027 1.75856C67.674 1.62545 67.4096 1.71547 67.3459 1.71718C67.0851 1.72285 67.1385 1.61077 66.888 1.63823C66.7948 1.64826 66.973 1.73061 66.8735 1.72536C66.6206 1.71226 66.4085 1.583 66.0824 1.56339C66.0038 1.55864 65.9776 1.61312 65.8338 1.60834C65.6958 1.60337 65.0998 1.52584 65.3746 1.64669C65.0179 1.54765 64.941 1.59755 64.5277 1.58941C64.4243 1.58728 64.2845 1.49672 64.0589 1.52165C63.9843 1.53014 63.9858 1.6157 63.8721 1.61516C63.6079 1.61414 63.3647 1.52317 63.0302 1.51673C62.4097 1.50453 61.7426 1.5622 61.0952 1.53621C60.9195 1.5291 60.9651 1.44334 60.7044 1.44021C60.6617 1.43997 60.3598 1.5127 60.1823 1.5048C60.0763 1.50002 59.5168 1.44499 59.4103 1.44031C59.2269 1.43271 59.1927 1.51574 59.0908 1.499C58.7962 1.45076 59.0255 1.32936 58.6793 1.49531C58.5666 1.40195 58.3619 1.41035 58.296 1.29575C58.1769 1.42051 58.0138 1.29945 57.7845 1.34045C57.5574 1.38149 57.3655 1.62333 57.3101 1.36203C57.202 1.39331 56.7309 1.44554 56.6591 1.44922C56.4323 1.45949 56.5541 1.38777 56.3816 1.39683C56.3509 1.39834 56.3834 1.44785 56.1864 1.44219C56.0489 1.43837 55.1211 1.43162 55.0597 1.42461C54.409 1.34468 55.4157 1.37707 55.5476 1.32415C55.5717 1.33828 55.5955 1.35246 55.6212 1.36644C55.8989 1.39087 55.7415 1.27868 55.6153 1.25227C55.4893 1.22588 55.25 1.27462 55.1424 1.23756C55.0888 1.21895 55.123 1.08534 55.284 1.10214C55.1118 1.06025 55.3473 1.0177 55.2793 0.978707C55.2348 0.953049 54.9369 0.936961 54.6992 0.94411C54.5419 0.94886 54.4192 0.964925 54.4176 0.994369C54.5023 0.995653 54.6008 0.995404 54.699 0.995963C54.7668 0.996343 54.8332 0.996921 54.8937 0.998398C54.9906 1.06293 54.8915 1.20427 54.6978 1.30705C54.5072 1.40943 54.2345 1.47531 53.9724 1.39195C53.5852 1.27321 54.2161 1.15622 53.3122 1.28682C53.4513 1.28729 53.5691 1.29606 53.6969 1.29857C53.7146 1.39417 53.5019 1.29352 53.3995 1.32747C53.3496 1.34385 53.6617 1.40272 53.3934 1.43331C53.1536 1.30386 52.9805 1.44771 52.591 1.4715C52.6977 1.44072 52.8059 1.41063 52.9125 1.3811C52.248 1.31462 53.7844 1.20429 52.4915 1.21541C52.6444 1.20155 52.801 1.1944 52.9568 1.18061C52.878 1.13374 52.9939 0.980355 52.9237 0.952257C52.7416 0.878311 52.4781 0.942389 52.2578 0.950745C52.1629 0.954405 52.2188 0.910418 52.2108 0.910742C52.0791 0.915894 52.1112 0.972238 51.9972 0.984943C51.8529 1.00011 51.4304 0.98341 51.3626 0.998086C51.1881 1.03352 51.4949 1.1168 51.4769 1.12765C51.3707 1.19443 51.141 1.17397 51.1603 1.24559C51.7008 1.12197 53.2755 1.08692 51.8656 1.3101C52.2645 1.39699 52.1637 1.56428 51.6114 1.62905C51.1558 1.6871 51.4447 1.59106 51.1977 1.54638C51.1656 1.53892 50.5489 1.5859 50.5239 1.64308C50.5314 1.52359 50.3167 1.45114 50.4325 1.31162C50.4494 1.29079 50.7058 1.26125 50.6032 1.17783C50.5535 1.13551 50.4069 1.04983 50.4191 0.985329C50.3723 1.03588 50.3252 1.09213 50.2778 1.14506C49.8954 1.2183 49.8356 1.18329 49.6109 1.14114C49.6263 1.17256 49.8437 1.27689 49.5436 1.28725C49.5279 1.28754 49.5064 1.23976 49.3528 1.24266C49.0433 1.24924 48.9779 1.246 49.1809 1.05623C48.5751 1.25575 48.414 1.12473 47.8013 1.26919C47.9532 1.43944 48.1667 1.36113 48.7377 1.21589C48.7712 1.25589 48.7913 1.29791 48.8259 1.33817C48.036 1.37955 48.4207 1.32025 48 1.48469C47.9462 1.50536 47.7662 1.53214 47.6338 1.56426C47.5091 1.59446 47.4286 1.63181 47.5289 1.68087C47.5449 1.6886 47.5929 1.68854 47.6502 1.68653C47.7691 1.68273 47.9252 1.66787 47.9024 1.70407C47.8989 1.70941 47.7797 1.73623 47.6597 1.7576C47.549 1.77733 47.4411 1.7937 47.4221 1.79024C46.9193 1.70086 47.7688 1.48852 46.4479 1.70804C46.4112 1.71409 46.4048 1.77096 46.3342 1.78715C46.2024 1.81729 46.1921 1.75353 46.0736 1.78224C45.9564 1.81081 45.7984 1.91609 45.6082 1.85625C45.2622 1.74716 46.0312 1.57903 46.3869 1.61344C46.5043 1.41529 44.0315 1.67433 43.8785 1.69454C43.2139 1.82418 44.3264 1.68546 44.3888 1.73116C44.4146 1.75114 44.4306 2.03516 44.6955 1.82422C44.7738 1.76176 44.4173 1.7242 44.6226 1.67399C44.8293 1.62347 44.7536 1.71484 44.7696 1.71914C44.8229 1.73403 45.0423 1.68062 45.0718 1.68941C45.5329 1.82177 45.5216 2.09725 44.8924 1.75813C44.6451 1.87429 45.2483 1.95868 44.9357 2.05227C44.5546 2.16599 44.261 2.06269 44.2105 2.06154C43.6198 2.04543 44.3119 2.17399 43.5913 2.17614C43.1918 2.17617 44.1754 2.00074 43.2694 2.08923C42.5105 2.16093 42.9251 2.19333 42.8822 2.34693C42.8713 2.38288 42.4587 2.45845 43.0248 2.39831C43.0377 2.3582 43.064 2.30459 43.0976 2.26585C43.2377 2.28316 43.4879 2.45805 43.5618 2.45858C43.9268 2.45998 43.8993 2.36047 44.1248 2.45991C43.9599 2.34389 44.2147 2.39982 44.306 2.3636C44.641 2.2298 44.1854 2.23686 44.9728 2.2901C44.8645 2.23961 44.7695 2.18876 44.6646 2.13781C44.7584 2.12655 44.8491 2.11539 44.9426 2.10385C45.0937 2.22417 45.5865 2.15494 45.1532 2.33658C45.6974 2.31866 45.9083 2.26399 46.0158 2.14657C46.0356 2.12418 46.1145 2.10712 46.2098 2.09406C46.1883 2.06692 46.1548 1.97922 46.1685 1.96639C46.291 1.85342 46.5167 1.99708 46.4541 2.06975C46.5216 2.06479 46.5737 2.06213 46.5923 2.06146C46.7101 2.05729 46.4887 2.14307 46.5855 2.15156C46.6168 2.15451 46.947 2.10091 46.9558 2.12364C47.0149 2.26924 46.4563 2.23125 47.5612 2.17789C47.5697 2.03705 47.066 2.13302 47.1777 1.96988C47.2975 1.79497 47.6084 1.96833 47.6465 1.76708C47.6528 1.77357 47.6583 1.77987 47.6635 1.78613C47.6809 1.80744 47.6936 1.82823 47.7129 1.85396C48.1428 1.70709 48.1727 1.86138 48.3145 1.87443C48.5914 1.89966 49.7795 1.66118 48.6835 1.72587C48.8382 1.68293 48.9958 1.64629 49.1494 1.60466C49.2382 1.88417 49.1241 1.78378 49.8759 1.69413C50.0411 1.67551 50.1142 1.79265 50.2509 1.61714C50.2518 1.76648 50.7212 1.60497 50.7691 1.61805C51.0705 1.69232 50.0331 2.00873 49.8507 1.78033C49.6871 1.91322 49.6642 1.77989 49.4645 1.83501C49.1755 1.91522 49.1404 1.94954 48.7694 1.91751C48.4521 2.12065 50.1284 1.72431 49.1392 2.10068C48.9125 2.18486 48.4266 2.3269 47.7527 2.45365C45.8098 2.84347 42.4404 3.16826 41.0287 3.30936C40.8607 3.32772 40.7155 3.34302 40.6012 3.35501C38.018 3.61693 36.6667 3.723 34.3524 3.85201C34.1245 3.86485 32.4033 3.97589 32.7527 3.79324C32.8021 3.76709 33.5392 3.66339 32.8971 3.57195C33.0304 3.63988 32.6611 3.70978 32.6291 3.71954C32.5718 3.73735 32.5223 3.75384 32.4789 3.76914C31.9546 3.937 32.2295 3.97904 31.1453 3.98305ZM27.8568 2.32708C29.3034 2.5119 28.2484 2.29577 28.5718 2.08136C28.3873 2.06372 28.2033 2.04464 28.0195 2.02401C28.0662 2.04456 28.1123 2.06489 28.1592 2.08525C28.1594 2.08527 28.1596 2.08529 28.1598 2.08531C28.0597 2.16637 27.9583 2.24694 27.8568 2.32708ZM3.73377 0.62032C3.79145 0.588652 3.85035 0.556967 3.9129 0.52613C4.10939 0.538629 4.30483 0.55136 4.5011 0.564922C4.47676 0.586414 4.45417 0.608208 4.43048 0.629729C4.19805 0.624794 3.96663 0.620631 3.73377 0.62032ZM46.5869 1.55352C46.873 1.60881 46.8272 1.45327 47.1986 1.47931C47.1389 1.36777 47.0751 1.25931 47.0141 1.14903C46.7402 1.20137 46.6833 1.25381 46.3813 1.26114C46.4212 1.29464 46.4612 1.32834 46.4995 1.36222C46.548 1.34813 46.5999 1.33245 46.6476 1.3193C46.7367 1.41569 46.262 1.48933 46.5859 1.55388C46.5863 1.55376 46.5866 1.55364 46.5869 1.55352ZM49.3554 1.06961C49.5052 1.05606 50.1008 1.01198 50.1744 0.952457C50.421 0.739368 48.7749 1.13109 49.9757 0.773493C49.9663 0.751429 49.9682 0.727969 49.9644 0.705202C49.7375 0.734349 49.5126 0.767351 49.2876 0.802462C49.3164 0.890596 49.3249 0.981304 49.3554 1.06961ZM33.1119 2.45608C33.341 2.45606 34.4226 2.31569 34.0624 2.23101C33.9572 2.20625 33.4797 2.3843 33.295 2.38822C33.1752 2.39081 33.3048 2.30081 33.0706 2.34447C33.0831 2.38019 33.0919 2.42008 33.1125 2.4558C33.1123 2.4559 33.1121 2.45599 33.1119 2.45608ZM32.7113 2.95965C32.9467 2.9316 33.1834 2.89955 33.4211 2.87037C33.2413 2.78645 32.9049 2.86599 32.8773 2.73506C32.942 2.72135 33.0046 2.70782 33.0694 2.6941C33.121 2.72014 33.1719 2.74625 33.222 2.77238C33.4216 2.68906 33.296 2.66048 33.6771 2.65953C33.435 2.47307 33.3888 2.36828 32.749 2.6071C32.8635 2.49375 32.7348 2.15675 32.4017 2.40512C32.3964 2.40924 32.3911 2.41353 32.3857 2.41797C32.367 2.43325 32.3788 2.44544 32.4045 2.45514C32.4652 2.47729 32.6038 2.48625 32.6065 2.49131C32.6553 2.58152 32.5018 2.64954 32.5533 2.73445C32.5767 2.77285 32.7483 2.76254 32.7769 2.81606C32.79 2.84222 32.6322 2.92791 32.7113 2.95965ZM32.2206 2.51481C32.2883 2.45543 32.0427 2.33364 31.8336 2.36504C31.5069 2.41333 32.0273 2.53154 32.2206 2.51481ZM3.73249 0.620428C3.73292 0.620392 3.73334 0.620356 3.73377 0.62032C3.73356 0.62044 3.73334 0.620559 3.73313 0.620679C3.73291 0.620595 3.7327 0.620511 3.73249 0.620428ZM48.5901 1.14739C48.7518 1.06874 49.0074 1.02711 48.9748 0.956004C49.0612 0.954843 49.1498 0.953063 49.2362 0.952102C49.2312 0.929791 49.2254 0.90758 49.2205 0.885499C48.9639 0.91896 48.7106 0.953442 48.4601 0.984708C48.5023 1.03911 48.5423 1.09412 48.5901 1.14739ZM51.3867 0.756544C51.7115 0.731386 51.4294 0.655915 51.4957 0.599065C51.5639 0.541602 51.8586 0.556153 51.8188 0.487957C51.6245 0.501756 51.4248 0.518348 51.226 0.537722C51.286 0.609503 51.3307 0.684538 51.3874 0.756475C51.3872 0.756498 51.387 0.756521 51.3867 0.756544ZM21.8512 1.48977C22.0719 1.52155 21.9769 1.59509 22.4179 1.52474C22.4176 1.52472 22.4173 1.52471 22.417 1.52469C22.0049 1.4379 21.4717 1.361 21.0138 1.41147C21.29 1.50233 21.5057 1.44121 21.8512 1.48977ZM45.8049 1.41089C45.7207 1.48343 46.1515 1.48697 46.2382 1.41793C46.3779 1.30683 45.9339 1.30115 45.8049 1.41089ZM13.0086 1.74019C12.6683 1.91761 13.2872 2.16219 13.952 2.09517C14.0088 2.08933 13.5865 2.01097 13.7138 1.97854C13.7263 1.97537 13.9596 1.98938 14.0195 1.96493C14.0784 1.94041 14.0202 1.8758 14.1154 1.85339C14.2832 1.81434 14.6548 1.91303 14.7832 1.85766C14.7997 1.85025 14.5687 1.75838 14.5547 1.75466C14.3189 1.69543 14.0822 1.79505 14.0465 1.79436C13.8548 1.79049 13.8876 1.70633 13.8401 1.68435C13.7514 1.64302 13.5903 1.67413 13.5789 1.67084C13.2934 1.58408 13.9508 1.63276 14.0428 1.60534C14.2842 1.53162 14.0669 1.44627 14.6426 1.42103C14.6987 1.41873 15.3502 1.44763 14.5309 1.32182C16.1535 1.18168 13.7238 1.1795 13.4584 1.2096C13.3365 1.22481 13.5163 1.31382 13.4414 1.34731C13.2706 1.42398 12.9817 1.4261 13.0028 1.54516C13.0466 1.79556 13.4305 1.64946 13.69 1.70182C13.6608 1.75456 13.6477 1.80663 13.5947 1.85721C13.6752 1.78972 13.0325 1.72696 13.0087 1.7397C13.0086 1.73986 13.0086 1.74002 13.0086 1.74019ZM17.1191 1.63358C17.4779 1.7237 17.4582 1.56591 17.7868 1.6667C18.0838 1.5355 17.5069 1.52639 17.4403 1.51528C17.1357 1.46774 17.1496 1.31537 16.836 1.34722C16.9387 1.44301 17.0216 1.53844 17.1191 1.63358ZM13.9575 1.43153C14.2049 1.362 13.7679 1.34593 13.7521 1.33002C13.5662 1.16186 14.8656 1.24429 13.9575 1.43153ZM34.5449 2.68961C34.6686 2.68777 34.5858 2.61653 34.6936 2.58776C34.801 2.55885 35.1777 2.60172 35.1655 2.55507C35.1532 2.50841 34.463 2.42606 35.1468 2.35906C35.122 2.3339 35.1287 2.31364 35.116 2.29033C34.9281 2.30077 34.7379 2.31077 34.5491 2.32106C34.657 2.39142 34.7678 2.46557 34.8714 2.53356C34.7691 2.60056 34.7055 2.52604 34.6997 2.52638C34.6997 2.52647 34.6997 2.52655 34.6997 2.52663C34.5024 2.54431 34.2674 2.69378 34.5449 2.68961ZM24.9366 1.91948C24.8677 2.10022 25.1967 1.942 25.3259 1.94498C25.3735 1.94552 25.4247 1.96066 25.4673 1.97451C25.5331 1.99642 25.5792 2.01427 25.5527 1.95663C25.5308 1.94469 25.5052 1.93481 25.4775 1.9267C25.2702 1.8663 24.943 1.90142 24.9365 1.91972C24.9365 1.91964 24.9365 1.91956 24.9366 1.91948ZM19.089 1.69141C19.3947 1.65138 19.3472 1.60094 19.7192 1.66451C19.7056 1.61828 19.692 1.57105 19.6785 1.52552C19.3823 1.51887 19.4004 1.65279 19.0589 1.59226C19.003 1.58223 19.1253 1.47824 18.8715 1.50715C18.9439 1.56559 19.0173 1.63026 19.089 1.69141ZM20.6053 1.55151C20.2538 1.55068 19.9681 1.91657 20.6175 1.76303C20.714 1.74021 20.8702 1.55239 20.6053 1.55151ZM31.3279 2.84821C31.9198 2.85592 31.2468 2.80101 31.0942 2.74046C32.4655 2.69144 30.9381 2.76191 30.8056 2.56143C30.6385 2.61224 30.3187 2.7259 30.668 2.7693C30.8129 2.78667 30.7615 2.72868 30.7701 2.72916C31.0381 2.74833 31.0041 2.84108 31.3279 2.84821ZM16.4909 1.6107C16.5134 1.60921 16.4822 1.54311 16.5538 1.53438C16.6256 1.52581 16.7833 1.57912 16.8014 1.54053C16.819 1.50197 16.4994 1.45404 16.3994 1.47645C16.2995 1.4994 16.2878 1.62334 16.4909 1.6107ZM18.7629 1.85228C19.0613 1.81256 18.5803 1.56555 18.5161 1.56491C17.9489 1.56317 18.7809 1.77828 18.7629 1.85228ZM29.9321 3.21321C30.66 3.12422 30.137 2.89639 29.6993 2.74616C29.6389 2.76816 29.5767 2.78993 29.5169 2.81142C29.7951 2.67247 30.27 2.55109 29.2216 2.61872C29.7892 2.69355 29.309 2.70303 29.3046 2.71132C29.2213 2.99221 30.0815 2.91025 29.9314 3.21318C29.9316 3.21319 29.9318 3.2132 29.9321 3.21321ZM15.5191 1.49511C15.2085 1.48591 14.3927 1.50485 14.7684 1.64237C15.0178 1.59362 15.2681 1.5445 15.5191 1.49511ZM41.6989 2.57982C41.9592 2.63024 42.1928 2.61135 42.5068 2.58248C42.2164 2.50163 42.4015 2.47556 42.4945 2.44312C42.6364 2.39415 42.2862 2.42423 42.2846 2.41738C42.2835 2.31944 42.5058 2.28714 41.9975 2.3285C42.1207 2.28487 42.2415 2.24121 42.3654 2.19778C41.9767 2.22316 41.8812 2.16644 41.6287 2.10817C41.8832 2.27924 41.5583 2.18461 41.2809 2.30279C41.1428 2.36184 41.5673 2.55362 41.6999 2.57975C41.6995 2.57977 41.6992 2.5798 41.6989 2.57982ZM30.679 3.27951C30.7538 3.24709 30.8241 3.20219 30.8964 3.16426C30.9741 3.16189 31.0539 3.15967 31.1319 3.15661C31.1413 3.18701 31.1491 3.21879 31.1602 3.24803C31.2638 3.25753 31.2238 3.21502 31.2546 3.21121C31.2546 3.21137 31.2546 3.21153 31.2546 3.21169C31.6965 3.15616 31.8749 3.15811 32.2259 3.23817C32.2219 3.14536 32.2179 3.05255 32.214 2.95974C32.1386 2.97185 32.0589 2.98336 31.9834 2.99424C31.9441 3.04535 31.9041 3.09639 31.8636 3.14727C31.7732 3.12185 31.684 3.09601 31.5941 3.06945C31.5233 3.08818 31.436 3.10753 31.3743 3.12506C31.0183 2.8661 31.8284 3.04004 31.8326 2.9288C31.8367 2.86281 31.0269 2.8696 30.9088 2.91175C30.8915 2.91833 31.0647 3.11521 30.768 3.0086C30.7208 2.99136 30.7175 2.57429 30.3872 2.90208C30.3397 2.94839 30.49 3.21427 30.679 3.27951ZM33.6651 3.32549C33.1924 3.08462 34.8965 3.27009 34.1555 3.09219C34.3562 2.95747 34.3182 2.96128 34.1021 2.86442C34.0829 2.85573 34.2264 2.81362 34.2135 2.81006C34.0137 2.76132 33.7802 2.80665 33.7722 2.6975C33.7196 2.70635 33.671 2.71432 33.6177 2.7232C33.8445 2.81352 33.4971 2.90277 33.3668 2.99732C33.307 3.04019 33.4504 3.04421 33.4001 3.08162C33.3811 3.09532 33.1817 3.08146 33.176 3.11794C33.1638 3.20042 33.2939 3.30359 33.5086 3.35165C33.5086 3.35173 33.5086 3.35181 33.5086 3.35189C33.561 3.34354 33.6122 3.33411 33.6651 3.32549ZM23.8913 2.38117C23.8306 2.2264 23.5224 2.14837 24.1288 2.14424C24.1024 2.1117 24.0756 2.07944 24.0493 2.04706C23.9484 2.03794 23.8483 2.02969 23.7461 2.02172C23.3972 2.42297 22.8807 1.89298 23.214 2.22807C23.25 2.26445 23.4921 2.24708 23.2489 2.31842C23.2492 2.31852 23.2495 2.31863 23.2498 2.31874C23.5798 2.31828 23.6267 2.27048 23.8913 2.38117ZM26.0789 2.64509C26.7373 2.4985 25.6423 2.3612 25.3828 2.36998C25.3248 2.37357 25.3073 2.38708 25.3576 2.41295C25.3593 2.41384 25.3645 2.41511 25.3728 2.41677C25.4848 2.44292 26.1569 2.51843 26.0789 2.64509ZM20.002 2.35557C20.3438 2.36776 20.3697 2.20058 20.3366 2.13935C20.3032 2.07793 20.0655 2.13438 20.0349 2.12425C19.9358 2.09078 20.1478 2.07418 20.0191 2.02846C19.9767 2.01352 19.3819 1.94226 19.3544 1.94892C19.2021 1.98612 19.4209 2.12897 19.3773 2.14399C19.235 2.19325 19.0441 2.1173 19.0017 2.19009C18.91 2.34545 19.2717 2.18777 19.3321 2.18621C19.5147 2.18229 19.4971 2.27044 19.6333 2.29079C19.7693 2.3111 19.8593 2.28251 19.9792 2.29115C20.0192 2.29403 19.9847 2.35467 20.002 2.35557ZM21.1403 2.02741C20.7803 2.14413 21.6436 2.3076 21.7468 2.2833C22.0526 2.20643 21.3142 1.97045 21.1403 2.02741ZM32.497 2.98731C32.4684 2.99719 32.4486 3.00644 32.4362 3.01505C32.4126 3.03148 32.416 3.04562 32.4386 3.05745C32.5357 3.10872 32.9964 3.11637 33.156 3.07983C33.1123 3.04397 32.6083 2.94924 32.497 2.98731ZM29.7315 3.2022C30.035 3.18952 29.6456 2.96207 29.3962 2.94837C29.2401 3.07457 29.3804 3.05733 29.5441 3.073C29.7079 3.08845 29.4945 3.21099 29.7315 3.2022ZM16.2862 2.08412C16.3517 2.09342 17.4043 2.03198 16.8053 1.95582C16.7617 1.95162 16.0848 1.9297 15.9804 1.94044C15.9798 1.94134 15.9764 1.94207 15.9742 1.94285C15.9312 1.95748 15.9425 1.97802 15.9824 1.99853C16.04 2.03473 16.1817 2.07378 16.2862 2.08412ZM28.2645 3.29193C28.4365 3.19012 28.5926 3.20553 28.4588 3.05422C28.4586 3.0542 28.4583 3.05418 28.4581 3.05416C28.8645 3.04832 28.8598 3.33052 28.948 3.33175C29.2558 3.33374 28.9812 3.1108 29.1771 3.0588C28.7289 3.08753 28.8667 2.96154 28.5316 2.92361C28.4566 2.9153 28.1473 2.96675 28.0976 3.01218C28.0481 3.05801 28.1874 3.22499 28.2645 3.29193ZM14.8161 2.05284C15.1658 2.11077 15.4975 1.93078 15.0081 1.88325C14.7713 1.85984 14.601 2.0174 14.8161 2.05284ZM49.9743 1.64312C49.9128 1.60273 49.8518 1.56261 49.7854 1.52385C49.9107 1.48946 50.0361 1.45562 50.1626 1.42263C50.0633 1.45477 49.9653 1.48708 49.8665 1.52008C50.1101 1.49598 50.2318 1.56886 49.9749 1.64302C49.9747 1.64305 49.9745 1.64309 49.9743 1.64312ZM58.6048 1.34862C58.7113 1.39738 58.9256 1.2488 58.8997 1.23702C58.6927 1.14915 58.4565 1.281 58.6048 1.34862ZM33.005 3.4135C33.4132 3.41131 33.1183 3.1845 32.8695 3.1819C33.0252 3.21966 32.7743 3.41466 33.005 3.4135ZM55.5476 1.32415C55.5117 1.3031 55.4754 1.28205 55.435 1.26095C55.5622 1.29053 55.5837 1.31017 55.5476 1.32415ZM16.4402 2.30864C16.502 2.33166 16.9641 2.37091 17.0274 2.35006C17.159 2.30738 16.8053 2.15742 16.5919 2.18659C16.5684 2.18984 16.3791 2.28638 16.4412 2.3087C16.4409 2.30868 16.4405 2.30866 16.4402 2.30864ZM50.524 1.64974C50.5229 1.64754 50.523 1.64529 50.5239 1.64308C50.5238 1.64529 50.5242 1.64749 50.524 1.64974ZM67.7057 1.76981C67.7034 1.76593 67.7023 1.76214 67.7027 1.75856C67.7035 1.76213 67.7053 1.76592 67.7057 1.76981ZM19.6864 2.6189C19.8348 2.85343 20.1878 2.73718 19.9129 2.61718C19.8975 2.61085 19.7235 2.62006 19.6864 2.6189Z" fill="#E8E8E8"/>
</svg>
