<svg width="37" height="46" viewBox="0 0 37 46" fill="none" xmlns="http://www.w3.org/2000/svg">
<path d="M34.7567 18.2684C34.8388 18.7456 34.8905 19.2446 34.9446 19.657C35.016 20.2583 35.0246 20.7496 34.8748 21.4348C34.7976 21.7667 34.6152 22.2293 34.3948 22.5504C34.2244 22.807 34.0285 23.0766 33.7053 23.3398C33.4136 23.6099 32.7958 23.7919 32.6809 23.8098C31.8734 23.9679 31.5436 23.9329 30.9159 23.9013C30.5999 23.8774 30.2395 23.7757 30.0207 23.6986C30.174 23.7372 30.0789 23.7068 30.0174 23.726C30.1047 23.7039 30.0577 23.6842 29.9169 23.8743C29.7843 24.0483 29.621 24.3156 29.4265 24.5937C29.3797 24.6608 29.3422 24.7315 29.2747 24.8795C29.2087 25.0247 29.114 25.23 29.0007 25.4198C28.8995 25.5763 28.7695 26.0569 28.5796 26.5447C28.3977 27.0019 28.2278 27.4087 28.0576 27.8423C27.768 28.568 27.4695 29.2662 27.1916 29.956C26.991 30.4766 26.706 31.1375 26.4186 31.6602C26.0386 32.3776 25.665 33.106 25.2609 33.8486C24.8407 34.6322 24.3338 35.2913 23.9332 35.9409C23.5299 36.5791 23.1032 37.1897 22.6864 37.7835C22.4359 38.1374 22.2269 38.4508 22.0068 38.8109C21.7029 39.3048 21.4065 39.7993 21.1225 40.2963C20.9055 40.6803 20.6155 41.1224 20.2852 41.4811C20.0091 41.782 19.7241 41.9939 19.3639 42.1732C19.0111 42.3408 18.7642 42.4126 18.5423 42.5087C18.0513 42.7145 17.5189 42.7165 17.4902 42.7365C16.7489 42.9038 16.1884 42.8811 15.661 42.912C15.0307 42.9418 14.411 42.9503 13.7893 42.9443C13.5757 42.942 13.3575 42.9345 13.1273 42.9138C12.9036 42.8955 12.6375 42.8486 12.5414 42.8394C11.9034 42.7646 11.521 42.536 11.1826 42.3859C10.9271 42.2739 10.5112 42.0344 10.2532 41.8074C10.1153 41.6724 9.87194 41.5795 9.53736 41.0905C9.0962 40.2695 9.25616 39.8326 9.22618 39.4316C9.21636 39.0479 9.40925 38.5479 9.66486 38.2736C9.91319 37.9915 10.1356 37.8579 10.2473 37.767C10.9455 37.2335 11.7397 37.1575 12.1844 37.0859C12.2655 37.0715 12.3479 37.0587 12.432 37.0476C12.9806 36.9724 13.4754 37.0185 13.8279 37.1287C14.5195 37.3835 14.5975 37.6872 14.727 37.856C14.8332 38.04 14.8791 38.1681 14.9249 38.3178C14.9623 38.4481 14.9947 38.5901 15.0144 38.7773C15.0276 38.9264 15.0423 39.185 15.0165 38.9866C15.0062 38.9463 14.9996 38.9102 14.9568 38.8194C14.934 38.7729 14.903 38.7192 14.8534 38.6583C14.7931 38.5839 14.7026 38.5012 14.5865 38.4407C14.4636 38.3749 14.3133 38.3414 14.1908 38.3418C14.0807 38.3412 13.9904 38.3611 13.9217 38.3835C13.8051 38.4223 13.7434 38.4661 13.7126 38.4867C13.5894 38.5804 13.6158 38.5739 13.6118 38.5732C13.6212 38.5622 13.6571 38.5126 13.6894 38.4642C13.757 38.3635 13.8306 38.2469 13.906 38.1314C14.0599 37.8984 14.2088 37.6664 14.4518 37.4108C14.8118 37.0221 15.3375 36.853 15.5769 36.7723C15.7125 36.7269 15.8461 36.6948 15.9707 36.6715C16.202 36.6289 16.3911 36.6111 16.548 36.5892C16.788 36.5556 17.06 36.5489 17.3348 36.5959C17.6023 36.6369 17.8911 36.7582 17.9641 36.7847C18.6076 37.035 18.7943 37.4638 18.9339 37.6622C19.0875 37.9269 19.0982 37.9003 19.0559 37.8769C19.047 37.8572 18.8408 37.8184 18.7695 37.8563C18.712 37.8788 18.7273 37.8845 18.9598 37.7188C18.904 37.7689 18.9901 37.6954 19.0823 37.4993C19.0328 37.6442 19.0716 37.565 19.0444 37.53C19.1789 37.7472 19.1206 37.6296 19.0755 37.6085C19.023 37.567 18.9486 37.5152 18.8692 37.4635C18.7086 37.3589 18.5256 37.2511 18.3321 37.136C18.1956 37.0561 17.724 36.9 17.3874 36.8221C17.0587 36.7313 16.3659 36.7613 15.7721 36.7469C15.499 36.7434 15.217 36.744 14.9118 36.733C14.758 36.7269 14.5994 36.7188 14.4171 36.6968C14.2241 36.6601 14.0593 36.6858 13.6422 36.4527C13.6154 36.4313 13.5318 36.4005 13.3178 36.2827C12.8373 35.9629 12.796 35.726 12.6837 35.5296C12.5921 35.3315 12.5332 35.1567 12.4804 34.9865C12.397 34.7195 12.353 34.4052 12.3813 34.097C12.4623 33.3497 12.8005 32.9373 12.8554 32.7686C13.308 31.8597 13.6157 31.5919 13.8181 31.3247C14.0213 31.0853 14.1225 30.9928 14.1896 30.945C14.319 30.846 14.3549 30.9699 14.6832 30.3766C14.6951 30.3537 14.7068 30.3309 14.7183 30.3082C15.0444 29.706 15.1747 29.4584 15.2398 29.2555C15.4625 28.5096 14.9056 29.6341 15.1056 28.8488C15.1486 28.6931 15.1813 28.5285 15.2081 28.3513C15.2604 28.0136 15.2604 27.7622 15.2195 27.3962C15.1781 27.0099 15.0079 26.502 14.818 26.1011C14.5588 25.5538 14.4006 25.1277 14.1768 24.6664C13.9943 24.2844 13.8378 23.8547 13.7419 23.4337C13.5817 22.7875 13.5997 22.1921 13.5926 21.645C13.5769 21.1523 13.8073 20.633 13.8926 20.4246C14.0482 20.0205 14.2462 19.7565 14.4159 19.5114C14.4903 19.4255 14.5986 19.129 14.832 18.8108C14.9187 18.6945 15.0019 18.5675 15.082 18.4334C15.0075 18.5708 14.9297 18.7015 14.8477 18.8223C14.624 19.1435 14.5273 19.4395 14.4556 19.5391C14.295 19.7887 14.1076 20.057 13.9666 20.4516C13.9331 20.5575 13.8543 20.7393 13.7964 20.9451C13.8566 20.7472 13.9411 20.5641 13.9813 20.4569C14.1336 20.0609 14.3351 19.7958 14.4958 19.5671C14.5932 19.4438 14.7494 19.0836 14.9216 18.8762C15.0937 18.6539 15.1492 18.6023 14.9643 18.9074C14.8294 19.0896 14.6907 19.444 14.5796 19.6255C14.5535 19.6651 14.5262 19.7069 14.4977 19.7512C14.5278 19.7098 14.5575 19.6697 14.5868 19.6305C14.6904 19.5104 14.8011 19.2275 15.0186 18.947C15.1599 18.7695 15.2922 18.5694 15.4213 18.3478C15.4195 18.3232 15.4401 18.2604 15.476 18.1676C15.5503 17.9764 15.692 17.605 15.8669 17.1893C16.108 16.6271 16.2489 15.9511 16.4025 15.5152C16.4305 15.4337 16.4479 15.3754 16.4528 15.346C16.4651 15.2687 16.4209 15.348 16.3523 15.4942C16.1559 15.9609 15.9797 16.6021 15.9665 16.599C15.9705 16.5528 16.0426 16.2379 16.3146 15.4785C16.4467 15.1774 16.5649 14.806 16.8239 14.3474C17.0403 13.9474 17.4328 13.5752 17.7404 13.3521C18.0205 13.1399 18.2979 12.9648 18.6089 12.8042C19.1859 12.5253 19.6757 12.3901 20.0373 12.2502C20.7267 12.0308 21.0414 12.0828 21.2962 12.0514C21.4193 12.0437 21.5094 12.0382 21.551 12.0358C22.8208 11.9821 21.7176 12.1594 22.789 12.1142C22.9512 12.1094 23.0903 12.1046 23.2091 12.0992C24.1546 12.1341 24.0863 12.1307 24.4595 12.2078C24.7303 12.2637 25.1049 12.4368 25.6015 12.735C25.7145 12.7968 25.8409 12.8734 25.9679 12.9706C26.1757 13.0725 26.3272 13.1813 26.4483 13.276C26.6592 13.4379 26.8873 13.5963 27.1017 13.9316C27.3499 14.3862 27.3248 14.7378 27.2833 15.2806C27.2605 15.4673 27.3399 15.3298 27.3308 15.4136C27.3292 15.4272 27.3275 15.441 27.3258 15.4541C27.1857 16.1121 27.0558 16.2493 27.0077 16.3812C26.9543 16.4903 26.9479 16.4791 26.9618 16.4181C26.9898 16.2994 27.1096 15.9406 27.1036 15.9403C27.0511 15.9851 26.9281 16.223 26.7965 16.497C26.63 16.874 26.3131 17.2585 26.029 17.5305C25.6117 17.8921 25.2964 17.887 25.1807 17.9507C25.1485 17.9623 25.1201 17.9717 25.0964 17.9792C24.6146 18.1254 24.1612 18.1773 23.7062 18.1922C22.8784 18.2023 22.1235 18.1409 21.35 17.9856C20.9969 17.9089 20.6621 17.8048 20.3397 17.7011C19.9371 17.5677 19.593 17.4137 19.2331 17.278C18.8787 17.1507 18.5377 16.9349 18.2535 16.7615C17.7711 16.4745 17.2879 16.1787 16.805 15.899C16.5363 15.746 16.2694 15.6003 15.99 15.4778C15.7177 15.3547 15.5013 15.2126 15.2666 15.0907C15.0441 14.9722 14.7858 14.8763 14.5237 14.771C13.8235 14.499 13.0262 14.352 12.1965 14.2691C11.8256 14.2345 11.431 14.2413 11.0307 14.2633C10.796 14.2779 10.4496 14.3017 10.0799 14.3668C9.67841 14.4454 9.22214 14.5258 8.7483 14.621C8.07602 14.7458 7.48102 15.0099 6.93459 15.4043C6.68685 15.5498 6.52453 15.8099 6.32622 16.0426C6.18271 16.2054 6.14679 16.3871 6.12171 16.5483C6.09983 16.7004 6.09181 16.8273 6.08333 16.9264C6.06577 16.9785 6.12911 17.0485 6.1504 17.0868C6.17558 17.1275 6.17475 17.1473 6.20707 17.1928C6.23039 17.2274 6.27645 17.2817 6.40033 17.362C6.97491 17.532 7.52265 17.5767 8.42357 17.7297C8.87642 17.7972 9.53553 17.8122 10.3241 17.8353C10.4976 17.8 10.6279 17.7765 10.7417 17.7607C11.103 17.6928 11.3111 17.711 12.4595 17.3491C12.6174 17.2988 12.7898 17.241 12.9733 17.1779C13.3454 17.0581 13.6997 16.833 14.1844 16.6227C14.3677 16.5492 14.5479 16.4214 14.7922 16.2988C15.2261 16.0704 15.6873 15.7754 16.115 15.5435L16.0968 15.555C16.2568 15.4523 16.4139 15.3567 16.5643 15.2707C16.6336 15.2324 16.6862 15.1996 16.7506 15.1561C16.6856 15.2095 16.6367 15.2465 16.575 15.2867C16.3986 15.404 16.2512 15.5049 16.1238 15.5946L16.1393 15.5848C15.61 15.9022 15.3965 16.0826 14.8374 16.3963C14.6455 16.4923 14.4595 16.6285 14.2216 16.7242C14.1506 16.7521 14.0787 16.7837 14.0053 16.8179C13.8738 16.871 13.5108 17.0812 12.9941 17.2461C12.3652 17.4291 11.5293 17.7485 10.7456 17.841C9.83965 17.8903 8.93782 17.9268 8.39543 17.8755C7.92528 17.8175 7.67475 17.799 7.77512 17.8491C7.84286 17.8845 8.08034 17.9296 8.37467 17.9831C9.08225 18.0814 10.1331 17.9942 10.1898 18.0075C10.6628 18.0601 9.50397 18.242 8.43282 18.1189C8.70797 18.1367 9.0182 18.1241 9.29942 18.111C8.87339 18.0898 8.58255 18.0783 8.36245 18.0464C7.44218 17.9048 8.17994 18.3133 6.8209 17.6795C6.62756 17.5655 6.71176 17.5672 6.4166 17.374C6.34087 17.357 6.71381 17.5913 6.37249 17.4282C6.30124 17.3909 6.2201 17.3384 6.1436 17.2717C6.03052 17.1772 5.8981 17.0583 5.9178 16.921C5.93422 16.6828 5.96177 16.4879 5.93919 16.4299C5.9099 16.3524 5.8425 16.5978 5.82976 16.9181C5.81309 17.107 5.98903 17.2397 6.10001 17.3258C6.34688 17.5196 6.6072 17.6026 6.64827 17.624C6.64973 17.624 6.65118 17.6239 6.65263 17.6238C7.31831 17.8648 6.60276 17.7543 6.06632 17.3677C5.93844 17.2794 5.74646 17.1029 5.76645 16.916C5.76834 16.8079 5.77185 16.733 5.77148 16.7151C5.76624 16.4119 5.77318 16.3116 5.77444 16.2183C5.78452 16.1294 5.76593 16.0122 5.96344 15.7321C6.01507 15.6607 6.07851 15.5632 6.17815 15.4282C6.27157 15.3049 6.42348 15.1141 6.67292 14.9625C7.19226 14.5384 8.23183 14.1801 8.65231 14.1217C8.65661 14.1208 8.66084 14.1199 8.66501 14.119C9.05211 14.0383 8.73049 14.0727 8.64257 14.0711C8.61786 14.0709 8.61074 14.0679 8.64024 14.0589C8.65528 14.0543 8.67918 14.0483 8.71627 14.0401C9.08192 13.9589 9.55071 13.9151 9.97057 13.8234C9.97223 13.8231 9.97387 13.8227 9.97549 13.8223C10.1766 13.7809 10.155 13.7346 10.2502 13.7196C11.2533 13.5995 10.6011 13.7599 11.5081 13.7134C11.6749 13.7094 11.9514 13.6977 12.2465 13.7105C12.9569 13.7409 13.7085 13.8166 12.7361 13.6475C13.3921 13.7221 14.0272 13.8336 14.6828 14.0565C14.2755 13.8933 13.8549 13.7816 13.456 13.6869C14.0123 13.8048 14.4313 13.9102 14.8078 14.0348C15.0894 14.1287 15.3521 14.1992 15.6535 14.3404C15.7595 14.39 15.8657 14.4436 15.9701 14.4995C16.1106 14.5747 16.2287 14.6437 16.3246 14.691C16.6352 14.836 16.9185 15.0119 17.2002 15.1799C17.4363 15.3208 17.6695 15.459 17.9313 15.5876C18.7457 15.9893 18.1296 15.6123 17.2406 15.1064C16.9683 14.9558 16.6539 14.7903 16.3386 14.6581C16.1563 14.5804 15.8853 14.4175 15.6698 14.3087C15.3861 14.1647 15.1934 14.0971 15.1076 14.0582C14.9556 13.9958 15.3895 14.0919 15.7104 14.23C15.7894 14.2625 15.8515 14.2901 15.8781 14.3037C16.0692 14.4011 16.2542 14.5154 16.374 14.5747C16.7224 14.737 17.0316 14.9295 17.2664 15.0594C17.2824 15.0683 17.2981 15.0769 17.3135 15.0853C17.8749 15.3968 18.319 15.6395 18.7635 15.8716C19.118 16.0626 19.3128 16.1687 19.6026 16.2566C19.9534 16.3677 20.3396 16.5148 20.6657 16.6101C20.6764 16.6132 20.687 16.6162 20.6976 16.6192C21.0011 16.7058 21.2911 16.7836 21.5755 16.8353C22.1922 16.9409 22.9661 16.9798 23.645 16.9458C24.0219 16.9232 24.4369 16.8502 24.7325 16.7381C25.0668 16.6283 25.2043 16.5529 25.1248 16.6006C25.356 16.3731 25.5091 16.1716 25.5889 15.9763C25.7286 15.6572 25.8798 15.295 25.8799 15.2354C25.8985 15.1023 25.9066 14.9442 25.9 14.8196C25.9032 14.7035 25.8387 14.5687 25.9032 14.7024C25.868 14.6428 25.7448 14.535 25.5031 14.3268C25.3376 14.1826 25.2429 14.1233 25.0626 14.0502C24.6891 13.8975 24.3765 13.7648 24.1685 13.7302C23.7066 13.6359 23.4099 13.5551 23.2221 13.5638C22.5959 13.5724 22.017 13.5996 21.4207 13.6529C21.0839 13.6754 20.6885 13.732 20.6493 13.7571C20.5806 13.7852 20.5205 13.8081 20.4619 13.8303C20.0011 14.0022 19.6016 14.1395 19.364 14.2523C19.1356 14.3638 18.9062 14.5039 18.7312 14.6269C18.4192 14.8466 18.3138 14.954 18.2053 15.1266C18.1606 15.2013 18.1254 15.2679 18.0926 15.3395C17.9842 15.5805 17.8788 15.8667 17.7882 16.0931C17.6074 16.6402 17.5018 17.2 17.2362 17.8175C17.127 18.072 17.0206 18.3503 16.8126 18.7799C16.8032 18.7987 16.7937 18.8176 16.784 18.8367C16.6282 19.1417 16.4449 19.4711 16.198 19.8078C16.1234 19.8903 16.0614 20.0942 15.8043 20.4791C15.6497 20.6941 15.5207 20.8977 15.4813 21.0038C15.3121 21.4174 15.286 21.4824 15.2796 21.6311C15.2804 22.1726 15.2751 22.6597 15.3723 23.04C15.4444 23.3679 15.5477 23.6531 15.6814 23.9416C15.8792 24.3619 16.0547 24.7842 16.1913 25.103C16.2311 25.1945 16.2698 25.2785 16.31 25.359C16.6223 26.0135 16.826 26.5933 16.9188 27.2019C17.0041 27.7137 16.9917 28.2185 16.9673 28.4047C16.96 28.4724 16.9516 28.5387 16.9424 28.6038C16.8921 28.9752 16.7966 29.3999 16.6523 29.7825C16.4905 30.2338 16.2356 30.6737 16.1047 30.9532C15.9624 31.2662 15.772 31.6138 15.5533 31.9185C15.1511 32.4786 14.7008 33.0764 14.5324 33.46C14.1715 34.2212 14.1722 34.1918 14.2292 34.4407C14.2668 34.5609 14.3085 34.6737 14.3439 34.7479C14.3601 34.8186 14.4704 34.8605 14.2308 34.6876C14.2468 34.7014 14.422 34.7694 14.6285 34.8988C14.4337 34.7995 14.5583 34.8683 14.6377 34.8671C14.7316 34.8782 14.8523 34.8849 14.9775 34.8889C15.2294 34.8967 15.5049 34.8953 15.7855 34.8973C16.419 34.92 16.9572 34.8365 17.8082 35.0119C18.3086 35.1418 18.6684 35.2115 19.279 35.5302C19.4737 35.645 19.6794 35.764 19.8934 35.9022C20.0011 35.9722 20.1109 36.046 20.2336 36.1419C20.36 36.2588 20.4828 36.2886 20.7204 36.7001C20.8674 37.0046 20.9428 37.3111 20.9287 37.6744C20.9186 37.8866 20.8682 38.1175 20.7587 38.3355C20.622 38.5979 20.4273 38.9922 19.981 39.2838C19.9371 39.3029 19.6433 39.5585 19.2478 39.6526C18.833 39.7657 18.3673 39.6303 18.1313 39.476C17.5966 39.1403 17.4584 38.7266 17.3884 38.6247C17.2846 38.4326 17.2635 38.4291 17.3 38.455C17.3147 38.4658 17.3416 38.4813 17.3721 38.4922C17.0582 38.3758 17.0802 38.3948 16.9969 38.3867C16.9329 38.3853 16.8682 38.3953 16.8079 38.4097C16.4765 38.4729 16.337 38.5025 16.1624 38.5657C16.0055 38.6198 15.8256 38.6859 15.8014 38.7087C15.7897 38.7163 15.7779 38.7245 15.7614 38.7383C15.5295 38.9682 15.3831 39.1149 15.3415 39.165C15.245 39.2992 15.1653 39.4227 15.0729 39.5562C15.0231 39.6255 14.983 39.69 14.8759 39.8044C14.8443 39.8364 14.8161 39.8659 14.7491 39.9177C14.6819 39.9605 14.6189 40.0372 14.3416 40.0979C14.2161 40.1232 13.9926 40.1197 13.8024 40.028C13.6238 39.9483 13.49 39.8004 13.438 39.7225C13.3159 39.5369 13.3087 39.4587 13.2856 39.3797C13.2394 39.1583 13.2501 39.12 13.241 39.0703C13.2355 39.0275 13.23 39.0064 13.2241 38.9892C13.2124 38.9563 13.2009 38.9427 13.1869 38.9206C13.1785 38.9138 13.1508 38.8726 13.1455 38.8691C13.1429 38.8617 13.1624 38.915 13.3189 38.9644C13.1409 38.9124 12.851 38.9181 12.5238 38.9779C11.9242 39.0605 11.6041 39.1489 11.4265 39.2859C11.2366 39.4277 11.1331 39.5094 11.1231 39.5252C11.1166 39.544 11.1558 39.4409 11.1459 39.4539C11.1282 39.8114 11.1836 40.1931 11.1634 40.0793C11.0942 40.0082 11.2633 40.169 11.474 40.3372C11.649 40.483 11.7387 40.5394 11.9983 40.6631C12.3204 40.8211 12.6062 40.9426 12.727 40.9489C13.0079 40.9821 13.1298 41.0105 13.2962 41.0251C13.4569 41.0408 13.6279 41.0484 13.8065 41.0513C14.3937 41.0602 14.9851 41.0544 15.5685 41.0284C15.7694 41.0193 15.9577 41.0137 16.1401 41.0052C16.4093 40.9918 16.3865 41.0334 16.5521 41.018C16.9167 40.978 16.9635 40.936 17.0331 40.9023C17.2231 40.8349 17.444 40.812 17.6778 40.7668C17.7346 40.7546 17.7743 40.7414 17.8014 40.7296C18.0848 40.6088 18.3669 40.5149 18.521 40.4371C18.6309 40.3848 18.7714 40.2794 18.8495 40.1911C19.0812 39.9378 19.2536 39.6791 19.449 39.3404C19.7457 38.8252 20.055 38.3146 20.3718 37.805C20.4451 37.6871 20.5199 37.5684 20.5973 37.4486C20.701 37.2901 20.7938 37.2391 21.0377 36.8881C21.0805 36.8268 21.1195 36.7685 21.1572 36.7103C21.333 36.4386 21.4828 36.1696 21.7804 35.7373C21.9669 35.4656 22.1495 35.1958 22.327 34.9242C22.7792 34.218 23.2704 33.6077 23.6331 32.9548C23.908 32.4713 24.185 31.9557 24.4627 31.4298C24.5576 31.2499 24.6411 31.0275 24.7536 30.7759C24.8039 30.6628 24.8578 30.5462 24.9182 30.4272C25.0954 30.0855 25.2483 29.7211 25.4421 29.2533C25.7442 28.5362 26.0779 27.7965 26.3422 27.1624C26.4898 26.8047 26.6295 26.4717 26.7428 26.1967C26.7882 26.0861 26.8318 25.979 26.8741 25.872C27.0294 25.5066 27.0965 25.0804 27.4242 24.4858C27.5479 24.2986 27.6347 23.9671 27.925 23.5416C28.0834 23.3169 28.2337 23.0612 28.4583 22.7606C28.6712 22.4806 29.0574 22.0306 29.6953 21.9167C29.9434 21.881 30.178 21.8306 30.6046 21.9545C30.8221 22.0273 30.9287 22.0533 31.084 22.0672C31.2603 22.082 31.4796 22.0832 31.6867 22.0757C31.8764 22.0713 32.1649 22.04 32.1827 22.0313C32.5309 21.9411 32.4485 21.9624 32.5495 21.8959C32.628 21.8333 32.7403 21.7 32.8446 21.5373C32.9643 21.3499 33.0141 21.2266 33.0791 20.9727C33.1389 20.715 33.1562 20.2517 33.1059 19.9097C33.0847 19.7556 33.0684 19.6136 33.0516 19.474C33.0091 19.1145 32.9751 18.7899 32.9357 18.496C32.8757 18.0466 32.8383 17.699 32.7838 17.5357C32.7537 17.4394 32.7257 17.3805 32.7001 17.3324C32.4988 16.9787 32.6624 17.3738 32.2032 16.558C32.194 16.5411 32.1851 16.5247 32.1759 16.5076C32.0226 16.1915 31.8113 15.9498 31.8929 16.032C31.6118 15.8905 31.3498 15.7483 31.1478 15.6669C30.6702 15.4347 30.3524 15.2357 30.097 14.5749C29.9872 14.1976 29.9654 13.9396 29.9176 13.6926C29.8761 13.4834 29.799 13.1552 29.7502 12.8468C29.7252 12.6849 29.7008 12.5242 29.6954 12.3037C29.6982 12.1857 29.682 12.0793 29.759 11.8132C29.8065 11.6931 29.8854 11.392 30.3196 11.1977C30.7651 11.0408 31.0079 11.1904 31.1334 11.2429C31.3542 11.3641 31.4 11.4292 31.4725 11.493C31.5364 11.5548 31.5856 11.6083 31.6321 11.6603C31.7237 11.7633 31.8011 11.8583 31.8766 11.9532C32.1404 12.2875 32.3285 12.627 32.4344 12.7393C33.016 13.4457 33.3052 14.0391 33.6622 14.684C33.9903 15.3205 34.1953 15.8583 34.4473 16.4248C34.7267 17.0652 35.0087 17.7276 35.3017 18.2768C35.425 18.5004 35.5377 18.7351 35.6314 18.9197C35.6771 19.01 35.7208 19.0846 35.7366 19.1049C35.7568 19.1288 35.7117 19.0766 35.6668 19.0592C35.7407 19.0931 35.8037 19.1211 35.8336 19.1319C35.8564 19.1488 35.8747 19.1128 35.6538 19.1316C35.5798 19.1429 35.4205 19.1804 35.2698 19.3298C35.118 19.4796 35.0714 19.6674 35.0645 19.7535C35.0974 19.4437 35.1235 19.1553 35.1451 18.8503C35.1722 18.3177 35.0783 17.5763 34.9887 16.8933C34.9344 16.4025 34.9338 16.1126 34.8651 15.8304C34.7572 15.2595 34.6782 14.9745 34.514 14.7452C34.276 14.4189 34.0692 14.0788 33.8847 13.7576C33.9634 13.8528 33.7906 13.6729 33.6312 13.5356C33.4668 13.3865 33.2999 13.219 33.1486 13.0482C32.8273 12.6776 32.6422 12.4452 32.3737 12.2389C31.9733 11.9174 31.6791 11.6146 31.3729 11.3189C31.3106 11.2581 31.2485 11.1976 31.1874 11.1389C30.9684 10.9502 30.4109 10.5774 29.9822 10.2262C29.5651 9.88858 29.1329 9.5709 28.6761 9.27245C28.5257 9.17383 28.3382 9.07274 28.1123 8.93566C27.9984 8.865 27.8744 8.78834 27.7235 8.66135C27.5851 8.53169 27.3461 8.35093 27.2428 7.88414C27.1908 7.49519 27.2404 7.38533 27.2679 7.20172C27.302 7.03462 27.3476 6.88063 27.4066 6.72611C27.5526 6.32897 27.8117 5.9594 27.9815 5.72397C28.194 5.42536 28.4024 5.16782 28.5838 4.92561C28.6735 4.80606 28.7579 4.68866 28.8145 4.59657C28.8422 4.55227 28.8629 4.51079 28.8624 4.51001C28.8834 4.52228 28.7603 4.51797 28.8893 4.96587C28.9997 5.23464 29.2178 5.35366 29.2775 5.38047C29.3506 5.41345 29.3563 5.41018 29.3419 5.4071C28.7567 5.18734 28.1862 5.23066 27.5211 5.24679C27.4979 5.24777 27.4748 5.24877 27.4516 5.24979C26.8074 5.27732 26.5416 5.32928 26.266 5.40447C25.9633 5.49772 25.6859 5.57959 25.2911 5.72985C24.7704 5.92525 24.3362 6.14329 24.2636 6.22694C24.0292 6.42574 23.8506 6.63671 23.8683 6.65824C23.8488 6.68853 23.8778 6.66646 23.7628 6.82071C23.7347 6.8519 23.7474 6.84742 23.6521 6.93342C23.606 6.97167 23.5435 7.02132 23.43 7.071C23.3732 7.0953 23.3025 7.1189 23.2154 7.13214C23.1327 7.14861 22.9276 7.14823 22.7752 7.08558C22.4433 6.96181 22.3053 6.67882 22.2766 6.60505C22.2476 6.53556 22.2346 6.48285 22.2257 6.44027C22.2092 6.35916 22.2087 6.29647 22.2082 6.28245C22.2079 6.18589 22.214 6.16752 22.2164 6.1436C22.2274 6.07136 22.2301 6.06893 22.2337 6.05151C22.2399 6.02567 22.243 6.0145 22.2461 6.00292C22.2521 5.98113 22.2565 5.96618 22.2611 5.95104C22.2701 5.92147 22.2789 5.89484 22.2897 5.86461C22.3614 5.65198 22.4496 5.31028 22.6839 4.87664C22.7649 4.72902 22.8513 4.59021 22.9216 4.46892C23.0499 4.2497 23.1574 4.02598 23.2709 3.75604C23.4604 3.30793 23.7031 2.64713 23.7724 2.36123C23.7722 2.3473 23.7425 2.66656 23.9858 2.8987C24.2169 3.10134 24.3288 3.0692 24.3581 3.07904C24.1162 3.05304 23.8762 3.03481 23.6543 3.03175C23.4464 3.02422 23.1834 3.05749 23.1889 3.06415C23.1647 3.07337 23.1413 3.08204 23.1187 3.09029C22.5689 3.2714 22.304 3.47637 21.9293 3.7445C21.424 4.09922 21.0389 4.36869 20.4639 4.80775C20.3375 4.90402 20.2067 5.00217 20.0748 5.10379C19.8799 5.25362 19.6667 5.42596 19.554 5.54878C19.4263 5.68796 19.2966 5.85538 19.1719 6.04069C19.1095 6.13324 19.0481 6.23059 18.9882 6.33132C18.9581 6.38193 18.9284 6.4333 18.8966 6.48926C18.8805 6.51757 18.8659 6.54379 18.8405 6.58786C18.8331 6.6005 18.8272 6.61103 18.8089 6.64049C18.793 6.66366 18.8057 6.652 18.7381 6.74032C18.7205 6.76184 18.6986 6.7888 18.6552 6.8308C18.6476 6.83705 18.6285 6.86019 18.5527 6.91594C18.4792 6.96364 18.3726 7.04911 18.1141 7.08423C17.8611 7.13592 17.4258 6.9589 17.2785 6.73133C17.1029 6.4709 17.1471 6.48189 17.1157 6.40552C17.0619 6.17669 17.0871 6.11497 17.0887 6.05661C17.0958 5.99784 17.0987 5.99015 17.1011 5.97639C17.138 5.81849 17.1348 5.85365 17.1459 5.81468C17.0631 6.15852 17.1099 6.06177 17.0994 6.10304C17.0996 6.11901 17.0998 6.11976 17.0998 6.12229C17.1 6.12553 17.0999 6.12155 17.0998 6.11683C17.0994 6.10737 17.0988 6.09275 17.0983 6.07954C17.0973 6.05104 17.0964 6.02251 17.0959 5.99245C17.0948 5.93419 17.0948 5.87696 17.0957 5.82121C17.0975 5.70732 17.1026 5.60094 17.1098 5.49403C17.1244 5.2813 17.1474 5.07682 17.1749 4.87702C17.2302 4.47868 17.3036 4.10086 17.3815 3.74477C17.4091 3.61887 17.4392 3.4929 17.4734 3.36674C17.5302 3.15377 17.6085 2.92706 17.6798 2.74168C17.8426 2.32105 18.0178 1.97868 18.1757 1.64428C18.254 1.47973 18.3299 1.31749 18.3851 1.18049C18.4121 1.11431 18.4343 1.04815 18.4377 1.03157C18.4401 1.02726 18.4327 1.02611 18.4295 1.11626C18.4312 1.16661 18.4251 1.24369 18.4864 1.40372C18.5359 1.56033 18.762 1.81102 18.9747 1.87524C19.1782 1.94136 19.2115 1.92103 19.2525 1.92529C19.2866 1.92458 19.2989 1.92252 19.3062 1.92172C19.3193 1.91987 19.31 1.92123 19.2982 1.9247C19.2726 1.93174 19.2304 1.94628 19.1897 1.96359C18.4075 2.25942 17.7781 2.41383 17.2353 2.64255C16.7185 2.86084 16.2108 3.11333 15.993 3.33205C15.5283 3.78869 15.0645 4.28129 14.7432 4.74241C14.607 4.92416 14.4759 5.23125 14.0831 5.60013C14.0121 5.66127 13.9368 5.73153 13.7611 5.81847C13.6704 5.85958 13.5483 5.91377 13.337 5.92545C13.132 5.94367 12.8066 5.8492 12.6235 5.68035C12.2888 5.37929 12.1559 5.14672 12.0028 4.89319C11.7637 4.49921 11.3542 3.96869 10.9981 3.47891C10.9202 3.37276 10.8434 3.26251 10.7735 3.15876C10.739 3.10782 10.7053 3.05739 10.6832 3.02595C10.6665 2.9963 10.636 2.9837 10.748 3.0844C10.7003 3.04422 10.6794 3.03294 10.717 3.05701C10.7419 3.06911 10.7722 3.09918 10.925 3.13679C11.0023 3.15279 11.1263 3.17306 11.3037 3.13351C11.481 3.09754 11.6794 2.9693 11.7779 2.84817C11.9353 2.64398 11.8993 2.63896 11.9048 2.64642C11.9005 2.65869 11.8872 2.70082 11.8724 2.74647C11.8422 2.84 11.8018 2.95309 11.7554 3.06057C11.6231 3.34684 11.5356 3.42967 11.5059 3.4867C11.4717 3.54143 11.4544 3.57633 11.4325 3.63071C11.3905 3.73567 11.3527 3.89335 11.3276 4.07082C11.2998 4.25023 11.3291 4.60293 11.3813 4.96461C11.4066 5.15033 11.4379 5.34287 11.4627 5.58017C11.4737 5.70283 11.4886 5.82673 11.4764 6.03624C11.4625 6.1505 11.4716 6.27504 11.3395 6.55497C11.2737 6.68657 11.1247 6.89822 10.8723 7.02756C10.6234 7.15638 10.3826 7.15977 10.2252 7.13873C9.78364 7.04594 9.79841 6.97864 9.72406 6.95187C9.67431 6.92216 9.6575 6.9141 9.67365 6.92225C8.94866 6.56993 8.32251 6.14927 7.86426 5.94897C7.15572 5.65998 6.43663 5.38668 5.74715 5.19226C5.34517 5.07944 4.95402 4.97741 4.58174 4.90648C4.39855 4.87163 4.21491 4.84501 4.08275 4.83897C4.02118 4.8347 3.96142 4.8427 4.0014 4.83687C4.02358 4.82908 4.0803 4.83164 4.23024 4.73099C4.38554 4.65123 4.59696 4.27441 4.57084 4.06502C4.56419 3.90504 4.5565 3.93445 4.55465 3.91374C4.55219 3.90446 4.55183 3.90426 4.55212 3.90489C4.55281 3.90692 4.5562 3.91417 4.55846 3.91779C4.56356 3.92639 4.56206 3.91984 4.54391 3.90647C4.90718 4.17016 5.17463 4.45128 5.39089 4.63651C5.56743 4.79057 5.75501 4.9379 5.9657 5.10072C6.07215 5.18384 6.18126 5.26594 6.32054 5.38662C6.39159 5.45099 6.46883 5.5131 6.59102 5.66675C6.65102 5.75319 6.74384 5.84932 6.8179 6.13754C6.85262 6.28365 6.86136 6.50082 6.79213 6.70738C6.72388 6.91591 6.60577 7.06279 6.50639 7.15669C6.21841 7.41527 5.97804 7.41647 5.88385 7.42886C5.77695 7.43523 5.7337 7.42854 5.69922 7.42591C5.63588 7.41911 5.6225 7.4158 5.61158 7.4144C5.59408 7.41174 5.60565 7.4137 5.61593 7.41428C4.96928 7.378 4.21695 7.36082 3.59608 7.39567C3.16867 7.41753 2.93255 7.49426 2.53389 7.67896C2.39838 7.74295 2.2819 7.79987 2.23595 7.82932C2.18652 7.8627 2.22488 7.83557 2.22759 7.82519C1.91722 8.27491 2.02869 8.11603 2.00602 8.15867C2.00501 8.10939 2.00165 8.02378 1.95351 7.90035C1.90894 7.7779 1.79572 7.63654 1.71282 7.57543C1.62691 7.51025 1.45726 7.39495 1.15604 7.41789C1.53589 7.38355 1.90133 7.35335 2.29139 7.32812C2.56836 7.31123 2.83836 7.29778 3.10861 7.28441C3.24342 7.27778 3.37838 7.27129 3.51187 7.26477C3.57885 7.2615 3.6457 7.25822 3.71083 7.25486C3.74404 7.25315 3.77565 7.25148 3.80618 7.24974C3.8199 7.24896 3.83541 7.24803 3.84465 7.24741C3.84364 7.24776 3.86631 7.24498 3.81967 7.25029C3.81031 7.25152 3.79835 7.25297 3.77331 7.2574C3.76695 7.25854 3.75964 7.25992 3.75079 7.26172C3.75571 7.264 3.71522 7.25648 3.54283 7.3298C3.49388 7.35361 3.42823 7.38214 3.32029 7.47184C3.22346 7.55801 3.02077 7.74768 2.98465 8.13222C2.95126 8.52414 3.18287 8.82487 3.30682 8.92595C3.44127 9.04102 3.52332 9.07068 3.5822 9.09675C3.81271 9.17613 3.75895 9.14476 3.77901 9.15318C3.78778 9.15471 3.79544 9.15592 3.80232 9.15695C3.81606 9.15898 3.82675 9.16029 3.83581 9.16132C3.90087 9.16791 3.90888 9.16621 3.91367 9.16672C3.92266 9.16691 3.92441 9.16685 3.92398 9.16684C3.78693 9.16241 3.8774 9.16522 3.86088 9.16464C3.86468 9.16467 3.8701 9.16467 3.87804 9.16432C3.89428 9.1633 3.91896 9.16269 3.97312 9.15067C3.74311 9.19775 3.70784 9.20755 3.69725 9.21291C3.6887 9.21643 3.66743 9.22576 3.61723 9.2785C3.11952 9.81306 2.61045 10.4038 2.37257 10.8837C2.27148 11.0956 2.20981 11.2482 2.15011 11.4708C2.08491 11.7036 2.03568 11.8672 2.00391 12.0299C1.9393 12.3486 1.92707 12.7138 1.94394 13.1128C1.94327 13.1282 1.95178 13.186 1.93867 13.0943C1.93563 13.0782 1.93234 13.0565 1.91831 13.007C1.88144 12.9455 1.95201 12.9063 1.65106 12.583C1.57231 12.5093 1.41066 12.4035 1.22782 12.366C1.03907 12.3238 0.861074 12.3517 0.751726 12.387C0.531152 12.4637 0.478729 12.5284 0.427312 12.5667C0.342822 12.6421 0.334438 12.6607 0.320069 12.6764C0.286541 12.7199 0.326432 12.6652 0.368119 12.617C0.495423 12.4689 0.67736 12.2616 0.875229 12.0849C1.11665 11.8918 1.27829 11.646 1.90683 11.411C2.2137 11.3183 2.53083 11.233 2.90422 11.1829C3.49513 11.1089 4.05896 11.0662 4.64913 11.0411C5.17619 11.0206 5.82089 10.9446 6.4656 10.9478C7.26315 10.9463 8.04336 10.9309 8.86245 10.9105C9.62285 10.9025 10.3285 10.8494 11.1219 10.7908C11.6228 10.7498 12.2228 10.6365 12.773 10.5054C13.0339 10.4435 13.2943 10.3776 13.6009 10.3212C13.9015 10.2783 14.2935 10.1765 14.851 10.38C15.0853 10.4754 15.2469 10.5876 15.3957 10.7043C15.7567 11.0221 15.4601 10.8058 15.7691 11.162C15.8338 11.2431 15.8906 11.3254 15.9456 11.3943C15.9706 11.4267 16.002 11.4585 15.9921 11.4489C15.9835 11.4441 15.9701 11.4223 15.8721 11.3829C15.7899 11.3376 15.5002 11.3273 15.3493 11.436C15.3713 11.422 15.3977 11.4042 15.4273 11.3827C15.5638 11.2858 15.7263 11.1322 15.99 10.9289C16.2848 10.708 16.5554 10.5457 16.8097 10.3403C17.1071 10.1006 17.5148 9.83665 17.7744 9.62803C17.9795 9.46146 18.2096 9.27504 18.5332 9.09143C18.5963 9.05608 18.6638 9.01982 18.7359 8.98393C18.9645 8.86849 19.2232 8.77505 19.4497 8.71149C19.8385 8.60597 20.23 8.47288 20.7902 8.43293C21.6625 8.39629 22.429 8.38807 23.3601 8.45409C23.7991 8.50188 24.2439 8.49106 24.8905 8.62432C25.2548 8.70766 25.6884 8.85703 25.9133 8.9131C26.3814 9.02747 26.7281 9.14931 27.1113 9.25763C27.4768 9.362 27.8136 9.48347 28.1113 9.55977C28.3688 9.62745 28.646 9.69912 28.9272 9.78809C29.1627 9.86886 29.3811 9.88886 29.8193 10.0575C30.1319 10.1968 30.5521 10.4285 30.7604 10.9966C30.915 11.5163 30.9528 11.8349 31.0352 12.2134C31.0931 12.4926 31.1695 12.8322 31.1864 13.2186C31.1987 13.6266 31.263 14.0515 31.2776 14.5746C31.2841 15.1696 31.3611 15.7806 31.3651 16.4674C31.3698 17.1627 31.3657 17.8399 31.3528 18.5354C31.3494 18.8288 31.3244 19.1941 31.3149 19.4276C31.3006 20.0471 31.2535 20.7362 31.2052 21.3087C31.1769 21.7935 31.0804 22.1997 31.0486 22.5492C30.9854 23.1244 30.9452 23.6905 30.7821 24.3578C30.6151 24.9889 30.4459 25.62 30.2257 26.268C30.085 26.6833 29.9065 27.1503 29.7546 27.5225C29.6066 27.9127 29.448 28.3285 29.2383 28.7487C29.0932 29.0368 28.9306 29.3014 28.8462 29.4819C28.7085 29.777 28.5808 30.0112 28.4572 30.2607C28.1773 30.7527 27.9916 30.8896 27.9161 31.0655C27.7252 31.4384 27.5472 31.7525 27.2838 32.1202C27.0236 32.474 26.7602 32.8612 26.4716 33.2505C26.2122 33.6016 25.9238 33.95 25.7194 34.2418C25.6523 34.3395 25.5763 34.4568 25.5012 34.5716C25.3024 34.8743 25.1061 35.1813 24.8511 35.5087C24.6757 35.7308 24.5177 35.9194 24.4438 36.0569C24.2772 36.348 24.1599 36.6159 24.038 36.9388C23.9533 37.1623 23.8893 37.3495 23.8416 37.5507C23.7595 37.8756 23.6858 38.0821 23.6656 38.2586C23.626 38.533 23.6345 38.8412 23.5619 39.296C23.5083 39.6077 23.4793 39.9963 23.4524 40.3747C23.4003 40.9059 23.3047 41.1906 23.2705 41.5289C23.2066 41.9996 23.0936 42.3832 23.0829 42.6177C23.0476 43.1471 22.9317 43.6524 22.7337 44.1465C22.735 44.1381 22.7086 44.2526 22.6504 44.4277C22.6182 44.5174 22.5756 44.632 22.4776 44.7749C22.3836 44.9153 22.2007 45.0887 21.9832 45.1728C21.7064 45.2852 21.4658 45.3679 21.2518 45.455C20.8856 45.5968 20.5937 45.6431 20.3297 45.6969C19.8223 45.821 19.1456 45.8583 18.6347 45.8607C17.7588 45.8694 16.8975 45.8819 15.9896 45.8584C15.5915 45.8414 15.2397 45.8517 14.7426 45.8005C14.2264 45.7409 13.7366 45.7007 13.1703 45.6259C12.8461 45.572 12.3999 45.5564 11.8585 45.254C11.605 45.0988 11.3226 45.0171 10.8471 44.6859C10.466 44.4263 9.87839 44.0191 9.4394 43.6031C9.13302 43.3258 8.76527 42.9715 8.4651 42.5999C8.20586 42.3168 7.73942 41.7367 7.50232 41.2419C7.34604 40.9414 7.09626 40.5936 6.83124 40.1459C6.60951 39.7526 6.45259 39.4353 6.27159 39.1012C6.10848 38.7942 5.98312 38.5258 5.85334 38.2758C5.53564 37.6123 5.36484 37.0941 5.1765 36.4917C4.94339 35.6866 4.68319 34.9802 4.51849 33.9635C4.42091 33.4054 4.26096 32.5859 4.17328 31.8815C4.13736 31.5779 4.07866 31.3252 4.03157 30.8941C3.99171 30.5354 3.89644 29.947 3.86093 29.4661C3.82612 29.0517 3.79269 28.6723 3.72322 28.3629C3.6257 27.9455 3.56807 27.5294 3.52197 27.147C3.46914 26.7387 3.44343 26.2694 3.41101 25.971C3.36172 25.5795 3.3556 25.272 3.33161 24.9698C3.3029 24.6066 3.29359 24.2634 3.26533 23.9692C3.22516 23.5198 3.24715 23.2694 3.20286 23.0382C3.12143 22.6193 3.13191 22.2411 3.09798 22.0504C3.04945 21.7762 2.98949 21.4817 2.94065 21.1749C2.88548 20.8321 2.85851 20.5187 2.81624 20.2349C2.73994 19.7413 2.71817 19.2581 2.69955 18.8151C2.68739 18.5275 2.65471 18.2092 2.62898 17.8929C2.58478 17.3822 2.54973 16.8773 2.46709 16.4212C2.31831 15.7331 2.65301 16.0215 2.82484 16.4373C2.87163 16.8453 2.86886 17.2306 2.87875 17.6692C2.92575 17.7338 2.96512 17.789 2.99878 17.8415C3.14203 18.0654 3.18784 18.2137 3.239 18.7627C3.26559 19.0646 3.27575 19.493 3.38595 20.1203C3.38611 20.1212 3.38628 20.1221 3.38644 20.123C3.58461 21.3519 3.53198 20.3519 3.68513 21.0011C3.68709 21.0089 3.68913 21.017 3.69125 21.0254C3.73585 21.2066 3.82006 21.5077 3.91499 21.8727C3.9928 22.1779 4.00068 22.5211 4.08454 22.8438C4.17372 23.1875 4.17105 23.5486 4.21365 23.8458C4.27107 24.2608 4.28995 24.6224 4.30846 24.869C4.32837 25.1899 4.31095 25.3205 4.24287 25.12C4.29807 25.3633 4.34579 25.5912 4.4119 25.8166C4.41329 25.8214 4.41467 25.8262 4.41604 25.8311C4.47381 26.234 4.50351 26.615 4.56551 26.9992C4.62288 27.3744 4.68617 27.7424 4.78096 28.1007C4.88962 28.5208 4.93463 28.9424 4.98231 29.3544C5.0324 29.8319 5.12171 30.2783 5.19269 30.775C5.23082 31.0707 5.30737 31.396 5.35459 31.7169C5.46095 32.417 5.61135 33.0765 5.75324 33.8055C5.78129 33.9893 5.83001 34.1852 5.88177 34.3789C6.01282 34.8503 6.07971 34.856 6.23191 35.3435C6.31435 35.6037 6.39321 35.8546 6.46854 36.1002C6.63841 36.6451 6.82092 37.1859 7.04302 37.664C7.17887 37.9338 7.30532 38.2108 7.44488 38.4764C7.51721 38.6129 7.59023 38.752 7.66518 38.8942C7.80349 39.1564 7.905 39.3294 8.00244 39.4747C8.16046 39.7132 8.34495 39.9136 8.67311 40.4928C8.69548 40.534 8.71645 40.5743 8.73602 40.6139C9.02327 41.1702 9.07615 41.2827 9.50395 41.761C9.62986 41.9072 9.79293 42.0766 10.0332 42.2799C9.86218 42.0485 10.0264 42.2056 10.4171 42.561C10.7204 42.8471 11.1378 43.169 11.694 43.5616C11.8852 43.7104 12.2501 43.8676 12.5625 44.0591C12.7565 44.1815 13.0852 44.2273 13.3735 44.2719C13.4816 44.2884 13.5837 44.3015 13.6758 44.3125C13.7805 44.3261 14.3061 44.3545 14.9148 44.4032C15.244 44.4262 15.6894 44.4147 16.0524 44.4286C16.1867 44.4325 16.3174 44.4359 16.4337 44.4405C17.0079 44.4625 17.7839 44.4983 18.6352 44.5093C19.1072 44.5135 19.5462 44.5078 20.0044 44.394C20.0322 44.3879 20.0598 44.3818 20.0878 44.3757C20.3733 44.3133 20.593 44.2437 20.7455 44.1609C20.9748 44.0493 21.2088 43.9517 21.4538 43.8494C21.4107 43.8653 21.3653 43.8965 21.3393 43.9233C21.2505 44.0566 21.329 43.9121 21.4409 43.6081C21.5775 43.3339 21.7024 42.9988 21.7432 42.6466C21.7477 42.6076 21.7516 42.5656 21.7545 42.5206C21.7836 42.1106 21.9053 41.6756 21.9344 41.3498C21.985 40.8714 22.0675 40.489 22.0741 40.4027C22.0826 40.3453 22.0873 40.302 22.0904 40.2669C22.1424 39.6841 22.1178 40.4995 22.1695 39.9219C22.1964 39.6447 22.2239 39.3652 22.2822 39.0544C22.328 38.8116 22.3344 38.4528 22.3895 38.0744C22.4367 37.7462 22.546 37.4585 22.5999 37.2416C22.6653 36.9782 22.7599 36.7152 22.8514 36.482C22.9847 36.1358 23.1544 35.7614 23.3466 35.4343C23.5191 35.1358 23.7116 34.9272 23.8677 34.7274C24.1468 34.3732 24.4011 33.958 24.6913 33.529C24.9665 33.1406 25.2265 32.8313 25.4675 32.5007C25.7345 32.1371 25.9883 31.7581 26.2581 31.3816C26.2616 31.3767 26.265 31.372 26.2682 31.3675C26.3622 31.2295 26.2928 31.2883 26.2323 31.3408C26.1832 31.3877 26.1376 31.4347 26.1482 31.4187C26.1698 31.3872 26.1911 31.3563 26.2123 31.326C26.4602 30.9475 26.6159 30.6256 26.6984 30.4588C26.9309 30.0276 26.967 30.0556 26.9767 30.0602C26.9867 30.0778 26.9942 30.1032 27.1643 29.9156C27.2114 29.864 27.2943 29.7653 27.3315 29.6986C27.4342 29.5011 27.5827 29.2304 27.7095 28.9619C27.8487 28.6697 27.998 28.4343 28.1181 28.1895C28.2853 27.8498 28.431 27.4612 28.5696 27.0735C28.7565 26.5913 28.8893 26.1953 28.9916 25.8491C29.1075 25.4527 29.1611 25.177 29.1395 25.1629C29.2726 25.0862 29.4113 24.4263 29.489 24.0241C29.5047 23.9388 29.5155 23.8606 29.5242 23.8119C29.6461 23.0054 29.7037 22.9919 29.7693 22.4245C29.7817 22.3058 29.797 22.1626 29.8162 21.9924C29.8599 21.6085 29.6743 22.3454 29.7369 21.9307C29.7783 21.6668 29.8204 21.4543 29.8453 21.2328C29.9201 20.6303 30.0088 20.1019 30.047 19.399C30.0588 19.1826 30.0799 18.9978 30.0868 18.7942C30.0911 18.6862 30.0866 18.6028 30.0798 18.5157C30.0669 18.3543 30.046 18.1812 30.0485 17.8125C30.0501 17.5672 30.0641 16.9782 30.0621 16.4874C30.057 15.8648 29.9992 15.3777 29.978 15.9891C29.9776 15.4262 29.9584 14.9948 29.9533 14.6127C29.9491 14.2495 29.8799 13.8764 29.8468 13.28C29.8378 13.1123 29.8052 12.9084 29.7504 12.651C29.7401 12.6018 29.7302 12.5496 29.7204 12.4921C29.669 12.2036 29.6407 11.7923 29.5416 11.4155C29.5423 11.3993 29.4998 11.3337 29.3752 11.2782C29.3542 11.2687 29.3341 11.262 29.3153 11.2574C29.1708 11.2254 29.1279 11.2886 28.7123 11.1782C28.6466 11.1601 28.5802 11.1406 28.5137 11.1194C28.274 11.0424 28.0286 10.9719 27.7667 10.8944C27.4066 10.7902 27.081 10.6559 26.7415 10.5465C26.383 10.4321 25.9902 10.2889 25.6181 10.1964C25.5661 10.1842 25.5156 10.1707 25.4671 10.1571C25.1401 10.0605 24.8789 9.97571 24.5829 9.90747C24.2211 9.83107 23.7237 9.82194 23.2284 9.77844C22.4894 9.73269 21.6427 9.74376 20.8628 9.7848C20.5665 9.80475 20.1936 9.91285 19.8208 10.0193C19.5872 10.0859 19.4039 10.1612 19.1922 10.2796C19.0076 10.3818 18.8122 10.5265 18.6138 10.6823C18.5418 10.739 18.4718 10.7891 18.4038 10.8362C17.9372 11.1511 17.898 11.1072 17.5445 11.3344C17.4205 11.4165 17.2555 11.5231 17.0393 11.6589C16.9972 11.6866 16.8508 11.7839 16.6887 11.9111C16.5197 12.0413 16.3056 12.2624 15.9861 12.4765C15.8804 12.5472 15.7071 12.5847 15.5792 12.5627C15.4493 12.5433 15.3662 12.4976 15.3035 12.4596C15.1808 12.3809 15.1191 12.313 15.0613 12.2524C14.9519 12.1331 14.8769 12.0292 14.8286 11.9733C14.8196 11.9628 14.8107 11.9525 14.8018 11.9425C14.7425 11.8729 14.555 11.6783 14.3775 11.6003C14.235 11.4985 13.5473 11.6576 13.0926 11.7649C12.7506 11.8447 12.4683 11.8983 12.3367 11.9235C11.7242 12.0373 11.5308 12.1125 11.2267 12.1533C11.164 12.1609 11.098 12.1666 11.0216 12.1697C9.83992 12.215 10.7839 12.0388 9.35295 12.2794C9.22062 12.2585 9.06077 12.2454 8.89258 12.2343C8.46843 12.2079 7.97469 12.2043 7.78169 12.1254C7.43992 12.222 7.02296 12.1948 6.47365 12.1858C6.25567 12.182 6.01773 12.1883 5.75333 12.2178C5.37759 12.2601 5.02083 12.3463 4.70625 12.3947C4.28935 12.4643 3.97982 12.5113 3.83646 12.3694C3.69697 12.3919 3.40576 12.4299 3.07624 12.4858C2.83774 12.5273 2.55924 12.6087 2.30361 12.6969C2.1693 12.7473 1.91455 12.9883 1.79605 13.1009C1.76292 13.1325 1.73715 13.1584 1.71934 13.1763C1.56272 13.3354 1.47392 13.4427 1.40434 13.5123C1.40776 13.5069 1.4061 13.507 1.39603 13.5188C1.3905 13.5251 1.38387 13.5337 1.36504 13.5546C1.32311 13.5708 1.39193 13.6275 1.06654 13.7066C0.852067 13.7304 0.69255 13.5616 0.670964 13.5179C0.631262 13.4569 0.6256 13.431 0.617634 13.4099C0.604154 13.3678 0.60268 13.352 0.599824 13.3353C0.595704 13.3061 0.595632 13.2923 0.595248 13.2781C0.595179 13.228 0.599716 13.206 0.602853 13.1756C0.612366 13.1061 0.6138 13.0165 0.610484 12.7197C0.622114 12.5867 0.517993 12.7339 0.633162 11.87C0.651001 11.7493 0.723839 11.4375 0.819485 11.1103C0.880945 10.87 0.991655 10.5665 1.12501 10.2915C1.53386 9.47427 2.17989 8.7999 2.60012 8.33726C2.912 7.98442 3.31759 7.87705 3.36782 7.86664C3.50088 7.83419 3.6005 7.82187 3.66784 7.80886C3.79087 7.78267 3.91272 7.79281 3.92398 7.79596C3.93333 7.79617 3.93824 7.7963 3.95275 7.79692C3.9589 7.7972 3.96549 7.79743 3.97888 7.79862C3.98584 7.7993 3.99425 7.80006 4.00974 7.80256C4.02021 7.80467 3.99622 7.79911 4.04297 7.80942C4.07297 7.82598 4.10561 7.7951 4.25384 7.93946C4.33295 8.00767 4.39003 8.25198 4.31315 8.37853C4.24819 8.50438 4.1868 8.53109 4.154 8.55421C3.94752 8.64422 4.04493 8.5929 4.01911 8.6053C3.99161 8.61014 3.98529 8.61009 3.97731 8.61096C3.95944 8.61236 3.9487 8.61271 3.93776 8.61315C3.917 8.61391 3.89879 8.61433 3.88156 8.61469C3.84709 8.6154 3.81686 8.61577 3.78846 8.61607C3.73263 8.6166 3.69016 8.61648 3.65684 8.61604C3.59125 8.61508 3.56694 8.61256 3.5772 8.60875C3.58693 8.60495 3.63193 8.59982 3.7024 8.59362C3.73862 8.59046 3.77929 8.58714 3.82808 8.58331C3.85283 8.58137 3.87845 8.57937 3.90587 8.57712C3.92039 8.57594 3.93542 8.57471 3.95144 8.57322C3.96877 8.57102 3.9501 8.57539 4.01524 8.56478C4.01935 8.56385 4.00869 8.56646 4.03245 8.56094C4.0583 8.54388 4.05873 8.59036 4.21795 8.44945C4.25695 8.40724 4.31694 8.31318 4.31118 8.18883C4.30606 8.06448 4.23856 7.97658 4.19642 7.93797C4.10683 7.86097 4.07377 7.86368 4.04897 7.85311C3.99552 7.83918 4.01467 7.84523 4.0071 7.84329C3.99562 7.84132 3.98842 7.84051 3.98253 7.83986C3.97101 7.83867 3.96484 7.83838 3.95945 7.83811C3.94795 7.8376 3.94564 7.83768 3.94233 7.83762C3.93593 7.83756 3.93017 7.83759 3.92398 7.83765C3.90655 7.83671 3.7898 7.83102 3.67892 7.85754C3.46228 7.88593 2.90303 8.06081 2.65444 8.38754C2.26862 8.81012 1.91837 9.25116 1.81889 9.41304C1.74544 9.48557 1.67327 9.55886 1.59774 9.64139C0.923615 10.6741 1.38011 10.1072 1.70638 9.68558C1.96357 9.35318 2.39366 8.81157 2.73098 8.45836C2.83705 8.34519 2.95261 8.25693 3.05471 8.20329C3.27701 8.11585 3.17012 8.20784 2.84026 8.55949C2.79752 8.60881 2.74817 8.66296 2.69216 8.7217C2.77191 8.64364 2.824 8.59719 2.85517 8.57329C2.90844 8.53266 2.90385 8.55316 2.87905 8.59539C2.82593 8.68806 2.67364 8.89243 2.79749 8.78928C2.8236 8.76761 2.87306 8.71978 2.94071 8.65245C3.0864 8.49293 3.37128 8.31567 3.77202 8.26678C3.81756 8.25735 3.86349 8.25702 3.92398 8.261C3.92932 8.26103 3.93341 8.2611 3.93592 8.26119C3.93764 8.26117 3.94083 8.26168 3.93485 8.2609C3.93375 8.26068 3.93609 8.26121 3.93133 8.26019C3.92791 8.25881 3.92434 8.26037 3.90875 8.24903C3.88322 8.24404 3.88932 8.16061 3.90843 8.16073C3.94613 8.13954 3.9285 8.15192 3.9327 8.14906C3.93334 8.14893 3.93361 8.14889 3.93371 8.14887C3.93389 8.14884 3.93336 8.14891 3.93249 8.149C3.92631 8.14964 3.91631 8.15034 3.90834 8.15087C3.89047 8.15206 3.87286 8.15306 3.85535 8.15403C3.82002 8.156 3.78318 8.15791 3.74782 8.15973C3.67574 8.16343 3.60318 8.16711 3.53083 8.17086C3.38594 8.17838 3.24179 8.18621 3.10182 8.19449C2.82255 8.21101 2.56057 8.2292 2.35075 8.24874C2.05369 8.27713 1.85906 8.30735 1.85638 8.32572C2.0133 8.31368 2.18118 8.30073 2.35338 8.28963C2.81879 8.26052 3.32137 8.23597 3.75112 8.21498C4.24162 8.26825 3.50536 8.50687 2.37783 8.66881C2.04768 8.71974 1.67227 8.7706 1.2877 8.81069C1.0828 8.82831 0.935931 8.74554 0.841366 8.67146C0.674906 8.55549 0.59573 8.28953 0.606497 8.16628C0.586401 7.76135 0.865068 7.33738 1.03421 7.16043C1.05175 7.13958 1.06668 7.12171 1.07919 7.10642C1.30948 6.80331 1.48788 6.76202 1.54717 6.73865C1.61424 6.72082 1.60904 6.74553 1.60178 6.76678C1.58332 6.81858 1.57083 6.81525 2.01623 6.59599C2.27365 6.47775 2.73059 6.21817 3.51261 6.15903C3.58565 6.15209 3.66099 6.14614 3.73889 6.14087C3.6621 6.14323 3.5867 6.14625 3.51203 6.1504C3.02179 6.1647 2.54328 6.28623 2.11862 6.47642C2.01563 6.40733 2.90606 6.1469 3.37482 6.11934C3.60819 6.06386 2.18771 6.2011 3.40745 6.0108C3.4401 6.01272 3.47202 6.01463 3.50299 6.01641C4.22066 6.06548 4.78598 6.02227 5.71125 6.03766C5.75008 6.03939 5.78956 6.04382 5.81789 6.04733C5.83113 6.04898 5.84358 6.05019 5.83594 6.04885C5.8234 6.06713 5.81218 5.97394 5.55448 6.15056C5.50207 6.17712 5.4317 6.37218 5.4644 6.44576C5.48415 6.51984 5.49513 6.51866 5.48977 6.5165C5.47985 6.50573 5.4366 6.46491 5.38932 6.42649C5.29191 6.34645 5.16809 6.25421 5.038 6.15345C5.15945 6.23749 5.28217 6.32058 5.38653 6.39785C5.43735 6.43521 5.48716 6.47624 5.50822 6.49553C5.51856 6.5021 5.51752 6.51181 5.4993 6.45633C5.46631 6.40906 5.52069 6.19971 5.57783 6.17524C5.80867 6.01614 5.82172 6.09941 5.83211 6.08347C5.83863 6.08495 5.82637 6.08405 5.81335 6.0827C5.78551 6.07982 5.74696 6.07599 5.70868 6.07481C5.60345 6.07312 5.5028 6.07387 5.4025 6.07503C5.51821 6.08418 5.61914 6.09342 5.7067 6.10342C5.74856 6.10761 5.78765 6.11469 5.81279 6.1199C5.82458 6.12246 5.8346 6.12422 5.82588 6.12399C5.81755 6.13575 5.78255 6.07869 5.60873 6.2079C5.58452 6.22888 5.54285 6.30197 5.54349 6.36165C5.54234 6.42051 5.55755 6.44485 5.56259 6.45452C5.57491 6.47253 5.57092 6.45777 5.56796 6.45071C5.5601 6.43247 5.55516 6.42014 5.56325 6.42116C5.5702 6.42103 5.58971 6.43519 5.59991 6.44208C5.60505 6.44362 5.60359 6.44699 5.59672 6.40957C5.58273 6.37405 5.6226 6.26427 5.65114 6.25273C5.80125 6.14645 5.81738 6.19956 5.82119 6.18969C5.82395 6.19078 5.81237 6.18997 5.7998 6.18873C5.77342 6.1861 5.73763 6.18254 5.70129 6.18149C5.10169 6.17976 4.24664 6.17629 5.69582 6.26055C5.72565 6.26299 5.75623 6.26738 5.78264 6.27186C5.79551 6.27404 5.80814 6.27619 5.81256 6.27683C5.81424 6.28597 5.82071 6.24631 5.71327 6.3184C5.70021 6.31765 5.68693 6.40375 5.69527 6.39578C5.69652 6.39459 5.67944 6.36658 5.65612 6.34116C5.60836 6.28756 5.53872 6.22676 5.46241 6.16345C5.30945 6.03706 5.12461 5.8961 4.92424 5.73085C5.08698 5.86051 5.25189 5.98413 5.41158 6.1088C5.49011 6.17053 5.56911 6.23357 5.63461 6.2963C5.66664 6.32688 5.69656 6.36064 5.70839 6.381C5.71762 6.41712 5.70944 6.33633 5.72775 6.3337C5.88559 6.2601 5.79045 6.3108 5.78126 6.29464C5.75523 6.29076 5.72475 6.28683 5.69413 6.28489C5.5202 6.27429 5.34888 6.26897 5.1764 6.26497C5.48323 6.32611 4.98528 6.45678 5.25933 6.49759C5.38818 6.51725 5.53026 6.5335 5.67574 6.55059C5.69628 6.55322 5.71644 6.55691 5.74018 6.5616C5.77678 6.55344 5.74746 6.61542 5.91562 6.53227C5.9599 6.49824 6.00003 6.40595 5.98474 6.33952C5.97314 6.2737 5.94675 6.23524 5.92358 6.20103C5.87501 6.1339 5.82492 6.0871 5.77336 6.03986C5.6704 5.94749 5.56448 5.86649 5.45708 5.78372C5.24282 5.61989 5.02704 5.45632 4.82677 5.28434C4.6975 5.17374 4.57457 5.05803 4.45309 4.94558C4.16232 4.68282 4.36948 4.81418 4.34562 4.79205C4.21591 4.67805 4.12636 4.61715 4.05734 4.57603C3.94618 4.50268 3.87396 4.50297 3.74707 4.24653C3.7252 4.19712 3.69855 4.11501 3.6969 4.0674C3.66207 4.01239 3.8936 3.95346 4.10713 3.97608C4.32635 3.99039 4.56241 4.03485 4.78283 4.08338C5.22381 4.18185 5.60537 4.29868 5.72218 4.32673C6.40576 4.49791 5.30501 4.07557 5.37069 4.08955C5.54741 4.11051 5.79126 4.16946 6.01661 4.229C6.36803 4.32113 6.67839 4.42841 6.66467 4.37634C6.48041 4.31938 6.26464 4.25397 6.02744 4.19031C5.66003 4.09149 5.23977 3.98032 4.80391 3.89561C4.58516 3.85383 4.36382 3.81737 4.1382 3.8046C4.02522 3.79911 3.91352 3.79795 3.79731 3.81971C3.69223 3.83605 3.52637 3.9097 3.53118 4.06785C3.56923 4.37089 3.72783 4.59964 3.92775 4.75436C4.28844 5.03038 4.53666 5.31242 4.68402 5.44827C4.82391 5.58385 4.83552 5.61186 4.6569 5.47942C4.51035 5.37811 4.26948 5.13225 3.86228 4.84445C3.64577 4.68116 3.45595 4.48014 3.3922 4.06823C3.3786 3.93458 3.50136 3.77305 3.60163 3.73257C3.70284 3.68127 3.79036 3.6676 3.87632 3.65686C3.78266 3.6612 3.68811 3.66854 3.57725 3.72035C3.46548 3.76105 3.34068 3.93695 3.34734 4.06835C3.39527 4.60257 3.56653 4.73156 3.52688 4.77057C3.51243 4.78095 3.45568 4.74583 3.37644 4.64999C3.33712 4.6018 3.29316 4.53873 3.25025 4.45622C3.20848 4.35854 3.16193 4.32218 3.13635 4.06892C3.12475 3.92691 3.20737 3.7062 3.33907 3.5974C3.46756 3.48448 3.57853 3.4501 3.67276 3.42257C3.86035 3.37407 4.01123 3.37252 4.16693 3.37511C4.47544 3.38427 4.79415 3.43546 5.14721 3.51069C5.72148 3.63742 6.00067 3.72791 6.14361 3.775C6.49275 3.89882 6.09337 3.82116 6.75208 4.08598C6.82407 4.11206 7.66881 4.42294 8.37054 4.71711C8.92828 4.96822 9.31057 5.21266 9.37622 5.21863C9.23023 5.27053 9.89291 5.76676 9.35382 5.59907C9.27655 5.57141 8.37077 5.05978 8.64185 5.32054C8.77753 5.44814 9.17414 5.79915 9.07103 5.81136C9.27809 5.88017 9.49761 5.95023 9.71279 6.01505C9.82263 6.07305 9.9274 6.12645 10.0273 6.17335C10.1128 6.20789 10.1533 6.27253 10.3332 6.31837C10.4564 6.35664 10.6203 6.2035 10.6263 6.12597C10.653 6.04228 10.6548 5.97955 10.6575 5.91886C10.6604 5.80174 10.6525 5.70287 10.6457 5.61119C10.6309 5.42866 10.6162 5.27948 10.6069 5.13835C10.5895 4.85816 10.5803 4.61004 10.6097 4.27718C10.5845 4.30801 10.4285 5.06041 10.4975 3.9494C10.4987 3.94285 10.4999 3.93629 10.5012 3.92971C10.5224 3.87926 10.5353 3.80148 10.7493 3.29953C10.8433 3.09801 10.974 2.99059 11.0861 2.77202C11.163 2.61474 11.2076 2.48542 11.2396 2.42257C11.2747 2.35349 11.273 2.39296 11.2776 2.40439C11.2879 2.41704 11.3244 2.37292 11.3177 2.44145C11.3146 2.50478 11.2992 2.649 11.2462 2.84104C11.2326 2.88325 11.2164 2.92397 11.1998 2.96158C11.2188 2.92677 11.2382 2.88773 11.2557 2.8451C11.2941 2.74931 11.3257 2.6531 11.351 2.56795C11.3659 2.49511 11.4313 2.37111 11.3574 2.4843C11.2729 2.59893 11.0659 2.60972 11.04 2.59093C10.9958 2.57833 11.0005 2.57443 11.0061 2.57836C11.0221 2.58666 11.0583 2.61343 11.104 2.65054C11.0824 2.61984 11.1896 2.76608 11.2483 2.85629C11.3161 2.95676 11.3843 3.05527 11.4514 3.14878C11.8395 3.6957 12.1708 4.15735 12.4441 4.64064C12.5643 4.85369 12.6809 5.06497 12.9428 5.30614C13.0363 5.39224 13.1997 5.4428 13.3098 5.43515C13.4224 5.43063 13.4929 5.40163 13.5468 5.37764C13.6522 5.32714 13.7061 5.28005 13.757 5.23627C14.0362 4.98631 14.1822 4.69714 14.3431 4.46495C14.4123 4.36265 14.491 4.25513 14.5775 4.14306C14.4736 4.20269 14.3675 4.2875 14.2584 4.40617C14.1087 4.55512 13.9953 4.80622 13.6586 5.1264C13.6173 5.16202 13.5734 5.20005 13.4936 5.2402C13.4325 5.27373 13.2172 5.34835 13.0373 5.19538C12.8344 5.01629 12.695 4.8159 12.5524 4.57868C12.3416 4.23391 12.0064 3.80732 11.6254 3.30058C11.6037 3.20263 11.6072 3.13973 11.5903 3.04763C11.5878 3.03538 11.5851 3.02275 11.5822 3.00967C11.5887 3.01937 11.5953 3.02916 11.6021 3.03904C12.1749 3.87649 12.4645 4.31324 12.5903 4.55695C12.8041 4.93189 12.8259 4.95199 13.0688 5.15841C13.176 5.25798 13.3675 5.24327 13.4367 5.20349C13.5185 5.16624 13.5666 5.12269 13.6141 5.07675C13.7423 4.95143 13.8703 4.75881 14.0065 4.51954C14.0342 4.47234 14.0773 4.40175 14.1326 4.31891C14.5039 3.71912 15.7455 2.53365 15.1783 2.93314C15.0112 3.02853 14.06 4.12433 14.1411 3.97781C14.1365 3.94016 14.9645 2.9749 15.3285 2.64747C15.3936 2.58502 15.4442 2.54567 15.4641 2.53178C16.1403 2.12147 16.1067 2.26896 16.0818 2.31125C16.0687 2.37285 16.0557 2.35901 16.9517 1.9744C17.3535 1.79911 17.9762 1.63256 18.9109 1.28859C18.961 1.26726 19.0128 1.24762 19.0652 1.23099C19.1411 1.20414 19.2362 1.16431 19.2441 1.14432C19.1944 1.10787 19.2312 1.08763 19.2204 1.16385C19.1004 1.64125 18.9938 1.63274 18.8066 2.07432C18.6921 2.33374 18.5624 2.65915 18.4284 3.02952C18.3321 3.29356 18.2366 3.58668 18.1372 3.8856C18.1345 3.89343 18.1319 3.90117 18.1293 3.9088C17.9882 4.33651 17.9631 4.24701 18.0088 3.88236C18.0372 3.65969 18.1102 3.3138 18.2418 2.95778C18.374 2.59054 18.5584 2.21909 18.729 1.86661C18.8142 1.69085 18.8973 1.51958 18.9624 1.36556C18.9945 1.28941 19.0225 1.21465 19.037 1.16151C19.0445 1.13644 19.0463 1.11341 19.048 1.12543C19.042 1.12252 19.0827 1.25855 19.1905 1.28962C19.2695 1.30983 19.2391 1.2943 19.2309 1.29691C19.2195 1.3069 19.2181 1.31566 19.2273 1.32242C19.2214 1.32446 19.3036 1.35175 19.1757 1.32985C19.1252 1.31764 19.0496 1.25616 19.025 1.20362C18.9975 1.15005 18.999 1.12779 18.9958 1.12198C18.9923 1.11272 18.9832 1.15306 18.9639 1.20009C18.9259 1.29803 18.8572 1.4429 18.7724 1.6094C18.604 1.94715 18.3598 2.36507 18.1297 2.91466C18.0147 3.1893 17.9077 3.52221 17.8346 3.84417C17.7531 4.19391 17.6798 4.56139 17.6264 4.94155C17.5997 5.13269 17.5781 5.32609 17.5647 5.52462C17.5581 5.62416 17.5535 5.72294 17.5521 5.82644C17.5514 5.87733 17.5514 5.92874 17.5525 5.98098C17.5531 6.00806 17.5539 6.03327 17.5549 6.05926C17.5553 6.07129 17.5559 6.08467 17.5563 6.09502C17.5566 6.10043 17.5567 6.10479 17.5567 6.10626C17.5567 6.10639 17.5567 6.1071 17.5566 6.10067C17.5619 6.08118 17.5383 6.13132 17.5799 5.95871C17.5714 5.98683 17.5704 5.97725 17.5502 6.0631C17.5533 6.07777 17.526 6.07559 17.5502 6.25666C17.5556 6.28221 17.5638 6.31345 17.5809 6.35236C17.6062 6.4235 17.7275 6.58408 17.9033 6.61991C18.2598 6.66133 18.2971 6.51447 18.3322 6.50671C18.3568 6.48376 18.3689 6.46899 18.3788 6.45711C18.4167 6.40844 18.411 6.41248 18.4204 6.39889C18.4324 6.37957 18.437 6.37146 18.4431 6.36108C18.4642 6.3245 18.4795 6.29666 18.4956 6.26818C18.5277 6.21105 18.5589 6.15639 18.5906 6.1026C18.6537 5.99528 18.7191 5.89041 18.7863 5.78957C18.9206 5.58789 19.0632 5.40093 19.2117 5.23844C19.4786 4.95584 19.8701 4.68433 20.196 4.44276C20.9349 3.9003 21.4973 3.56652 21.6297 3.47186C21.6564 3.45362 21.6834 3.43496 21.7095 3.41654C22.6969 2.76586 22.3351 2.96657 21.6839 3.37837C21.1429 3.71555 20.5023 4.13606 20.1531 4.38427C20.028 4.47083 19.9424 4.52742 19.914 4.53986C19.8445 4.58197 19.6428 4.3247 19.044 5.08638C19.0236 5.11704 19.0033 5.14922 18.9829 5.1835C18.9254 5.28231 19.0008 5.22228 19.1032 5.14009C19.2802 5.00499 19.5829 4.7967 19.2365 5.13805C19.2137 5.1628 19.1936 5.18556 19.1761 5.20623C18.7825 5.7049 18.9016 5.45822 18.8617 5.49317C18.8068 5.55311 18.6956 5.71053 18.5895 5.88873C18.5362 5.97775 18.4839 6.07116 18.4363 6.15926C18.4123 6.20349 18.3902 6.24536 18.367 6.28789C18.3603 6.30008 18.3558 6.3084 18.3468 6.32386C18.3427 6.33095 18.3393 6.33686 18.3314 6.3495C18.3268 6.35659 18.3263 6.35782 18.3149 6.37388C18.309 6.38189 18.302 6.39145 18.2888 6.40628C18.2819 6.41392 18.2745 6.42202 18.2608 6.43456C18.2389 6.45234 18.2133 6.48162 18.1268 6.51263C18.052 6.55174 17.8224 6.52681 17.7338 6.40538C17.6392 6.27625 17.6675 6.28396 17.6522 6.24835C17.6459 6.22167 17.6438 6.20195 17.6426 6.18593C17.6406 6.15418 17.6424 6.13617 17.6437 6.12176C17.6473 6.09071 17.6485 6.08925 17.6498 6.08175C17.6524 6.06899 17.6546 6.06031 17.6566 6.0525C17.66 6.03994 17.6618 6.03394 17.6643 6.02562C17.6689 6.01065 17.6716 6.00232 17.6755 5.99045C17.6401 6.15148 17.6623 6.08366 17.6573 6.10273C17.6574 6.10426 17.6573 6.10274 17.6572 6.10034C17.6571 6.0962 17.6568 6.08878 17.6565 6.0829C17.656 6.07 17.6556 6.05757 17.6552 6.04537C17.6547 6.02301 17.6548 6.00443 17.6555 5.9934C17.7346 5.10972 17.9444 4.73888 17.9802 4.7536C18.0036 4.76283 17.9952 4.87849 17.958 5.09894C17.9396 5.20953 17.9139 5.34918 17.8858 5.51669C17.8718 5.60052 17.8571 5.69305 17.8436 5.79301C17.8368 5.84352 17.8303 5.89539 17.8245 5.95035C17.8216 5.97725 17.8189 6.0059 17.8164 6.03386C17.8152 6.04867 17.814 6.06268 17.8127 6.07613C17.8121 6.0829 17.8115 6.08962 17.8107 6.09497C17.8134 6.08421 17.7973 6.1579 17.8185 6.0379C17.8121 6.05195 17.8073 6.06092 17.8002 6.07901C17.7972 6.08838 17.7935 6.0888 17.7861 6.13252C17.785 6.1425 17.7833 6.15471 17.7849 6.17876C17.7859 6.19096 17.7876 6.20645 17.7943 6.22867C17.7962 6.22929 17.8168 6.33787 17.9476 6.37988C18.197 6.3982 18.1607 6.3071 18.174 6.32157C18.1811 6.3146 18.1858 6.3093 18.1897 6.30479C18.2051 6.28629 18.2076 6.28202 18.2116 6.27687C18.238 6.24149 18.2495 6.22652 18.2662 6.20447C18.2972 6.16371 18.328 6.12388 18.3599 6.08397C18.4236 6.00405 18.4923 5.92182 18.5664 5.83923C19.0237 4.93315 17.6914 6.85725 18.2857 5.72853C18.4559 5.41731 18.6486 5.14147 18.8545 4.91466C19.2452 4.50929 19.6561 4.2738 19.9356 4.08785C20.1814 3.9308 20.3497 3.83657 20.4089 3.79792C21.9504 2.84129 20.9047 3.41814 21.453 3.03374C21.6188 2.92428 21.9136 2.68895 22.5311 2.44565C22.7817 2.35647 22.8923 2.3293 22.9113 2.32916C22.9148 2.32952 22.9152 2.33107 22.913 2.33365C22.839 2.37684 21.4722 3.0028 22.9443 2.41644C23.1194 2.35267 23.4059 2.33074 23.7558 2.33308C24.0051 2.33534 24.2244 2.34835 24.4151 2.36168C24.5266 2.38707 24.4956 2.34954 24.501 2.44025C24.1182 3.9762 24.4852 2.86726 24.5642 3.08298C24.5769 3.13703 24.1193 4.80071 24.7696 2.54376C24.7626 2.52289 24.7553 2.49671 24.7467 2.46689C24.7398 2.39133 24.6443 2.20369 24.5119 2.21844C24.485 2.20926 24.4568 2.20318 24.4281 2.19891C23.9511 2.13257 23.292 1.94789 22.8108 2.06323C22.7434 2.07917 22.6839 2.09372 22.6392 2.10843C21.8104 2.39302 21.5582 2.66194 21.3073 2.81643C21.1291 2.93798 20.9501 3.03306 20.6019 3.19881C21.196 2.96943 20.2997 3.45123 20.0098 3.7001C19.9191 3.77513 19.8475 3.83714 19.7896 3.88893C19.2633 4.3889 19.9162 3.82862 18.7272 4.7992C18.5313 4.99744 18.3015 5.27075 18.053 5.64873C18.2938 5.35548 18.5365 5.1048 18.8142 4.87804C18.8476 4.85075 18.8818 4.82466 18.9167 4.7993C18.8867 4.82924 18.8574 4.85988 18.829 4.89154C18.6042 5.14282 18.4109 5.42006 18.2379 5.70704C18.1901 5.75497 18.1339 5.82285 18.0752 5.90182C18.0457 5.94158 18.0157 5.98402 17.9853 6.02798C17.9706 6.04904 17.9545 6.073 17.9406 6.09148C17.9383 6.09464 17.9308 6.10368 17.9372 6.09445C17.9385 6.09278 17.9404 6.09044 17.9443 6.08674C17.95 6.08357 17.9563 6.06832 18.0023 6.06112C18.0577 6.04709 18.1146 6.12887 18.1066 6.12785C18.1182 6.17191 18.1103 6.17041 18.1116 6.17426C18.1114 6.17691 18.1119 6.17581 18.1128 6.17346C18.1161 6.16602 18.1213 6.15366 18.127 6.14029C18.1805 5.34625 18.2782 4.61244 18.306 5.91936C18.3238 5.12453 18.4703 4.48811 18.5647 4.00429C18.637 3.64868 18.7139 3.39204 18.7844 3.1664C18.8581 2.92683 18.9191 2.74094 18.9528 2.58962C18.972 2.49961 19.1095 2.20636 19.2723 1.85323C19.2147 1.90786 19.0926 1.95281 19.1084 1.89332C19.1483 1.74266 19.2175 1.5784 19.2824 1.42283C19.3262 1.26847 19.4802 1.11127 19.3128 0.958102C19.0832 0.896534 18.9934 0.912502 19.1231 0.846783C18.9775 0.872428 18.865 0.913692 18.7711 0.950168C18.6812 0.985124 18.6053 1.00922 18.5689 1.02113C18.1274 1.16247 18.959 0.809255 18.6045 0.914637C18.4993 0.952522 17.2166 1.36659 17.1824 1.36329C17.0152 1.29546 18.372 0.86004 16.7223 1.43398C16.3529 1.60693 15.7886 1.74234 15.053 2.36358C15.0105 2.40323 14.967 2.44427 14.923 2.48604C14.9272 2.52295 14.9953 2.48562 15.0981 2.41008C15.5373 2.03313 16.661 1.57814 16.3208 1.85483C16.0676 2.07293 15.5966 2.27384 15.2661 2.58316C15.0219 2.81189 14.8273 3.0245 14.813 3.16386C14.7252 3.21016 14.6773 3.22249 14.5953 3.25778C14.276 3.63959 14.054 3.92621 13.8903 4.15089C13.6279 4.52763 13.4819 4.67764 13.3314 4.76121C13.2914 4.80829 13.1882 4.7354 13.3786 4.7953C13.3575 4.77045 13.3332 4.74068 13.3067 4.70675C13.2378 4.61952 13.1411 4.47845 13.0446 4.29696C12.7652 3.79923 12.3308 3.22953 11.9891 2.75722C11.8116 2.52879 11.7464 2.35814 11.5212 2.14206C11.4023 2.03996 11.2298 1.95859 11.1893 1.96643C11.172 1.96416 11.3551 2.0389 11.4886 2.18176C11.6691 2.36878 11.727 2.54657 11.913 2.81259C12.0389 3.00075 12.1917 3.22441 12.3721 3.49019C12.2078 3.27387 12.0421 3.05646 11.8779 2.83814C11.7265 2.64971 11.6439 2.46599 11.4328 2.24982C11.3854 2.21235 11.3348 2.17093 11.2719 2.13397C11.2192 2.10933 11.0963 2.01786 10.9656 2.14535C10.9484 2.16574 10.9373 2.18518 10.9282 2.20296C10.7374 2.21756 10.7269 2.18981 10.58 2.55382C10.5479 2.6295 10.128 3.15677 10.0544 3.88459C10.0047 4.22063 10.0283 4.58169 10.0726 4.98145C10.1068 5.28226 10.1137 5.49128 10.1172 5.67493C10.1189 5.76547 10.1203 5.85151 10.12 5.91811C10.1209 5.94796 10.1151 5.98036 10.1261 5.95773C10.1331 5.94782 10.1471 5.90674 10.2133 5.85854C10.2833 5.80734 10.3735 5.80683 10.3992 5.81704C10.5147 5.86266 10.3808 5.82666 10.2962 5.79452C10.317 5.78466 10.3048 5.75818 10.2436 5.71527C10.0085 5.5322 8.65439 4.79126 8.45747 4.71425C8.43303 4.70065 8.40804 4.68725 8.3874 4.67607C8.21543 4.57989 8.24881 4.56614 8.41484 4.60931C8.81629 4.71292 9.62573 5.19251 10.3244 5.54413C10.4037 5.58206 10.46 5.61779 10.4977 5.64028C10.5221 5.66324 10.5938 5.66898 10.4236 5.63114C10.3563 5.59664 10.0566 5.70514 10.0106 5.82498C9.95096 5.92706 9.96708 5.93818 9.96491 5.93754C9.96922 5.92902 9.97263 5.86345 9.97097 5.80221C9.96799 5.67304 9.95674 5.53049 9.95011 5.40088C9.93552 5.14056 9.93989 4.92648 9.97288 4.82382C9.86777 4.37523 9.88842 4.15452 9.94952 3.86925C9.99996 3.6817 10.0384 3.46533 10.194 3.06492C10.3032 2.79004 10.4906 2.55846 10.4937 2.51659C10.5217 2.44619 10.5431 2.38034 10.5653 2.30716C10.6013 2.22411 10.5645 2.18453 10.7334 1.94443C10.8514 1.78559 11.126 1.75347 11.2171 1.78668C11.3258 1.81179 11.3781 1.84473 11.4261 1.87209C11.5168 1.92749 11.575 1.97922 11.6222 2.01903C11.8032 2.18829 11.8224 2.26987 11.8915 2.37139C11.9517 2.46977 12.0134 2.5713 12.087 2.68591C12.1835 2.83584 12.2929 3.00709 12.4201 3.20935C12.7324 3.56008 12.4907 3.18916 12.1233 2.65945C12.0634 2.57268 12.003 2.4815 11.9404 2.38392C11.8644 2.27983 11.8574 2.20289 11.6417 1.99524C11.5954 1.95627 11.5366 1.90308 11.4424 1.84457C11.3924 1.81571 11.3377 1.78033 11.2215 1.75333C11.1235 1.71709 10.8298 1.75499 10.7064 1.92111C10.5086 2.20813 10.5595 2.2287 10.5166 2.31345C10.4914 2.38371 10.4677 2.44094 10.4422 2.49442C10.4324 2.51567 10.3422 2.63305 10.2825 2.71837C10.2205 2.80657 10.1815 2.87021 10.1667 2.88363C10.1524 2.89721 10.1599 2.86073 10.2044 2.76605C10.2388 2.6838 10.3707 2.48169 10.3625 2.46005C10.3793 2.41102 10.3951 2.35795 10.4133 2.28963C10.4226 2.25477 10.4319 2.21713 10.4479 2.16207C10.4733 2.10217 10.457 2.0456 10.6119 1.83937C10.7483 1.64912 11.0989 1.58101 11.2264 1.62113C11.3728 1.64847 11.4405 1.68913 11.501 1.72051C11.6145 1.7843 11.6836 1.84177 11.736 1.88025C11.7406 1.88386 11.745 1.88749 11.7494 1.89113C11.961 2.08609 11.983 2.163 12.0609 2.26058C12.1284 2.35392 12.1973 2.44714 12.2761 2.54821C12.5784 2.94988 12.955 3.38332 13.407 4.08957C13.4924 4.23474 13.6205 4.3986 13.6801 4.44201C13.5774 4.34573 13.3837 4.28817 13.2709 4.29818C13.1542 4.30394 13.0986 4.33111 13.0636 4.34592C12.9974 4.3784 12.9962 4.38666 12.9947 4.3855C13.0767 4.31503 13.2047 4.09389 13.3944 3.80699C13.8103 3.20178 14.2976 2.67926 14.8357 2.13972C15.4071 1.60125 16.0056 1.36092 16.5808 1.10076C17.273 0.807794 17.9925 0.619979 18.5456 0.404052C18.6446 0.362535 18.7456 0.325443 18.8639 0.292945C18.9237 0.276841 18.9867 0.261588 19.069 0.249307C19.1712 0.248676 19.1911 0.1883 19.5591 0.289792C19.7717 0.35583 19.989 0.589527 20.0478 0.756895C20.1172 0.928933 20.1176 1.03636 20.1199 1.12217C20.1179 1.2839 20.0953 1.36723 20.0765 1.4489C20.0377 1.6005 19.9962 1.70759 19.9552 1.81215C19.8729 2.01751 19.7897 2.19462 19.7074 2.37C19.5447 2.71604 19.3782 3.05407 19.2662 3.35166C19.1651 3.61618 19.1034 3.83413 19.0456 4.10976C18.975 4.44532 18.9154 4.78406 18.8754 5.1147C18.8552 5.28172 18.8402 5.44516 18.8322 5.60483C18.8283 5.6845 18.8261 5.76198 18.8263 5.83768C18.8264 5.87517 18.8271 5.91128 18.8284 5.94713C18.8291 5.96591 18.8299 5.98244 18.8309 6.00167C18.8314 6.01073 18.832 6.02075 18.8327 6.0339C18.8331 6.04142 18.8334 6.04707 18.834 6.06195C18.8343 6.06945 18.8346 6.07491 18.8348 6.09521C18.8257 6.13533 18.8661 6.06092 18.7931 6.36137C18.7915 6.36346 18.7817 6.4072 18.8022 6.32453C18.8044 6.30225 18.812 6.31987 18.8194 6.16947C18.8194 6.13049 18.8195 6.0797 18.8021 5.99431C18.793 5.95149 18.779 5.89923 18.7505 5.83441C18.708 5.71755 18.5146 5.45161 18.2212 5.38106C17.9318 5.3083 17.7375 5.39601 17.6418 5.44287C17.5422 5.49526 17.4953 5.53963 17.4666 5.56488C17.4459 5.58387 17.4311 5.5992 17.4191 5.61219C17.3334 5.71149 17.3497 5.70226 17.3388 5.7156C17.3281 5.73253 17.3313 5.72772 17.3321 5.72596C17.3396 5.71237 17.3569 5.6806 17.3724 5.65208C17.4046 5.59285 17.4395 5.5297 17.4749 5.46761C17.5459 5.34283 17.6211 5.21799 17.7014 5.09372C17.8614 4.84661 18.0397 4.60242 18.2504 4.36692C18.6769 3.91317 19.0551 3.66643 19.4211 3.38688C19.927 3.00594 20.5117 2.62725 20.9784 2.3256C21.2224 2.16053 21.4726 2.00026 21.7565 1.84977C22.0275 1.69974 22.4066 1.56399 22.5963 1.49518C23.5079 1.23988 23.9239 1.35993 24.4936 1.37558C24.6389 1.39651 24.8753 1.39131 25.1922 1.68038C25.5227 1.99984 25.4981 2.4483 25.4827 2.5467C25.3264 3.40336 25.1363 3.81934 24.9204 4.4116C24.7531 4.87653 24.4203 5.45407 24.2362 5.75764C24.1336 5.94085 24.0552 6.16877 23.9359 6.49648C23.9362 6.49602 23.9351 6.49923 23.9351 6.49951C23.9352 6.49936 23.9353 6.49933 23.9373 6.49259C23.9385 6.48852 23.9397 6.48492 23.9442 6.46665C23.947 6.45325 23.949 6.45412 23.9594 6.38718C23.9618 6.36385 23.9674 6.349 23.9679 6.2559C23.9674 6.23849 23.9682 6.19323 23.9552 6.11564C23.9483 6.0766 23.9382 6.02855 23.9152 5.96469C23.9037 5.94389 23.8439 5.71304 23.5717 5.52854C23.4385 5.43786 23.2539 5.38228 23.0973 5.38218C22.92 5.38542 22.8878 5.40408 22.807 5.42681C22.6696 5.47361 22.5937 5.52889 22.5393 5.57045C22.4222 5.66886 22.4359 5.66816 22.4062 5.6996C22.2837 5.86203 22.3176 5.83431 22.2979 5.86405C22.6161 5.29176 22.9415 5.10424 23.1812 4.89076C24.3006 4.16442 24.9542 4.07116 25.662 3.77437C26.2947 3.53549 26.9002 3.48307 27.3595 3.45716C27.8204 3.43153 28.2335 3.42465 28.604 3.44368C28.8098 3.45457 29.0216 3.47333 29.2481 3.5139C29.4628 3.54769 29.7645 3.64651 29.8411 3.66975C29.8747 3.68042 29.9295 3.691 30.0511 3.74653C30.1584 3.79527 30.4273 3.95074 30.5598 4.27448C30.6827 4.59019 30.6392 4.79972 30.6163 4.934C30.5871 5.07127 30.5526 5.15615 30.5199 5.2334C30.4548 5.3813 30.3942 5.48109 30.3365 5.5741C30.2214 5.75623 30.1147 5.89923 30.0109 6.03776C29.8048 6.31065 29.6097 6.55407 29.4516 6.77741C29.2536 7.05222 29.1607 7.19662 29.0909 7.38122C29.0677 7.44236 29.0482 7.51054 29.0369 7.56858C29.0215 7.60843 29.0369 7.73307 29.0186 7.55572C28.9525 7.28564 28.87 7.27917 28.9 7.29219C28.9203 7.3095 28.9877 7.35635 29.0671 7.40437C29.2295 7.50385 29.4432 7.61902 29.6733 7.77008C30.1852 8.10609 30.6701 8.46505 31.1204 8.82988C31.5221 9.16301 31.848 9.33939 32.4383 9.83978C32.8219 10.2067 33.1868 10.576 33.4913 10.816C33.9154 11.1355 34.277 11.5853 34.5051 11.8433C34.6167 11.9678 34.7272 12.078 34.855 12.1932C34.9811 12.3277 35.1445 12.3713 35.4598 12.8481C35.6351 13.1505 35.8031 13.4213 35.987 13.6715C36.4373 14.2761 36.568 15.0309 36.645 15.4142C36.7612 15.8933 36.77 16.3947 36.8039 16.6502C36.8934 17.3718 37.0132 18.0426 36.9776 18.9798C36.9563 19.2936 36.9267 19.6283 36.8941 19.9402C36.879 20.1125 36.7997 20.4036 36.5708 20.6299C36.3437 20.8562 36.0854 20.9269 35.927 20.9506C35.4949 20.9963 35.3395 20.8992 35.2003 20.8594C35.0683 20.8104 34.9799 20.7682 34.9039 20.734C34.6258 20.6131 34.3845 20.3788 34.2595 20.2038C34.1281 20.0243 34.0597 19.8874 33.9969 19.768C33.8765 19.5316 33.7894 19.3496 33.6869 19.1641C33.3191 18.4751 33.0516 17.8346 32.7565 17.1624C32.6614 16.944 32.5663 16.7241 32.4703 16.503C32.3994 16.3462 32.2347 15.9383 32.0346 15.5553C31.7727 15.0683 31.3784 14.3499 31.0608 13.966C30.7053 13.5393 30.5897 13.2755 30.442 13.0957C30.3783 13.0138 30.3162 12.9365 30.2638 12.8758C30.2382 12.8462 30.2143 12.8202 30.2033 12.8087C30.2004 12.7996 30.1698 12.7947 30.3082 12.8715C30.3754 12.8986 30.4759 12.9677 30.7553 12.9501C31.0433 12.9405 31.3512 12.6765 31.4104 12.5501C31.5538 12.2841 31.5041 12.2794 31.5154 12.2601C31.513 12.2464 31.5117 12.3202 31.5172 12.3844C31.5275 12.5217 31.5506 12.6778 31.5709 12.8114C31.6131 13.0832 31.6447 13.279 31.6446 13.3831C31.6421 13.4106 31.6345 13.4131 31.6213 13.3873C31.6047 13.3454 31.5812 13.2789 31.5514 13.1903C31.533 13.1325 31.4601 12.8612 31.402 12.5914C31.3731 12.4597 31.3502 12.3152 31.3432 12.2585C31.3292 12.2424 31.3728 12.2068 31.2664 12.4228C31.2295 12.5272 30.935 12.7682 30.7104 12.7551C30.4987 12.7562 30.4431 12.7051 30.4019 12.6867C30.2793 12.601 30.3711 12.6445 30.3657 12.6301C30.3928 12.6338 30.3089 12.5638 30.4331 12.625C30.4635 12.6358 30.498 12.6566 30.6131 12.669C30.7174 12.6894 30.9769 12.6251 31.0886 12.4935C31.2915 12.235 31.2048 12.2289 31.2162 12.2388C31.2015 12.2772 31.2021 12.4438 31.2252 12.6437C31.2275 12.3044 31.3645 12.8985 31.5002 13.409C31.5351 13.5652 31.5585 13.6802 31.5658 13.7101C31.6067 13.8846 31.6433 14.0126 31.6787 14.091C31.6268 13.9601 31.7967 14.122 31.7897 14.0759C32.2678 14.2409 32.4584 14.3307 32.7009 14.4272C33.2723 14.7 33.5388 15.1886 33.7923 15.6368C33.916 15.8667 34.049 16.0517 34.3067 16.5334C34.5829 17.0737 34.6459 17.6589 34.7418 18.1812C34.7468 18.2102 34.7518 18.2389 34.7567 18.2684ZM26.6324 27.4753C26.6564 27.417 26.6796 27.3602 26.7019 27.3049C26.9098 26.7864 27.0933 26.3547 27.2295 26.0122C27.4533 25.4148 27.58 24.9473 27.7439 24.6753C27.9214 24.3141 27.8039 24.4718 27.6604 24.6258C27.437 24.9129 27.2364 25.2484 27.3872 24.6754C27.1459 25.1798 27.0642 25.5613 26.9271 25.8929C26.8033 26.2048 26.6632 26.538 26.5312 26.8683C26.6207 26.6862 26.7109 26.5051 26.8012 26.3251C26.8015 26.3243 26.8019 26.3235 26.8022 26.3227C26.7532 26.6422 26.7044 26.9663 26.6587 27.2878C26.6504 27.3497 26.6416 27.4123 26.6324 27.4753ZM11.6535 13.4168C11.8515 13.3908 12.0502 13.3694 12.2776 13.3639C12.3315 13.3621 12.3856 13.3606 12.4413 13.3597C13.2462 13.4557 14.0368 13.5955 14.8555 13.9111C14.875 13.9189 14.8945 13.9267 14.9139 13.9345C14.8924 13.9316 14.8711 13.9287 14.8498 13.9259C14.7663 13.9119 14.6854 13.9011 14.6034 13.8914C13.8201 13.6331 13.0496 13.5108 12.2708 13.4391C12.0568 13.4204 11.8542 13.4159 11.6535 13.4168ZM18.5135 1.57205C17.6985 1.76543 17.5615 1.86898 17.0055 2.10118C16.8095 2.18923 16.5608 2.2883 16.238 2.43565C16.4446 2.46041 16.6642 2.48511 16.8775 2.51883C16.9672 2.47739 17.0524 2.43884 17.1333 2.40232C17.8206 2.10781 18.1113 2.03438 19.0807 1.69982C19.1289 1.68129 19.1814 1.66454 19.2252 1.6549C19.1791 1.64562 19.1189 1.64415 19.0587 1.64647C18.9752 1.66211 18.9029 1.6697 18.8326 1.67616C18.6283 1.75617 18.424 1.82977 18.2374 1.89686C17.8853 1.91138 19.8289 1.22009 18.5172 1.57059C18.5159 1.57107 18.5147 1.57156 18.5135 1.57205ZM10.8644 3.46949C10.8246 3.56878 10.7693 3.74587 10.7292 3.98329C10.6776 4.26404 10.7113 4.69146 10.7646 5.10598C10.7902 5.31503 10.8208 5.52238 10.8365 5.7334C10.8429 5.84126 10.8506 5.94317 10.8292 6.08352C10.8151 6.15232 10.8029 6.24413 10.7068 6.36084C10.6078 6.4882 10.4 6.52782 10.3082 6.50779C10.0844 6.45789 10.0808 6.41716 10.0257 6.39553C9.98344 6.3725 9.95752 6.36101 9.94094 6.35621C9.91856 6.34761 9.89947 6.34058 9.88423 6.3356C9.68282 6.2681 9.72246 6.31403 9.90991 6.42192C9.92302 6.43139 9.94656 6.4476 9.98788 6.47528C10.0438 6.50143 10.0413 6.54782 10.2953 6.60636C10.4086 6.63733 10.6905 6.5728 10.8021 6.41044C10.9132 6.26394 10.9229 6.16549 10.9398 6.08537C10.9631 5.93296 10.9565 5.82602 10.9513 5.71806C10.9381 5.50672 10.9108 5.31308 10.8883 5.12892C10.8402 4.76169 10.8159 4.44466 10.8231 4.27952C10.831 4.11586 10.8401 4.08349 10.8503 4.27989C10.8483 4.51174 10.9646 4.82885 11.0688 5.975C11.0936 5.93979 11.1149 5.97679 11.1379 5.97826C11.1149 5.0736 10.9352 4.50774 11.0108 4.02448C11.0404 3.83338 11.0832 3.65555 11.1403 3.51706C11.0427 3.51453 10.9662 3.46009 10.8644 3.46949ZM31.2652 11.8313C31.3525 11.9241 31.4565 12.0468 31.5745 12.1938C31.7773 12.4394 31.9765 12.7923 32.1554 12.9885C32.7131 13.6422 33.088 14.35 33.3855 14.8321C33.7062 15.3986 33.8301 15.6299 33.64 15.1114C33.612 15.0403 33.5581 14.9264 33.4774 14.7829C33.2072 14.3208 32.7624 13.5668 32.2033 12.9457C32.0775 12.8207 31.9364 12.6013 31.8331 12.4493C31.6458 12.1761 31.7324 12.2448 31.6618 12.1243C31.6075 12.0523 31.5825 11.9588 31.1987 11.6122C31.2304 11.6869 31.23 11.7418 31.2676 11.8334C31.2668 11.8327 31.266 11.832 31.2652 11.8313ZM30.7307 13.3435C30.6746 13.102 30.6185 12.8598 30.579 12.6132C30.5598 12.4901 30.5433 12.3658 30.5431 12.2391C30.544 12.1761 30.5463 12.1112 30.5717 12.0485C30.5899 11.9757 30.698 11.9545 30.7534 11.9929C30.953 12.118 31.0828 12.3009 31.2285 12.4693C31.3826 12.6557 31.5118 12.8595 31.6492 13.052C31.5584 12.8753 31.4393 12.6494 31.2777 12.4301C31.1344 12.248 31.0241 12.0635 30.7962 11.9085C30.7491 11.8726 30.5847 11.8468 30.5137 11.9467C30.4531 12.0249 30.4483 12.0853 30.4371 12.1374C30.4203 12.2431 30.4204 12.3275 30.4181 12.4018C30.4151 12.5482 30.4106 12.644 30.3822 12.6686C30.358 12.535 30.3362 12.4016 30.3318 12.2501C30.3322 12.1722 30.3264 12.0964 30.3698 11.9731C30.3917 11.9165 30.4492 11.8064 30.5878 11.7661C30.7217 11.7338 30.7953 11.7728 30.8526 11.7972C30.8582 11.7999 30.8638 11.8028 30.8691 11.8056C31.1134 12.0075 31.1682 12.168 31.2847 12.3456C31.2997 12.3612 31.3138 12.3758 31.3276 12.3904C31.7185 12.8203 31.6587 12.753 31.9765 13.1482C32.1106 13.2974 32.2614 13.5071 32.4527 13.8182C32.3392 13.5195 32.2605 13.2982 32.0912 13.0457C31.988 12.8782 31.8783 12.6156 31.5572 12.2076C31.4936 12.1302 31.4238 12.0482 31.3396 11.9583C31.2403 11.8641 31.2059 11.784 30.938 11.6286C30.8834 11.6034 30.8235 11.5767 30.7166 11.5673C30.6107 11.5542 30.437 11.6006 30.3419 11.6924C30.1579 11.8798 30.1757 11.9895 30.1562 12.0732C30.1388 12.24 30.1557 12.3504 30.1722 12.472C30.2084 12.7077 30.2684 12.9377 30.3395 13.1864C30.1892 12.8293 30.0225 13.0628 30.1339 13.6538C30.1701 13.856 30.2025 14.1002 30.3623 14.4937C30.4104 14.619 30.4772 14.722 30.5501 14.8083C30.6789 14.9339 30.5446 14.8125 30.4385 14.4704C30.357 14.1268 30.3263 13.7418 30.3244 13.7325C30.3862 13.544 30.5517 14.158 30.606 13.9567C30.6166 13.9146 30.5993 13.7489 30.5788 13.5741C30.5527 13.3783 30.5127 13.1395 30.5321 13.0795C30.5476 13.029 30.7609 13.6564 30.7307 13.3435ZM31.3803 15.3339C31.2067 15.3017 31.4878 15.5017 32.0043 15.8108C32.0158 15.8219 32.1285 15.9506 32.2509 16.157C32.3092 16.2513 32.3572 16.3317 32.3944 16.3898C32.5212 16.5882 32.5194 16.5394 32.4475 16.3612C32.3728 16.1613 32.1714 15.7402 32.0637 15.6928C31.7935 15.5425 31.5461 15.4037 31.3803 15.3339ZM11.648 13.4169C11.6498 13.4169 11.6517 13.4168 11.6535 13.4168C11.6526 13.4169 11.6517 13.417 11.6508 13.4172C11.6498 13.4171 11.6489 13.417 11.648 13.4169ZM11.8654 3.78946C11.7158 3.61064 11.5469 3.39735 11.3884 3.19468C11.2977 3.07859 11.2124 2.96183 11.1401 2.86271C11.0742 2.76746 10.988 2.67479 11.0353 2.73427C10.9128 2.64975 10.9469 2.70039 10.9283 2.71364C10.9387 2.71618 10.9546 2.73096 11.0417 2.74476C11.1142 2.769 11.3737 2.71332 11.4675 2.57956C11.5818 2.39548 11.4878 2.54691 11.4716 2.61485C11.4398 2.70072 11.4013 2.79711 11.3576 2.88906C11.2475 3.113 11.1613 3.18934 11.1118 3.2677C11.1325 3.27758 11.1545 3.28561 11.1749 3.2956C11.2185 3.22072 11.3023 3.14037 11.4101 2.91168C11.4523 2.8169 11.4893 2.71786 11.5189 2.6305C11.5318 2.56232 11.6292 2.40536 11.4997 2.60747C11.3768 2.77839 11.0627 2.80967 11.0034 2.77887C10.9198 2.75855 10.911 2.74562 10.9051 2.74435C10.9009 2.74208 10.9309 2.76443 10.9776 2.80464C10.8962 2.72056 11.015 2.86947 11.0689 2.96019C11.1358 3.06295 11.2076 3.16935 11.281 3.27286C11.506 3.59128 11.733 3.90647 11.9471 4.21735C11.924 4.07914 11.9049 3.94776 11.8654 3.78946ZM5.47538 4.50682C4.25086 4.20438 5.25526 4.54895 4.97558 4.53427C4.83864 4.52865 4.4986 4.45771 4.23773 4.43695C3.95053 4.41343 3.90154 4.45202 3.92936 4.47966C4.28595 4.43866 5.17693 4.65727 5.84288 4.85006C5.86718 4.85695 5.8922 4.86415 5.9167 4.87131C5.89417 4.85354 5.87213 4.83599 5.85158 4.81894C5.71416 4.71049 5.61269 4.61174 5.47297 4.50619C5.47377 4.5064 5.47458 4.50661 5.47538 4.50682ZM11.2452 40.6315C11.5383 40.8795 11.5956 40.9151 11.8207 41.0381C11.9869 41.116 12.2934 41.3032 12.6896 41.3306C12.8148 41.3382 12.9272 41.3522 13.0347 41.3604C13.0336 41.3602 13.0324 41.3601 13.0312 41.3599C12.9359 41.343 12.8299 41.3199 12.6924 41.302C12.4862 41.2736 12.1929 41.1293 11.8584 40.9585C11.606 40.833 11.4627 40.7417 11.2745 40.5775C11.0793 40.4137 10.8978 40.2603 10.9036 40.2409C10.8524 40.2052 10.8313 39.8129 10.838 39.4503C10.8432 39.3772 10.8381 39.3826 10.8846 39.3178C10.9325 39.2548 11.0551 39.1599 11.2241 39.0253C11.2763 38.9811 11.3368 38.9396 11.4044 38.9014C11.329 38.9297 11.2626 38.963 11.205 39.0006C11.0193 39.1289 10.893 39.2145 10.8351 39.2805C10.7789 39.3471 10.7723 39.3636 10.7678 39.4495C10.7635 39.7859 10.7775 40.197 10.8515 40.2732C10.8586 40.3063 11.0271 40.4465 11.2362 40.6236C11.2392 40.6262 11.2422 40.6289 11.2452 40.6315ZM18.0504 2.7588C17.9336 3.12734 18.7851 1.49954 18.8146 1.21882C18.8207 1.02165 18.7739 1.13965 18.5777 1.52688C18.3897 1.89787 18.1224 2.44736 18.0504 2.7588ZM14.4464 22.9661C14.2883 22.3531 14.1708 22.5692 14.2618 23.3082C14.3051 23.6205 14.4135 24.0314 14.6055 24.4599C14.8 24.8871 14.977 25.3571 15.2394 25.8915C15.3556 26.1214 15.4657 26.3828 15.5584 26.6406C15.6088 26.7745 15.44 26.1601 15.3124 25.8552C15.2378 25.6674 15.2126 25.5685 15.3025 25.731C15.3074 25.7396 15.3257 25.7775 15.3543 25.8343C15.4747 26.0554 15.6935 26.6595 15.7521 26.8306C15.8308 27.0421 15.8437 26.7944 15.9413 27.1562C15.9525 27.203 15.9629 27.2548 15.9713 27.3102C16.0218 27.6212 16.0353 28.0467 15.9612 28.4609C15.9048 28.8259 15.8069 29.1722 15.7141 29.4325C15.6705 29.5585 15.6309 29.6648 15.6052 29.7464C15.5961 29.7739 15.6831 29.6335 15.7708 29.4536C15.8858 29.2261 15.9853 28.9282 15.993 28.8957C16.0318 28.7569 16.0604 28.6166 16.0819 28.4785C16.1593 28.0261 16.1084 27.5959 16.0507 27.3011C16.007 27.0718 15.9507 26.9189 15.938 26.8654C15.7276 26.1314 15.8135 26.2193 15.7667 26.027C15.737 25.9274 15.692 25.8115 15.6356 25.6945C15.4967 25.4058 15.3486 25.0919 15.3358 25.062C15.0949 24.4003 15.3727 25.0304 15.6795 25.6726C15.909 26.1252 16.0628 26.6309 16.1098 26.7747C16.2039 27.05 16.2416 27.1802 16.2761 27.2754C16.3203 27.4582 16.4674 27.5047 16.3837 28.5225C16.3598 28.7299 16.3228 28.9854 16.2376 29.29C16.2263 29.3303 16.1908 29.4481 16.1382 29.5907C15.9019 30.1927 15.3838 31.2359 16.2033 29.615C16.2894 29.4058 16.3816 29.1354 16.4501 28.8164C16.402 29.1209 16.3271 29.4 16.248 29.6317C16.0255 30.2641 15.8136 30.6119 15.7548 30.7904C15.6084 31.1432 15.6439 31.1021 15.7932 30.8082C15.88 30.6217 16.1304 30.2315 16.3433 29.6672C16.4683 29.3395 16.566 28.9411 16.6177 28.5565C16.6832 28.1449 16.6767 27.6402 16.6201 27.236C16.5229 26.5337 16.2966 25.9824 16.0545 25.4861C15.8133 24.9977 15.6078 24.5182 15.5168 24.3537C15.2846 23.908 15.5342 24.6303 15.3719 24.3705C15.33 24.3034 15.2859 24.2304 15.2403 24.1542C15.0485 23.8445 14.8897 23.4574 14.7941 23.1796C14.7144 22.9627 14.6701 22.8365 14.6293 22.8787C14.5793 22.9364 14.5639 23.0589 14.5847 23.2302C14.6142 23.5104 14.7453 23.9035 14.9474 24.2952C15.1489 24.6865 15.3459 25.1154 15.492 25.4845C15.398 25.407 15.3328 25.3888 15.2033 25.2227C15.2924 25.347 15.1201 24.8643 14.8788 24.3283C14.7068 23.9538 14.5713 23.5251 14.5101 23.2482C14.472 23.0908 14.4526 22.9837 14.4469 22.966C14.4467 22.966 14.4466 22.966 14.4464 22.9661ZM16.5499 35.5744C17.0333 35.6019 17.3859 35.6222 17.6525 35.6819C18.0893 35.7835 18.3223 35.7679 18.9439 36.0986C19.038 36.1594 19.1435 36.2286 19.2618 36.3108C19.9012 36.6176 19.4932 36.3111 18.9971 36.0083C18.5123 35.7389 18.0464 35.6409 17.9211 35.5977C17.8386 35.5733 17.7609 35.551 17.6876 35.5307C16.688 35.3232 16.5778 35.313 15.7827 35.2872C15.6537 35.2863 15.5095 35.2887 15.3462 35.2937C15.4973 35.3266 15.6411 35.3588 15.782 35.3918C16.0398 35.4527 16.2811 35.5129 16.5499 35.5744ZM16.1632 26.3554C16.5032 27.24 16.1128 25.8599 15.931 25.5475C15.9179 25.5184 15.91 25.4989 15.9085 25.4925C15.8798 25.3669 15.9184 25.3991 15.9941 25.5161C16.1947 25.8321 16.5163 26.6325 16.5591 27.243C16.5911 27.7462 16.5647 27.9676 16.4389 27.2568C16.3936 27.0279 16.3118 26.7283 16.1632 26.3554ZM33.9414 17.0027C34.1369 17.4604 34.0785 17.1413 34.2774 17.5314C34.3806 17.7304 34.5774 18.1991 34.7703 18.5688C34.9675 18.9474 35.1074 19.255 35.1217 19.2252C35.1296 19.2096 34.9924 18.8543 34.8465 18.5269C34.6682 18.098 34.5425 17.7404 34.9433 18.4737C35.039 18.6354 35.155 18.862 35.284 19.1108C35.2676 19.0206 35.2987 19.0374 35.3007 18.9881C35.2136 18.8134 35.119 18.6214 35.0158 18.4339C34.7708 17.9776 34.5428 17.4563 34.3197 16.9498C34.4164 17.3601 34.5157 17.78 34.6214 18.1664C34.3835 17.8144 34.3584 17.5611 34.3488 17.5415C34.3488 17.5416 34.3487 17.5416 34.3486 17.5416C34.198 17.2152 34.0111 16.8592 33.8917 16.6672C33.7819 16.4902 33.7298 16.4517 33.8196 16.6986C33.8465 16.7726 33.8864 16.8732 33.9414 17.0027ZM20.9311 37.89C20.991 38.0664 21.2735 37.4462 21.5368 36.9767C21.6164 36.8303 21.691 36.6957 21.7517 36.599C22.009 36.1926 22.4317 35.6891 22.2265 35.8473C22.0133 36.1195 21.729 36.544 21.4781 36.9355C21.1635 37.418 20.9241 37.879 20.9313 37.8901C20.9313 37.8901 20.9312 37.8901 20.9311 37.89ZM17.2251 37.8175C17.0203 37.7776 16.8603 37.8002 16.7248 37.8274C16.3855 37.8937 16.2121 37.9213 15.9769 37.9975C15.775 38.0719 15.5441 38.1067 15.3288 38.2998C15.287 38.3377 15.2419 38.3835 15.1944 38.436C15.263 38.4253 15.3315 38.4188 15.395 38.4181C15.4037 38.409 15.4122 38.4005 15.4202 38.3925C15.5904 38.2205 15.7927 38.1633 16.0007 38.0705C16.1866 37.9867 16.3688 37.9408 16.733 37.8854C16.8939 37.8608 17.071 37.8526 17.298 37.9412C17.4424 37.9994 17.1884 37.9739 17.5055 38.1073C17.5136 38.1193 17.5428 38.1101 17.6621 38.2611C17.6127 38.1347 17.576 38.0567 17.5398 38.0085C17.4021 37.9309 17.3219 37.8675 17.2251 37.8175ZM12.7519 38.4479C13.03 38.4192 13.2705 38.4164 13.4636 38.4425C13.5301 38.4023 13.7368 38.6058 13.7709 38.5984C13.7958 38.6014 13.8032 38.5674 13.7706 38.4912C13.7406 38.4214 13.651 38.2819 13.5181 38.2461C13.3159 38.1924 13.0328 38.1765 12.6679 38.2444C12.5829 38.2599 12.4882 38.2896 12.4066 38.3245C12.167 38.4158 12.0246 38.5214 12.4351 38.4835C12.5161 38.4753 12.6208 38.4613 12.7519 38.4479ZM33.5162 17.767C33.4474 17.3792 33.357 17.1614 33.2925 17.0378C33.1817 16.833 33.1984 16.879 33.2742 17.0469C33.4062 17.2944 33.4873 17.9324 33.5399 18.3906C33.5555 18.5227 33.5657 18.636 33.5702 18.7154C33.5524 18.6035 33.5341 18.4968 33.5155 18.3949C33.4028 17.745 33.3186 17.3293 33.1845 17.0915C32.7746 16.3794 32.8945 16.5858 33.1684 17.0995C33.32 17.3879 33.3826 17.8911 33.4563 18.4052C33.5431 19.013 33.5669 19.5965 33.5571 19.8477C33.5551 19.8719 33.552 19.892 33.5481 19.9075C33.6958 20.5023 33.6232 21.7244 33.7849 20.3945C33.7869 19.8304 33.7252 20.0421 33.7277 20.0077C33.723 19.9426 33.7173 19.8824 33.7112 19.8265C33.6384 19.1183 33.6904 18.9998 33.6112 18.3782C33.5886 18.2135 33.5614 18.0138 33.5162 17.767ZM14.1572 35.41C14.2316 35.4491 14.1749 35.3688 14.2995 35.4171C14.3028 35.4114 14.3128 35.4127 14.3475 35.4211C14.5127 35.4751 15.1871 35.5269 15.245 35.4876C15.2683 35.4732 15.1151 35.4604 14.9015 35.4428C14.7071 35.4315 14.3502 35.3766 14.3394 35.3543C14.1608 35.2429 14.0203 35.1936 13.96 35.1606C13.9691 35.1678 13.9649 35.1683 13.9588 35.165C13.9114 35.1368 13.8349 35.0543 13.8148 35.0765C13.7857 35.0804 13.8306 35.2316 13.8924 35.2787C13.9479 35.3136 14.0344 35.3494 14.1572 35.41ZM18.1618 38.4016C18.1083 38.3247 18.0687 38.2649 18.0353 38.2218C17.8823 38.0283 17.8814 38.1029 17.9422 38.2798C17.9912 38.4229 18.1035 38.7656 18.418 38.9802C18.7099 39.2149 19.1771 39.1363 19.2574 39.0831C19.4967 38.9774 19.6187 38.8555 19.6773 38.8183C20.0288 38.5482 20.0274 38.4136 20.0093 38.4328C19.9767 38.4422 19.868 38.5963 19.6225 38.7344C19.5276 38.7758 19.3598 38.9045 19.1375 38.9624C18.9111 39.0301 18.6417 38.9569 18.496 38.8453C18.2011 38.6283 18.1428 38.3884 18.1618 38.4016ZM32.7659 23.0237C33.4541 22.7383 33.5956 22.2861 33.7086 22.1019C33.8518 21.7763 33.7714 21.8113 33.582 22.0192C33.3675 22.238 32.995 22.6881 32.3748 22.717C32.1675 22.7463 31.9024 22.7394 31.6625 22.7297C31.4497 22.7582 31.2284 22.7794 31.0184 22.7839C30.9994 22.7843 30.9806 22.7844 30.9619 22.7844C30.9805 22.7838 30.9993 22.7829 31.0185 22.7819C31.4823 22.7575 32.0804 22.6514 32.2258 22.5833C32.3691 22.4989 32.1885 22.6067 31.0369 22.5812C30.8592 22.5706 30.6813 22.5358 30.4358 22.4587C30.191 22.389 29.9949 22.4146 29.7908 22.453C29.7377 22.4637 29.685 22.4783 29.6327 22.4971C29.6866 22.4798 29.7397 22.4673 29.7918 22.4587C30.0212 22.4232 30.2226 22.4203 30.426 22.4879C31.2636 22.7426 30.7625 22.6534 30.4059 22.548C30.2127 22.4945 30.089 22.5158 30.0833 22.5148C30.0224 22.5809 30.148 22.5913 30.3607 22.6829C30.5176 22.7646 30.7416 22.8588 31.0079 22.8979C31.4968 22.965 32.0601 22.9727 32.4356 22.9339C32.7086 22.9081 32.8997 22.8861 32.763 23.0246C32.764 23.0243 32.7649 23.024 32.7659 23.0237ZM14.4308 32.4505C14.588 32.2188 14.8137 31.9098 15.0566 31.5639C15.2477 31.2922 15.4142 30.9789 15.5386 30.6898C15.7464 30.2496 15.9687 29.7822 16.0211 29.547C16.0702 29.3543 16.0584 29.3178 15.9559 29.5226C15.9263 29.5799 15.8883 29.6554 15.8385 29.7496C15.7244 30.0652 15.5692 30.3669 15.4555 30.6511C15.3378 30.9503 15.1909 31.2528 15.0122 31.5322C14.8134 31.8447 14.6144 32.145 14.4308 32.4505ZM23.9416 5.18223C23.8222 5.23583 23.7048 5.29132 23.5796 5.38252C23.3256 5.57466 23.0404 5.75661 22.8276 6.13195C22.8337 6.12284 22.8224 6.13239 22.862 6.07974C22.8717 6.06943 22.8671 6.06996 22.9051 6.03781C22.946 6.02713 22.9823 5.91 23.2415 6.02171C23.4151 6.17966 23.349 6.18335 23.3702 6.21577C23.3745 6.24125 23.3743 6.2563 23.3745 6.2619C23.3743 6.29223 23.3725 6.29683 23.3718 6.30415C23.3686 6.32486 23.3683 6.32335 23.3677 6.32648C23.3669 6.32997 23.3673 6.32864 23.3678 6.3275C23.3687 6.32473 23.3704 6.3198 23.3722 6.31491C23.3758 6.30498 23.3799 6.29413 23.3839 6.28459C23.4983 5.99338 23.5908 5.72251 23.7331 5.4721C23.8642 5.24294 24.0456 4.97 24.1878 4.662C23.521 5.66326 23.908 4.97365 24.0587 4.60772C24.1663 4.32685 24.076 4.52042 23.9387 4.7739C23.7986 5.0294 23.6065 5.32409 23.6062 5.32492C23.5516 5.27282 23.7889 4.82442 23.4798 5.32833C23.3838 5.48693 23.2679 5.75731 23.1168 6.18206C23.1037 6.20696 23.1037 6.2514 23.0813 6.26022C23.0867 6.24952 23.0924 6.23866 23.0984 6.22801C23.0932 6.23896 23.0881 6.25018 23.0834 6.26129C23.0943 6.24904 23.0987 6.20608 23.1087 6.17898C23.1974 5.881 23.2761 5.5793 23.4152 5.2917C23.4824 5.15223 23.5563 5.0173 23.624 4.88212C23.5409 5.02208 23.4578 5.15064 23.3856 5.27491C23.1915 5.61456 23.096 5.90522 22.9942 6.135C22.9869 6.15177 22.9803 6.16806 22.974 6.18477C22.9709 6.1932 22.9678 6.20157 22.9647 6.21101C22.9631 6.21582 22.9615 6.2206 22.9596 6.22755C22.9586 6.23175 22.9577 6.2336 22.9557 6.24609C22.9553 6.25002 22.9542 6.25339 22.9543 6.26834C22.9544 6.27124 22.9546 6.28078 22.9574 6.29357C22.9662 6.2996 22.942 6.34509 23.053 6.39193C23.217 6.38809 23.1686 6.34604 23.186 6.34741C23.2031 6.32448 23.1994 6.32684 23.2027 6.32164C23.3623 6.06814 23.6034 5.91911 23.8671 5.73738C23.9675 5.67369 24.1108 5.61094 24.2729 5.54837C23.3866 5.82009 24.4698 5.31133 25.5467 4.85764C26.0698 4.62108 24.4532 4.94206 23.938 5.18415C23.9392 5.18351 23.9404 5.18287 23.9416 5.18223ZM34.2945 20.2956C34.2717 20.1085 34.2345 19.933 34.186 19.7612C34.1538 19.6522 34.1231 19.54 34.0931 19.425C34.0525 19.1134 34.0099 18.7983 33.9551 18.4854C33.9787 18.4419 34.0046 18.4042 34.0256 18.3538C34.0232 18.3375 34.0208 18.322 34.0184 18.3072C33.9629 17.9576 33.9489 18.1053 33.925 17.9894C33.9252 17.9894 33.9253 17.9894 33.9255 17.9894C33.8431 17.583 33.7597 17.2009 33.5924 16.8886C33.4045 16.543 33.2331 16.2877 33.0935 16.0132C32.9148 15.7037 32.8079 15.3374 32.3778 15.069C32.1928 14.9638 32.0013 14.8443 31.7743 14.7189C31.735 14.8031 31.6957 14.8873 31.6564 14.9714C31.8655 15.0622 32.0719 15.1657 32.2801 15.2631C32.3543 15.2978 32.422 15.3459 32.4825 15.4015C32.6368 15.4818 32.7761 15.6038 32.9051 15.725C32.9566 15.8299 33.003 15.9341 33.0489 16.0373C33.1473 16.261 33.2546 16.4786 33.3636 16.7027C33.4106 16.7736 33.4599 16.8503 33.5063 16.9315C33.6207 17.1286 33.6987 17.3537 33.7495 17.5274C33.7396 18.3619 33.7016 17.66 33.4041 16.9823C33.2348 16.6561 33.0263 16.3229 32.9078 16.1133C32.8365 15.9924 32.7845 15.9201 32.767 15.9246C32.7555 15.9275 32.7894 16.0069 32.8536 16.1425C32.9459 16.3477 33.1423 16.6702 33.3241 17.0221C33.5191 17.4086 33.5716 17.9276 33.6591 18.3699C33.7505 18.8644 33.8052 19.2785 33.8384 19.4228C33.8532 19.4858 33.9477 18.8392 33.9981 19.7871C34.0018 19.8417 34.0042 19.9015 34.0046 19.9668C33.9851 20.1429 33.7329 20.2234 33.7714 21.1508C33.766 21.2479 33.7621 21.3531 33.7528 21.4697C33.7417 21.5696 33.8838 21.474 34.0374 21.2193C34.1668 20.9948 34.271 20.6635 34.2945 20.2956ZM31.7873 14.0123C31.3831 13.2069 32.1343 14.2194 32.6378 15.2324C33.0778 16.1496 33.3999 16.9875 32.9296 15.6363C33.378 16.3482 33.3205 16.209 33.0716 15.394C33.0508 15.3212 33.3218 15.8406 33.3045 15.7939C33.2162 15.5437 33.11 15.2794 32.9923 15.0426C32.7638 14.5792 32.5548 14.2079 32.615 14.1668C32.4994 13.9837 32.3881 13.813 32.2612 13.6344C32.5556 14.2464 32.2013 13.727 31.7822 13.3217C31.6311 13.182 31.5068 13.0207 31.4095 12.9168C31.2387 12.7313 31.5466 13.2158 31.401 13.0596C31.3675 13.0254 31.2152 12.7717 31.0714 12.5944C30.9669 12.464 30.8728 12.3637 30.8532 12.3645C30.7993 12.3687 30.837 12.4814 30.9463 12.6941C31.0461 12.878 31.1373 13.1443 31.42 13.5546C31.4199 13.5547 31.4198 13.5547 31.4198 13.5548C31.4343 13.5716 31.4494 13.5883 31.4649 13.6051C31.5705 13.7163 31.681 13.8617 31.7873 14.0123ZM19.1122 41.4042C19.08 41.4075 19.0416 41.4145 18.9994 41.4225C18.6411 41.4801 18.0543 41.6568 18.9158 41.2502C19.0782 41.1591 19.2909 41.0183 19.4995 40.7752C19.5347 40.7333 19.5708 40.6895 19.6074 40.6435C19.5607 40.6774 19.513 40.711 19.4648 40.744C19.4134 40.7784 19.3603 40.8097 19.3068 40.8375C19.1732 40.9598 19.0228 41.0644 18.8639 41.1434C18.6863 41.2318 18.4904 41.3002 18.2871 41.3817C18.2362 41.4253 18.1825 41.468 18.1264 41.5102C17.9046 41.6926 17.5502 41.7349 17.2589 41.8083C16.1988 42.051 15.2509 41.7965 16.3292 41.995C16.4884 42.0293 17.4745 41.8802 16.5078 42.071C16.5091 42.071 16.5104 42.071 16.5117 42.0709C16.8229 42.0418 17.0752 42.0011 17.2917 41.9401C17.6084 41.8662 17.919 41.8569 18.2186 41.7314C18.4294 41.6417 18.6646 41.5841 19.012 41.4483C19.045 41.4348 19.0784 41.4201 19.1122 41.4042ZM24.1493 33.9687C24.2884 33.684 24.363 33.4906 24.4003 33.376C24.4553 33.2028 24.4218 33.2114 24.3321 33.3386C24.1373 33.6537 23.5054 34.5623 23.0186 35.362C22.5254 36.1742 22.1161 36.8084 22.4064 36.4481C22.4343 36.4119 22.7508 35.9409 23.0875 35.4056C23.5682 34.6486 24.1578 33.8102 24.1493 33.9687ZM13.9969 38.9306C14.0104 38.9343 13.9646 38.9017 14.1744 38.8677C14.3032 38.8524 14.453 38.9777 14.4683 39.0219C14.5007 39.0768 14.4991 39.0901 14.5032 39.1032C14.5022 39.1208 14.498 38.9338 14.4806 38.8266C14.463 38.7056 14.4312 38.5952 14.3934 38.5021C14.2167 38.0908 13.9771 37.9615 13.8642 37.9274C13.7457 37.8982 13.7549 37.9519 13.798 38.0078C13.8598 38.0767 14.0765 38.2934 14.1772 38.5771C14.2752 38.821 14.2633 39.1155 14.2781 39.1543C14.279 39.1587 14.2788 39.1561 14.2739 39.1486C14.2718 39.1402 14.2278 39.1 14.1897 39.1029C14.1572 39.1038 14.1516 39.1121 14.1493 39.1136C14.1464 39.1178 14.1549 39.1145 14.1583 39.1139C14.1671 39.1114 14.1695 39.1143 14.1668 39.1219C14.1671 39.1289 14.1478 39.1404 14.1739 39.1358C14.2387 39.1338 14.2426 39.1916 14.2313 39.1649C14.2126 39.118 14.1959 39.0706 14.1943 39.1733C14.207 39.1996 14.1667 39.1927 14.1946 39.1904C14.282 39.1878 14.6353 38.541 15.1024 38.0703C15.3398 37.8372 15.6604 37.763 15.8776 37.6934C16.0611 37.6384 16.1918 37.623 16.2146 37.6163C16.8148 37.4844 15.9025 37.4851 16.0703 37.4457C16.2571 37.3896 16.464 37.3639 16.6547 37.3365C17.1161 37.2523 17.5591 37.4482 17.6652 37.4379C17.7919 37.4246 17.7277 37.3822 17.5068 37.309C17.2846 37.231 16.9114 37.2198 16.6475 37.2861C16.4733 37.3254 16.316 37.358 16.2479 37.37C16.0604 37.4007 15.9164 37.432 15.802 37.4618C15.4951 37.5533 15.3769 37.4687 14.95 37.784C14.9256 37.8045 14.9028 37.8248 14.8808 37.8457C14.4696 38.2573 14.3302 38.6116 14.0758 38.937C14.01 39.0107 14.0114 38.9151 13.9969 38.9306ZM10.6515 38.679C10.7296 38.607 10.7879 38.5528 10.8254 38.5116C10.9346 38.4 10.9065 38.3887 10.7798 38.4529C10.6927 38.5 10.5453 38.573 10.3698 38.7167C10.1945 38.8523 10.0078 39.1364 10.0023 39.4406C9.98614 39.8466 9.93288 40.3265 10.1642 40.7007C10.3132 40.9319 10.4553 41.0164 10.5098 41.0612C10.6527 41.1608 10.7247 41.2004 10.7538 41.2045C10.7664 41.2066 10.7703 41.2012 10.7665 41.1892C10.7616 41.1219 10.5297 40.9699 10.3059 40.6126C10.1208 40.2609 10.1902 39.8227 10.1985 39.4429C10.2071 39.0318 10.5266 38.7986 10.6515 38.679ZM30.9075 14.1916C30.9225 14.2387 30.9373 14.2792 30.9514 14.3135C31.0877 14.5476 31.0755 14.4744 31.0181 14.2931C30.9805 14.1274 30.9517 13.8458 30.9037 13.5159C30.855 13.2281 30.7904 12.9321 30.75 12.6447C30.73 12.5024 30.7145 12.3621 30.7165 12.2439C30.7165 12.1873 30.7273 12.1277 30.7328 12.1196C30.7375 12.1141 30.7138 12.1458 30.6826 12.1482C30.6553 12.1501 30.6615 12.1445 30.6732 12.1512C30.7155 12.1714 30.7895 12.2418 30.8369 12.2883C30.8247 12.2664 30.7594 12.1733 30.6897 12.1187C30.6519 12.1038 30.6988 12.0987 30.6895 12.0924C30.6756 12.1028 30.6579 12.163 30.6519 12.2212C30.6383 12.343 30.6449 12.488 30.6581 12.6376C30.6846 12.9374 30.7448 13.257 30.7907 13.5361C30.8319 13.8279 30.8675 14.0723 30.9075 14.1916ZM31.9153 23.1731C32.9941 23.0143 31.9253 23.0717 31.0034 22.9466C30.8268 22.9226 30.6555 22.88 30.5022 22.8331C30.4188 22.8271 30.3569 22.8224 30.3142 22.822C30.2217 22.8296 30.2366 22.8504 30.2961 22.8761C30.4051 22.9242 30.6741 23.0199 30.9942 23.0478C31.0331 23.0515 31.0737 23.0547 31.1133 23.0575C31.7893 23.0788 30.9388 23.219 31.9153 23.1731ZM13.3166 35.2951C13.3503 35.3357 13.3745 35.4996 13.6563 35.6912C13.7814 35.7593 13.9079 35.8029 14.0143 35.8665C14.71 36.1311 15.3646 35.9724 15.7777 35.9794C16.135 35.9597 16.246 35.9377 15.7781 35.917C15.667 35.912 15.5231 35.9078 15.3415 35.903C15.2647 35.8754 14.7301 35.99 14.0857 35.7539C13.9793 35.6862 13.8537 35.6397 13.7262 35.5692C13.4164 35.3426 13.3499 35.0054 13.2512 34.746C13.1099 34.3313 13.1968 33.9821 13.2065 33.9165C13.3099 33.548 12.9363 34.1182 13.1322 34.7831C13.1798 34.9593 13.2387 35.1376 13.3166 35.2951ZM28.2382 25.8969C28.2951 25.4657 28.4102 25.1392 28.4073 25.0683C28.408 25.0474 28.399 25.0409 28.3783 25.0511C28.3506 25.0607 28.2998 25.0993 28.2253 25.1925C28.2249 25.1932 28.2246 25.194 28.2243 25.1947C28.2522 25.1276 28.2818 25.0668 28.3132 25.0126C28.5531 24.5808 28.6652 24.3049 28.8182 24.1675C29.1562 23.8022 29.3041 23.7737 29.4216 23.6048C29.735 23.1751 29.7084 23.2164 29.65 23.1637C29.5954 23.1391 29.4618 23.1108 29.7323 22.9313C29.3316 23.1489 29.1862 23.4927 29.042 23.6649C28.9056 23.8542 28.813 23.9636 28.7043 24.0877C28.5642 24.2311 28.4716 24.4496 28.2103 24.9257C28.2068 24.9317 28.203 24.9381 28.199 24.9449C28.0608 25.143 27.9123 25.8154 27.7918 26.234C27.749 26.3842 27.7183 26.4997 27.713 26.548C27.7004 26.6598 27.8358 26.5125 27.9829 26.3094C28.0799 26.1728 28.1745 26.0131 28.2382 25.8969ZM15.3626 29.807C15.2505 30.0209 15.129 30.2323 15.0305 30.4534C14.8666 30.8342 14.7065 31.123 14.6408 31.2671C14.5929 31.3722 14.6038 31.3985 14.6956 31.3062C14.7875 31.2114 14.9697 30.9925 15.1821 30.5553C15.1862 30.5467 15.1904 30.5382 15.1944 30.5297C15.6575 29.6829 15.7124 29.0668 15.3626 29.807ZM10.1647 5.40833C10.185 5.18859 10.2006 4.9556 10.2268 4.71381C10.2587 4.97889 10.3059 5.23876 10.3459 5.49429C10.3654 5.62151 10.3842 5.75005 10.3901 5.87101C10.4012 5.99552 10.3645 6.09838 10.3664 6.06601C10.3664 6.06604 10.3663 6.06607 10.3662 6.06608C10.3663 6.06605 10.3664 6.066 10.3664 6.06594C10.3717 6.13386 10.4004 5.8313 10.3601 5.6551C10.3304 5.45506 10.2904 5.2519 10.2552 5.04433C10.3181 5.53786 10.3289 5.89037 10.2861 5.95306C10.2446 6.01009 10.2599 5.94894 10.1651 5.41086C10.1649 5.41002 10.1648 5.40918 10.1647 5.40833ZM9.03642 12.1429C9.48316 12.1845 10.3536 11.9767 10.2397 11.9712C9.68126 11.9563 9.06137 12.0116 8.88879 12.0679C8.83194 12.0872 8.82621 12.1069 8.89005 12.123C8.92262 12.1306 8.96878 12.1375 9.03642 12.1429ZM31.0312 12.2741C31.0277 12.2247 31.0504 12.1683 31.0212 12.2504C31.0126 12.2851 30.9027 12.439 30.7362 12.4604C30.5833 12.4774 30.5503 12.4391 30.5303 12.4333C30.4829 12.3943 30.6263 12.5117 30.6561 12.5345C30.7028 12.5699 30.7277 12.5772 30.7328 12.5585C30.7554 12.5345 30.6343 12.3385 30.6063 12.2832C30.6108 12.2769 30.6327 12.3005 30.7294 12.2748C30.8326 12.2374 30.8481 12.1646 30.8444 12.1659C30.8364 12.1585 30.8194 12.2255 30.8158 12.287C30.8064 12.4173 30.8199 12.5768 30.8431 12.729C30.8097 12.1605 31.1022 13.0547 31.0312 12.2741ZM1.81889 9.41304C1.92827 9.30518 2.04005 9.1999 2.1641 9.08469C1.80407 9.473 1.73857 9.54578 1.81889 9.41304ZM13.8 36.0128C13.8197 36.0253 13.8517 36.0442 13.8861 36.0684C14.5089 36.388 15.2188 36.2731 15.7754 36.2998C16.0336 36.3005 16.2334 36.2982 16.3043 36.2922C16.5934 36.2671 16.2706 36.2104 15.7763 36.1721C15.393 36.1403 14.9087 36.1352 14.5017 36.1088C14.4425 36.0957 14.2273 36.1402 13.9256 36.0063C13.8197 35.9744 13.7112 35.9599 13.8028 36.0143C13.8019 36.0138 13.8009 36.0133 13.8 36.0128ZM9.38287 5.21485C9.38422 5.2183 9.38177 5.21946 9.37622 5.21863C9.37893 5.21769 9.37959 5.21548 9.38287 5.21485ZM29.125 25.1731C29.1313 25.1648 29.1364 25.1608 29.1395 25.1629C29.1351 25.1656 29.1294 25.1719 29.125 25.1731ZM14.5064 37.7711C14.1654 37.9813 13.8405 38.459 13.7318 38.6297C13.7114 38.6676 13.6888 38.6859 13.7766 38.6244C13.8197 38.5975 13.9158 38.5363 14.0705 38.515C14.2092 38.4989 14.2997 38.5261 14.2114 38.523C14.1378 38.518 13.9336 38.5683 13.8655 38.6257C13.7896 38.6788 13.7748 38.7116 13.7768 38.7182C13.7839 38.7327 13.8486 38.6748 13.9326 38.5752C13.9619 38.5426 14.3614 37.9181 14.5064 37.7711Z" fill="#E8E8E8"/>
</svg>
