<svg width="45" height="52" viewBox="0 0 45 52" fill="none" xmlns="http://www.w3.org/2000/svg">
<path d="M12.8635 4.53529C12.2099 4.70574 11.5523 4.87619 10.8961 5.04754C10.1016 5.26105 9.44291 5.44764 8.80067 5.84775C8.18301 6.22233 7.43654 6.81826 6.76533 7.36439C6.20597 7.82978 5.64315 8.45873 5.07927 9.09453C4.84309 9.32317 4.80302 9.40148 4.96827 9.15601C5.06737 8.93585 5.06385 8.81616 4.97414 8.60712C4.93473 8.51997 4.83587 8.43131 4.78562 8.40849C4.73338 8.38202 4.73111 8.38994 4.7597 8.39241C4.81908 8.40112 4.97193 8.39411 5.12974 8.36388C5.44788 8.30573 5.84405 8.17031 6.13161 8.0269C7.16988 7.47162 8.41487 7.08107 9.41374 6.73357C10.5969 6.34617 11.5162 6.46632 12.405 6.42746C13.267 6.37888 14.1144 6.92504 14.5339 7.31344C14.9131 7.62559 15.2253 8.12968 15.3551 8.5632C15.4928 8.99898 15.5302 9.34064 15.5909 9.60861C15.7933 10.5833 15.5972 11.4735 15.324 12.2407C14.8282 13.3198 14.1387 13.4873 13.5776 13.7502C12.9932 13.9724 12.4185 14.0971 11.801 14.1424C11.591 14.1601 11.2921 14.1208 11.0476 13.9911C10.8044 13.8669 10.6527 13.695 10.6229 13.6687C9.97402 12.9057 10.1294 12.4247 10.1072 12.0168C10.1544 11.0231 10.778 10.3135 11.3141 9.88329C11.9316 9.38365 12.6147 9.35144 13.0519 9.31068C13.522 9.27837 13.9485 9.27737 14.3766 9.27637C14.7597 9.26496 15.2308 9.43143 15.5132 9.65517C15.8027 9.87434 15.959 10.0827 16.0707 10.2038C16.7744 11.0022 16.7443 11.9574 16.8489 12.3158C17.1622 13.3194 16.6226 14.5647 16.3342 15.0739C16.0445 15.7279 15.4013 16.3335 14.7691 16.5985C14.1412 16.879 13.5768 16.9635 13.1678 17.0856C12.2194 17.3868 11.0393 17.433 10.3316 17.4959C9.61493 17.5895 8.9547 17.6266 8.3152 17.6927C8.27708 17.6965 8.24049 17.7002 8.20406 17.7039C7.02736 17.7668 6.65401 17.5546 6.36758 17.4917C6.09825 17.4063 5.99803 17.3587 5.73442 17.2728C5.17944 17.0879 4.7262 16.9099 4.31552 16.7387C3.6443 16.5275 3.03694 15.6439 2.94218 15.1875C2.84071 14.8783 2.82211 14.6097 2.82455 14.3592C2.90091 13.0029 3.35563 12.0411 3.90307 11.0528C4.62934 9.8727 5.6109 9.20347 6.5483 8.59271C7.41517 8.064 8.22962 7.61932 9.3565 7.35672C10.8163 7.15275 11.9738 7.15842 13.3536 7.25176C14.1778 7.30462 14.968 7.71565 15.4172 7.84908C15.4206 7.85008 15.4239 7.85107 15.4272 7.85205C16.4968 8.18052 17.0422 8.69002 17.4027 8.88374C18.5622 9.67012 18.5859 9.90997 18.6791 10.0321C18.7415 10.163 18.7349 10.202 19.2521 10.7585C19.443 10.9675 19.6019 11.1507 19.7356 11.3095C20.2344 11.9833 20.2104 12.2775 20.2916 12.3865C20.3458 12.4977 20.3584 12.4481 20.3631 12.3643C20.3687 12.1887 20.3485 11.8913 20.5743 12.49C20.6186 12.6271 20.6607 12.7497 20.706 12.861C21.0024 13.5882 21.0666 14.309 21.1143 14.952C21.2018 16.8048 21.2128 18.3981 20.9576 20.4038C20.8005 21.0768 20.6833 21.8393 20.4729 22.6116C20.2832 23.3033 20.0924 23.9985 19.8877 24.694C20.0691 23.9925 20.2363 23.293 20.4043 22.5933C20.469 22.3251 20.5215 22.061 20.5693 21.7998C20.5167 22.0495 20.4557 22.3178 20.3816 22.5872C19.9677 24.0932 19.532 25.5055 20.1323 23.0789C19.947 23.6945 19.7673 24.2696 19.5626 24.9027C19.5773 24.9716 19.4888 25.3615 19.3513 25.8564C19.1113 26.7708 18.7493 28.1489 18.7308 28.3333C18.7106 28.6202 19.1754 26.9509 19.1755 26.9639C19.1886 27.011 18.9274 27.9757 18.5508 29.1978C18.2167 30.3047 18.2146 32.0169 18.3186 33.0361C18.3113 33.2211 18.6768 33.5963 18.7388 33.6602C18.8119 33.7363 18.878 33.8043 18.9342 33.864C18.7304 33.7332 18.8528 33.8357 18.8638 33.8332C18.8921 33.8494 18.8968 33.8645 18.9001 33.879C18.9175 33.9038 18.8856 33.9485 19.3376 33.9083C19.3495 33.9071 19.3618 33.9056 19.3747 33.9036C19.8076 33.8014 19.9519 33.5081 20.0356 33.3932C20.0798 33.3232 20.1157 33.2637 20.1779 33.181C20.209 33.1393 20.2464 33.0917 20.2955 33.0306C20.3194 33.0009 20.3478 32.9654 20.3808 32.9248C20.3981 32.9033 20.4161 32.8811 20.4402 32.8518C20.4534 32.8357 20.4658 32.8205 20.489 32.7935C20.4988 32.7825 20.5162 32.7618 20.5436 32.7343C20.5551 32.7234 20.5794 32.6973 20.6301 32.6597C20.662 32.6383 20.6689 32.6276 20.7592 32.5862C20.8503 32.5427 21.1032 32.4834 21.3347 32.6291C21.4981 32.7461 21.7113 32.9304 21.8585 33.2375C22.0092 33.5441 22.0253 33.9206 21.9804 34.2376C21.9977 34.7927 22.0637 34.9292 22.0677 34.9071C21.9201 34.7951 22.0542 34.8992 22.2289 34.8982C22.412 34.9138 22.6703 34.9108 23.0309 34.8999C23.2104 34.895 23.0689 34.837 23.1483 34.8329C23.1965 34.8303 23.2432 34.8281 23.2882 34.8261C23.4692 34.8111 23.6076 34.691 23.6719 34.6475C23.7376 34.5984 23.7374 34.6115 23.7061 34.6547C23.6432 34.7504 23.4584 34.8762 23.4629 34.871C23.5021 34.892 23.6626 34.8554 23.8695 34.6651C24.0792 34.478 24.2891 34.165 24.5119 33.8223C24.538 33.7841 24.5644 33.7423 24.6137 33.6811C24.6428 33.649 24.6613 33.6147 24.7609 33.5456C24.8118 33.5174 24.9158 33.4385 25.1263 33.4783C25.3383 33.5333 25.4064 33.6668 25.4376 33.7189C25.6549 34.153 25.6509 34.4697 25.6694 34.6185C25.709 35.3002 25.6368 35.901 25.68 36.4365C25.831 37.8963 25.8233 39.2918 25.8112 40.6485C25.8087 41.5603 25.5419 42.4345 25.3345 43.2345C25.0667 44.1287 24.6278 44.8181 24.2298 45.5946C23.8189 46.3339 23.1464 46.8459 22.351 47.1734C21.5338 47.4685 20.6642 47.5713 19.7721 47.6762C19.7504 47.6788 19.7286 47.6812 19.7069 47.6835C18.8788 47.8602 17.0146 47.4522 15.5869 46.8827C14.7631 46.6231 14.0812 46.1423 13.7448 45.651C13.6608 45.5288 13.6057 45.4088 13.5682 45.3044C13.3735 44.616 13.4927 44.4671 13.5005 44.3939C13.5301 44.3218 13.5522 44.3246 13.5988 43.9955C13.5909 43.9012 13.5854 43.8073 13.5804 43.7145C13.5074 42.9121 14.1094 42.0488 15.1882 41.3607C15.5181 41.1254 15.914 40.8884 16.3989 40.7019C17.1957 40.25 17.1539 40.3512 18.814 40.0695C18.8319 40.0664 18.8501 40.0632 18.8685 40.06C19.2312 39.9981 19.6751 39.9398 20.1689 40.0184C20.6659 40.0808 21.1781 40.4034 21.542 40.6769C22.0942 41.0393 22.4191 41.6627 22.6632 42.0822L22.678 42.1079C22.7449 42.2433 22.7854 42.3803 22.8151 42.4982C22.866 42.718 22.9233 42.904 22.9822 43.0979C22.8894 42.8654 22.8278 42.688 22.7776 42.5092C22.739 42.3778 22.6915 42.2461 22.6304 42.1323L22.6181 42.1109C22.2944 41.6295 22.1645 41.2641 21.4779 40.7651C21.2868 40.6389 21.0528 40.4407 20.7014 40.2818C20.5294 40.1841 19.7762 39.9459 18.8779 40.1199C17.7165 40.2538 16.1134 40.6614 15.2538 41.4466C14.4584 42.0318 14.054 42.6082 14.2062 42.4976C14.3124 42.4 14.8134 41.9311 15.3325 41.5497C15.7942 41.1817 16.287 40.9303 16.3281 40.9194C16.7272 40.8157 16.0835 41.1196 15.4132 41.6554C15.2277 41.8008 15.0312 41.9454 14.8465 42.09C15.0039 41.9428 15.1991 41.7811 15.3877 41.6221C15.4421 41.5762 15.4938 41.5336 15.5473 41.4911C15.4861 41.5314 15.4313 41.5691 15.377 41.608C14.4533 42.2525 14.4369 42.4567 14.3865 42.5555C14.3654 42.6097 14.3443 42.6481 14.2516 42.7531C14.1651 42.8624 13.9808 43.0221 13.7951 43.4525C13.7357 43.6044 13.7091 43.6094 13.6678 43.7228C13.6497 43.7745 13.6286 43.8488 13.6035 43.973C13.613 44.0554 13.7026 43.5777 13.6706 43.9935C13.604 44.4083 13.6297 45.2546 13.7941 45.3317C13.8713 45.384 13.7359 45.1074 13.7166 44.737C13.6886 44.3688 13.742 43.9261 13.7576 43.7313C13.7617 43.686 13.766 43.6552 13.7683 43.6419C13.7679 43.6405 13.7675 43.639 13.7671 43.6376C13.8986 43.1296 13.8461 43.3463 13.8048 43.7358C13.7442 44.2248 13.7768 44.9411 13.8223 44.9907C13.9463 45.3359 14.0234 45.3392 14.0938 45.4086C14.1733 45.4665 14.2559 45.5883 14.6693 45.8727C14.8894 46.0219 15.2898 46.2509 15.7446 46.3932C16.3598 46.598 16.9503 46.8297 17.2664 46.9138C17.8305 47.069 16.9717 46.7662 17.3514 46.8685C17.7288 46.9709 18.192 47.1146 18.6408 47.1418C18.8325 47.1525 18.8258 47.0966 18.9169 47.0991C19.6359 47.0893 19.4814 47.1238 19.706 47.1354C19.7923 47.1348 19.9308 47.1252 20.1806 47.0909C20.824 47.0531 22.6892 46.4293 21.3748 46.7468C21.6304 46.684 21.8769 46.611 22.1035 46.5212C22.405 46.3976 22.7302 46.1891 22.9964 45.9557C22.7214 46.1716 22.3779 46.3715 22.0833 46.4678C22.0614 46.475 22.0393 46.4819 22.017 46.4887C22.0394 46.4812 22.0613 46.4736 22.0826 46.466C22.9178 46.1156 23.2722 45.6199 23.4764 45.2048C23.5163 45.1215 23.5576 45.0373 23.6012 44.951C23.9261 44.2944 24.3834 43.6657 24.5226 43.0606C24.5346 42.9944 24.5467 42.9299 24.5586 42.8656C24.7026 42.1183 24.6148 42.3589 24.444 43.0438C24.33 43.5009 23.7751 44.554 23.4475 45.1899C23.341 45.3947 23.2046 45.5448 23.1444 45.6056C23.0371 45.7156 23.3187 45.3117 23.3625 45.1459C23.3801 45.1046 23.3943 45.0726 23.403 45.0552C23.6699 44.5173 24.044 43.9204 24.2086 43.527C24.2909 43.3337 24.3608 43.1368 24.3792 43.0299C24.6064 42.0339 24.7401 41.4108 24.7112 40.656C24.6999 40.3375 24.6888 40.0044 24.6775 39.6414C24.6454 38.6336 24.5948 37.6379 24.4513 36.5653C24.397 36.0541 24.415 35.6121 24.4065 35.2046C24.4068 34.8131 24.3491 34.3949 24.2954 34.332C24.3405 34.4073 24.4692 34.661 24.8673 34.7485C25.2549 34.8039 25.405 34.6633 25.4749 34.6279C25.6086 34.5312 25.6019 34.5156 25.6163 34.5037C25.6295 34.4871 25.6084 34.5158 25.5854 34.551C25.207 35.0549 24.7903 36.1428 23.3221 36.2895C23.0576 36.2971 22.7819 36.3145 22.4692 36.3187C22.3111 36.3198 22.146 36.3197 21.939 36.2959C21.7349 36.2487 21.4643 36.2995 21.0089 35.8683C20.65 35.4751 20.609 35.0027 20.601 34.7469C20.5951 34.4726 20.6133 34.2843 20.6091 34.1494C20.6075 34.014 20.586 33.9567 20.5833 33.9564C20.5802 33.9568 20.5916 33.9589 20.5344 33.9225C21.0577 34.2263 21.4702 33.9214 21.4672 33.929C21.5405 33.8842 21.5766 33.8514 21.6037 33.8272C21.648 33.7856 21.6541 33.7765 21.6665 33.7628C21.6839 33.7424 21.684 33.7414 21.6841 33.7415C21.6828 33.7435 21.6727 33.7577 21.6614 33.7741C21.6395 33.806 21.6117 33.8468 21.5833 33.8877C21.5256 33.9708 21.4635 34.0571 21.3968 34.1436C21.2633 34.3164 21.1135 34.489 20.9369 34.6537C20.591 34.9768 20.0946 35.3035 19.4662 35.3609C19.2998 35.3757 19.1196 35.3948 18.8847 35.3913C18.6573 35.3657 18.3167 35.4314 17.8169 34.9985C17.489 34.6436 16.8699 34.2293 16.7074 33.2306C16.6885 33.0783 16.674 32.9302 16.6621 32.7849C16.5329 30.8703 16.7542 29.6976 17.0345 28.7382C17.049 28.692 17.0627 28.6469 17.0759 28.6027C17.5554 26.9823 17.5853 26.5748 17.9188 25.403C17.9755 25.2125 18.0384 25.001 18.1104 24.7576C18.3396 23.9843 18.5839 23.0975 18.8383 22.1763C19.02 21.5245 19.1362 20.8004 19.3183 20.0257C19.4626 19.033 19.4918 17.6572 19.4991 16.774C19.5014 16.1564 19.4734 15.5619 19.4226 15.0793C19.3563 14.3941 19.2357 13.971 19.1835 13.8086C19.1546 13.7122 19.1218 13.6199 19.0842 13.5305C18.841 12.9182 18.7117 12.3895 18.5949 12.3029C17.9796 11.6117 17.2006 10.8525 16.5177 10.4462C15.8345 10.0479 15.4115 9.73785 14.9206 9.60844C14.0836 9.34062 13.6893 9.11233 13.1948 9.08488C12.0452 9.00146 10.6714 9.03741 9.72412 9.1778C9.03473 9.3328 8.19291 9.76285 7.55557 10.1672C7.32905 10.3121 7.11671 10.4558 6.91842 10.6011C6.15364 11.1591 5.71436 11.6378 5.49563 11.9775C5.2208 12.4125 5.07523 12.7162 5.00211 12.8985C4.74153 13.5784 4.71725 13.8878 4.69988 14.0997C4.68874 14.2943 4.70082 14.5027 4.73739 14.6057C4.77747 14.7263 4.81638 14.8279 4.84683 14.8794C4.89468 14.9698 4.97569 15.035 5.04999 15.0926C5.14005 15.1498 5.18234 15.1828 5.22248 15.2013C6.04896 15.5651 6.2575 15.5294 6.90249 15.6879C7.30396 15.7779 7.71108 15.8254 8.00075 15.7935C8.72432 15.7145 9.43428 15.6737 10.0742 15.5904C11.1614 15.4943 11.8278 15.4867 12.6333 15.248C13.7978 14.9605 14.358 14.8404 14.6211 14.2579C15.0065 13.508 15.1213 13.2415 15.0127 12.7537C14.8968 12.205 14.8747 11.8526 14.7793 11.6458C14.7153 11.5089 14.7553 11.5083 14.6999 11.4396C14.6976 11.4372 14.6954 11.4348 14.6932 11.4324C14.4207 11.1265 14.4176 11.1727 14.3834 11.1629C14.3518 11.1644 14.3824 11.1956 14.3779 11.1997C14.3223 11.2007 14.2646 11.2016 14.196 11.2023C13.49 11.2016 12.5578 11.2597 12.5257 11.3854C12.1937 11.6483 12.0327 11.9212 12.0304 12.1051C12.0243 12.2153 12.0291 12.3166 12.0385 12.371C12.0429 12.4284 12.0738 12.4109 11.9651 12.2939C12.0443 12.3759 12.0127 12.3279 11.9246 12.2826C11.8341 12.2337 11.7139 12.2218 11.6713 12.2274C11.7757 12.2209 11.8829 12.2096 11.9908 12.1941C12.1511 12.1677 12.2389 12.2155 12.6035 12.1136C12.9418 12.0114 13.2792 11.8255 13.5035 11.613C13.536 11.5802 13.5388 11.5646 13.5295 11.591C13.7406 11.0281 13.8424 10.4605 13.7548 10.0026C13.6853 9.64762 13.6473 9.34273 13.5862 9.14165C13.5238 8.9383 13.4649 8.83921 13.3289 8.71323C13.0623 8.47554 12.846 8.33197 12.6629 8.28966C12.5984 8.27367 12.5239 8.27457 12.4321 8.28857C12.201 8.30985 11.9452 8.33376 11.6658 8.33826C11.1082 8.34944 10.4835 8.35192 10.0446 8.50324C8.87372 8.88487 7.8567 9.19792 7.14426 9.57137C7.08116 9.60231 7.02113 9.63214 6.95767 9.66406C6.4531 9.90885 5.99301 10.0638 5.44963 10.1681C5.1773 10.2152 4.8898 10.2521 4.52961 10.2105C4.19937 10.1787 3.60375 9.98265 3.33382 9.42566C3.15865 9.04672 3.1553 8.69767 3.34085 8.31093C3.58886 7.89896 3.76157 7.85033 3.70759 7.87651C4.28778 7.22368 4.86127 6.56071 5.59746 5.94053C6.32759 5.34896 6.98614 4.79297 7.88266 4.24109C8.65911 3.7526 9.61053 3.46728 10.4278 3.25194C10.7491 3.16768 11.0711 3.08385 11.3928 3.00027C12.3219 2.75921 13.1579 2.60197 13.6399 2.47647C14.687 2.20251 13.9504 2.3457 14.8812 2.09125C14.9148 2.08196 14.9494 2.07241 14.9854 2.06251C15.2132 1.99983 15.4371 1.93645 15.6583 1.8701C15.769 1.83691 15.8764 1.8036 15.9867 1.76826C16.0982 1.73481 16.2038 1.68959 16.4285 1.64237C17.6037 1.44709 18.7229 1.1589 20.2286 1.54911C20.2355 1.55517 20.6089 1.63806 20.8461 1.95428C21.0767 2.26669 21.0818 2.5286 21.0887 2.69577C21.0186 3.54561 21.3741 4.38623 20.4816 5.68175C20.1335 6.0839 19.4787 6.90388 18.4572 6.98463C17.8637 7.04237 17.3017 7.07573 16.7599 7.13379C16.4908 7.16265 16.2252 7.19694 15.9962 7.24395C15.884 7.26676 15.7754 7.29633 15.7217 7.3177C15.6972 7.32601 15.6844 7.33902 15.7308 7.3065C15.7588 7.28652 15.9648 7.12592 15.9682 6.79345C15.967 6.90888 15.9725 6.9642 15.972 6.95593C15.9737 6.95923 15.9395 6.79161 15.7546 6.67201C16.4198 7.1025 17.1322 7.43396 17.7691 7.48657C19.329 7.61771 21.0667 7.74199 22.0131 7.16724C22.438 6.90064 22.8112 6.5216 22.8845 6.28521C22.9941 5.96514 23.0271 5.34287 22.9679 4.89068C22.9008 4.35253 22.8812 3.84834 22.8961 3.31787C22.9468 2.76544 22.8577 2.32024 23.3216 1.47286C23.4023 1.35566 23.5043 1.19874 23.6776 1.02574C23.8266 0.876674 24.057 0.707671 24.3421 0.62793C25.5143 0.183356 27.0775 0.0962605 28.4121 0.160848C30.1326 0.241638 31.8154 0.160816 33.6691 0.352747C34.5635 0.489596 35.3497 0.708574 36.0503 0.836341C36.2872 0.88039 36.485 0.911951 36.6573 0.935517C37.6538 1.08551 38.0086 1.2102 38.9236 1.54216C39.1134 1.61614 39.2866 1.69207 39.4468 1.76908C40.4437 2.26159 41.0887 2.39902 42.0067 3.37409C42.2604 3.68712 42.6168 4.1643 42.538 4.97177C42.5366 4.98243 42.5351 4.99448 42.5332 5.00802C42.5143 5.11535 42.4815 5.44122 42.177 5.73653C41.8695 6.01633 41.5841 6.04081 41.417 6.05858C40.5875 6.11457 39.8673 5.94494 39.2435 5.87684C38.4722 5.78962 37.8379 5.59257 37.2409 5.49491C37.0332 5.45907 36.8319 5.41999 36.6374 5.38177C35.8734 5.22784 35.3568 5.13936 34.8578 5.13071C34.1966 5.11531 33.5183 5.10769 32.5292 5.09937C31.7476 5.09597 30.7939 5.09304 29.9031 5.19433C29.0806 5.28754 28.2322 5.51072 27.8028 5.82396C27.7164 5.88558 27.6481 5.9486 27.6019 6.00457C27.3554 6.28446 27.3018 6.34586 27.2369 6.47936C27.1774 6.60343 27.1342 6.77335 27.1136 6.9769C27.0718 7.3874 27.1168 7.8865 27.1983 8.38598C27.3187 9.11556 27.4588 9.98335 27.6452 10.3477C28.0372 11.1964 28.0696 11.3843 28.3853 11.5868C28.8493 11.8891 29.2415 12.1241 29.663 12.2677C30.6053 12.4064 32.3845 12.443 33.6876 12.3426C34.2345 12.3002 34.8202 12.1841 35.5081 12.1278C36.8581 12.0459 38.0979 12.0228 39.4508 12.0842C40.2387 12.1037 41.1481 12.4513 41.5332 12.5341C42.025 12.6504 42.1689 12.7651 42.3802 12.8517C42.572 12.9398 42.7371 13.0085 42.8679 13.0458C42.9987 13.0848 43.0826 13.0822 43.0868 13.0792C43.0906 13.074 43.0575 13.1014 43.098 13.0625C42.9783 13.212 43.0158 13.2217 43.0144 13.1824C43.0203 13.1445 43.0207 13.0627 43.0125 13.0053C42.9243 12.2608 42.8707 11.7824 42.6556 11.2292C42.4145 10.5843 42.1168 10.0453 41.7024 9.65424C41.1633 9.13698 40.7261 8.71621 40.274 8.53781C39.037 8.00948 37.8369 7.49059 36.6694 7.20081C35.8348 6.99309 35.1025 6.79034 34.3494 6.66648C33.4816 6.51393 32.3118 6.45326 31.8987 6.60997C31.5824 6.7459 31.2727 6.91279 31.0429 7.08604C30.7963 7.24795 30.7414 7.47361 30.7781 7.28377C30.7898 8.07289 30.885 8.87075 31.1396 9.15253C31.1713 9.19307 31.2077 9.23286 31.2516 9.27427C31.5167 9.52155 31.7673 9.77586 31.9642 9.93439C32.1771 10.0985 32.2164 10.1059 32.3403 10.1133C32.6868 10.1137 33.0282 10.1213 33.3128 10.1077C33.4512 10.1019 33.5848 10.0839 33.6197 10.0729C33.6355 10.071 33.6168 10.0637 33.5277 10.1303C33.4378 10.1872 33.3098 10.402 33.3062 10.5286C33.3361 10.2992 33.3511 10.1137 33.3417 10.0097C33.3388 9.96011 33.3265 9.93973 33.3433 9.97821C33.3556 10.0139 33.4377 10.1151 33.518 10.1509C33.1853 9.97774 32.6655 9.89447 32.3579 9.9769C32.4523 9.9417 32.2547 10.0275 32.1559 10.1013C32.0374 10.1807 31.9135 10.2762 31.7927 10.3791C31.551 10.5849 31.3191 10.8207 31.1053 11.0726C30.6534 11.6045 30.2825 12.0917 30.0003 12.6562C29.6692 13.3166 29.3127 13.9576 29.1 14.5414C28.8617 15.1735 28.7548 15.9855 28.4515 16.8476C28.3955 17.003 28.3451 17.1652 28.2983 17.3332C28.179 17.8024 28.2425 17.0767 27.9615 18.475C27.9488 18.5394 27.9351 18.6077 27.9202 18.6802C27.8275 19.1482 27.6941 19.7018 27.5841 20.3374C27.412 21.0592 27.384 21.7207 27.3813 22.7899C27.3818 23.55 27.4109 24.3257 27.4509 25.1106C27.4794 25.7341 27.546 26.2426 27.6418 26.9424C27.7485 27.8981 27.731 28.7922 27.8619 29.5752C27.9869 30.3348 28.0234 31.077 28.1493 31.6628C28.2629 32.4233 28.1516 32.6511 28.1919 33.0168C28.2118 33.3596 28.2741 33.7116 28.3652 34.0739C28.4827 34.5691 28.6519 35.0279 28.7839 35.1305C29.2956 35.6232 29.5561 36.1331 29.8303 36.5458C30.1324 37.0182 30.3619 37.4374 30.6238 37.7316C31.0763 38.2493 31.3426 38.7838 31.6166 39.1722C31.935 39.6288 32.253 40.0858 32.5711 40.5419C32.8909 41.0031 33.1961 41.4645 33.4823 41.9845C33.8762 42.691 34.1902 43.5001 34.3669 44.3064C34.515 44.8141 34.7465 45.817 34.5799 46.5721C34.495 47.12 34.3826 47.8231 34.0859 48.4444C33.7437 49.1283 33.3817 49.926 32.375 50.4056C31.5883 50.7059 31.0416 51.1277 29.8325 51.3636C29.1812 51.422 28.424 51.6249 27.5611 51.6767C25.9044 51.7559 24.2739 51.7353 22.6569 51.698C22.6489 51.6978 22.6409 51.6976 22.6328 51.6974C21.0122 51.6614 19.3753 51.6758 17.6996 51.617C16.4926 51.5663 15.2415 51.5494 13.985 51.4158C12.9563 51.3176 11.811 51.2309 10.7274 51.0133C9.24109 50.7286 7.74875 50.4975 6.18403 50.0194C5.30151 49.699 4.53569 49.5764 3.46274 48.8107C2.95467 48.4073 2.43411 47.7282 2.18767 47.0977C1.8897 46.3509 1.46046 45.6651 1.29661 44.5273C1.18624 43.1773 1.15667 42.064 1.37598 40.5858C1.50163 39.9599 1.64398 39.1538 1.9447 38.4023C2.23562 37.6553 2.60867 36.9097 2.89312 36.286C3.23144 35.5508 3.54102 35.0535 3.71318 34.5277C4.02566 33.5964 4.37871 32.6932 4.5815 31.8704C4.80266 30.9442 5.0779 30.1221 5.06749 29.4487C5.04704 28.16 5.16261 26.672 4.83437 25.9743C4.4859 25.2482 4.17447 24.6415 3.69508 24.1671C3.10841 23.5555 2.46458 22.9777 1.87665 22.1721C1.54222 21.691 1.1289 21.2141 0.731435 20.6498C0.138858 19.5789 0.245508 18.812 0.389318 17.9527C0.519591 17.4015 0.580425 16.7626 0.805932 16.1034C1.04472 15.409 1.26615 14.6933 1.33655 14.0391C1.36557 13.691 1.3976 13.6383 1.48236 13.6714C1.56375 13.7093 1.65903 13.919 1.67495 14.1608C1.59849 14.5992 1.46278 14.9947 1.30325 15.4371C1.3758 15.7709 1.394 15.9037 1.30547 16.25C1.21247 16.5611 1.1243 17.0778 0.958276 18.0547C0.951749 18.0887 0.945641 18.1229 0.939914 18.1578C0.84549 18.859 0.928402 18.9323 0.949851 18.9186C0.98519 18.9049 1.00948 18.8159 1.06062 19.1749C1.0987 19.3764 1.15913 19.7878 1.40601 20.146C1.76449 20.5963 2.2502 21.1008 2.63687 21.6047C3.32365 22.446 4.00358 23.0289 3.62103 22.8094C3.8416 22.9786 4.04729 23.1319 4.26319 23.2968C4.31246 23.3439 4.36159 23.3911 4.41071 23.4384C5.03373 24.0151 5.44231 24.7667 5.81412 25.4893C6.3903 26.8002 6.18198 28.1428 6.26166 29.4382C6.28578 30.4019 5.98331 31.289 5.80145 32.1625C5.78538 32.235 5.76837 32.3074 5.75069 32.3792C5.61151 32.9191 5.65676 32.9606 5.4862 33.5041C5.31854 34.026 5.15056 34.4976 4.99054 34.9621C4.76201 35.6369 4.38942 36.2193 4.11006 36.8235C4.01279 37.0402 3.91032 37.2486 3.80749 37.4665C3.51083 38.0983 3.46985 38.2959 3.231 38.9169C3.18528 39.0389 3.1352 39.1799 3.08088 39.3496C2.86188 40.0705 2.80118 40.2639 2.67709 40.8781C2.63929 41.0719 2.61883 41.3789 2.62053 41.7976C2.75138 41.1721 2.56269 42.799 2.69229 44.3931C2.77134 45.1038 3.19015 45.9366 3.38885 46.4336C3.39977 46.4593 3.42162 46.507 3.45213 46.5732C3.57464 46.8513 3.87367 47.3459 4.39144 47.7348C4.61219 47.9046 5.01768 48.0713 5.29877 48.193C5.6579 48.3471 6.11022 48.5268 6.62252 48.7117C7.31687 48.9604 8.18069 49.1706 9.05649 49.3324C9.75881 49.4607 10.1997 49.4607 10.9655 49.6077C10.9794 49.6104 10.9932 49.6131 11.007 49.6159C11.5219 49.7202 12.117 49.8901 12.7727 49.9637C13.1035 50.0027 13.6376 50.0365 14.1337 50.0771C14.6247 50.1172 15.0663 50.1346 15.2022 50.1438C16.1706 50.2025 15.098 50.1868 15.762 50.2292C16.4026 50.2667 17.075 50.2927 17.7617 50.3292C19.3517 50.4039 21.0436 50.4067 22.6906 50.4469C23.8272 50.4767 24.941 50.4863 25.9864 50.4604C26.3772 50.4501 25.8361 50.398 25.8877 50.395C26.9153 50.3523 27.3267 50.3198 27.4925 50.3197C27.7256 50.314 27.4021 50.3852 27.8071 50.3794C28.0384 50.3856 28.7382 50.2353 29.727 50.1177C30.258 50.0278 31.1951 49.5198 31.8733 49.2249C32.339 48.9923 32.5976 48.3941 32.5693 48.3909C32.6526 48.3695 32.7866 48.1623 32.8989 47.9016C33.0296 47.6097 33.0882 47.2562 33.1154 47.1121C33.1815 46.7723 33.2191 46.5408 33.2622 46.3634C33.3217 46.0634 33.4217 45.9379 33.2871 45.3214C33.1974 44.9759 33.2674 45.6637 33.1919 45.2959C33.1492 45.0966 33.0855 44.8775 33.0341 44.6109C32.9169 43.9715 32.7604 43.338 32.3738 42.5947C32.3002 42.451 32.2153 42.3011 32.1212 42.1466C31.9432 41.8591 31.8399 41.7932 31.497 41.2994C31.4957 41.2975 31.4943 41.2955 31.4929 41.2935C31.3178 41.0438 30.8822 40.3965 30.5521 39.9231C30.1891 39.3813 29.9995 39.0779 30.2772 39.6327C30.0079 39.1454 29.8314 38.8433 29.633 38.6133C29.2662 38.1857 29.0406 37.7833 28.7082 37.2773C28.5593 37.0543 28.403 36.7976 28.2182 36.5363C28.1179 36.3962 28.0182 36.2427 27.883 36.0941C27.5094 35.7137 27.3399 35.1838 27.1649 34.6026C27.1387 34.5157 27.115 34.4541 27.0913 34.4012C27.0238 34.2435 26.9487 34.1636 26.8762 33.7623C26.7413 33.1516 26.8496 32.2941 26.8276 31.9597C26.7119 31.3312 26.6963 30.7151 26.6012 30.0429C26.5893 29.9585 26.5766 29.8745 26.5628 29.7911C26.4095 28.8626 26.4233 27.953 26.3158 27.0912C26.2297 26.5124 26.133 25.8187 26.1017 25.1798C26.0336 23.9374 25.9726 22.704 26.0748 21.4235C26.1464 20.7362 26.2198 20.7306 26.3869 20.0956C26.4134 19.9802 26.4446 19.8451 26.4822 19.6849C26.5052 19.5667 26.6527 18.8755 26.7651 18.2313C26.8153 17.9421 26.8688 17.6537 26.9246 17.4169C26.9627 17.2603 27.05 16.8812 27.213 16.4256C27.4842 15.665 27.7191 14.4545 27.8793 14.1084C27.8807 14.1046 27.882 14.1009 27.8833 14.0974C28.1945 13.2934 28.2121 13.1429 28.4203 12.7426C28.7061 12.2178 28.7841 12.1475 28.8397 12.0759C28.9157 11.9928 28.9085 11.8951 29.3279 11.1035C29.5569 10.8677 29.8569 10.5185 30.1242 10.2493C30.3087 10.0611 30.4843 9.91474 30.6022 9.86065C30.868 9.48333 31.2062 9.11691 32.0633 8.77715C32.2643 8.72906 32.4804 8.70341 32.7088 8.69889C33.2543 8.69187 33.7405 8.77024 34.1429 8.93227C34.5002 9.08953 34.6506 9.43177 34.6828 9.62096C34.7196 9.82405 34.6857 9.95768 34.6198 10.0361C34.6328 10.1753 34.6256 10.4224 34.6011 10.6853C34.591 10.8491 34.4812 11.0563 34.3422 11.1614C34.205 11.2715 34.0723 11.3183 33.9543 11.3537C33.7159 11.4204 33.5063 11.4367 33.3066 11.4515C32.9107 11.4761 32.5649 11.4762 32.3417 11.4827C32.2206 11.4849 32.1234 11.4745 32.0646 11.466C31.3851 11.3217 31.3276 11.136 31.244 11.0845C31.1745 11.0124 31.1193 10.9623 30.8219 10.6962C30.7303 10.6134 30.7724 10.708 30.3156 10.2831C30.2618 10.2336 30.2034 10.1756 30.1421 10.1058C30.0265 9.98254 29.7314 9.58787 29.5959 9.05463C29.4512 8.52665 29.4096 7.90965 29.3951 7.31822C29.4647 6.34927 30.1457 6.04604 30.4979 5.78043C30.8922 5.53404 31.1848 5.41299 31.2444 5.3857C31.2798 5.37078 31.3154 5.35608 31.3485 5.34275C31.7666 5.18779 32.0004 5.19778 32.1452 5.18287C32.2877 5.17564 32.3293 5.17992 32.2977 5.18607C32.2308 5.20926 31.8844 5.19268 31.3717 5.39632C30.592 5.70196 29.5235 6.52858 29.5278 7.0733C29.5043 7.14961 29.4885 7.23088 29.4834 7.31603C29.478 7.37086 29.4729 7.42427 29.4683 7.48147C29.5278 8.77366 29.5781 8.02401 29.5813 7.44839C29.5819 7.40665 29.582 7.36165 29.582 7.31357C29.61 6.42569 30.6037 5.90143 30.9876 5.71939C31.2176 5.63341 31.1207 5.78219 30.5089 6.16731C31.1782 5.77836 30.3226 6.39143 30.5985 6.2552C30.6918 6.20508 31.0518 5.97952 31.5372 5.77734C32.5769 5.42192 34.1797 5.73315 34.1878 5.66632C33.5578 5.57578 32.7617 5.51526 32.1202 5.58671C31.442 5.59565 32.8134 5.01796 34.5753 5.29351C35.1231 5.36729 35.6952 5.50565 36.2317 5.68486C37.3296 6.05187 36.4211 5.89945 36.9464 6.03478C37.2039 6.10098 37.7959 6.22737 39.0269 6.66958C38.4456 6.43849 37.9492 6.24877 37.3961 6.0839C37.3667 5.96982 38.229 6.34633 38.6811 6.4911C38.904 6.55442 37.5919 6.00847 38.7585 6.40729C39.4072 6.75245 39.9867 6.96072 40.8029 7.27288C41.2177 7.42601 41.6588 7.70687 42.0755 8.08417C41.7047 7.78152 41.2709 7.48405 40.787 7.31088C40.7653 7.30315 40.7426 7.29495 40.719 7.28633C40.7425 7.29716 40.7643 7.30725 40.7846 7.31664C41.3961 7.61654 41.4826 7.76744 41.4098 7.72242C41.3313 7.68713 41.0456 7.51633 40.7463 7.40828C40.2393 7.21902 39.7656 7.03789 40.7218 7.46683C41.0833 7.61643 41.594 7.9538 42.1824 8.53841C41.7536 8.13818 41.2873 7.72664 40.7101 7.49486C40.6154 7.45603 40.5204 7.41638 40.4252 7.3769C40.7149 7.5551 40.1616 7.48021 40.4265 7.62704C40.4844 7.65932 40.5496 7.6936 40.6135 7.72594C41.1647 7.98539 41.75 8.51283 42.2956 9.03265C42.4226 9.15205 42.5384 9.2787 42.6406 9.40841C42.886 9.73547 42.6992 9.5573 42.7207 9.58461C43.0276 10.0463 43.0104 9.91602 43.2377 10.3579C43.3024 10.4922 43.3865 10.691 43.4693 10.9242C43.7316 11.5792 43.7857 12.5228 43.8331 12.8985C43.8383 12.9417 43.8411 12.9766 43.8432 13.0005C43.8474 13.4305 43.9209 13.1691 43.9272 12.8863C43.9272 12.7036 43.9268 12.5281 43.9333 12.5561C43.9549 12.6482 43.9749 12.7587 43.9951 12.8774C44.0455 13.1731 44.0115 13.5473 43.8486 13.7369C43.7442 13.8621 43.6589 13.9266 43.6891 13.9367C43.7549 13.8874 43.8165 13.8301 43.8762 13.7617C44.0678 13.5238 44.078 13.1943 44.0413 12.8714C43.9638 12.2426 43.8804 11.5046 43.6269 10.8651C43.2956 9.90428 42.7288 9.14968 42.4446 8.8766C42.277 8.6995 42.2618 8.66433 42.4753 8.84438C42.7165 9.04983 43.2926 9.59575 43.7661 10.8129C43.776 10.8377 43.7856 10.8625 43.7951 10.8872C43.7877 10.8614 43.7802 10.8359 43.7726 10.8105C43.584 10.1799 43.4537 9.86882 43.5007 9.84977C43.5411 9.83111 43.761 10.1129 44.0173 10.7188C44.1632 11.061 44.3185 11.545 44.3944 12.1143C44.4377 12.4256 44.46 12.6463 44.4811 12.8142C44.5333 13.4009 44.4245 13.5353 44.4047 13.5798C44.3522 13.6275 44.4202 13.6009 44.1189 13.9797C44.0593 14.0364 43.9848 14.1032 43.8768 14.1749C43.8483 14.216 43.2744 14.5434 42.6881 14.3787C42.1282 14.2618 41.5538 13.8949 41.2858 13.8443C40.9143 13.7703 40.7015 13.6933 40.6575 13.6982C40.7973 13.6143 39.9757 13.2699 40.5819 13.318C40.6399 13.3195 41.1127 13.4807 41.3516 13.4958C41.4774 13.5099 41.5412 13.5117 41.4064 13.4366C41.3943 13.4306 41.3809 13.4243 41.3663 13.4182C41.1646 13.3315 40.7271 13.0807 40.824 13.0525C40.5857 13.0232 40.326 12.9993 40.0779 12.9959C39.8253 12.9469 39.6018 12.9227 39.4026 12.9105C38.2662 12.8558 37.9746 12.8283 37.1738 12.7674C37.2178 12.8009 38.0818 12.9255 36.7715 12.9081C36.7034 12.9084 36.6448 12.8542 35.9764 12.8583C35.8262 12.86 35.6883 12.8627 35.5644 12.8671C34.5638 12.9294 34.4359 12.9304 35.3546 12.6855C34.6847 12.7763 34.1806 12.8719 33.7327 12.9028C32.3123 12.973 31.2897 12.9378 29.4999 12.7294C29.4564 12.7149 29.4128 12.6996 29.3689 12.6834C29.4032 12.7141 29.4415 12.7438 29.4846 12.7727C29.8576 13.0004 31.0164 13.095 33.3414 12.9787C33.4543 13.0182 33.5098 13.0601 33.6272 13.098C30.191 13.0799 31.8856 13.0609 29.9424 13.0468C29.842 13.0398 29.6044 13.0239 29.4145 12.971C28.8782 12.804 28.2125 12.3727 27.9562 12.2429C27.8506 12.1887 27.8193 12.1909 27.9224 12.2946C27.9373 12.3086 27.9542 12.3243 27.974 12.3419C28.0991 12.4805 29.1855 13.0878 29.3558 13.1372C29.3737 13.1479 29.3762 13.1538 29.3552 13.1529C29.3544 13.1529 29.3529 13.1526 29.3506 13.152C29.261 13.1535 28.3602 12.7401 27.8627 12.3858C27.6624 12.2568 27.538 12.1233 27.5085 12.0873C27.2527 11.7595 27.2219 11.5608 27.2044 11.4808C27.1928 11.397 27.2247 11.4116 27.2519 11.4251C27.3004 11.4418 27.3652 11.512 27.0015 10.6873C26.8119 10.3283 26.6622 9.61322 26.4782 8.5006C26.4561 8.36925 26.4359 8.23542 26.4183 8.09704C26.3995 7.9368 26.3344 7.89011 26.31 7.57752C26.2865 6.9922 26.3452 6.98419 26.434 6.49368C26.4981 6.18043 26.6575 5.8391 26.988 5.48567C27.1476 5.29041 27.3787 5.12999 27.6405 5.02309C27.9969 4.88588 28.046 4.91817 27.8956 5.01161C27.7527 5.11008 27.3967 5.29456 27.1401 5.61424C26.4868 6.18959 26.4629 7.17151 26.4971 7.87684C26.5438 7.98022 26.5316 7.73547 26.555 7.28287C26.5975 6.80639 26.6177 6.26557 27.2357 5.69502C27.7177 5.15321 28.8234 4.86426 29.8451 4.74111C32.0745 4.51291 34.3436 4.71488 34.8847 4.73274C34.9242 4.73493 34.9543 4.73686 34.9748 4.73803C36.4752 4.91339 35.8368 4.78653 34.8881 4.68194C34.0162 4.61469 32.8885 4.58004 32.7716 4.5554C32.6682 4.53535 32.7201 4.2329 31.475 4.43373C31.1095 4.492 32.6439 4.54754 31.7292 4.58592C30.8178 4.63488 31.177 4.54757 31.1104 4.54199C30.8948 4.5257 30.0279 4.6142 29.8322 4.64069C29.8202 4.64181 29.8105 4.64253 29.8035 4.64277C28.957 4.67506 28.5146 4.7288 28.4964 4.67864C28.4776 4.638 28.903 4.48229 29.8115 4.47887C30.0405 4.47902 30.3032 4.49089 30.5937 4.51733C31.7103 4.35191 29.1205 4.39669 30.5153 4.22493C32.2277 4.04666 33.483 4.26371 33.696 4.27084C35.4165 4.40236 34.6661 4.30162 34.9152 4.28107C35.0378 4.27591 35.415 4.27893 36.4377 4.51753C38.0906 4.88361 34.1553 4.18604 37.353 4.80981C37.483 4.83089 37.6241 4.85566 37.7782 4.88454C38.4928 5.02513 38.984 5.11315 39.3071 5.12784C40.4294 5.218 39.3802 5.03856 39.5809 4.94267C39.6402 4.91654 41.298 5.06099 39.3303 4.85362C39.2267 4.84533 39.1128 4.83318 38.9876 4.81604C38.9136 4.84491 38.7747 4.87538 38.6117 4.88196C38.2681 4.80286 37.8078 4.62941 37.403 4.50463C37.1105 4.41206 36.8594 4.3219 36.7238 4.29156C35.669 4.04592 35.3272 4.04629 34.9337 4.00695C34.752 3.99022 34.555 3.96196 34.2533 3.90761C34.9212 4.07537 33.8269 3.93362 33.4128 3.95039C31.8745 4.03788 33.8967 4.00881 30.4411 3.98923C30.8969 4.0179 31.3039 4.06492 31.7374 4.12008C31.3262 4.12735 30.9149 4.14303 30.5046 4.17354C30.3375 4.14873 30.0543 4.14598 29.771 4.1621C29.0043 4.21479 28.2091 4.36266 29.6537 4.0049C28.1195 4.19091 27.1404 4.65098 26.6933 5.23655C26.4873 5.48828 26.3128 5.75378 26.2601 5.95471C26.2243 6.05843 26.0758 6.42473 26.0378 6.86317C26.0758 6.78196 26.1819 6.69404 26.1829 6.7625C26.1838 7.35454 26.1449 8.2786 26.0432 7.97513C26.0669 8.24342 26.0967 8.45435 26.1114 8.55897C26.113 8.57061 26.1144 8.5807 26.1156 8.58917C26.1544 8.86479 26.1097 8.70793 26.067 8.56603C26.0293 8.43738 25.9952 8.32373 26.0156 8.52387C26.0167 8.5339 26.0189 8.55059 26.0222 8.57316C26.0561 8.85809 26.298 10.1212 26.3021 10.1564C26.2578 10.2468 26.1492 9.86917 26.123 9.75679C26.1088 9.69987 26.1099 9.70894 26.1435 9.87338C26.1905 10.0416 26.2017 10.3485 26.4802 10.9623C26.666 11.2552 26.7454 12.0583 27.5686 12.6687C27.6679 12.6588 27.1382 12.2586 26.9386 11.7537C26.7346 11.267 26.635 10.9049 26.8054 11.1285C27.0401 11.4653 27.3232 12.1986 27.8131 12.4617C28.0197 12.5926 28.1981 12.6804 28.3083 12.6728C28.3797 12.7534 28.4056 12.7995 28.4655 12.8756C28.7968 13.0465 29.0807 13.1605 29.3184 13.2431C30.4128 13.4416 30.504 13.4868 30.9953 13.5543C31.5129 13.6098 32.8599 13.6478 33.7859 13.5643C34.7606 13.4582 35.2368 13.3685 33.7788 13.4771C33.499 13.4891 33.1459 13.4961 32.7139 13.4922C33.0647 13.478 33.4209 13.4589 33.7747 13.4257C34.1328 13.3923 34.4859 13.3382 34.8312 13.2854C34.9563 13.4628 34.827 13.4803 35.6055 13.4064C36.0245 13.3774 36.7383 13.3402 37.9055 13.351C38.5617 13.3611 38.8192 13.4671 39.3734 13.4094C39.4372 13.4028 39.5039 13.395 39.5779 13.3865C39.5277 13.4568 40.4756 13.6633 41.279 13.8802C41.4102 13.9044 41.6176 14.0041 41.656 14.0253C41.8593 14.1423 41.8888 14.1801 41.7815 14.1547C41.691 14.1389 41.3946 14.0129 41.2566 13.9988C40.5841 13.8763 39.9919 13.6305 39.3621 13.6028C38.6225 13.5521 37.9366 13.5205 37.7303 13.4322C36.9181 13.5436 36.9172 13.4054 36.0124 13.46C35.8638 13.4701 35.7288 13.4808 35.612 13.4924C34.9129 13.5678 34.5627 13.6635 33.7963 13.6937C33.5565 13.7019 33.2772 13.702 32.938 13.6908C32.3864 13.7494 32.9825 13.7784 33.7995 13.734C34.4757 13.6927 35.2372 13.5673 35.6174 13.5632C35.9344 13.5556 36.0228 13.5689 35.6221 13.6243C35.4045 13.6551 35.0468 13.7217 34.4452 13.8265C34.2703 13.8556 34.0599 13.8877 33.814 13.9144C32.7198 13.992 31.376 14.1698 29.1151 13.8184C28.532 13.626 27.9722 13.2944 27.4769 12.9756C26.7234 12.5634 26.3526 11.5108 26.1652 11.1285C25.7269 10.1874 25.6886 9.45649 25.533 8.65103C25.4412 8.08533 25.3682 7.49126 25.427 6.8221C25.4595 6.48647 25.5302 6.12487 25.7001 5.75987C25.8575 5.3995 26.1734 5.05733 26.3036 4.9071C27.3685 3.79371 28.5639 3.6683 29.6829 3.47454C31.5062 3.2565 33.2462 3.32476 34.9734 3.4197C35.9367 3.48306 36.765 3.72214 37.5126 3.835C38.2178 3.94514 38.857 4.11015 39.3901 4.14929C40.1453 4.2149 40.7811 4.32549 41.2767 4.2794C41.2624 4.28466 41.1155 4.27435 40.9209 4.46677C40.7397 4.67303 40.7655 4.80254 40.7656 4.74197C40.7693 4.75439 40.7548 4.64152 40.6371 4.50646C40.2183 4.00124 39.4678 3.6634 38.6969 3.29403C37.9551 2.93653 37.1582 2.78239 36.4628 2.70859C35.6503 2.61845 35.0247 2.46039 34.5447 2.35996C34.1407 2.27224 33.7597 2.19349 33.3954 2.13972C31.7626 1.98425 29.9446 2.04139 28.3264 1.9626C27.0074 1.91533 25.9743 1.94459 24.8359 2.36231C25.0167 2.29251 24.9447 2.27306 24.8158 2.48708C24.8526 2.41113 24.7713 2.6132 24.7534 2.78403C24.7262 2.96656 24.7115 3.17503 24.7059 3.38596C24.6953 3.80725 24.7166 4.25801 24.7686 4.65513C24.8462 5.41634 24.8641 6.0233 24.6036 6.88948C24.2267 7.85199 23.5937 8.2971 23.0068 8.70142C21.0387 9.78026 19.3156 9.40151 17.6194 9.32001C16.5047 9.21886 15.5854 8.74778 14.7585 8.22288C14.3465 7.9605 14.2035 7.53414 14.1629 7.31053C14.1176 7.07077 14.1259 6.89844 14.1244 6.79858C14.119 6.53163 14.2346 6.25956 14.349 6.10929C14.4691 5.9466 14.5783 5.86385 14.6678 5.79992C14.8495 5.67633 14.9813 5.62653 15.0991 5.58164C15.3328 5.49762 15.518 5.45841 15.7015 5.42198C16.0637 5.3531 16.397 5.31583 16.7308 5.28218C16.9688 5.25579 17.5777 5.21183 18.2718 5.14782C18.3773 5.13417 18.4343 5.11888 18.5654 5.02135C18.6943 4.92479 18.8708 4.72676 19.0916 4.47266C19.1286 4.46429 19.2176 4.19855 19.2392 3.82266C19.2661 3.45788 19.268 3.06321 19.2714 2.71759C19.2774 2.73629 19.2628 2.87654 19.4304 3.08518C19.6059 3.28793 19.8037 3.30366 19.6665 3.26597C19.4686 3.18967 19.2126 3.15886 19.1112 3.13587C19.0034 3.11419 19.0276 3.09107 19.2264 3.08073C19.2735 3.07833 19.5192 3.08952 19.708 3.13919C19.8457 3.1744 19.6558 3.14416 19.5295 2.97105C19.4115 2.79922 19.4371 2.71814 19.4362 2.71561C19.4727 3.34502 19.5165 3.80033 19.5773 2.71392C19.5843 2.70663 19.5711 2.73084 19.6358 2.8382C19.7007 2.95602 19.8879 3.00913 19.7854 2.97012C19.8617 3.00943 19.7542 2.97899 19.7706 2.99648C19.7636 3.00885 19.8552 3.05068 19.7455 3.02462C19.5571 2.97867 18.8687 2.97011 18.7821 2.98608C17.6046 3.10518 17.1699 3.28987 16.7725 3.39087C16.767 3.40224 16.5228 3.49739 16.3006 3.57455C16.0651 3.65635 15.7732 3.74822 15.3642 3.86462C14.8044 4.02387 14.0251 4.23241 12.8635 4.53529ZM8.16277 8.7126C7.60969 8.92011 7.1624 9.13483 6.78562 9.32308C5.76063 9.80167 5.16286 9.83899 4.8607 9.86179C4.55613 9.86783 4.61589 9.88651 4.80378 9.92136C5.17334 9.99085 5.93852 9.90382 5.22609 10.1439C5.86315 10.0539 6.37381 9.88114 6.93197 9.61314C7.21419 9.47107 7.49462 9.33715 7.7762 9.215C7.58056 9.28329 7.38738 9.35604 7.19067 9.43441C7.18984 9.43481 7.18902 9.43521 7.1882 9.43561C7.50378 9.18108 7.82557 8.93832 8.16277 8.7126ZM20.2913 46.7784C20.5314 46.7127 20.764 46.6441 21.0109 46.5648C21.3691 46.5007 21.7172 46.4196 22.0229 46.3087C22.3342 46.1929 22.7031 45.9618 22.9757 45.7114C22.9309 45.7837 22.8837 45.8539 22.8302 45.9246C22.592 46.1143 22.302 46.2882 22.0518 46.3849C21.5298 46.5804 20.9152 46.6904 20.2913 46.7784ZM26.6534 8.75318C26.7558 9.74085 26.8308 9.88536 27.1249 10.6222C27.2261 10.815 27.3019 11.0395 27.3915 11.2756C27.4241 11.0587 27.4621 10.8178 27.4498 10.5285C27.4393 10.5082 27.4286 10.4879 27.4177 10.4678C27.1227 9.79467 27.0569 9.31989 26.9128 8.43142C26.8927 8.29546 26.8749 8.15255 26.8609 7.99155C26.839 8.13981 26.8212 8.29135 26.8066 8.44326C26.8069 8.4449 26.8073 8.44653 26.8076 8.44817C26.8502 8.66472 26.8965 8.89294 26.9395 9.0982C26.9138 9.28821 26.7923 8.76854 26.7118 8.46342C26.6571 8.2578 26.6189 8.15872 26.6324 8.47605C26.6362 8.54665 26.6426 8.63611 26.6525 8.74907C26.6528 8.75044 26.6531 8.75181 26.6534 8.75318ZM36.1184 12.682C36.6732 12.665 38.573 12.6745 39.4137 12.7189C39.5899 12.7263 39.7197 12.7376 39.7837 12.7377C40.1035 12.7482 39.8772 12.6686 39.4194 12.6217C38.1029 12.5018 34.9042 12.583 39.0339 12.4766C39.0095 12.4524 39.0355 12.4305 39.0363 12.4074C38.0237 12.3675 37.0395 12.3751 36.0271 12.4107C36.0863 12.5001 36.0538 12.5923 36.1184 12.682ZM20.7018 3.4795C20.6417 3.79402 20.8542 4.52958 20.2012 5.43781C19.8471 5.89011 19.1887 6.60788 18.4244 6.6597C17.5493 6.77013 17.0788 6.8431 17.7425 6.83494C17.8679 6.83271 18.1144 6.8093 18.4351 6.76593C19.2417 6.71515 19.9358 5.91465 20.2524 5.48235C20.5991 5.05591 20.6507 4.6141 20.6949 4.37166C20.7603 3.7883 20.813 4.42148 20.8179 3.32279C20.781 3.37066 20.7405 3.39833 20.702 3.48243C20.7019 3.48145 20.7018 3.48048 20.7018 3.4795ZM19.3218 2.25128C19.5368 2.26783 19.7539 2.29941 19.9619 2.36363C20.1222 2.38363 20.2515 2.54129 20.2395 2.70597C20.246 3.37693 20.3089 4.06162 20.1089 4.72572C20.3773 4.19156 20.3262 3.20928 20.3655 2.70446C20.404 2.47604 20.2042 2.26172 20.1877 2.23194C20.3851 2.32447 20.4504 2.57075 20.4491 2.70345C20.4573 2.87669 20.4645 3.05038 20.4697 3.22612C20.4395 3.4477 20.4062 3.66697 20.3636 3.88532C20.3676 4.26447 20.3609 4.40263 20.3448 4.55123C20.3146 4.69273 20.3304 4.88679 20.0187 5.27911C19.9012 5.41128 19.7565 5.59115 19.5213 5.81389C19.7708 5.64806 19.9468 5.50537 20.1179 5.36535C20.6542 4.87053 20.7299 4.10835 20.629 2.70129C20.6207 2.58825 20.6099 2.43424 20.483 2.2599C20.3534 2.08004 20.1263 2.02442 20.0762 2.01453C19.9308 1.97577 19.782 1.95149 19.6295 1.93693C20.2931 2.00115 19.6427 1.29973 17.9662 1.71981C17.6579 1.78663 18.9655 1.72606 18.9881 1.75949C19.1871 1.85187 18.4614 1.91365 18.6795 2.00001C18.7738 2.02483 19.5618 2.06134 19.6694 2.15703C19.7135 2.17816 18.98 2.18407 19.3218 2.25128ZM17.1822 1.91128C17.3817 1.84619 17.0127 1.8307 16.4788 1.89769C16.218 1.94318 16.0898 1.99124 15.9148 2.03753C15.7461 2.0851 15.5735 2.13534 15.403 2.18937C14.3037 2.52752 15.4372 2.31609 16.5031 2.02164C16.7589 1.9792 17.0025 1.94095 17.1822 1.91128ZM20.2858 46.7793C20.2877 46.779 20.2895 46.7787 20.2913 46.7784C20.2904 46.7786 20.2895 46.7789 20.2886 46.7791C20.2877 46.7792 20.2868 46.7792 20.2858 46.7793ZM32.7619 12.9052C33.0615 12.8796 33.4188 12.8545 33.726 12.8192C34.189 12.765 34.5763 12.6884 34.5203 12.6514C34.8458 12.6211 35.1886 12.5849 35.5418 12.5712C35.5887 12.5694 35.6371 12.568 35.6852 12.5667C35.68 12.5442 35.671 12.5218 35.6658 12.4995C35.6235 12.5017 35.5788 12.5042 35.5369 12.5069C34.8791 12.5511 34.2857 12.6586 33.7159 12.6939C33.2641 12.7237 32.7962 12.7309 32.3294 12.7276C32.4683 12.7879 32.5969 12.8477 32.7619 12.9052ZM43.5848 12.8278C43.4193 11.4351 43.4634 12.6091 43.3754 12.3127C43.3193 12.0587 43.1389 11.2543 43.0215 11.0921C43.0029 11.0611 42.991 11.0541 42.9882 11.0786C42.9911 11.0861 42.9939 11.0937 42.9967 11.1014C43.2205 11.6761 43.2845 12.2377 43.3664 12.9593C43.3791 13.0585 43.377 13.1772 43.3625 13.2542C43.442 13.1727 43.5088 13.0581 43.5583 12.9343C43.5671 12.8986 43.5759 12.8627 43.5845 12.825C43.5846 12.8259 43.5847 12.8269 43.5848 12.8278ZM13.2991 15.4626C13.7547 15.3587 13.8706 15.3434 14.0817 15.2704C14.27 15.1802 14.6279 15.1103 14.9362 14.4431C14.9357 14.4441 14.9352 14.4451 14.9347 14.4461C14.6071 15.1045 13.8689 15.2781 12.7191 15.543C11.8842 15.7875 11.1097 15.8039 10.1184 15.9169C9.9972 15.9363 9.87583 15.9543 9.75452 15.9715C9.88129 15.9667 10.0036 15.9592 10.1227 15.9489C11.1195 15.8916 11.7721 15.8759 12.7359 15.6006C12.9233 15.5479 13.1114 15.5052 13.2991 15.4626ZM27.1727 5.96167C27.2832 5.80461 26.9862 6.02765 26.8384 6.32305C26.6712 6.63158 26.649 7.16439 26.6824 7.35009C26.7399 7.65927 26.7483 7.34926 26.8002 6.95061C26.8503 6.52588 27.0093 6.19682 27.1727 5.96167ZM20.2639 19.6914C20.2908 21.1963 20.878 18.3979 20.6456 15.4601C20.6379 15.2081 20.616 17.1034 20.5673 16.5426C20.5666 16.4862 20.5472 15.449 20.498 15.1922C20.4663 15.0058 20.4341 15.0997 20.3979 15.0059C20.384 14.97 20.3696 14.908 20.3525 14.794C20.2925 14.4044 20.2406 13.7332 20.0044 13.1506C19.82 12.6685 19.702 12.1764 19.5426 11.9599C19.5389 11.8919 19.7931 12.8899 19.8097 12.9537C19.8344 13.0359 19.8617 13.1172 19.8923 13.1969C20.1799 13.9588 20.2585 14.7265 20.3088 15.0126C20.3152 15.0581 20.3194 15.0925 20.3209 15.1133C20.3728 15.9526 20.2716 15.829 20.2599 16.0409C20.2339 16.4404 20.2701 17.1432 20.2661 17.1928C20.1818 18.4628 20.2261 15.5577 20.1359 15.1756C20.1279 15.1197 20.1201 15.0708 20.1124 15.0274C20.0486 14.6655 20.0076 14.6251 19.9588 14.4688C19.897 14.3201 19.8895 14.0198 19.6016 13.3169C19.5256 13.1458 19.4553 12.9496 19.3838 12.741C19.3486 12.638 19.1837 12.1065 19.0055 11.9453C18.814 11.737 18.7204 11.6487 18.9782 11.9691C19.1034 12.1077 19.2016 12.4276 19.4698 13.2784C19.203 12.5861 19.0759 12.1805 18.9042 12.0336C17.9988 11.1237 18.2044 11.369 18.8468 12.0835C19.0141 12.2419 19.1262 12.7339 19.3876 13.4052C19.5842 13.863 19.6639 14.4528 19.714 15.0574C19.8113 16.2996 19.793 17.4642 19.8017 17.7983C19.8099 18.3296 19.9095 17.5276 19.939 17.8501C20.0141 18.5915 19.9444 19.8416 20.0645 19.7387C20.3442 19.5206 20.2646 17.8432 20.2929 16.7008C20.3473 16.8206 20.4003 16.8666 20.4522 17.0905C20.399 16.747 20.2903 19.5888 20.2634 19.6913C20.2636 19.6913 20.2638 19.6913 20.2639 19.6914ZM10.5457 8.41606C10.1152 8.42384 9.80459 8.45308 9.58727 8.49991C8.99485 8.6604 8.79904 8.79394 7.84706 9.20835C6.8133 9.9371 8.98543 8.73179 9.26876 8.73935C9.40143 8.7017 9.51931 8.67672 9.62017 8.66287C10.4952 8.5924 10.6497 8.71124 11.8478 8.64424C11.3804 8.55739 10.9933 8.47898 10.5457 8.41606ZM19.9871 15.5821C19.8569 14.534 19.9462 16.4161 19.9173 16.4969C19.8428 16.8921 19.8149 15.8407 19.7635 15.0537C19.7031 14.2558 19.6842 13.6856 19.9218 15.0417C19.9441 15.1939 19.9662 15.374 19.9871 15.5821ZM15.7365 6.59052C15.4847 6.65102 15.458 6.69388 15.4337 6.72536C15.4224 6.74217 15.4141 6.75833 15.3921 6.78239C15.375 6.79719 15.3307 6.86576 15.3639 6.82125C15.3669 6.81427 15.3693 6.80435 15.3697 6.79512C15.3658 6.94428 15.3996 7.18287 15.4315 7.17507C15.9481 7.53238 16.627 7.84385 16.615 7.79776L15.4332 7.17243C15.4588 7.13258 15.5251 7.02923 15.5395 7.00686L16.6617 7.6044C16.585 7.54395 16.622 7.53761 16.59 7.49785C16.2458 7.34865 15.9082 7.15914 15.5783 6.94653C15.7309 7.10323 15.6184 7.01777 15.6419 6.79436C15.6445 6.91306 15.5754 7.01008 15.5533 7.02906C15.5277 7.05377 15.532 7.04553 15.5479 7.03805C15.5815 7.01993 15.6546 6.9929 15.7322 6.97149C15.65 6.97658 15.5712 6.98684 15.5239 6.99242C15.4599 6.99738 15.5335 6.99762 15.5383 6.79465C15.4908 7.01768 15.5049 7.13481 15.4632 7.12569C15.4868 7.14752 15.5115 7.16984 15.5353 7.19132C15.5052 7.17766 15.4754 7.16313 15.4481 7.14919C15.4322 7.17658 15.3907 7.06169 15.4014 6.97617C15.4064 6.88854 15.4246 6.81939 15.4279 6.79495C15.4284 6.79789 15.4287 6.80012 15.4286 6.80151C15.4285 6.8015 15.4284 6.8015 15.4284 6.8015C15.3975 6.92974 15.3862 6.86386 15.4619 6.83327C15.528 6.79642 15.6182 6.76127 15.7054 6.73117C15.8795 6.67131 16.0488 6.62558 16.1526 6.59075C16.3653 6.52742 16.3173 6.47496 15.7365 6.59052ZM11.8796 12.7308C11.7471 12.9565 12.9357 12.5514 13.3131 12.2915C13.5169 12.1828 13.7373 12.0467 13.8388 11.9431C13.9414 11.8397 13.9532 11.791 13.8835 11.8283C13.6032 12.2826 11.8656 12.7554 11.8796 12.731C11.8796 12.731 11.8796 12.7309 11.8796 12.7308ZM4.26353 13.2166C4.04703 14.1243 4.07533 14.3122 4.16503 14.7912C4.23946 15.0128 4.29237 15.2504 4.54256 15.4648C4.53184 15.3985 4.53025 15.3336 4.53537 15.2736C4.39259 15.1237 4.32692 14.9459 4.25309 14.7627C4.13951 14.4041 4.0522 14.1067 4.39876 13.1182C4.49196 12.9021 4.38992 13.3975 4.76484 12.4117C4.5856 12.6682 4.41239 12.9393 4.26353 13.2166ZM8.01423 16.2882C7.37261 16.3408 6.68541 16.2378 6.53425 16.2787C6.36943 16.2736 6.76467 16.6045 8.07551 16.4961C8.08455 16.4946 8.09361 16.4931 8.10268 16.4916C8.51521 16.4242 9.15477 16.1759 8.05299 16.2844C8.04052 16.2857 8.02761 16.287 8.01423 16.2882ZM13.3215 3.24214C15.8623 2.58382 12.9645 3.28692 12.2874 3.40176C18.1848 1.80393 11.6264 3.59584 10.9849 3.55988C10.8534 3.60446 10.6997 3.65731 10.5476 3.7113C9.86781 3.95466 9.22547 4.24154 10.4639 3.91399C10.5105 3.90264 10.5532 3.89204 10.5922 3.88219C11.0611 3.76386 10.855 3.76751 10.89 3.7586C12.0489 3.47178 11.9327 3.59873 13.3215 3.24214ZM13.2875 8.41123C13.2666 8.40986 13.2575 8.41292 13.2525 8.41815C13.2351 8.43642 13.2687 8.47791 13.0325 8.47158C12.7284 8.46037 12.0252 8.40733 11.9554 8.44899C11.9027 8.47897 12.6853 8.49814 13.2413 8.5474C13.4153 8.56169 13.5656 8.58636 13.6631 8.6008C14.0474 8.68415 14.1166 8.51125 13.2875 8.41123ZM4.64175 11.8722C4.30593 12.6353 4.63909 12.143 4.98737 11.6824C5.17247 11.4417 5.39875 11.2241 5.4607 11.1533C6.81563 9.85771 5.31133 10.9309 4.85515 11.6056C4.73014 11.776 4.64871 11.8927 4.64175 11.8722ZM7.80362 5.62696C8.04668 5.43816 8.25216 5.28526 8.4166 5.17555C9.40611 4.55907 9.08565 4.60436 8.28499 4.94522C7.79773 5.16524 7.19036 5.56068 6.62776 5.94654C6.43661 6.12906 6.24167 6.31818 6.05769 6.50164C6.05763 6.5017 6.05756 6.50176 6.0575 6.50182C6.05756 6.50176 6.05762 6.50169 6.05768 6.50163C6.78711 5.73167 8.1082 4.54127 5.92555 6.34053C5.62806 6.59547 5.30217 6.92502 4.93483 7.33554C6.82397 5.55085 5.27167 7.08517 5.27686 7.10666C5.28036 7.26112 5.63966 6.93959 6.12395 6.58242C6.91323 5.99821 7.98657 5.25466 7.80135 5.62859C7.8021 5.62805 7.80286 5.6275 7.80362 5.62696ZM17.0322 10.0533C17.5818 10.4075 18.5091 11.267 19.0767 11.8833C19.2969 12.119 19.3962 12.423 19.4551 12.5148C19.5074 12.6146 19.5175 12.5065 19.3933 12.1418C19.3266 12.0176 19.2493 11.9057 19.1576 11.8129C18.5063 11.1522 17.7931 10.5176 17.0322 10.0533ZM39.5577 2.97944C40.1376 3.31649 40.6796 3.63995 41.0865 4.13497C41.2537 4.33933 41.3676 4.58892 41.3373 4.8161C41.3311 4.88454 41.3134 4.89588 41.3389 4.86307C41.3699 4.8343 41.3688 4.85061 41.322 4.85318C41.3059 4.85451 41.2897 4.85572 41.2734 4.85681C41.2902 4.85724 41.3065 4.85756 41.3223 4.85777C41.3917 4.85795 41.3582 4.86633 41.3552 4.89188C41.3577 4.90857 41.379 4.8641 41.3894 4.82284C41.4293 4.65964 41.4473 4.69953 41.4498 4.83068C41.4319 4.96934 41.467 4.95653 41.3328 4.9902C41.3178 4.99224 41.3033 4.99416 41.2891 4.99599C41.0442 5.02221 41.1357 5.0297 41.3353 5.02186C41.456 5.00889 41.4918 5.00261 41.5133 4.83891C41.5408 4.65289 41.484 4.48918 41.4873 4.48801C41.5358 4.48362 41.5981 4.6657 41.6109 4.69006C41.6023 4.72749 41.7353 4.51081 41.3115 3.94893C41.1988 3.81212 41.0497 3.65887 40.8516 3.49963C41.0277 3.62452 41.1934 3.76461 41.3421 3.92361C41.5687 4.16623 41.7552 4.49277 41.7285 4.86682C41.7279 4.87495 41.7273 4.88322 41.7266 4.89165C41.7278 4.88327 41.7289 4.87505 41.73 4.86701C41.7793 4.4263 41.5735 4.10346 41.3997 3.87599C40.7734 3.14624 40.3563 2.92464 39.6381 2.48886C40.2467 2.94323 39.8392 2.71073 39.1432 2.38652C38.8365 2.23919 38.4588 2.10366 38.0819 2.02485C37.6177 1.93941 38.4371 2.2611 39.0149 2.64729C39.2312 2.78546 39.4323 2.90619 39.5615 2.98131C39.5602 2.98069 39.559 2.98006 39.5577 2.97944ZM10.6966 4.37977C10.7043 4.37687 10.712 4.37396 10.7197 4.37105C11.0171 4.25835 11.2862 4.14197 11.5751 4.02748C11.906 3.9377 12.239 3.84784 12.5703 3.75777C12.6192 3.77639 12.6614 3.79818 12.7167 3.8139C13.1572 3.70825 12.9757 3.71188 13.1049 3.67408C13.105 3.67424 13.105 3.6744 13.105 3.67456C13.9608 3.42433 14.5859 3.2467 15.1547 3.09541C15.6517 2.96673 16.152 2.82214 16.6386 2.71018C16.8094 2.686 16.9899 2.66336 17.1814 2.64378C17.1662 2.55215 17.1509 2.46051 17.1357 2.36887C16.955 2.40375 16.7731 2.44197 16.5937 2.48207C16.4396 2.51834 16.2955 2.57887 16.1473 2.62769C15.9898 2.72953 15.8298 2.82919 15.6691 2.92733C15.4906 2.96554 15.3165 3.0009 15.1386 3.03636C14.9311 3.07745 14.7204 3.11849 14.5108 3.15884C14.2112 3.25717 13.8495 3.37189 13.5904 3.45789C12.3467 3.57181 14.2346 3.14906 15.1007 2.89728C15.34 2.82793 15.4986 2.7722 15.4998 2.7478C15.4987 2.73249 15.3409 2.76569 15.0817 2.8275C14.1475 3.05118 11.9285 3.63566 11.5456 3.77408C11.4753 3.79958 12.2748 3.79165 10.9783 4.02434C10.8853 4.04105 10.7997 3.96929 10.6104 3.95184C10.3854 3.93509 9.99729 3.97796 9.32319 4.41493C9.15444 4.52973 9.89204 4.52042 10.6966 4.37977ZM19.1999 5.19418C19.546 4.90379 19.5434 4.95051 19.3545 5.18983C19.1668 5.42307 18.8061 5.80373 18.3407 5.8307C17.0726 5.92794 15.7578 6.0287 17.4812 5.98831C16.5739 6.19076 16.7471 6.17124 17.6767 6.20355C17.7579 6.20651 17.1253 6.29285 17.1797 6.29311C17.5824 6.28582 18.0241 6.2621 18.3818 6.23773C18.8247 6.20802 19.1073 6.00945 19.1423 6.06211C19.358 5.91505 19.5226 5.74444 19.681 5.56354C19.1399 6.00597 19.5063 5.59649 19.8326 5.11719C19.9949 4.89749 20.0521 4.61858 20.0616 4.4354C20.0784 4.17408 19.9322 4.74799 19.9506 4.52985C19.9852 4.46575 20.081 3.62096 20.0346 3.58022C19.9943 3.54189 19.946 3.6602 19.8858 3.88963C19.8231 4.10997 19.7542 4.48557 19.5763 4.72365C19.5762 4.72361 19.5761 4.72357 19.576 4.72353C19.5548 4.7618 19.5312 4.79703 19.5038 4.8312C19.3981 4.95905 19.2999 5.0814 19.1999 5.19418ZM12.8166 10.1352C13.0055 10.1828 13.4381 10.2095 13.4963 10.2469C13.5251 10.2654 13.4605 10.2821 13.2239 10.3119C13.0033 10.3642 12.5325 10.3115 12.0155 10.6823C12.133 10.6295 12.2553 10.5983 12.3761 10.5865C12.7602 10.4546 13.2001 10.4432 13.6457 10.425C13.8655 10.3479 14.1158 10.2991 14.3773 10.2698C14.8048 10.2018 15.1545 10.5801 15.3597 10.838C15.6358 11.1678 15.6754 11.5102 15.7015 11.6057C15.7119 11.7058 15.7584 11.5909 15.6271 11.1069C15.6088 11.0472 15.5252 10.9001 15.4219 10.7825C15.2538 10.5838 15.1023 10.4111 15.4627 10.7461C15.503 10.7843 15.5468 10.8298 15.5933 10.8861C15.5925 10.8847 15.5916 10.8834 15.5908 10.882C15.5525 10.8299 15.5129 10.7823 15.4718 10.738C15.1584 10.3532 14.7344 10.0765 14.3772 10.1123C13.9064 10.1304 13.5557 10.109 12.8166 10.1352ZM14.6099 9.28594C14.3832 8.52812 14.1644 8.44261 14.2364 8.59377C14.3023 8.74796 14.412 9.22295 14.5208 9.83823C14.6717 10.4987 14.5111 11.3197 14.3221 11.878C14.2204 12.1693 13.9974 12.3368 13.9063 12.4226C13.8069 12.5062 13.8145 12.5212 13.9769 12.4167C13.9939 12.3955 14.2485 12.2498 14.3864 11.9012C14.6098 11.3182 14.7556 10.3898 14.6292 9.81496C14.5701 9.45234 14.554 9.22027 14.6099 9.28594ZM5.40814 16.6025C6.88709 17.112 7.05819 16.8623 6.90595 16.7962C6.76046 16.7254 5.72866 16.4945 5.6061 16.4269C5.19908 16.2493 6.09111 16.5412 5.56405 16.3107C5.49973 16.2821 5.12057 16.1341 4.67936 15.9233C4.24226 15.7501 3.94253 15.2735 3.85723 14.891C3.76992 14.5784 3.80468 14.3359 3.79942 14.3027C3.80912 13.6302 3.60154 14.6084 3.60312 14.4211C3.5409 13.7401 3.90395 12.9313 3.89788 12.7359C3.87182 12.2956 3.51411 13.9119 3.56618 14.2105C3.54708 14.5839 3.57471 14.7967 3.60896 14.9714C3.65348 15.1625 3.63355 15.3188 3.87259 15.6756C4.07568 15.9523 4.33052 16.1002 4.55672 16.1981C4.80817 16.305 5.0481 16.3963 5.32779 16.5047C5.49693 16.5694 5.33444 16.5749 5.40814 16.6025ZM10.4465 16.5076C10.3418 16.5251 10.2624 16.543 10.2051 16.5595C10.0222 16.6106 10.0523 16.634 10.2157 16.6379C10.6557 16.6657 12.3205 16.6235 12.9621 16.3784C13.0615 16.3499 13.1389 16.3286 13.1823 16.3141C13.7159 16.1428 13.4494 16.1422 12.9202 16.2344C12.1747 16.4143 10.8792 16.447 10.4465 16.5076ZM18.3751 2.26298C17.3568 2.45455 18.787 2.19529 19.9118 2.51666C20.0796 2.57226 20.0504 2.57139 20.0677 2.70803C20.0711 3.03152 20.0731 3.31633 20.0759 3.50418C20.0915 3.44153 20.1214 3.12102 20.1402 2.70716C20.1485 2.56794 20.111 2.47326 19.9414 2.42621C19.3452 2.20336 18.6217 2.23508 18.3751 2.26298ZM7.10754 6.14743C7.99379 5.44711 6.98914 5.98842 6.15563 6.62104C6.02046 6.72317 5.89279 6.83251 5.78006 6.93837C5.44498 7.43863 5.74854 7.09786 6.22166 6.70156C6.26912 6.66278 6.31915 6.62228 6.36945 6.58211C6.9339 6.13706 6.31449 6.79924 7.10754 6.14743ZM14.1355 8.09324C14.0673 8.0725 13.7328 7.96744 13.2939 7.94115C11.9798 7.85949 9.83811 8.06396 11.844 8.03487C11.9298 8.03768 12.5633 8.02126 13.2822 8.07535C14.0518 8.11698 14.8191 8.53312 15.207 8.61541C15.3302 8.64821 15.4134 8.67527 15.4461 8.68387C15.6858 8.75466 15.5433 8.65591 15.2296 8.53729C14.939 8.43352 14.5108 8.21263 14.1355 8.09324ZM5.80985 8.74148C5.23067 9.0724 4.59694 9.07462 5.19977 9.15871C5.20064 9.15857 5.20151 9.15843 5.20239 9.15829C4.65868 9.27203 4.30869 9.10252 4.30038 8.94334C4.29332 8.89292 4.3286 8.83187 4.35341 8.83672C4.37744 8.8483 4.50904 8.79876 4.63505 8.70007C4.70592 8.65394 4.7648 8.60932 4.8229 8.54199C5.6954 7.54591 4.70055 8.33735 5.21711 7.68056C4.85608 8.09091 4.62807 8.35567 4.45464 8.53988C4.32236 8.6715 4.23959 8.71419 4.20992 8.76222C4.16644 8.82506 4.14979 8.91859 4.17811 9.00435C4.22662 9.16561 4.45473 9.35679 4.96228 9.32329C5.23985 9.33645 6.1764 9.00883 6.50508 8.76708C6.57463 8.72176 6.62197 8.68843 6.64776 8.66668C6.71878 8.60578 6.61246 8.60767 6.44144 8.64095C6.26222 8.67057 5.98967 8.71597 5.80985 8.74148ZM19.6106 11.6952C19.5735 11.6366 19.5322 11.5798 19.4868 11.5261C18.4937 10.3812 17.43 9.70456 18.9142 11.1679C19.0758 11.3413 19.2288 11.5013 19.3608 11.6359C19.5991 11.8873 19.7038 12.1118 19.7598 12.1506C19.8045 12.194 19.8254 12.0636 19.6106 11.6952ZM38.3735 13.3196C38.139 13.2668 37.8957 13.2167 37.6412 13.1689C38.2129 13.153 38.7852 13.1442 39.3549 13.1624C38.9044 13.1537 38.4523 13.1629 37.997 13.1779C39.0703 13.2015 39.55 13.3172 38.3763 13.3196C38.3753 13.3196 38.3744 13.3196 38.3735 13.3196ZM29.6531 10.9035C29.2935 11.2647 28.9502 12.2201 29.0276 12.1118C29.5142 11.3134 30.1352 10.4105 29.6531 10.9035ZM19.7534 2.76691C19.7279 4.25631 19.9154 3.61756 19.9711 2.70919C19.9769 2.65822 19.9672 2.62582 19.972 2.62986C19.9795 2.63349 19.98 2.62086 19.8871 2.59229C19.8845 2.59139 19.8819 2.59049 19.8793 2.58961C19.8819 2.59067 19.8844 2.59173 19.8869 2.59278C20.0375 2.65517 19.9391 2.64548 19.938 2.66322C19.9189 2.67702 19.9158 2.71108 19.9107 2.73686C19.9039 2.7621 19.8894 2.78268 19.884 2.80149C19.8801 2.80882 19.8615 2.81763 19.8126 2.77764C19.7606 2.73546 19.7521 2.66583 19.7536 2.7118C19.7535 2.72956 19.7534 2.74794 19.7534 2.76691ZM29.5278 7.0733C29.5965 6.85408 29.7216 6.68303 29.8685 6.53396C29.6474 6.78026 29.5747 7.00928 29.5473 7.10801C29.5218 7.21016 29.5137 7.18791 29.5278 7.0733ZM13.4019 7.71958C13.3814 7.71609 13.3521 7.71179 13.3142 7.70726C12.8289 7.62416 11.0256 7.63303 10.767 7.68228C10.1954 7.76209 11.7959 7.79823 12.7387 7.80663C12.8005 7.80586 13.1187 7.78192 13.3092 7.76421C13.4456 7.75267 13.5208 7.74132 13.3971 7.71907C13.3987 7.71924 13.4003 7.71941 13.4019 7.71958ZM40.6515 13.7032C40.6492 13.7 40.6514 13.6984 40.6575 13.6982C40.6549 13.6996 40.6547 13.7019 40.6515 13.7032ZM32.5528 48.3967C32.561 48.3905 32.5668 48.3881 32.5693 48.3909C32.5644 48.3922 32.5574 48.3966 32.5528 48.3967ZM3.88682 16.1621C4.00317 16.3202 4.18881 16.4729 4.38535 16.5822C5.03433 16.971 5.90373 17.1618 4.95372 16.7112C4.91733 16.6933 4.66444 16.5945 4.42621 16.4906C4.19323 16.3932 3.96663 16.2341 3.88682 16.1621Z" fill="#E8E8E8"/>
</svg>
