<svg width="48" height="66" viewBox="0 0 48 66" fill="none" xmlns="http://www.w3.org/2000/svg">
<path d="M19.2196 49.2424C18.9353 48.8716 18.714 48.5079 18.5041 48.162C18.2341 47.7298 17.883 47.0602 17.7846 46.417C17.7023 45.8181 17.645 45.2462 18.1673 44.4676C18.6942 43.7519 19.5347 43.2899 20.161 43.0021C21.4542 42.5034 22.3607 42.6467 23.4056 42.7969C24.5169 43.0938 24.7636 43.7034 25.1078 43.9964C25.7135 44.6624 25.6917 45.3251 25.7897 45.4828C25.7717 45.4322 25.736 45.3889 25.7332 45.3873C25.7171 45.3783 25.6975 45.3251 25.4905 45.2368C25.3882 45.1957 25.2076 45.1601 25.0269 45.1945C24.8457 45.2268 24.7106 45.3115 24.6363 45.3728C24.9108 45.1822 25.1136 44.6148 25.7724 43.8598C26.5074 43.156 27.1427 42.8194 27.9588 42.4613C28.5712 42.2064 29.3494 41.9848 30.0352 41.9346C30.6637 41.8869 31.1671 41.9476 31.7917 42.2141C32.6446 42.659 32.7886 43.3009 32.9609 43.6313C33.135 44.0211 33.3216 44.5382 33.3707 45.0646C33.419 45.5842 33.401 46.0746 33.2375 46.6367C32.9912 47.2902 32.7509 47.4581 32.5043 47.7354C32.2561 47.9852 31.9996 48.2012 31.7057 48.4036C31.1593 48.7679 30.6357 48.865 30.2009 48.94C29.748 49.0137 29.2556 49.1493 28.6527 49.2584C28.2027 49.3399 27.6682 49.427 27.1836 49.4866C26.1289 49.6227 24.9079 49.7011 23.8137 49.515C23.3309 49.4565 22.7267 49.3895 22.1514 49.2458C21.1505 49.0198 20.1448 48.4567 19.4139 47.765C18.6188 47.0104 18.4651 46.067 18.3202 45.4802C18.0724 44.2145 18.089 43.2474 18.0851 42.1605C18.0744 41.405 18.3317 40.5094 18.6571 39.918C18.9425 39.361 19.2477 38.9484 19.5931 38.522C20.0282 37.9619 20.7245 37.4888 21.1456 37.2137C21.6965 36.8102 22.4509 36.5795 23.0163 36.4862C23.4655 36.407 23.9344 36.346 24.4812 36.3902C24.7534 36.4138 25.0519 36.4705 25.3494 36.59C25.6287 36.6954 25.9701 36.9281 25.9254 36.8966C26.5089 37.179 26.8353 37.4959 27.151 37.717C27.3868 37.8907 27.5479 38.0552 27.6675 38.1615C27.7829 38.2724 27.8622 38.2991 27.7735 38.2648C27.8096 38.2741 27.8057 38.2731 27.8317 38.2688C27.7901 38.2763 27.6834 38.3287 27.626 38.3953C27.5667 38.4609 27.5623 38.4968 27.5692 38.4747C27.5913 38.4255 27.6065 38.2526 27.6863 37.9114C27.669 37.9861 27.6761 37.9803 27.6758 37.9572C27.6763 37.9441 27.6767 37.9252 27.6772 37.8912C27.6776 37.8737 27.6778 37.8532 27.6795 37.8175C27.6872 37.7678 27.6643 37.7755 27.7281 37.5315C27.7456 37.4786 27.7585 37.4348 27.8096 37.3375C27.8379 37.2855 27.8756 37.2247 27.9341 37.1564C28.0059 37.072 28.1321 36.9568 28.31 36.8834C28.5094 36.7933 28.789 36.7932 28.9408 36.8389C29.0973 36.8783 29.2212 36.9559 29.2746 36.9947C29.399 37.0859 29.4462 37.1485 29.4827 37.1915C29.6821 37.4702 29.651 37.4806 29.6944 37.5628C29.7223 37.6288 29.7426 37.6813 29.7617 37.7304C29.799 37.8273 29.8292 37.9074 29.8569 37.9775C29.9092 38.1139 29.9646 38.2233 29.963 38.2217C29.683 37.9 29.6861 38.0218 29.7057 38.0052C29.7299 38.0149 29.7847 38.0267 29.8343 38.0345C29.937 38.0505 30.0318 38.0578 30.1094 38.0632C30.2672 38.0726 30.3727 38.0782 30.5738 38.0543C30.6956 38.0391 30.8118 38.0183 30.9111 37.9944C30.8234 38.0268 30.885 38.0184 30.9932 37.8782C31.0996 37.7478 31.2324 37.5593 31.3865 37.3725C31.456 37.2915 31.5347 37.025 31.6271 36.6333C31.666 36.4665 31.6855 36.2041 31.685 35.9268C31.6868 35.4796 31.6152 34.886 31.5293 34.5844C31.4531 34.3083 31.2604 34.0642 31.0664 33.4449C30.8818 32.743 30.7912 32.1232 30.6924 31.4941C30.632 31.0943 30.5549 30.6947 30.4797 30.2632C30.3844 29.6454 30.3311 29.2578 30.1889 28.7566C29.9765 27.9812 29.7269 27.2158 29.4493 26.4551C29.2494 25.9083 29.0347 25.3853 28.7766 24.9022C28.6456 24.6343 28.6333 24.5584 28.5796 24.4167C28.5342 24.2882 28.4919 24.1652 28.4495 24.0425C28.3649 23.798 28.281 23.558 28.1942 23.3193C27.8088 22.2194 27.5049 21.1595 27.207 20.0606C27.1571 19.8747 27.1099 19.6892 27.0652 19.5C26.9513 19.0276 26.8742 18.5611 26.8171 18.2469C26.6639 13.8113 26.9641 15.7557 27.0376 14.3601C27.0495 14.2368 27.0705 14.1009 27.1035 13.95C27.3574 12.9502 27.6531 12.5004 27.8526 12.1609C28.6902 11.0753 27.0715 12.7765 28.0557 11.5216C28.5134 11.0648 28.9641 10.7233 29.5319 10.4025C30.2089 10.036 30.9048 9.75328 31.5802 9.50352C32.9676 9.03422 34.2112 8.89513 35.5178 8.72763C36.7385 8.59752 37.9187 8.64089 39.1123 8.81897C39.9562 8.93416 40.8165 9.33663 41.4009 9.61901C41.7818 9.78662 42.0328 9.96755 42.2823 10.1189C42.0285 9.97487 41.7718 9.80083 41.391 9.64256C40.7954 9.3783 39.9369 8.99952 39.0994 8.90535C38.9921 8.89144 38.8845 8.87894 38.777 8.86777C38.8822 8.88103 38.9897 8.89596 39.0984 8.91264C40.0024 9.03096 40.9398 9.5105 41.3597 9.71702C41.7496 9.89952 41.9092 10.0337 41.9328 10.0557C41.9406 10.0817 41.837 9.99567 41.3338 9.77843C41.1463 9.70955 40.8319 9.5515 40.3976 9.38857C40.7353 9.52963 41.0568 9.70587 41.3131 9.82743C41.7781 10.0469 42.0765 10.2923 42.4311 10.5048C42.4721 10.5077 42.6027 10.5677 42.7937 10.6554C43.1774 10.8292 43.6609 11.1865 44.1049 11.5061C44.586 11.8576 45.0221 12.2046 45.3482 12.3895C45.728 12.6155 45.9526 12.8374 46.0305 12.8946C46.1831 13.022 45.8788 12.6295 45.3904 12.3216C45.0587 12.1087 44.643 11.7712 44.6503 11.7762C44.6791 11.775 44.9883 12.0295 45.4067 12.2953C45.8022 12.5428 46.2118 12.8943 46.5539 13.4332C46.767 13.7753 46.9475 14.1417 47.1239 14.4762C47.3553 14.934 47.4171 15.2715 47.5325 15.458C47.541 15.474 47.5614 15.505 47.5999 15.5734C47.619 15.6587 47.7667 15.7009 47.7071 16.2064C47.5899 16.6462 47.2718 16.7609 47.1277 16.807C46.9618 16.8532 46.8344 16.8506 46.7059 16.8313C46.0347 16.6922 45.7372 16.3739 45.5256 16.2979C44.9721 16.0371 44.5945 15.7249 44.4079 15.6709C43.9018 15.5113 43.2265 15.6512 43.1251 15.6656C43.0276 15.6831 42.9439 15.7004 42.8722 15.7161C41.8965 15.9777 42.8507 15.546 41.7162 15.9695C41.29 16.1388 41.0103 16.2684 40.8091 16.3675C40.0867 16.6974 40.3856 16.746 38.7927 17.0397C38.5544 17.0735 38.26 17.1185 37.9074 17.1648C37.5644 17.2782 37.3078 17.3532 37.0807 17.4121C36.45 17.5711 36.0213 17.5503 34.8842 17.5656C34.673 17.5676 34.8365 17.6279 34.745 17.6308C32.3338 17.6981 34.1877 17.5664 34.1739 17.5604C34.1019 17.5265 33.7875 17.5106 33.3703 17.5035C32.7461 17.5422 31.7782 17.2317 31.3341 17.0072C31.0782 16.9032 30.8741 16.8081 30.7629 16.7515C30.5263 16.6308 30.2943 16.5014 30.0663 16.3435C29.8342 16.1966 29.601 15.8982 29.5254 15.6236C29.3169 14.9882 29.6238 14.3838 29.9178 14.0096C30.2222 13.616 30.5769 13.3173 30.8908 13.0365C31.3219 12.6298 31.9328 12.27 32.5231 12.1709C33.0572 12.0513 33.6019 12.0404 34.1115 12.0477C34.5071 12.0503 34.7374 12.3497 34.8549 12.4443C35.3206 12.8781 35.2037 13.3864 35.2753 13.7116C35.438 14.409 35.0033 15.1931 34.5754 15.6155C34.2298 16.0284 33.6748 16.0485 33.2906 16.0418C32.9299 16.0387 32.7101 15.77 32.5825 15.5813C32.4478 15.38 32.3545 15.1761 32.2519 15.004C31.9994 14.5967 31.8703 14.1221 31.6898 13.7499C31.4573 13.2763 31.4371 12.7985 31.2771 12.3951C30.9913 11.5438 31.1519 10.7563 31.1238 9.92529C31.1243 9.78176 31.1314 9.63801 31.1468 9.49263C31.1652 9.1292 31.3661 8.58752 31.499 8.06664C31.5137 7.99161 31.5235 7.91167 31.5347 7.82203C31.5549 7.72851 31.5289 7.64405 31.6478 7.46463C31.6822 7.43024 31.7155 7.36502 31.8585 7.34815C32.0132 7.34866 32.0682 7.4417 32.0967 7.47741C32.1526 7.56297 32.1684 7.62301 32.1889 7.68476C32.2255 7.80549 32.2485 7.92026 32.2711 8.0346C32.316 8.25929 32.3503 8.50451 32.4087 8.68671C32.513 8.98848 32.7067 9.2631 32.9628 9.40144C33.0934 9.46326 33.4281 9.44809 33.6831 9.42813C34.1147 9.38326 34.3659 8.75902 34.5642 8.34331C34.7032 8.05028 34.8118 7.78249 34.9006 7.58181C34.9918 7.3731 35.0666 7.21317 35.1288 7.09111C35.1629 7.06717 35.0825 7.03263 35.271 6.82509C35.4885 6.72649 35.5274 6.81677 35.5807 6.83017C35.6274 6.85755 35.6547 6.88331 35.6757 6.90555C35.774 7.04996 35.7538 7.00028 35.9122 7.43751C36.0699 7.73784 36.1643 8.05438 36.2815 8.36696C36.3438 8.53174 36.439 8.68368 36.5579 8.88093C36.5622 8.91497 36.8053 8.99316 37.0429 8.99087C37.2884 8.99679 37.5695 8.9741 37.8713 8.92768C38.2011 8.88884 38.5579 8.52468 38.9992 8.14801C39.1155 8.05056 39.2364 7.9514 39.3615 7.84966C39.6983 7.46261 39.8628 7.30716 40.1074 7.08853C40.1274 7.07096 40.1485 7.04964 40.1759 7.02021C40.19 7.00525 40.2048 6.98869 40.2285 6.9654C40.2621 6.94685 40.2527 6.89455 40.4389 6.86492C40.5992 6.85836 40.7081 6.98649 40.7396 7.05028C40.7791 7.12261 40.7951 7.18292 40.8098 7.24315C40.8375 7.36458 40.8495 7.48285 40.86 7.61703C40.8803 7.88268 40.8845 8.20028 40.9038 8.59503C40.9142 8.78812 40.9275 9.00084 40.9634 9.20364C40.9464 9.23028 41.0996 9.31161 41.327 9.33122C41.548 9.35695 41.8004 9.35814 42.0733 9.38325C42.8044 9.46713 43.3553 9.31337 44.1134 8.96582L44.0731 8.9825C44.623 8.70232 45.1486 8.43869 45.5106 8.1324L45.4859 8.15849C45.5199 8.12603 45.5415 8.09356 45.5772 8.00608C45.5456 8.10174 45.5293 8.13315 45.4992 8.16958L45.5224 8.14509C44.9248 8.66079 44.4991 8.82593 44.1099 9.05676L44.1398 9.0444C43.6255 9.23516 43.2577 9.60562 42.1125 9.49205C42.098 9.49066 42.0807 9.48891 42.0606 9.4867C41.9458 9.47299 41.7516 9.46033 41.5099 9.43923C41.2908 9.42093 40.8987 9.36679 40.8942 9.21422C40.849 8.91689 40.8427 8.55993 40.8287 8.18486C40.8216 7.99665 40.8145 7.80233 40.7956 7.60066C40.7856 7.49966 40.7735 7.39691 40.7489 7.28897C40.7356 7.2332 40.7208 7.17778 40.6899 7.11436C40.6629 7.06031 40.5926 6.94093 40.4412 6.94326C40.2414 6.99754 40.286 7.04121 40.2415 7.07071C40.2142 7.10197 40.1906 7.1284 40.1661 7.15155C39.7924 7.50455 39.3988 7.84832 39.0349 8.18729C38.6268 8.56804 38.2838 8.97775 37.8935 9.05194C36.9839 9.25713 36.4426 9.05217 36.5938 9.14713C36.7043 9.24319 37.3024 9.29619 37.9153 9.17428C38.4959 9.04208 38.861 8.49818 39.1249 8.28638C39.2436 8.17655 39.3224 8.1063 39.3382 8.09533C39.5726 7.93489 39.4696 8.07709 39.1954 8.36397C38.9303 8.60201 38.6209 9.13795 37.9383 9.3036C37.7877 9.32964 37.635 9.34834 37.4832 9.35847C37.6257 9.33899 37.7787 9.31212 37.9337 9.27783C38.1782 9.22561 38.3837 9.0822 38.5463 8.94097C38.3402 9.09675 38.1271 9.20427 37.9263 9.23592C37.1338 9.35722 36.8669 9.32902 36.7176 9.34042C36.6427 9.34201 36.5982 9.346 36.5284 9.329C36.4648 9.30365 36.3387 9.29602 36.2094 9.06906C36.1617 8.94627 36.0605 8.75517 36.0092 8.44519C35.9948 8.34689 35.9824 8.23846 35.9702 8.11872C35.9373 7.8337 36.0205 7.93228 35.9189 7.46445C35.8751 7.3788 36.0054 7.94031 35.8484 7.47132C35.7952 7.33647 35.7352 7.15395 35.5849 7.01947C35.5283 6.97788 35.4638 6.91563 35.3644 6.95807C35.2896 7.0385 35.3133 7.10791 35.279 7.1606C35.1369 7.44414 35.0319 7.69359 35.0358 7.77165C35.0414 7.87293 35.1802 7.5733 35.3587 7.19744C35.3918 7.13 35.4029 7.02212 35.4116 7.02538C35.4147 7.01583 35.4962 7.03969 35.5381 7.07811C35.8328 7.36587 35.8807 7.84437 35.9079 7.89664C35.9089 7.89811 35.9099 7.89957 35.9109 7.90104C36.0084 8.37214 35.9885 8.34207 35.9165 8.09323C35.8399 7.85873 35.7544 7.33571 35.5036 7.12143C35.4706 7.08348 35.3807 7.08791 35.4452 7.0732C35.483 7.01037 35.4449 7.15391 35.4158 7.22383C35.3566 7.35592 35.318 7.44966 35.3102 7.47148C35.0638 8.17634 35.2349 7.91313 34.993 8.54847C34.9464 8.66406 34.8867 8.82562 34.7828 9.03918C34.6438 9.26818 34.4517 9.83235 33.7211 9.9414C33.4238 9.94626 33.1728 10.035 32.7146 9.84973C32.2652 9.59769 32.0399 9.17196 31.9284 8.85137C31.8742 8.68465 31.8572 8.5719 31.8362 8.47398C31.6974 7.76573 31.8528 8.88291 31.7539 8.40198C31.7255 8.26234 31.7016 8.11495 31.6734 7.97669C31.6598 7.90962 31.6423 7.83827 31.6293 7.80139C31.6302 7.78733 31.596 7.76728 31.6779 7.84533C31.7092 7.88848 31.9044 7.93754 31.9856 7.88782C32.0678 7.84984 32.073 7.82714 32.0813 7.82011C32.1432 7.708 32.0878 7.81621 32.0855 7.88949C32.0735 7.97271 32.0611 8.07223 32.041 8.17466C32.0275 8.24436 32.0115 8.31143 31.9949 8.37557C31.9257 8.63019 31.9782 8.62677 31.9444 8.73947C31.7843 9.26437 31.7782 9.36269 31.7389 9.44422C31.7094 9.52227 31.6653 9.55717 31.6557 9.925C31.655 9.99256 31.6548 10.0663 31.6552 10.1537C31.6616 10.5175 31.6611 11.3491 31.7412 11.7719C31.7812 11.98 31.8439 12.0909 31.8575 12.0913C31.875 12.0817 31.8273 11.9918 31.8067 11.6234C31.8243 11.8277 31.8555 11.9827 31.9217 12.1433C32.1258 12.6621 32.1705 13.1434 32.3273 13.4212C32.3953 13.5506 32.4479 13.6745 32.4958 13.7904C32.4529 13.6737 32.4046 13.5478 32.3398 13.4148C32.2227 13.1739 32.1784 12.7837 32.0622 12.3529C32.2035 12.8673 32.2586 13.2077 32.3738 13.3972C32.6591 13.9765 32.7607 14.2811 32.9642 14.5683C33.1025 14.7822 33.1945 14.9604 33.2852 15.09C33.3809 15.2344 33.4085 15.1921 33.2889 15.1881C33.6754 15.2051 33.8611 15.1828 33.9497 15.0852C34.1728 14.838 34.3565 14.6135 34.4059 14.4C34.4646 14.0526 34.3961 13.9948 34.3927 14.1575C34.3709 14.3244 34.3285 14.5376 33.8853 15.0305C33.8397 15.0984 33.6827 15.1556 33.2888 15.1504C33.349 15.1474 33.4093 15.1899 33.3894 15.1765C33.3755 15.1657 33.331 15.1134 33.2886 15.0466C33.2 14.9101 33.1118 14.7286 33.0011 14.5457C32.9036 14.3848 32.8438 14.2474 32.8134 14.173C32.7597 14.0322 32.9084 14.3112 33.0629 14.5079C33.1997 14.7069 33.2796 14.8381 33.3069 14.8806C33.3665 14.9818 33.4252 15.0674 33.4487 15.0941C33.4828 15.1278 33.3982 15.0531 33.2886 15.0618C33.7239 15.0805 33.8096 15.0388 33.8444 14.9959C33.8535 14.9851 33.8623 14.9746 33.8709 14.9644C34.3287 14.4237 34.338 14.2931 34.2741 13.8716C34.231 13.6307 34.2136 13.4289 34.1852 13.3124C34.1544 13.1844 34.1403 13.2299 34.1784 13.2667C33.9108 13.02 33.9193 13.1205 34.1128 13.1409C33.6966 13.1536 33.2968 13.1712 32.8988 13.258C32.8597 13.2664 32.8202 13.2754 32.78 13.2851C32.3252 13.3891 32.0815 13.5487 31.6995 13.9049C31.0356 14.4612 30.5754 15.1665 30.7163 15.2274C30.7488 15.2877 30.6962 15.2263 30.7751 15.2877C31.0613 15.4748 31.4441 15.6543 31.8273 15.8091C32.5187 16.1148 32.7719 16.1939 33.3628 16.1887C34.5417 16.1578 35.8613 16.2155 36.7773 16.021C37.3394 15.8962 37.8735 15.7611 38.4455 15.6154C39.0464 15.4651 39.651 15.2429 40.2424 14.9959C40.9654 14.7009 41.6473 14.393 42.4787 14.1715C43.2497 13.9975 43.9586 13.853 44.9284 14.1307C45.0781 14.1812 45.2022 14.2396 45.311 14.2958C45.7564 14.5384 45.9893 14.7147 46.19 14.8027C46.7246 15.0734 46.9499 15.2373 46.9633 15.2252C46.8784 15.2142 46.7988 15.2107 46.6672 15.2487C46.601 15.2699 46.5174 15.3011 46.4101 15.3859C46.306 15.4663 46.1696 15.6355 46.1247 15.8456C46.0721 16.1167 46.1356 16.2366 46.1515 16.2928C46.1739 16.35 46.1837 16.3617 46.1854 16.3646C46.1883 16.3666 46.1643 16.3266 46.1312 16.2676C45.8505 15.731 45.7995 15.3695 45.7194 15.2301C45.5677 14.9275 45.4483 14.68 45.329 14.4743C45.2878 14.403 45.2477 14.3365 45.2081 14.2741C45.0229 13.9869 44.7633 13.7745 44.5602 13.6586C43.9512 13.2842 43.5997 12.9899 43.2034 12.7125C42.8567 12.4719 42.4987 12.1772 42.0962 11.9599C42.0682 11.945 42.0411 11.9304 42.0128 11.9151C41.5526 11.6734 41.0219 11.2988 40.7442 11.178C39.9881 10.8219 39.5012 10.5914 38.8626 10.4906C37.8142 10.3263 36.687 10.2902 35.7165 10.3913C34.7391 10.4993 33.8257 10.6406 33.1128 10.7982C32.7685 10.8745 32.4341 10.9661 32.1745 11.0688C31.3942 11.3689 30.7675 11.682 30.3652 11.9226C30.1901 12.0289 30.0388 12.1423 29.9536 12.2036C29.6169 12.446 29.261 12.7671 29.1027 13.0048C28.8673 13.3731 28.5974 14.0666 28.5788 14.4553C28.5242 15.5607 28.509 16.987 28.5969 17.8806C28.716 18.5227 28.8171 19.0151 28.9734 19.5781C29.2666 20.6414 29.5851 21.7186 29.9275 22.6821C30.0212 22.9363 30.1108 23.1893 30.1971 23.436C30.2404 23.5593 30.2829 23.6813 30.3242 23.7967C30.3584 23.897 30.429 24.0701 30.4092 24.0258C30.7334 24.628 30.9795 25.2323 31.194 25.8116C31.5021 26.646 31.7697 27.4667 31.9889 28.256C32.1113 28.6875 32.2113 29.1662 32.2681 29.5745C32.2884 29.7103 32.3057 29.8285 32.3246 29.938C32.4027 30.3845 32.4818 30.818 32.5349 31.2054C32.6466 32.0207 32.7362 32.6022 32.8187 32.9567C32.8414 33.0812 32.9335 33.2762 33.0029 33.423C33.0973 33.619 33.186 33.8275 33.2495 34.0156C33.5096 34.9745 33.4891 35.2366 33.5384 35.5941C33.5527 35.9445 33.6461 36.2112 33.4422 37.131C33.4221 37.2042 33.3998 37.2873 33.3722 37.3841C33.2442 37.8782 32.9884 38.336 32.7657 38.5523C32.6459 38.6639 32.5795 38.7195 32.5373 38.7704C32.2834 39.0803 31.9335 39.5573 31.3376 39.7152C30.8256 39.85 30.5219 39.9423 29.81 39.9274C29.6448 39.9188 29.4734 39.9041 29.2618 39.8545C29.0564 39.7819 28.7726 39.792 28.3779 39.2893C28.1799 38.9809 28.1192 38.7896 28.038 38.5949C28.0009 38.501 27.9665 38.4109 27.9388 38.3437C27.9263 38.3127 27.9105 38.2799 27.9189 38.2969C27.9376 38.3168 27.8947 38.3046 28.0724 38.4891C28.1313 38.5368 28.2089 38.6275 28.4639 38.7005C28.5783 38.7331 28.7855 38.7443 28.9521 38.6917C29.1266 38.6384 29.2272 38.5651 29.312 38.4905C29.5745 38.2157 29.5294 38.1636 29.5626 38.1041C29.6165 37.8957 29.5933 37.9309 29.5991 37.9104C29.5994 37.9035 29.5991 37.9112 29.599 37.9217C29.5986 37.9439 29.5983 37.9804 29.5969 38.0226C29.5925 38.1097 29.5915 38.2142 29.5478 38.392C29.5218 38.4718 29.5059 38.7313 29.3931 39.0845C29.3329 39.2624 29.2338 39.4906 29.0328 39.7068C28.8348 39.925 28.5416 40.0782 28.298 40.1348C27.9523 40.2242 27.554 40.21 27.2244 40.1076C26.357 39.7664 26.2186 39.3714 26.0195 39.2692C25.6443 38.9919 25.3266 38.7282 25.1205 38.6364C24.7319 38.4299 24.7411 38.4077 24.6376 38.3675C24.5537 38.3327 24.4491 38.3078 24.3156 38.2952C24.0486 38.2698 23.707 38.3004 23.3595 38.3619C22.8724 38.4493 22.5599 38.5443 22.2255 38.7763C21.6748 39.1391 21.3635 39.3467 21.0542 39.724C20.7822 40.0519 20.5126 40.4324 20.3486 40.755C20.1508 41.1393 20.0544 41.4062 20.0018 41.7539C19.9675 42.022 19.9367 42.0105 19.9304 42.1786C19.9303 42.1872 19.9302 42.1961 19.9302 42.2055C19.9437 43.1947 19.9955 42.738 20.0458 43.7595C20.0746 44.2009 20.1198 44.6999 20.1937 45.0173C20.3386 45.6973 20.5015 46.1525 20.7204 46.3462C21.2743 46.8602 21.8689 47.2019 22.6082 47.3804C22.831 47.4359 23.0614 47.4801 23.302 47.5167C23.5068 47.5475 23.5786 47.6018 24.0558 47.6661C24.0863 47.6704 24.1179 47.6749 24.1498 47.6793C24.6659 47.7498 24.977 47.7349 25.7606 47.7017C26.1503 47.6825 26.5443 47.6463 26.9445 47.6002C27.4177 47.5465 27.8398 47.4849 28.3384 47.4025C28.7853 47.3318 29.3158 47.1958 29.904 47.105C30.2416 47.0585 30.5226 46.9767 30.6644 46.8802C30.9255 46.7059 31.2032 46.4602 31.3838 46.2343C31.4437 46.1661 31.4971 46.0379 31.4603 46.0945C31.4914 45.9315 31.5011 45.6902 31.4926 45.4269C31.4908 45.3717 31.4873 45.3156 31.4819 45.2605C31.4574 44.9993 31.3822 44.7445 31.2304 44.3896C31.099 44.0348 30.9267 43.8499 31.0046 43.9153C30.8281 43.824 30.4549 43.7594 30.2221 43.7817C29.6068 43.8214 29.1247 43.9748 28.6464 44.1632C28.5619 44.1967 28.4773 44.2341 28.3967 44.2724C27.9133 44.5029 27.3782 44.8403 27.0939 45.1291C26.802 45.4047 26.5357 46.1617 25.7962 46.7931C25.7007 46.8719 25.5478 46.9645 25.3522 46.9994C25.1571 47.0363 24.9604 46.9995 24.8346 46.9496C24.5804 46.8438 24.4999 46.7419 24.4278 46.6758C24.294 46.5424 24.1544 46.3493 24.0734 46.1314C23.8819 45.5458 23.8273 45.2711 23.7839 45.2704C23.4254 44.8726 23.0531 44.5551 23.0674 44.6068C22.3356 44.4703 21.3755 44.479 20.9473 44.6754C20.3457 44.9608 19.9316 45.2012 19.6292 45.6071C19.6641 45.5504 19.6034 45.664 19.5975 45.7537C19.5844 45.8514 19.5876 45.9652 19.6094 46.0816C19.6772 46.4693 19.8169 46.7437 20.0739 47.1712C20.0802 47.1815 20.0865 47.192 20.0928 47.2026C20.5656 48.0122 20.9494 48.5498 21.3095 48.7859C21.3962 48.8461 21.4763 48.8997 21.5491 48.9459C21.9837 49.22 22.101 49.2604 22.1676 49.2847C22.2286 49.3023 22.2673 49.3132 22.4177 49.3646C22.5017 49.3917 22.6352 49.4332 22.8479 49.4894C23.1012 49.5562 23.3684 49.6159 23.6426 49.6744C24.317 49.8381 24.7046 49.9708 25.1189 49.9604C25.8369 49.9472 26.6305 49.9472 27.1392 49.8326C27.6458 49.7242 27.8905 49.6998 28.2158 49.5941C28.5286 49.496 28.8465 49.3609 29.1677 49.2036C29.6689 48.9568 30.1755 48.7317 30.6497 48.5074C31.5845 48.0577 32.5462 47.5807 33.4785 47.1067C33.963 46.8542 34.5342 46.5996 34.9567 46.3987C35.4844 46.1407 35.9589 46.0253 36.4092 45.9065C37.262 45.7265 38.0972 45.4007 39.3634 45.8066C39.571 45.9231 40.1609 45.9323 40.7142 46.5978C41.186 47.1586 41.7282 48.1371 41.7088 49.1057C41.6774 50.1549 41.8139 51.0645 41.2644 52.4256C40.9202 53.0686 40.5356 53.7471 39.8211 54.3215C39.313 54.7195 38.7674 55.0662 38.281 55.3841C38.2442 55.3948 37.973 55.6883 37.7208 55.9041C37.4613 56.1292 37.1855 56.3251 36.9103 56.4975C36.3591 56.8415 35.7995 57.1111 35.24 57.356C34.5781 57.6443 33.9175 57.9271 33.2457 58.2023C32.7665 58.4 32.2492 58.5986 31.7766 58.79C30.7094 59.4035 29.2042 59.4851 28.0055 59.5191C26.2523 59.5515 24.5125 59.5194 22.826 59.4732C22.3129 59.4537 21.8475 59.4539 21.2735 59.3876C20.5569 59.3009 19.8437 59.1971 19.1294 58.998C19.0952 58.9883 19.062 58.9789 19.0287 58.9695C17.8108 58.6822 17.06 58.1399 16.5924 57.708C16.384 57.5236 16.149 57.3172 15.865 57.0143C15.5617 56.6893 15.3279 56.3634 15.1509 56.0524C14.698 55.2218 14.4296 54.7624 14.1611 53.8352C14.0936 53.5068 13.9075 53.2023 13.7998 52.3737C13.7912 52.2729 13.7783 52.1594 13.7624 52.0354C13.6882 51.4733 13.5913 50.8141 13.542 50.1434C13.4996 49.5842 13.4615 49.0167 13.4147 48.46C13.3544 47.5535 13.3853 46.8071 13.3211 46.0736C13.3085 45.9193 13.2935 45.7741 13.2758 45.6375C13.1799 44.8566 13.1306 44.2669 13.0566 43.6596C12.9669 42.8654 12.9511 42.0767 12.865 41.0399C12.8537 40.918 12.8405 40.795 12.8242 40.6808C12.7253 39.9735 12.5989 39.1681 12.5147 38.305C12.4591 37.7323 12.3946 37.1576 12.313 36.6001C12.2361 36.1224 12.028 35.4819 11.8585 34.9428C11.8064 34.7799 11.7535 34.6159 11.7003 34.4515C11.5115 33.8644 11.321 33.3005 11.1035 33.0556C10.6869 32.5106 10.6815 32.5364 10.5268 32.5045C10.4233 32.4931 10.3233 32.49 10.2783 32.4942C10.258 32.4949 10.2501 32.5015 10.3007 32.4863C10.3402 32.4698 10.5151 32.4241 10.6637 32.1655C10.6911 32.1034 10.648 32.2147 10.6285 32.3197C10.6045 32.4307 10.5807 32.5621 10.5566 32.696C10.4084 33.3709 10.3601 33.7523 10.3574 34.3345C10.3532 35.4395 10.3687 36.5571 10.4214 37.6384C10.4723 38.7313 10.4546 39.7759 10.5968 40.6593C10.6825 41.1653 10.7775 41.6776 10.8418 42.2365C10.9275 42.8567 11.0154 43.6408 11.0174 44.3543C11.0302 45.4697 11.0056 46.6106 10.9683 47.6923C10.9579 48.1318 10.9286 48.5696 10.8826 49.0028C10.8054 49.5909 10.7134 49.8778 10.7249 50.1504C10.732 50.5582 10.7239 50.9717 10.7405 51.3035C10.7568 51.6338 10.8082 51.8878 10.9152 52.2162C11.1181 52.8332 11.3637 53.4804 11.625 54.032C11.9548 54.7291 12.174 55.3778 12.4328 55.8646C12.6208 56.2112 12.8791 56.617 13.1144 57.0687C13.5369 57.8814 13.9893 58.672 14.489 59.4113C14.6254 59.6197 14.8269 59.8231 15.0983 60.1773C15.3696 60.5283 15.5934 60.9963 15.7068 61.4117C15.845 61.8976 15.9438 62.3934 15.9884 62.9162C16.0099 63.1784 16.0187 63.4458 15.9983 63.7384C15.959 64.043 15.9889 64.3111 15.6739 64.8539C15.4756 65.1761 15.0049 65.7432 14.3009 65.8804C12.9971 66.0535 11.7685 66.1467 10.4384 65.0296C10.1493 64.7358 9.8013 64.4461 9.44097 63.9831C9.07898 63.5183 8.85366 62.9606 8.71918 62.4775C8.4513 61.5549 8.21416 60.5938 7.92145 59.77C7.66057 58.9652 7.53559 58.3468 7.29623 57.8601C7.04292 57.3539 6.43288 56.7429 5.82954 56.2029C5.49747 55.8867 5.09969 55.6848 4.5619 55.0805C4.5459 55.0607 4.52658 55.0378 4.50482 55.0126C4.39331 54.8803 4.21943 54.7062 4.04246 54.4217C3.86569 54.1514 3.69711 53.6538 3.79015 53.1968C3.84334 52.9064 3.85778 52.2341 4.11011 51.6374C4.29592 51.1754 4.45532 50.6521 4.55423 50.1577C4.66188 49.6884 4.65572 49.0894 4.59961 49.0296C4.42216 48.6775 4.10173 48.2268 3.79424 47.8102C3.71515 47.6974 3.48671 47.4898 3.23939 47.2268C3.00755 46.9615 2.62837 46.5785 2.57319 45.8668C2.55997 45.4039 2.51406 44.9766 2.68187 44.3164C2.92559 43.4828 3.20311 42.627 3.4318 41.854C3.60683 41.2678 3.72493 40.9572 3.71249 40.6451C3.68866 39.7841 3.65235 38.8621 3.5095 38.1619C3.5007 38.1055 3.38834 37.8142 3.3242 37.5649C3.25437 37.3033 3.2097 37.028 3.19192 36.7619C3.1561 36.2261 3.21457 35.7232 3.31085 35.2485C3.33241 35.1431 3.35596 35.0372 3.38205 34.9309C3.57713 34.31 3.32017 35.1097 3.92637 33.6424C3.99845 33.4926 4.08067 33.3416 4.17935 33.1734C4.42564 32.7617 4.71063 32.3056 5.1776 31.7839C5.68928 31.1839 6.57921 30.3854 7.03319 29.6126C7.10645 29.4692 7.18212 29.3263 7.25767 29.1839C7.66706 28.4301 7.94306 27.8034 8.02759 27.0684C8.20338 26.0518 8.04748 25.1922 8.78396 23.7472C9.21037 23.1423 9.67301 22.511 10.1941 21.9296C10.8464 21.2115 11.489 20.6157 12.0863 19.9771C12.4164 19.6292 12.7054 19.2801 13.0319 18.8835C13.5089 18.3128 13.995 17.7532 14.2903 17.2493C14.4107 17.0367 14.5249 16.8456 14.6171 16.67C14.7088 16.5031 14.7779 16.3128 14.7741 16.3031C14.867 15.7235 14.9936 15.403 15.0257 15.0811C15.0747 14.6858 15.0962 14.1359 15.392 13.553C15.5369 13.2719 15.7669 12.6977 16.1771 12.2881C16.481 11.9734 16.8119 11.5355 17.2418 11.1291C17.7315 10.67 18.1572 10.2642 18.5766 9.78507C19.1392 9.18792 19.5651 8.75876 19.9986 8.19315C20.5516 7.5031 20.9311 7.02825 21.2528 6.30765C21.8244 5.23988 22.1915 4.49013 22.0316 3.6656C21.9845 3.40371 21.9468 3.18687 21.8986 3.06187C21.8442 2.9319 21.84 2.9411 21.7913 2.90931C21.8091 2.91237 21.9025 2.98035 22.123 2.88954C21.932 2.97103 21.8501 3.03896 21.8881 3.00467C21.6052 3.3445 21.3446 3.63158 21.1973 3.88703C20.9847 4.24981 20.7987 4.56736 20.6805 4.87546C20.4161 5.54618 20.1364 6.11624 19.9634 6.68399C19.7996 7.18068 19.7108 7.66577 19.3462 8.31013C19.197 8.53323 19.0638 8.95778 18.7128 9.39743C18.3275 9.86104 17.9494 10.374 17.3324 10.8324C16.7391 11.2823 15.9653 11.7188 15.2426 11.9886C14.7534 12.1776 14.3139 12.3775 13.8227 12.6165C13.7891 12.6326 13.7552 12.6486 13.7208 12.6648C13.3143 12.8575 13.0887 13.0899 12.9256 13.4872C12.7193 13.9693 12.4974 14.3486 12.4828 14.5241C12.4506 15.1077 12.2078 15.9926 11.9005 16.5877C11.4744 17.4962 10.9878 18.5799 10.106 19.435C9.57986 19.9068 9.25103 20.4003 8.28016 20.8746C7.83438 21.0427 7.84464 21.0581 7.74596 21.2314C7.5791 21.5949 7.51706 22.253 7.51225 22.8622C7.45082 23.9967 7.68089 24.8921 7.30254 26.4028C7.12026 26.9191 7.00428 27.4549 6.64112 28.1271C6.31209 28.7313 5.80611 29.5342 5.16344 30.066C4.64995 30.4742 4.1194 31.5606 2.53415 31.7438C2.38528 31.7486 2.13434 31.7891 1.80869 31.7914C1.64099 31.7885 1.44631 31.7879 1.16481 31.6934C0.892907 31.6192 0.472273 31.2818 0.361332 30.9048C0.208754 30.4721 0.136646 30.0749 0.0938699 29.6632C0.0738147 29.4569 0.06301 29.2493 0.0692738 29.0239C0.0899078 28.7824 0.0524502 28.6061 0.253099 28.131C0.392045 27.8522 0.552849 27.3969 0.910323 26.9512C1.25654 26.5323 1.57281 26.2896 1.71773 26.0977C1.95849 25.8013 2.17665 25.5098 2.28018 25.2923C2.24356 25.3923 2.31103 25.1469 2.32081 24.9945C2.33977 24.8214 2.35122 24.6326 2.35736 24.4424C2.36919 24.0616 2.36157 23.6677 2.33195 23.2973C2.33083 23.2118 2.16148 22.733 2.02677 22.3311C1.89184 21.901 1.73276 21.4303 1.74001 20.7833C1.76941 20.3913 1.68841 19.7216 2.22627 19.0035C2.56094 18.5792 2.94387 18.1469 3.43704 17.7716C3.80847 17.4901 4.16381 17.2305 4.46562 16.9742C4.96306 16.5465 5.55476 15.954 5.82139 15.5572C6.06074 15.2018 6.17686 15.1184 6.2589 14.9998C6.34168 14.8905 6.40632 14.7819 6.46855 14.6488C6.59181 14.3851 6.68618 14.0502 6.75553 13.6947C6.92151 12.88 6.73711 11.7796 6.88978 10.5007C6.91793 10.3071 6.93258 10.0903 6.9966 9.78227C7.03145 9.62772 7.07822 9.44167 7.19854 9.21822C7.31368 8.99726 7.54472 8.74301 7.80563 8.60753C8.10973 8.45053 8.28716 8.41246 8.3702 8.37195C8.7742 8.19399 9.23131 7.98729 9.68251 7.81676C10.0847 7.66626 10.5212 7.43614 11.0913 7.24057C11.4037 7.14412 11.7255 6.96169 12.2318 6.76982C12.6452 6.63102 12.7611 6.56543 12.8263 6.48813C12.7089 6.66549 12.7355 6.67669 12.7276 6.68734C12.7273 6.69274 12.732 6.67497 12.7359 6.65205C12.7442 6.60538 12.7524 6.5348 12.7593 6.46267C12.7733 6.31613 12.7847 6.1515 12.7972 5.98649C12.822 5.65392 12.8515 5.31048 12.8944 4.96637C12.9711 4.47218 12.9307 4.04471 13.1279 3.2891C13.2964 2.80722 13.4446 2.30154 13.9169 1.75707C14.2209 1.44565 14.5435 1.05037 15.0819 0.745735C15.2629 0.64814 15.5699 0.461332 15.9222 0.385805C16.2747 0.30549 16.6226 0.33026 16.9171 0.393312C17.3333 0.486079 17.7847 0.590527 18.2311 0.79737C18.9902 1.13767 19.8788 1.41412 20.7273 1.67342C21.6484 1.94529 21.0899 2.0504 20.512 1.97375C20.0014 1.79616 19.5374 1.61377 19.0207 1.3995C18.6127 1.43408 18.4578 1.44281 18.0277 1.2804C17.7735 1.17602 17.404 1.05671 16.8173 0.942979C16.539 0.887532 16.1706 0.864378 15.7933 1.03406C15.6092 1.11606 15.4825 1.20169 15.3833 1.26029C14.6451 1.81985 15.4395 1.3042 14.8981 1.84114C14.8053 1.94422 14.675 2.09933 14.5163 2.29006C14.2779 2.57628 14.1075 3.04143 13.9721 3.54102C13.8635 4.00696 13.8919 4.56332 13.8391 5.06191C13.7815 5.70501 13.7724 6.28287 13.7265 6.64539C13.6874 7.01211 13.5492 7.16116 13.6068 6.87813C13.5999 6.92905 13.5946 6.98022 13.562 7.03563C13.417 7.28076 13.1858 7.4597 12.9379 7.59277C12.8214 7.64326 12.7047 7.68545 12.5934 7.72845C12.2188 7.8763 11.8478 8.09502 11.4377 8.23876C10.9879 8.40215 10.5527 8.64091 10.0863 8.83196C9.66141 9.00405 9.25236 9.2004 8.83243 9.39702C8.65516 9.4792 8.4812 9.53026 8.35143 9.60436C8.09783 9.73522 8.09747 10.2252 8.04494 10.6476C7.92813 11.6925 8.14929 12.7818 7.96315 13.9245C7.86324 14.4782 7.71735 15.0475 7.39975 15.5634C7.14795 15.9565 7.01387 16.0915 6.93876 16.2547C6.86898 16.3858 6.77785 16.5241 6.63028 16.705C6.21074 17.2096 5.78891 17.6176 5.3396 18.0023C4.97666 18.3071 4.60813 18.5688 4.24507 18.8392C3.89659 19.0982 3.57881 19.4351 3.26898 19.8269C3.20991 19.9017 3.1676 19.9872 3.13763 20.0946C3.07029 20.3546 3.08391 20.6029 3.08604 20.8223C3.10582 21.1662 3.19471 21.4648 3.4686 22.2661C3.58558 22.6214 3.67165 22.8844 3.69118 23.1952C3.68905 23.8051 3.74862 24.1179 3.63223 25.5013C3.68335 25.3212 3.69769 25.2838 3.69764 25.3518C3.68675 25.43 3.7073 25.5655 3.55977 25.9254C3.40536 26.2529 3.13196 26.6234 2.81803 27.0011C2.54073 27.3363 2.21261 27.5845 2.00216 27.8416C1.81433 28.0624 1.68077 28.3834 1.4999 28.7493C1.48571 28.7619 1.4503 28.9742 1.45036 29.1266C1.44646 29.2911 1.45555 29.458 1.47172 29.615C1.50423 29.9296 1.56652 30.2073 1.63452 30.4082C1.63813 30.4189 1.6433 30.4333 1.64997 30.4506C1.6689 30.4325 1.53891 30.3769 1.70293 30.4066C1.85579 30.4188 2.1182 30.3698 2.49429 30.3404C2.91621 30.3273 3.50296 29.7161 3.91283 29.296C4.00627 29.2036 4.10507 29.1042 4.23896 28.9911C4.6834 28.637 5.06077 28.1529 5.46867 27.4428C5.68805 27.074 5.8519 26.5172 6.03812 25.9647C6.08189 25.8331 6.10827 25.706 6.12415 25.5612C6.1807 24.8127 6.06763 24.253 6.08293 23.3427C6.08455 23.1785 6.09123 23.014 6.10109 22.8349C6.13705 22.2793 6.19857 21.6645 6.41935 20.9719C6.45098 20.8781 6.49037 20.7718 6.54515 20.6554C6.71062 20.1762 7.42097 19.7229 7.80525 19.6155C8.12462 19.4617 8.58221 18.9925 8.68765 18.8999C9.51228 18.1174 8.64199 19.0115 9.19694 18.4872C9.19949 18.4847 9.20207 18.4823 9.20467 18.4798C9.84834 17.8697 10.2878 16.9993 10.7476 16.0263C11.021 15.4675 11.1681 15.0198 11.231 14.3324C11.3474 13.7182 11.6286 13.3552 11.7621 13.0086C12.0027 12.3684 12.5857 11.7897 13.1914 11.5304C13.6953 11.2878 14.2544 11.0275 14.7894 10.8219C15.4711 10.5594 16.0278 10.2383 16.5965 9.80623C16.6235 9.78641 16.6508 9.76525 16.6779 9.74331C16.9739 9.4904 16.523 9.78888 16.5638 9.74617C17.1861 9.21618 17.4877 8.72025 17.6571 8.53826C17.8804 8.21952 17.681 8.6348 17.9504 8.23173C18.0083 8.14193 18.0926 7.94899 18.2791 7.64737C18.4297 7.42132 18.5951 6.89404 18.7678 6.31861C18.9665 5.66117 19.2805 5.00478 19.4987 4.4229C19.6741 3.95439 19.9059 3.56625 20.0827 3.24311C20.4087 2.68502 20.7169 2.37193 20.8586 2.1594C21.0792 1.89251 21.2108 1.84106 21.2087 1.81835C21.2819 1.81009 21.4326 1.75343 21.5692 1.70174C21.8745 1.5677 22.1737 1.6431 22.3705 1.74138C22.7055 1.89031 23.0078 2.26032 23.1207 2.54698C23.2451 2.83697 23.2852 3.04989 23.3101 3.15976C23.3298 3.25749 23.345 3.34145 23.3589 3.41486C23.4773 4.6898 23.3743 4.57229 22.9376 5.84262C22.7307 6.32666 23.2246 5.42042 22.9894 5.94017C22.8259 6.29443 22.6275 6.61454 22.4848 6.88134C22.1541 7.57521 21.5748 8.29854 21.0005 8.96647C20.8643 9.13469 20.7222 9.30643 20.5689 9.48534C20.2915 9.8054 20.2244 9.96287 19.7189 10.4857C19.6756 10.5312 19.6205 10.5888 19.5625 10.6531C19.2242 11.0453 18.552 11.6881 18.1416 12.0719C17.7811 12.4313 17.6276 12.6397 18.0687 12.2395C17.6999 12.5797 17.4289 12.9132 17.1385 13.2049C16.8949 13.445 16.7969 13.7007 16.5745 14.1626C16.4632 14.3799 16.4102 14.6954 16.3619 15.2297C16.3413 15.4198 16.3043 15.6131 16.2595 15.8073C16.2106 16.0254 16.1275 16.2649 16.0851 16.4672C15.9682 17.0369 15.6764 17.3898 15.4144 17.8791C15.3572 17.9826 15.296 18.0835 15.2316 18.1852C14.9992 18.5394 15.0754 18.583 14.6922 19.0675C14.4969 19.3107 14.2943 19.5431 14.1025 19.7647C13.7916 20.1278 13.4487 20.52 13.0711 20.8971C12.6334 21.3391 12.1564 21.7866 11.6535 22.2999C11.4909 22.4667 11.3295 22.6352 11.1809 22.803C10.712 23.329 10.2932 23.905 9.87141 24.5128C9.55829 25.0988 9.48954 26.2577 9.36955 27.2353C9.26484 28.3496 8.69722 29.3833 8.23856 30.2367C8.03016 30.6319 7.76925 30.9324 7.51643 31.2139C6.87157 31.9045 6.9606 31.6665 6.04784 32.6149C6.04465 32.6183 6.04144 32.6216 6.03822 32.625C5.94378 32.7099 5.35581 33.4637 5.03087 34.1726C4.92566 34.4026 4.84374 34.6139 4.78176 34.801C4.74167 34.9197 4.66515 35.1647 4.59684 35.4952C4.42219 36.2351 4.46443 37.0738 4.77139 37.8596C4.83999 38.1745 4.86322 38.4062 4.87998 38.5349C4.98456 39.5215 5.05727 39.6863 5.06931 40.2222C5.07097 40.3744 5.06981 40.4987 5.06732 40.6032C5.04199 41.1335 4.96384 41.1722 4.93884 41.2849C4.90983 41.3855 4.86284 41.603 4.74042 42.2098C4.72577 42.2893 4.709 42.3732 4.69138 42.4613C4.4275 43.019 4.1236 44.038 3.91888 44.3341C3.90956 44.4395 3.89245 44.5479 3.86927 44.6606C3.82286 44.9253 3.79581 45.3226 3.81105 45.7992C3.80559 45.9728 3.97042 46.2231 4.24625 46.4768C4.43148 46.6535 4.64016 46.8128 4.83491 47.0351C5.33888 47.5982 5.75547 48.0787 5.79766 48.4355C5.80808 48.4933 5.80762 48.5459 5.79698 48.5881C6.24037 49.3415 5.58708 51.7406 5.38421 52.1513C5.38329 52.1537 5.3824 52.156 5.38154 52.1582C5.22424 52.6097 5.22982 52.7622 5.19541 52.8513C5.16569 52.9506 5.15941 52.9788 5.09633 53.4271C5.09474 53.437 5.09363 53.4466 5.09298 53.4569C5.09198 53.4926 5.10371 53.4918 5.12177 53.5342C5.1514 53.5805 5.13361 53.6471 5.46334 54.0168C5.49779 54.0566 5.55159 54.1159 5.62625 54.2066C5.76334 54.3972 6.22478 54.7149 6.7462 55.1706C7.37634 55.7405 8.11616 56.4235 8.53653 57.2431C8.90684 58.0413 9.01512 58.6309 9.05108 58.7238C9.11625 58.9759 9.16748 59.1739 9.21025 59.3066C9.43489 60.0258 9.36463 59.8474 9.17294 59.32C9.00367 58.8681 8.81615 57.9733 8.46328 57.2796C8.20856 56.7958 7.91498 56.4915 7.79437 56.365C7.71772 56.2553 7.6395 56.1488 7.55206 56.0369C6.48165 54.9574 7.03561 55.6331 7.49313 56.1406C7.73862 56.4234 8.12007 56.8305 8.37414 57.3239C8.57577 57.726 8.69212 58.1152 8.75181 58.3651C8.80676 58.6412 8.66191 58.5046 8.38148 57.7032C8.65765 58.568 8.1874 57.4248 8.27681 57.7739C8.33306 57.9233 8.52632 58.6458 8.77376 59.4635C9.17295 60.6281 9.53371 62.0158 9.58882 62.0111C9.38127 61.2876 9.14256 60.3823 8.90105 59.6612C8.74889 58.923 9.48808 60.2536 10.0522 62.0969C10.2404 62.7229 10.5375 63.1922 11.0442 63.7173C11.1918 63.8797 11.2981 64.0014 11.3684 64.0896C11.6014 64.3611 11.3846 64.232 11.4364 64.2991C11.4887 64.2967 11.8624 64.9194 13.8926 64.688C13.2156 64.772 12.5994 64.7211 12.0298 64.5342C11.9823 64.4448 12.9286 64.774 13.4684 64.6844C13.712 64.6785 12.1927 64.5948 13.5096 64.5765C13.6893 64.5883 13.8653 64.5835 14.0221 64.5606C14.2178 64.5369 14.3906 64.3914 14.5567 64.1143C14.7211 63.7555 14.6545 62.8357 14.3655 61.8147C14.5354 62.3278 14.6551 62.8679 14.6837 63.3958C14.5423 60.1793 15.0485 67.4155 14.6084 61.726C14.5738 61.6008 14.5312 61.4738 14.4747 61.3443C14.5303 61.4668 14.5756 61.5931 14.6137 61.7245C14.7938 62.3555 14.9072 63.0161 14.8732 63.6632C14.9437 63.2792 15.0585 63.9156 15.1088 63.5598C15.1761 63.017 15.0858 62.3229 14.8875 61.6462C14.7514 61.1158 14.3924 60.6438 14.0766 60.2847C13.7716 59.9032 13.9946 60.1141 13.9681 60.0822C13.9024 59.9966 13.8523 59.9279 13.8108 59.8704C13.5941 59.5653 13.5703 59.6082 13.3046 59.1875C13.0858 58.8416 12.6836 58.1127 12.3628 57.4591C12.0839 56.9089 11.8097 56.4538 11.7365 56.3164C11.7241 56.2948 11.7126 56.2749 11.7022 56.2568C11.5359 55.9529 11.5642 56.0771 11.6413 56.2895C11.7316 56.5269 11.8988 56.8701 11.8713 56.8334C11.7761 56.7009 11.6621 56.5246 11.5551 56.3357C11.2847 55.8441 11.0817 55.2733 11.0462 55.3369C11.1735 55.6265 11.3172 55.9816 11.5178 56.3558C11.7258 56.7337 11.9779 57.1264 12.1963 57.5456C12.6563 58.4354 13.1798 59.3364 13.6193 60C14.0673 60.6163 14.3941 61.0031 14.3971 61.0894C14.42 61.1472 14.2366 60.9093 13.5321 60.0591C13.2764 59.6994 12.9673 59.2328 12.6147 58.6362C13.556 60.3925 13.1083 60.1187 11.8018 57.7506C11.7539 57.6605 11.7018 57.5665 11.6462 57.4687C11.413 57.0622 11.2397 56.7775 11.13 56.564C10.7225 55.6911 11.1251 56.441 10.7705 55.4634C10.7512 55.4148 10.6161 55.0443 10.4187 54.6148C10.126 53.9887 9.8301 53.1751 9.64596 52.6286C9.53828 52.313 9.48457 52.0742 9.46396 52.0331C9.58233 52.1388 9.56286 51.0337 9.76242 51.7491C9.77513 51.8064 9.86019 52.2432 9.97555 52.5215C10.0627 52.7454 10.1336 52.8786 10.1074 52.6683C10.1018 52.6215 10.0931 52.5577 10.084 52.4863C10.041 52.1972 10.0455 51.7977 10.1108 51.8697C10.0206 51.6278 9.95495 51.356 9.90571 51.0794C9.89855 50.7284 9.90087 50.4241 9.89804 50.1613C9.89976 49.6267 10.0428 49.2722 10.0932 48.9182C10.154 48.5309 10.2099 48.2027 10.2605 47.7089C10.2315 47.7552 10.0834 48.5527 10.1216 47.6709C10.125 47.557 10.133 47.4099 10.1441 47.23C10.1486 47.151 10.2049 47.0848 10.2491 46.2993C10.3274 44.7117 10.3323 44.3748 10.4759 45.6007C10.4694 45.1408 10.4625 44.7325 10.4561 44.3589C10.4444 43.5451 10.365 42.875 10.304 42.2963C10.2563 41.7726 10.1828 41.2863 10.102 40.7431C10.0102 40.1086 9.99394 39.3226 9.95315 38.2637C9.84753 38.7214 9.78128 39.449 9.97011 40.7654C10.0457 41.1992 10.1478 41.698 10.2256 42.305C10.2581 42.5526 10.3039 42.8402 10.3373 43.1427C10.3056 43.2838 10.2664 43.3515 10.2313 43.4949C10.2085 43.0229 10.1589 42.6257 10.1313 42.3155C10.0433 41.4084 9.9695 41.0143 9.93664 40.7711C9.88724 40.3478 9.84183 40.4555 9.73376 39.1379C9.71462 38.9107 9.70562 38.2865 9.67142 37.6767C9.61957 36.7905 9.58925 35.9503 9.5233 36.5563C9.51094 36.6766 9.51672 37.2114 9.53114 37.6838C9.54416 38.1571 9.53845 38.5694 9.51305 38.4627C9.50838 38.4477 9.49842 38.1092 9.47381 37.6868C9.43114 36.9902 9.41094 36.0576 9.41717 35.9317C9.51761 34.0352 9.61221 36.0908 9.62826 34.329C9.63566 33.9393 9.65001 33.4049 9.84284 32.5655C9.88876 32.3252 9.92775 32.0213 10.0228 31.8195C9.9912 31.804 10.2868 31.7389 10.5126 31.7687C10.5475 31.7713 10.5783 31.772 10.6081 31.7717C10.7186 31.7744 10.8241 31.7352 11.0649 31.863C11.4782 32.1401 11.4791 32.3168 11.6873 32.575C11.7401 32.6441 11.8004 32.7267 11.8717 32.8403C12.0817 33.1702 12.2865 33.6536 12.4664 34.2067C12.5584 34.4891 12.6454 34.7883 12.7139 35.1016C12.9013 35.9945 12.6527 35.3415 12.2778 34.267C12.0885 33.7381 11.9001 33.0873 11.5639 32.6766C11.2323 32.2219 11.009 31.9727 10.7151 31.8986C10.6443 31.9094 10.725 31.9301 10.8719 32.0148C11.0284 32.1021 11.1878 32.2759 11.5051 32.725C11.7651 33.0488 11.951 33.6274 12.1558 34.3059C12.3615 35.004 12.6381 35.8064 12.7638 36.5314C12.8462 37.0994 12.9127 37.6804 12.9704 38.2571C13.0541 39.0942 13.1817 39.8921 13.2809 40.6161C13.4216 41.906 13.3962 43.0739 13.4589 43.6262C13.4713 43.7655 13.4798 43.8637 13.4848 43.914C13.6768 45.8879 13.6046 44.9014 13.5117 43.6218C13.4463 42.5735 13.4281 41.3954 13.4313 41.2647C13.4386 41.1737 13.6173 41.167 13.5498 40.5781C13.5223 40.3748 13.4665 40.1058 13.367 39.7428C13.2503 39.317 13.4411 41.1404 13.2552 40.0631C13.0682 38.9824 13.2141 39.3986 13.2082 39.3197C13.1967 39.1519 13.121 38.6487 13.0752 38.246C13.0464 37.9981 13.0209 37.7917 13.0188 37.7337C12.9981 37.1722 12.988 36.7587 12.9922 36.4966C12.9883 36.0853 13.0405 36.0557 13.1118 36.4784C13.1554 36.8047 13.1947 37.3867 13.1813 38.2349C13.1793 38.3803 13.1778 38.5332 13.1768 38.6941C13.3459 39.5441 13.2971 38.5877 13.328 38.2194C13.3392 38.0725 13.358 38.0188 13.3984 38.212C13.4151 38.2919 13.4357 38.4139 13.4631 38.5881C13.5807 39.3256 13.6864 39.9888 13.7527 40.5494C13.8472 41.513 13.7843 42.1669 13.7938 42.3276C13.8027 43.0752 13.8232 43.4309 13.844 43.5942C13.9083 44.0901 13.8828 42.7815 14.081 45.543C14.0823 45.5559 14.0836 45.5688 14.0848 45.5819C14.1551 46.5117 14.086 45.9812 14.0148 45.5508C13.9544 45.1862 13.9066 44.884 13.97 45.556C14.0037 45.8638 14.0444 46.3839 14.0727 47.2163C14.0901 47.6815 14.1028 48.0653 14.1387 48.3828C14.3907 50.7083 14.2955 49.0714 14.4523 49.3115C14.4719 49.3418 14.5373 49.8378 14.5702 50.0456C14.5869 50.1501 14.5952 50.1813 14.585 50.0442C14.5721 49.8744 14.535 49.4502 14.4441 48.589C14.4142 48.5388 14.3763 48.4594 14.3382 48.3616C14.3162 48.3064 14.2953 48.243 14.2771 48.175C14.2611 47.4515 14.4315 46.2296 14.3905 45.8329C14.3822 45.7185 14.3726 45.611 14.3618 45.5101C14.2563 44.3638 14.2126 44.074 14.1913 43.5654C14.1859 43.4008 14.1904 43.2071 14.2071 42.9461C14.1139 43.738 14.1332 42.4561 14.0898 41.9677C13.9441 40.6343 13.9764 41.584 13.9058 40.5277C13.8698 40.1591 13.7888 39.5406 13.6939 38.4936C13.6943 39.0192 13.7058 39.4994 13.7185 40.0129C13.647 39.5336 13.5733 39.054 13.5138 38.5736C13.5201 38.4758 13.5205 38.3461 13.5184 38.1994C13.5099 37.2443 13.2743 35.5796 13.6578 37.5836C13.6138 37.1574 13.5657 36.7695 13.5146 36.417C13.2967 35.2908 13.0146 34.6155 12.8364 34.0885C12.68 33.6573 12.5475 33.3614 12.4165 33.1496C12.3561 33.0603 12.2294 32.7216 11.939 32.3678C11.9066 32.3291 11.8736 32.2867 11.8395 32.2423C11.8714 32.3338 11.8744 32.4805 11.8176 32.4285C11.5691 32.1815 11.314 31.8117 11.0238 31.6543C10.7447 31.4923 10.5348 31.445 10.747 31.4347C10.7127 31.4283 10.6804 31.4234 10.6472 31.4194C10.3348 31.3785 10.0666 31.3986 9.95032 31.4423C9.74674 31.5086 9.69437 31.6335 9.71141 31.5867C9.72372 31.5487 9.83444 31.4412 9.94053 31.4028C10.1478 31.3229 10.354 31.3038 10.0471 31.3262C10.0076 31.3525 9.83583 31.2911 9.61421 31.5989C9.4719 31.8838 9.4399 32.1883 9.38034 32.481C9.29764 32.861 9.22207 33.262 9.21349 33.2726C9.13347 33.3561 9.19462 32.8703 9.22036 32.7474C9.27166 32.6212 9.09594 32.8272 9.03811 34.3246C9.02855 34.8424 9.01841 35.5177 9.02267 36.3948C9.15354 36.5297 9.11387 33.8667 9.26415 34.5512C9.41475 35.2839 9.22847 36.7804 9.43761 37.1024C9.40973 37.2247 9.38504 37.279 9.35275 37.3852C9.36088 37.4923 9.36866 37.5946 9.37648 37.6917C9.49674 39.6921 9.34795 39.7618 9.37994 40.4494C9.38653 40.5578 9.39828 40.6966 9.42108 40.8584C9.47681 41.2667 9.57104 41.8197 9.62914 42.3713C9.73438 43.1581 9.79027 43.919 9.79812 44.3643C9.81026 44.7974 9.82792 44.9062 9.85085 44.3639C9.86446 44.017 9.86985 43.41 9.75696 42.4348C9.85605 43.0763 9.92671 43.718 9.9377 44.3632C9.94147 44.5452 9.94456 44.7265 9.94714 44.9067C9.6705 45.0797 9.79283 44.6667 9.6789 47.6597C9.67044 47.9225 9.6532 48.2119 9.62235 48.5301C9.61051 48.652 9.59578 48.7619 9.57982 48.8631C9.50323 49.2937 9.33116 49.6227 9.38196 50.1682C9.3951 50.2859 9.41379 50.4134 9.4402 50.5598C9.3574 50.4544 9.26177 51.77 9.61084 52.64C9.73016 52.9919 9.8364 53.2658 9.85691 53.3377C10.0306 53.9138 9.79661 53.4954 9.49264 52.6784C9.19513 51.9969 9.19697 50.9214 9.2058 50.1705C9.2066 49.5747 9.37773 49.1083 9.42528 48.8465C9.47299 48.6013 9.5151 48.4158 9.55803 48.3204C9.54705 48.0263 9.54524 47.826 9.55205 47.6565C9.56865 47.2602 9.6412 47.0375 9.64631 46.2942C9.65025 45.3944 9.63412 44.9438 9.63971 44.3656C9.64152 43.954 9.64601 43.4842 9.58722 42.7156C9.40833 41.9266 9.62293 43.193 9.60893 44.3659C9.58905 45.9305 9.54856 47.4125 9.45976 44.3795C9.45958 44.3754 9.45941 44.3713 9.45923 44.3671C9.44083 43.8948 9.38665 43.2875 9.25055 42.4134C9.19463 41.981 9.09922 41.4824 8.99807 40.93C8.82206 39.9135 8.83264 38.8328 8.77269 37.7225C8.71245 36.6525 8.68683 35.5235 8.6849 34.3219C8.67255 33.7123 8.77867 32.9311 8.90244 32.3937C8.96742 32.1016 8.94377 31.8887 9.18074 31.3648C9.35999 31.0438 9.61988 30.9391 9.77013 30.8858C9.93114 30.8333 10.0503 30.8205 10.1594 30.8114C10.3741 30.7965 10.5462 30.8094 10.7131 30.8262C11.5476 30.8576 12.2107 31.6948 12.4116 31.9788C12.9583 32.6643 13.1104 33.3381 13.3199 33.9341C13.5593 34.6986 13.8302 35.3936 14.0106 36.3414C14.1046 36.9341 14.1799 37.5304 14.2455 38.1229C14.3281 38.8758 14.4565 39.6464 14.571 40.4335C14.7168 41.5584 14.6919 42.5764 14.7709 43.5173C14.8301 44.185 14.8695 44.8388 14.9425 45.4419C15.0669 46.4614 15.0467 47.4746 15.1214 48.2781C15.1856 48.8591 15.2395 49.423 15.2948 49.9768C15.3635 50.7221 15.5023 51.4071 15.5811 52.2401C15.5946 52.4737 15.7742 52.9544 15.8857 53.4646C16.0186 53.9943 16.3429 54.6908 16.6413 55.2287C16.8881 55.672 17.2553 56.0334 17.6828 56.3795C18.3516 56.955 18.8404 57.0521 19.6121 57.2675C20.0187 57.3782 20.4182 57.4467 20.7631 57.4989C21.0037 57.535 21.2461 57.5659 21.4903 57.5944C21.8905 57.642 22.4138 57.649 22.8859 57.6654C24.6861 57.7137 26.3937 57.7433 27.9731 57.7154C29.1976 57.6647 30.1389 57.6635 31.0956 57.1221C32.3136 56.6432 33.4017 56.1874 34.5166 55.6958C35.0288 55.4704 35.5223 55.2263 35.9509 54.9554C36.1656 54.8195 36.3592 54.679 36.5325 54.5273C36.7244 54.3741 36.8051 54.2103 37.2778 53.8642C37.8004 53.5209 38.2643 53.223 38.6989 52.8809C39.0237 52.6291 39.3577 52.13 39.6399 51.5804C39.8256 51.1874 39.8866 50.0427 39.8717 49.1248C39.8582 48.6438 39.7086 48.2853 39.2447 47.7062C39.3708 47.808 39.1805 47.6844 38.6727 47.5142C38.4483 47.4021 37.5986 47.4895 36.8686 47.6925C36.4552 47.7983 36.053 47.9124 35.7841 48.0476C35.6619 48.1088 35.5477 48.1611 35.4409 48.21C35.2404 48.3015 34.8468 48.4793 34.3205 48.7496C33.5296 49.1527 32.4937 49.6685 31.439 50.1698C30.9121 50.4155 30.4187 50.6311 29.9735 50.8448C28.9273 51.3913 27.6853 51.5474 27.5579 51.5503C27.3484 51.5823 27.3282 51.5685 27.5453 51.4986C27.5664 51.4891 27.595 51.4782 27.6348 51.4657C27.9116 51.6084 31.8597 49.8623 28.4323 51.0812C28.6954 51.0335 28.608 51.0863 28.3692 51.1697C28.1364 51.255 27.7095 51.3349 27.5191 51.3911C27.2166 51.4721 26.9983 51.495 26.9443 51.5048C26.0637 51.6257 25.5477 51.6426 25.1417 51.6805C24.2163 51.7214 23.814 51.558 23.2621 51.4557C22.9221 51.3868 22.5138 51.3297 21.7956 51.0926C21.2456 50.8841 20.8407 50.623 20.3197 50.2876C19.9221 50.0297 19.5367 49.6585 19.2196 49.2424ZM29.619 43.4655C29.206 43.5456 28.8348 43.6773 28.5033 43.8091C27.6196 44.183 27.0591 44.6176 26.8217 44.8677C26.4674 45.298 26.4357 45.4586 26.5262 45.3527C26.6168 45.2605 26.8255 45.0288 26.9427 44.984C27.0317 44.9422 27.0776 44.9518 27.0263 45.0642C27.0154 45.0923 26.9981 45.1287 26.9724 45.18C27.0001 45.1458 27.0269 45.1153 27.0522 45.0891C27.4104 44.7323 28.0684 44.3385 28.6246 44.1093C28.7898 44.0428 28.9531 43.9822 29.1153 43.9292C28.9489 43.9717 28.7819 44.0216 28.6119 44.0779C28.5598 44.0947 28.5063 44.1134 28.4521 44.1335C28.4512 44.1339 28.4503 44.1343 28.4494 44.1347C28.4976 44.0991 28.5457 44.0647 28.5933 44.0319C28.9268 43.8129 29.265 43.6155 29.619 43.4655ZM31.9497 10.3372C31.9814 10.6372 32.0104 10.938 32.0457 11.2465C32.0474 11.5999 32.0589 11.8563 32.1394 12.0583C32.3468 12.6219 32.3863 13.1036 32.5096 13.3272C32.6216 13.5505 32.6893 13.7447 32.7553 13.9138C32.6918 13.8137 32.6278 13.708 32.553 13.5889C32.5217 13.5159 32.4869 13.4392 32.4461 13.36C32.3103 13.1182 32.2677 12.6357 32.0608 12.089C31.9027 11.7284 31.9587 10.9956 31.9497 10.3372ZM10.1175 31.9275C10.0222 32.135 9.97677 32.3954 9.93908 32.5831C9.80999 33.2067 9.79646 33.4193 9.76723 34.3301C9.7632 34.5191 9.75665 34.7347 9.74726 34.9861C9.85227 34.7785 9.95617 34.5513 10.0618 34.3323C10.0749 34.3062 10.0881 34.2808 10.1013 34.2561C10.1052 33.5153 10.1695 33.1977 10.2739 32.6443C10.3082 32.4213 10.3758 32.0753 10.4073 32.0271C10.221 32.2885 10.1677 32.1976 10.2366 32.2096C10.2953 32.2043 10.4052 32.208 10.5296 32.2238C10.3873 32.1694 10.2268 32.1339 10.1795 32.1095C10.1585 32.1122 10.227 32.1281 10.3215 31.9807C10.3077 32.0099 10.2628 32.2044 10.2385 32.3616C10.1595 32.5388 10.2038 32.0798 10.2463 31.9402C10.1329 32.081 10.1307 32.0106 10.1755 32.0057C10.2157 31.9898 10.2657 31.9793 10.2827 31.9696C10.301 31.9602 10.2878 31.9495 10.2345 31.9421C10.197 31.9155 10.0373 32.0006 10.1429 31.8843C10.1358 31.8936 10.1274 31.9071 10.1185 31.9243C10.1182 31.9254 10.1179 31.9264 10.1175 31.9275ZM10.4146 46.4794C10.4048 46.7136 10.3808 47.1672 10.356 47.6768C10.34 48.0761 10.3047 48.5164 10.255 48.9355C10.1761 49.4734 10.0699 49.8552 10.0877 50.1588C10.0935 50.4267 10.0987 50.6227 10.1091 50.708C10.1545 51.0836 10.1807 50.7501 10.1907 50.1575C10.1865 49.8448 10.3009 49.467 10.3743 48.9483C10.4374 48.4242 10.4634 47.932 10.4757 47.6799C10.4872 47.4804 10.4958 47.4405 10.5002 47.6805C10.5033 47.8882 10.5065 48.2932 10.4527 48.9567C10.424 49.2901 10.3437 49.6021 10.3246 49.9063C10.3501 49.8845 10.3705 49.9107 10.3935 49.9128C10.4167 49.6551 10.5018 49.3685 10.5513 48.9673C10.5997 48.5431 10.6317 48.1148 10.6451 47.6841C10.6605 47.2696 10.6797 46.8269 10.6918 46.3932C10.5984 46.4549 10.5087 46.4107 10.4146 46.4794ZM29.3998 49.5194C29.6728 49.3871 30.2141 49.1375 30.8118 48.8487C31.7744 48.3726 32.9571 47.7547 33.6187 47.3802C34.1977 47.0558 34.4185 46.9171 33.8189 47.1709C33.7591 47.1969 33.6749 47.238 33.5731 47.2911C32.9705 47.606 31.6565 48.3495 30.7866 48.7957C30.5879 48.8965 30.4088 48.9825 30.2649 49.0478C29.7137 49.3008 30.2614 48.9518 29.2864 49.4454C29.2559 49.4612 29.2243 49.4775 29.1917 49.4941C29.2346 49.5019 29.2703 49.5152 29.3227 49.5194C29.346 49.5207 29.3717 49.5206 29.4027 49.5177C29.4017 49.5183 29.4007 49.5188 29.3998 49.5194ZM27.5004 50.6415C28.2095 50.5297 28.8957 50.2875 29.5368 49.9553C29.9981 49.72 30.4684 49.5017 30.9319 49.2762C30.5393 49.4143 29.9877 49.6499 29.4988 49.8781C28.9321 50.1467 28.4165 50.2914 28.3445 50.2363C28.6531 50.1332 28.9513 50.0021 29.2461 49.8543C29.3149 49.8314 29.3828 49.8081 29.4523 49.7832C29.6276 49.7201 29.8018 49.6596 29.9759 49.6006C30.5744 49.2703 30.5447 49.2532 30.9149 49.0659C31.1199 48.9614 31.456 48.7984 32.0961 48.4903C31.6029 48.6388 31.2718 48.7263 30.8347 48.8971C30.478 49.0369 30.032 49.2245 29.3544 49.5839C28.9352 49.8037 28.4352 50.0703 27.7323 50.2435C27.9341 50.1674 27.9802 50.0855 27.8995 50.0419C27.809 50.0028 27.6454 49.9663 27.1919 50.0487C26.9475 50.0973 26.522 50.1559 25.9559 50.2517C25.619 50.3167 27.0394 50.2783 27.0275 50.2557C27.2515 50.3212 26.5039 50.4724 26.737 50.533C26.7931 50.5479 27.0585 50.5357 27.2994 50.4896C27.557 50.442 27.7843 50.4237 27.8517 50.4347C27.9209 50.4488 27.0941 50.685 27.5004 50.6415ZM25.0669 50.3577C25.208 50.3296 25.0737 50.3044 24.8086 50.2437C24.5345 50.1874 24.1648 50.0427 23.5942 49.9009C23.4609 49.8714 23.328 49.8433 23.1984 49.8169C22.2078 49.5921 22.7306 49.8039 23.5681 50.0233C24.181 50.2027 24.7164 50.3727 25.0669 50.3577ZM31.9496 10.3303C31.9497 10.3326 31.9497 10.3349 31.9497 10.3372C31.9496 10.336 31.9495 10.3349 31.9494 10.3337C31.9495 10.3326 31.9496 10.3315 31.9496 10.3303ZM10.3471 42.4326C10.4703 43.0426 10.5416 43.915 10.5634 44.3581C10.5768 44.5583 10.5926 44.6723 10.6166 44.6404C10.6032 45.0876 10.5852 45.5392 10.5624 45.9861C10.5854 45.9823 10.6084 45.9742 10.6311 45.9704C10.6461 45.4325 10.6545 44.8956 10.6558 44.3573C10.6619 43.658 10.5876 42.9126 10.5087 42.2735C10.4956 42.1435 10.4803 42.0144 10.4636 41.8869C10.4369 42.0201 10.4078 42.1466 10.3782 42.288C10.3669 42.332 10.3566 42.3804 10.3471 42.4326ZM12.0643 56.413C12.9026 57.8815 12.2838 56.597 12.5129 56.8959C12.5671 56.9679 12.6493 57.0988 12.7398 57.2633C13.0067 57.7547 13.4064 58.474 13.3892 58.3323C13.1861 57.9771 12.9875 57.6093 12.7945 57.2349C12.5696 56.7997 12.3159 56.3984 12.119 56.0331C12.0699 55.9408 12.0213 55.8399 11.974 55.7361C11.9905 55.8699 12 55.9828 12.0112 56.0909C12.0234 56.1925 12.0402 56.2977 12.0659 56.4158C12.0654 56.4149 12.0648 56.4139 12.0643 56.413ZM24.1093 37.9137C23.6931 37.9141 23.505 37.9356 23.2859 37.9595C23.0314 38.0128 22.6705 37.9837 22.0081 38.4616C21.9039 38.5392 21.7936 38.618 21.6823 38.7003C21.6836 38.6994 21.6849 38.6985 21.6863 38.6976C21.7916 38.6312 21.9049 38.5614 22.0236 38.484C22.3891 38.2415 22.7796 38.1249 23.3011 38.0429C23.656 37.9865 24.019 37.9546 24.3326 37.9854C24.49 38.001 24.6276 38.0322 24.7466 38.0814C24.8797 38.1331 24.9254 38.189 25.2484 38.3599C25.5154 38.4827 25.8378 38.7555 26.2029 39.0176C26.444 39.1595 26.6319 39.54 27.3189 39.7905C27.508 39.8445 27.7159 39.8673 27.9172 39.8501C27.7092 39.8566 27.5059 39.8223 27.327 39.7631C26.6405 39.4797 26.4905 39.1135 26.243 38.9625C25.8933 38.7076 25.5732 38.4359 25.2759 38.3005C24.937 38.121 24.8817 38.0589 24.7061 38.0013C24.5463 37.9468 24.3453 37.9173 24.1093 37.9137ZM11.9275 34.0167C12.0638 34.3445 11.8357 33.2382 11.4417 32.7771C11.2154 32.4874 11.091 32.3408 11.0055 32.29C10.8786 32.2153 10.878 32.2486 10.9367 32.3182C11.0028 32.3938 11.1003 32.5358 11.3431 32.8583C11.5792 33.1397 11.7853 33.7242 11.9275 34.0167ZM36.3314 9.45122C37.2379 9.33216 36.7709 9.18611 35.5788 9.23812C34.6217 9.31519 33.2204 9.42817 31.7519 9.95579C31.6193 10.009 31.4826 10.0645 31.3471 10.1222C31.2435 10.1665 31.4732 10.0857 31.7652 9.99071C32.2926 9.81516 33.0123 9.70152 32.6103 9.81833C32.5748 9.83065 32.181 9.92092 31.7954 10.0703C31.5055 10.1821 31.2138 10.3046 31.095 10.3671C30.8252 10.5101 31.1414 10.4402 30.6976 10.6638C30.4888 10.7714 30.2052 10.9078 29.8998 11.0736C29.2793 11.4211 28.6027 11.9462 28.2724 12.4443C28.1667 12.609 28.0999 12.7561 28.0565 12.8675C28.0439 12.9054 28.1576 12.6965 28.325 12.4798C28.5253 12.2242 28.8199 11.9925 28.8503 11.9658C29.2162 11.6558 29.5994 11.3745 29.9497 11.1647C30.5101 10.8369 30.9555 10.6139 31.0631 10.5662C31.5725 10.352 31.7695 10.312 31.8813 10.2965C31.9694 10.2861 32.0068 10.2957 32.1144 10.2695C32.5652 10.1554 33.3689 9.95383 33.4271 9.94658C34.5415 9.81026 32.9183 10.0363 31.9249 10.4115C31.5776 10.5454 31.2949 10.6651 31.1897 10.7178C30.4257 11.1136 30.7097 11.0407 30.0862 11.4136C29.8457 11.576 29.3859 11.8553 28.8281 12.4667C28.8015 12.4979 28.7228 12.586 28.6479 12.6978C28.4694 12.9607 28.2574 13.4788 28.2155 13.6434C28.184 13.8297 28.1831 13.5905 28.7063 12.7372C28.8245 12.5739 29.0228 12.3704 29.2862 12.1554C29.0474 12.371 28.8553 12.5853 28.7444 12.763C28.1065 13.963 28.2305 14.4484 28.2324 14.3292C28.2485 14.2654 28.3794 13.5471 28.8294 12.8203C29.0856 12.4455 29.6655 11.9593 30.213 11.645C30.8083 11.3145 31.4628 11.0398 32.074 10.8042C33.0025 10.4674 33.9247 10.333 34.2158 10.2664C34.8271 10.1456 33.8828 10.2183 34.2497 10.1205C34.6535 10.0125 35.2044 9.90862 35.6492 9.82802C36.1212 9.74237 36.4865 9.70192 36.4153 9.64204C36.3144 9.56178 36.0168 9.53636 35.6184 9.57002C34.8548 9.63573 33.7219 9.86622 32.8551 10.0426C32.9808 9.95831 33.0222 9.89411 33.2708 9.7888C32.9944 9.89048 34.6183 9.60882 35.6115 9.51192C36.0028 9.46926 36.2962 9.4581 36.3314 9.45171C36.3314 9.45155 36.3314 9.45138 36.3314 9.45122ZM29.8862 24.4743C30.251 25.2693 30.4038 25.6863 30.5593 26.0457C30.7409 26.4872 30.9045 26.8469 31.1427 27.7848C31.7124 29.2035 30.8635 26.4017 30.686 25.999C30.6834 25.9916 30.6811 25.9849 30.679 25.979C30.3619 25.0739 30.2412 24.6914 30.0383 24.2249C29.9841 24.0424 29.8527 23.5863 29.6056 22.9622C29.7046 23.4673 29.7672 23.9535 29.8391 24.3318C29.8549 24.3788 29.8706 24.4263 29.8862 24.4743ZM31.6898 10.7004C31.0064 11.0262 31.4953 10.8428 32.0183 10.6575C32.3233 10.5488 32.6762 10.4662 32.7099 10.4631C33.0227 10.4428 32.5746 10.5597 32.0577 10.7612C30.8123 11.2497 28.897 12.119 31.6898 10.7004ZM36.2418 46.6691C36.4296 46.6189 36.5239 46.5895 36.5787 46.5656C36.7086 46.511 36.6146 46.4865 37.0087 46.3805C37.3863 46.2831 38.4537 46.0854 39.1343 46.373C39.3719 46.4648 39.5755 46.5248 39.5626 46.5066C39.5572 46.4905 39.3548 46.4121 39.1566 46.3177C38.6985 46.0996 38.0938 46.116 37.9095 46.103C37.816 46.0978 37.8208 46.0823 37.9996 46.0579C38.1823 46.0522 38.5234 45.9479 39.2132 46.178C39.3084 46.2154 39.4344 46.2535 39.5921 46.308C39.4777 46.2397 39.526 46.2359 39.4769 46.1937C39.388 46.1634 39.3079 46.136 39.2411 46.1089C38.1597 45.7546 37.3161 46.0397 36.4905 46.2226C36.4197 46.2408 36.3486 46.2593 36.2772 46.2783C36.3511 46.269 36.4247 46.2604 36.4981 46.2521C36.9829 46.1964 37.4887 46.159 37.9711 46.1876C37.3951 46.2979 37.0789 46.3074 37.0464 46.31C37.0464 46.3101 37.0464 46.3102 37.0464 46.3102C36.8788 46.3471 36.7083 46.3928 36.5467 46.4413C35.7027 46.6929 35.0573 47.0413 36.2418 46.6691ZM22.996 47.9924C22.8622 48.0929 23.39 48.14 23.9918 48.1548C24.3443 48.1747 24.6638 48.1743 24.8816 48.1737C25.4648 48.1838 26.3011 48.1768 25.9845 48.1201C25.4461 48.1315 24.6753 48.1498 24.0036 48.0648C23.4152 48.0211 23.0102 47.987 22.996 47.9927C22.996 47.9926 22.996 47.9925 22.996 47.9924ZM32.7355 34.3795C33 35.739 33.0746 35.7687 32.8562 36.9703C32.7907 37.18 32.7327 37.4512 32.557 37.7995C32.6374 37.7404 32.7151 37.676 32.788 37.6093C32.88 37.3553 32.9225 37.1604 32.9627 36.9995C33.118 35.8842 33.0661 35.8042 32.7792 34.1711C32.7787 34.1694 32.7782 34.1676 32.7776 34.1658C32.729 34.0106 32.7862 34.0889 32.7914 34.0333C32.8065 33.9941 32.7118 33.7286 32.4559 33.2116C32.5093 33.4773 32.6517 33.8386 32.7101 34.194C32.723 34.2608 32.7296 34.3197 32.7355 34.3795ZM28.393 38.1503C28.5033 38.4111 28.6007 38.7003 28.8112 38.9974C29.0658 39.3011 29.2646 39.2843 29.4141 39.3209C29.5673 39.3426 29.6909 39.3402 29.7958 39.3336C30.004 39.3186 30.1329 39.2827 30.1689 39.2569C30.2047 39.2297 30.1472 39.2134 29.9706 39.1991C29.8819 39.1911 29.7627 39.1839 29.6068 39.1612C29.452 39.1203 29.248 39.1578 28.9925 38.8753C28.8187 38.6225 28.7098 38.3039 28.5568 37.9975C28.5461 37.9772 28.5299 37.9527 28.5285 37.9563C28.5477 37.9538 28.4713 37.9919 28.7006 38.0346C28.9696 37.9582 28.8797 37.8947 28.9048 37.8988C28.9245 37.8282 28.9232 37.9621 28.9326 38.0133C28.9392 38.081 28.9442 38.1528 28.9351 38.2338C28.944 38.3843 28.9835 38.4407 29.0498 38.2635C29.0739 38.1874 29.0858 38.113 29.0928 38.0396C29.0962 38.0031 29.0983 37.9662 29.0999 37.9332C29.0967 37.9204 29.1194 37.8035 29.0893 37.9564C29.0814 37.9744 29.0864 37.9924 29.024 38.0765C28.9885 38.1182 28.9144 38.2035 28.7523 38.2298C28.59 38.2487 28.503 38.1923 28.4554 38.1629C28.3191 38.0523 28.3643 38.0664 28.3541 38.0632C28.3578 38.0701 28.376 38.1092 28.393 38.1503ZM20.7212 49.1779C20.7982 49.2403 20.8726 49.2941 20.9435 49.3411C22.2884 50.1727 21.724 49.8195 20.9694 49.3019C20.5301 49.0036 20.1656 48.484 20.0228 48.2358C20.3595 48.722 20.6954 49.044 21.0078 49.2436C21.7839 49.7513 22.157 49.8923 22.2212 49.9105C22.2415 49.917 22.2408 49.916 22.2219 49.9084C22.1434 49.8877 21.6247 49.6323 21.0258 49.2163C20.4204 48.8245 19.9579 48.0228 19.6605 47.4637C19.5092 47.181 19.4246 46.9717 19.4108 46.8797C19.2934 46.6782 19.1866 46.4271 19.1177 46.172C19.0404 45.9137 19.044 45.6893 19.0256 45.6421C19.019 45.5942 18.9154 45.7189 18.9748 46.1982C18.9828 46.2492 18.9924 46.3031 19.0044 46.36C19.1887 47.0468 19.1902 46.7685 19.1952 46.8119C19.3254 47.1213 19.4553 47.3428 19.5523 47.529C19.8583 48.039 19.8424 48.3606 20.7212 49.1779ZM28.8007 21.424C28.8376 21.5343 28.8452 21.3424 28.9665 21.6908C29.0802 22.022 29.2861 22.7676 29.3655 22.8887C29.3699 22.8961 29.3739 22.9016 29.3773 22.905C29.3834 22.9109 29.3842 22.903 29.3806 22.8831C29.3417 22.7044 28.9268 21.3331 28.7749 20.8903C28.6039 20.4037 28.4741 20.4228 28.8007 21.424ZM31.9942 32.8483C32.0301 32.9859 32.0629 33.0882 32.0903 33.1596C32.1828 33.3723 32.1973 33.3058 32.1831 33.1338C32.1467 32.7394 32.0625 31.7155 32.0316 31.5122C32.0185 31.4328 32.0064 31.3588 31.995 31.29C31.756 29.9685 31.7965 30.5169 31.8652 31.3103C31.9112 32.0057 32.0313 32.8803 31.9942 32.8483ZM20.806 43.5472C20.6905 43.5835 20.5811 43.6263 20.4788 43.6784C19.349 44.2465 19.1267 44.6869 19.2485 44.6276C19.3695 44.5833 19.8896 44.2514 20.6241 43.9876C21.0752 43.8236 21.6566 43.8198 22.1946 43.8634C22.495 43.847 22.807 43.8517 23.1056 43.8769C22.4876 43.8312 21.6754 43.9146 21.4545 43.9928C21.2324 44.1023 21.5319 43.8919 23.1627 44.0968C23.4144 44.1177 23.756 44.4571 24.1788 44.8904C24.179 44.8907 24.1793 44.8909 24.1796 44.8912C24.1793 44.8909 24.1791 44.8906 24.1788 44.8903C23.6667 44.3112 23.4133 44.1172 23.2884 44.0693C23.167 44.0191 23.1889 44.0182 23.2808 44.0387C23.4683 44.0559 23.9128 44.4838 23.9203 44.4917C23.9973 44.4988 23.9615 44.4023 23.8458 44.25C23.7291 44.1043 23.532 43.8767 23.2189 43.7961C22.084 43.4497 20.4115 43.8297 20.8096 43.5462C20.8084 43.5466 20.8072 43.5469 20.806 43.5472ZM27.9339 16.5757C27.9298 16.0364 27.9281 15.1995 27.9619 14.4172C28.0155 13.6538 28.4087 12.8817 28.5422 12.6264C28.6318 12.4706 28.635 12.4313 28.4894 12.5908C28.4415 12.6462 28.3764 12.7358 28.3002 12.8613C28.0749 13.3584 27.896 13.9054 27.8826 14.4123C27.8738 15.1281 27.8971 15.855 27.9339 16.5757ZM15.9098 55.2549C15.6685 54.7023 15.4333 54.1399 15.308 53.5888C15.2212 53.134 15.0411 52.6875 15.0051 52.2833C14.9801 51.9602 14.9313 51.6403 14.8838 51.3059C14.9762 52.7986 14.8427 51.8208 14.7465 51.3337C14.6233 50.7105 14.8022 51.889 14.8249 52.2968C14.8294 52.3656 14.8356 52.4092 14.8345 52.41C14.8137 52.4065 14.7898 52.3569 14.7719 52.3008C14.7311 52.1702 14.7006 52.018 14.7181 52.3048C14.7138 52.505 14.8419 52.8965 15.0279 53.6489C15.0409 53.7093 15.0571 53.7717 15.0755 53.8357C15.0546 53.7748 15.0351 53.7132 15.0182 53.651C14.9025 53.2021 14.6986 52.7904 14.6298 52.3114C14.6137 52.1866 14.5934 52.0614 14.5713 51.9358C14.5873 52.0684 14.6002 52.1942 14.6083 52.3131C14.675 52.9149 14.8484 53.3142 14.9005 53.6763C15.0681 54.4231 15.24 54.8802 15.567 55.6263C15.3307 54.9127 15.447 55.1532 15.7548 55.7186C15.9764 56.1316 16.4151 56.6459 16.9207 57.0136C17.4566 57.3907 16.3262 56.3293 16.0441 55.5587C15.9904 55.439 15.9442 55.3328 15.9076 55.2505C15.9083 55.252 15.909 55.2534 15.9098 55.2549ZM18.5409 46.6071C18.6844 47.0089 18.9086 47.3204 19.1322 47.6226C19.1559 47.6618 19.1795 47.7004 19.2036 47.7396C19.3938 48.0476 19.5875 48.3576 19.8102 48.6534C19.8166 48.7127 19.8174 48.7665 19.8323 48.8327C20.1845 49.2729 20.0816 49.0719 20.197 49.1926C20.1969 49.1927 20.1968 49.1928 20.1966 49.1929C20.3762 49.3665 20.5637 49.5124 20.7523 49.6313C21.2281 49.9265 21.63 50.1734 22.0668 50.3393C22.5482 50.5043 22.9782 50.5982 23.4218 50.7082C23.8437 50.8132 24.3065 51.0132 24.9102 51.0758C24.9152 50.9831 24.9202 50.8903 24.9251 50.7975C24.526 50.787 24.1293 50.6888 23.7408 50.5917C23.6425 50.5887 23.5438 50.5865 23.4473 50.5889C23.3266 50.5912 23.2054 50.5929 23.084 50.5936C22.7508 50.4963 22.4197 50.3962 22.0954 50.2599C21.9797 50.2105 21.8716 50.1519 21.7661 50.0906C21.438 49.9433 21.0689 49.7312 20.7931 49.5695C20.7785 49.5609 20.7642 49.5523 20.7503 49.5439C20.2063 48.982 20.4268 49.1357 20.8735 49.4475C21.2148 49.6604 21.693 49.9812 22.1355 50.1486C22.5969 50.3076 22.9853 50.3765 23.0025 50.35C23.0163 50.3285 22.6547 50.2476 22.1636 50.0705C21.7978 49.9268 21.3584 49.6509 20.9261 49.3676C20.1248 48.8429 19.6509 47.9139 19.4237 47.6067C19.4029 47.5757 19.3855 47.5503 19.3708 47.5296C19.3561 47.5088 19.371 47.5691 19.383 47.6313C19.3999 47.7192 19.4091 47.8093 19.3124 47.6739C19.2473 47.5762 19.1084 47.3713 18.9465 46.9411C18.8991 46.7905 19.0084 46.6521 18.9555 46.2018C18.9453 45.9703 18.8436 45.6155 19.0171 45.13C19.026 45.1123 19.035 45.0946 19.0441 45.0767C19.0784 45.0114 19.033 45.0093 18.9338 45.0651C18.7383 45.1627 18.4301 45.658 18.4943 46.2865C18.5031 46.3905 18.5178 46.4979 18.5409 46.6071ZM32.1576 49.2007C30.9494 49.6331 32.6795 48.8092 34.0089 48.1416C35.1526 47.576 36.0463 47.1976 34.4069 47.8451C35.3237 47.2768 35.147 47.3516 34.1181 47.7309C34.0265 47.7633 34.6909 47.4028 34.6319 47.4286C34.3645 47.5351 34.0879 47.6611 33.8269 47.7865C33.1635 48.104 32.5895 48.3813 32.5494 48.3138C32.3051 48.4419 32.0755 48.5614 31.8306 48.6885C32.7391 48.3359 31.7332 48.9085 31.0357 49.3204C30.9077 49.3954 30.7898 49.4646 30.6964 49.5227C30.4206 49.6942 31.0977 49.3928 30.8664 49.5386C30.7793 49.5931 29.8339 50.0034 29.8139 50.057C29.7761 50.1575 30.3008 50.0202 31.2016 49.6698C31.2745 49.6407 31.3501 49.6096 31.4264 49.5777C31.4264 49.5778 31.4265 49.5779 31.4265 49.5779C31.6732 49.4525 31.9124 49.3278 32.1576 49.2007ZM19.1315 45.4404C19.1369 45.396 19.1386 45.3396 19.1371 45.2784C19.1324 44.8169 19.0809 44.1038 19.315 45.2345C19.3988 45.5109 19.4702 45.9171 19.7157 46.4053C19.6753 46.2568 19.6469 46.1028 19.6286 45.9519C19.5482 45.7102 19.4945 45.4638 19.4314 45.2057C19.3736 44.9689 19.3408 44.7083 19.3125 44.4471C19.0584 43.7919 19.0133 42.8597 19.039 42.1699C19.0536 41.6962 19.1692 41.3458 19.1988 41.2417C19.2367 41.1398 19.1437 41.2542 18.9914 41.7945C18.9751 41.8558 18.959 42.0118 18.9553 42.1691C18.947 42.5103 18.9467 42.8531 18.8954 42.1685C18.8924 42.1222 18.8899 42.0723 18.8884 42.017C18.8882 42.0187 18.888 42.0205 18.8879 42.0222C18.8866 42.0723 18.8862 42.1204 18.8865 42.1684C18.928 43.7178 18.9502 43.9823 19.1041 45.2866C19.1132 45.3349 19.1221 45.3864 19.1315 45.4404ZM29.391 48.1832C29.6806 48.0952 29.8955 48.0316 30.0469 47.9884C30.4671 47.8596 30.3813 47.8426 30.0301 47.8846C29.6875 47.9157 29.1041 48.059 28.4699 48.179C28.0017 48.2643 27.5095 48.3489 27.0476 48.4135C25.8563 48.5935 24.9161 48.6011 25.505 48.6304C25.562 48.6339 26.2665 48.6004 27.0578 48.4938C27.5445 48.433 28.062 48.3487 28.4872 48.2811C29.0754 48.1827 29.4836 48.1067 29.391 48.1832ZM31.1069 38.4796C31.0827 38.4912 31.0603 38.4992 31.0376 38.505C29.5469 38.7832 29.4661 38.6776 29.5968 38.816C29.7415 38.9543 30.9401 38.7975 31.0934 38.7299C31.0948 38.7296 31.0961 38.7294 31.0973 38.7292C31.2959 38.6736 31.205 38.7274 31.1037 38.7714C30.9987 38.8101 30.8993 38.8466 31.1147 38.816C31.1399 38.812 31.1693 38.8057 31.2032 38.7948C31.2418 38.7832 31.3812 38.7266 31.536 38.5724C31.6929 38.4218 31.862 38.1878 32.0682 37.9557C32.3309 37.6666 32.4384 37.2386 32.543 36.8844C32.6886 36.3446 32.6545 35.8906 32.6572 35.8408C32.5871 35.0557 32.49 36.206 32.4637 35.9793C32.4284 35.4255 32.3651 34.6829 32.2394 34.3496C32.2021 34.253 32.1643 34.1833 32.1331 34.1488C32.0169 34.0249 32.0651 34.1538 32.1473 34.3801C32.2785 34.748 32.4169 35.5692 32.4173 35.7562C32.4341 36.4267 32.3459 36.5588 32.2568 36.806C32.2151 36.9119 32.1729 37.0398 32.1156 37.2079C32.0319 37.4524 31.9464 37.6264 31.837 37.7578C31.5972 38.0413 31.4233 38.3435 31.2034 38.4965C31.089 38.5642 31.1517 38.4555 31.1069 38.4796ZM27.1912 39.0294C27.3302 39.1213 27.4396 39.1545 27.5062 39.162C27.632 39.1739 27.6183 39.1493 27.5236 39.1034C27.3681 39.0509 27.1175 38.7368 26.685 38.3563C26.3657 38.105 26.0254 37.7807 25.6111 37.576C25.4469 37.4795 25.1766 37.296 24.9698 37.2353C24.7593 37.1636 24.5951 37.1448 24.516 37.1386C24.0164 37.1228 24.0296 37.1798 24.2917 37.2176C24.5517 37.2494 25.107 37.4113 25.5317 37.7475C25.9246 37.9556 26.2579 38.2765 26.5735 38.5091C26.8441 38.7207 27.0416 38.9378 27.1912 39.0294ZM26.3928 50.8081C25.4502 50.8783 26.2468 50.9867 27.377 50.8081C28.1643 50.7195 29.1492 50.3783 29.6146 50.1139C29.6503 50.0953 29.6836 50.0779 29.7144 50.0616C29.6959 50.0667 29.6594 50.0799 29.6078 50.1C29.2673 50.253 28.1934 50.616 27.3499 50.697C26.9309 50.7811 26.5684 50.7856 26.3928 50.8081ZM21.8955 43.408C20.4551 43.5691 22.0049 43.4554 23.2285 43.745C23.397 43.7811 23.5446 43.8645 23.6695 43.9542C23.9721 44.1132 24.0227 44.1474 23.9452 44.0506C23.863 43.9672 23.6467 43.7246 23.2481 43.6398C23.1438 43.6202 23.0338 43.6024 22.9213 43.5866C22.0553 43.501 23.1606 43.4248 21.8955 43.408ZM28.0763 20.6851C28.1204 20.8422 28.5135 22.1234 28.8867 23.0647C29.2847 24.0691 29.5502 24.7088 29.0328 23.17C29.0257 23.1496 29.0083 23.1012 28.9819 23.0297C28.7912 22.5291 28.2708 20.8776 27.9834 19.8485C27.86 19.417 27.7835 19.094 27.7611 19.0192C27.6471 18.6189 27.7118 19.2059 27.8707 19.8793C27.9347 20.1534 28.0077 20.4404 28.0763 20.6851ZM26.8684 43.6611C26.6275 43.8746 26.3925 44.0938 26.2291 44.2985C25.9562 44.6732 25.903 44.8151 26.2969 44.4635C26.2977 44.4626 26.2985 44.4617 26.2993 44.4608C25.6343 45.3855 25.3601 45.7903 25.0705 45.9045C25.0808 45.8624 25.2415 45.8364 25.2663 45.853C25.3009 45.8596 25.2933 45.8469 25.288 45.8266C25.2595 45.7561 25.266 45.7165 25.2626 45.682C25.256 45.6543 25.2478 45.6255 25.237 45.5936C25.1387 45.2728 25.0586 45.0139 24.9892 44.9169C24.9217 44.8133 24.897 44.8364 24.8829 44.878C24.8386 44.9704 24.8905 45.088 24.5496 44.6419C24.9304 45.1356 24.8992 45.5451 25.011 45.7771C25.0405 45.8583 25.086 45.9215 25.1361 45.9766C25.209 46.0431 25.1669 46.0244 25.1754 46.0329C25.495 45.7967 25.6456 45.6436 26.1992 44.8063C26.2485 44.7387 26.3257 44.6257 26.4382 44.4993C26.8589 44.0199 27.7487 43.4779 27.9035 43.3656C28.0958 43.2138 27.2773 43.4415 26.8684 43.6611ZM27.7899 12.9795C27.5692 13.4476 27.4204 13.942 27.4064 14.3829C27.3958 15.3702 27.4772 15.7777 27.5682 14.3929C27.5787 14.2678 27.601 14.1306 27.6355 13.9819C27.9615 12.7739 28.3793 11.9575 27.7899 12.9795ZM9.59581 49.0617C9.61952 48.9979 9.64172 48.9349 9.66121 48.8718C9.72079 48.6675 9.77679 48.4569 9.82826 48.2369C9.81817 48.4531 9.80336 48.669 9.78411 48.885C9.74519 49.2859 9.62193 49.7197 9.64143 50.1647C9.64248 50.1983 9.64346 50.2313 9.64439 50.2636C9.64309 50.2313 9.64173 50.1983 9.6403 50.1648C9.61589 49.7208 9.73472 49.2838 9.76893 48.8834C9.7749 48.8065 9.78039 48.7292 9.78527 48.652C9.77676 48.7317 9.76757 48.8087 9.75799 48.8822C9.66825 49.3931 9.55836 49.7989 9.53545 49.8827C9.503 49.9763 9.48171 49.6941 9.59528 49.0648C9.59546 49.0638 9.59564 49.0627 9.59581 49.0617ZM4.43555 42.8033C4.50212 42.6352 4.56618 42.4143 4.61817 42.1765C4.72994 41.7202 4.79992 41.1609 4.76137 41.2659C4.67156 41.5778 4.55172 41.8776 4.48527 42.1404C4.29295 42.8434 4.22335 43.3296 4.43555 42.8033ZM29.0152 50.7291C29.3603 50.5989 29.5952 50.4805 29.7524 50.3945C30.1417 50.1802 30.0297 50.1711 29.6946 50.2768C29.368 50.3835 28.834 50.5791 28.3014 50.7115C29.1139 50.5134 27.7902 51.1274 29.0152 50.7291ZM7.79437 56.365C7.90841 56.5288 8.01878 56.6981 8.13027 56.8956C7.73697 56.3084 7.6469 56.2305 7.79437 56.365ZM28.1167 21.5796C28.1588 21.7491 28.3641 22.4683 28.6119 23.1657C28.8259 23.7555 29.0189 24.3271 29.0946 24.4837C29.2359 24.7677 29.1863 24.5987 29.1124 24.3099C29.0371 24.0182 28.9119 23.5638 28.7572 23.1123C28.6545 22.8095 28.5572 22.51 28.4649 22.2567C28.421 22.1429 28.0401 21.2655 28.1181 21.5844C28.1176 21.5828 28.1172 21.5812 28.1167 21.5796ZM9.45644 52.029C9.45795 52.0246 9.46054 52.0263 9.46396 52.0331C9.46132 52.0309 9.45926 52.0321 9.45644 52.029ZM21.1794 1.82318C21.1981 1.81603 21.2087 1.81414 21.2087 1.81835C21.2006 1.81908 21.1857 1.82383 21.1794 1.82318ZM31.7216 37.3323C31.6531 37.3969 31.5871 37.4542 31.527 37.4927C31.3447 37.664 31.1901 37.8528 31.0844 37.9702C30.9762 38.0925 30.9336 38.122 30.9382 38.133C30.9421 38.1445 30.9517 38.1606 30.9575 38.1814C30.9675 38.1927 30.9689 38.2573 31.1402 38.1127C31.1656 38.0998 31.3556 37.8403 31.5939 37.5499C31.6547 37.4775 31.7012 37.3786 31.7216 37.3323Z" fill="#E8E8E8"/>
</svg>
