<svg width="38" height="50" viewBox="0 0 38 50" fill="none" xmlns="http://www.w3.org/2000/svg">
<path d="M17.8748 43.0826C18.0205 43.2506 18.1608 43.3684 18.3415 43.476C18.5046 43.5727 18.6733 43.6529 18.8305 43.7067C18.975 43.7628 19.174 43.7795 19.126 43.776C19.4992 43.7425 19.8105 43.634 19.8389 43.595C20.1974 43.3092 20.6477 42.801 20.8208 42.4762C20.9969 42.1527 21.1206 41.61 21.3452 41.0067C21.4847 40.6454 21.6127 40.4015 21.6367 40.2886C21.6577 40.1762 21.66 40.2123 21.6185 40.0982C21.5124 39.8579 21.4493 39.6885 21.3957 39.5888C21.374 39.5431 21.3459 39.5188 21.3979 39.5757C21.4259 39.603 21.4837 39.6595 21.6067 39.7103C21.7272 39.763 21.9125 39.7771 22.0318 39.7481C21.8854 39.7789 21.7369 39.8672 21.6552 39.9693C21.5222 40.1263 21.3669 40.3409 21.1121 40.585C20.8708 40.8194 20.417 41.1397 19.8519 41.1575C19.6369 41.1662 19.4189 41.1702 19.1759 41.1575C19.0528 41.1504 18.9254 41.1404 18.7679 41.113C18.6886 41.0987 18.601 41.0808 18.4867 41.0432C18.3697 40.9959 18.2286 40.9748 17.9664 40.7296C17.8967 40.646 17.709 40.5152 17.5739 40.0998C17.4631 39.6894 17.4306 39.4334 17.3831 39.3392C17.3316 39.2122 17.2791 39.1172 17.2656 39.1015C17.2618 39.0944 17.2686 39.1157 17.3427 39.1669C17.4102 39.2178 17.5925 39.2827 17.7416 39.2648C17.8349 39.2556 17.8708 39.2244 17.8841 39.2141C17.6074 39.4048 17.3226 39.9269 16.288 40.0049C16.1883 40.0036 15.9351 40.0306 15.6437 40.0193C15.4917 40.0109 15.3184 40.0012 15.0713 39.9213C14.8426 39.8529 14.4214 39.6159 14.2439 39.178C14.1205 38.9486 13.9273 38.3264 13.9488 37.9033C13.9442 37.0635 14.0108 36.1795 14.0584 35.42C14.073 34.9307 14.1908 34.3089 14.2024 34.0535C14.2268 33.4531 14.2942 32.8141 14.3803 32.2481C14.4486 31.7627 14.4717 31.2007 14.6296 30.5195C14.7197 30.1653 14.7877 29.5207 14.9521 28.9689C15.2139 28.0249 15.5177 27.0834 15.8218 26.194C16.0387 25.6173 16.1794 25.3423 16.3016 24.952C16.4206 24.584 16.5383 24.2401 16.6518 23.8944C17.0611 22.6345 17.0864 22.7403 17.2012 22.3878C17.2111 22.3563 17.2208 22.3251 17.2303 22.294C17.5109 21.3717 17.5933 20.7732 17.7776 20.078C17.8724 19.7183 17.9616 19.368 18.0507 19.0042C18.1588 18.5665 18.2639 18.1015 18.3321 17.6965C18.3857 17.3736 18.4116 17.0197 18.4847 16.5865C18.5275 16.356 18.5589 16.2471 18.5768 16.1279C18.5956 16.0109 18.6073 15.8847 18.6137 15.7493C18.6264 15.4773 18.6189 15.1791 18.6031 14.8767C18.5523 13.9772 18.5647 12.9384 18.4217 12.4184C18.1763 11.6687 17.9201 10.9582 17.6331 10.1848C17.5491 9.95331 17.4734 9.72446 17.4154 9.51349C17.3575 9.26296 17.1337 8.96095 16.9874 8.71814C16.8375 8.47688 16.751 8.31172 16.7036 8.20104C16.581 7.91603 16.8166 8.03108 16.4125 7.56118C16.3182 7.46255 16.2244 7.3793 16.136 7.30595C14.796 6.24556 16.0037 7.41986 15.2991 6.99809C15.0463 6.83404 14.7766 6.69402 14.4874 6.57164C13.9098 6.31134 13.6122 6.13794 13.1667 6.0103C12.2806 5.75474 11.2508 5.40027 10.5578 5.30613C9.75443 5.23914 8.86785 5.21678 8.125 5.29989C7.90992 5.32809 7.69451 5.34795 7.51114 5.3688C7.69342 5.3386 7.90786 5.30941 8.12112 5.27207C8.5435 5.19749 9.03771 5.16842 9.52198 5.1557C9.02812 5.14696 8.44353 5.16139 8.11053 5.19604C7.63002 5.24126 7.46297 5.23653 8.10065 5.12517C8.22262 5.10092 8.39137 5.07601 8.6103 5.05557C8.43036 5.05797 8.25724 5.064 8.09406 5.07788C7.81537 5.10531 7.53307 5.11514 7.29405 5.14346C7.27962 5.16181 7.22148 5.18458 7.14616 5.21533C6.78352 5.34977 5.9241 5.60947 5.46733 5.82701C5.25958 5.92441 5.09957 6.01307 5.05967 6.04773C4.9779 6.12035 5.24567 6.00419 5.4991 5.90445C5.71951 5.81785 5.97563 5.7333 5.97199 5.73676C5.964 5.75535 5.77171 5.82264 5.51029 5.93172C5.27837 6.02832 4.96563 6.17855 4.57579 6.35401C3.59649 6.72853 2.64875 7.45256 2.30676 8.03748C2.13332 8.30509 2.03789 8.50701 2.00983 8.56339C1.67989 9.34266 1.80635 8.60339 1.61252 9.30087C1.49363 9.96659 1.65025 9.97833 1.67226 10.0822C1.7357 10.2365 1.71013 10.4384 1.92645 11.062C1.94362 11.1089 1.96264 11.1584 1.98373 11.2104C2.34243 11.6027 2.44926 11.7363 2.72596 12.0724C2.8362 12.2015 2.94693 12.3414 3.10261 12.5013C3.18308 12.5826 3.164 12.4757 3.20064 12.5093C4.18744 13.2471 3.37941 12.7618 3.37481 12.7666C3.38121 12.8116 3.47905 12.9165 3.63307 13.0237C4.03975 13.3106 4.8173 13.6465 5.02423 13.736C5.03359 13.7403 5.04296 13.7446 5.05236 13.7489C5.64391 14.015 6.26063 14.2439 6.77905 14.2678C7.61627 14.2863 8.38188 14.2809 9.18723 14.215C9.5852 14.195 9.97905 14.1698 10.3521 14.1042C10.9589 13.9841 11.6626 13.815 12.1227 13.5072C12.483 13.2227 12.7712 12.8819 12.892 12.4416C13.0071 12.0398 13.1339 11.6858 13.1258 11.2927C13.1239 10.8635 13.1304 10.4186 13.1036 9.97849C13.0916 9.82547 13.0758 9.62201 12.9945 9.42714C12.8113 9.00909 12.425 8.42369 11.923 8.18091C11.3246 7.9072 10.7012 7.70162 10.2446 7.64152C10.0511 7.6149 9.88482 7.60197 9.75857 7.59523C8.90084 7.60176 9.35111 7.50007 8.89935 7.557C8.80305 7.61769 8.71732 7.68434 8.64935 7.75794C8.4221 7.99378 8.13853 8.20355 7.93518 8.50093C7.85548 8.63167 7.7938 8.94711 7.81623 9.27092C7.83537 9.51839 7.82884 9.78895 7.85328 10.0608C7.91699 10.2109 7.96976 10.2902 8.01293 10.344C8.16973 10.5209 8.19928 10.7727 8.70407 11.0669C8.78051 11.1032 8.8573 11.1447 8.93551 11.1857C9.20937 11.3383 9.50311 11.4189 9.87174 11.3444C10.2632 11.2886 10.7639 11.1881 10.7434 11.0808C10.8491 10.7268 10.8172 10.1027 10.8499 9.68445C10.8823 10.5045 10.9076 10.7733 10.833 11.1208C10.8224 11.2357 10.5754 11.3637 10.0805 11.4163C10.0427 11.4216 9.97623 11.4295 9.88429 11.4421C9.61364 11.4931 9.2131 11.4468 8.67863 11.1194C8.39217 10.9858 8.13958 10.701 7.94041 10.3891C7.76915 10.098 7.78436 9.6409 7.72186 9.28231C7.66659 8.91713 7.71292 8.58027 7.80052 8.41167C7.9142 8.21675 7.99652 8.12772 7.92673 8.15689C7.88826 8.17558 7.80655 8.24421 7.72299 8.36028C7.57456 8.58193 7.54451 8.97528 7.59102 9.29811C7.6366 9.65325 7.66905 9.95384 7.67081 9.98051C7.65564 10.2618 7.5304 9.85216 7.46085 9.31383C7.42531 9.08438 7.4263 8.82071 7.49881 8.57216C7.45693 8.79645 7.46401 9.06088 7.50605 9.28799C7.48232 8.76133 7.57155 8.48718 7.65316 8.31399C7.76322 8.11317 7.74447 8.08247 7.79736 8.00962C7.85226 7.94147 7.99735 7.82662 8.48521 7.62947C8.50784 7.62009 8.52675 7.61341 8.54327 7.60846C8.65104 7.582 8.65159 7.60708 8.88367 7.55933C8.93311 7.52054 8.59488 7.6036 8.87158 7.49094C9.16626 7.37139 9.75248 7.45968 9.83985 7.40008C9.90845 7.35506 9.62 7.31272 9.29875 7.3409C8.97511 7.35856 8.64286 7.51101 8.60272 7.54227C8.60209 7.54335 8.60147 7.54442 8.60084 7.5455C8.57325 7.55962 8.54879 7.57356 8.52764 7.58643C8.33181 7.70469 8.37043 7.66265 8.50598 7.5559C8.78577 7.29689 9.55471 7.25722 9.6034 7.26012C10.0743 7.21894 9.89235 7.16832 10.3082 7.17137C10.3965 7.17454 10.5107 7.1843 10.6585 7.20863C10.9996 7.25783 11.6494 7.4849 12.1382 7.71825C12.4171 7.85078 12.5975 8.02305 12.7125 8.13084C13.0588 8.48019 12.561 7.89208 12.8016 8.12467C13.0454 8.36236 13.249 8.70904 13.4315 9.05136C13.4829 9.14903 13.5186 9.17397 13.5477 9.19994C13.5632 9.21512 13.5769 9.23156 13.5886 9.26164C13.7457 9.74386 13.681 9.7998 13.6732 9.86845C13.6535 9.93243 13.6369 9.98942 13.6518 10.347C13.6606 10.5571 13.6877 10.9805 13.7175 11.2864C13.7393 11.7055 13.7567 11.9512 13.805 11.2855C13.805 11.2828 13.8051 11.2801 13.8051 11.2774C13.8052 11.2801 13.8053 11.2828 13.8054 11.2855C13.8312 11.7778 13.6741 12.2688 13.5837 12.6275C13.5582 12.7282 13.5263 12.8285 13.4879 12.9271C13.5312 12.8315 13.5683 12.7323 13.5992 12.6317C13.6654 12.4213 13.7505 12.1954 13.8178 11.9311C13.7449 12.2456 13.6739 12.4557 13.6336 12.6409C13.4823 13.2551 13.2166 13.6641 12.8593 14.0061C12.7975 14.0644 12.7351 14.1173 12.6731 14.1663C12.0207 14.6098 11.5733 14.604 10.9895 14.8286C10.4852 14.9953 10.6134 14.9853 11.01 14.8946C11.4189 14.7758 12.0026 14.683 12.6918 14.1887C13.0706 13.8864 13.3674 13.4823 13.4468 13.3456C13.5812 13.1661 13.1711 13.9206 13.065 13.986C12.9679 14.0876 12.8608 14.1807 12.7544 14.2637C12.2642 14.6161 11.9291 14.654 11.6601 14.7614C11.2511 14.9039 10.906 15.006 10.553 15.0935C10.09 15.2028 9.69223 15.2569 9.26837 15.3069C9.05257 15.3345 8.7521 15.3777 8.44399 15.4011C7.89782 15.4442 7.3478 15.4628 6.78859 15.4746C5.87854 15.4587 5.23628 15.1996 4.55527 14.9388C4.00761 14.7148 3.48177 14.4681 2.94062 14.1457C2.40942 13.8307 1.97216 13.3575 1.67405 13.0211C1.33112 12.6457 1.00621 12.2466 0.721712 11.7793C0.479969 11.393 0.277301 10.891 0.172685 10.4803C-0.0881399 8.9552 0.443621 8.07555 0.931332 7.18474C1.04038 7.00717 1.15926 6.84063 1.28454 6.68537C2.3695 5.41902 3.37457 5.1733 3.9214 4.91094C3.931 4.9066 3.9406 4.90221 3.95016 4.8978C4.32345 4.72389 4.62786 4.56813 4.90041 4.4454C5.56275 4.16074 5.88562 4.02554 6.78704 3.78552C6.78753 3.7854 6.78802 3.78527 6.78851 3.78515C7.2442 3.67598 7.57212 3.67088 7.89148 3.62427C8.86375 3.5124 9.76529 3.54998 10.6938 3.62964C11.8936 3.80986 12.578 4.11657 13.2647 4.30127C13.3877 4.33823 13.5104 4.37395 13.6341 4.40904C14.2915 4.58367 14.9053 4.89836 15.1498 4.97399C15.3667 5.05295 15.5299 5.12323 15.6204 5.1675C16.1357 5.41106 16.6748 5.79588 17.0666 6.1104C17.4524 6.39831 17.8653 6.82729 18.1416 7.25971C18.4097 7.71685 18.863 8.09389 19.1619 9.0037C19.4289 9.83284 19.8701 10.8945 20.1723 11.8302C20.5022 13.135 20.3878 13.9197 20.4631 14.7677C20.4957 15.3778 20.5175 16.0128 20.3816 16.6608C20.359 16.7704 20.3401 16.8522 20.3313 16.9017C20.2716 17.2503 20.2304 17.6493 20.1651 17.9798C20.0256 18.6613 19.9041 18.9944 19.8603 19.2021C19.8421 19.2837 19.8251 19.3591 19.8092 19.4294C19.5658 20.505 19.6899 20.2723 19.4185 21.2833C19.2592 21.8648 19.1593 21.9544 19.1358 22.0307C19.0268 22.38 18.9865 22.5898 18.9525 22.7863C18.9198 22.9738 18.8931 23.1467 18.8159 23.4076C18.6019 24.1349 18.3558 24.8604 18.1345 25.5346C17.9902 25.9994 17.7469 26.5275 17.644 26.7971C17.3292 27.7045 17.0404 28.5767 16.7835 29.4749C16.6451 29.9229 16.616 30.3312 16.4637 30.9741C16.3856 31.2844 16.3396 31.7228 16.2894 32.163C16.2641 32.3802 16.2287 32.3746 16.2079 32.5051C16.2064 32.5137 16.2051 32.523 16.2038 32.5332C16.1297 33.1462 16.226 32.8668 16.1689 33.4825C16.1517 33.6981 16.1389 33.9164 16.1299 34.1376C16.0836 34.7824 16.0004 35.0783 15.9847 35.5186C15.9378 36.2634 15.8786 36.9205 15.8684 37.6226C15.8667 37.7168 15.8414 37.7754 15.8256 37.9045C15.8184 37.941 15.8143 37.986 15.821 38.0403C15.8448 38.1763 15.8566 38.1628 15.9939 38.435C15.9514 38.3162 15.836 38.1932 15.7602 38.1503C15.6832 38.1036 15.6534 38.1036 15.6624 38.1046C15.7189 38.1206 15.9293 38.1087 16.2921 38.1037C16.0852 38.1619 16.3678 38.0714 16.6452 37.8045C16.884 37.6001 17.2 37.437 17.5823 37.4067C17.8654 37.3785 18.1784 37.4826 18.3652 37.6141C18.5587 37.7455 18.6706 37.8823 18.7586 38.0025C18.929 38.2439 19.0125 38.4501 19.0867 38.6308C19.2263 38.98 19.2632 39.2799 19.3102 39.4741C19.3197 39.5156 19.3325 39.5543 19.3475 39.5891C19.2899 39.3958 19.2397 39.3778 19.2972 39.4142C19.0637 39.2051 19.0725 39.265 19.0796 39.2473C19.0945 39.2455 19.1421 39.2499 19.1988 39.255C19.3457 39.2688 19.5534 39.2722 19.7734 39.2667C19.7202 39.271 19.7133 39.3115 19.8197 39.2212C19.9183 39.1376 20.0558 38.9725 20.2253 38.7756C20.6269 38.3086 21.1561 38.0483 21.6521 37.9481C22.0205 37.8536 22.4589 38.0478 22.6173 38.2049C22.7985 38.3645 22.8745 38.4917 22.9415 38.5976C23.1332 38.9243 23.2108 39.1769 23.2891 39.3449C23.4861 39.742 23.5368 40.3444 23.406 40.7661C23.2862 41.1904 23.1295 41.4544 23.0629 41.6493C22.8831 42.1116 22.7793 42.6798 22.4524 43.3268C22.0188 44.0884 21.5844 44.5368 20.986 45.0448C20.3646 45.5075 19.8037 45.5505 19.3412 45.6171C18.3987 45.6575 17.9371 45.3619 17.3946 45.0723C17.3284 45.0331 17.264 44.9923 17.2001 44.9489C16.4842 44.4791 16.0769 43.6629 16.082 43.7222C16.0762 43.7171 16.0726 43.7142 16.0701 43.7124C16.061 43.6977 15.9295 43.6856 15.915 43.6982C15.8739 43.7081 15.8638 43.7085 15.4913 43.6904C15.2595 43.6807 15.0118 43.6786 14.7616 43.6784C14.7494 43.6787 14.8489 43.6238 14.1425 44.1553C14.1693 44.1448 14.2263 44.0785 14.2274 44.067C14.2296 44.0623 14.2243 44.0717 14.2127 44.1132C14.1869 44.1713 14.2296 44.1751 14.0621 44.508C13.8908 44.7973 13.614 44.9221 13.4433 44.9627C13.2624 45.0057 13.1283 45.0008 12.9919 44.9806C12.1573 44.7708 12.0076 44.4083 11.7509 44.217C11.5236 44.005 11.3368 43.8523 11.1569 43.7574C11.2876 43.8176 11.2336 43.7859 11.2065 43.7851C11.1712 43.7786 11.1202 43.7716 11.0654 43.7658C10.9552 43.7541 10.8308 43.7463 10.7036 43.7407C10.4481 43.7298 10.181 43.7276 9.9124 43.729C9.37462 43.7324 8.82673 43.7506 8.28417 43.7779C8.03415 43.7898 7.80048 43.8357 7.49172 43.9104C7.31852 43.9525 7.23234 43.9897 7.09914 44.076C6.97041 44.1608 6.8227 44.2898 6.6747 44.4382C6.65374 44.4618 6.63264 44.4778 6.59825 44.6314C6.5658 44.7782 6.5457 45.0142 6.50021 45.2895C6.4531 45.5306 6.51233 45.8687 6.60972 46.0481C6.76989 46.3537 7.20472 46.7167 7.67765 46.9867C8.24284 47.3129 8.82898 47.6481 9.37 47.905C9.68953 48.0524 9.91973 48.1276 10.2047 48.1464C10.4989 48.167 10.9239 48.1464 11.3353 48.1532C11.5062 48.1552 11.6713 48.1407 11.8676 48.1114C12.0947 48.0779 12.3771 48.0226 12.6828 47.9876C13.1968 47.9231 13.487 47.8108 14.1076 47.4592C14.5636 47.2535 14.758 47.2308 15.0172 47.1364C15.262 47.0542 15.4933 46.9647 15.7216 46.8616C15.9967 46.7382 16.2342 46.5926 16.5182 46.3978C16.5141 46.4155 16.6631 46.2162 16.7559 45.9447C16.7652 45.907 16.6997 46.1082 16.7526 46.2703C16.7698 46.2689 16.6218 46.0889 16.3896 46.0023C16.3075 45.9683 16.2009 45.9437 16.0415 45.9247C15.7387 45.8912 15.4372 45.8666 15.2088 45.8308C14.8127 45.7716 14.5714 45.7191 14.1271 45.7259C13.4471 45.7499 13.3097 45.8628 12.7749 46.0619C12.3332 46.2137 11.8944 46.3072 11.2234 46.3872C10.999 46.4136 10.7706 46.433 10.5495 46.4509C10.1815 46.4737 9.77638 46.5774 9.15628 46.6145C9.12716 46.6157 9.10985 46.6162 9.06907 46.6167C9.04536 46.6167 9.03588 46.6172 8.98783 46.6152C8.96092 46.6137 8.92967 46.6123 8.87364 46.6032C8.87021 46.5911 8.76605 46.6298 8.47902 46.4318C8.3369 46.3364 8.08596 46.0017 8.15817 45.6128C8.23107 45.2608 8.38906 45.1584 8.45788 45.091C8.62713 44.9641 8.60913 44.9943 8.64311 44.9732C8.66741 44.9617 8.68597 44.9541 8.70195 44.9478C8.73609 44.9347 8.74936 44.9308 8.76238 44.9266C8.78743 44.9186 8.81239 44.9118 8.82434 44.9088C8.85421 44.9011 8.87948 44.8954 8.90078 44.8908C8.98769 44.8722 9.05657 44.8601 9.1285 44.8471C9.26865 44.8221 9.40436 44.7991 9.53749 44.7758C9.80393 44.7292 10.0641 44.6816 10.3083 44.6276C10.4342 44.5996 10.5581 44.5694 10.6359 44.5447C11.265 44.3711 11.6776 44.3435 12.0919 44.2749C12.5148 44.2126 12.9539 44.1715 13.5305 44.143C13.8287 44.1285 14.155 44.1178 14.4952 44.1071C15.512 44.0815 16.5965 44.1217 17.496 44.1103C17.597 44.1092 17.6972 44.1078 17.796 44.1058C18.6278 44.0972 19.3958 44.0055 20.3186 43.9481C20.5652 43.9384 20.8463 43.8625 21.3028 43.8028C21.6083 43.767 21.9221 43.6986 22.2629 43.6135C22.9529 43.4333 23.8336 43.0563 24.3927 42.709C24.7856 42.4455 25.1672 42.1009 25.5001 41.7286C25.8733 41.3105 26.0586 41.0556 26.2916 40.5515C26.6284 39.8422 26.8883 39.006 27.0905 38.1843C27.1861 37.7979 27.2471 37.3693 27.3416 36.8884C27.4675 36.2407 27.4367 35.3013 27.4508 34.4362C27.4631 33.9795 27.2961 33.3471 27.2368 32.6029C27.185 31.9732 27.1373 31.3409 27.0628 30.7608C26.9738 30.0153 26.8141 29.364 26.6924 28.4889C26.612 27.8986 26.6017 27.2772 26.5412 26.8344C26.446 26.1194 26.4084 25.4353 26.3823 24.7525C26.3504 23.5779 26.3394 22.5697 26.4264 21.2657C26.6637 20.1254 26.9188 19.3769 27.2279 18.44C27.2805 18.2871 27.3351 18.1331 27.3931 17.977C27.5375 17.5895 27.7124 17.2321 27.8963 16.8931C28.2165 16.3237 28.5375 15.9014 28.8707 15.4473C29.2817 14.8766 29.8232 14.2914 30.2994 13.8143C30.8716 13.235 31.4788 12.7293 32.0039 12.2517C32.3787 11.9061 32.7102 11.4939 33.0217 11.0346C33.1986 10.7589 33.215 10.7044 33.2278 10.2713C33.2233 10.3875 33.2983 10.5362 33.3382 10.5713C33.378 10.6128 33.377 10.5983 33.3284 10.5693C33.2573 10.5104 32.9902 10.4455 32.603 10.3067C32.445 10.2461 32.2933 10.183 32.153 10.1248C31.8661 10.0095 32.2054 10.0546 31.6841 9.86791C31.5684 9.83017 31.4239 9.78328 31.2423 9.72811C30.9597 9.64337 30.627 9.55565 30.2504 9.49666C29.8273 9.43024 29.3217 9.34432 28.7357 9.26061C28.5766 9.23805 28.4195 9.21249 28.2572 9.18521C27.7621 9.10128 27.2734 9.01945 26.7784 8.94037C26.3928 8.87591 25.9887 8.84974 25.5151 8.78588C24.7648 8.69065 23.8832 8.70258 23.0577 8.75936C22.7759 8.78101 22.4521 8.83266 22.1477 8.89555C21.9818 8.9268 21.7128 9.05348 21.412 9.21126C21.1983 9.32273 21.0631 9.44867 20.8401 9.73737C20.9371 9.57875 20.8845 9.62668 20.844 9.86336C20.8754 9.69297 20.8144 9.62459 20.7963 9.6038C20.7172 9.52206 20.6806 9.53998 20.7755 9.56118C20.8645 9.58551 21.0237 9.60231 21.265 9.6713C21.4114 9.71002 21.4249 9.70124 21.4927 9.67113C21.5373 9.65811 21.6413 9.52861 21.8099 9.07352C21.8104 9.07327 21.8155 9.05982 21.8312 9.01907C21.8403 8.99686 21.8484 8.97193 21.881 8.90698C21.9004 8.87238 21.9164 8.83036 21.998 8.73218C22.0439 8.68298 22.1039 8.6065 22.2745 8.52332C22.4372 8.43144 22.7788 8.42821 22.9456 8.52003C23.3587 8.7113 23.5159 9.05404 23.5904 9.2346C23.668 9.43256 23.6994 9.57814 23.7319 9.70966C23.7925 9.96914 23.8401 10.1668 23.9057 10.3268C23.9602 10.4582 24.0026 10.5183 24.0706 10.5797C23.9667 10.558 24.3804 10.6515 24.6831 10.5666C24.6798 10.6082 25.0612 10.289 25.3327 9.94891C25.4891 9.78289 25.5129 9.55232 25.6055 8.94714C25.6137 8.91308 25.6156 8.78118 25.609 8.54927C25.6093 8.52795 25.6087 8.51772 25.6121 8.47104C25.6168 8.43599 25.6092 8.4452 25.6366 8.32929C25.6456 8.2968 25.6577 8.25608 25.6855 8.19745C25.6997 8.16811 25.7181 8.13409 25.7455 8.09445C25.7621 8.07145 25.7659 8.06414 25.803 8.02158C25.8461 7.97347 25.9056 7.91899 25.988 7.87147C26.1494 7.76954 26.4171 7.74557 26.5825 7.80456C26.7517 7.8572 26.8435 7.94756 26.8572 7.95787C26.9187 8.01251 26.9504 8.05455 26.9744 8.08764C27.0646 8.22681 27.0441 8.21234 27.0619 8.2473C27.0725 8.27389 27.0758 8.28388 27.0799 8.29568C27.0878 8.31917 27.0917 8.33277 27.0953 8.34511C27.1086 8.39206 27.1147 8.41927 27.121 8.44605C27.1334 8.49978 27.1432 8.54571 27.1529 8.59156C27.172 8.68266 27.1897 8.7696 27.2077 8.85594C27.2433 9.0273 27.2793 9.19637 27.3174 9.35007C27.3763 9.52466 27.3833 9.56057 27.7215 9.71079C27.6668 9.69793 27.7993 9.72546 27.9213 9.70801C27.8405 9.71652 27.8193 9.77519 27.8936 9.68017C27.9594 9.595 28.0433 9.43736 28.1581 9.23931C28.2127 9.14671 28.2654 9.03937 28.3148 8.92445C28.3396 8.86698 28.3636 8.80745 28.3877 8.74499C28.4195 8.66688 28.4102 8.6694 28.4951 8.47659C28.5185 8.43336 28.5281 8.40179 28.6089 8.30101C28.6411 8.26847 28.7122 8.16135 28.9273 8.07602C29.0549 8.02521 29.2498 8.01241 29.4006 8.0617C29.5509 8.10589 29.6648 8.19911 29.7156 8.25204C29.9068 8.47287 29.8802 8.52103 29.9066 8.57237C29.9229 8.62464 29.9284 8.65135 29.9348 8.68139C29.9546 8.78326 29.9582 8.837 29.964 8.8949C29.9737 9.00554 29.9783 9.09778 29.9835 9.1879C29.9919 9.3559 30.008 9.56617 30.0175 9.60072C30.0797 9.87116 30.1984 10.0831 30.3992 10.2855C30.2806 10.1888 30.3018 10.2514 30.4293 10.2285C30.5481 10.2145 30.7115 10.1649 30.8543 10.0983C30.9271 10.0649 30.9998 10.0236 31.0391 9.99512C31.1068 9.94446 31.1461 9.90246 31.2264 9.76751C31.3051 9.63741 31.413 9.40522 31.6043 9.16609C31.6861 9.06242 31.7501 8.92967 31.8001 8.7512C31.8569 8.56179 31.8624 8.39174 31.9639 8.00235C32.1314 7.47401 32.3082 7.06275 32.497 6.61202C32.6811 6.19218 32.8813 5.90368 33.0089 5.6368C33.2446 5.1715 33.5656 4.86357 33.6766 4.6741C33.8447 4.41232 33.9935 4.13393 34.066 3.90869C34.0879 3.81606 34.0809 3.79491 34.0358 3.71522C34.0438 3.72298 33.9435 3.62315 33.7808 3.54544C33.6164 3.46184 33.4187 3.39105 33.1586 3.29566C32.734 3.13679 32.3364 2.98598 31.9792 2.90065C31.4694 2.77232 31.0786 2.63858 30.6526 2.53106C30.2654 2.43464 29.754 2.37184 29.259 2.31278C28.8571 2.26527 28.4571 2.22099 28.0693 2.1896C27.6134 2.14829 27.2953 2.07646 26.9994 2.06044C26.4915 2.02757 25.9436 2.01374 25.4141 2.01151C24.3225 1.9895 23.3176 1.97614 22.2776 1.99162C21.8197 2.00069 21.4968 2.02779 21.2051 2.15598C21.3591 2.10519 21.534 1.91652 21.5716 1.81126C21.6183 1.70295 21.6101 1.67334 21.612 1.67691C21.6101 1.68953 21.6197 1.7989 21.647 1.93419C21.5727 1.67612 21.5396 1.75212 21.6366 1.80841C21.7232 1.87373 21.8677 1.95769 22.0252 2.03699C22.3462 2.1998 22.7207 2.3507 23.1379 2.54844C23.4969 2.72265 24.0575 2.81053 24.7389 2.93208C25.1083 3.00481 25.6128 3.05223 26.109 3.13958C26.6609 3.23899 27.1985 3.28674 27.7997 3.33456C28.4275 3.38397 29.0242 3.4975 29.5513 3.57944C30.1217 3.67039 30.7133 3.6919 31.4127 3.79233C31.9235 3.87693 32.4065 3.94164 32.9651 4.04753C33.5041 4.16085 33.9526 4.31568 34.3578 4.40237C34.8128 4.49504 35.1008 4.65616 35.3565 4.7435C35.6094 4.83324 35.9154 4.91293 36.2329 5.04211C36.4322 5.12535 36.6387 5.21445 36.8078 5.2784C36.8151 5.28113 36.822 5.28374 36.8283 5.28622L36.7916 5.27848C36.8107 5.28685 36.9343 5.3131 36.9933 5.34315C37.0588 5.37295 37.0985 5.40254 37.124 5.42726C37.1741 5.47726 37.1721 5.51115 37.1445 5.53188C37.0991 5.57617 36.8852 5.55507 36.7388 5.5889L36.7514 5.59155C36.7166 5.59349 36.6793 5.59231 36.6418 5.58858C36.47 5.5088 36.3053 5.42018 36.136 5.33106C36.0061 5.264 35.8714 5.20412 35.7325 5.14674C35.5088 5.22389 35.4079 5.25998 35.2241 5.23221C35.045 5.21457 34.8212 5.07785 34.2797 4.95806C34.1315 4.93324 33.9614 4.89656 33.7649 4.85173C32.7937 4.62702 33.5462 4.91145 33.0198 4.84048C32.9727 4.83483 32.9135 4.82772 32.8449 4.82098C32.4984 4.7876 31.8935 4.75846 31.3044 4.70534C30.3317 4.65641 29.3614 4.59786 29.7396 4.51272C29.6367 4.52019 29.5374 4.52643 29.4383 4.53112C29.3421 4.53574 29.2464 4.53936 29.1483 4.54253C28.6717 4.48453 28.2033 4.42575 27.7369 4.4065C27.1378 4.3827 26.5299 4.35264 25.9317 4.26693C25.4702 4.20128 25.0062 4.17742 24.5206 4.1015C23.9079 4.00582 23.2479 3.95494 22.6043 3.67718C22.497 3.62963 22.3866 3.58351 22.275 3.53742C21.9095 3.38586 21.8678 3.43893 21.481 3.26369C21.0595 3.02984 20.5542 2.90991 20.3233 2.18525C20.294 2.01842 20.2637 1.83998 20.2721 1.62681C20.278 1.51978 20.2915 1.40014 20.352 1.26319C20.4082 1.12733 20.5498 0.975531 20.7091 0.917958C20.9645 0.813619 21.2748 0.737074 21.5733 0.704338C21.8912 0.66912 22.0695 0.651776 22.2678 0.632337C22.4729 0.613212 22.6983 0.5943 23.1169 0.598788C23.9264 0.61097 23.9068 0.701844 25.0106 0.632321C24.7586 0.582941 24.9993 0.575942 25.4356 0.582773C25.8685 0.585743 26.4929 0.610261 27.1174 0.666937C27.5408 0.705835 27.9221 0.798107 28.1993 0.823174C28.3669 0.840172 28.5164 0.856902 28.641 0.870354C28.7169 0.878468 29.045 0.894495 29.4445 0.925077C29.9184 0.960639 30.5046 1.0157 30.9259 1.12876C30.9609 1.1381 30.9976 1.14838 31.0349 1.15956C31.4039 1.26634 31.8707 1.44925 32.3204 1.58219C32.7741 1.71061 33.2125 1.89255 33.6459 2.04778C33.68 2.05993 33.7165 2.07254 33.754 2.08542C34.2518 2.29261 34.6769 2.22141 35.2548 2.97692C35.2602 2.98577 35.2656 2.99476 35.2708 3.00387C35.4848 3.34956 35.5391 3.91072 35.3496 4.3522C35.2803 4.52151 35.201 4.67799 35.1208 4.83205C35.0381 4.99148 34.9224 5.20158 34.7913 5.413C34.4876 5.86013 34.271 6.12375 34.2252 6.26085C34.2072 6.29865 34.1926 6.32784 34.182 6.34779C33.8131 7.01333 34.1767 6.26828 33.9239 6.70345C33.8328 6.8586 33.7516 7.00017 33.6909 7.13638C33.5125 7.54036 33.3192 7.98507 33.1896 8.37682C33.1034 8.70907 33.0242 9.44262 32.5852 9.96047C32.4225 10.1261 32.2611 10.6765 31.759 11.0206C31.433 11.2385 31.1373 11.3532 30.7859 11.4352C30.4527 11.4935 29.9772 11.5913 29.5094 11.168C29.1939 10.8589 28.9451 10.4496 28.8239 10.0321C28.7295 9.68902 28.7962 10.182 28.7865 10.1382C28.7567 10.0544 28.7327 9.97426 28.7131 9.8984C28.6186 9.40652 28.6353 9.24467 28.6151 9.08679C28.609 9.01712 28.6032 8.96852 28.6016 8.9557C28.6013 8.95028 28.6004 8.95126 28.6105 8.98284C28.6156 8.99732 28.6244 9.02515 28.6488 9.07044C28.6862 9.11988 28.6977 9.2144 28.9457 9.33793C29.1974 9.45781 29.4976 9.31558 29.5329 9.27611C29.6123 9.21791 29.6331 9.18491 29.6485 9.16679C29.6791 9.1264 29.6849 9.11055 29.6881 9.10246C29.6943 9.08498 29.6906 9.08251 29.6866 9.08067C29.6772 9.07888 29.6639 9.08177 29.6652 9.0554C29.6734 9.01054 29.6435 9.04979 29.5981 9.14293C29.5441 9.24701 29.4465 9.51566 29.2382 9.87121C29.1587 10.0008 29.071 10.1798 28.9207 10.3933C28.7808 10.5931 28.493 10.9113 28.0524 10.9559C27.8181 10.976 27.5727 11.0038 27.2315 10.8758C26.7248 10.731 26.134 10.1322 26.0519 9.67238C25.9542 9.34584 25.8967 9.15238 25.8704 9.15015C25.8966 9.11462 25.8991 9.03771 25.8878 8.9412C25.8822 8.89328 25.873 8.8397 25.8618 8.78778C25.8562 8.76194 25.8498 8.73573 25.8446 8.71773C25.8429 8.71116 25.8371 8.69605 25.8461 8.72378C25.8514 8.73573 25.8472 8.73737 25.8833 8.80358C25.8968 8.82612 25.9141 8.85622 25.958 8.90377C25.9947 8.93499 25.9618 8.92984 26.1109 9.01805C26.2302 9.09753 26.539 9.09817 26.6821 8.97694C26.8438 8.84433 26.8125 8.84017 26.8455 8.79727C26.8652 8.76247 26.8763 8.73537 26.8845 8.71316C26.9 8.67029 26.9058 8.63867 26.908 8.62711C26.9207 8.54492 26.9152 8.55802 26.9168 8.54927C26.9284 8.70079 26.9605 8.96483 26.9286 9.18412C26.9257 9.21144 26.9232 9.23548 26.9206 9.25436C26.8042 10.0095 26.8178 10.0413 26.3159 10.7825C26.2926 10.8117 26.2679 10.8429 26.2412 10.8767C26.048 11.1205 26.5004 10.7125 26.2817 10.9638C25.9754 11.2773 25.7125 11.6681 24.9629 11.8533C24.5025 11.8854 24.0067 12.0336 23.2845 11.5624C23.2742 11.5541 23.2642 11.5458 23.2544 11.5375C23.0403 11.3417 22.8871 11.2506 22.6943 10.8335C22.6797 10.7999 22.6654 10.7644 22.6513 10.7264C22.5937 10.5795 22.5194 10.2885 22.4644 10.029C22.4361 9.90078 22.4053 9.77826 22.3789 9.71421C22.3485 9.64222 22.3551 9.68444 22.4101 9.70921C22.532 9.77985 22.7837 9.74907 22.8664 9.68391C22.9593 9.62588 22.983 9.58659 23.0035 9.5626C23.0387 9.5146 23.0416 9.50236 23.0469 9.49311C23.0543 9.4775 23.051 9.48478 23.0484 9.49292C23.042 9.51129 23.0313 9.54317 23.0187 9.57615C22.9804 9.68802 22.9838 9.71804 23.0624 9.59434C23.0844 9.55405 23.1182 9.48059 23.1073 9.52213C23.1206 9.48238 23.0936 9.54512 23.0694 9.59724C22.8697 10.0204 22.6458 10.5385 22.16 10.8166C21.8432 11.0118 21.3598 11.1034 20.8868 10.9588C20.8015 10.9325 20.647 10.9179 20.4012 10.8555C20.2498 10.8117 20.0158 10.7328 19.8082 10.4859C19.6538 10.2877 19.4911 9.98734 19.5848 9.57354C19.625 9.48091 19.5991 9.27175 19.8183 8.94874C19.8392 8.92029 19.861 8.89051 19.8837 8.85947C20.0482 8.64899 19.9603 8.58445 20.3081 8.27624C20.4501 8.15881 20.6061 8.05934 20.7674 7.97971C21.0714 7.83555 21.4029 7.66454 21.866 7.57683C22.2023 7.52268 22.5473 7.47542 22.9544 7.44587C23.0237 7.44134 23.0951 7.43685 23.1665 7.43248C23.9858 7.38822 24.8094 7.36033 25.6949 7.46007C26.0951 7.50979 26.5415 7.53403 26.9929 7.60444C27.6452 7.70105 28.3118 7.81646 28.9415 7.9216C29.109 7.94814 29.2745 7.97768 29.4383 8.00904C29.9619 8.11203 29.8641 8.16935 30.4946 8.3097C30.5469 8.32141 30.6034 8.33436 30.6647 8.34884C30.773 8.36489 31.5275 8.53242 32.0507 8.69295C32.156 8.72357 32.254 8.75651 32.3395 8.78857C32.4604 8.83186 32.7414 8.95453 33.0481 9.07653C33.2691 9.1708 33.6343 9.23433 33.9873 9.44744C34.105 9.52019 34.2438 9.6173 34.3553 9.76608C34.4696 9.91238 34.5297 10.1204 34.5238 10.2733C34.5219 10.3573 34.5193 10.4271 34.5171 10.475C34.478 11.1416 34.43 11.3555 34.2352 11.6783C34.2082 11.7192 34.1826 11.7549 34.1582 11.7876C33.6584 12.4096 33.9977 11.8128 33.4004 12.7968C33.2532 12.9017 33.0759 13.0591 32.8949 13.2001C32.6743 13.3706 32.4675 13.5185 32.3382 13.5496C32.1388 13.8992 31.6791 14.1336 31.1995 14.6765C31.1972 14.6792 31.1948 14.6819 31.1925 14.6847C30.6988 15.2455 30.5168 15.8241 30.2097 15.7994C30.1566 15.8804 30.05 16.0353 29.9236 16.2254C29.6043 16.6952 29.1955 17.359 29.1329 17.4961C29.1238 17.5129 29.1152 17.5292 29.1074 17.5441C28.8287 18.0994 28.9146 17.7672 28.7177 18.2357C28.6951 18.2951 28.7257 18.2792 28.6768 18.4469C28.655 18.5227 28.6175 18.6367 28.5564 18.8116C28.4644 19.0585 27.9731 20.5962 27.8012 21.4381C27.7716 21.787 27.768 22.1322 27.7635 22.1769C27.6887 23.6816 27.6818 22.337 27.7229 21.4282C27.7662 21.1509 27.8518 20.8165 27.8644 20.7093C27.8982 20.6372 27.9316 20.5678 27.9669 20.4916C28.2339 19.6346 27.9857 20.0938 27.8514 20.4811C27.7711 20.7168 27.6702 21.1273 27.6233 21.4158C27.6083 21.589 27.6018 21.7914 27.5834 21.9144C27.5616 22.083 27.423 21.972 27.4687 21.4649C27.3958 22.0044 27.3962 21.2605 27.3445 21.4711C27.2634 21.7097 27.2438 24.1921 27.3316 24.2031C27.3237 23.7405 27.3198 23.1644 27.3287 22.6964C27.4444 22.1973 27.7172 23.3549 27.7806 24.697C27.7959 24.9992 27.8004 25.3108 27.7903 25.6187C27.7724 26.6415 27.5596 25.4138 27.7378 26.6694C27.7828 26.9232 27.8146 27.2779 27.8674 27.7375C27.8404 27.3617 27.8372 27.0209 27.7931 26.6618C27.7863 26.6054 27.7798 26.5485 27.7736 26.4911C27.8058 26.4719 27.8227 26.5429 27.8365 26.6558C27.8665 26.8789 27.8558 27.246 27.89 27.4609C27.9172 27.6268 27.9113 26.6015 27.9975 27.4839C27.9644 27.7778 27.9766 28.0373 28.0184 28.3205C28.0782 28.7514 28.2501 29.2428 28.3721 30.0245C28.2937 29.6741 28.2035 29.3235 28.1146 28.9847C28.3995 31.114 27.4956 26.2209 28.1543 30.3378C28.0804 29.8397 27.9866 29.343 27.889 28.8532C27.8827 29.1012 27.6676 28.744 27.6758 28.9648C27.6973 29.4345 27.8322 30.0554 27.9142 30.6477C27.9341 30.7867 27.9504 30.9242 27.9631 31.0568C27.9914 31.3602 27.9322 31.1762 27.9347 31.2017C27.9706 31.6169 28.0198 31.5202 28.0552 31.8854C28.0693 32.0329 28.0838 32.2709 28.0979 32.5329C28.1292 33.1002 28.2333 33.7547 28.2451 33.8949C28.319 34.4388 28.3348 33.5148 28.3417 33.5632C28.4186 33.797 28.4544 34.2132 28.4606 34.444C28.4659 34.5539 28.4766 34.6178 28.5001 34.6066C28.499 34.5554 28.4981 34.5024 28.4973 34.4443C28.5028 33.9129 28.3192 33.2006 28.2695 32.519C28.2085 31.6833 28.1487 30.9021 28.1308 30.619C28.1234 30.4803 28.1341 30.4613 28.1695 30.6138C28.2194 30.8248 28.3035 31.3649 28.4089 32.3651C28.42 31.3029 28.5576 31.3735 28.6961 32.4844C28.7216 32.6879 28.7581 32.9255 28.806 33.2151C29.0163 34.6322 28.8571 33.9237 28.8214 34.4468C28.8155 34.4899 28.8094 34.5408 28.8032 34.6017C28.7973 34.7013 28.736 36.7205 28.7216 36.8635C28.655 36.7983 28.5439 37.0592 28.457 37.1102C28.4334 37.1243 28.4124 37.1239 28.3962 37.0981C28.3811 37.0736 28.3702 37.027 28.3628 36.9501C28.3718 36.8841 28.4397 36.06 28.3217 36.3419C28.268 36.4847 28.1133 36.8672 28.0589 36.7926C28.0684 36.8715 28.0767 36.9526 28.0828 37.0358C28.0885 37.1306 28.0954 37.2251 28.1021 37.3177C28.0178 37.82 27.9532 38.135 27.8789 38.3779C27.772 38.7298 27.6786 38.936 27.5185 39.2979C27.5582 39.2795 27.8786 38.728 27.5561 39.6137C27.5373 39.6578 27.4822 39.6853 27.2945 40.121C27.1125 40.5358 26.9755 40.78 26.9119 40.8525C26.879 40.8903 26.8648 40.8842 26.8681 40.8312C26.8708 40.7683 26.899 40.6367 26.9404 40.4284C26.8914 40.5597 26.8416 40.6812 26.7911 40.7939C26.5198 41.4316 26.2352 41.7381 25.8991 42.0877C25.5582 42.4303 25.1997 42.7479 24.6608 43.114C24.5201 43.207 24.3286 43.313 24.1178 43.4227C24.2874 43.4223 24.4974 43.3648 24.7377 43.23C25.0498 43.0458 25.4636 42.7198 25.9624 42.1447C26.0847 42.0022 26.2133 41.848 26.3368 41.6801C26.4193 41.6469 26.4771 41.6446 26.5608 41.6052C26.3644 41.8604 26.1781 42.0494 26.0277 42.2034C25.0709 43.0811 25.5378 42.6691 24.7945 43.3159C24.7623 43.3412 24.7228 43.3698 24.6817 43.3982C24.4279 43.6252 22.6999 44.275 23.3176 44.1707C23.4705 44.162 24.5177 43.6801 24.4165 43.7714C24.4073 43.8095 23.1179 44.3827 22.9873 44.3882C22.6481 44.464 22.5122 44.4597 22.4653 44.4434C22.4297 44.4309 22.4413 44.4089 22.4522 44.3895C22.4617 44.3717 22.4704 44.3562 22.4431 44.3521C22.382 44.3361 22.1492 44.4174 21.3839 44.5229C21.087 44.5552 20.7546 44.65 20.3533 44.6759C20.2283 44.6833 20.0971 44.6929 19.959 44.7046C19.8403 44.7148 19.8027 44.7735 19.573 44.7997C19.1412 44.8484 19.1323 44.7854 18.7488 44.8231C18.492 44.8475 18.1696 44.9023 17.8072 44.91C17.6298 44.9138 17.4416 44.9064 17.2487 44.8804C16.6893 44.8036 17.1177 44.7474 17.8045 44.7123C18.4277 44.6833 19.253 44.6244 19.7932 44.6154C19.9473 44.5262 19.0384 44.5941 17.8027 44.5836C16.8213 44.5742 15.6164 44.5378 14.5137 44.5682C13.5316 44.6009 12.6504 44.6318 12.1325 44.6878C11.933 44.7077 11.7854 44.7214 11.7315 44.7285C10.327 44.9608 11.2636 44.8017 12.1379 44.7437C12.7219 44.6927 13.3055 44.6817 13.3794 44.6975C13.4575 44.7169 13.4319 45.0009 14.336 44.7821C14.6035 44.7172 13.4738 44.6886 14.1452 44.6327C14.3326 44.6171 14.4467 44.6131 14.5156 44.6154C14.699 44.622 14.568 44.6715 14.6042 44.6743C14.7768 44.6861 15.4981 44.6472 15.5914 44.6595C17.0234 44.8385 16.8969 45.1017 14.9914 44.7159C14.1628 44.8213 16.0676 44.9365 15.0397 45.0122C14.8635 45.0256 14.6931 45.036 14.5328 45.0457C13.553 45.1025 12.8594 45.038 12.7237 45.0433C12.4756 45.0492 12.2971 45.0595 12.17 45.0707C11.3596 45.1559 12.6518 45.081 10.856 45.3297C10.8196 45.3389 10.7789 45.3483 10.7369 45.3574C10.1006 45.4819 10.5893 45.3473 10.8349 45.2545C10.9826 45.2008 11.0626 45.169 10.8258 45.2219C10.6689 45.2611 10.332 45.3316 9.73121 45.4532C9.54873 45.4904 9.3881 45.5235 9.24563 45.5552C9.17438 45.5712 9.10961 45.586 9.04333 45.6038C9.0254 45.6087 9.01118 45.6127 8.9912 45.6194C8.98375 45.622 8.97001 45.6262 8.95175 45.6356C8.95005 45.6377 8.93517 45.6395 8.90666 45.6718C8.8574 45.6965 8.89408 45.8606 8.93755 45.8613C9.0052 45.8934 8.9906 45.8783 9.00327 45.8826C9.05725 45.8855 9.07487 45.8817 9.1093 45.8796C10.3272 45.6847 9.37843 45.7547 9.51131 45.6091C9.54846 45.5609 10.8338 45.3148 9.09146 45.6005C9.08687 45.6008 9.08249 45.6011 9.07832 45.6014C9.06607 45.6118 9.05522 45.6229 9.03925 45.634C9.03417 45.6396 9.02279 45.6444 9.02838 45.6505C9.02926 45.6555 9.03097 45.641 9.08007 45.6836C9.11006 45.7047 9.11073 45.7915 9.08806 45.8089C9.07055 45.8313 9.06204 45.8323 9.05759 45.8348C9.04941 45.836 9.05083 45.8317 9.05381 45.8279C9.07762 45.7964 9.1296 45.7617 9.18126 45.7317C9.62205 45.6652 10.3927 45.7174 10.6319 45.6681C10.7404 45.6469 10.8384 45.626 10.932 45.6009C11.6314 45.4533 11.7335 45.4301 12.207 45.4469C12.2544 45.4494 12.3073 45.4532 12.3646 45.4586C11.8782 45.3717 12.6579 45.3782 12.9543 45.3403C13.9585 45.2009 12.8284 45.209 14.5404 45.236C14.6947 45.2385 14.8756 45.2439 15.0845 45.2519C14.8947 45.2188 14.7152 45.1871 14.5373 45.1586C14.4101 45.1387 14.2832 45.1186 14.1528 45.0984C14.2798 45.0927 14.407 45.0869 14.5342 45.0809C14.7034 45.0729 14.8749 45.068 15.0456 45.0641C15.4915 45.1896 17.0725 45.1737 15.6409 45.3113C16.6895 45.3314 17.3611 45.3345 17.8127 45.299C18.1031 45.2765 18.3001 45.2401 18.4472 45.1933C18.5185 45.1705 18.7794 45.1515 19.0851 45.1281C19.0247 45.1028 18.9457 45.0167 18.9928 45.0025C19.414 44.8757 20.0894 44.9891 19.8685 45.0721C20.08 45.0589 20.2463 45.0532 20.3052 45.0518C20.3329 45.0511 20.3547 45.051 20.3712 45.0515C20.4422 45.0527 20.4223 45.0628 20.3724 45.0757C20.2767 45.1013 20.0663 45.1419 20.2543 45.1433C20.271 45.1434 20.3144 45.1415 20.3754 45.1389C20.7058 45.1337 21.3805 44.983 21.4383 45.006C21.4418 45.0064 21.4441 45.007 21.445 45.0077C21.4587 45.0201 21.456 45.0322 21.4425 45.0436C21.369 45.1174 20.8362 45.186 21.4489 45.1008C21.6765 45.0785 22.0458 45.0265 22.5783 44.9066C22.8212 44.8524 23.0892 44.7755 23.3898 44.674C23.4084 44.5848 22.9358 44.7364 22.551 44.7949C22.2548 44.841 22.0273 44.8557 22.1993 44.7519C22.2843 44.6997 22.3909 44.6575 22.5085 44.6206C22.9646 44.4808 23.5754 44.3467 23.6645 44.1423C23.7458 44.1434 23.7865 44.1551 23.8605 44.163C24.441 43.8699 24.7571 43.7063 24.9796 43.5954C25.2413 43.46 25.3683 43.4331 25.5714 43.2933C25.7576 43.1643 26.0933 42.8828 26.4057 42.5436C26.8602 42.0861 27.2443 41.4305 27.3028 41.2402C27.3495 41.0228 27.3218 41.3739 26.4205 42.3491C26.7553 41.9603 27.0557 41.4941 27.2539 41.0274C27.2617 41.0279 27.269 41.0285 27.2761 41.0293C27.5176 41.0478 27.4916 41.2619 28.2334 38.9559C28.2884 38.7692 28.3429 38.6298 28.3899 38.5033C28.4757 38.2693 28.5351 38.0708 28.4996 37.717C28.5583 37.7594 28.6251 37.4815 28.6919 37.1569C28.7964 36.6777 28.7812 36.1092 28.7964 36.0265C28.8565 35.5344 28.982 36.22 28.8326 37.1849C28.7569 37.6209 28.6723 38.1437 28.5403 38.5402C28.4488 38.8196 28.353 39.0277 28.2757 39.1042C28.2012 39.7195 28.0768 39.6792 27.8604 40.3287C27.7337 40.6918 27.6375 40.9335 27.534 41.1544C27.3777 41.4776 27.2046 41.8421 26.6807 42.3601C26.3248 42.8559 27.2154 41.986 27.5675 41.1707C27.9104 40.4638 28.1342 39.9809 27.6766 41.2236C27.6373 41.3185 27.5926 41.4252 27.5359 41.5483C27.3986 41.8675 27.0869 42.3505 26.6921 42.8014C26.3409 43.2089 25.8982 43.6557 25.296 44.0734C24.4968 44.5741 23.7175 44.9317 22.6582 45.2342C22.3024 45.3262 21.9108 45.4182 21.4905 45.4701C21.2332 45.5017 20.8458 45.6066 20.3989 45.6318C19.6339 45.6834 18.7187 45.7931 17.8197 45.8059C16.7298 45.8298 15.62 45.8169 14.5654 45.8609C13.7769 45.901 12.9794 45.9249 12.261 45.9977C11.7943 46.0439 11.3741 46.0787 11.0893 46.1618C10.6831 46.2713 10.3755 46.328 10.0403 46.3993C9.8761 46.4333 9.71463 46.4664 9.55751 46.4999C9.47994 46.5165 9.40195 46.5335 9.33668 46.5491C9.31221 46.5543 9.25307 46.5721 9.30597 46.5559C9.31661 46.5519 9.34014 46.5453 9.39679 46.5174C9.41656 46.5064 9.4095 46.5144 9.48683 46.4649C9.54694 46.4117 9.67929 46.3716 9.81718 46.0372C9.88316 45.8755 9.88007 45.5877 9.79602 45.4143C9.71484 45.2273 9.59644 45.1202 9.51273 45.0586C9.33977 44.9398 9.25957 44.9336 9.20278 44.9167C9.01748 44.883 9.05225 44.9001 9.0342 44.8963C9.02055 44.8963 9.03311 44.896 9.04637 44.895C9.35484 44.8717 9.84842 44.7393 10.3668 44.6833C11.1009 44.605 11.7889 44.5343 12.2785 44.3875C12.6602 44.2399 13.4398 44.0357 13.9451 44.0328C14.4833 44.0072 14.9504 44.0377 15.3726 44.0734C15.8779 44.1275 16.4412 44.0872 17.0664 44.3325C17.1849 44.38 17.2943 44.4325 17.3964 44.4887C17.8266 44.7277 18.3059 45.1278 18.4955 45.789C18.5971 46.1138 18.4922 46.4848 18.4447 46.592C18.286 46.977 18.1212 47.4697 17.5255 47.9001C17.2123 48.1159 16.8285 48.3497 16.4487 48.5157C16.1543 48.6474 15.8553 48.7602 15.5664 48.8557C15.2968 48.9449 14.9409 49.0507 14.9157 49.0708C14.4657 49.3474 13.5709 49.7279 12.8836 49.7782C12.4886 49.8193 11.9436 49.9689 11.3141 49.9607C10.9326 49.9546 10.572 49.9841 10.0638 49.9545C9.54242 49.9268 8.99928 49.7415 8.60406 49.555C7.92843 49.2365 7.35842 48.9087 6.76187 48.5688C6.14576 48.1982 5.49691 47.7856 4.99644 46.9225C4.66985 46.2821 4.58426 45.6719 4.68629 44.9876C4.71709 44.8124 4.73113 44.5856 4.7949 44.2632C4.85357 43.9519 5.0225 43.476 5.36942 43.1385C5.72603 42.7696 6.35027 42.2606 7.0614 42.1173C7.36964 42.0418 7.77768 41.954 8.18732 41.9356C8.24549 41.9326 8.30629 41.9296 8.36533 41.9268C8.5486 41.9183 9.0202 41.8949 9.62041 41.8859C9.92113 41.8817 10.2525 41.8806 10.6061 41.8923C10.7838 41.8984 10.9645 41.9072 11.1614 41.9256C11.2593 41.935 11.363 41.9466 11.4807 41.9664C11.6101 41.996 11.6984 41.9831 12.0166 42.1346C12.5605 42.4317 12.9073 42.8076 13.1306 43.0205C13.3614 43.2546 13.409 43.2389 13.2727 43.2267C13.1146 43.201 12.897 43.2951 12.8873 43.3187C12.8757 43.3332 13.1081 43.2469 13.2613 43.2982C13.2637 43.2993 13.266 43.3004 13.2683 43.3015C13.2958 43.3067 13.3483 43.3601 13.2259 43.2862C13.1166 43.2179 12.9248 43.052 12.7693 42.9345C12.613 42.8157 12.4953 42.7474 12.5354 42.8117C12.5687 42.8652 12.7794 43.1058 13.0729 43.4044C13.0045 43.3142 13.0471 43.322 13.1271 43.3633C13.2041 43.4084 13.3156 43.4346 13.2449 43.4007C13.189 43.3906 13.136 43.384 13.037 43.4081C12.9443 43.4287 12.772 43.5196 12.6757 43.6843C12.5824 43.8722 12.6463 43.7218 12.6382 43.7236C12.6643 43.4265 12.975 42.8703 13.314 42.6976C13.2709 42.7117 13.3875 42.5946 13.4789 42.4937C13.5784 42.3883 13.6954 42.2801 13.8252 42.1889C14.085 42.0054 14.3992 41.8835 14.7627 41.8707C14.9326 41.8592 15.1336 41.8498 15.4471 41.8529C15.6042 41.8554 15.7884 41.8586 16.0399 41.8844C16.1684 41.8989 16.3144 41.9167 16.5113 41.9702C16.7013 42.0184 16.985 42.1451 17.1818 42.3039C17.623 42.679 17.7078 42.9083 17.8748 43.0826ZM21.175 38.5202C21.362 38.4246 21.5476 38.3617 21.7313 38.3237C21.8982 38.284 22.1071 38.3251 22.2347 38.4015C22.3662 38.4764 22.4418 38.5601 22.5013 38.6319C22.6166 38.7775 22.6736 38.8965 22.7261 39.0037C22.8259 39.2161 22.8867 39.3835 22.9414 39.5017C23.2162 40.1267 23.0708 40.5188 23.0771 40.609C23.0643 40.7155 23.1128 40.6348 23.1654 40.4844C23.2841 40.1916 23.2597 39.5449 23.4237 40.2223C23.4278 39.9152 23.3479 39.6113 23.237 39.3684C23.1717 39.2245 23.0974 39.0123 22.9705 38.7658C22.9025 38.6402 22.8298 38.5003 22.6598 38.3238C22.5731 38.2373 22.4532 38.1356 22.2709 38.0612C22.0906 37.9846 21.8492 37.9657 21.6648 38.0082C21.6422 38.013 21.6193 38.0181 21.5969 38.0235C21.6197 38.0196 21.6428 38.0159 21.6657 38.0126C21.9285 37.9533 22.273 38.0472 22.4469 38.1814C22.6294 38.3121 22.7156 38.4387 22.7843 38.5447C22.7849 38.5457 22.7856 38.5467 22.7863 38.5476C22.6953 38.4587 22.5873 38.3538 22.4029 38.2559C22.2253 38.1542 21.9152 38.1043 21.7014 38.1818C21.5016 38.2725 21.3282 38.3875 21.175 38.5202ZM13.9498 10.4542C13.9865 10.6432 14.0212 10.8272 14.0551 11.027C14.0547 11.113 14.0543 11.1967 14.0538 11.2829C14.0659 11.8094 13.8813 12.3429 13.7828 12.6811C13.7371 12.8436 13.6758 13.005 13.5991 13.1592C13.623 13.059 13.6393 12.9616 13.6511 12.8623C13.6745 12.7962 13.6952 12.7295 13.7133 12.6624C13.8078 12.3166 13.9814 11.796 13.963 11.2838C13.9598 11.0101 13.9571 10.7356 13.9498 10.4542ZM20.4485 44.5375C20.8893 44.5425 21.0842 44.4561 21.3704 44.4038C21.5807 44.361 21.8289 44.3115 22.3494 44.2205C22.1843 44.1386 22.0082 44.0601 21.8482 43.9726C21.6396 44.019 21.478 44.0493 21.3331 44.0722C20.904 44.1394 20.68 44.2241 20.3324 44.2383C20.1997 44.2435 20.0522 44.2497 19.8847 44.2571C20.0032 44.2865 20.1251 44.3168 20.2416 44.3488C20.2733 44.3456 20.3048 44.3424 20.3373 44.3392C20.4474 44.3272 20.5626 44.3067 20.6756 44.2837C20.7904 44.3163 20.5318 44.3927 20.3415 44.4288C20.1058 44.4703 19.9408 44.5081 20.3465 44.5324C20.3758 44.5349 20.4087 44.5368 20.4457 44.538C20.4466 44.5378 20.4475 44.5377 20.4485 44.5375ZM27.1722 39.963C27.2811 39.7048 27.5527 38.9533 27.7076 38.3358C27.8066 37.9504 27.8578 37.6099 27.8581 37.5075C27.8511 37.1621 27.7406 37.7475 27.5926 38.3076C27.3436 39.1886 27.065 40.1379 27.501 38.2851C27.5202 38.1896 27.5393 38.0863 27.5581 37.9731C27.5318 37.985 27.5129 37.9637 27.4903 37.9591C27.4676 38.0623 27.4435 38.1638 27.4175 38.2646C27.2726 38.8239 27.1003 39.382 26.8954 39.9185C26.9943 39.9162 27.0709 39.9708 27.1722 39.963ZM11.7145 43.6716C11.6337 43.6041 11.502 43.5027 11.3368 43.4179C11.3911 43.4362 11.1799 43.3889 11.0373 43.3849C10.8782 43.3743 10.7019 43.3706 10.5245 43.371C10.1695 43.3718 9.80668 43.3884 9.51103 43.4094C8.91849 43.4528 8.59241 43.5086 9.06137 43.5348C9.35526 43.5507 11.0394 43.3681 11.3337 43.4787C11.3333 43.4788 11.3246 43.4762 11.3097 43.469C11.5016 43.6018 11.2257 43.4755 11.717 43.8215C11.7182 43.7748 11.7301 43.732 11.7129 43.6707C11.7134 43.671 11.714 43.6713 11.7145 43.6716ZM13.0971 44.1183C12.4868 43.9112 12.1239 43.2912 11.5426 43.0294C11.4446 42.9856 11.3179 42.9727 11.2011 42.9602C11.2987 42.9906 11.4339 43.0196 11.5206 43.071C11.9873 43.3576 12.4851 43.8854 12.4728 43.9929C12.3007 43.8568 12.1487 43.7205 11.9913 43.5971C11.8954 43.4752 11.7977 43.3602 11.6907 43.254C11.5982 43.2069 11.5283 43.1802 11.4725 43.1617C11.2597 43.1567 11.3336 43.155 10.3479 43.1121C10.5642 43.1749 10.7242 43.2317 10.8941 43.2795C10.978 43.3035 11.065 43.3254 11.1565 43.3472C11.2331 43.3634 11.3907 43.4099 11.3476 43.3975C11.6444 43.5308 11.8611 43.8205 12.7638 44.3642C12.594 44.3123 12.5159 44.3224 12.5201 44.3986C12.5356 44.4652 12.5991 44.6427 13.0279 44.7557C13.1249 44.7734 13.2261 44.7819 13.3657 44.7543C13.496 44.7271 13.7227 44.6463 13.8737 44.3961C13.9785 44.1991 13.9679 44.1506 13.9843 44.0934C13.9944 44.0419 13.9984 44.0095 14 43.9851C14.005 43.9354 13.9841 43.9311 13.9766 43.8958C13.9757 43.8705 13.945 43.8545 13.9041 43.8958C13.8819 43.9196 13.8566 43.9739 13.831 44.0532C13.8114 44.122 13.7494 44.2749 13.7321 44.2921C13.7283 44.2967 13.7245 44.3011 13.7208 44.3053C13.6122 44.422 13.6216 44.3768 13.6684 44.2742C13.7317 44.0022 13.6838 43.8722 13.6075 43.9251C13.5806 43.9483 13.5822 43.9911 13.4901 44.1682C13.3653 44.3426 13.2017 44.3255 13.0997 44.3078C12.9352 44.2697 12.8306 44.186 12.8097 44.1494C12.7928 44.123 13.0218 44.2032 13.1212 44.1735C13.1695 44.1631 13.1784 44.148 13.1281 44.1303C13.1196 44.1268 13.1093 44.1229 13.0971 44.1183ZM14.379 43.4644C14.2861 43.6055 14.6647 43.3679 14.7618 43.4391C14.9196 43.4475 15.0861 43.4511 15.2431 43.448C15.9529 43.4458 15.4079 43.3421 14.7618 43.3059C14.6367 43.2854 14.5078 43.3492 14.379 43.4644ZM13.9495 10.45C13.9496 10.4514 13.9497 10.4528 13.9498 10.4542C13.9496 10.4535 13.9495 10.4528 13.9493 10.4521C13.9494 10.4514 13.9495 10.4507 13.9495 10.45ZM26.0081 41.9308C26.3489 41.5066 26.6704 40.8769 26.5824 40.8754C26.6091 40.8287 26.636 40.7808 26.6632 40.7318C26.761 40.5573 26.8531 40.3733 26.9399 40.1866C26.9178 40.1804 26.8947 40.1765 26.8728 40.1704C26.7947 40.3566 26.7119 40.5385 26.6234 40.7125C26.3801 41.2176 26.1327 41.5425 25.7476 41.9513C25.7223 41.9783 25.6965 42.0054 25.6707 42.0321C25.7142 42.0213 25.7573 42.0105 25.8006 41.999C25.8677 41.9793 25.9346 41.9595 26.0081 41.9308ZM27.9904 33.7775C27.845 32.7708 27.8722 33.6328 27.7889 33.4188C27.7356 33.2854 27.6742 32.8536 27.6436 32.5698C27.625 32.415 27.6057 32.3145 27.5824 32.3567C27.5879 32.4285 27.5934 32.5007 27.599 32.5735C27.6407 33.1612 27.7718 33.7293 27.798 34.1871C27.8662 34.0424 27.933 33.9297 27.9902 33.7756C27.9903 33.7762 27.9904 33.7769 27.9904 33.7775ZM16.8513 27.9816C16.6461 28.5791 16.6273 28.3849 16.41 29.3717C16.3915 29.4593 16.3731 29.5564 16.356 29.6639C16.3562 29.663 16.3565 29.662 16.3567 29.6611C16.3832 29.5698 16.4122 29.4765 16.4437 29.381C16.7109 28.5597 17.0386 27.6326 17.3527 26.7007C17.4669 26.3892 17.6755 25.913 17.7884 25.4953C17.6024 25.9374 17.4 26.361 17.2862 26.6786C17.1568 27.0726 17.0269 27.4793 16.8513 27.9816ZM18.0226 44.4516C17.7368 44.5261 19.0792 44.5301 19.3763 44.4363C19.8485 44.3051 18.4565 44.3595 18.0226 44.4516ZM10.9776 4.57646C10.0341 4.60292 11.4737 5.01709 13.2994 5.55537C13.4683 5.60086 13.6362 5.6513 13.803 5.70902C13.893 5.74016 13.576 5.58756 13.3183 5.4908C13.1035 5.40796 12.9456 5.33991 13.1243 5.37445C13.1388 5.3774 13.2181 5.40012 13.335 5.43343C13.5672 5.49582 13.9105 5.62443 14.0282 5.65951C14.2036 5.70938 14.0557 5.57147 14.3391 5.67661C14.4582 5.72126 14.6083 5.79297 14.7805 5.86482C15.3258 6.07687 15.9389 6.52703 16.1991 6.68265C16.2511 6.70314 15.6919 6.20315 15.6439 6.18466C15.3738 5.9963 15.0759 5.86206 14.8186 5.77269C14.4783 5.64894 14.2188 5.55282 14.1561 5.52879C13.5971 5.29379 13.7029 5.26475 13.5623 5.19243C13.5204 5.17301 13.4732 5.15433 13.4217 5.13653C13.1469 5.04115 12.7848 4.96413 12.7554 4.95328C12.1995 4.74386 12.833 4.91568 13.437 5.08402C13.7794 5.17681 14.1011 5.30847 14.2002 5.34172C14.6896 5.50682 14.5906 5.41494 14.9259 5.51387C15.1189 5.5747 15.4593 5.67863 16.0356 6.03407C16.1137 6.07577 16.5519 6.40332 16.7334 6.53846C16.8526 6.62547 16.8971 6.65008 16.7509 6.51602C16.628 6.41311 16.363 6.13296 15.7466 5.74444C16.2548 6.01186 16.597 6.28091 16.8168 6.43128C17.1965 6.70006 17.3391 6.84903 17.3276 6.81592C17.317 6.78911 17.1435 6.59706 16.8607 6.3749C16.5043 6.076 15.7919 5.55432 15.0296 5.26377C14.627 5.08913 14.0252 4.7949 13.5545 4.68146C13.0284 4.53747 12.6111 4.4285 12.4495 4.39163C12.0665 4.30442 12.6154 4.54431 12.3773 4.51491C11.8384 4.44199 10.9144 4.23297 10.9674 4.37646C11.1066 4.63924 12.3005 4.80247 13.0919 5.0781C12.9957 5.1063 12.945 5.14627 12.7764 5.15244C13.0358 5.15133 11.0641 4.55038 10.9777 4.57598C10.9777 4.57614 10.9776 4.5763 10.9776 4.57646ZM19.7085 13.1368C19.7061 14.1059 19.7896 14.2143 19.8111 14.8059C19.816 14.9411 19.8159 15.0987 19.8041 15.2982C19.8959 15.9259 19.9372 15.3446 19.9134 14.7999C19.9027 14.5143 19.8923 14.2327 19.8916 14.1561C19.8659 13.1528 20.1023 13.2219 19.8269 12.0624C19.849 12.5079 19.7707 12.7936 19.7085 13.1368ZM13.9826 5.06697C14.6118 5.26249 13.8915 4.9279 13.5141 4.8201C13.4184 4.78944 13.3527 4.76773 13.3423 4.76139C13.2184 4.68745 13.3258 4.69093 13.5387 4.73563C14.3924 4.91061 16.0866 5.85355 13.9826 5.06697ZM7.62364 43.1685C7.36051 43.2224 7.40285 43.2515 7.3441 43.2953C7.32009 43.3148 7.27674 43.3363 7.18928 43.3712C6.98487 43.4238 6.48515 43.7421 6.24163 44.007C6.15913 44.0897 6.12929 44.1605 6.14397 44.1611C6.15539 44.1621 6.20275 44.1035 6.28113 44.0463C6.46368 43.8957 6.73451 43.7166 6.83191 43.6916C6.9306 43.6758 6.85154 43.6895 6.39128 44.156C6.36535 44.1838 6.34161 44.2143 6.31941 44.2514C6.36359 44.2323 6.37232 44.2557 6.40176 44.2559C6.41439 44.2393 6.4281 44.2236 6.4436 44.2081C6.7691 43.8848 7.04491 43.671 7.41556 43.5931C7.4874 43.5759 7.55717 43.5595 7.62509 43.5444C7.55367 43.5428 7.47959 43.5425 7.40351 43.5429C7.17764 43.5336 6.97924 43.5527 6.76417 43.6315C6.97978 43.4108 7.17206 43.4439 7.18316 43.4374C7.18314 43.4373 7.18311 43.4372 7.18308 43.4371C7.24013 43.4171 7.30076 43.3977 7.36412 43.3787C7.89455 43.2167 8.37166 43.0577 7.62364 43.1685ZM15.3526 37.4693C15.2553 37.4067 15.2595 37.6265 15.2949 37.9041C15.3248 38.1291 15.436 38.3315 15.5089 38.4649C15.5292 38.5048 15.551 38.5478 15.5786 38.6113C15.4973 38.4916 15.5223 38.5717 15.6105 38.5738C15.6866 38.5843 15.7294 38.5772 15.6677 38.5386C15.548 38.5334 15.5006 38.426 15.6193 38.594C15.4711 38.294 15.4204 38.1286 15.3976 37.9042C15.3774 37.6516 15.3604 37.4747 15.3524 37.4693C15.3524 37.4693 15.3525 37.4693 15.3526 37.4693ZM19.1863 19.4892C18.9973 20.4528 19.0848 20.3157 18.722 21.4594C18.7786 21.426 18.8357 21.3946 18.8917 21.3607C19.1366 20.4381 18.993 20.4724 19.3062 19.4115C19.3372 19.3054 19.3552 19.4148 19.3999 19.3304C19.4281 19.275 19.4687 19.142 19.5238 18.8321C19.4478 18.9899 19.3671 19.1475 19.2852 19.3027C19.2526 19.3627 19.2192 19.427 19.1863 19.4892ZM18.0464 24.2228C18.3826 23.1416 18.2876 22.1831 17.8286 24.2097C17.7576 24.5091 17.7886 25.0299 18.0464 24.2228ZM16.666 43.3854C16.5999 43.3029 16.5407 43.2403 16.4876 43.1992C16.2237 43.0126 16.0806 43.0459 16.1188 43.0489C16.1502 43.0653 16.3193 43.1006 16.4623 43.2319C16.6606 43.4238 16.9322 43.8937 17.0801 44.0526C16.7482 43.7171 16.5583 43.3901 16.4151 43.2927C16.239 43.159 16.0508 43.1531 15.9408 43.1359C15.8299 43.1241 15.7947 43.124 15.8222 43.1279C15.8686 43.1422 16.2036 43.1446 16.3974 43.3154C16.5406 43.4322 16.7378 43.7744 16.9688 44.0379C17.1992 44.3106 17.4641 44.5229 17.6413 44.6564C17.7277 44.7228 17.7923 44.774 17.8228 44.809C18.3803 45.075 19.5247 45.1549 18.3362 44.8106C17.8804 44.6052 18.0278 44.7191 17.999 44.7096C17.8829 44.6502 17.7889 44.5934 17.7097 44.5411C17.2363 44.1962 17.2018 44.0915 16.666 43.3854ZM19.2039 11.1112C19.2306 11.1781 19.254 11.0512 19.3425 11.2633C19.4304 11.4731 19.5531 11.9682 19.6082 12.0197C19.6091 12.0207 19.61 12.0215 19.6109 12.0223C19.6145 12.0252 19.6164 12.0232 19.6168 12.0168C19.629 11.9351 19.3467 11.0373 19.2153 10.7637C19.0769 10.4729 18.9593 10.5045 19.2039 11.1112ZM19.2522 18.4392C19.1237 19.2106 19.4857 18.3733 19.6184 17.8953C19.6478 17.7896 19.6664 17.706 19.6713 17.6674C19.8061 16.4593 19.633 17.2237 19.4623 17.8712C19.3707 18.192 19.2724 18.4611 19.2522 18.4392ZM20.4151 44.0737C20.3758 44.1116 20.3378 44.147 20.3016 44.1797C20.0682 44.3839 19.8152 44.4578 19.6882 44.5181C19.5547 44.5752 19.5156 44.6093 19.5559 44.6337C19.6318 44.6692 20.0428 44.7233 20.5165 44.4514C20.7868 44.2825 21.0639 44.0557 21.3127 43.8155C21.4228 43.6508 21.5283 43.4782 21.6185 43.3045C21.4441 43.689 21.1054 44.1448 21.0365 44.2671C20.9491 44.3649 21.2759 44.2815 21.985 43.0831C22.0765 42.8938 22.1568 42.6763 22.2271 42.4409C22.1242 42.7258 22.0247 42.9302 21.948 43.0638C21.6785 43.4842 21.7851 43.28 21.9035 43.0406C21.9785 42.8789 22.0429 42.6981 22.0416 42.6932C21.9906 42.6118 21.8949 42.7494 21.7492 42.9602C21.3635 43.5536 20.3311 44.4578 20.4166 44.0724C20.4161 44.0729 20.4156 44.0733 20.4151 44.0737ZM18.0329 8.16486C17.9217 8.00737 17.7798 7.8112 17.6325 7.59296C17.3866 7.21345 17.0024 6.83602 16.676 6.61223C16.15 6.2281 15.7895 6.04429 16.2719 6.46825C16.3875 6.54352 16.5005 6.6213 16.6114 6.69522C16.9778 6.93488 17.325 7.25512 17.5944 7.61793C17.7355 7.80254 17.8815 7.98042 18.0329 8.16486ZM13.2396 44.7825C12.9559 44.8163 12.6819 44.9063 12.45 44.966C11.9604 45.0852 11.4075 45.151 10.7375 45.2222C11.6431 45.2291 11.0584 45.3053 10.7566 45.3608C10.2998 45.4455 11.4149 45.3285 11.417 45.3295C11.4076 45.4155 10.7068 45.577 12.3118 45.288C11.9266 45.4131 11.5325 45.4985 11.1339 45.5772C11.817 45.5035 12.2147 45.4518 12.5728 45.38C12.8676 45.3166 13.1016 45.2525 13.4339 45.229C12.6894 45.2191 13.6259 45.0326 14.5424 45.0004C15.0015 44.9688 13.7007 44.6819 13.2363 44.7831C13.2374 44.7829 13.2385 44.7827 13.2396 44.7825ZM18.4525 44.3085C18.276 44.2668 18.1068 44.2216 17.9358 44.16C17.9003 44.1471 17.8662 44.1342 17.831 44.1194C17.6321 43.9953 17.4513 43.8434 17.2904 43.6691C17.2935 43.6273 17.3011 43.5878 17.3016 43.5435C17.1115 43.2982 17.1557 43.4153 17.0935 43.3433C17.0937 43.3432 17.0938 43.3431 17.0939 43.343C16.9731 43.2005 16.8622 43.0512 16.698 42.9279C16.2991 42.6487 15.9342 42.6883 15.6396 42.6556C15.3377 42.6379 15.0606 42.6269 14.7622 42.6086C14.5047 42.5896 14.2105 42.6916 13.981 42.8554C14.0389 42.928 14.0968 43.0007 14.1547 43.0733C14.3213 42.9262 14.5326 42.8172 14.7621 42.8128C14.7832 42.8121 14.8039 42.8114 14.8244 42.8107C14.9556 42.7611 15.0877 42.7122 15.2209 42.6647C15.5077 42.6987 15.7939 42.7323 16.0803 42.8057C16.2599 42.8185 16.4887 42.8758 16.6492 42.9908C16.6981 43.0236 16.74 43.0585 16.7764 43.091C17.0234 43.5791 16.8602 43.372 16.5639 43.1007C16.1523 42.7836 15.2999 42.849 15.2986 42.8855C15.295 42.9032 15.4516 42.9168 15.6943 42.9406C15.9321 42.9703 16.2733 42.9829 16.5069 43.1743C16.7347 43.3675 16.934 43.7105 17.1574 43.9215C17.3752 44.1423 17.5848 44.274 17.6714 44.3169C17.7112 44.3356 17.45 43.9874 17.8601 44.2876C17.9241 44.3303 18.0053 44.386 18.1105 44.453C18.173 44.492 18.1704 44.6102 18.2968 44.7319C18.419 44.8378 18.697 45.0242 19.2513 44.8483C19.2646 44.8422 19.2791 44.8358 19.2928 44.8293C19.3384 44.8082 19.3122 44.7741 19.2383 44.7371C19.081 44.6637 18.7804 44.4908 18.4525 44.3085ZM10.5204 42.4509C11.9958 42.69 6.53357 42.5254 8.89312 42.675C8.22936 42.8256 8.35567 42.8168 9.03001 42.9008C9.08908 42.9081 8.62798 42.9593 8.66727 42.9624C9.29547 42.9938 10.0482 42.9562 10.053 43.0671C10.2212 43.061 10.3793 43.0572 10.5465 43.0557C9.85026 42.9477 10.9561 42.8605 11.4157 42.8687C11.6326 42.8731 11.1557 42.7698 11.3356 42.7669C11.3661 42.7708 11.4647 42.7685 11.6388 42.8479C11.8314 42.9484 12.0357 43.1068 12.0622 43.0997C12.1235 43.0824 12.0391 42.9028 11.7332 42.6696C11.4521 42.517 11.2869 42.5035 11.0475 42.458C11.0476 42.4579 11.0476 42.4578 11.0476 42.4577C10.8655 42.4494 10.695 42.4495 10.5204 42.4509ZM14.9762 34.3555C15.0228 34.2977 15.0665 34.19 15.0972 34.0925C15.1553 33.9041 15.1953 33.7681 15.2112 34.0975C15.2264 34.2708 15.1839 34.5723 15.1502 35.0525C15.1886 34.9616 15.2287 34.8694 15.2701 34.7803C15.2969 34.5611 15.3359 34.3399 15.3443 34.1033C15.3478 34.0057 15.3522 33.9075 15.3576 33.8081C15.1941 33.3779 15.244 32.7979 15.3254 32.381C15.4189 31.823 15.532 31.5267 15.2847 32.162C15.271 32.1961 15.2571 32.2831 15.2423 32.3693C15.2061 32.5797 15.1747 32.804 15.1813 32.3607C15.1815 32.3377 15.1817 32.3121 15.1818 32.2843C15.1816 32.2853 15.1814 32.2863 15.1812 32.2873C15.1787 32.3121 15.1761 32.3366 15.1736 32.3596C15.0746 33.2298 15.1023 33.4588 15.0238 34.0893C15.0142 34.1699 14.9985 34.2568 14.9762 34.3555ZM17.5344 38.3945C17.5784 38.3725 17.6217 38.357 17.6629 38.3467C17.9462 38.3092 18.0573 38.505 18.0619 38.4453C18.0637 38.429 17.9849 38.1913 17.6489 38.184C17.4902 38.1913 17.3093 38.2625 17.1617 38.3922C16.9016 38.6152 16.6099 38.9135 16.2903 38.9228C15.9057 38.9464 15.5838 38.9839 15.4041 38.934C15.2341 38.8823 15.1787 38.8372 15.3236 38.9542C15.349 39.0048 15.7959 39.0448 16.2901 39.004C16.6974 38.9928 17.0105 38.6396 17.2369 38.4776C17.4248 38.336 17.5692 38.3471 17.5344 38.3945ZM17.8089 22.1902C17.7828 22.2809 17.7605 22.3623 17.7403 22.4398C17.5263 23.2509 17.6428 23.3425 17.7267 23.2626C17.7956 23.1961 17.9035 22.7544 17.9638 22.5037C17.9836 22.4226 17.9987 22.3625 18.0074 22.3406C18.1247 22.0421 17.9603 22.698 18.1147 22.312C18.1709 22.1853 18.7234 20.3601 18.7327 20.2713C18.8131 19.7903 18.5045 20.4439 18.5231 20.3056C18.5802 19.8922 18.7653 19.3711 18.7624 19.1763C18.7621 19.1593 18.7605 19.1447 18.7571 19.133C18.7329 19.0481 18.7077 19.0732 18.6828 19.157C18.6179 19.382 18.5496 20.0218 18.5164 20.1576C18.3794 20.7234 18.3059 20.6515 18.177 21.0682C18.0474 21.4839 18.0013 21.7652 17.8912 22.134C17.8547 22.2557 17.8244 22.1373 17.8089 22.1902ZM17.0525 25.7351C17.216 25.0705 16.8997 25.7076 16.5532 26.4361C16.3653 26.9002 16.1898 27.3905 16.1621 27.5181C16.0139 28.1963 16.4286 27.2737 16.7405 26.4981C16.8768 26.1781 17.0144 25.8921 17.0525 25.7351ZM13.4537 43.6417C13.5844 43.3953 13.6502 43.3731 13.5379 43.4283C13.4882 43.4602 13.4098 43.5316 13.3473 43.6438C13.2838 43.7458 13.2404 43.9334 13.2038 43.9981C13.2216 43.9775 13.1913 43.9987 13.151 43.987C12.7636 43.8788 12.344 43.3187 12.0846 43.167C12.1126 43.2045 12.2655 43.3605 12.4486 43.564C12.6344 43.76 12.8533 44.0334 13.1331 44.099C13.1973 44.1131 13.2721 44.1036 13.3024 44.0567C13.3749 43.8882 13.4099 43.7196 13.4537 43.6417ZM20.8523 43.6493C20.2065 44.3186 21.2962 43.6509 21.6825 42.9254C21.6836 42.9233 21.6847 42.9212 21.6857 42.9192C21.7382 42.6096 21.6858 42.6759 21.5826 42.8733C21.5256 42.9781 21.4367 43.1219 21.3268 43.2657C21.0055 43.6606 21.3084 43.0915 20.8523 43.6493ZM18.5559 10.7481C18.5907 10.8413 18.8971 11.6096 19.1215 12.1833C19.2284 12.4633 19.2664 12.7366 19.2931 12.793C19.3113 12.8541 19.3414 12.702 19.2403 12.2273C19.2374 12.2159 19.2298 12.1884 19.2173 12.1511C19.0862 11.7198 18.3809 9.88712 18.3068 9.73634C18.1442 9.41049 18.3739 10.2513 18.5559 10.7481ZM22.0785 39.8009C22.0942 39.8232 22.1101 39.8462 22.1262 39.8693C22.3694 40.1375 22.2863 40.5094 22.443 40.1532C22.443 40.1527 22.443 40.1521 22.4429 40.1515C22.4452 40.778 22.0794 41.053 21.9628 41.2378C21.8584 41.3629 21.7859 41.4248 21.7499 41.5404C21.4698 42.4813 21.9462 41.6628 21.8219 42.2592C21.9618 41.7509 22.0516 41.4802 22.1365 41.3027C22.2637 40.9989 22.4403 40.9594 22.5748 40.3284C22.5922 40.2214 22.5659 39.9544 22.4313 39.7317C22.2829 39.4499 22.1353 39.196 22.0754 39.1583C21.9794 39.0814 22.0299 39.5075 22.0785 39.8009ZM16.1806 6.9139C16.2326 6.95811 16.2852 7.00213 16.3389 7.04529C16.7308 7.34988 17.0144 7.6654 17.1346 7.76304C17.2421 7.86722 17.2484 7.66871 16.7452 7.15013C16.6459 7.05412 16.5425 6.97375 16.4458 6.90788C16.0125 6.60809 15.7584 6.56364 16.1806 6.9139ZM28.2901 38.6104C28.1985 38.7677 28.1034 38.9285 28.0042 39.094C28.0592 38.879 28.1103 38.6626 28.1568 38.4461C28.1988 38.2511 28.2333 38.0552 28.2638 37.8601C28.2369 38.0557 28.2059 38.2522 28.1672 38.4486C28.1414 38.5803 28.1135 38.713 28.0843 38.8449C28.1275 38.6986 28.1676 38.5667 28.2026 38.4573C28.334 38.0254 28.4163 37.9186 28.316 38.4851C28.3087 38.5227 28.3002 38.5641 28.2907 38.6083C28.2905 38.609 28.2903 38.6097 28.2901 38.6104ZM33.1173 12.8895C33.4168 12.6579 33.7267 11.9919 33.66 12.0586C33.2047 12.5536 32.7122 13.201 33.1173 12.8895ZM12.7204 43.2939C11.6653 42.3584 12.3111 43.2075 12.8382 43.7174C12.5258 43.3867 13.2268 43.7639 12.7204 43.2939ZM27.8644 20.7093C27.8146 20.8153 27.765 20.9225 27.7139 21.0422C27.8409 20.6566 27.8818 20.5925 27.8644 20.7093ZM18.5347 11.3177C18.5606 11.419 18.7067 11.8592 18.8435 12.2767C18.9281 12.5458 18.9563 12.9255 18.976 13.0063C19.0285 13.3093 19.1092 12.71 18.99 12.2275C18.9352 12.0411 18.8726 11.856 18.8084 11.7023C18.7805 11.6327 18.4869 11.1278 18.5357 11.3205C18.5354 11.3196 18.535 11.3187 18.5347 11.3177ZM28.7277 36.8677C28.725 36.8698 28.723 36.8682 28.7216 36.8635C28.7235 36.8654 28.7258 36.8653 28.7277 36.8677ZM25.862 9.16365C25.864 9.15495 25.8667 9.14998 25.8704 9.15015C25.8676 9.15392 25.8653 9.16085 25.862 9.16365ZM17.8122 21.1658C17.4642 21.5734 17.2782 22.6792 17.6277 21.8616C17.6473 21.8152 17.7817 21.2793 17.8122 21.1658Z" fill="#E8E8E8"/>
</svg>
