<svg width="56" height="54" viewBox="0 0 56 54" fill="none" xmlns="http://www.w3.org/2000/svg">
<path d="M42.714 11.0914C42.8768 10.9349 43.0449 10.7919 43.2249 10.6564C44.0458 10.0928 44.7015 10.0967 45.2787 9.99547C45.7523 9.93259 46.2454 9.8986 46.7672 9.93513C47.2601 9.95657 47.9203 10.1411 48.0563 10.1494C49.051 10.3033 49.4773 10.6096 50.0662 10.887C50.9456 11.4111 51.191 11.9446 51.5422 12.2937C52.0579 12.8747 52.2929 13.4477 52.5309 13.8538C52.7092 14.17 52.9642 14.474 53.2733 14.8694C53.6123 15.3023 53.9196 15.7851 54.1744 16.2427C54.4383 16.6968 54.6471 17.2578 54.7895 17.5887C54.9989 18.0513 55.1303 18.5314 55.2382 18.9322C55.3935 19.5312 55.436 20.0081 55.5185 20.4628C55.6413 21.1739 55.7482 21.8899 55.8399 22.6045C55.9854 23.8043 55.9843 24.912 55.9997 26.0285C55.9902 26.841 55.9223 27.4474 55.9179 28.1111C55.8897 29.0651 55.8425 29.9035 55.8353 30.783C55.8235 31.8423 55.7078 32.8472 55.6543 33.7928C55.6282 34.452 55.4318 35.1856 55.3545 35.5947C55.1305 36.7899 54.8572 37.819 54.5105 38.9243C54.2143 39.8039 53.9954 40.6131 53.5309 41.5975C53.4475 41.7613 53.3663 41.9278 53.2859 42.0971C53.1953 42.2881 53.118 42.4527 53.0509 42.5935C52.7433 43.1918 52.5858 43.318 52.4768 43.4608C52.368 43.5876 52.3044 43.6501 52.1956 43.7948C52.1392 43.8698 52.0866 43.9411 52.0387 44.0085C51.6292 44.5809 51.2826 44.9872 50.9488 45.3576C50.7972 45.5271 50.6348 45.7428 50.4026 45.9927C50.3127 46.0891 50.2158 46.1878 50.1123 46.2842C49.7774 46.5971 49.4348 47.0069 49.1147 47.4168C48.7796 47.8405 48.5243 48.2673 48.1448 48.8115C47.8812 49.1732 47.6595 49.5902 47.3467 50.0864C47.0848 50.4928 46.8365 50.8918 46.6346 51.2838C46.2839 51.9552 45.779 52.4362 45.2163 52.8095C44.3391 53.3472 43.6424 53.223 43.0563 53.2605C42.5561 53.2918 42.0146 52.9735 41.8405 52.8486C41.5982 52.6937 41.3401 52.4655 41.1593 52.1521C41.0693 51.9979 41.0032 51.827 40.9634 51.6733C40.9288 51.5398 40.8867 51.3144 40.9216 51.4524C40.9172 51.4388 40.9142 51.43 40.9149 51.4319C40.9178 51.4369 40.9132 51.4363 40.952 51.5113C40.9643 51.5333 40.9779 51.5596 41.0171 51.6127C41.0699 51.6588 41.0747 51.7664 41.4422 51.9155C41.6268 51.9896 41.9712 51.9597 42.1479 51.8434C42.315 51.7451 42.3829 51.6496 42.4259 51.5922C42.5061 51.4744 42.5154 51.4309 42.5322 51.3902C42.5929 51.1845 42.5622 51.2562 42.5684 51.2443C42.5616 51.3177 42.5553 51.4949 42.5442 51.6366C42.5309 51.7901 42.5232 51.929 42.4692 52.1536C42.4291 52.2985 42.3733 52.498 42.1684 52.7228C41.9616 52.9561 41.6332 53.0432 41.598 53.0497C41.2889 53.1397 40.8807 53.1331 40.5942 53.024C39.9389 52.747 39.8235 52.469 39.6773 52.2966C39.5535 52.1167 39.5091 52.005 39.4839 51.9281C39.4382 51.7721 39.4697 51.7592 39.3908 51.514C39.3354 51.3653 39.3269 51.2327 39.3282 51.1152C39.3292 51.0564 39.3335 50.9998 39.3383 50.9492C39.3462 50.9207 39.3377 50.781 39.3567 50.9474C39.3871 50.9908 39.3028 51.0376 39.5904 51.2921C39.6765 51.3556 39.8293 51.3995 39.9323 51.3928C40.0281 51.3906 40.1062 51.3627 40.1446 51.3455C40.2262 51.3079 40.2515 51.2822 40.2714 51.2664C40.3061 51.2355 40.3079 51.2293 40.3106 51.226C40.3126 51.2218 40.3007 51.2356 40.2891 51.251C40.265 51.2826 40.2355 51.3255 40.207 51.3673C40.1494 51.4523 40.0923 51.5381 40.0362 51.618C39.9232 51.7786 39.8164 51.9183 39.6869 52.0433C39.3772 52.3063 39.1928 52.2817 39.0949 52.3114C38.9937 52.3281 38.9511 52.3352 38.9343 52.3461C38.9028 52.3663 38.981 52.3957 39.0942 52.4126C39.2034 52.4328 39.3696 52.4176 39.3615 52.4453C39.363 52.4726 39.114 52.5687 38.7932 52.5617C38.6558 52.555 38.5438 52.5418 38.451 52.5328C37.998 52.5056 37.5747 52.1744 37.401 51.9268C37.2093 51.6737 37.1178 51.4608 37.0412 51.3228C36.9765 51.2021 36.941 51.111 36.9305 51.0913C36.9232 51.052 36.9385 51.2128 37.2554 51.3398C37.2556 51.3469 37.3823 51.349 37.4142 51.3258C37.4471 51.307 37.3906 51.3359 37.3138 51.4139C37.142 51.5587 36.9535 51.8988 36.3606 52.1516C35.7138 52.3466 35.4109 52.2723 35.0179 52.2635C34.6688 52.2471 34.3554 52.0608 34.186 51.9075C34.0084 51.7506 33.9067 51.6139 33.8238 51.5136C33.1711 50.5723 33.4722 49.8048 33.4377 49.4368C33.4568 49.507 33.3892 49.5353 33.5868 49.8633C33.638 49.9395 33.7813 50.0768 33.9426 50.1322C34.1165 50.1943 34.2432 50.1857 34.3457 50.1696C34.5617 50.1227 34.5931 50.0785 34.6484 50.0475C34.8014 49.9328 34.7858 49.9223 34.8105 49.8985C34.8388 49.8623 34.8402 49.8577 34.8444 49.8516C34.8499 49.8427 34.8461 49.8484 34.8424 49.8546C34.8342 49.8683 34.8216 49.8908 34.8087 49.9142C34.7823 49.9618 34.7533 50.0158 34.7199 50.0753C34.4409 50.5662 33.9753 50.6901 33.736 50.7471C33.4778 50.8034 33.2681 50.8221 33.1949 50.8433C32.8728 50.9244 32.6305 50.8762 32.3977 50.7836C31.7474 50.4994 31.5721 49.9124 31.4762 49.6096C31.5828 49.91 31.7729 50.486 32.4114 50.7507C32.6391 50.837 32.8748 50.8787 33.1821 50.7971C33.2603 50.7667 33.4689 50.7406 33.7186 50.6784C33.9513 50.6159 34.3869 50.4888 34.6381 50.0302C34.648 50.0111 34.6574 49.9927 34.6665 49.9747C34.6569 49.9923 34.647 50.0104 34.6365 50.0293C34.3874 50.476 33.9424 50.6041 33.7067 50.6568C33.4524 50.7109 33.25 50.7277 33.1689 50.7493C32.8594 50.8256 32.6376 50.7713 32.4366 50.6901C32.0963 50.5447 31.9065 50.2854 31.8188 50.1323C31.728 49.9718 31.7016 49.8768 31.6963 49.8488C31.6939 49.8217 31.7123 49.8593 31.7873 49.9905C31.8666 50.1061 31.9988 50.4113 32.469 50.6121C32.6492 50.6784 32.8509 50.7279 33.1418 50.6515C33.1634 50.644 33.1946 50.6354 33.2325 50.6268C33.1952 50.632 33.1629 50.6375 33.1392 50.6422C32.8751 50.7056 32.6722 50.6619 32.4814 50.5822C31.799 50.2464 31.749 49.6327 31.6509 49.2965C31.6376 49.2856 31.6193 49.2526 31.5977 49.2087C31.5818 49.1722 31.5668 49.1359 31.5563 49.1187C31.5597 49.1063 31.4932 49.0921 31.6582 49.2543C31.7822 49.3507 31.8584 49.3154 31.786 49.3376C31.7272 49.3546 31.6146 49.3961 31.4924 49.4433C31.245 49.5395 30.9381 49.6521 30.6409 49.7234C30.0842 49.8636 29.5811 49.8345 29.4723 49.8439C29.2498 49.8769 30.2144 49.9551 30.6622 49.8219C30.8035 49.7916 30.8946 49.7661 30.8925 49.7682C30.8837 49.7782 30.8056 49.8062 30.6662 49.8407C30.4808 49.8858 30.1923 49.9392 29.8256 49.9393C29.6424 49.9389 29.4403 49.9255 29.2204 49.8857C29.1096 49.8654 28.9958 49.8392 28.871 49.7995C28.7351 49.7475 28.6481 49.7463 28.3797 49.5525C27.9218 49.149 27.9046 48.7272 27.8619 48.445C27.8322 48.1507 27.8406 47.8947 27.8314 47.7031C27.8357 47.7519 27.8398 47.8159 27.888 47.9262C27.932 48.0347 28.0631 48.1896 28.2083 48.255C28.5045 48.3759 28.5865 48.3066 28.6322 48.3068C28.7111 48.2841 28.6847 48.287 28.6693 48.2962C28.6277 48.3161 28.5521 48.3597 28.4744 48.4042C28.3085 48.4941 28.1496 48.6061 27.8224 48.6971C27.3017 48.818 26.9111 48.6734 26.6622 48.5931C25.9774 48.2873 25.9407 47.9619 25.795 47.7885C25.6137 47.496 25.5499 47.2669 25.5257 47.1903C25.3498 46.4541 25.4709 46.4175 25.4848 46.3996C25.5252 46.3858 25.516 46.3771 25.5888 45.8293C25.5946 45.7922 25.6008 45.7555 25.6058 45.725C25.6103 45.7085 25.6163 45.6229 25.6087 45.7304C25.5869 45.8521 25.7344 46.118 25.8487 46.1644C25.9559 46.2264 25.9927 46.2226 26.0155 46.229C26.0564 46.235 26.0431 46.2327 26.0303 46.2345C25.9995 46.2369 25.9433 46.242 25.8842 46.2444C25.7649 46.2486 25.6158 46.2475 25.4435 46.1829C25.1578 46.0735 25.014 45.8979 24.9271 45.784C24.8399 45.6642 24.792 45.5684 24.7521 45.4577C24.6715 45.2429 24.657 44.9314 24.6773 44.479C24.6687 44.2376 24.7044 43.9688 24.7883 43.6813C24.8615 42.7857 24.9932 42.6627 25.2975 41.8748C25.3356 41.7769 25.3817 41.6755 25.4338 41.5727C25.5092 41.4266 25.3957 41.5111 25.4275 41.4464C26.2514 39.9227 25.69 41.1272 25.7001 41.1174C25.7801 41.0779 26.0161 40.7184 26.2516 40.3112C26.5656 39.7765 26.9682 39.3223 27.0916 39.1685C27.1499 39.1006 27.207 39.0335 27.262 38.9673C27.6838 38.4541 28.1293 37.978 28.5871 37.5499C29.0823 37.0856 29.5757 36.637 30.085 36.2225C30.6437 35.7763 31.2048 35.4313 31.7137 35.0285C32.2385 34.6142 32.7737 34.2144 33.3548 33.8428C33.8666 33.5182 34.4156 33.2473 34.9524 32.9671C35.4123 32.7197 35.903 32.6371 36.3612 32.4934C36.8058 32.3554 37.2496 32.3589 37.6899 32.3327C37.8754 32.3243 38.0624 32.3173 38.2511 32.312C38.8678 32.301 40.1361 32.2355 41.4084 32.3916C41.9001 32.5037 42.3996 32.5412 42.8411 32.6403C43.2049 32.7224 43.5003 32.8362 43.697 32.9159C44.5109 33.2481 44.2311 33.1941 44.444 33.3089C44.4818 33.3276 44.534 33.3506 44.6076 33.3822C44.9713 33.4285 45.3171 33.5572 45.69 33.6928C46.288 33.9118 46.9349 34.2956 47.9473 34.855C47.9476 34.8552 47.9479 34.8553 47.9482 34.8555C48.6233 34.9745 48.4796 35.0739 49.8603 35.0941C50.0271 35.0933 50.2125 35.0883 50.4113 35.0806C50.8982 35.0647 51.3472 34.9205 51.7738 34.5235L51.6926 34.6171C51.7721 34.4687 51.7955 34.2549 51.8183 34.0221L51.8169 34.0407C51.8355 33.5353 51.7955 33.0614 51.7313 32.6697C51.9025 33.3681 51.8852 33.6853 51.9022 34.0444L51.9032 34.0308C51.8904 34.2246 51.8967 34.4433 51.7877 34.6702L51.8398 34.6102C51.6805 34.7421 51.5173 34.8889 51.2669 34.999C51.1716 35.0423 50.8673 35.1544 50.4113 35.1539C49.7186 35.1347 48.7046 35.2424 47.9352 34.8805C46.7195 34.3178 45.6584 33.8206 45.8089 33.975C45.9821 34.1256 47.6985 34.917 47.7624 34.9529C48.1126 35.206 47.1166 34.8384 46.2966 34.3866C46.5119 34.4764 46.7699 34.5881 47.0017 34.6852C45.5356 33.8687 45.9606 34.3259 45.5382 34.0559C45.4212 33.9883 45.2569 33.8673 44.9926 33.6747C44.828 33.5601 44.9187 33.5471 44.6245 33.3911C44.5563 33.3838 44.9154 33.5648 44.5903 33.4519C44.5389 33.4349 44.4807 33.4143 44.4182 33.3928C44.0772 33.2779 43.6471 33.0428 43.546 33.0705C43.4347 33.0928 43.9651 33.3256 44.3987 33.4564C44.6249 33.5245 44.8095 33.601 44.8434 33.6172C44.8447 33.6171 44.846 33.617 44.8473 33.6169C45.3773 33.8969 44.8743 33.6522 44.3832 33.5069C44.0709 33.4171 43.7819 33.3014 43.747 33.2928C43.1649 33.142 43.5015 33.2819 42.7305 33.124C42.7071 33.1203 42.6825 33.1165 42.6564 33.1127C42.3834 33.0674 41.8269 33.0142 41.2924 32.8908C40.9674 32.8388 40.5421 32.8216 40.3354 32.8156C39.844 32.8059 40.6056 32.8843 40.275 32.881C39.9466 32.8777 39.5355 32.8338 39.1471 32.8476C38.9804 32.8538 38.9901 32.9073 38.9094 32.9101C38.0495 32.9487 38.6109 32.8212 37.8286 32.8597C37.7964 32.8616 37.7592 32.8642 37.718 32.8674C37.3286 32.8924 36.6782 32.9902 36.5496 33.0955C36.4854 33.128 36.4781 33.1423 36.5595 33.1271C36.6144 33.1183 36.6978 33.0972 36.8444 33.0776C36.7466 33.0959 36.6641 33.1181 36.567 33.1508C36.1197 33.3009 35.6888 33.3974 35.3765 33.5634C35.6357 33.4494 35.9703 33.3763 36.3239 33.2928C35.827 33.4203 35.538 33.5216 35.3339 33.6591C34.9994 33.8649 34.7519 34.0223 34.4496 34.197C34.2321 34.3225 34.0204 34.431 33.816 34.5457C33.4918 34.7289 33.1595 34.9362 32.8331 35.2298C32.1369 35.8791 32.9768 35.1717 33.8467 34.5924C34.3778 34.2449 34.9846 33.9367 35.1535 33.8529C35.3224 33.7724 34.7265 34.1849 34.6394 34.2382C34.3951 34.38 34.1204 34.5181 33.8864 34.6529C33.7235 34.7468 33.5702 34.8428 33.4504 34.9303C33.0273 35.2404 32.6846 35.5321 32.3659 35.8181C31.8467 36.2807 31.3289 36.6546 30.8259 37.0865C30.8156 37.0956 30.8052 37.1047 30.7948 37.1139C30.3435 37.511 29.8984 37.9466 29.4376 38.4118C29.0244 38.8284 28.642 39.2699 28.2699 39.7578C27.9183 40.2114 27.5774 40.6018 27.3854 40.9533C27.1083 41.4662 26.7322 42.0414 26.6122 42.3696C26.3201 43.1319 26.0657 43.8881 26.1345 44.2802C26.1731 44.5617 26.1875 44.7872 26.216 44.9261C26.2279 44.9929 26.2472 45.0331 26.2352 45.0045C26.2297 44.9811 26.1352 44.8581 26.0201 44.8145C25.8566 44.7538 25.8513 44.7812 25.9023 44.7743C25.9316 44.7738 25.9699 44.7698 26.0713 44.7707C26.1271 44.774 26.1877 44.7665 26.3621 44.8108C26.4508 44.839 26.5925 44.8743 26.7801 45.0488C26.976 45.2215 27.0811 45.5601 27.0688 45.7359C27.0603 45.9303 27.0527 45.9015 27.0487 45.9423C27.0443 45.9685 27.0411 45.9865 27.0382 46.0034C27.0323 46.0374 27.0278 46.0649 27.0238 46.0922C27.0158 46.1462 27.0103 46.1964 27.0069 46.2448C27 46.3416 27.0019 46.4313 27.0114 46.5133C27.031 46.6782 27.0787 46.8066 27.152 46.9189C27.247 47.1021 27.4237 47.1778 27.1696 47.0473C27.208 47.0598 27.24 47.0696 27.2683 47.0775C27.4083 47.1182 27.4493 47.1025 27.4158 47.1122C27.3668 47.1355 27.5391 47.0604 27.6787 46.9787C27.7568 46.9359 27.8358 46.8892 27.9696 46.8262C28.0455 46.7954 28.1047 46.7524 28.3372 46.7096C28.4517 46.7019 28.7 46.6351 29.0686 46.8853C29.427 47.1687 29.4383 47.4818 29.4509 47.6047C29.457 47.9488 29.4429 48.1605 29.4545 48.3039C29.4577 48.4519 29.5101 48.4435 29.3742 48.319C29.2878 48.2548 29.3 48.2724 29.3015 48.2703C29.4154 48.3195 29.6818 48.3503 29.8498 48.3389C30.0312 48.3305 30.1844 48.2999 30.3253 48.2603C30.4996 48.2113 30.6601 48.1508 30.874 48.068C30.9834 48.0264 31.1003 47.9782 31.2836 47.9208C31.3785 47.8928 31.4852 47.8591 31.669 47.8384C31.8365 47.8234 32.1947 47.8013 32.5604 48.0738C32.9303 48.4018 32.9003 48.5475 32.9529 48.6464C32.977 48.7179 32.9894 48.7644 32.997 48.7889C33.0633 49.0158 33.1038 49.175 33.1399 49.2572C33.1808 49.3501 33.1594 49.2655 33.0473 49.2211C32.9722 49.196 32.9145 49.171 32.7433 49.2123C33.0643 49.132 33.2414 49.1264 33.3492 49.1003C33.4722 49.0789 33.3597 49.0596 33.2401 49.2599C33.2642 49.2179 33.2915 49.168 33.3229 49.1115C33.339 49.0827 33.3554 49.0531 33.3784 49.0138C33.3904 48.9934 33.4026 48.9725 33.4266 48.9354C33.4405 48.9148 33.451 48.8965 33.4943 48.8418C33.5283 48.8078 33.5153 48.7893 33.7006 48.6509C33.7667 48.6137 33.8053 48.561 34.0595 48.5062C34.18 48.4874 34.3291 48.4776 34.5324 48.5508C34.7212 48.6159 34.8888 48.7771 34.9484 48.866C35.1803 49.2512 35.102 49.2878 35.1244 49.3742C35.1216 49.8129 35.0864 49.9947 35.0948 50.2C35.0947 50.3917 35.15 50.4939 35.1174 50.4466C35.2048 50.5577 35.2666 50.6283 35.2796 50.6401C35.2988 50.6549 35.2113 50.5953 35.1167 50.5952C35.4163 50.6261 35.7955 50.5958 35.7681 50.5947C35.7464 50.6046 35.7566 50.6044 35.7843 50.5829C35.8754 50.521 36.0313 50.3115 36.322 50.055C36.4708 49.9289 36.6855 49.7769 36.9785 49.7014C37.2706 49.6232 37.5825 49.6595 37.7986 49.7316C38.0469 49.8119 38.2236 49.9842 38.3084 50.0944C38.3976 50.2094 38.4352 50.2867 38.4654 50.3432C38.5215 50.4544 38.5411 50.4932 38.5476 50.4976C38.7507 50.8608 38.808 50.8803 38.7858 50.8582C38.7736 50.8401 38.6726 50.7866 38.6139 50.7851C38.7528 50.7978 38.862 50.8069 38.9113 50.8051C38.9661 50.8172 38.906 50.7447 38.6514 50.9497C38.6611 50.9432 38.7562 50.8201 38.8391 50.6872C38.8836 50.6179 38.9291 50.5436 38.9909 50.4487C39.0239 50.3993 39.054 50.3505 39.1256 50.2606C39.1782 50.2081 39.1683 50.1702 39.4179 50.0013C39.493 49.9599 39.5954 49.8921 39.8304 49.8654C40.0581 49.8238 40.4557 49.9756 40.5921 50.141C40.8753 50.4695 40.8276 50.5624 40.8624 50.6564C40.903 50.97 40.875 50.9286 40.8789 50.989C40.8771 51.0268 40.8764 51.0478 40.8765 51.0588C40.8714 51.0762 40.898 51.0704 40.8325 50.8951C40.8767 50.9973 40.9541 51.119 41.0338 51.2086C41.1063 51.2992 41.2176 51.3557 41.1531 51.3247C41.121 51.3099 41.0573 51.3221 41.1087 51.3107C41.1989 51.2821 40.9432 51.355 40.8291 51.5035C40.7134 51.6432 40.7126 51.7076 40.7062 51.7192C40.7064 51.7257 40.7224 51.6044 40.7273 51.4996C40.7349 51.3815 40.7343 51.2869 40.7487 51.0848C40.7518 51.0525 40.7543 51.0202 40.7646 50.9578C40.7709 50.9248 40.775 50.8899 40.8027 50.8011C40.8205 50.7554 40.8275 50.6985 40.9309 50.5412C40.9942 50.464 41.0686 50.3165 41.3953 50.1859C41.5479 50.1283 41.7581 50.1156 41.9138 50.1523C42.0594 50.183 42.1774 50.2479 42.2385 50.2889C42.4926 50.4771 42.4877 50.5389 42.531 50.5923C42.5606 50.6408 42.575 50.6709 42.5862 50.6943C42.608 50.7408 42.6172 50.7657 42.6255 50.7872C42.641 50.8285 42.6482 50.8507 42.6539 50.8672C42.7456 51.2021 42.7168 51.1564 42.7323 51.2017C42.7389 51.2251 42.7404 51.2248 42.7421 51.228C42.7437 51.2305 42.7604 51.2568 42.8279 51.2998C43.0897 51.4648 43.0107 51.409 43.0305 51.4185C43.5912 51.414 44.1145 51.3651 44.1957 51.2637C44.5457 51.0336 44.8338 50.724 44.9757 50.4406C45.2351 49.9319 45.5116 49.4907 45.7719 49.0811C45.9039 48.8734 46.046 48.6202 46.1949 48.3733C46.3328 48.1438 46.4744 47.9252 46.6213 47.7247C47.0224 47.1482 47.4126 46.5994 47.6716 46.3071C47.8173 46.136 47.9264 46.0125 48.0001 45.9207C48.4319 45.3856 48.6627 45.134 48.8446 44.9382C49.0196 44.7436 49.0259 44.6748 49.5975 44.0578C49.6004 44.0548 49.6034 44.0518 49.6063 44.0488C50.0408 43.6046 50.1523 43.5605 50.2101 43.5002C50.3979 43.2895 50.5034 43.131 50.5835 42.9923C50.7379 42.7333 50.8381 42.5444 51.0335 42.2585C51.151 42.0861 51.2578 41.9125 51.3067 41.8021C51.4666 41.4479 51.6326 41.0892 51.8143 40.7307C52.1241 40.0856 52.4069 39.1653 52.6851 38.3384C53.0021 37.3567 53.2938 36.2653 53.4825 35.2913C53.6228 34.5909 53.7436 34.1933 53.7698 33.6874C53.7904 33.3491 53.8169 33.0159 53.8429 32.6874C53.8632 32.4319 53.9023 32.4581 53.9125 32.2938C53.9512 31.5944 53.8699 31.9111 53.8989 31.1976C53.9034 31.0519 53.9063 30.9068 53.9073 30.7622C53.9103 29.8739 53.9628 28.9322 53.9921 28.0827C54.0014 27.5173 54.0434 26.9374 54.0729 26.4106C54.0785 26.2901 54.1167 26.2193 54.13 26.0444C54.1329 25.9898 54.1345 25.9287 54.1338 25.8535C54.1294 25.4851 54.0771 25.2041 54.064 24.631C54.0483 24.0187 54.0325 23.4158 53.9728 22.8437C53.9002 22.1616 53.8152 21.4764 53.7022 20.7747C53.6659 20.5502 53.6341 20.3282 53.601 20.1154C53.5671 19.9014 53.4841 19.6538 53.4086 19.4272C53.3894 19.3669 53.3711 19.3057 53.3542 19.2436C53.272 18.9403 53.1878 18.645 53.0659 18.3594C52.8592 17.8547 52.7473 17.5129 52.5519 17.1544C52.3088 16.6944 52.0634 16.3085 51.8231 15.9951C51.7719 15.9279 51.7215 15.8633 51.6722 15.8006C51.4389 15.5053 51.1625 15.1547 50.9421 14.7667C50.6447 14.2322 50.4266 13.7858 50.1888 13.5314C49.7704 13.0601 49.3936 12.5912 49.2206 12.5203C48.7488 12.2747 48.1285 12.0065 47.904 11.9894C47.2195 11.8961 47.016 11.799 46.6369 11.7817C46.2844 11.7581 45.9111 11.7813 45.5238 11.834C45.0933 11.8915 44.6677 11.9678 44.4495 12.0755C44.4016 12.0984 44.3656 12.1194 44.3376 12.1384C43.9263 12.4288 43.6039 12.7745 43.5489 12.906C43.5415 12.9215 43.5332 12.94 43.5265 12.9554C43.2562 13.684 43.4652 13.1728 43.303 13.8801C43.2427 14.1431 43.3581 14.3463 43.2527 14.1798C43.6446 14.5656 43.9294 14.8291 44.3 14.9907C44.7779 15.21 45.2459 15.4124 45.6806 15.5395C46.0238 15.6386 46.3685 15.728 46.6985 15.7927C46.8628 15.8248 47.0244 15.8505 47.166 15.863C47.2963 15.8804 47.4628 15.8572 47.3816 15.8733C47.7095 15.7669 47.9642 15.6391 48.1846 15.4597C48.4876 15.2129 48.7673 14.9057 49.0217 14.5641C49.2509 14.2588 49.4037 13.8693 49.6962 13.2917C49.7859 13.1544 49.8381 12.6887 49.7869 12.6023C49.6924 12.3024 49.6685 12.2127 49.6093 12.1112C49.5538 12.0141 49.4648 11.9095 49.3387 11.7993C48.7635 11.323 47.8609 10.7577 47.255 10.562C46.749 10.417 46.259 10.284 45.869 10.2538C45.0249 10.1948 43.8732 10.1839 43.3744 10.3012C42.86 10.481 42.3839 10.7061 41.915 10.9854C41.8276 11.0373 41.7366 11.1008 41.6397 11.1754C41.3673 11.3856 41.0444 11.6816 40.6976 11.9661C40.1917 12.3807 39.7275 12.8426 39.4677 13.3189C38.9678 14.2299 38.4612 15.2516 38.3991 15.9804C38.3629 16.5022 38.3018 17.0377 38.2174 17.5389C38.145 17.9913 38.1003 18.5173 38.0121 19.0387C37.9967 19.1295 37.9803 19.2168 37.9625 19.3012C37.8291 19.987 37.7781 20.3978 37.6228 20.9708C37.5914 21.0873 37.5588 21.2143 37.5223 21.3619C37.4162 21.792 37.3206 22.1597 37.2051 22.482C37.0318 22.9538 36.8823 23.3096 36.568 23.7671C36.3708 24.0047 36.2598 24.3985 35.4767 24.8896C35.4682 24.8942 35.4597 24.8987 35.4511 24.9032C35.1284 25.0713 34.8111 25.2223 34.5123 25.3832C34.075 25.6007 33.9751 25.686 33.9878 25.6665C33.8615 25.9177 33.8097 26.3489 33.8723 26.5164C33.9012 26.6093 33.9338 26.6893 33.9677 26.7523C34.0409 26.8862 34.0968 26.9181 34.1333 26.9304C34.4666 27.0954 34.7518 27.1836 34.8983 27.1744C35.3518 27.222 35.4992 27.2908 35.7268 27.3242C35.9411 27.3618 36.1803 27.3895 36.4733 27.4044C36.8963 27.4265 37.4101 27.4164 37.9595 27.3746C38.5787 27.3225 39.2426 27.3447 39.5658 27.2574C39.8364 27.189 40.1581 27.0651 40.45 26.9427C40.7519 26.8158 41.0575 26.6771 41.3769 26.5349C41.9017 26.3156 42.1784 26.2229 42.4343 26.0317C42.7996 25.7656 43.1598 25.4423 43.4479 25.1152C43.6814 24.8574 43.8561 24.7215 43.9417 24.6219C44.0341 24.5168 43.9877 24.5417 43.9856 24.602C44.0046 24.3001 43.9857 23.8914 43.9569 23.7987C43.86 23.444 43.7726 23.1875 43.6411 22.9706C43.4226 22.6024 43.1193 22.2031 42.8217 21.7151C42.4599 21.0862 42.2801 20.63 42.0104 20.1327C41.7818 19.6978 41.5999 19.2854 41.4094 18.9543C41.113 18.4129 40.9749 17.9911 40.7917 17.5948C40.6075 17.19 40.2848 16.6667 40.0213 16.1136C39.7486 15.5578 39.4085 14.958 39.0824 14.3508C38.74 13.7082 38.4016 13.1093 38.019 12.5299C37.8613 12.2897 37.7281 12.0694 37.6111 11.909C37.4998 11.7448 37.3849 11.6754 37.4565 11.7174C37.2816 11.6379 37.3337 11.7152 37.5207 11.6581C37.2966 11.7384 37.1707 11.8343 37.0203 12.0403C36.6728 12.527 36.4274 12.9359 36.0949 13.5223C35.7796 14.0481 35.4658 14.4985 35.3131 14.8734C35.1361 15.3012 34.9625 15.7513 34.7865 16.2014C34.4063 17.1168 34.1714 17.9697 33.4549 19.0488C33.1301 19.4622 32.7862 19.9994 32.0123 20.3918C31.4029 20.6746 30.8546 20.7629 30.3696 20.8643C29.9179 20.9884 29.0425 21.1308 28.4327 21.1045C27.576 21.0941 26.729 21.0819 25.8352 21.016C25.4313 20.9859 24.9649 20.9301 24.5461 20.8363C24.0962 20.7255 23.4287 20.6575 22.7859 20.0675C22.637 19.9225 22.4628 19.7695 22.2601 19.5343C22.0731 19.3114 21.7679 18.9064 21.7813 18.3201C21.7926 17.8142 21.8933 17.1888 22.2006 16.6485C22.5051 16.1303 22.8935 15.7332 23.5533 15.4966C23.9004 15.383 24.3376 15.2282 24.8125 15.1473C25.3244 15.0597 25.8422 14.9709 26.3927 14.9072C26.9717 14.8444 27.6669 14.6803 28.3985 14.6267C28.8595 14.596 29.4995 14.4383 30.1434 14.4067C30.6376 14.3756 31.0897 14.3655 31.5117 14.3213C31.8371 14.2833 31.5028 14.4001 32.052 14.3213C32.2002 14.2973 32.402 14.2651 32.6679 14.2228C32.9221 14.1812 33.2165 14.1318 33.483 14.0576C33.7732 13.9765 34.0546 13.8818 34.3327 13.7176C34.637 13.5522 34.9041 13.3694 34.9218 13.3099C34.942 13.2791 34.9504 13.2474 34.9475 13.2556C34.9459 13.2602 34.9443 13.2883 34.9509 13.3123C34.8145 12.7784 34.8319 12.8491 34.6578 12.7204C34.7642 12.7691 34.635 12.716 34.5619 12.7094C34.4755 12.695 34.3748 12.685 34.272 12.6801C34.0653 12.67 33.8462 12.6787 33.6279 12.7034C32.9689 12.7754 32.4056 12.7815 31.8603 12.8591C30.8423 13.0353 29.6458 13.3214 28.5042 13.5499C27.5332 13.7324 26.6541 13.94 25.81 14.2838C25.1579 14.5511 24.5089 14.8877 23.9415 15.2764C23.3678 15.6737 22.772 16.0491 22.4932 16.3988C21.873 17.1601 21.2861 17.7689 20.8214 18.4689C20.3055 19.2318 19.8887 19.9032 19.4071 20.762C19.0256 21.3857 18.5997 22.0331 18.296 22.6003C17.954 23.2496 17.6143 23.8269 17.3273 24.4142C16.9567 25.1787 16.6296 25.9812 16.3436 26.7888C15.9823 27.8243 15.5966 28.8288 15.5128 29.7611C15.4946 29.9637 15.4742 30.1664 15.452 30.3676C15.4078 30.7676 15.3587 31.1579 15.3122 31.548C15.2294 32.2492 15.1582 32.9667 15.1119 33.6624C15.072 34.2115 15.0169 34.7406 14.8273 35.347C14.7427 35.5225 14.7654 36.1232 14.1739 36.6549C13.8618 36.8806 13.4767 37.4584 12.497 37.4938C11.9934 37.4907 11.431 37.3978 10.9553 37.2399C10.2127 37.0033 9.50492 36.6676 8.9265 36.4482C8.24649 36.2345 7.32344 35.8469 6.66052 35.3876C5.88977 34.8216 5.17247 34.5228 4.45657 33.258C4.06447 32.378 3.59996 31.4249 3.22939 30.3947C3.10808 30.0619 2.76091 29.5033 2.55673 28.8208C2.37318 28.1471 2.13207 27.5861 1.83599 26.9409C1.63596 26.5069 1.45081 26.0965 1.24905 25.7134C0.991611 25.1897 0.715959 24.8616 0.386924 24.0149C0.226364 23.6003 -0.114354 22.6283 0.0329285 21.8157C0.0898148 21.4529 0.0315539 20.6769 0.367535 19.9124C0.579474 19.4025 0.921843 18.824 1.20824 18.4158C1.91418 17.4919 2.52526 17.1257 3.17627 16.6082C3.5189 16.3637 3.93237 15.9671 4.60812 15.7301C5.38318 15.5073 6.01627 15.4052 6.91845 15.6592C7.53423 15.8433 8.24203 16.2655 8.69993 16.76C9.56067 17.4661 10.2582 18.7381 10.6463 19.7439C11.0554 20.7781 11.4278 21.7474 11.7235 22.8774C11.8362 23.4798 11.8948 23.9975 11.9658 24.547C12.0488 25.2211 11.7524 24.9041 11.6102 24.5191C11.5836 24.141 11.5707 23.7898 11.5398 23.3908C11.3976 23.2331 11.3211 23.1459 11.255 23.0042C11.1325 22.7646 11.0469 22.3829 10.6172 21.2974C10.1903 20.2489 10.4306 21.1279 10.16 20.5901C10.1028 20.4776 10.0131 20.2987 9.90272 20.08C9.61745 19.5101 9.16207 18.6904 8.70929 18.1712C8.25851 17.667 7.87378 17.3514 8.15868 17.4907C8.12279 17.4662 8.08724 17.4413 8.05267 17.4159C7.90755 17.3101 7.76318 17.2202 7.60843 17.1398C7.30341 16.9204 6.96522 16.7724 6.59982 16.6677C6.08826 16.5256 5.48857 16.6112 4.9819 16.7831C4.58468 16.9285 4.25153 17.2385 3.88469 17.5282C3.2861 18.0179 2.63452 18.5219 2.23177 19.0956C2.01952 19.4259 1.82839 19.7399 1.67426 20.0835C1.60644 20.2326 1.57426 20.3337 1.54916 20.423C1.51737 20.5553 1.50405 20.653 1.46329 20.9032C1.40992 21.2463 1.4233 21.6017 1.3706 21.9978C1.29076 22.5265 1.42359 22.9716 1.65542 23.6136C1.69769 23.7492 1.78335 23.9183 1.8759 24.0903C2.12164 24.54 2.25356 24.6872 2.47686 25.0801C2.55205 25.2129 2.63676 25.3748 2.73488 25.586C2.9087 25.9626 2.97845 26.1722 3.06266 26.3873C3.16591 26.6602 3.29498 26.9301 3.59664 27.5785C3.51071 27.217 3.72959 27.6864 3.92818 28.4304C4.03428 28.837 4.31493 29.3124 4.54977 29.9464C4.72941 30.4887 4.94757 31.0121 5.09311 31.3495C5.14098 31.4663 5.45848 32.0626 5.77256 32.7232C5.84953 32.878 6.10621 33.1431 6.28159 33.3118C6.55842 33.5824 6.9509 33.9224 7.42113 34.2541C7.8533 34.5606 8.32062 34.8298 8.86367 35.0057C9.05328 35.0695 9.22965 35.1155 9.40338 35.163C9.75021 35.2645 10.0219 35.3538 10.3988 35.5107C10.6998 35.6363 11.0275 35.816 11.3795 35.9559C11.5003 36.0038 11.6212 36.0449 11.7449 36.0749C11.9391 36.1233 12.2284 36.1575 12.5317 36.1525C12.656 36.1711 13.0212 35.8485 13.1133 35.764C13.1921 35.6962 13.2554 35.6425 13.3027 35.6049C13.3645 35.5516 13.2879 35.6954 13.3784 35.5909C13.443 35.5079 13.4868 35.2742 13.5947 34.9306C13.725 34.5426 13.7974 34.051 13.8353 33.5713C13.8934 32.8423 13.9733 32.1193 14.0644 31.3924C14.1396 30.798 14.217 30.2161 14.2673 29.6457C14.3421 28.8345 14.5679 28.1036 14.7805 27.4342C14.8823 27.1195 14.6787 27.5337 14.6909 27.4922C14.8818 26.8549 14.9956 26.5209 15.0596 26.3366C15.2203 25.8883 15.1074 26.3494 15.2905 25.9595C15.403 25.7222 15.7546 24.8019 16.197 23.8678C16.5429 23.1445 16.935 22.4415 17.1289 22.0072C17.2793 21.6831 17.3712 21.5026 17.3549 21.4825C17.5359 21.4291 17.9424 20.5748 18.0662 20.3659C18.1396 20.2419 18.2016 20.142 18.2561 20.0581C18.524 19.6342 18.584 19.6399 18.9682 18.9473C19.1376 18.6458 18.7209 19.1806 18.9169 18.8634C19.1637 18.4665 19.4298 18.1178 19.7212 17.739C20.0156 17.3537 20.3571 16.9649 20.7472 16.5127C20.9366 16.2921 20.9627 16.1826 21.284 15.8013C21.3274 15.7492 21.39 15.6754 21.4605 15.5889C22.0778 14.8444 23.3628 14.1586 22.5848 14.5431C22.8196 14.4014 23.0098 14.2875 23.1753 14.182C23.8599 13.7633 24.2065 13.5123 25.2943 13.04C25.3262 13.0268 25.3586 13.0136 25.3916 13.0003C25.7696 12.8511 26.2832 12.7546 27.0941 12.5244C27.3682 12.4489 27.3423 12.3654 27.76 12.2763C27.9168 12.2434 28.0751 12.2148 28.2217 12.1885C28.9903 12.0489 29.7746 11.9349 30.767 11.7268C31.0627 11.6667 31.3456 11.603 31.6818 11.5514C32.2936 11.4613 32.9154 11.4446 33.4759 11.3748C34.0641 11.3301 34.5281 11.2302 35.3211 11.5408C35.8902 11.7955 36.2055 12.5851 36.2657 12.9658C36.3785 13.3889 36.2351 13.7927 36.0458 14.0693C35.8484 14.3566 35.5977 14.5273 35.3777 14.6597C35.1639 14.7845 35.0476 14.828 34.9495 14.8659C34.7271 14.9453 34.5636 15.012 33.9252 15.1811C33.899 15.1877 33.8386 15.2057 33.7536 15.2295C33.4116 15.3292 32.7494 15.4408 32.2725 15.5349C32.1851 15.5519 32.1015 15.5664 32.0242 15.5778C31.7865 15.6249 30.9234 15.6788 30.2445 15.7051C29.7999 15.727 29.4065 15.7948 29.2417 15.8214C28.9035 15.879 28.689 15.9258 28.5189 15.9592C28.372 15.9905 28.2608 16.019 28.0886 16.0344C27.06 16.1452 27.8917 15.9059 26.6175 16.2701C26.5977 16.2685 26.5772 16.2671 26.556 16.2659C26.1395 16.2329 25.4613 16.3539 25.2187 16.286C25.159 16.3153 25.0955 16.3399 25.028 16.3611C24.7511 16.4494 24.4113 16.5129 23.9393 16.6701C23.844 16.7002 23.7391 16.7591 23.6421 16.8454C23.4997 16.9718 23.4017 17.1383 23.3535 17.2844C23.2096 17.6967 23.2713 18.0202 23.069 18.1392C23.0693 18.1895 23.0693 18.2626 23.0721 18.3536C23.0432 18.4571 23.3558 18.7891 23.7163 19.0923C23.9026 19.2559 24.1677 19.3247 24.2587 19.3523C24.6845 19.4642 24.7444 19.4847 24.8195 19.5217C24.8735 19.5443 24.946 19.5725 25.1812 19.607C25.2875 19.6172 25.1739 19.5707 25.8543 19.6362C26.1128 19.6664 27.3823 19.7168 28.4402 19.72C29.1582 19.7362 29.6989 19.5965 29.7903 19.577C29.8979 19.5547 30.0009 19.5329 30.0963 19.517C30.8213 19.3941 30.6113 19.4512 30.1058 19.5639C29.5691 19.7178 28.9017 19.8144 28.4397 19.813C28.2995 19.8166 28.198 19.8211 28.1341 19.827C28.0451 19.8122 27.9595 19.7972 27.8642 19.7822C26.8458 19.7419 27.4229 19.8646 27.886 19.8966C28.0394 19.9069 28.2293 19.909 28.4392 19.9082C28.8587 19.91 29.31 19.8498 29.5566 19.8214C29.7396 19.7953 29.663 19.9796 29.0887 20.0253C29.7043 19.9974 28.8723 20.1345 29.1183 20.1465C29.219 20.1594 29.6816 20.1005 30.1894 19.9762C30.6817 19.8824 31.2503 19.7555 31.6173 19.5611C31.9062 19.4091 32.0451 19.2347 32.0365 19.2209C31.9121 19.3323 31.7665 19.4421 31.5986 19.5219C31.2402 19.6933 30.8292 19.7884 30.4763 19.8622C30.0279 19.8567 30.6816 19.6133 31.439 19.1862C31.7206 19.0064 32.0094 18.634 32.3332 18.2155C32.4401 18.0804 32.55 17.9085 32.6595 17.7358C33.321 16.5696 32.5809 18.6182 33.6301 15.7524C33.648 15.7017 33.6663 15.6496 33.6851 15.5961C33.6643 15.6481 33.6438 15.6992 33.6234 15.7498C33.459 16.1569 33.3096 16.5119 33.1492 16.8867C33.043 16.8964 33.4203 16.2463 33.5308 15.8734C33.5845 15.6957 33.1048 16.7342 33.445 15.8025C33.4646 15.7693 33.4835 15.736 33.5019 15.7026C33.734 15.2836 33.8681 14.8811 34.0569 14.354C34.2015 13.9534 34.4363 13.5397 34.7299 13.0703C34.5437 13.4178 34.3359 13.7764 34.1718 14.1779C34.8721 13.0237 34.3762 13.9053 34.1943 14.4108C34.106 14.6662 34.0674 14.7978 34.234 14.4272C34.3449 14.159 34.6338 13.6934 35.1128 12.9454C34.8326 13.428 34.495 13.8906 34.271 14.4425C34.2703 14.4442 34.2697 14.4458 34.269 14.4474C34.27 14.4459 34.271 14.4444 34.2719 14.4429C34.3834 14.2761 34.3917 14.4713 34.4372 14.5113C34.4429 14.5166 34.4491 14.5195 34.456 14.519C34.4706 14.5181 34.4882 14.502 34.5124 14.4618C34.735 14.0834 35.0602 13.5965 35.3603 13.0839C35.4948 12.8502 35.6149 12.621 35.7437 12.4143C35.9258 12.1235 35.8483 12.3262 35.8636 12.3015C36.1187 11.9091 36.0146 11.9636 36.2462 11.6208C36.2642 11.5945 36.2839 11.5665 36.3066 11.5346C36.4686 11.2914 36.8349 10.9701 37.2453 10.8567C37.4236 10.8013 37.6189 10.8818 37.7719 10.9491C37.8675 10.9917 37.9332 11.0466 37.9667 11.072C38.2949 11.3835 38.0231 10.9437 37.8175 10.8379C37.7655 10.8062 37.7333 10.7871 37.746 10.79C37.772 10.796 37.7995 10.8037 37.828 10.8123C38.2696 10.9406 38.6014 11.6428 38.6409 11.5557C38.4649 11.3179 38.2676 10.9481 37.85 10.7588C37.6589 10.6801 37.4195 10.5982 37.1844 10.6797C36.7707 10.8143 36.4045 11.1058 36.1712 11.4387C35.2404 12.7971 34.6566 13.6928 36.0607 11.3604C36.1483 11.2303 36.2553 11.0963 36.3904 10.969C36.2256 11.0972 36.105 11.2232 36.0117 11.3257C35.663 11.7078 35.6063 11.6614 35.8572 11.2162C36.0127 10.9484 36.3777 10.4895 37.04 10.2595C37.1874 10.2069 37.351 10.191 37.4968 10.2041C37.7503 10.2288 37.9108 10.3038 38.0193 10.3464C38.4417 10.5432 38.5364 10.7277 38.6149 10.8109C38.6839 10.9014 38.6926 10.9312 38.6956 10.9533C38.6954 10.9956 38.6865 11.0143 38.8905 11.3837C38.9064 11.4113 39.0069 11.5797 39.141 11.7931C39.5381 12.3973 40.1293 13.5038 40.1988 13.5608C40.1377 13.5501 40.1476 13.6668 40.1543 13.7776C40.1632 13.9287 40.1687 14.0725 39.9819 13.8698C39.9781 13.8656 39.9741 13.8612 39.97 13.8567C39.9222 13.7996 39.4784 12.9765 39.5507 13.3093C39.588 13.4751 39.7147 13.9358 39.6244 13.899C39.6559 13.9353 39.6883 13.9727 39.7206 14.0095C39.8207 14.1243 39.924 14.2396 40.0241 14.3529C40.4279 15.0803 40.6075 15.4469 40.7324 15.7727C40.8213 16.0033 40.8994 16.2127 41.0196 16.5035C41.0319 16.4555 40.8204 15.7657 41.2934 16.7325C41.3129 16.78 41.3085 16.8445 41.4867 17.2851C41.493 17.3014 41.4994 17.3182 41.5061 17.3356C41.8841 18.3595 41.9776 18.6041 41.4972 17.8629C41.6315 18.1521 41.7502 18.4221 41.8979 18.6777C42.146 19.1065 42.3081 19.5063 42.4921 19.8819C42.7346 20.3679 42.878 20.8055 43.2409 21.4636C43.4262 21.78 43.6567 22.1002 43.9034 22.4631C43.8619 22.2058 43.687 21.914 43.3673 21.3877C43.1292 20.9832 42.912 20.485 42.5596 19.8468C42.4772 19.6956 42.3942 19.5349 42.3094 19.3677C42.3094 19.2638 42.331 19.2051 42.3303 19.0992C42.4505 19.37 42.553 19.6046 42.6466 19.8015C43.2667 21.1529 43.0679 20.8219 43.423 21.3543C43.5036 21.4684 43.6151 21.6197 43.7743 21.83C43.863 21.9501 44.089 22.2674 44.2872 22.5898C44.6022 23.1067 44.7411 23.7677 44.7111 23.3194C44.702 23.2283 44.5834 22.8153 44.4115 22.5165C44.2724 22.2655 44.1498 22.0682 44.2062 22.1127C44.2137 22.1195 44.3249 22.2742 44.4575 22.4894C44.6611 22.8033 44.812 23.2936 44.8778 23.5495C44.8995 23.6332 44.9059 23.6941 44.9076 23.7168C44.867 24.9612 44.7492 23.7639 44.7173 24.6429C44.7191 24.8405 44.5382 25.0728 43.991 25.5961C43.7847 25.832 43.5169 26.1001 43.1738 26.3848C43.0778 26.4632 43.0726 26.5339 42.8968 26.676C42.888 26.683 42.8787 26.6902 42.869 26.6974C42.4795 26.967 42.4407 26.8963 42.0497 27.0746C41.9412 27.1218 41.8197 27.1774 41.6887 27.2455C41.35 27.4227 40.9478 27.6386 40.4822 27.759C39.7111 27.9403 40.5917 27.5627 41.6157 27.0792C42.0897 26.8791 42.4957 26.7378 42.794 26.5327C42.8581 26.4908 42.9189 26.4502 42.9758 26.4119C43.0103 26.3541 42.9315 26.3917 42.7635 26.4903C42.5477 26.6248 42.2011 26.7627 41.5765 26.9898C41.0148 27.2154 40.3404 27.5254 39.6808 27.6994C39.2335 27.8085 38.5988 27.7769 37.9991 27.8324C36.619 27.9657 35.6746 27.7808 34.8612 27.5854C34.723 27.5733 34.6098 27.5363 34.5667 27.5245C34.2276 27.4204 34.0222 27.3054 33.9494 27.2781C33.921 27.2673 33.9214 27.2713 33.9446 27.287C34.0546 27.3494 34.4878 27.603 34.8562 27.6408C35.3162 27.712 35.5412 27.815 35.7963 27.8557C36.0356 27.9026 36.22 27.9235 36.2562 27.9377C36.3363 27.9571 36.275 28.2828 37.2897 28.0804C37.5828 28.0231 36.3485 27.9642 37.0824 27.929C37.816 27.8761 37.53 27.9638 37.5834 27.9694C37.6576 27.9731 37.8234 27.9625 38.0088 27.9441C38.3025 27.9148 38.6282 27.8918 38.6916 27.8956C39.5004 27.964 39.8191 27.9633 39.7461 28.0284C39.6607 28.1118 39.121 28.1247 38.0127 27.9903C38.0112 27.9901 38.0096 27.9899 38.008 27.9898C37.6135 28.0608 37.787 28.0978 38.0246 28.127C38.337 28.1644 38.7343 28.2012 38.0826 28.2815C38.0679 28.2835 38.0532 28.2855 38.0384 28.2876C36.6499 28.4958 35.6474 28.1894 35.4922 28.1353C35.1938 28.0564 34.9891 27.9812 34.8266 27.968C34.4679 27.9134 34.5553 27.9378 34.5526 27.9683C34.5555 27.9817 34.4336 28.0345 33.7457 27.663C33.6337 27.6018 33.5178 27.5085 33.4158 27.3764C33.0709 26.7914 33.3095 27.189 33.5185 27.388C33.6263 27.4863 33.725 27.5313 33.6743 27.4866C33.6346 27.4361 33.4029 27.3062 33.2129 26.7303C33.1763 26.6181 33.1514 26.4846 33.1448 26.3318C33.1318 25.9152 33.2255 25.5941 33.3072 25.3798C33.4171 25.1207 33.5739 25.0281 33.631 24.9676C33.6946 24.9106 33.6879 24.8991 33.6483 24.9033C33.5692 24.9068 33.3715 25.012 33.3963 24.9086C33.3976 24.8683 33.7327 24.6313 33.8417 24.5657C33.8954 24.5291 33.8958 24.523 33.7721 24.5874C33.6699 24.6679 33.3163 24.7308 33.0499 25.2714C33.0423 25.2897 33.0346 25.3091 33.0274 25.3283C33.0408 25.4015 33.0519 25.526 33.0556 25.6629C32.962 25.9639 32.8331 26.4181 32.9048 26.8303C32.9389 27.0611 33.0074 27.2638 33.0681 27.3659C33.2201 27.6305 33.4264 27.8102 33.6164 27.9073C34.1615 28.1768 34.3108 28.2183 34.7931 28.3385C34.8396 28.351 34.8974 28.3727 34.9718 28.4049C34.7555 28.2921 34.8203 28.29 34.998 28.3308C35.1785 28.3782 35.4954 28.4734 35.6713 28.4876C36.3185 28.5366 36.2269 28.4689 36.3208 28.4753C36.415 28.4637 36.6921 28.5635 38.0586 28.5205C38.0883 28.5194 38.1174 28.5184 38.1481 28.5174C38.1174 28.5147 38.088 28.512 38.0576 28.5096C37.7169 28.4827 37.4061 28.4455 37.0779 28.3948C37.4004 28.388 37.7209 28.3672 38.0427 28.3374C38.0595 28.3358 38.0761 28.3343 38.0927 28.3329C38.5871 28.4389 40.4288 28.2922 38.7758 28.5444C39.1661 28.5333 39.5358 28.5204 39.872 28.4339C41.0657 28.0745 41.5314 27.7545 41.8251 27.5565C41.8335 27.5501 41.8418 27.5438 41.85 27.5375C41.9111 27.4852 42.1804 27.384 42.5079 27.2351C42.4335 27.2371 42.3203 27.1862 42.3662 27.1543C42.5535 27.0262 42.7975 26.9052 42.9886 26.8038C43.2162 26.6856 43.3837 26.6322 43.2935 26.7491C43.4901 26.6 43.6386 26.4732 43.6912 26.4286C44.0246 26.1435 43.4196 26.7589 43.7004 26.5387C43.7559 26.4967 44.0944 26.191 44.3437 25.9085C44.4894 25.751 44.666 25.6045 44.6773 25.6035C44.7702 25.6085 44.5247 25.8584 44.4897 25.9032C44.4703 25.9274 44.4795 25.9129 44.6051 25.7967C44.6685 25.7367 44.7662 25.6549 44.9078 25.5062C45.038 25.3606 45.2718 25.1127 45.3066 24.6757C45.3208 24.3526 45.3698 24.0095 45.2599 23.4462C45.248 23.3981 45.2355 23.3487 45.2224 23.298C45.1894 23.286 45.1869 23.3537 45.1986 23.4628C45.2519 23.8321 45.2179 24.4209 45.1609 24.6676C45.1271 24.8158 45.0925 24.8408 45.0746 24.6906C45.073 24.6814 45.0714 24.672 45.0697 24.6625C45.002 24.3629 45.0509 23.9237 44.9645 23.5261C44.8939 23.2378 44.8021 22.992 44.6861 22.9308C44.6848 22.8402 44.6944 22.7949 44.6964 22.7113C44.6448 22.6125 44.592 22.5227 44.5397 22.441C43.9946 21.639 43.8743 21.3832 43.7911 21.1335C43.7598 21.0441 43.7313 20.9579 43.6843 20.8471C43.5797 20.6028 43.3545 20.0788 43.0933 19.569C42.8628 19.1116 42.6388 18.6217 42.4705 18.3535C42.331 18.1111 42.2814 18.0502 42.4246 18.3795C42.5386 18.6046 42.7042 19.0145 42.9869 19.6244C42.9872 19.6251 42.9875 19.6259 42.9879 19.6266C42.9875 19.6259 42.9871 19.6252 42.9867 19.6245C42.771 19.2365 42.5828 18.8185 42.349 18.4222C42.2871 18.3174 42.2309 18.2069 42.1771 18.095C42.3349 17.9106 42.402 18.0993 41.9639 17.0724C41.8104 16.7212 41.5535 16.2956 41.2673 15.7028C41.2413 15.6486 41.219 15.5978 41.199 15.5491C41.0054 15.0933 40.9795 14.8634 40.6043 14.4534C40.6871 14.454 40.5061 14.0892 40.2971 13.7012C40.0758 13.2842 39.7993 12.8315 39.7626 12.7517C39.5368 12.2547 39.9729 12.8376 40.4203 13.6353C40.7723 14.2513 41.1778 15.0023 41.3353 15.4837C41.3777 15.6185 41.4038 15.7254 41.403 15.7928C41.7872 16.3219 41.7003 16.3676 42.0339 17.0412C42.0409 17.0562 42.048 17.0715 42.0553 17.087C42.327 17.6732 42.4456 17.9638 42.6083 18.2754C42.7584 18.5506 42.891 18.8836 43.0897 19.3776C43.3815 19.8269 43.0485 19.0779 42.6351 18.2602C42.4217 17.8425 42.2376 17.3046 42.1992 17.1779C42.1646 17.0219 42.3092 17.3691 42.7614 18.1803C42.7627 18.1824 42.7641 18.1844 42.7654 18.1865C42.9587 18.4881 43.1704 18.9236 43.4295 19.394C43.6759 19.8236 43.9448 20.4191 44.22 20.8762C44.4429 21.2343 44.7511 21.6275 45.0625 22.1328C45.3038 22.5237 45.4516 22.9758 45.5607 23.3648C45.6888 23.9148 45.6643 24.2662 45.6541 24.6951C45.5682 25.6588 44.844 26.0111 44.7064 26.2297C44.3212 26.6687 43.9016 27.0497 43.4202 27.405C42.9696 27.7465 42.3913 27.9428 42.0588 28.0892C41.4297 28.3676 40.8058 28.6829 39.9973 28.9155C39.2143 29.1028 38.6617 29.0476 38.1099 29.1143C37.5428 29.1668 36.9649 29.1973 36.3624 29.1661C36.0606 29.15 35.751 29.1164 35.4428 29.0564C35.1498 29.002 34.7737 28.8895 34.7427 28.8964C34.1252 28.8318 33.7137 28.6045 33.3451 28.42C32.6987 28.0766 32.4207 27.4761 32.2738 27.035C32.0441 26.242 32.1593 25.6401 32.3984 24.9969C32.7304 24.2256 33.4149 23.9976 33.6324 23.8506C33.9834 23.6465 34.3243 23.4756 34.6325 23.3144C34.6933 23.2972 34.9249 23.0292 35.1634 22.6974C35.3397 22.4616 35.4983 22.1512 35.6104 21.859C35.7568 21.4793 35.8584 21.0149 35.9606 20.5793C36.0782 20.0839 36.0915 19.5336 36.2045 18.9527C36.2779 18.5607 36.3171 18.1597 36.3576 17.8247C36.3799 17.6373 36.4027 17.447 36.4358 17.2413C36.514 16.7619 36.5628 16.3086 36.5954 15.8418C36.7875 14.3154 37.4007 13.3921 37.8923 12.4406C38.3659 11.6043 38.9832 11.0507 39.5574 10.5714C39.9821 10.2324 40.3521 9.83157 40.9921 9.4327C41.5557 9.09276 42.1651 8.80422 42.7697 8.59098C44.1962 8.2634 44.9413 8.40036 45.9992 8.43276C46.6887 8.4897 47.2311 8.65652 47.7508 8.7991C48.9422 9.21285 49.6205 9.68446 50.5476 10.4134C50.7741 10.611 51.0087 10.8588 51.1963 11.1789C51.386 11.4905 51.4884 11.8839 51.5318 12.0129C51.7645 12.8744 51.6661 13.4192 51.3131 14.1775C51.1447 14.4945 50.9192 15.0991 50.5029 15.6639C50.4861 15.6865 50.4691 15.7092 50.4519 15.7318C50.3127 15.9095 49.9634 16.3869 49.353 16.889C48.9629 17.2135 48.4397 17.4738 47.9576 17.6243C47.4526 17.7643 47.2245 17.7071 46.9634 17.6918C46.7145 17.6657 46.4937 17.625 46.2839 17.5806C45.8661 17.4912 45.4953 17.3848 45.1772 17.2854C44.2024 16.9574 43.7787 16.6789 44.2445 16.8261C44.3208 16.8474 44.7797 17.0254 45.2225 17.1283C45.776 17.2506 46.1919 17.3114 45.2622 16.9908C45.1517 16.9515 45.0276 16.9042 44.8894 16.8475C45.3392 17.0947 43.9542 16.6271 43.8619 16.5724C43.7754 16.5404 43.6942 16.51 43.6193 16.4822C42.4997 15.9949 42.2976 15.6612 41.9967 15.4546C41.2451 14.651 41.291 13.7271 41.9106 12.1738C42.1158 11.7273 42.389 11.4101 42.714 11.0914ZM52.5829 16.421C52.4253 16.1685 52.2713 15.9515 52.1248 15.7609C51.7467 15.2814 51.4392 14.8774 51.271 14.5777C50.4271 13.0636 51.4458 15.1685 50.8418 14.4649C50.8884 14.5519 50.9371 14.6422 50.992 14.738C51.2624 15.2153 51.6023 15.6133 51.8691 15.9594C51.939 16.0496 52.0065 16.1406 52.0723 16.2331C52.0148 16.1341 51.9558 16.037 51.8941 15.94C51.8653 15.8953 51.836 15.8503 51.8061 15.8046C51.8057 15.804 51.8052 15.8034 51.8047 15.8028C51.8505 15.8366 51.896 15.8701 51.941 15.9036C52.1613 16.0634 52.3754 16.2355 52.5829 16.421ZM37.718 33.1608C37.5148 33.2041 37.3138 33.2477 37.1143 33.2984C36.9184 33.3147 36.7927 33.331 36.6379 33.3773C36.1374 33.5278 35.6868 33.615 35.3974 33.7742C35.3845 33.7811 35.371 33.7883 35.3579 33.7952C35.3692 33.7849 35.3809 33.7744 35.3919 33.7642C35.4275 33.7236 35.4645 33.6844 35.5064 33.6455C35.7882 33.5171 36.1937 33.4277 36.6122 33.2953C36.8899 33.2001 37.2981 33.1873 37.718 33.1608ZM43.4997 25.9199C43.6953 25.7677 43.8219 25.6425 43.9181 25.5316C44.0742 25.3554 44.1849 25.2459 44.304 25.1101C44.419 24.9747 44.5549 24.8317 44.5806 24.6352C44.5882 24.5535 44.596 24.4653 44.6031 24.3693C44.537 24.4532 44.4698 24.5397 44.401 24.6252C44.3467 24.649 44.2906 24.6511 44.2368 24.6442C44.2186 24.7543 43.931 24.9981 43.6616 25.3045C43.4782 25.5233 43.2629 25.7511 42.8568 26.06C42.972 26.0168 43.0895 25.968 43.2022 25.9195C43.3248 25.8006 43.4499 25.669 43.5579 25.5475C43.8416 25.4461 42.6146 26.5744 43.4974 25.9223C43.4982 25.9215 43.4989 25.9207 43.4997 25.9199ZM41.3037 17.299C41.2136 17.0651 40.8744 16.456 40.5894 15.8412C40.3361 15.3007 40.0525 14.7919 39.9666 14.6796C39.6845 14.3234 40.1537 15.1972 40.4812 15.8931C40.8712 16.6987 41.1873 17.2989 40.4132 15.9257C40.3233 15.7561 40.2059 15.5472 40.0638 15.3001C40.0525 15.3287 40.023 15.3218 40.0026 15.3326C40.1139 15.5476 40.2245 15.7639 40.321 15.9699C40.5701 16.5088 40.8799 17.0202 41.0769 17.4646C41.1453 17.3928 41.2386 17.3786 41.3037 17.299ZM46.1758 16.0717C46.3074 16.1058 46.5263 16.1576 46.785 16.1989C47.025 16.2409 47.4042 16.2652 47.4965 16.2226C47.8614 16.0966 48.1739 15.9174 48.3938 15.7156C48.894 15.2521 49.1082 14.8754 48.7366 15.2329C48.6599 15.3001 48.5172 15.4587 48.3265 15.6333C48.1219 15.8274 47.8207 16.0187 47.4735 16.1525C47.4028 16.2036 46.9895 16.1834 46.814 16.1467C46.418 16.0661 46.8837 16.0888 46.0861 15.9321C46.1122 15.9762 46.1243 16.0209 46.1781 16.072C46.1773 16.0719 46.1766 16.0718 46.1758 16.0717ZM44.5849 16.0638C44.8659 16.1745 45.1522 16.2771 45.4452 16.3559C45.9836 16.4975 46.5323 16.6294 47.0828 16.6745C46.6335 16.5698 45.8637 16.3886 45.4806 16.2331C45.3484 16.1797 45.2646 16.1279 45.2582 16.0896C45.3402 16.1133 45.4219 16.1352 45.5032 16.1547C45.644 16.1888 45.7858 16.2214 45.9281 16.2519C46.0929 16.3245 46.2559 16.3935 46.4209 16.458C46.7442 16.4923 46.8374 16.4773 46.9567 16.4778C47.063 16.4681 47.2667 16.5173 47.5736 16.4569C47.6754 16.4243 47.7919 16.3848 47.9232 16.3304C47.7831 16.3525 47.6619 16.3614 47.545 16.3701C47.2581 16.3122 46.8495 16.2447 45.5529 15.9823C45.3635 15.9434 45.1485 15.8881 44.9077 15.817C45.299 15.8555 45.1474 15.5143 44.1964 15.2179C44.1036 15.1909 44.0065 15.1633 43.9019 15.1302C43.7961 15.094 43.9506 15.2234 44.1463 15.3275C44.3282 15.4244 44.5109 15.5138 44.5143 15.5188C44.6184 15.6667 44.085 15.4941 44.2003 15.6415C44.252 15.7113 44.8171 15.9529 44.8841 16.0335C44.9143 16.0772 44.3396 15.9228 44.5849 16.0638ZM43.4139 14.8775C43.557 14.9502 43.3787 14.7144 43.0748 14.3604C43.0956 14.3669 43.0494 14.268 43.0491 14.0742C43.0575 13.73 43.0533 13.6973 42.9922 13.873C42.9286 14.0344 42.9239 14.4137 42.9837 14.4528C43.1448 14.6259 43.2994 14.78 43.4139 14.8775ZM37.7227 33.1604C37.7211 33.1605 37.7196 33.1607 37.718 33.1608C37.7188 33.1606 37.7196 33.1605 37.7203 33.1603C37.7211 33.1603 37.7219 33.1604 37.7227 33.1604ZM42.4444 19.851C42.2077 19.4624 41.9654 18.9521 41.8046 18.7305C41.7146 18.5941 41.6652 18.5225 41.6538 18.555C41.5148 18.2372 41.4157 17.9404 41.3103 17.6564C41.2904 17.6679 41.2715 17.6821 41.2518 17.6936C41.3912 18.0303 41.5125 18.3818 41.7241 18.7761C41.92 19.1346 42.0935 19.5505 42.3086 19.9774C42.3543 20.0688 42.3993 20.1601 42.4439 20.2518C42.4467 20.1381 42.4521 20.0301 42.4478 19.905C42.4467 19.8873 42.4456 19.8693 42.4444 19.851ZM37.7281 11.1946C37.711 11.1847 37.6953 11.177 37.6808 11.171C37.4677 11.0817 37.4221 11.0989 37.3953 11.1054C37.3725 11.1153 37.3797 11.1292 37.3905 11.1442C37.4115 11.1729 37.4752 11.2242 37.4206 11.2384C37.3942 11.2462 37.3758 11.2564 37.3837 11.2595C37.0972 11.3537 36.8159 11.6235 36.8997 11.6198C37.041 11.4823 37.2007 11.3856 37.4035 11.3171C37.3621 11.3274 37.4103 11.3051 37.5923 11.3865C37.6241 11.3978 37.7092 11.4614 37.799 11.5723C37.7721 11.4207 37.7707 11.3096 37.727 11.194C37.7274 11.1942 37.7278 11.1944 37.7281 11.1946ZM53.3407 37.4576C53.5551 36.7129 53.5832 37.0293 53.81 35.5235C53.8098 35.5246 53.8096 35.5256 53.8094 35.5267C53.5972 36.3879 53.2974 37.4375 52.9752 38.4315C52.7677 39.0602 52.57 39.6914 52.3834 40.2632C52.6657 39.6616 52.8291 39.1083 53.0379 38.4516C53.1313 38.1553 53.2279 37.8295 53.3407 37.4576ZM41.129 27.0302C41.0029 27.1166 41.2283 27.0463 41.5468 26.9221C41.9857 26.7634 42.4081 26.5941 42.5205 26.4739C42.7624 26.2325 42.2103 26.5411 41.5027 26.8216C41.3484 26.8977 41.2164 26.9705 41.129 27.0302ZM34.2843 50.7496C34.15 50.487 34.1153 50.3868 34.0752 50.4644C34.0523 50.5362 33.9917 50.7979 34.2333 51.1758C34.3609 51.3347 34.5077 51.7035 35.0464 51.7824C35.3745 51.8044 35.7021 51.866 36.1953 51.7174C36.7825 51.4589 36.9956 50.951 37.2329 50.8645C37.2812 50.845 37.1211 50.8603 36.8966 51.0745C36.6867 51.2715 36.4316 51.47 36.6058 51.2817C36.6246 51.2653 36.787 51.0862 36.9432 50.9323C37.1047 50.7687 37.2615 50.7198 37.332 50.7166C37.4478 50.7096 37.3839 50.6546 37.4877 50.6521C37.5027 50.6492 37.5299 50.6514 37.5684 50.7006C37.6138 50.7581 37.6516 50.8541 37.7094 50.9568C37.8678 51.2181 38.0407 51.7256 38.5214 51.7778C38.8111 51.8061 39.1363 51.8651 39.3374 51.6742C39.3909 51.6184 39.429 51.5648 39.4567 51.5196C39.4668 51.5009 39.4077 51.5654 39.3075 51.6426C39.0836 51.8035 38.6988 51.6709 38.6675 51.6779C38.6226 51.6712 38.5776 51.6645 38.5325 51.6585C38.1268 51.604 37.9564 51.1646 37.7857 50.915C37.6893 50.7573 37.6186 50.5892 37.5146 50.5725C37.465 50.5602 37.4299 50.5563 37.4104 50.553C37.0725 50.5176 36.9502 50.6671 36.8692 50.6851C36.7901 50.7203 36.7583 50.7142 36.6868 50.7698C36.4675 50.9538 36.1862 51.2768 36.0416 51.3135C36.015 51.3249 35.9959 51.3309 35.9898 51.3322C35.5878 51.3725 35.7455 51.3488 36.0231 51.2648C36.2125 51.1964 36.4294 50.9343 36.6621 50.6967C36.8803 50.4423 37.2684 50.331 37.3903 50.3599C37.4635 50.3622 37.5239 50.3727 37.5779 50.3852C37.8651 50.5142 37.8477 50.6324 37.9055 50.6761C37.947 50.7279 37.9767 50.7571 38.0121 50.791C38.0622 50.8477 38.121 50.933 38.2098 51.06C38.298 51.1848 38.4264 51.3493 38.5621 51.3405C38.6877 51.3484 38.8188 51.3598 38.9289 51.3542C38.9556 51.3609 39.0914 51.3192 39.0286 51.348C39.1496 51.2327 39.3173 50.951 39.358 50.8712C39.4054 50.763 39.2968 50.9777 38.9843 51.3013C39.1063 51.234 38.8944 51.2976 38.5719 51.2356C38.571 51.2354 38.5702 51.2353 38.5694 51.2351C38.5703 51.2351 38.5711 51.235 38.5719 51.235C38.8683 51.2781 39.1232 51.183 38.9454 51.2602C39.0524 51.1401 39.1732 50.923 39.2603 50.7704C39.3068 50.6896 39.3463 50.6177 39.4062 50.5322C39.4479 50.4841 39.4422 50.4508 39.6145 50.33C39.6643 50.3018 39.7443 50.2507 39.9042 50.2434C40.0832 50.2302 40.2875 50.3518 40.3574 50.4474C40.4891 50.6234 40.473 50.6742 40.4913 50.7281C40.5207 50.932 40.5061 50.9062 40.5116 50.9427C40.5135 50.9646 40.5158 50.972 40.5183 50.9713C40.5208 50.9703 40.5235 50.9612 40.5266 50.938C40.5262 50.901 40.5452 50.9221 40.5205 50.7225C40.4905 50.6571 40.5548 50.6008 40.3002 50.3437C40.1661 50.2113 39.8515 50.1827 39.7424 50.2327C39.6186 50.2716 39.5673 50.3154 39.5333 50.3392C39.4024 50.4462 39.389 50.4829 39.3496 50.5297C39.2849 50.6159 39.2385 50.6887 39.1866 50.7678C39.0897 50.9176 38.9603 51.1132 38.8786 51.1896C38.9945 51.0958 39.002 51.138 38.9233 51.1338C38.8488 51.1362 38.7292 51.1253 38.5834 51.1119C38.5771 51.1069 38.5955 51.1374 38.5247 51.058C38.4613 50.982 38.384 50.8346 38.2797 50.6444C38.2636 50.6179 38.2407 50.5629 38.1903 50.4614C38.1386 50.3764 38.0532 50.1393 37.7049 50.009C37.4308 49.9027 37.0086 49.941 36.7657 50.0901C36.516 50.2302 36.3822 50.3825 36.2685 50.4994C36.052 50.7409 35.9126 50.8636 35.8745 50.8744C35.8052 50.9081 35.5798 50.9276 35.5014 50.9324C35.1094 50.954 35.7056 51.0323 35.4673 51.0712C35.3563 51.0892 35.2248 51.0995 35.0866 51.1039C35.0213 51.1475 34.8203 50.9884 34.6625 50.8218C34.5504 50.7254 34.4912 50.5927 34.4528 50.641C34.4067 50.6995 34.4036 50.827 34.489 50.9649C34.6034 51.1326 34.7789 51.4002 35.0681 51.4151C35.3904 51.4246 35.7596 51.4289 36.0489 51.3328C36.1489 51.2951 36.2392 51.2335 36.3221 51.1685C36.2808 51.2691 36.2966 51.3433 36.132 51.4788C36.1693 51.4514 36.1526 51.45 36.0983 51.4623C35.9442 51.5077 35.5043 51.5244 35.0642 51.4819C34.7452 51.4516 34.5666 51.1639 34.4335 51.0107C34.328 50.8782 34.2952 50.7643 34.2848 50.7495C34.2846 50.7495 34.2845 50.7496 34.2843 50.7496ZM44.723 51.7143C45.3281 51.2976 45.43 51.0175 45.5647 50.7399C45.667 50.5121 45.8 50.2582 46.089 49.8563C46.4647 49.0457 45.7528 50.1078 45.4613 50.6874C45.4106 50.7842 45.363 50.856 45.3418 50.886C44.9631 51.3793 44.7096 51.4424 44.4217 51.606C44.2806 51.6717 44.187 51.7167 43.8319 51.7763C44.1205 51.8147 44.3018 51.848 44.5372 51.781C44.5984 51.7614 44.6602 51.7393 44.723 51.7143ZM36.8973 50.2886C37.1952 50.1263 37.346 50.1608 37.2952 50.1401C37.257 50.1274 37.0316 50.1339 36.8305 50.244C36.4274 50.4742 36.2124 50.7897 36.1791 50.7902C36.056 50.8554 36.1051 50.7771 36.2811 50.5657C36.3747 50.4605 36.4965 50.3072 36.7415 50.155C36.978 49.9908 37.4269 49.9453 37.6888 50.0567C38.0627 50.2104 38.1024 50.4381 38.1503 50.513C38.1907 50.6054 38.2067 50.6514 38.2174 50.6785C38.3339 50.9345 38.3435 51.02 38.1339 50.7243C38.1128 50.7007 38.0872 50.6607 38.0432 50.5834C37.989 50.5199 37.9675 50.3378 37.6388 50.2049C37.4511 50.1457 37.1366 50.143 36.8973 50.2886ZM49.9991 14.2579C50.1957 13.8584 50.0009 14.0856 50.1552 13.7108C50.1706 13.6748 50.1912 13.6302 50.2189 13.578C50.3755 13.3241 50.4786 12.6319 50.3653 12.407C50.3263 12.2935 50.3053 12.2362 50.2967 12.2463C50.2917 12.254 50.2994 12.3158 50.3234 12.4211C50.3709 12.6009 50.3111 13.011 50.2411 13.1419C50.2096 13.2086 50.1941 13.2131 50.2033 13.1086C50.2062 13.014 50.2539 12.751 50.1642 12.4749C50.1464 12.4242 50.1308 12.375 50.1159 12.3281C50.116 12.419 50.0886 12.3974 50.0795 12.4481C50.0846 12.4642 50.0901 12.481 50.0958 12.498C50.1797 12.7234 50.1177 13.2035 49.9823 13.4485C49.8657 13.6663 49.792 13.8413 49.707 14.0169C49.8279 13.86 49.9426 13.696 50.0903 13.5076C50.1774 13.4247 50.2612 13.2874 50.3242 13.1525C50.3186 13.3684 50.238 13.5067 50.1876 13.5609C50.1461 13.6154 50.1211 13.6429 50.1172 13.6505C50.1172 13.6505 50.1173 13.6506 50.1174 13.6506C49.8193 14.3278 49.5335 15.1105 49.9991 14.2579ZM54.5822 26.6C54.6837 26.6828 54.6871 26.371 54.6439 26.0401C54.6086 25.7643 54.5584 25.4606 54.5448 25.2723C54.5151 24.842 54.5648 24.2508 54.4905 24.4747C54.4713 24.8858 54.5095 25.5558 54.5452 26.0409C54.5676 26.3442 54.5727 26.5955 54.5825 26.6001C54.5824 26.6 54.5823 26.6 54.5822 26.6ZM48.778 45.9128C48.9793 45.6646 49.1236 45.4995 49.248 45.3666C49.4853 45.1103 49.5594 44.9668 50.0449 44.4764C50.1246 44.4 50.2137 44.314 50.313 44.2151C50.2446 44.2215 50.1756 44.2265 50.108 44.2322C50.0538 44.2895 50.0039 44.3423 49.9578 44.3915C49.5343 44.8583 49.4912 45.0368 49.2111 45.3274C49.0614 45.4798 48.8794 45.6673 48.625 45.9386C48.4851 46.0944 48.6811 45.6745 48.1147 46.4338C48.3287 46.2528 48.5539 46.0774 48.778 45.9128ZM51.9364 41.6121C51.8738 41.7486 51.8184 41.8837 51.7702 42.0124C51.636 42.3675 51.4544 42.7203 51.4696 42.8041C51.4653 42.8908 51.6896 42.7268 51.9753 42.1055C52.0287 41.9711 52.0877 41.8181 52.1542 41.6448C52.2797 41.3193 52.3499 40.7318 51.9364 41.6121ZM43.1049 12.3632C43.0331 12.464 42.9807 12.5559 42.9448 12.6361C42.6414 13.4086 42.7634 13.1193 42.982 12.6527C43.1446 12.3253 43.5517 11.9652 43.7308 11.8441C43.3776 12.1579 43.1499 12.4592 43.053 12.6844C42.7968 13.3061 42.7835 13.525 42.7945 13.464C42.8121 13.4082 42.8996 13.0783 43.0789 12.696C43.2427 12.35 43.6715 11.9525 44.025 11.722C44.2512 11.5798 44.5128 11.546 44.6011 11.5576C44.845 11.4614 45.2508 11.3589 45.4515 11.2915C45.5919 11.2441 45.6288 11.2114 45.4413 11.2147C45.3501 11.2172 45.2062 11.2276 45.0012 11.2567C44.4923 11.3387 44.6937 11.3645 44.6621 11.3683C44.2696 11.4578 44.1005 11.5301 43.9445 11.6149C43.7322 11.7506 43.4872 11.8654 43.1049 12.3632ZM42.7894 52.0549C42.8439 52.0685 42.7878 51.9942 42.9456 52.0131C42.9711 52.0145 43.002 52.0163 43.0389 52.016C43.3237 52.0163 43.7305 52.0185 43.7705 51.9785C43.8003 51.9537 43.4358 51.9648 43.0381 51.9608C42.872 51.9644 42.7297 51.8745 42.5869 51.7986C42.5668 51.7881 42.5473 51.7784 42.5285 51.7694C42.3857 51.7038 42.31 51.7265 42.4665 51.8666C42.5442 51.9257 42.6567 52.0099 42.7894 52.0549ZM48.1636 46.9419C48.211 46.872 48.2476 46.8161 48.2751 46.7711C48.3907 46.5826 48.3269 46.5979 48.1897 46.7055C47.9358 46.8989 47.4752 47.4338 47.4025 47.5514C47.2343 47.814 47.1368 47.9702 47.086 48.0562C47.0021 48.1983 47.0357 48.1843 47.1313 48.0885C47.3788 47.8467 48.1387 46.8691 48.1636 46.9419ZM47.6026 10.8111C46.3962 10.6084 46.1228 10.8104 46.3475 10.856C46.5824 10.9125 47.2045 11.0799 47.9614 11.2962C48.0987 11.3224 48.2481 11.3791 48.3911 11.4408C48.5931 11.483 48.8032 11.5444 49.0042 11.609C48.6198 11.4956 48.1021 11.3856 47.9503 11.4298C47.8071 11.4384 47.7728 11.4516 47.9462 11.479C48.0654 11.4926 48.5412 11.6014 49.4657 12.0468C49.5673 12.0933 49.6844 12.176 49.8062 12.2838C49.6764 12.1546 49.5656 12.0709 49.4785 12.0221C48.6342 11.5738 49.2017 11.8202 49.5092 11.9628C49.5823 11.996 49.6376 12.0331 49.6406 12.0327C49.702 12.0126 49.6749 11.9366 49.5695 11.8464C49.27 11.6121 48.5334 11.194 47.9795 11.0774C47.6347 10.9963 47.4248 10.871 47.6049 10.8116C47.6041 10.8115 47.6034 10.8113 47.6026 10.8111ZM40.9353 51.8888C40.7554 51.8247 40.4307 51.5025 40.2681 51.1374C40.2711 51.154 40.2583 51.1064 40.2588 51.0527C40.2543 50.9821 40.2731 50.9786 40.2518 50.7744C40.2269 50.7303 40.2822 50.6708 40.0668 50.5197C39.7784 50.4228 39.7276 50.5614 39.6929 50.5685C39.6271 50.626 39.6124 50.6533 39.5885 50.6841C39.5472 50.7418 39.5182 50.7899 39.4898 50.8367C39.434 50.9293 39.3856 51.0136 39.3396 51.0901C39.2483 51.2429 39.1653 51.3637 39.1074 51.4313C39.112 51.4517 39.0287 51.4865 39.029 51.5002C39.0194 51.5149 39.1018 51.5342 39.1724 51.4999C39.1931 51.4849 39.2167 51.4653 39.2417 51.4422C39.3312 51.3239 39.4102 51.1849 39.4888 51.0427C39.5285 50.971 39.5673 50.8983 39.6121 50.822C39.6352 50.7833 39.6573 50.7453 39.6948 50.697C39.7182 50.673 39.7215 50.6469 39.8171 50.5958C39.855 50.556 40.0708 50.5803 40.1125 50.6705C40.1568 50.7333 40.1582 50.7628 40.166 50.791C40.1869 50.9597 40.1734 50.9825 40.1804 51.053C40.1834 51.111 40.1979 51.1645 40.2049 51.1645C40.3718 51.4861 40.6764 51.8084 40.9353 51.8888ZM36.2636 21.9866C36.247 22.0228 36.2302 22.0587 36.2132 22.0945C36.0476 22.4372 35.8615 22.7637 35.6327 23.0548C35.3959 23.3529 35.173 23.68 34.8965 23.8268C34.7853 23.8845 34.6699 23.9436 34.5503 24.0056C34.7171 23.9401 34.836 23.8965 34.918 23.8686C35.0998 23.8023 35.0644 23.849 34.9498 23.9303C34.8537 23.9904 34.7197 24.0664 34.6194 24.1274C34.3335 24.3018 34.683 24.13 34.9775 23.9841C35.1296 23.9088 35.2472 23.7907 35.25 23.793C35.2773 23.836 35.1485 23.9777 35.1634 23.9833C35.1744 23.9876 35.3867 23.8907 35.8612 23.2289C35.8944 23.1853 35.9281 23.1385 35.962 23.0885C35.9331 23.1386 35.9029 23.1881 35.8714 23.2366C35.652 23.5668 35.4623 23.9289 35.0926 24.1709C35.576 23.8796 35.7574 23.529 35.9634 23.3067C36.2609 22.9404 36.4374 22.6656 36.6442 22.2629C36.68 22.1911 36.7161 22.1142 36.7518 22.0316C36.6897 22.1369 36.6415 22.2071 36.6085 22.2489C36.5479 22.3251 36.5385 22.3097 36.5615 22.2306C36.6275 22.0358 36.8268 21.4209 36.917 20.8045C36.9223 20.7703 36.927 20.7365 36.9312 20.7025C36.9532 20.5059 36.8959 20.5861 36.8022 20.7775C36.6446 21.0992 36.3861 21.7396 36.2624 21.9898C36.2628 21.9887 36.2632 21.9877 36.2636 21.9866ZM44.8258 10.7701C44.5581 10.8548 44.3116 10.9595 44.0685 11.1064C43.9469 11.1609 43.8273 11.2282 43.7176 11.3126C43.5864 11.4136 43.4609 11.5212 43.3414 11.6353C43.2943 11.6378 43.2503 11.6358 43.199 11.6451C42.9155 11.9215 43.0569 11.8427 42.981 11.932C42.9808 11.9319 42.9807 11.9318 42.9806 11.9317C42.8354 12.1144 42.7149 12.2987 42.6317 12.4961C42.445 12.9595 42.337 13.3453 42.2724 13.7278C42.2277 14.1013 42.1431 14.5265 42.4925 14.9514C42.6063 15.0778 42.7261 15.2122 42.8633 15.3554C42.9255 15.2863 42.9877 15.2173 43.0498 15.1483C42.9144 15.0338 42.7817 14.9128 42.6504 14.7912C42.576 14.7227 42.5203 14.6349 42.4825 14.5406C42.3838 14.4171 42.315 14.2601 42.2659 14.0999C42.2977 13.7509 42.4007 13.4363 42.523 13.1311C42.569 12.9371 42.6358 12.7172 42.705 12.5289C42.7287 12.465 42.7553 12.4065 42.7812 12.3541C43.2304 11.9232 43.042 12.168 42.8313 12.5853C42.5789 13.1136 42.4037 13.9946 42.4876 14.0107C42.5107 14.0228 42.5928 13.3205 42.916 12.6232C43.1392 12.1521 43.5971 11.7539 43.8774 11.5255C43.9908 11.4346 44.0918 11.3812 44.1437 11.3495C44.1691 11.3333 44.0221 11.3475 43.9893 11.3255C43.9567 11.3119 44.041 11.1867 44.5825 11.1C44.7231 11.0831 44.8287 11.3271 45.4353 11.17C45.5803 11.1333 45.7515 11.0758 45.969 10.9973C46.0858 10.9579 45.8146 10.8191 45.3826 10.7749C45.2158 10.7574 45.0258 10.7509 44.8258 10.7701ZM48.002 17.015C47.8971 17.0381 47.8212 17.0489 47.7697 17.0532C47.596 17.0724 47.6177 17.0476 47.7512 16.9969C47.9277 16.9123 48.4622 16.7313 48.9182 16.3571C49.4394 15.9427 49.8594 15.4056 49.9533 15.2558C49.9859 15.2041 49.9837 15.1953 49.9358 15.2429C49.8742 15.3006 49.7395 15.455 49.4754 15.7077C49.8805 15.0293 49.7895 15.1667 49.2055 15.6607C49.1563 15.7049 49.4764 15.2916 49.4412 15.3205C49.1873 15.5824 48.8999 15.8602 48.6573 16.0379C48.4341 16.2027 48.2514 16.2733 48.2246 16.2293C48.0709 16.3225 47.9168 16.3969 47.7461 16.4658C48.1874 16.3512 47.9961 16.4984 47.6434 16.6691C47.4015 16.7773 47.0515 16.7625 46.8479 16.7713C46.6156 16.7787 47.1369 16.8608 46.941 16.8704C46.8628 16.8845 46.1478 16.7175 46.1128 16.7398C46.0444 16.7934 46.4145 17.0617 47.2925 17.1717C47.2925 17.1718 47.2925 17.1719 47.2925 17.1719C47.4383 17.1682 47.586 17.1641 47.7847 17.0986C47.8562 17.0727 47.9288 17.045 48.002 17.015ZM55.0484 30.1251C54.897 30.4021 54.8199 31.5367 54.8096 29.3575C54.7765 29.4641 54.7437 29.5744 54.7111 29.6812C54.7019 30.0458 54.6963 30.3996 54.6946 30.7707C54.6946 30.7735 54.6946 30.7763 54.6946 30.7791C55.1187 31.9103 54.4312 33.9215 54.848 32.6383C54.8931 32.499 54.9188 31.6258 54.9467 32.4915C54.9469 32.4904 54.9471 32.4892 54.9472 32.4881C54.9931 31.6035 54.9727 31.2836 54.9971 30.774C55.005 30.5931 55.0204 30.3888 55.0484 30.1251ZM54.862 22.0915C54.5144 20.7847 54.608 21.6413 54.7541 22.7436C54.9023 23.9074 54.9493 25.3854 54.9873 24.8161C54.9895 24.7514 54.9404 23.514 54.8566 22.7304C54.8158 22.3163 54.7999 22.0248 54.862 22.0915ZM51.528 43.8186C51.5558 43.7805 51.5821 43.7434 51.6071 43.7072C52.2489 42.81 52.1586 42.6202 52.041 42.7023C51.9326 42.7774 51.5211 43.4283 51.4179 43.575C51.411 43.5847 51.4053 43.5923 51.4009 43.5974C51.2723 43.7483 51.3395 43.6317 51.3788 43.5477C51.4061 43.4892 51.4211 43.4465 51.3471 43.5256C51.3311 43.5429 51.3109 43.5657 51.2855 43.595C51.231 43.6675 50.7458 44.2596 50.277 44.7026C49.945 45.0368 49.6797 45.3455 49.6493 45.3736C49.2936 45.797 49.9569 45.3115 49.8585 45.434C49.7839 45.5342 49.693 45.6369 49.5934 45.7333C49.2997 46.019 49.0039 46.3306 48.9751 46.4514C48.9107 46.7286 49.3419 46.0667 49.6204 45.762C49.6926 45.6817 49.7468 45.6163 49.7767 45.5846C50.1949 45.1228 50.2353 45.1587 50.5006 44.9206C50.5272 44.8969 50.5558 44.8702 50.5867 44.8402C50.9489 44.4859 51.1455 44.2125 51.4224 43.8542C51.5137 43.7338 51.4887 43.8713 51.528 43.8186ZM53.1317 39.9891C52.905 40.9047 53.4681 39.6259 53.797 38.6953C53.9267 38.3357 54.0177 38.0277 54.0383 37.925C54.1582 37.2853 53.9067 37.9067 53.6163 38.6373C53.4084 39.1571 53.1931 39.7372 53.1317 39.9891ZM43.8644 15.7617C43.4333 15.5722 43.5349 15.6776 43.8939 15.8805C44.2518 16.0725 44.8605 16.3648 45.3977 16.5206C45.662 16.5979 45.8991 16.6561 46.0587 16.6866C46.0095 16.6605 45.7454 16.5705 45.4181 16.4499C44.886 16.2575 44.2286 15.9146 43.935 15.7906C43.908 15.7792 43.8847 15.7696 43.8644 15.7617ZM48.3213 10.9452C48.1825 10.9113 48.0719 10.8999 47.994 10.9015C47.8682 10.906 47.8785 10.9368 47.9876 10.9794C48.298 11.0574 48.9422 11.4067 49.4302 11.6538C49.5494 11.6798 49.6198 11.6914 49.6509 11.6891C49.674 11.6883 49.6771 11.6803 49.663 11.6657C49.6118 11.6109 49.3096 11.4622 48.9669 11.3079C48.4036 11.0756 49.1859 11.2129 48.3213 10.9452ZM42.0097 52.1382C42.0336 52.1591 42.1003 52.2149 42.2042 52.2781C42.3519 52.3639 42.6635 52.5823 43.0465 52.5561C44.1144 52.5879 45.3992 51.9964 43.9009 52.3818C43.8429 52.389 43.4908 52.422 43.0447 52.4294C42.78 52.4471 42.4998 52.3024 42.2811 52.1575C41.8623 51.9383 41.7064 51.4131 41.6759 51.1976C41.6685 51.1771 41.6615 51.1583 41.6554 51.1445C41.6526 51.1381 41.6487 51.1315 41.6501 51.1344C41.654 51.136 41.6442 51.1425 41.6892 51.1622C41.764 51.1782 41.7846 51.1236 41.7849 51.1257C41.7911 51.1113 41.7822 51.1591 41.783 51.1755C41.7823 51.1969 41.7824 51.2133 41.7829 51.2239C41.7919 51.381 41.814 51.3248 41.8434 51.1808C41.8462 51.1688 41.8493 51.1566 41.8525 51.1472C41.8407 51.1526 41.9095 51.0818 41.8058 51.2109C41.7791 51.2376 41.6892 51.2501 41.6536 51.2294C41.6149 51.2123 41.6063 51.1991 41.5978 51.1912C41.5842 51.176 41.5834 51.1729 41.5815 51.1708C41.579 51.1677 41.5804 51.1726 41.5816 51.178C41.5844 51.1895 41.5885 51.2067 41.5931 51.2255C41.6034 51.2988 41.6158 51.5121 41.6882 51.6864C41.7579 51.8675 41.8844 52.0295 42.0097 52.1382ZM52.2613 14.4381C52.1629 14.3469 52.0754 14.2485 52.002 14.1577C51.7773 13.8709 51.6478 13.6737 51.7444 14.0758C51.7448 14.0765 51.7451 14.0771 51.7455 14.0778C51.3472 13.3627 51.1789 12.9869 51.0514 12.7426C50.9801 12.5801 50.9647 12.4793 50.8746 12.3775C50.1151 11.5376 50.6811 12.4728 50.1465 11.9979C50.6115 12.4452 50.7804 12.6994 50.9177 12.8648C51.1364 13.1617 51.1687 13.2869 51.5206 13.9482C51.5595 14.0211 51.6384 14.1576 51.7381 14.3093C51.9651 14.6632 52.3615 15.0642 52.4581 15.1323C52.5987 15.226 52.3609 14.6926 52.2613 14.4381ZM39.7039 51.513C39.791 51.3987 39.8657 51.283 39.9336 51.1767C39.9675 51.1237 40.0002 51.0719 40.0282 51.0319C40.0404 51.0136 40.0584 50.993 40.05 51.0006C40.0352 50.9936 40.0576 51.0637 39.846 51.0333C39.655 50.9295 39.7176 50.8856 39.7017 50.8807C39.7083 50.9116 39.6759 51.1625 39.7674 51.3523C40.0217 51.7733 40.1381 51.8393 39.8915 51.299C39.8384 51.1588 39.8738 50.9836 39.8742 50.8474C39.8767 50.8388 39.8578 50.8381 39.8992 50.8635C39.9498 50.8713 39.9351 50.8571 39.9308 50.8659C39.6626 51.2234 39.4777 51.6251 39.4007 51.741C39.3652 51.7956 39.3678 51.8166 39.4354 51.7777C39.4904 51.749 39.5894 51.6645 39.7039 51.513ZM41.0656 15.3684C41.0818 15.441 41.0981 15.5148 41.114 15.5898C41.1391 15.716 41.168 15.8446 41.2009 15.9767C41.1384 15.8636 41.0777 15.7502 41.0189 15.6354C40.8605 15.3275 40.6907 15.0303 40.5211 14.7332C40.6953 15.027 40.8694 15.321 41.0336 15.6283C41.0488 15.6568 41.0639 15.6848 41.0792 15.7131C41.0654 15.6833 41.0522 15.6544 41.0393 15.6256C40.6901 14.8776 40.5983 14.5377 41.0645 15.3663C41.0649 15.367 41.0653 15.3677 41.0656 15.3684ZM26.3274 16.1596C26.3913 16.1589 26.4644 16.1519 26.5411 16.1414C26.9662 16.0846 27.4687 15.8774 27.3855 15.8843C27.0873 15.9027 26.7679 15.9574 26.5244 16.003C26.1725 16.0731 26.0006 16.1663 26.3274 16.1596ZM45.3704 16.8405C46.6305 17.188 46.0922 16.8759 45.3713 16.6122C45.2485 16.5664 45.123 16.518 45 16.4719C45.5183 16.6936 44.5746 16.5662 45.3108 16.8221C45.3292 16.8279 45.349 16.834 45.3704 16.8405ZM28.1341 19.827C28.2361 19.8436 28.3298 19.86 28.4394 19.8763C28.4744 19.8817 28.5081 19.8869 28.5444 19.8919C28.5065 19.8897 28.4726 19.8874 28.4393 19.8849C28.0708 19.8574 28.0117 19.8387 28.1341 19.827ZM42.4938 52.6901C42.5593 52.7233 42.7768 52.8135 43.05 52.8106C43.3448 52.8107 43.7403 52.8093 44.1246 52.7496C44.512 52.7021 44.8851 52.4951 44.954 52.4307C44.9567 52.4286 44.9594 52.4265 44.962 52.4244C45.0743 52.3312 45.0434 52.3262 44.9299 52.3757C44.6145 52.5925 43.6986 52.6422 43.1764 52.6651C43.1566 52.6665 43.11 52.6735 43.0482 52.6835C42.7714 52.748 42.2777 52.575 42.4983 52.692C42.4968 52.6914 42.4953 52.6907 42.4938 52.6901ZM40.2062 13.5607C40.2054 13.5641 40.2028 13.564 40.1988 13.5608C40.2015 13.5613 40.2032 13.5598 40.2062 13.5607ZM17.3386 21.4883C17.3467 21.482 17.3523 21.4798 17.3549 21.4825C17.3501 21.4838 17.3432 21.4882 17.3386 21.4883ZM50.9778 44.9025C51.5634 44.6497 52.2897 43.4175 51.5424 44.2361C51.504 44.2847 51.0774 44.8043 50.9778 44.9025Z" fill="#E8E8E8"/>
<path d="M16.5261 24.6756C16.7054 25.0316 16.8855 25.3735 17.0805 25.6645C17.7659 26.7459 18.3844 27.6416 19.1971 28.5691C19.8783 29.3522 20.6028 30.1871 21.2851 30.7893C21.7476 31.1764 22.3538 31.5611 22.9434 31.9063C23.7936 32.4053 24.6166 32.8519 25.4331 33.1451C25.723 33.2482 26.0145 33.3544 26.282 33.4452C26.3261 33.4601 26.3654 33.4737 26.4009 33.4862C26.8553 33.6502 26.7957 33.6972 26.9358 33.755C27.3345 33.9277 27.5819 33.9289 27.8631 34.0214C27.9018 34.0341 27.9407 34.0466 27.98 34.059C28.8914 34.3462 29.6812 34.574 30.6277 34.8145C31.1086 34.9585 31.5711 35.0554 32.1122 35.1722C32.2139 35.1943 32.3058 35.2155 32.389 35.2359C33.0821 35.4195 33.145 35.531 33.1909 35.5979C33.2257 35.6678 33.191 35.7222 33.3981 35.8001C33.5869 35.8686 33.7009 35.8857 33.7677 35.8863C34.0767 35.8983 33.5664 35.6536 33.9403 35.6555C34.3245 35.7154 34.7058 35.8176 35.0587 35.9425C35.3869 36.059 35.6727 36.1735 35.9393 36.254C36.2963 36.3596 36.634 36.4875 36.9313 36.5877C37.1389 36.6569 37.3398 36.7264 37.5361 36.7919C37.3331 36.7489 37.1253 36.7015 36.911 36.6538C36.834 36.6373 36.755 36.6191 36.6739 36.5998C36.7496 36.6253 36.8282 36.6523 36.9035 36.6781C37.3556 36.8333 37.7433 36.9958 37.0127 36.8308C37.1955 36.9083 37.3615 36.9849 37.544 37.06C37.5728 37.0313 37.705 37.0468 37.862 37.0709C38.1301 37.1085 38.56 37.1992 38.6343 37.1874C38.74 37.1536 38.1779 37.0132 38.193 37.0147C38.2097 36.9949 38.5487 37.0527 39.0241 37.2475C39.4015 37.4124 39.7192 37.5791 39.9059 37.6246C40.1073 37.6763 40.3003 37.7049 40.344 37.7139C40.7846 37.7988 40.365 37.8541 40.7708 37.9218C40.8176 37.9313 40.8604 37.9401 40.8994 37.9481C41.3284 38.0194 41.0816 37.7602 41.7405 38.2244C41.9364 38.2009 42.023 38.2111 42.1414 38.2416C42.2327 38.2645 42.3382 38.299 42.5039 38.3397C42.5566 38.3525 42.5294 38.2823 42.5529 38.2859C43.1546 38.3712 42.6766 38.3853 42.6779 38.392C42.7061 38.4936 43.1795 38.5719 43.382 38.5883C43.4188 38.5923 43.4485 38.5959 43.4677 38.5995C44.358 38.7557 45.2188 38.8925 45.9002 38.7911C46.4749 38.6466 47.0289 38.5323 47.5439 38.2071C47.6903 38.1125 47.8406 38.0179 47.9917 37.919C48.1257 37.8307 48.3628 37.6641 48.5924 37.4599C48.9973 37.1193 49.4516 36.8873 49.5858 36.7438C49.6007 36.731 49.614 36.7194 49.6261 36.7088C49.8669 36.5009 49.7868 36.6794 49.9521 36.5739C50.0364 36.3196 50.1811 36.1493 50.4295 35.9204C50.5361 35.819 50.6651 35.7086 50.8131 35.5676C50.8457 35.2789 50.9313 35.3831 51.1239 34.9259C51.1451 34.8719 51.1656 34.8105 51.1856 34.7437C51.3165 34.3255 51.3905 33.7711 51.5178 33.4258C51.4524 33.9081 51.525 33.8718 51.3738 34.4444C51.3616 34.4854 51.3184 34.6073 51.2527 34.7719C51.1167 35.1621 50.7797 35.6985 50.5258 36.0082C50.3929 36.1833 50.3051 36.2945 50.3655 36.2938C50.4097 36.2927 50.5151 36.2046 50.6163 36.0906C50.7654 35.9261 50.9058 35.7131 50.9206 35.7045C51.0648 35.6275 50.9452 35.9448 50.7127 36.1784C50.6905 36.2012 50.6674 36.2229 50.6436 36.2435C50.6606 36.2184 50.6786 36.1917 50.6968 36.164C50.7327 36.109 50.7703 36.0508 50.8036 35.9959C50.7459 36.0485 50.6993 36.0929 50.6616 36.1319C50.3008 36.4774 50.7619 36.4135 50.1656 36.5542C50.0842 36.5726 50.0783 36.522 49.9591 36.5713C49.9522 36.6008 50.0918 36.5347 50.0017 36.6254C49.9404 36.6868 49.8146 36.7566 49.7467 36.824C49.7145 36.8554 49.6937 36.8831 49.7004 36.9083C49.7091 36.9439 49.7542 36.929 49.8102 36.8845C49.9214 36.7946 50.1016 36.614 50.1253 36.5987C50.1252 36.598 50.1251 36.5973 50.125 36.5965C50.4286 36.4019 49.8724 36.896 49.8679 36.9323C49.867 36.9339 49.8662 36.9356 49.8654 36.9372C49.7326 37.1477 49.892 37.0859 49.6174 37.3505C49.4507 37.5008 49.026 37.7319 48.9221 37.8471C48.9217 37.8474 48.9213 37.8478 48.9209 37.8482C48.8217 37.9403 48.9163 37.8936 48.9543 37.885C48.9649 37.8838 48.9704 37.886 48.964 37.8963C48.9606 37.9009 48.9551 37.907 48.9471 37.9149C48.8513 38.0095 48.6984 38.0826 48.5816 38.1816C48.5317 38.2242 48.5653 38.2655 48.5405 38.2854C48.2753 38.4948 48.3931 38.2789 48.1496 38.4512C48.0832 38.498 47.9608 38.6028 47.8725 38.692C47.7279 38.8267 47.6404 38.9276 47.9021 38.7841C47.7002 38.931 47.4924 39.0449 47.2801 39.1447C47.4225 39.1014 47.5682 39.0435 47.7098 38.9857C47.2935 39.181 47.1396 39.3225 46.8841 39.4203C46.635 39.5119 46.3715 39.4719 46.1571 39.5902C46.1519 39.5925 46.1467 39.5948 46.1415 39.5971C45.8455 39.7131 45.9146 39.7211 46.1789 39.6583C46.4164 39.6043 47.082 39.3834 47.2037 39.3381C47.2808 39.3172 47.0274 39.5062 46.9842 39.5217C46.7932 39.5997 46.5528 39.6065 46.4185 39.6488C46.3349 39.6753 46.2601 39.7014 46.2007 39.7261C45.6202 39.9014 45.3746 39.9235 44.9267 39.9436C44.3798 39.9528 43.8138 39.926 43.234 39.8746C42.7181 39.8266 42.2445 39.7074 41.863 39.6406C41.413 39.5607 40.96 39.473 40.5133 39.3582C40.3418 39.3117 39.9719 39.2982 39.5775 39.2207C39.5773 39.2207 39.577 39.2206 39.5768 39.2206C38.8454 39.0455 38.6293 38.8015 38.4329 38.7193C38.4078 38.7066 38.3832 38.6959 38.3587 38.6873C37.9833 38.5624 37.8184 38.5984 37.4617 38.5207C37.3877 38.5048 37.3066 38.4846 37.2143 38.458C36.9641 38.386 36.6967 38.2946 36.4344 38.2048C36.0781 38.0831 35.7727 37.9594 35.4933 37.8696C35.1898 37.7735 34.9407 37.6722 34.7484 37.6011C34.6725 37.5728 34.5993 37.5486 34.53 37.5285C34.227 37.4401 33.9779 37.4417 33.8984 37.4278C33.7961 37.4098 33.6918 37.3951 33.5851 37.3839C32.9441 37.3195 32.3885 37.0788 32.0241 37.018C31.4192 36.8973 30.7369 36.7767 30.1322 36.6027C29.769 36.51 29.2847 36.397 28.9267 36.2984C28.2888 36.1261 28.0193 35.9553 27.8886 35.9207C27.6561 35.8579 27.5445 35.8408 27.4569 35.8316C27.3304 35.8169 27.2607 35.8221 26.9868 35.7275C26.734 35.6387 26.7135 35.5545 26.6809 35.5404C26.4004 35.4154 26.313 35.4797 26.1055 35.4086C26.0069 35.3749 25.9136 35.3438 25.8248 35.3163C25.4545 35.2003 25.1295 35.0787 24.7995 34.9582C23.9211 34.6339 23.1487 34.2006 22.3901 33.7636C22.3054 33.7145 22.333 33.6831 22.2777 33.6538C22.0844 33.5518 22.098 33.6098 21.9816 33.5642C21.9528 33.5528 21.9166 33.5353 21.868 33.5078C21.3438 33.2092 20.8285 32.8744 20.2944 32.4539C20.241 32.411 20.2498 32.3524 20.1274 32.2514C20.11 32.2369 20.0925 32.2234 20.0751 32.2108C19.9675 32.1323 19.8551 32.081 19.7086 31.9382C19.2692 31.5055 18.9273 31.0436 18.5198 30.5837C18.4527 30.5078 18.3217 30.4558 18.222 30.3412C18.0852 30.1841 17.9297 29.9877 17.7765 29.7896C17.5733 29.528 17.3792 29.2632 17.2326 29.0779C16.5898 28.2826 16.0231 27.4231 15.5367 26.687C15.3373 26.3933 15.1681 26.0905 15.0168 25.8004C14.8743 25.5263 14.8108 25.261 14.7442 25.1201C14.5946 24.8015 14.6582 25.0639 14.5066 24.744C14.4965 24.7225 14.4863 24.7008 14.476 24.6789C13.9773 23.5947 13.5588 22.5331 13.1592 21.4209C12.8607 20.6152 12.6252 19.5995 12.4912 18.8763C12.2886 18.0451 12.0838 17.1754 12.019 16.2464C12.0166 16.2132 12.0142 16.1798 12.012 16.1466C11.9629 15.5134 11.9443 14.7876 11.9655 14.1017C11.9825 13.506 12.0632 12.9154 12.1855 12.4085C12.2957 11.958 12.3996 11.8705 12.4648 11.6319C12.4686 11.6176 12.4723 11.6027 12.476 11.5873C12.6013 11.0445 12.5242 10.9254 12.633 10.3377C12.72 9.8668 12.9195 9.33741 13.0374 8.81838C13.0385 8.81348 13.0396 8.80861 13.0407 8.80377C13.1623 8.2859 13.1441 8.02513 13.3226 7.45322C13.4721 6.97912 13.7546 6.35411 13.9516 5.85923C13.9517 5.8591 13.9517 5.85896 13.9518 5.85882C14.1165 5.43801 14.3263 5.03021 14.5094 4.67689C14.7684 4.14864 15.3675 3.87363 15.736 3.82088C16.6905 3.63788 17.4965 4.12818 17.9424 4.3944C18.3183 4.61805 18.5755 4.92355 18.7542 5.16833C18.9152 5.4026 19.1152 5.6597 19.0195 5.55196C18.8288 5.40604 18.6649 5.41274 18.6592 5.41084C18.331 5.4305 18.3362 5.48351 18.2976 5.4908C18.2733 5.5036 18.276 5.50303 18.2822 5.49828C18.2967 5.48786 18.3322 5.46013 18.3687 5.42897C18.4436 5.36534 18.5313 5.28402 18.6186 5.20032C18.7947 5.03106 18.9761 4.84664 19.1581 4.65942C19.9009 3.9154 20.6324 3.29229 21.4008 2.6597C21.6306 2.47281 21.9039 2.28497 22.2611 2.15391C22.6093 2.01683 23.0651 1.99987 23.2991 2.01799C24.7333 2.24074 25.011 3.07051 25.4287 3.5066C25.5544 3.67365 25.7537 3.81968 25.9182 3.88007C25.9517 3.89287 25.9821 3.90092 25.9974 3.90415C25.7906 3.878 25.6838 3.98646 25.7611 3.93029C25.8233 3.88714 25.948 3.76795 26.1217 3.62469C27.2504 2.7819 28.3043 2.29033 29.3897 1.75719C29.5427 1.68357 29.6981 1.61646 29.8608 1.55591C30.046 1.49452 29.7943 1.67206 30.3791 1.45404C30.605 1.37054 31.0138 1.24888 31.3448 1.1803C31.5755 1.13153 31.8588 1.1337 32.1223 1.2061C32.6813 1.36074 33.0364 1.70188 33.2138 1.81484C32.9984 1.71384 33.163 1.79623 33.3069 1.76337C33.4635 1.74654 33.6556 1.70554 33.8507 1.65396C34.2439 1.54958 34.6601 1.40499 35.0769 1.24958C36.2983 0.801087 37.5107 0.444979 38.8817 0.26918C39.1141 0.245259 39.3529 0.23519 39.6112 0.255661C39.741 0.266445 39.8751 0.28433 40.0239 0.32112C40.1778 0.36689 40.323 0.386218 40.5881 0.586665C40.9849 0.921694 41.2679 1.2745 41.5342 1.58426C41.7608 1.85356 41.9364 2.00224 42.08 2.0432C42.1583 2.07154 42.3203 2.06778 42.5481 1.99636C42.8447 1.90963 43.1733 1.73095 43.6637 1.5814C44.6821 1.38409 45.3107 1.41496 46.1041 1.36398C47.749 1.34665 48.7293 2.51128 49.4473 3.32154C50.0965 4.07167 50.731 4.94225 51.2427 5.69794C51.7602 6.38002 52.0585 7.34773 52.2783 7.75713L52.3253 7.85085C52.7436 8.89712 53.0539 9.87416 53.3646 10.842C53.5927 11.5543 53.7735 12.2512 53.9235 12.9453C53.9771 13.195 53.7115 13.1588 53.5928 13.0454C53.5821 12.8985 53.5836 12.7581 53.5757 12.6028C53.2382 12.5448 53.321 12.5458 53.0789 11.9073C52.9294 11.5146 52.9471 11.8713 52.8272 11.6794C52.775 11.596 52.6656 11.4063 52.5518 11.1989C52.3245 10.785 52.0967 10.2891 52.2811 10.4012C52.2179 10.3361 52.1586 10.2765 52.097 10.2126C51.8077 9.57202 51.5281 8.93894 51.2264 8.3309L51.2368 8.3516C51.0779 8.10426 50.9523 7.83839 50.8331 7.59061C50.7608 7.4423 50.7035 7.45901 50.6277 7.31322C50.4618 6.99981 50.3361 6.74025 50.1466 6.45379C50.0994 6.38298 50.0509 6.31058 49.9995 6.23611C49.8518 6.02209 49.7753 6.02969 49.5913 5.75045C49.4068 5.47403 49.488 5.42366 49.1394 5.11565C49.2059 5.37216 48.7228 4.63588 48.3702 4.18124C48.3039 4.09416 48.2433 4.01824 48.1946 3.96175C48.1514 3.90758 47.72 3.57127 47.5293 3.38735C47.3424 3.19691 47.0565 2.88102 46.6936 2.78467C46.5245 2.74174 46.4115 2.79862 46.2496 2.7875C46.2093 2.78531 46.1669 2.77538 46.1204 2.76468C45.9991 2.74516 45.8669 2.71537 45.7309 2.71578C45.5214 2.7157 45.0736 2.78818 44.993 2.79303C44.6994 2.80896 45.0211 2.74417 44.8201 2.75024C44.5391 2.75991 44.179 2.77589 43.997 2.81468C43.4491 2.92901 42.7131 3.50137 41.6918 3.24243C41.6432 3.22786 41.5955 3.21139 41.5488 3.19325C41.3902 3.1284 41.584 3.27927 41.5642 3.27136C40.9965 3.05639 40.9508 2.92062 40.9323 2.90192C40.9244 2.87164 40.9947 2.89129 40.9121 2.77952C40.8673 2.71908 40.7321 2.57212 40.5895 2.40261C40.3165 2.07144 39.9305 1.68831 39.7503 1.61218C39.7898 1.65719 39.7658 1.65484 39.7623 1.67287C39.8412 1.55268 39.5792 1.59276 39.5104 1.60021C39.2534 1.60575 39.2805 1.50534 39.0327 1.54973C39.0208 1.55215 39.008 1.55505 38.9939 1.55848C38.8843 1.58564 39.1097 1.63427 38.9906 1.64716C38.6969 1.68146 38.3857 1.61542 37.9642 1.70202C37.8633 1.72322 37.8426 1.78441 37.6637 1.82855C37.4841 1.86845 36.7191 2.02586 37.096 2.03502C36.6182 2.08263 36.5418 2.15951 36.0244 2.34033C35.914 2.37966 35.7539 2.37046 35.5461 2.44856C35.5064 2.4635 35.4654 2.48104 35.4223 2.50214C35.3275 2.54843 35.3611 2.62753 35.2118 2.68384C34.8685 2.81121 34.5169 2.84428 34.0508 2.96147C33.8428 3.01188 33.6272 3.06082 33.3844 3.08776C33.1404 3.10113 32.8686 3.16147 32.4684 2.93294C32.0204 2.61554 31.7748 2.47012 31.5778 2.50113C31.5757 2.50135 31.5735 2.50155 31.5714 2.50173C31.3261 2.53274 31.3666 2.43471 31.0586 2.48726C31.0095 2.49278 30.6749 2.64911 30.4783 2.72523C30.4135 2.74729 30.2017 2.8187 29.9995 2.90994C29.8113 2.99468 29.6316 3.07675 29.5693 3.10794C29.348 3.21901 29.3493 3.31315 29.2225 3.36346C28.8577 3.50946 29.0722 3.25133 28.7427 3.62543C28.5628 3.61917 28.3291 3.76287 28.1964 3.70784C28.1212 3.89624 27.8815 3.89574 27.6425 4.09327C27.4009 4.29237 27.3454 4.62723 27.1371 4.45612C27.1058 4.49209 27.0326 4.56183 26.9601 4.63881C26.8289 4.78344 26.5929 5.03387 26.4989 5.08969C26.3154 5.21496 26.2229 5.21656 26.1787 5.21603C26.1276 5.20973 26.1002 5.22349 25.8809 5.22549C25.8462 5.2239 25.8431 5.23406 25.8041 5.23965C25.7707 5.24697 25.6931 5.25482 25.5158 5.19762C25.3539 5.17295 24.6364 4.78958 24.3498 4.37595C24.2393 4.2355 24.1655 4.14113 24.1527 4.12283C23.8121 3.64127 24.1395 4.0052 24.411 4.32662C24.5257 4.45976 24.644 4.55904 24.6962 4.58684C24.7147 4.62263 24.734 4.65809 24.7569 4.69503C25.1018 4.98264 24.9528 4.74007 24.8222 4.60087C24.7386 4.5112 24.5939 4.39014 24.4893 4.26358C24.4336 4.1973 24.3875 4.13633 24.3652 4.08722C24.3354 4.02117 24.466 3.96928 24.5896 4.14991C24.4764 3.94242 24.7088 4.16332 24.6815 4.06724C24.6696 3.95437 23.9608 3.15435 23.8818 3.24183C24.0371 3.36041 24.2104 3.53213 24.3375 3.6826C24.4056 3.97915 23.575 3.56244 23.2804 3.38253C23.2674 3.37421 23.256 3.36686 23.2459 3.36005C23.0755 3.29567 23.1583 3.24854 23.1451 3.22455C23.1394 3.21819 22.9984 3.13871 22.5753 3.37182C22.7213 3.30784 22.8445 3.28838 22.9825 3.28205C23.0043 3.37371 22.7795 3.29508 22.6797 3.37352C22.6405 3.40092 22.9524 3.36859 22.7097 3.47523C22.5349 3.45068 22.4111 3.55749 22.2679 3.71391C22.177 3.80991 22.0725 3.91899 21.9308 4.03867C22.0275 3.92556 22.1258 3.81214 22.2234 3.70004C21.8554 3.9414 22.0441 3.74221 22.1741 3.59987C22.2591 3.50688 22.32 3.43955 22.1403 3.55869C22.0496 3.62252 21.9025 3.73231 21.6745 3.91248C21.8207 3.78371 21.9703 3.66007 22.1181 3.53172C22.1295 3.52183 22.1407 3.51213 22.1519 3.50261C22.0425 3.52605 22.0764 3.30873 21.9846 3.34252C21.9791 3.34463 21.9735 3.34687 21.968 3.34922C21.7333 3.44549 21.4968 3.70457 21.2728 3.8872C21.1726 3.96902 21.2075 3.88657 21.1991 3.89342C21.0621 4.00541 21.1301 4.02414 21.0152 4.12883C20.8701 4.25967 20.4122 4.59346 20.3491 4.66187C20.1859 4.83434 20.5541 4.65306 20.5437 4.67487C20.4688 4.81768 20.2143 4.99178 20.2756 5.03508C20.773 4.48365 22.4389 3.16227 21.0612 4.50479C21.5377 4.247 21.5238 4.46821 20.9716 4.97861C20.5198 5.40483 20.7715 5.08613 20.4855 5.25381C20.4662 5.26548 20.2707 5.43111 20.11 5.59167C19.9655 5.73669 19.8335 5.876 19.8354 5.90694C19.7771 5.80031 19.507 5.9214 19.5544 5.705C19.5616 5.67369 19.8114 5.43212 19.6571 5.44978C19.5798 5.45881 19.3827 5.50556 19.3586 5.44179C19.339 5.52216 19.3208 5.60826 19.3005 5.69077C18.9462 6.04756 18.8194 6.09361 18.6188 6.12089C18.6325 6.15123 18.8338 6.18986 18.655 6.25346C18.6437 6.25228 18.6321 6.25057 18.6204 6.24812C18.6141 6.24498 18.5663 6.19984 18.5508 6.15578C18.5457 6.14913 18.5397 6.14151 18.5333 6.13324C18.3516 5.85807 18.3277 5.7548 18.6056 5.89391C18.2596 5.51498 18.1278 5.13087 17.6837 4.82264C17.5408 4.72411 17.3638 4.6024 17.0785 4.48598C17.147 4.65844 17.3111 4.76683 17.6135 4.93886C17.7966 5.04111 18.0012 5.20645 18.1872 5.43159C18.1746 5.48994 18.1491 5.53101 18.1342 5.58853C17.8624 5.13679 17.6705 5.02068 17.5968 4.9666C17.5165 4.91658 17.5113 4.9364 17.1915 4.81453C17.1192 4.78742 16.898 4.67259 16.7024 4.62476C16.5068 4.5753 16.3619 4.58501 16.4869 4.67315C16.5508 4.70121 17.0139 4.88575 16.9377 4.91142C16.9287 4.89827 16.3623 4.73135 16.3076 4.73913C15.811 4.61512 16.3656 4.50748 15.8633 4.53901C15.7314 4.56937 15.3894 4.59448 15.1525 5.01904C15.1282 5.06807 15.1023 5.12018 15.0751 5.17561C15.0531 5.22054 15.094 5.262 15.0555 5.35221C14.9834 5.52217 14.9247 5.49503 14.8645 5.65069C14.8133 5.78451 14.7936 5.98187 14.6862 6.16115C14.6681 6.1911 14.647 6.22112 14.6228 6.2498C14.4886 6.41007 14.4753 6.30201 14.5257 6.09518C14.5892 5.82494 14.7906 5.39941 14.9545 5.18714C14.9287 5.08837 14.6547 5.46159 14.386 6.03779C13.9668 6.91355 13.5472 8.20798 13.5282 8.34347C13.3412 9.27098 13.7282 7.74965 13.8176 7.69931C13.8501 7.67484 14.1109 7.78146 14.0657 7.35501C14.0525 7.22764 13.8249 7.65937 13.8917 7.37735C13.9599 7.0951 14.0006 7.23143 14.013 7.21363C14.0556 7.15295 14.1329 6.85555 14.1585 6.82281C14.5461 6.32071 14.7749 6.46796 14.1165 7.07857C14.0809 7.43825 14.4944 6.73617 14.4015 7.16406C14.2902 7.68141 14.0521 8.00482 14.026 8.0671C13.73 8.80774 14.163 7.98185 13.8486 8.89814C13.835 8.94078 13.8244 8.97097 13.816 8.99068C13.7943 9.04226 13.7869 9.0253 13.785 8.98321C13.78 8.86815 13.822 8.56276 13.7146 8.96623C13.6947 9.04411 13.6702 9.1489 13.6414 9.28639C13.439 10.2989 13.6196 9.76617 13.75 9.86924C13.7808 9.89358 13.7116 10.4526 13.8483 9.69984C13.8145 9.67091 13.7725 9.62047 13.7473 9.56555C13.8085 9.39985 14.0346 9.16326 14.092 9.05723C14.0966 9.04876 14.1 9.04104 14.1022 9.03418C14.2508 8.58215 14.1535 8.57523 14.3482 8.3393C14.1645 8.49436 14.3353 8.20253 14.3481 8.07648C14.3992 7.60809 14.1607 8.16412 14.633 7.23113C14.5288 7.33677 14.4308 7.4318 14.3296 7.53594C14.3691 7.41705 14.4097 7.29834 14.4511 7.18003C14.6408 7.05025 14.8638 6.42894 14.7751 7.03573C14.9158 6.71804 15.0115 6.48983 15.067 6.31769C15.1251 6.13785 15.1422 6.02081 15.1272 5.92493C15.1216 5.88973 15.1601 5.78956 15.2153 5.67592C15.1783 5.68391 15.0832 5.67089 15.0822 5.6479C15.0753 5.44147 15.3577 5.273 15.37 5.38768C15.4145 5.31019 15.451 5.24943 15.4642 5.22794C15.474 5.2121 15.4814 5.20214 15.4869 5.1969C15.4948 5.1908 15.4988 5.19526 15.5012 5.2045C15.5049 5.24407 15.4781 5.3615 15.5313 5.29062C15.5361 5.28409 15.5471 5.2646 15.5621 5.23693C15.591 5.15782 15.742 5.05528 15.7612 5.07464C15.7989 5.12781 15.7476 5.17326 15.7413 5.18631C15.7425 5.20417 15.7112 5.16125 15.9663 5.12017C16.0632 5.10934 16.1875 5.10822 16.3485 5.15206C16.4074 4.99403 15.8514 5.03649 15.9736 4.88862C16.1395 4.69405 16.4784 4.9614 16.6004 4.80693C16.6209 4.84657 16.6254 4.87611 16.638 4.9188C17.2065 5.05671 17.1252 5.24618 17.2622 5.35923C17.2794 5.37484 17.3013 5.39302 17.3271 5.41306C17.6263 5.60069 18.3425 6.7483 17.6785 5.58782C17.8238 5.72568 17.9451 5.90151 18.0775 6.07334C17.9374 6.23663 17.8153 6.14602 18.2325 6.56583C18.353 6.66312 18.5246 6.69853 18.6528 6.69852C18.9821 6.65196 18.9895 6.56759 19.1175 6.49514C19.3185 6.3461 19.4588 6.3859 19.5226 6.11837C19.6061 6.24844 20.029 5.70382 20.083 5.67139C20.4522 5.46225 19.5168 6.66003 19.1152 6.59803C19.0044 6.72233 18.9867 6.7948 18.6523 6.81454C18.56 6.78752 18.4367 6.79616 18.1859 6.62592C18.1688 6.61292 18.1511 6.59882 18.1339 6.58472C17.7252 6.19016 17.7607 6.15742 17.5642 5.76678C17.3875 5.6732 17.6086 5.93618 17.7895 6.26165C17.8792 6.41779 18.0115 6.58578 18.0162 6.61563C18.0211 6.6527 17.8239 6.49819 17.5976 6.23097C17.4692 6.08736 17.2883 5.86378 17.1036 5.78308C16.6981 5.55779 16.3049 5.38289 16.0279 5.46761C15.9117 5.5007 15.9719 5.5082 15.9974 5.46853C15.8204 5.82423 15.658 6.15339 15.5256 6.50617C15.1906 7.38734 14.8637 8.33794 14.671 9.19681C14.4586 10.198 14.3005 11.2336 14.1202 12.0219C13.9901 12.5575 13.9183 12.8678 13.8773 13.1212C13.8143 13.495 13.7821 13.8482 13.7714 14.1881C13.7497 14.8666 13.7622 15.4533 13.8117 16.0308C13.8708 16.8407 14.0566 17.5947 14.2681 18.4313C14.4571 19.3371 14.5842 19.9297 14.8963 20.7998C14.9055 20.8257 14.9149 20.8521 14.9246 20.879C15.0086 21.1596 15.876 23.2668 15.5502 22.8894C15.5014 22.8374 15.0736 21.9489 15.2741 22.7789C15.2782 22.5918 15.5128 23.031 15.5368 23.0655C15.9178 23.633 15.9419 23.5359 16.1364 23.9012C16.2208 24.0568 16.3351 24.2934 16.5261 24.6756ZM17.7894 29.1662C16.5541 27.5537 17.3953 28.7894 16.9384 28.6055C17.098 28.817 17.2626 29.0261 17.4283 29.2298C17.3968 29.167 17.3648 29.1032 17.3339 29.0401C17.3337 29.0399 17.3335 29.0397 17.3334 29.0394C17.4848 29.0827 17.638 29.1263 17.7894 29.1662ZM48.2741 38.7229C48.2271 38.7932 48.1819 38.8622 48.1315 38.9343C48.1091 38.9481 48.0869 38.9618 48.0647 38.9756C47.8109 39.1364 47.553 39.2539 47.2994 39.3489C47.3243 39.3149 47.3478 39.2809 47.3719 39.2464C47.587 39.1531 47.8032 39.042 48.0131 38.8996C48.0985 38.8415 48.1854 38.7831 48.2741 38.7229ZM15.0643 4.90816C15.2285 4.72293 15.3322 4.65417 15.4275 4.57659C15.5242 4.50447 15.6338 4.4307 15.8391 4.40227C15.8985 4.39452 15.9666 4.39098 16.0453 4.39575C15.9748 4.29719 15.8866 4.20559 15.789 4.12023C15.7739 4.10701 15.7582 4.09399 15.7424 4.08111C15.2823 4.20212 15.0207 4.38644 14.7663 4.81353C14.7392 4.86225 14.7071 4.91644 14.6679 4.97942C14.7241 4.95453 14.7809 4.92925 14.8365 4.90617C14.8424 4.89099 14.8482 4.87583 14.8542 4.8603C14.8929 4.77324 14.9456 4.68591 15.0052 4.6117C15.1026 4.5796 14.9755 4.74919 14.9318 4.9016C14.9104 5.0076 14.8976 5.09265 15.0284 4.95299C15.039 4.93946 15.0504 4.92537 15.0635 4.90996C15.0637 4.90936 15.064 4.90876 15.0643 4.90816ZM18.6574 6.0161C18.6358 6.00068 18.5949 6.00889 18.6562 6.01828C18.4796 6.05527 18.6327 6.02581 18.6712 5.98668C18.7321 5.94702 18.7988 5.89555 18.8586 5.84549C18.9787 5.74457 19.0735 5.6483 19.089 5.6081C19.162 5.42042 18.8145 5.74622 18.6099 5.88421C18.5613 5.91753 18.5239 5.93494 18.5275 5.92816C18.5269 5.9215 18.5924 5.8989 18.5594 5.90063C18.4581 5.91973 18.5301 5.89641 18.7926 5.60054C18.7718 5.58799 18.7615 5.56651 18.7459 5.5495C18.6716 5.61354 18.5978 5.67472 18.5326 5.723C18.5007 5.74666 18.4696 5.76752 18.4536 5.77611C18.4614 5.78808 18.3586 5.7674 18.6576 5.73206C18.635 5.73121 18.7172 5.7195 18.8269 5.80009C18.828 5.80077 18.8289 5.80124 18.8294 5.80149C18.7738 5.86759 18.7197 5.93366 18.6688 6.00383C18.665 6.0079 18.6612 6.01199 18.6574 6.0161ZM14.1129 22.8494C14.0031 22.5604 13.4078 21.1976 13.4794 21.6873C13.4994 21.8338 13.8773 22.3996 13.9651 22.6345C14.0215 22.7873 13.8767 22.6485 14.0251 22.9358C14.0534 22.909 14.0875 22.8857 14.1123 22.8487C14.1125 22.8489 14.1127 22.8492 14.1129 22.8494ZM14.777 23.2038C14.641 22.9158 14.5026 22.6238 14.3704 22.3312C14.3683 22.5838 14.5981 22.9883 14.4864 23.0635C14.4437 22.9859 14.4016 22.9091 14.3592 22.8312C14.3607 22.7579 14.3628 22.6855 14.3651 22.6134C14.1965 22.3837 14.2235 22.5526 14.0564 22.0655C13.9833 22.4269 13.9008 22.5255 14.424 23.266C14.2602 23.1525 13.9917 23.4351 14.4182 23.7909C14.4974 23.8572 14.3755 23.4911 14.3811 23.4842C14.4438 23.394 14.5809 23.5666 14.6371 23.4743C14.6626 23.4331 14.572 23.2184 14.6098 23.1653C14.6284 23.1404 14.7841 23.3145 14.777 23.2038ZM14.5946 23.9755C14.5032 23.9062 14.5162 24.2734 14.6692 24.5377C14.6777 24.5525 14.6857 24.5656 14.693 24.5773C14.7792 24.7135 14.7924 24.6622 14.77 24.5412C14.74 24.3834 14.6566 24.1095 14.5946 23.9755ZM48.2755 38.7219C48.275 38.7222 48.2746 38.7226 48.2741 38.7229C48.2743 38.7227 48.2744 38.7224 48.2746 38.7221C48.2749 38.722 48.2752 38.722 48.2755 38.7219ZM18.1267 5.21012C18.3614 5.39955 18.5449 5.7105 18.5928 5.64017C18.6421 5.73992 18.6883 5.83042 18.7165 5.88282C18.733 5.867 18.7493 5.85084 18.7657 5.8353C18.6498 5.6901 18.4635 5.29219 18.139 4.95805C18.1392 5.04332 18.1308 5.12314 18.1267 5.21012ZM20.2372 4.44216C20.5677 4.15299 20.226 4.3229 20.2638 4.22135C20.3015 4.11915 20.6233 3.88861 20.5411 3.86602C20.3443 4.03534 20.1402 4.21479 19.9444 4.39241C20.0481 4.40266 20.1377 4.42807 20.2378 4.44157C20.2376 4.44177 20.2374 4.44196 20.2372 4.44216ZM24.2446 34.3259C23.9721 34.1798 24.1172 34.1666 23.5363 33.9848C23.5367 33.985 23.5371 33.9852 23.5375 33.9854C23.91 34.2283 24.3925 34.4992 24.9019 34.6653C25.0405 34.7104 25.1783 34.7502 25.3142 34.7825C25.1817 34.7007 25.0563 34.6472 24.9247 34.6001C24.7186 34.5261 24.5021 34.4596 24.2446 34.3259ZM14.3684 5.76984C14.3696 5.91377 14.6747 5.37967 14.6871 5.24134C14.7033 5.00547 14.361 5.53862 14.3684 5.76984ZM35.8814 37.0573C36.1273 37.0296 36.0591 36.897 35.8009 36.7554C35.599 36.6435 35.2869 36.5002 34.9069 36.3978C34.8548 36.384 34.8017 36.3716 34.7479 36.3607C34.7131 36.3538 34.8004 36.3943 34.8918 36.4433C35.0082 36.5058 35.131 36.5793 35.0332 36.5677C35.0248 36.5667 34.9517 36.5412 34.8676 36.5156C34.7758 36.4875 34.6707 36.4612 34.6268 36.4629C34.5424 36.4665 34.6054 36.5488 34.4736 36.5393C34.2879 36.5243 33.933 36.4011 33.7064 36.3892C33.6558 36.386 33.6132 36.3859 33.5806 36.3922C33.57 36.3943 33.6289 36.4247 33.6985 36.4541C33.7773 36.4873 33.8648 36.5253 33.8748 36.5286C34.1802 36.6261 34.5022 36.6059 34.5521 36.6198C34.7752 36.6825 34.7449 36.7483 34.7768 36.7881C34.7804 36.7927 34.7847 36.7969 34.7902 36.8009C34.893 36.875 35.1084 36.9105 35.122 36.918C35.3668 37.0589 35.0161 36.9413 34.7523 36.8617C34.6442 36.8296 34.549 36.806 34.5138 36.8052C34.1904 36.8093 34.4474 36.9243 33.7289 36.8474C33.7182 36.8466 33.6892 36.8431 33.6516 36.8392C33.4381 36.8158 32.9853 36.7402 33.643 36.9098C33.703 36.9238 33.7737 36.9409 33.8562 36.9629C33.7753 36.9575 33.7026 36.9551 33.6375 36.9544C32.7327 36.8706 33.007 36.958 33.625 37.0566C33.9227 37.0894 34.3063 37.1672 34.6195 37.2602C34.8624 37.3313 35.0766 37.3954 35.1558 37.4113C35.3247 37.4462 35.105 37.2871 35.2147 37.2852C35.344 37.2827 35.513 37.31 35.6464 37.3149C35.7595 37.3169 35.8443 37.3083 35.8448 37.2493C35.8449 37.1691 35.7936 37.1148 35.7125 37.0755C35.5299 36.9892 35.207 36.9507 34.9883 36.8437C35.0407 36.8048 35.0713 36.7598 35.1529 36.7323C35.0621 36.7559 35.4853 36.9429 35.729 37.0157C35.8123 37.0414 35.8722 37.0588 35.8813 37.0577C35.8813 37.0576 35.8813 37.0574 35.8814 37.0573ZM30.4558 35.9942C30.4038 35.9716 30.3582 35.9534 30.3163 35.9384C30.0077 35.8305 29.9539 35.9418 29.5849 35.7667C29.1601 35.8043 29.9335 35.9897 30.0171 36.0157C30.1342 36.0548 30.2069 36.095 30.262 36.1343C30.4129 36.2317 30.4799 36.3195 30.7912 36.3604C30.6637 36.2371 30.5669 36.1179 30.4558 35.9942ZM34.5778 37.0024C34.3643 36.9934 34.531 37.0593 34.6677 37.1156C34.7371 37.1439 34.8008 37.1694 34.8065 37.1766C34.8607 37.2441 34.7651 37.2425 34.6348 37.2143C34.3241 37.147 33.7543 36.9429 34.5778 37.0024ZM13.7268 20.9373C13.6776 20.7749 13.6401 20.9022 13.5717 20.7667C13.5012 20.6325 13.4195 20.1224 13.3793 20.1464C13.3329 20.1703 13.4879 21.1182 13.1922 20.2082C13.1753 20.2467 13.1533 20.2415 13.1344 20.2632C13.205 20.5185 13.2837 20.7734 13.3671 21.0217C13.3935 20.8611 13.4247 20.6965 13.455 20.5435C13.5562 20.665 13.5075 20.7661 13.5098 20.7732C13.5098 20.7731 13.5099 20.7731 13.51 20.7731C13.6002 21.0307 13.8394 21.2968 13.7268 20.9373ZM20.6642 32.0846C20.7801 31.9949 20.5609 31.9319 20.3779 31.8551C20.315 31.8291 20.2572 31.8025 20.2198 31.777C20.0759 31.6798 19.9604 31.4681 19.9657 31.5873C20.0377 31.6931 20.1837 31.8159 20.3295 31.912C20.4996 32.0243 20.6548 32.0913 20.6643 32.0844C20.6643 32.0845 20.6642 32.0845 20.6642 32.0846ZM27.8784 35.3039C27.7632 35.2835 27.6895 35.2753 27.6234 35.2672C27.4536 35.246 27.382 35.2425 27.0425 35.0844C27.0466 35.1344 27.0501 35.1852 27.0547 35.2346C27.3343 35.3289 27.4214 35.2832 27.6081 35.3191C27.6831 35.3333 27.7686 35.3586 27.8924 35.4106C27.9625 35.4402 27.7761 35.4973 28.1162 35.56C28.036 35.4777 27.9552 35.3885 27.8784 35.3039ZM25.8866 34.8181C25.9159 34.8271 25.9453 34.8345 25.9745 34.8405C26.3482 34.9183 26.7062 34.7382 26.0422 34.6256C26.0072 34.6203 25.9696 34.6151 25.9293 34.6099C25.7979 34.5932 25.5376 34.7084 25.8866 34.8181ZM15.4055 24.9714C15.0653 24.2409 15.406 25.0921 15.453 25.3064C14.5894 23.6322 15.5474 25.4898 15.4846 25.7463C15.643 25.931 15.9718 26.2483 15.7588 25.8087C15.6739 25.6255 15.66 25.7168 15.6542 25.7061C15.4927 25.3713 15.596 25.3695 15.4055 24.9714ZM31.3024 36.1839C31.272 36.1805 31.306 36.2531 31.2076 36.2458C31.109 36.2387 30.9002 36.1458 30.8698 36.1787C30.8387 36.2138 31.2733 36.3405 31.4105 36.337C31.5486 36.3348 31.5777 36.2146 31.3024 36.1839ZM28.3434 35.2638C27.9449 35.1975 28.5115 35.6064 28.5973 35.6285C29.3435 35.8227 28.2992 35.3311 28.3434 35.2638ZM16.6731 26.3878C16.5582 26.2495 16.47 26.1606 16.4053 26.1118C16.2809 26.0192 16.2434 26.0734 16.2598 26.2081C16.2813 26.3755 16.377 26.662 16.4778 26.9246C16.5425 26.9782 16.6089 27.0342 16.673 27.0866C16.3478 26.8641 15.8617 26.4068 16.7622 27.5327C16.3567 26.8577 16.7552 27.3839 16.7653 27.3825C17.0439 27.2974 16.313 26.4051 16.6736 26.3885C16.6735 26.3883 16.6733 26.388 16.6731 26.3878ZM32.5364 36.5209C32.7973 36.6062 33.488 36.7674 33.6672 36.7108C33.7131 36.6994 33.7222 36.6806 33.6744 36.6517C33.6527 36.6396 33.6215 36.6258 33.5787 36.609C33.2236 36.6181 32.8592 36.5561 32.5364 36.5209ZM13.5635 11.482C13.7072 11.1584 13.7701 10.8446 13.8484 10.4269C13.6726 10.782 13.7103 10.5331 13.7107 10.4018C13.7117 10.2026 13.6222 10.6678 13.615 10.6676C13.5205 10.6396 13.5668 10.3415 13.431 11.0147C13.4324 10.8415 13.432 10.6706 13.4321 10.4976C13.3247 11.0095 13.2363 11.117 13.0895 11.4222C13.3137 11.1823 13.1817 11.4548 13.1487 11.793C13.1445 11.8372 13.1414 11.8833 13.1409 11.9303C13.1398 12.0306 13.233 11.9585 13.3327 11.8363C13.4274 11.7204 13.5279 11.5618 13.5638 11.4807C13.5637 11.4812 13.5636 11.4816 13.5635 11.482ZM16.1896 25.5343C16.1127 25.4657 16.0295 25.4082 15.9507 25.342C15.8994 25.2519 15.8491 25.1605 15.7989 25.0688C15.8204 25.0439 15.844 25.0202 15.8633 24.9938C15.8102 24.8672 15.7963 24.9338 15.7744 24.8986C15.7745 24.8985 15.7747 24.8985 15.7748 24.8984C15.6046 24.6226 15.5007 24.4299 15.4221 24.2358C15.3598 24.0809 15.3151 23.9228 15.2713 23.7186C15.1862 23.756 15.1012 23.7933 15.0161 23.8306C15.0658 23.922 15.1165 24.0145 15.1673 24.1056C15.2352 24.1346 15.3039 24.1644 15.3722 24.1932C15.3765 24.2135 15.3807 24.2335 15.3849 24.2532C15.4069 24.3542 15.4277 24.4515 15.4504 24.5524C15.5078 24.6311 15.5749 24.727 15.627 24.794C15.6058 25.2904 15.3387 24.456 15.2193 24.3308C15.2076 24.319 15.1971 24.3137 15.1881 24.3169C15.1819 24.3191 15.1805 24.33 15.183 24.3478C15.2052 24.5211 15.6126 25.3439 15.7218 25.4496C15.7389 25.4664 15.7993 25.1677 15.8976 25.5687C15.9138 25.6282 15.5534 25.8598 16.0727 26.067C16.1457 26.0933 16.2532 25.7772 16.1896 25.5343ZM14.7 21.8884C14.6651 22.5576 14.1385 20.3421 14.2705 21.3324C14.0592 21.1125 14.0779 21.1603 14.0729 21.4626C14.0723 21.4895 13.9731 21.3177 13.975 21.335C14.0091 21.6045 14.1531 21.8913 14.0516 21.9322C14.0828 21.9973 14.1119 22.0584 14.1431 22.1228C14.1317 21.8074 14.3671 22.2252 14.5156 22.3622C14.5829 22.425 14.5239 22.2429 14.5817 22.2952C14.6027 22.3147 14.6781 22.5715 14.7159 22.5682C14.8002 22.5586 14.8396 22.3626 14.7925 22.078C14.7926 22.078 14.7926 22.078 14.7927 22.078C14.7618 22.014 14.7308 21.9524 14.7 21.8884ZM22.0889 32.3251C22.0995 32.5038 22.4372 32.7653 21.7108 32.3979C21.7289 32.444 21.7485 32.4906 21.7672 32.5368C21.885 32.6077 21.9997 32.6751 22.1205 32.7448C22.2416 32.7119 22.3542 32.7197 22.455 32.7482C22.839 32.8573 23.0568 33.2748 22.8432 32.8726C22.8137 32.8173 22.5163 32.6893 22.8371 32.7686C22.8367 32.7683 22.8364 32.768 22.8361 32.7678C22.7038 32.7027 22.6076 32.6605 22.527 32.6241C22.3663 32.5511 22.2706 32.501 22.0889 32.3251ZM19.7563 30.5465C18.8195 30.0094 20.6216 31.6948 20.3997 31.3285C20.3717 31.3058 19.5878 30.5941 19.7563 30.5465ZM26.8955 34.3049C26.4653 34.1413 26.3728 34.2896 26.3992 34.3624C26.424 34.4346 26.7455 34.4868 26.7804 34.5098C26.8955 34.5853 26.6213 34.5074 26.7701 34.6076C26.8175 34.6444 27.5584 34.9597 27.5982 34.9581C27.8049 34.9785 27.5606 34.76 27.621 34.7616C27.6683 34.7629 27.7172 34.7721 27.7659 34.7846C27.9197 34.824 28.0627 34.8946 28.1174 34.8524C28.2437 34.7578 27.9441 34.7554 27.7772 34.7461C27.7367 34.744 27.7055 34.7417 27.6898 34.7376C27.4562 34.6737 27.5038 34.5952 27.3385 34.5219C27.1739 34.4478 27.053 34.4367 26.9039 34.376C26.8542 34.3557 26.917 34.3133 26.8955 34.3049ZM25.3336 34.1409C25.5988 34.1615 25.4195 34.0237 25.1735 33.888C24.9642 33.7724 24.713 33.6443 24.6493 33.6321C24.3323 33.5706 24.7729 33.9238 25.1103 34.0689C25.2021 34.1094 25.2824 34.1368 25.3336 34.1409ZM14.9039 23.4649C15.1606 23.833 14.8288 22.863 14.6884 22.6048C14.672 22.6694 14.8139 23.3381 14.9039 23.4649ZM16.8175 26.6142C16.5759 26.2888 16.6878 26.8536 16.8765 27.1337C17.0997 27.2232 16.9733 27.0834 16.8588 26.8964C16.7444 26.7088 17.0062 26.8667 16.8175 26.6142ZM31.6308 35.7554C31.5422 35.7487 30.1642 35.5321 30.9314 35.7673C30.9882 35.7915 31.9562 35.9642 32.0344 35.9585C32.1905 35.9466 31.8498 35.805 31.6308 35.7554ZM18.0762 28.0605C17.8541 27.9679 17.7301 27.7992 17.7373 28.0385C17.7375 28.0388 17.7376 28.039 17.7378 28.0392C17.3799 27.6347 17.6027 27.4477 17.531 27.359C17.2861 27.0435 17.3356 27.47 17.1378 27.2988C17.5254 27.7493 17.317 27.6878 17.5794 28.0565C17.638 28.1393 17.9525 28.41 18.0287 28.4225C18.1048 28.4367 18.0949 28.1814 18.0762 28.0605ZM33.5609 36.1925C33.1443 36.0684 32.6701 36.109 33.2898 36.3164C33.5994 36.4041 33.8255 36.2575 33.5609 36.1925ZM19.2184 6.36894C19.1272 6.38084 19.0328 6.39386 18.935 6.40268C19.0815 6.28136 19.2025 6.15253 19.3243 6.02225C19.2328 6.12964 19.1397 6.23579 19.0344 6.34021C19.3083 6.13502 19.4825 6.09112 19.2191 6.36835C19.2189 6.36855 19.2186 6.36875 19.2184 6.36894ZM28.5822 3.54756C28.7326 3.51819 28.9128 3.24824 28.8753 3.25568C28.5912 3.31225 28.3728 3.58873 28.5822 3.54756ZM15.0744 22.6929C14.8906 22.1827 14.8034 22.619 14.9154 22.9347C14.8808 22.7283 15.1801 22.9821 15.0744 22.6929ZM24.6962 4.58684C24.6684 4.5334 24.6426 4.47932 24.6152 4.42031C24.7301 4.57919 24.749 4.61333 24.6962 4.58684ZM31.4557 35.5011C31.3756 35.4689 30.8012 35.3211 30.7175 35.3189C30.5418 35.3226 30.9618 35.5744 31.244 35.59C31.275 35.5925 31.5322 35.5358 31.4545 35.5008C31.4549 35.5009 31.4553 35.501 31.4557 35.5011ZM19.8391 5.91255C19.8368 5.91159 19.8356 5.90965 19.8354 5.90694C19.8365 5.90893 19.8382 5.9104 19.8391 5.91255ZM39.7576 1.68294C39.7592 1.67955 39.7607 1.67613 39.7623 1.67287C39.7608 1.67609 39.7592 1.67945 39.7576 1.68294ZM27.37 34.1873C27.2619 33.9066 26.7845 33.8621 27.0901 34.0953C27.1076 34.1084 27.3251 34.172 27.37 34.1873Z" fill="#E8E8E8"/>
</svg>
