<svg width="523" height="370" viewBox="0 0 523 370" fill="none" xmlns="http://www.w3.org/2000/svg">
<path d="M321.04 228.03C321.04 202.01 299.22 183.21 268.67 183.21H216.13V306.09H254.41V271.68H260.96L280.94 306.09H325.26L300.75 263.79C313.67 256.4 321.06 243.81 321.06 228.03H321.04ZM267.99 240.12H254.39V214.94H267.99C277.39 214.94 282.43 220.82 282.43 228.03C282.43 235.24 277.39 240.12 267.99 240.12Z" fill="#E8E8E8"/>
<path d="M424.85 237.35C424.85 235.17 427.87 234.16 432.24 234.16C440.47 234.16 451.54 237.01 460.78 241.88L471.52 218.71C458.59 210.65 446.17 207.8 430.56 207.8C405.55 207.8 389.27 220.73 389.27 240.7C389.27 278.64 440.64 267.22 440.64 277.3C440.64 280.15 437.45 280.66 432.75 280.66C423.52 280.66 408.91 276.3 400.02 270.92L387.6 293.25C402.2 303.49 414.63 307.02 434.44 307.02C459.96 307.02 475.74 294.26 475.74 273.45C475.74 234.34 424.87 246.76 424.87 237.36L424.85 237.35Z" fill="#E8E8E8"/>
<path d="M165.57 164.91L200.9 165.14L212.2 132.34H178.26L197.4 83.26L208.08 55.23H55.25V87.96H153.76L136.46 132.34L102.13 132.58L89.16 165.39L123.77 164.91L114.14 189.62L66.41 306.09H110.54L117.48 288.3H159.75L166.47 306.09H208.1L158.19 183.9L165.59 164.91H165.57ZM129.51 257.41L139.06 232.92L148.16 257.41H129.52H129.51Z" fill="#E8E8E8"/>
<path d="M216.72 132.35L205.42 165.14L333.85 164.91V306.09H372.29V164.91H404.86V132.35H216.72Z" fill="#E8E8E8"/>
<path d="M383.26 290.68C381.35 289.53 378.65 287.76 375.67 285.29C375.25 281.71 374.57 194.47 375.61 188.84C391.44 178.29 397.96 174.03 427.78 172.9C433.11 170.57 431.96 172.58 433.11 170.57C433.67 169.6 433.37 168.83 433.05 168.28C431.33 165.32 422.5 165.01 409.52 165.01C409.47 165.01 409.64 161.88 409.58 161.88L409.51 132.36C437.78 132.31 451.06 148.23 455.23 155.43C460.32 164.21 460.35 174.66 455.32 183.39C449.84 192.89 439.46 198.56 427.54 198.56H426.95C398.88 197.29 384.13 212.28 379.68 226.77C374.71 242.96 381.37 259.47 396.65 268.84L383.24 290.7L383.26 290.68Z" fill="#E8E8E8"/>
<path d="M41.71 87.33C28.51 87.33 17.77 82.04 9.25003 72.14C5.79003 68.12 2.03003 61 3.75003 49.86C5.52003 38.42 10.49 34.7 21.49 26.35C29.77 20.06 31.3 19.66 39.69 14.13L83.66 14.76C55.26 34.71 58.31 33.94 44.05 44.76C40.51 47.44 37.44 49.48 34.79 52.09C29.71 55.71 46.74 55 50.98 54.98L51.1 87.33C50 87.33 42.84 87.33 41.72 87.33H41.71Z" fill="#E8E8E8"/>
<path d="M77.08 165.14C65.26 165.14 57.53 161.16 48.72 152.25C42.89 146.35 39.87 138.1 39.53 127.1C32.61 124.89 30.82 124.91 19.74 124.93H16L0 96.6H3.70999C28.72 96.56 50.25 96.54 61.29 107.76C65.68 112.22 67.95 117.91 67.84 124.21C67.75 129.86 72.61 129.99 72.82 130.39C74.85 131.58 75.4 132.39 80.66 132.36L96.87 132.11L83.71 165.61H81.6C80.62 165.62 78.05 165.15 77.07 165.15L77.08 165.14Z" fill="#E8E8E8"/>
<path d="M337.68 126.69C337.33 110.6 342.52 93.8 351.97 84.65C357.83 78.98 368.81 69.85 390.12 76.11C397.82 78.37 403.26 79.96 407.38 82.71C414.23 87.27 431.66 96.6 461.38 95.77L483.38 125.77C417.92 125.77 400.91 114.45 390.75 107.68C389.86 107.08 388.77 106.36 388.21 106.06C381.24 105.75 378.72 108.2 377.88 109.01C374.59 112.19 371.73 119.52 371.89 126.95L337.68 126.71V126.69Z" fill="#E8E8E8"/>
<path d="M255.3 369.68C245.34 369.68 232.69 367.7 229.01 364.24C218.1 353.99 215.46 335.33 216.01 320.86C216.15 317.3 216.27 313.94 216.23 310.9H253.81C253.87 314.68 253.72 318.57 253.57 322.33C253.36 327.99 252.96 338.23 254.41 341.64C254.74 341.67 255.23 341.69 255.9 341.66C256.66 341.11 257.94 340 258.93 339.15C270.53 329.15 292.13 310.55 374.09 312.21L356.52 337.2C309.9 334.89 285.97 352.81 277.21 360.36C272.71 364.24 267.61 368.64 259.5 369.45C258.03 369.6 256.63 369.67 255.3 369.67V369.68Z" fill="#E8E8E8"/>
<path d="M522.27 259.12C496.43 259.12 482.23 251.83 464.99 243.75L475.43 221.24C490.2 228.16 493.63 231.93 503.85 232.91L522.27 259.11V259.12Z" fill="#E8E8E8"/>
<path d="M226.83 0.00999451C226.83 10.47 224.38 17.64 222.22 23.95C221.54 25.95 220.89 27.83 220.35 29.74C212.56 57.28 199.03 91.48 187.09 121.66C186.48 123.2 184.88 126.73 184.28 128.24H214.75C226.34 98.92 239.95 64.56 247.62 37.45C247.95 36.28 247.93 36.64 248.64 34.99C248.64 34.99 252.12 30.38 252.12 20.41L226.83 0V0.00999451Z" fill="#E8E8E8"/>
<path d="M194.2 183.12C195.55 178.92 197.27 174.02 199.26 168.64H169.16C168.08 171.78 167.12 174.71 166.3 177.41C162.98 188.37 166.15 195.86 169.4 200.21C177.81 211.49 195.39 212.24 208.58 212.24C209.62 212.24 210.64 212.24 211.64 212.24L211.51 183.9C208.34 183.91 199.13 183.95 194.2 183.13V183.12Z" fill="#E8E8E8"/>
<path d="M73.01 276.85L83.66 250.71C82.7 250.27 81.99 249.84 81.5 249.45C79.19 247.65 78.2 244.63 76.65 239.44C73.96 230.41 68.94 213.59 45.67 212.9C33.4 212.54 24.21 215.66 17.62 222.46C5.85001 234.61 6.97 245 8.52 270.45C9.03 278.79 9.61001 273.25 9.76001 283.31L38.09 297.88C37.93 287.18 37.33 277.37 36.8 268.73C35.99 255.49 34.89 245.36 37.96 242.19C38.25 241.9 40.11 241.08 44.82 241.23C46.26 241.27 47.04 241.45 47.38 241.55C48.02 242.61 48.9 245.55 49.49 247.54C52.06 256.16 56.13 269.78 73.01 276.86V276.85Z" fill="#E8E8E8"/>
</svg>
